<?xml version="1.0" encoding="utf-8"?>
<svg xmlns="http://www.w3.org/2000/svg" xmlns:xlink="http://www.w3.org/1999/xlink" width="1150" height="350" viewBox="0 0 4600 1400">
<defs>
  <clipPath id="clip540">
    <rect x="0" y="0" width="4600" height="1400"/>
  </clipPath>
</defs>
<path clip-path="url(#clip540)" d="M0 1400 L4600 1400 L4600 0 L0 0  Z" fill="#ffffff" fill-rule="evenodd" fill-opacity="1"/>
<defs>
  <clipPath id="clip541">
    <rect x="169" y="90" width="4384" height="1186"/>
  </clipPath>
</defs>
<path clip-path="url(#clip540)" d="M169.614 1275.71 L4552.76 1275.71 L4552.76 90.6026 L169.614 90.6026  Z" fill="#ffffff" fill-rule="evenodd" fill-opacity="1"/>
<polyline clip-path="url(#clip541)" style="stroke:#000000; stroke-linecap:round; stroke-linejoin:round; stroke-width:2; stroke-opacity:0.1; fill:none" points="293.665,1275.71 293.665,90.6026 "/>
<polyline clip-path="url(#clip541)" style="stroke:#000000; stroke-linecap:round; stroke-linejoin:round; stroke-width:2; stroke-opacity:0.1; fill:none" points="1120.67,1275.71 1120.67,90.6026 "/>
<polyline clip-path="url(#clip541)" style="stroke:#000000; stroke-linecap:round; stroke-linejoin:round; stroke-width:2; stroke-opacity:0.1; fill:none" points="1947.68,1275.71 1947.68,90.6026 "/>
<polyline clip-path="url(#clip541)" style="stroke:#000000; stroke-linecap:round; stroke-linejoin:round; stroke-width:2; stroke-opacity:0.1; fill:none" points="2774.69,1275.71 2774.69,90.6026 "/>
<polyline clip-path="url(#clip541)" style="stroke:#000000; stroke-linecap:round; stroke-linejoin:round; stroke-width:2; stroke-opacity:0.1; fill:none" points="3601.7,1275.71 3601.7,90.6026 "/>
<polyline clip-path="url(#clip541)" style="stroke:#000000; stroke-linecap:round; stroke-linejoin:round; stroke-width:2; stroke-opacity:0.1; fill:none" points="4428.7,1275.71 4428.7,90.6026 "/>
<polyline clip-path="url(#clip541)" style="stroke:#000000; stroke-linecap:round; stroke-linejoin:round; stroke-width:2; stroke-opacity:0.1; fill:none" points="169.614,1007.68 4552.76,1007.68 "/>
<polyline clip-path="url(#clip541)" style="stroke:#000000; stroke-linecap:round; stroke-linejoin:round; stroke-width:2; stroke-opacity:0.1; fill:none" points="169.614,708.906 4552.76,708.906 "/>
<polyline clip-path="url(#clip541)" style="stroke:#000000; stroke-linecap:round; stroke-linejoin:round; stroke-width:2; stroke-opacity:0.1; fill:none" points="169.614,410.134 4552.76,410.134 "/>
<polyline clip-path="url(#clip541)" style="stroke:#000000; stroke-linecap:round; stroke-linejoin:round; stroke-width:2; stroke-opacity:0.1; fill:none" points="169.614,111.362 4552.76,111.362 "/>
<polyline clip-path="url(#clip540)" style="stroke:#000000; stroke-linecap:round; stroke-linejoin:round; stroke-width:4; stroke-opacity:1; fill:none" points="169.614,1275.71 4552.76,1275.71 "/>
<polyline clip-path="url(#clip540)" style="stroke:#000000; stroke-linecap:round; stroke-linejoin:round; stroke-width:4; stroke-opacity:1; fill:none" points="293.665,1275.71 293.665,1256.81 "/>
<polyline clip-path="url(#clip540)" style="stroke:#000000; stroke-linecap:round; stroke-linejoin:round; stroke-width:4; stroke-opacity:1; fill:none" points="1120.67,1275.71 1120.67,1256.81 "/>
<polyline clip-path="url(#clip540)" style="stroke:#000000; stroke-linecap:round; stroke-linejoin:round; stroke-width:4; stroke-opacity:1; fill:none" points="1947.68,1275.71 1947.68,1256.81 "/>
<polyline clip-path="url(#clip540)" style="stroke:#000000; stroke-linecap:round; stroke-linejoin:round; stroke-width:4; stroke-opacity:1; fill:none" points="2774.69,1275.71 2774.69,1256.81 "/>
<polyline clip-path="url(#clip540)" style="stroke:#000000; stroke-linecap:round; stroke-linejoin:round; stroke-width:4; stroke-opacity:1; fill:none" points="3601.7,1275.71 3601.7,1256.81 "/>
<polyline clip-path="url(#clip540)" style="stroke:#000000; stroke-linecap:round; stroke-linejoin:round; stroke-width:4; stroke-opacity:1; fill:none" points="4428.7,1275.71 4428.7,1256.81 "/>
<path clip-path="url(#clip540)" d="M273.876 1322.76 Q270.717 1322.76 269.117 1325.88 Q267.537 1328.98 267.537 1335.22 Q267.537 1341.43 269.117 1344.55 Q270.717 1347.65 273.876 1347.65 Q277.056 1347.65 278.636 1344.55 Q280.236 1341.43 280.236 1335.22 Q280.236 1328.98 278.636 1325.88 Q277.056 1322.76 273.876 1322.76 M273.876 1319.52 Q278.96 1319.52 281.634 1323.55 Q284.328 1327.56 284.328 1335.22 Q284.328 1342.85 281.634 1346.88 Q278.96 1350.89 273.876 1350.89 Q268.793 1350.89 266.099 1346.88 Q263.425 1342.85 263.425 1335.22 Q263.425 1327.56 266.099 1323.55 Q268.793 1319.52 273.876 1319.52 Z" fill="#000000" fill-rule="nonzero" fill-opacity="1" /><path clip-path="url(#clip540)" d="M291.518 1345.16 L295.792 1345.16 L295.792 1350.31 L291.518 1350.31 L291.518 1345.16 Z" fill="#000000" fill-rule="nonzero" fill-opacity="1" /><path clip-path="url(#clip540)" d="M313.454 1322.76 Q310.294 1322.76 308.694 1325.88 Q307.114 1328.98 307.114 1335.22 Q307.114 1341.43 308.694 1344.55 Q310.294 1347.65 313.454 1347.65 Q316.634 1347.65 318.214 1344.55 Q319.814 1341.43 319.814 1335.22 Q319.814 1328.98 318.214 1325.88 Q316.634 1322.76 313.454 1322.76 M313.454 1319.52 Q318.538 1319.52 321.211 1323.55 Q323.905 1327.56 323.905 1335.22 Q323.905 1342.85 321.211 1346.88 Q318.538 1350.89 313.454 1350.89 Q308.37 1350.89 305.676 1346.88 Q303.002 1342.85 303.002 1335.22 Q303.002 1327.56 305.676 1323.55 Q308.37 1319.52 313.454 1319.52 Z" fill="#000000" fill-rule="nonzero" fill-opacity="1" /><path clip-path="url(#clip540)" d="M1101.42 1322.76 Q1098.26 1322.76 1096.66 1325.88 Q1095.08 1328.98 1095.08 1335.22 Q1095.08 1341.43 1096.66 1344.55 Q1098.26 1347.65 1101.42 1347.65 Q1104.6 1347.65 1106.18 1344.55 Q1107.78 1341.43 1107.78 1335.22 Q1107.78 1328.98 1106.18 1325.88 Q1104.6 1322.76 1101.42 1322.76 M1101.42 1319.52 Q1106.5 1319.52 1109.18 1323.55 Q1111.87 1327.56 1111.87 1335.22 Q1111.87 1342.85 1109.18 1346.88 Q1106.5 1350.89 1101.42 1350.89 Q1096.34 1350.89 1093.64 1346.88 Q1090.97 1342.85 1090.97 1335.22 Q1090.97 1327.56 1093.64 1323.55 Q1096.34 1319.52 1101.42 1319.52 Z" fill="#000000" fill-rule="nonzero" fill-opacity="1" /><path clip-path="url(#clip540)" d="M1119.06 1345.16 L1123.34 1345.16 L1123.34 1350.31 L1119.06 1350.31 L1119.06 1345.16 Z" fill="#000000" fill-rule="nonzero" fill-opacity="1" /><path clip-path="url(#clip540)" d="M1132.96 1346.86 L1139.64 1346.86 L1139.64 1323.79 L1132.37 1325.25 L1132.37 1321.52 L1139.6 1320.07 L1143.69 1320.07 L1143.69 1346.86 L1150.38 1346.86 L1150.38 1350.31 L1132.96 1350.31 L1132.96 1346.86 Z" fill="#000000" fill-rule="nonzero" fill-opacity="1" /><path clip-path="url(#clip540)" d="M1928.59 1322.76 Q1925.43 1322.76 1923.83 1325.88 Q1922.25 1328.98 1922.25 1335.22 Q1922.25 1341.43 1923.83 1344.55 Q1925.43 1347.65 1928.59 1347.65 Q1931.77 1347.65 1933.35 1344.55 Q1934.95 1341.43 1934.95 1335.22 Q1934.95 1328.98 1933.35 1325.88 Q1931.77 1322.76 1928.59 1322.76 M1928.59 1319.52 Q1933.67 1319.52 1936.35 1323.55 Q1939.04 1327.56 1939.04 1335.22 Q1939.04 1342.85 1936.35 1346.88 Q1933.67 1350.89 1928.59 1350.89 Q1923.51 1350.89 1920.81 1346.88 Q1918.14 1342.85 1918.14 1335.22 Q1918.14 1327.56 1920.81 1323.55 Q1923.51 1319.52 1928.59 1319.52 Z" fill="#000000" fill-rule="nonzero" fill-opacity="1" /><path clip-path="url(#clip540)" d="M1946.23 1345.16 L1950.51 1345.16 L1950.51 1350.31 L1946.23 1350.31 L1946.23 1345.16 Z" fill="#000000" fill-rule="nonzero" fill-opacity="1" /><path clip-path="url(#clip540)" d="M1962.94 1346.86 L1977.22 1346.86 L1977.22 1350.31 L1958.02 1350.31 L1958.02 1346.86 Q1960.35 1344.45 1964.36 1340.4 Q1968.39 1336.33 1969.42 1335.15 Q1971.39 1332.95 1972.16 1331.43 Q1972.95 1329.89 1972.95 1328.41 Q1972.95 1326 1971.25 1324.48 Q1969.57 1322.96 1966.85 1322.96 Q1964.93 1322.96 1962.78 1323.63 Q1960.65 1324.3 1958.22 1325.66 L1958.22 1321.52 Q1960.69 1320.53 1962.84 1320.02 Q1964.99 1319.52 1966.77 1319.52 Q1971.47 1319.52 1974.27 1321.87 Q1977.06 1324.22 1977.06 1328.15 Q1977.06 1330.01 1976.35 1331.69 Q1975.66 1333.35 1973.82 1335.62 Q1973.31 1336.21 1970.6 1339.02 Q1967.88 1341.82 1962.94 1346.86 Z" fill="#000000" fill-rule="nonzero" fill-opacity="1" /><path clip-path="url(#clip540)" d="M2755.18 1322.76 Q2752.02 1322.76 2750.42 1325.88 Q2748.84 1328.98 2748.84 1335.22 Q2748.84 1341.43 2750.42 1344.55 Q2752.02 1347.65 2755.18 1347.65 Q2758.36 1347.65 2759.94 1344.55 Q2761.54 1341.43 2761.54 1335.22 Q2761.54 1328.98 2759.94 1325.88 Q2758.36 1322.76 2755.18 1322.76 M2755.18 1319.52 Q2760.27 1319.52 2762.94 1323.55 Q2765.64 1327.56 2765.64 1335.22 Q2765.64 1342.85 2762.94 1346.88 Q2760.27 1350.89 2755.18 1350.89 Q2750.1 1350.89 2747.41 1346.88 Q2744.73 1342.85 2744.73 1335.22 Q2744.73 1327.56 2747.41 1323.55 Q2750.1 1319.52 2755.18 1319.52 Z" fill="#000000" fill-rule="nonzero" fill-opacity="1" /><path clip-path="url(#clip540)" d="M2772.83 1345.16 L2777.1 1345.16 L2777.1 1350.31 L2772.83 1350.31 L2772.83 1345.16 Z" fill="#000000" fill-rule="nonzero" fill-opacity="1" /><path clip-path="url(#clip540)" d="M2798.41 1334 Q2801.34 1334.63 2802.98 1336.61 Q2804.65 1338.6 2804.65 1341.51 Q2804.65 1345.99 2801.57 1348.44 Q2798.49 1350.89 2792.82 1350.89 Q2790.91 1350.89 2788.89 1350.51 Q2786.88 1350.14 2784.74 1349.39 L2784.74 1345.44 Q2786.44 1346.44 2788.46 1346.94 Q2790.49 1347.45 2792.7 1347.45 Q2796.54 1347.45 2798.55 1345.93 Q2800.57 1344.41 2800.57 1341.51 Q2800.57 1338.84 2798.69 1337.34 Q2796.83 1335.82 2793.49 1335.82 L2789.96 1335.82 L2789.96 1332.46 L2793.65 1332.46 Q2796.67 1332.46 2798.27 1331.27 Q2799.87 1330.05 2799.87 1327.78 Q2799.87 1325.45 2798.2 1324.22 Q2796.56 1322.96 2793.49 1322.96 Q2791.8 1322.96 2789.88 1323.33 Q2787.96 1323.69 2785.65 1324.46 L2785.65 1320.81 Q2787.98 1320.17 2790 1319.84 Q2792.05 1319.52 2793.85 1319.52 Q2798.51 1319.52 2801.22 1321.64 Q2803.94 1323.75 2803.94 1327.36 Q2803.94 1329.87 2802.5 1331.61 Q2801.06 1333.33 2798.41 1334 Z" fill="#000000" fill-rule="nonzero" fill-opacity="1" /><path clip-path="url(#clip540)" d="M3581.7 1322.76 Q3578.54 1322.76 3576.94 1325.88 Q3575.36 1328.98 3575.36 1335.22 Q3575.36 1341.43 3576.94 1344.55 Q3578.54 1347.65 3581.7 1347.65 Q3584.88 1347.65 3586.46 1344.55 Q3588.06 1341.43 3588.06 1335.22 Q3588.06 1328.98 3586.46 1325.88 Q3584.88 1322.76 3581.7 1322.76 M3581.7 1319.52 Q3586.78 1319.52 3589.45 1323.55 Q3592.15 1327.56 3592.15 1335.22 Q3592.15 1342.85 3589.45 1346.88 Q3586.78 1350.89 3581.7 1350.89 Q3576.61 1350.89 3573.92 1346.88 Q3571.24 1342.85 3571.24 1335.22 Q3571.24 1327.56 3573.92 1323.55 Q3576.61 1319.52 3581.7 1319.52 Z" fill="#000000" fill-rule="nonzero" fill-opacity="1" /><path clip-path="url(#clip540)" d="M3599.34 1345.16 L3603.61 1345.16 L3603.61 1350.31 L3599.34 1350.31 L3599.34 1345.16 Z" fill="#000000" fill-rule="nonzero" fill-opacity="1" /><path clip-path="url(#clip540)" d="M3623.76 1323.63 L3613.43 1339.77 L3623.76 1339.77 L3623.76 1323.63 M3622.69 1320.07 L3627.84 1320.07 L3627.84 1339.77 L3632.15 1339.77 L3632.15 1343.18 L3627.84 1343.18 L3627.84 1350.31 L3623.76 1350.31 L3623.76 1343.18 L3610.11 1343.18 L3610.11 1339.23 L3622.69 1320.07 Z" fill="#000000" fill-rule="nonzero" fill-opacity="1" /><path clip-path="url(#clip540)" d="M4409.35 1322.76 Q4406.19 1322.76 4404.59 1325.88 Q4403.01 1328.98 4403.01 1335.22 Q4403.01 1341.43 4404.59 1344.55 Q4406.19 1347.65 4409.35 1347.65 Q4412.53 1347.65 4414.11 1344.55 Q4415.71 1341.43 4415.71 1335.22 Q4415.71 1328.98 4414.11 1325.88 Q4412.53 1322.76 4409.35 1322.76 M4409.35 1319.52 Q4414.44 1319.52 4417.11 1323.55 Q4419.8 1327.56 4419.8 1335.22 Q4419.8 1342.85 4417.11 1346.88 Q4414.44 1350.89 4409.35 1350.89 Q4404.27 1350.89 4401.57 1346.88 Q4398.9 1342.85 4398.9 1335.22 Q4398.9 1327.56 4401.57 1323.55 Q4404.27 1319.52 4409.35 1319.52 Z" fill="#000000" fill-rule="nonzero" fill-opacity="1" /><path clip-path="url(#clip540)" d="M4426.99 1345.16 L4431.27 1345.16 L4431.27 1350.31 L4426.99 1350.31 L4426.99 1345.16 Z" fill="#000000" fill-rule="nonzero" fill-opacity="1" /><path clip-path="url(#clip540)" d="M4440.22 1320.07 L4456.28 1320.07 L4456.28 1323.51 L4443.97 1323.51 L4443.97 1330.92 Q4444.86 1330.62 4445.75 1330.48 Q4446.64 1330.31 4447.53 1330.31 Q4452.59 1330.31 4455.55 1333.09 Q4458.51 1335.86 4458.51 1340.6 Q4458.51 1345.48 4455.47 1348.2 Q4452.43 1350.89 4446.9 1350.89 Q4445 1350.89 4443.01 1350.57 Q4441.05 1350.24 4438.94 1349.6 L4438.94 1345.48 Q4440.77 1346.48 4442.71 1346.96 Q4444.66 1347.45 4446.82 1347.45 Q4450.33 1347.45 4452.37 1345.61 Q4454.42 1343.76 4454.42 1340.6 Q4454.42 1337.44 4452.37 1335.6 Q4450.33 1333.76 4446.82 1333.76 Q4445.18 1333.76 4443.54 1334.12 Q4441.92 1334.49 4440.22 1335.26 L4440.22 1320.07 Z" fill="#000000" fill-rule="nonzero" fill-opacity="1" /><path clip-path="url(#clip540)" d="M2365.44 1423.15 L2364.3 1417.14 Q2363.13 1410.97 2358.49 1410.97 Q2355 1410.97 2353.41 1413.83 Q2351.41 1417.42 2351.41 1422.16 Q2351.41 1427.89 2353.36 1430.63 Q2355.34 1433.41 2358.49 1433.41 Q2361.98 1433.41 2363.85 1427.87 L2365.44 1423.15 M2368.12 1415.18 L2370.7 1407.55 L2374.97 1407.55 L2369.64 1423.36 L2370.68 1429.06 Q2370.91 1430.34 2371.82 1431.41 Q2372.89 1432.66 2373.72 1432.66 L2376.02 1432.66 L2376.02 1436.72 L2373.15 1436.72 Q2370.7 1436.72 2368.52 1434.53 Q2367.45 1433.44 2367.01 1431.15 Q2365.81 1434.04 2363.36 1436.3 Q2362.21 1437.37 2358.49 1437.37 Q2352.37 1437.37 2349.4 1433.41 Q2346.35 1429.33 2346.35 1422.16 Q2346.35 1414.51 2349.66 1410.91 Q2353.33 1406.9 2358.49 1406.9 Q2366.59 1406.9 2368.12 1415.18 Z" fill="#000000" fill-rule="nonzero" fill-opacity="1" /><polyline clip-path="url(#clip540)" style="stroke:#000000; stroke-linecap:round; stroke-linejoin:round; stroke-width:4; stroke-opacity:1; fill:none" points="169.614,1275.71 169.614,90.6026 "/>
<polyline clip-path="url(#clip540)" style="stroke:#000000; stroke-linecap:round; stroke-linejoin:round; stroke-width:4; stroke-opacity:1; fill:none" points="169.614,1007.68 188.512,1007.68 "/>
<polyline clip-path="url(#clip540)" style="stroke:#000000; stroke-linecap:round; stroke-linejoin:round; stroke-width:4; stroke-opacity:1; fill:none" points="169.614,708.906 188.512,708.906 "/>
<polyline clip-path="url(#clip540)" style="stroke:#000000; stroke-linecap:round; stroke-linejoin:round; stroke-width:4; stroke-opacity:1; fill:none" points="169.614,410.134 188.512,410.134 "/>
<polyline clip-path="url(#clip540)" style="stroke:#000000; stroke-linecap:round; stroke-linejoin:round; stroke-width:4; stroke-opacity:1; fill:none" points="169.614,111.362 188.512,111.362 "/>
<path clip-path="url(#clip540)" d="M50.4435 995.251 Q47.2838 995.251 45.6836 998.37 Q44.1038 1001.47 44.1038 1007.71 Q44.1038 1013.93 45.6836 1017.04 Q47.2838 1020.14 50.4435 1020.14 Q53.6234 1020.14 55.2033 1017.04 Q56.8034 1013.93 56.8034 1007.71 Q56.8034 1001.47 55.2033 998.37 Q53.6234 995.251 50.4435 995.251 M50.4435 992.01 Q55.5273 992.01 58.2009 996.041 Q60.8948 1000.05 60.8948 1007.71 Q60.8948 1015.34 58.2009 1019.37 Q55.5273 1023.38 50.4435 1023.38 Q45.3596 1023.38 42.6657 1019.37 Q39.9921 1015.34 39.9921 1007.71 Q39.9921 1000.05 42.6657 996.041 Q45.3596 992.01 50.4435 992.01 Z" fill="#000000" fill-rule="nonzero" fill-opacity="1" /><path clip-path="url(#clip540)" d="M68.0851 1017.65 L72.3589 1017.65 L72.3589 1022.8 L68.0851 1022.8 L68.0851 1017.65 Z" fill="#000000" fill-rule="nonzero" fill-opacity="1" /><path clip-path="url(#clip540)" d="M90.5272 1006.05 Q87.7725 1006.05 86.1522 1007.93 Q84.5521 1009.81 84.5521 1013.1 Q84.5521 1016.36 86.1522 1018.26 Q87.7725 1020.14 90.5272 1020.14 Q93.2818 1020.14 94.8819 1018.26 Q96.5022 1016.36 96.5022 1013.1 Q96.5022 1009.81 94.8819 1007.93 Q93.2818 1006.05 90.5272 1006.05 M98.6492 993.225 L98.6492 996.952 Q97.1099 996.223 95.53 995.838 Q93.9704 995.453 92.4311 995.453 Q88.3802 995.453 86.2332 998.188 Q84.1065 1000.92 83.8027 1006.45 Q84.9977 1004.69 86.8003 1003.76 Q88.603 1002.81 90.7702 1002.81 Q95.3275 1002.81 97.9606 1005.58 Q100.614 1008.34 100.614 1013.1 Q100.614 1017.75 97.8593 1020.57 Q95.1047 1023.38 90.5272 1023.38 Q85.2812 1023.38 82.5064 1019.37 Q79.7315 1015.34 79.7315 1007.71 Q79.7315 1000.54 83.1343 996.284 Q86.537 992.01 92.269 992.01 Q93.8084 992.01 95.368 992.314 Q96.9478 992.618 98.6492 993.225 Z" fill="#000000" fill-rule="nonzero" fill-opacity="1" /><path clip-path="url(#clip540)" d="M50.6663 696.479 Q47.5066 696.479 45.9064 699.599 Q44.3266 702.698 44.3266 708.936 Q44.3266 715.154 45.9064 718.273 Q47.5066 721.372 50.6663 721.372 Q53.8462 721.372 55.4261 718.273 Q57.0262 715.154 57.0262 708.936 Q57.0262 702.698 55.4261 699.599 Q53.8462 696.479 50.6663 696.479 M50.6663 693.239 Q55.7501 693.239 58.4237 697.269 Q61.1176 701.28 61.1176 708.936 Q61.1176 716.572 58.4237 720.603 Q55.7501 724.613 50.6663 724.613 Q45.5824 724.613 42.8885 720.603 Q40.2149 716.572 40.2149 708.936 Q40.2149 701.28 42.8885 697.269 Q45.5824 693.239 50.6663 693.239 Z" fill="#000000" fill-rule="nonzero" fill-opacity="1" /><path clip-path="url(#clip540)" d="M68.3079 718.881 L72.5817 718.881 L72.5817 724.026 L68.3079 724.026 L68.3079 718.881 Z" fill="#000000" fill-rule="nonzero" fill-opacity="1" /><path clip-path="url(#clip540)" d="M90.2436 709.665 Q87.3269 709.665 85.6458 711.225 Q83.9849 712.784 83.9849 715.519 Q83.9849 718.253 85.6458 719.813 Q87.3269 721.372 90.2436 721.372 Q93.1602 721.372 94.8414 719.813 Q96.5225 718.233 96.5225 715.519 Q96.5225 712.784 94.8414 711.225 Q93.1805 709.665 90.2436 709.665 M86.1522 707.923 Q83.5191 707.275 82.0405 705.472 Q80.5822 703.67 80.5822 701.077 Q80.5822 697.452 83.1545 695.345 Q85.7471 693.239 90.2436 693.239 Q94.7604 693.239 97.3327 695.345 Q99.905 697.452 99.905 701.077 Q99.905 703.67 98.4264 705.472 Q96.9681 707.275 94.3553 707.923 Q97.3124 708.612 98.953 710.617 Q100.614 712.622 100.614 715.519 Q100.614 719.914 97.9201 722.263 Q95.2465 724.613 90.2436 724.613 Q85.2407 724.613 82.5469 722.263 Q79.8733 719.914 79.8733 715.519 Q79.8733 712.622 81.5341 710.617 Q83.195 708.612 86.1522 707.923 M84.6533 701.462 Q84.6533 703.812 86.1117 705.128 Q87.5903 706.445 90.2436 706.445 Q92.8767 706.445 94.3553 705.128 Q95.8541 703.812 95.8541 701.462 Q95.8541 699.112 94.3553 697.796 Q92.8767 696.479 90.2436 696.479 Q87.5903 696.479 86.1117 697.796 Q84.6533 699.112 84.6533 701.462 Z" fill="#000000" fill-rule="nonzero" fill-opacity="1" /><path clip-path="url(#clip540)" d="M42.5442 421.811 L49.2282 421.811 L49.2282 398.741 L41.9568 400.199 L41.9568 396.472 L49.1877 395.014 L53.2791 395.014 L53.2791 421.811 L59.9631 421.811 L59.9631 425.254 L42.5442 425.254 L42.5442 421.811 Z" fill="#000000" fill-rule="nonzero" fill-opacity="1" /><path clip-path="url(#clip540)" d="M68.2269 420.109 L72.5006 420.109 L72.5006 425.254 L68.2269 425.254 L68.2269 420.109 Z" fill="#000000" fill-rule="nonzero" fill-opacity="1" /><path clip-path="url(#clip540)" d="M90.1626 397.708 Q87.0029 397.708 85.4028 400.827 Q83.8229 403.926 83.8229 410.164 Q83.8229 416.382 85.4028 419.502 Q87.0029 422.601 90.1626 422.601 Q93.3425 422.601 94.9224 419.502 Q96.5225 416.382 96.5225 410.164 Q96.5225 403.926 94.9224 400.827 Q93.3425 397.708 90.1626 397.708 M90.1626 394.467 Q95.2465 394.467 97.9201 398.498 Q100.614 402.508 100.614 410.164 Q100.614 417.8 97.9201 421.831 Q95.2465 425.841 90.1626 425.841 Q85.0787 425.841 82.3848 421.831 Q79.7112 417.8 79.7112 410.164 Q79.7112 402.508 82.3848 398.498 Q85.0787 394.467 90.1626 394.467 Z" fill="#000000" fill-rule="nonzero" fill-opacity="1" /><path clip-path="url(#clip540)" d="M43.9418 123.039 L50.6257 123.039 L50.6257 99.9693 L43.3544 101.428 L43.3544 97.7007 L50.5852 96.2424 L54.6767 96.2424 L54.6767 123.039 L61.3606 123.039 L61.3606 126.482 L43.9418 126.482 L43.9418 123.039 Z" fill="#000000" fill-rule="nonzero" fill-opacity="1" /><path clip-path="url(#clip540)" d="M69.6245 121.338 L73.8982 121.338 L73.8982 126.482 L69.6245 126.482 L69.6245 121.338 Z" fill="#000000" fill-rule="nonzero" fill-opacity="1" /><path clip-path="url(#clip540)" d="M86.3345 123.039 L100.614 123.039 L100.614 126.482 L81.4126 126.482 L81.4126 123.039 Q83.7419 120.629 87.7523 116.578 Q91.7829 112.507 92.8159 111.332 Q94.7806 109.124 95.5503 107.605 Q96.3402 106.066 96.3402 104.587 Q96.3402 102.177 94.6388 100.658 Q92.9577 99.1388 90.2436 99.1388 Q88.3194 99.1388 86.1724 99.8072 Q84.0457 100.476 81.6152 101.833 L81.6152 97.7007 Q84.0862 96.7083 86.2332 96.2019 Q88.3802 95.6955 90.1626 95.6955 Q94.8616 95.6955 97.6567 98.0451 Q100.452 100.395 100.452 104.324 Q100.452 106.187 99.743 107.869 Q99.0543 109.529 97.2111 111.798 Q96.7048 112.385 93.9907 115.201 Q91.2766 117.996 86.3345 123.039 Z" fill="#000000" fill-rule="nonzero" fill-opacity="1" /><path clip-path="url(#clip540)" d="M1980.32 44.2197 Q1982.95 45.1109 1985.42 48.0275 Q1987.93 50.9442 1990.45 56.0483 L1998.75 72.576 L1989.96 72.576 L1982.22 57.061 Q1979.23 50.9847 1976.39 48.9997 Q1973.59 47.0148 1968.73 47.0148 L1959.82 47.0148 L1959.82 72.576 L1951.64 72.576 L1951.64 12.096 L1970.11 12.096 Q1980.48 12.096 1985.59 16.4305 Q1990.69 20.7649 1990.69 29.5149 Q1990.69 35.2267 1988.02 38.994 Q1985.38 42.7613 1980.32 44.2197 M1959.82 18.8205 L1959.82 40.2903 L1970.11 40.2903 Q1976.02 40.2903 1979.02 37.5762 Q1982.06 34.8216 1982.06 29.5149 Q1982.06 24.2082 1979.02 21.5346 Q1976.02 18.8205 1970.11 18.8205 L1959.82 18.8205 Z" fill="#000000" fill-rule="nonzero" fill-opacity="1" /><path clip-path="url(#clip540)" d="M2044.04 48.0275 L2044.04 51.6733 L2009.77 51.6733 Q2010.26 59.3701 2014.39 63.421 Q2018.56 67.4314 2025.97 67.4314 Q2030.27 67.4314 2034.28 66.3781 Q2038.33 65.3249 2042.3 63.2184 L2042.3 70.267 Q2038.29 71.9684 2034.07 72.8596 Q2029.86 73.7508 2025.53 73.7508 Q2014.67 73.7508 2008.31 67.4314 Q2001.99 61.1119 2001.99 50.3365 Q2001.99 39.1965 2007.99 32.6746 Q2014.02 26.1121 2024.23 26.1121 Q2033.39 26.1121 2038.69 32.0264 Q2044.04 37.9003 2044.04 48.0275 M2036.59 45.84 Q2036.5 39.7232 2033.14 36.0774 Q2029.82 32.4315 2024.31 32.4315 Q2018.07 32.4315 2014.31 35.9558 Q2010.58 39.4801 2010.01 45.8805 L2036.59 45.84 Z" fill="#000000" fill-rule="nonzero" fill-opacity="1" /><path clip-path="url(#clip540)" d="M2086.13 49.3643 Q2086.13 41.2625 2082.77 36.8065 Q2079.44 32.3505 2073.41 32.3505 Q2067.41 32.3505 2064.05 36.8065 Q2060.73 41.2625 2060.73 49.3643 Q2060.73 57.4256 2064.05 61.8816 Q2067.41 66.3376 2073.41 66.3376 Q2079.44 66.3376 2082.77 61.8816 Q2086.13 57.4256 2086.13 49.3643 M2093.58 66.9452 Q2093.58 78.5308 2088.44 84.1616 Q2083.29 89.8329 2072.68 89.8329 Q2068.75 89.8329 2065.27 89.2252 Q2061.78 88.6581 2058.5 87.4428 L2058.5 80.1917 Q2061.78 81.9741 2064.98 82.8248 Q2068.18 83.6755 2071.5 83.6755 Q2078.84 83.6755 2082.48 79.8271 Q2086.13 76.0193 2086.13 68.282 L2086.13 64.5957 Q2083.82 68.6061 2080.21 70.5911 Q2076.61 72.576 2071.59 72.576 Q2063.24 72.576 2058.14 66.2161 Q2053.03 59.8562 2053.03 49.3643 Q2053.03 38.832 2058.14 32.472 Q2063.24 26.1121 2071.59 26.1121 Q2076.61 26.1121 2080.21 28.0971 Q2083.82 30.082 2086.13 34.0924 L2086.13 27.2059 L2093.58 27.2059 L2093.58 66.9452 Z" fill="#000000" fill-rule="nonzero" fill-opacity="1" /><path clip-path="url(#clip540)" d="M2108.17 54.671 L2108.17 27.2059 L2115.62 27.2059 L2115.62 54.3874 Q2115.62 60.8284 2118.13 64.0691 Q2120.64 67.2693 2125.67 67.2693 Q2131.7 67.2693 2135.18 63.421 Q2138.71 59.5726 2138.71 52.9291 L2138.71 27.2059 L2146.16 27.2059 L2146.16 72.576 L2138.71 72.576 L2138.71 65.6084 Q2136 69.7404 2132.39 71.7658 Q2128.83 73.7508 2124.09 73.7508 Q2116.27 73.7508 2112.22 68.8897 Q2108.17 64.0286 2108.17 54.671 M2126.92 26.1121 L2126.92 26.1121 Z" fill="#000000" fill-rule="nonzero" fill-opacity="1" /><path clip-path="url(#clip540)" d="M2161.52 9.54393 L2168.97 9.54393 L2168.97 72.576 L2161.52 72.576 L2161.52 9.54393 Z" fill="#000000" fill-rule="nonzero" fill-opacity="1" /><path clip-path="url(#clip540)" d="M2205.18 49.7694 Q2196.15 49.7694 2192.67 51.8354 Q2189.18 53.9013 2189.18 58.8839 Q2189.18 62.8538 2191.78 65.2034 Q2194.41 67.5124 2198.91 67.5124 Q2205.1 67.5124 2208.83 63.1374 Q2212.6 58.7219 2212.6 51.4303 L2212.6 49.7694 L2205.18 49.7694 M2220.05 46.6907 L2220.05 72.576 L2212.6 72.576 L2212.6 65.6895 Q2210.05 69.8214 2206.24 71.8063 Q2202.43 73.7508 2196.92 73.7508 Q2189.95 73.7508 2185.82 69.8619 Q2181.73 65.9325 2181.73 59.3701 Q2181.73 51.7138 2186.83 47.825 Q2191.98 43.9361 2202.15 43.9361 L2212.6 43.9361 L2212.6 43.2069 Q2212.6 38.0623 2209.19 35.2672 Q2205.83 32.4315 2199.72 32.4315 Q2195.83 32.4315 2192.14 33.3632 Q2188.45 34.295 2185.05 36.1584 L2185.05 29.2718 Q2189.14 27.692 2192.99 26.9223 Q2196.84 26.1121 2200.49 26.1121 Q2210.33 26.1121 2215.19 31.2163 Q2220.05 36.3204 2220.05 46.6907 Z" fill="#000000" fill-rule="nonzero" fill-opacity="1" /><path clip-path="url(#clip540)" d="M2261.69 34.1734 Q2260.44 33.4443 2258.94 33.1202 Q2257.48 32.7556 2255.7 32.7556 Q2249.38 32.7556 2245.98 36.8875 Q2242.61 40.9789 2242.61 48.6757 L2242.61 72.576 L2235.12 72.576 L2235.12 27.2059 L2242.61 27.2059 L2242.61 34.2544 Q2244.96 30.1225 2248.73 28.1376 Q2252.5 26.1121 2257.89 26.1121 Q2258.66 26.1121 2259.59 26.2337 Q2260.52 26.3147 2261.65 26.5172 L2261.69 34.1734 Z" fill="#000000" fill-rule="nonzero" fill-opacity="1" /><path clip-path="url(#clip540)" d="M2269.51 27.2059 L2276.97 27.2059 L2276.97 72.576 L2269.51 72.576 L2269.51 27.2059 M2269.51 9.54393 L2276.97 9.54393 L2276.97 18.9825 L2269.51 18.9825 L2269.51 9.54393 Z" fill="#000000" fill-rule="nonzero" fill-opacity="1" /><path clip-path="url(#clip540)" d="M2289.32 27.2059 L2324.73 27.2059 L2324.73 34.0114 L2296.69 66.6212 L2324.73 66.6212 L2324.73 72.576 L2288.31 72.576 L2288.31 65.7705 L2316.34 33.1607 L2289.32 33.1607 L2289.32 27.2059 Z" fill="#000000" fill-rule="nonzero" fill-opacity="1" /><path clip-path="url(#clip540)" d="M2374.92 48.0275 L2374.92 51.6733 L2340.65 51.6733 Q2341.13 59.3701 2345.26 63.421 Q2349.44 67.4314 2356.85 67.4314 Q2361.14 67.4314 2365.15 66.3781 Q2369.21 65.3249 2373.18 63.2184 L2373.18 70.267 Q2369.17 71.9684 2364.95 72.8596 Q2360.74 73.7508 2356.4 73.7508 Q2345.55 73.7508 2339.19 67.4314 Q2332.87 61.1119 2332.87 50.3365 Q2332.87 39.1965 2338.86 32.6746 Q2344.9 26.1121 2355.11 26.1121 Q2364.26 26.1121 2369.57 32.0264 Q2374.92 37.9003 2374.92 48.0275 M2367.46 45.84 Q2367.38 39.7232 2364.02 36.0774 Q2360.7 32.4315 2355.19 32.4315 Q2348.95 32.4315 2345.18 35.9558 Q2341.46 39.4801 2340.89 45.8805 L2367.46 45.84 Z" fill="#000000" fill-rule="nonzero" fill-opacity="1" /><path clip-path="url(#clip540)" d="M2413.44 34.1734 Q2412.19 33.4443 2410.69 33.1202 Q2409.23 32.7556 2407.45 32.7556 Q2401.13 32.7556 2397.72 36.8875 Q2394.36 40.9789 2394.36 48.6757 L2394.36 72.576 L2386.87 72.576 L2386.87 27.2059 L2394.36 27.2059 L2394.36 34.2544 Q2396.71 30.1225 2400.48 28.1376 Q2404.25 26.1121 2409.63 26.1121 Q2410.4 26.1121 2411.34 26.2337 Q2412.27 26.3147 2413.4 26.5172 L2413.44 34.1734 Z" fill="#000000" fill-rule="nonzero" fill-opacity="1" /><path clip-path="url(#clip540)" d="M2447.63 9.54393 L2455.08 9.54393 L2455.08 72.576 L2447.63 72.576 L2447.63 9.54393 Z" fill="#000000" fill-rule="nonzero" fill-opacity="1" /><path clip-path="url(#clip540)" d="M2509.49 48.0275 L2509.49 51.6733 L2475.22 51.6733 Q2475.7 59.3701 2479.84 63.421 Q2484.01 67.4314 2491.42 67.4314 Q2495.72 67.4314 2499.73 66.3781 Q2503.78 65.3249 2507.75 63.2184 L2507.75 70.267 Q2503.74 71.9684 2499.52 72.8596 Q2495.31 73.7508 2490.98 73.7508 Q2480.12 73.7508 2473.76 67.4314 Q2467.44 61.1119 2467.44 50.3365 Q2467.44 39.1965 2473.44 32.6746 Q2479.47 26.1121 2489.68 26.1121 Q2498.83 26.1121 2504.14 32.0264 Q2509.49 37.9003 2509.49 48.0275 M2502.03 45.84 Q2501.95 39.7232 2498.59 36.0774 Q2495.27 32.4315 2489.76 32.4315 Q2483.52 32.4315 2479.75 35.9558 Q2476.03 39.4801 2475.46 45.8805 L2502.03 45.84 Z" fill="#000000" fill-rule="nonzero" fill-opacity="1" /><path clip-path="url(#clip540)" d="M2542.34 49.7694 Q2533.31 49.7694 2529.82 51.8354 Q2526.34 53.9013 2526.34 58.8839 Q2526.34 62.8538 2528.93 65.2034 Q2531.57 67.5124 2536.06 67.5124 Q2542.26 67.5124 2545.99 63.1374 Q2549.75 58.7219 2549.75 51.4303 L2549.75 49.7694 L2542.34 49.7694 M2557.21 46.6907 L2557.21 72.576 L2549.75 72.576 L2549.75 65.6895 Q2547.2 69.8214 2543.39 71.8063 Q2539.59 73.7508 2534.08 73.7508 Q2527.11 73.7508 2522.98 69.8619 Q2518.89 65.9325 2518.89 59.3701 Q2518.89 51.7138 2523.99 47.825 Q2529.14 43.9361 2539.3 43.9361 L2549.75 43.9361 L2549.75 43.2069 Q2549.75 38.0623 2546.35 35.2672 Q2542.99 32.4315 2536.87 32.4315 Q2532.98 32.4315 2529.3 33.3632 Q2525.61 34.295 2522.21 36.1584 L2522.21 29.2718 Q2526.3 27.692 2530.15 26.9223 Q2534 26.1121 2537.64 26.1121 Q2547.49 26.1121 2552.35 31.2163 Q2557.21 36.3204 2557.21 46.6907 Z" fill="#000000" fill-rule="nonzero" fill-opacity="1" /><path clip-path="url(#clip540)" d="M2598.85 34.1734 Q2597.6 33.4443 2596.1 33.1202 Q2594.64 32.7556 2592.86 32.7556 Q2586.54 32.7556 2583.13 36.8875 Q2579.77 40.9789 2579.77 48.6757 L2579.77 72.576 L2572.28 72.576 L2572.28 27.2059 L2579.77 27.2059 L2579.77 34.2544 Q2582.12 30.1225 2585.89 28.1376 Q2589.66 26.1121 2595.04 26.1121 Q2595.81 26.1121 2596.74 26.2337 Q2597.68 26.3147 2598.81 26.5172 L2598.85 34.1734 Z" fill="#000000" fill-rule="nonzero" fill-opacity="1" /><path clip-path="url(#clip540)" d="M2642.93 45.1919 L2642.93 72.576 L2635.47 72.576 L2635.47 45.4349 Q2635.47 38.994 2632.96 35.7938 Q2630.45 32.5936 2625.43 32.5936 Q2619.39 32.5936 2615.91 36.4419 Q2612.42 40.2903 2612.42 46.9338 L2612.42 72.576 L2604.93 72.576 L2604.93 27.2059 L2612.42 27.2059 L2612.42 34.2544 Q2615.1 30.163 2618.7 28.1376 Q2622.35 26.1121 2627.09 26.1121 Q2634.9 26.1121 2638.91 30.9732 Q2642.93 35.7938 2642.93 45.1919 Z" fill="#000000" fill-rule="nonzero" fill-opacity="1" /><path clip-path="url(#clip540)" d="M2657.79 27.2059 L2665.25 27.2059 L2665.25 72.576 L2657.79 72.576 L2657.79 27.2059 M2657.79 9.54393 L2665.25 9.54393 L2665.25 18.9825 L2657.79 18.9825 L2657.79 9.54393 Z" fill="#000000" fill-rule="nonzero" fill-opacity="1" /><path clip-path="url(#clip540)" d="M2718.56 45.1919 L2718.56 72.576 L2711.1 72.576 L2711.1 45.4349 Q2711.1 38.994 2708.59 35.7938 Q2706.08 32.5936 2701.06 32.5936 Q2695.02 32.5936 2691.54 36.4419 Q2688.05 40.2903 2688.05 46.9338 L2688.05 72.576 L2680.56 72.576 L2680.56 27.2059 L2688.05 27.2059 L2688.05 34.2544 Q2690.73 30.163 2694.33 28.1376 Q2697.98 26.1121 2702.72 26.1121 Q2710.53 26.1121 2714.55 30.9732 Q2718.56 35.7938 2718.56 45.1919 Z" fill="#000000" fill-rule="nonzero" fill-opacity="1" /><path clip-path="url(#clip540)" d="M2763.28 49.3643 Q2763.28 41.2625 2759.92 36.8065 Q2756.59 32.3505 2750.56 32.3505 Q2744.56 32.3505 2741.2 36.8065 Q2737.88 41.2625 2737.88 49.3643 Q2737.88 57.4256 2741.2 61.8816 Q2744.56 66.3376 2750.56 66.3376 Q2756.59 66.3376 2759.92 61.8816 Q2763.28 57.4256 2763.28 49.3643 M2770.73 66.9452 Q2770.73 78.5308 2765.59 84.1616 Q2760.44 89.8329 2749.83 89.8329 Q2745.9 89.8329 2742.42 89.2252 Q2738.93 88.6581 2735.65 87.4428 L2735.65 80.1917 Q2738.93 81.9741 2742.13 82.8248 Q2745.33 83.6755 2748.65 83.6755 Q2755.99 83.6755 2759.63 79.8271 Q2763.28 76.0193 2763.28 68.282 L2763.28 64.5957 Q2760.97 68.6061 2757.36 70.5911 Q2753.76 72.576 2748.73 72.576 Q2740.39 72.576 2735.29 66.2161 Q2730.18 59.8562 2730.18 49.3643 Q2730.18 38.832 2735.29 32.472 Q2740.39 26.1121 2748.73 26.1121 Q2753.76 26.1121 2757.36 28.0971 Q2760.97 30.082 2763.28 34.0924 L2763.28 27.2059 L2770.73 27.2059 L2770.73 66.9452 Z" fill="#000000" fill-rule="nonzero" fill-opacity="1" /><polyline clip-path="url(#clip541)" style="stroke:#009af9; stroke-linecap:round; stroke-linejoin:round; stroke-width:8; stroke-opacity:1; fill:none" points="293.665,1225.8 376.366,1227.62 459.067,1229.34 541.767,1230.94 624.468,1232.44 707.169,1233.83 789.87,1235.11 872.571,1236.29 955.271,1237.36 1037.97,1238.32 1120.67,1239.17 1203.37,1239.92 1286.07,1240.56 1368.78,1241.09 1451.48,1241.52 1534.18,1241.84 1616.88,1242.06 1699.58,1242.16 1782.28,1242.16 1864.98,1242.06 1947.68,1241.85 2030.38,1241.53 2113.08,1241.11 2195.78,1240.58 2278.48,1239.94 2361.18,1239.2 2443.89,1238.35 2526.59,1237.4 2609.29,1236.34 2691.99,1235.18 2774.69,1233.91 2857.39,1232.54 2940.09,1231.06 3022.79,1229.47 3105.49,1227.78 3188.19,1225.99 3270.89,1224.09 3353.59,1222.09 3436.3,1219.98 3519,1217.76 3601.7,1215.45 3684.4,1213.02 3767.1,1210.5 3849.8,1207.87 3932.5,1205.13 4015.2,1202.29 4097.9,1199.35 4180.6,1196.3 4263.3,1193.15 4346,1189.9 4428.7,1186.54 "/>
<polyline clip-path="url(#clip541)" style="stroke:#e26f46; stroke-linecap:round; stroke-linejoin:round; stroke-width:20; stroke-opacity:1; fill:none" stroke-dasharray="10, 20" points="1120.67,124.143 1203.09,138.747 1282.92,152.449 1360.25,165.307 1435.18,177.376 1507.76,188.707 1578.1,199.345 1646.26,209.336 1712.32,218.719 1776.34,227.534 1838.39,235.815 1898.54,243.597 1956.85,250.91 2013.38,257.784 2068.19,264.246 2121.34,270.32 2172.86,276.032 2222.83,281.403 2271.29,286.455 2318.29,291.206 2363.87,295.676 2408.08,299.881 2450.96,303.837 2492.55,307.559 2532.91,311.062 2572.05,314.359 2610.03,317.462 2646.87,320.383 2682.62,323.132 2717.3,325.721 2750.95,328.158 2783.61,330.453 2815.3,332.613 2846.05,334.648 2875.89,336.565 2904.85,338.37 2932.96,340.07 2960.24,341.671 2986.71,343.179 3012.41,344.601 3037.35,345.939 3061.56,347.201 3085.06,348.389 3107.87,349.509 3130.01,350.564 3151.51,351.559 3172.38,352.496 3192.63,353.379 3212.3,354.212 3231.39,354.996 3249.93,355.736 3267.92,356.433 3285.4,357.09 3302.36,357.709 3318.83,358.293 3334.82,358.844 3350.35,359.363 3365.43,359.852 3380.07,360.313 3394.28,360.748 3408.08,361.158 3421.49,361.545 3434.5,361.91 3447.14,362.254 3459.41,362.578 3471.33,362.884 3482.91,363.172 3494.15,363.444 3505.06,363.7 3515.66,363.942 3525.95,364.17 3535.95,364.385 3545.66,364.588 3555.09,364.78 3564.25,364.96 3573.14,365.131 3581.78,365.291 3590.17,365.443 3598.31,365.586 3606.23,365.72 3613.91,365.848 3621.38,365.967 3628.63,366.081 3635.67,366.187 3642.51,366.288 3649.15,366.383 3655.6,366.473 3661.87,366.557 3667.96,366.637 3673.87,366.712 3679.61,366.783 3685.19,366.85 3690.61,366.913 3695.87,366.973 3700.98,367.029 3705.95,367.082 3710.77,367.133 3715.46,367.18 3720.01,367.224 3724.43,367.266 3728.72,367.306 3732.89,367.344 3736.94,367.379 3740.88,367.412 3744.7,367.444 3748.41,367.473 3752.02,367.501 3755.53,367.528 3758.93,367.553 3762.24,367.576 3765.45,367.599 3768.57,367.619 3771.6,367.639 3774.54,367.658 3777.4,367.676 3780.18,367.692 3782.88,367.708 3785.5,367.723 3788.05,367.737 3790.52,367.75 3792.92,367.762 3795.26,367.774 3797.53,367.785 3799.73,367.795 3801.87,367.805 3803.95,367.815 3805.97,367.823 3807.93,367.832 3809.84,367.84 3811.69,367.847 3813.49,367.854 3815.23,367.86 3816.93,367.867 3818.58,367.872 3820.18,367.878 3821.74,367.883 3823.25,367.888 3824.72,367.893 3826.15,367.897 3827.53,367.901 3828.88,367.905 3830.19,367.909 3831.46,367.912 3832.69,367.916 3833.89,367.919 3835.06,367.922 3836.19,367.924 3837.29,367.927 3838.36,367.929 3839.4,367.932 3840.4,367.934 3841.38,367.936 3842.33,367.938 3843.26,367.94 3844.16,367.942 3845.03,367.943 3845.88,367.945 3846.7,367.946 3847.5,367.948 3848.28,367.949 3849.03,367.95 3849.76,367.951 3850.48,367.952 3851.17,367.953 3851.84,367.954 3852.5,367.955 3853.13,367.956 3853.75,367.957 3854.35,367.958 3854.93,367.958 3855.49,367.959 3856.04,367.96 3856.58,367.96 3857.09,367.961 3857.6,367.962 3858.09,367.962 3858.56,367.963 3859.02,367.963 3859.47,367.963 3859.91,367.964 3860.33,367.964 3860.74,367.965 3861.14,367.965 3861.53,367.965 3861.91,367.966 3862.27,367.966 3862.63,367.966 3862.98,367.966 3863.31,367.967 3863.64,367.967 3863.95,367.967 3864.26,367.967 3864.56,367.968 3864.85,367.968 3865.14,367.968 3865.41,367.968 3865.68,367.968 3865.94,367.968 3866.19,367.968 3866.43,367.969 3866.67,367.969 3866.9,367.969 3867.12,367.969 3867.34,367.969 3867.55,367.969 3867.76,367.969 3867.96,367.969 3868.15,367.969 3868.34,367.969 3868.52,367.97 3868.7,367.97 3868.87,367.97 3869.04,367.97 3869.21,367.97 3869.36,367.97 3869.52,367.97 3869.67,367.97 3869.81,367.97 3869.95,367.97 3870.09,367.97 3870.22,367.97 3870.35,367.97 3870.48,367.97 3870.6,367.97 3870.72,367.97 3870.84,367.97 3870.95,367.97 3871.06,367.97 3871.16,367.97 3871.26,367.97 3871.36,367.97 3871.46,367.97 3871.56,367.97 3871.65,367.97 3871.74,367.97 3871.82,367.97 3871.91,367.97 "/>
<path clip-path="url(#clip540)" d="M315.719 285.626 L972.967 285.626 L972.967 130.106 L315.719 130.106  Z" fill="#ffffff" fill-rule="evenodd" fill-opacity="1"/>
<polyline clip-path="url(#clip540)" style="stroke:#000000; stroke-linecap:round; stroke-linejoin:round; stroke-width:4; stroke-opacity:1; fill:none" points="315.719,285.626 972.967,285.626 972.967,130.106 315.719,130.106 315.719,285.626 "/>
<polyline clip-path="url(#clip540)" style="stroke:#009af9; stroke-linecap:round; stroke-linejoin:round; stroke-width:8; stroke-opacity:1; fill:none" points="364.42,181.946 656.63,181.946 "/>
<path clip-path="url(#clip540)" d="M705.331 164.666 L712.299 164.666 L721.118 188.184 L729.984 164.666 L736.951 164.666 L736.951 199.226 L732.391 199.226 L732.391 168.879 L723.479 192.582 L718.78 192.582 L709.868 168.879 L709.868 199.226 L705.331 199.226 L705.331 164.666 Z" fill="#000000" fill-rule="nonzero" fill-opacity="1" /><path clip-path="url(#clip540)" d="M766.951 165.8 L766.951 170.36 Q764.289 169.087 761.928 168.462 Q759.567 167.837 757.368 167.837 Q753.549 167.837 751.465 169.319 Q749.405 170.8 749.405 173.532 Q749.405 175.823 750.771 177.004 Q752.16 178.161 756.002 178.879 L758.826 179.458 Q764.058 180.453 766.535 182.976 Q769.035 185.476 769.035 189.689 Q769.035 194.712 765.655 197.305 Q762.299 199.897 755.794 199.897 Q753.34 199.897 750.563 199.342 Q747.808 198.786 744.845 197.698 L744.845 192.883 Q747.692 194.481 750.424 195.291 Q753.155 196.101 755.794 196.101 Q759.799 196.101 761.974 194.527 Q764.15 192.953 764.15 190.036 Q764.15 187.49 762.576 186.055 Q761.025 184.62 757.461 183.902 L754.613 183.346 Q749.382 182.305 747.044 180.083 Q744.706 177.86 744.706 173.902 Q744.706 169.319 747.924 166.68 Q751.164 164.041 756.836 164.041 Q759.266 164.041 761.789 164.481 Q764.312 164.921 766.951 165.8 Z" fill="#000000" fill-rule="nonzero" fill-opacity="1" /><path clip-path="url(#clip540)" d="M776.326 164.666 L798.178 164.666 L798.178 168.601 L781.002 168.601 L781.002 178.833 L797.46 178.833 L797.46 182.768 L781.002 182.768 L781.002 195.291 L798.595 195.291 L798.595 199.226 L776.326 199.226 L776.326 164.666 Z" fill="#000000" fill-rule="nonzero" fill-opacity="1" /><path clip-path="url(#clip540)" d="M825.377 165.939 L825.377 173.3 L834.15 173.3 L834.15 176.61 L825.377 176.61 L825.377 190.684 Q825.377 193.856 826.233 194.758 Q827.113 195.661 829.775 195.661 L834.15 195.661 L834.15 199.226 L829.775 199.226 Q824.845 199.226 822.97 197.397 Q821.095 195.545 821.095 190.684 L821.095 176.61 L817.97 176.61 L817.97 173.3 L821.095 173.3 L821.095 165.939 L825.377 165.939 Z" fill="#000000" fill-rule="nonzero" fill-opacity="1" /><path clip-path="url(#clip540)" d="M861.928 185.198 L861.928 187.282 L842.344 187.282 Q842.622 191.68 844.983 193.995 Q847.368 196.286 851.604 196.286 Q854.057 196.286 856.349 195.684 Q858.664 195.082 860.932 193.879 L860.932 197.907 Q858.641 198.879 856.233 199.388 Q853.826 199.897 851.349 199.897 Q845.145 199.897 841.511 196.286 Q837.9 192.675 837.9 186.518 Q837.9 180.152 841.326 176.425 Q844.775 172.675 850.608 172.675 Q855.84 172.675 858.872 176.055 Q861.928 179.411 861.928 185.198 M857.668 183.948 Q857.622 180.453 855.701 178.37 Q853.803 176.286 850.655 176.286 Q847.09 176.286 844.937 178.3 Q842.807 180.314 842.483 183.971 L857.668 183.948 Z" fill="#000000" fill-rule="nonzero" fill-opacity="1" /><path clip-path="url(#clip540)" d="M885.446 174.064 L885.446 178.092 Q883.64 177.166 881.696 176.703 Q879.752 176.24 877.668 176.24 Q874.497 176.24 872.9 177.212 Q871.326 178.184 871.326 180.129 Q871.326 181.61 872.46 182.467 Q873.594 183.3 877.02 184.064 L878.478 184.388 Q883.015 185.36 884.914 187.143 Q886.835 188.902 886.835 192.073 Q886.835 195.684 883.965 197.791 Q881.117 199.897 876.117 199.897 Q874.034 199.897 871.766 199.481 Q869.52 199.087 867.02 198.277 L867.02 193.879 Q869.381 195.106 871.673 195.731 Q873.965 196.332 876.21 196.332 Q879.219 196.332 880.84 195.314 Q882.46 194.272 882.46 192.397 Q882.46 190.661 881.279 189.735 Q880.122 188.809 876.164 187.953 L874.682 187.606 Q870.724 186.772 868.965 185.059 Q867.205 183.323 867.205 180.314 Q867.205 176.657 869.798 174.666 Q872.391 172.675 877.159 172.675 Q879.52 172.675 881.603 173.022 Q883.687 173.37 885.446 174.064 Z" fill="#000000" fill-rule="nonzero" fill-opacity="1" /><path clip-path="url(#clip540)" d="M897.83 165.939 L897.83 173.3 L906.603 173.3 L906.603 176.61 L897.83 176.61 L897.83 190.684 Q897.83 193.856 898.687 194.758 Q899.566 195.661 902.228 195.661 L906.603 195.661 L906.603 199.226 L902.228 199.226 Q897.298 199.226 895.423 197.397 Q893.548 195.545 893.548 190.684 L893.548 176.61 L890.423 176.61 L890.423 173.3 L893.548 173.3 L893.548 165.939 L897.83 165.939 Z" fill="#000000" fill-rule="nonzero" fill-opacity="1" /><polyline clip-path="url(#clip540)" style="stroke:#e26f46; stroke-linecap:round; stroke-linejoin:round; stroke-width:20; stroke-opacity:1; fill:none" stroke-dasharray="10, 20" points="364.42,233.786 656.63,233.786 "/>
<path clip-path="url(#clip540)" d="M705.331 215.048 L709.59 215.048 L709.59 251.066 L705.331 251.066 L705.331 215.048 Z" fill="#000000" fill-rule="nonzero" fill-opacity="1" /><path clip-path="url(#clip540)" d="M740.678 237.038 L740.678 239.122 L721.095 239.122 Q721.373 243.52 723.734 245.835 Q726.118 248.126 730.354 248.126 Q732.808 248.126 735.1 247.524 Q737.414 246.922 739.683 245.719 L739.683 249.747 Q737.391 250.719 734.984 251.228 Q732.576 251.737 730.1 251.737 Q723.896 251.737 720.262 248.126 Q716.651 244.515 716.651 238.358 Q716.651 231.992 720.077 228.265 Q723.526 224.515 729.359 224.515 Q734.59 224.515 737.623 227.895 Q740.678 231.251 740.678 237.038 M736.419 235.788 Q736.373 232.293 734.451 230.21 Q732.553 228.126 729.405 228.126 Q725.84 228.126 723.688 230.14 Q721.558 232.154 721.234 235.811 L736.419 235.788 Z" fill="#000000" fill-rule="nonzero" fill-opacity="1" /><path clip-path="url(#clip540)" d="M759.451 238.034 Q754.289 238.034 752.299 239.214 Q750.308 240.395 750.308 243.242 Q750.308 245.51 751.789 246.853 Q753.294 248.172 755.863 248.172 Q759.405 248.172 761.535 245.672 Q763.687 243.149 763.687 238.983 L763.687 238.034 L759.451 238.034 M767.947 236.274 L767.947 251.066 L763.687 251.066 L763.687 247.131 Q762.229 249.492 760.053 250.626 Q757.877 251.737 754.729 251.737 Q750.748 251.737 748.387 249.515 Q746.049 247.27 746.049 243.52 Q746.049 239.145 748.965 236.923 Q751.905 234.7 757.715 234.7 L763.687 234.7 L763.687 234.284 Q763.687 231.344 761.743 229.747 Q759.822 228.126 756.326 228.126 Q754.104 228.126 751.998 228.659 Q749.891 229.191 747.947 230.256 L747.947 226.321 Q750.285 225.418 752.484 224.978 Q754.683 224.515 756.766 224.515 Q762.391 224.515 765.169 227.432 Q767.947 230.348 767.947 236.274 Z" fill="#000000" fill-rule="nonzero" fill-opacity="1" /><path clip-path="url(#clip540)" d="M791.743 229.122 Q791.025 228.705 790.169 228.52 Q789.335 228.311 788.317 228.311 Q784.706 228.311 782.761 230.673 Q780.84 233.011 780.84 237.409 L780.84 251.066 L776.558 251.066 L776.558 225.14 L780.84 225.14 L780.84 229.168 Q782.183 226.807 784.335 225.673 Q786.488 224.515 789.567 224.515 Q790.007 224.515 790.539 224.585 Q791.072 224.631 791.72 224.747 L791.743 229.122 Z" fill="#000000" fill-rule="nonzero" fill-opacity="1" /><path clip-path="url(#clip540)" d="M816.928 235.418 L816.928 251.066 L812.669 251.066 L812.669 235.557 Q812.669 231.876 811.233 230.048 Q809.798 228.219 806.928 228.219 Q803.479 228.219 801.488 230.418 Q799.497 232.617 799.497 236.413 L799.497 251.066 L795.215 251.066 L795.215 225.14 L799.497 225.14 L799.497 229.168 Q801.025 226.83 803.085 225.673 Q805.169 224.515 807.877 224.515 Q812.345 224.515 814.636 227.293 Q816.928 230.048 816.928 235.418 Z" fill="#000000" fill-rule="nonzero" fill-opacity="1" /><path clip-path="url(#clip540)" d="M847.599 237.038 L847.599 239.122 L828.016 239.122 Q828.294 243.52 830.655 245.835 Q833.039 248.126 837.275 248.126 Q839.729 248.126 842.02 247.524 Q844.335 246.922 846.604 245.719 L846.604 249.747 Q844.312 250.719 841.905 251.228 Q839.497 251.737 837.02 251.737 Q830.817 251.737 827.182 248.126 Q823.571 244.515 823.571 238.358 Q823.571 231.992 826.997 228.265 Q830.446 224.515 836.28 224.515 Q841.511 224.515 844.543 227.895 Q847.599 231.251 847.599 237.038 M843.34 235.788 Q843.293 232.293 841.372 230.21 Q839.474 228.126 836.326 228.126 Q832.761 228.126 830.608 230.14 Q828.479 232.154 828.155 235.811 L843.34 235.788 Z" fill="#000000" fill-rule="nonzero" fill-opacity="1" /><path clip-path="url(#clip540)" d="M871.65 229.075 L871.65 215.048 L875.909 215.048 L875.909 251.066 L871.65 251.066 L871.65 247.177 Q870.307 249.492 868.247 250.626 Q866.21 251.737 863.34 251.737 Q858.641 251.737 855.678 247.987 Q852.738 244.237 852.738 238.126 Q852.738 232.015 855.678 228.265 Q858.641 224.515 863.34 224.515 Q866.21 224.515 868.247 225.649 Q870.307 226.761 871.65 229.075 M857.136 238.126 Q857.136 242.825 859.057 245.51 Q861.002 248.172 864.381 248.172 Q867.761 248.172 869.705 245.51 Q871.65 242.825 871.65 238.126 Q871.65 233.427 869.705 230.765 Q867.761 228.08 864.381 228.08 Q861.002 228.08 859.057 230.765 Q857.136 233.427 857.136 238.126 Z" fill="#000000" fill-rule="nonzero" fill-opacity="1" /><path clip-path="url(#clip540)" d="M914.867 239.006 L913.849 233.659 Q912.807 228.173 908.687 228.173 Q905.585 228.173 904.173 230.719 Q902.39 233.913 902.39 238.126 Q902.39 243.219 904.126 245.649 Q905.886 248.126 908.687 248.126 Q911.788 248.126 913.455 243.196 L914.867 239.006 M917.251 231.923 L919.543 225.14 L923.339 225.14 L918.594 239.191 L919.52 244.26 Q919.728 245.395 920.538 246.344 Q921.488 247.455 922.228 247.455 L924.265 247.455 L924.265 251.066 L921.719 251.066 Q919.543 251.066 917.599 249.122 Q916.65 248.149 916.256 246.112 Q915.191 248.682 913.015 250.696 Q911.997 251.645 908.687 251.645 Q903.247 251.645 900.608 248.126 Q897.9 244.492 897.9 238.126 Q897.9 231.321 900.839 228.126 Q904.103 224.561 908.687 224.561 Q915.886 224.561 917.251 231.923 Z" fill="#000000" fill-rule="nonzero" fill-opacity="1" /></svg>
