<?xml version="1.0" encoding="utf-8"?>
<svg xmlns="http://www.w3.org/2000/svg" xmlns:xlink="http://www.w3.org/1999/xlink" width="600" height="400" viewBox="0 0 2400 1600">
<defs>
  <clipPath id="clip190">
    <rect x="0" y="0" width="2400" height="1600"/>
  </clipPath>
</defs>
<path clip-path="url(#clip190)" d="M0 1600 L2400 1600 L2400 0 L0 0  Z" fill="#ffffff" fill-rule="evenodd" fill-opacity="1"/>
<defs>
  <clipPath id="clip191">
    <rect x="480" y="0" width="1681" height="1600"/>
  </clipPath>
</defs>
<path clip-path="url(#clip190)" d="M224.098 1423.18 L2352.76 1423.18 L2352.76 123.472 L224.098 123.472  Z" fill="#ffffff" fill-rule="evenodd" fill-opacity="1"/>
<defs>
  <clipPath id="clip192">
    <rect x="224" y="123" width="2130" height="1301"/>
  </clipPath>
</defs>
<polyline clip-path="url(#clip192)" style="stroke:#000000; stroke-linecap:round; stroke-linejoin:round; stroke-width:2; stroke-opacity:0.1; fill:none" points="275.834,1423.18 275.834,123.472 "/>
<polyline clip-path="url(#clip192)" style="stroke:#000000; stroke-linecap:round; stroke-linejoin:round; stroke-width:2; stroke-opacity:0.1; fill:none" points="701.293,1423.18 701.293,123.472 "/>
<polyline clip-path="url(#clip192)" style="stroke:#000000; stroke-linecap:round; stroke-linejoin:round; stroke-width:2; stroke-opacity:0.1; fill:none" points="1126.75,1423.18 1126.75,123.472 "/>
<polyline clip-path="url(#clip192)" style="stroke:#000000; stroke-linecap:round; stroke-linejoin:round; stroke-width:2; stroke-opacity:0.1; fill:none" points="1552.21,1423.18 1552.21,123.472 "/>
<polyline clip-path="url(#clip192)" style="stroke:#000000; stroke-linecap:round; stroke-linejoin:round; stroke-width:2; stroke-opacity:0.1; fill:none" points="1977.67,1423.18 1977.67,123.472 "/>
<polyline clip-path="url(#clip192)" style="stroke:#000000; stroke-linecap:round; stroke-linejoin:round; stroke-width:2; stroke-opacity:0.1; fill:none" points="224.098,1390.62 2352.76,1390.62 "/>
<polyline clip-path="url(#clip192)" style="stroke:#000000; stroke-linecap:round; stroke-linejoin:round; stroke-width:2; stroke-opacity:0.1; fill:none" points="224.098,1082.72 2352.76,1082.72 "/>
<polyline clip-path="url(#clip192)" style="stroke:#000000; stroke-linecap:round; stroke-linejoin:round; stroke-width:2; stroke-opacity:0.1; fill:none" points="224.098,774.829 2352.76,774.829 "/>
<polyline clip-path="url(#clip192)" style="stroke:#000000; stroke-linecap:round; stroke-linejoin:round; stroke-width:2; stroke-opacity:0.1; fill:none" points="224.098,466.936 2352.76,466.936 "/>
<polyline clip-path="url(#clip192)" style="stroke:#000000; stroke-linecap:round; stroke-linejoin:round; stroke-width:2; stroke-opacity:0.1; fill:none" points="224.098,159.043 2352.76,159.043 "/>
<polyline clip-path="url(#clip190)" style="stroke:#000000; stroke-linecap:round; stroke-linejoin:round; stroke-width:4; stroke-opacity:1; fill:none" points="224.098,1423.18 2352.76,1423.18 "/>
<polyline clip-path="url(#clip190)" style="stroke:#000000; stroke-linecap:round; stroke-linejoin:round; stroke-width:4; stroke-opacity:1; fill:none" points="275.834,1423.18 275.834,1404.28 "/>
<polyline clip-path="url(#clip190)" style="stroke:#000000; stroke-linecap:round; stroke-linejoin:round; stroke-width:4; stroke-opacity:1; fill:none" points="701.293,1423.18 701.293,1404.28 "/>
<polyline clip-path="url(#clip190)" style="stroke:#000000; stroke-linecap:round; stroke-linejoin:round; stroke-width:4; stroke-opacity:1; fill:none" points="1126.75,1423.18 1126.75,1404.28 "/>
<polyline clip-path="url(#clip190)" style="stroke:#000000; stroke-linecap:round; stroke-linejoin:round; stroke-width:4; stroke-opacity:1; fill:none" points="1552.21,1423.18 1552.21,1404.28 "/>
<polyline clip-path="url(#clip190)" style="stroke:#000000; stroke-linecap:round; stroke-linejoin:round; stroke-width:4; stroke-opacity:1; fill:none" points="1977.67,1423.18 1977.67,1404.28 "/>
<path clip-path="url(#clip190)" d="M275.834 1454.1 Q272.223 1454.1 270.394 1457.66 Q268.588 1461.2 268.588 1468.33 Q268.588 1475.44 270.394 1479.01 Q272.223 1482.55 275.834 1482.55 Q279.468 1482.55 281.274 1479.01 Q283.102 1475.44 283.102 1468.33 Q283.102 1461.2 281.274 1457.66 Q279.468 1454.1 275.834 1454.1 M275.834 1450.39 Q281.644 1450.39 284.699 1455 Q287.778 1459.58 287.778 1468.33 Q287.778 1477.06 284.699 1481.67 Q281.644 1486.25 275.834 1486.25 Q270.024 1486.25 266.945 1481.67 Q263.889 1477.06 263.889 1468.33 Q263.889 1459.58 266.945 1455 Q270.024 1450.39 275.834 1450.39 Z" fill="#000000" fill-rule="nonzero" fill-opacity="1" /><path clip-path="url(#clip190)" d="M675.992 1451.02 L694.349 1451.02 L694.349 1454.96 L680.275 1454.96 L680.275 1463.43 Q681.293 1463.08 682.312 1462.92 Q683.33 1462.73 684.349 1462.73 Q690.136 1462.73 693.515 1465.9 Q696.895 1469.08 696.895 1474.49 Q696.895 1480.07 693.423 1483.17 Q689.951 1486.25 683.631 1486.25 Q681.455 1486.25 679.187 1485.88 Q676.941 1485.51 674.534 1484.77 L674.534 1480.07 Q676.617 1481.2 678.839 1481.76 Q681.062 1482.32 683.539 1482.32 Q687.543 1482.32 689.881 1480.21 Q692.219 1478.1 692.219 1474.49 Q692.219 1470.88 689.881 1468.77 Q687.543 1466.67 683.539 1466.67 Q681.664 1466.67 679.789 1467.08 Q677.937 1467.5 675.992 1468.38 L675.992 1451.02 Z" fill="#000000" fill-rule="nonzero" fill-opacity="1" /><path clip-path="url(#clip190)" d="M716.108 1454.1 Q712.497 1454.1 710.668 1457.66 Q708.862 1461.2 708.862 1468.33 Q708.862 1475.44 710.668 1479.01 Q712.497 1482.55 716.108 1482.55 Q719.742 1482.55 721.548 1479.01 Q723.376 1475.44 723.376 1468.33 Q723.376 1461.2 721.548 1457.66 Q719.742 1454.1 716.108 1454.1 M716.108 1450.39 Q721.918 1450.39 724.973 1455 Q728.052 1459.58 728.052 1468.33 Q728.052 1477.06 724.973 1481.67 Q721.918 1486.25 716.108 1486.25 Q710.298 1486.25 707.219 1481.67 Q704.163 1477.06 704.163 1468.33 Q704.163 1459.58 707.219 1455 Q710.298 1450.39 716.108 1450.39 Z" fill="#000000" fill-rule="nonzero" fill-opacity="1" /><path clip-path="url(#clip190)" d="M1086.36 1481.64 L1094 1481.64 L1094 1455.28 L1085.69 1456.95 L1085.69 1452.69 L1093.95 1451.02 L1098.63 1451.02 L1098.63 1481.64 L1106.27 1481.64 L1106.27 1485.58 L1086.36 1485.58 L1086.36 1481.64 Z" fill="#000000" fill-rule="nonzero" fill-opacity="1" /><path clip-path="url(#clip190)" d="M1125.71 1454.1 Q1122.1 1454.1 1120.27 1457.66 Q1118.47 1461.2 1118.47 1468.33 Q1118.47 1475.44 1120.27 1479.01 Q1122.1 1482.55 1125.71 1482.55 Q1129.34 1482.55 1131.15 1479.01 Q1132.98 1475.44 1132.98 1468.33 Q1132.98 1461.2 1131.15 1457.66 Q1129.34 1454.1 1125.71 1454.1 M1125.71 1450.39 Q1131.52 1450.39 1134.58 1455 Q1137.66 1459.58 1137.66 1468.33 Q1137.66 1477.06 1134.58 1481.67 Q1131.52 1486.25 1125.71 1486.25 Q1119.9 1486.25 1116.82 1481.67 Q1113.77 1477.06 1113.77 1468.33 Q1113.77 1459.58 1116.82 1455 Q1119.9 1450.39 1125.71 1450.39 Z" fill="#000000" fill-rule="nonzero" fill-opacity="1" /><path clip-path="url(#clip190)" d="M1155.87 1454.1 Q1152.26 1454.1 1150.43 1457.66 Q1148.63 1461.2 1148.63 1468.33 Q1148.63 1475.44 1150.43 1479.01 Q1152.26 1482.55 1155.87 1482.55 Q1159.51 1482.55 1161.31 1479.01 Q1163.14 1475.44 1163.14 1468.33 Q1163.14 1461.2 1161.31 1457.66 Q1159.51 1454.1 1155.87 1454.1 M1155.87 1450.39 Q1161.68 1450.39 1164.74 1455 Q1167.82 1459.58 1167.82 1468.33 Q1167.82 1477.06 1164.74 1481.67 Q1161.68 1486.25 1155.87 1486.25 Q1150.06 1486.25 1146.98 1481.67 Q1143.93 1477.06 1143.93 1468.33 Q1143.93 1459.58 1146.98 1455 Q1150.06 1450.39 1155.87 1450.39 Z" fill="#000000" fill-rule="nonzero" fill-opacity="1" /><path clip-path="url(#clip190)" d="M1511.82 1481.64 L1519.46 1481.64 L1519.46 1455.28 L1511.15 1456.95 L1511.15 1452.69 L1519.41 1451.02 L1524.09 1451.02 L1524.09 1481.64 L1531.73 1481.64 L1531.73 1485.58 L1511.82 1485.58 L1511.82 1481.64 Z" fill="#000000" fill-rule="nonzero" fill-opacity="1" /><path clip-path="url(#clip190)" d="M1541.22 1451.02 L1559.57 1451.02 L1559.57 1454.96 L1545.5 1454.96 L1545.5 1463.43 Q1546.52 1463.08 1547.54 1462.92 Q1548.55 1462.73 1549.57 1462.73 Q1555.36 1462.73 1558.74 1465.9 Q1562.12 1469.08 1562.12 1474.49 Q1562.12 1480.07 1558.65 1483.17 Q1555.17 1486.25 1548.86 1486.25 Q1546.68 1486.25 1544.41 1485.88 Q1542.17 1485.51 1539.76 1484.77 L1539.76 1480.07 Q1541.84 1481.2 1544.06 1481.76 Q1546.29 1482.32 1548.76 1482.32 Q1552.77 1482.32 1555.11 1480.21 Q1557.44 1478.1 1557.44 1474.49 Q1557.44 1470.88 1555.11 1468.77 Q1552.77 1466.67 1548.76 1466.67 Q1546.89 1466.67 1545.01 1467.08 Q1543.16 1467.5 1541.22 1468.38 L1541.22 1451.02 Z" fill="#000000" fill-rule="nonzero" fill-opacity="1" /><path clip-path="url(#clip190)" d="M1581.33 1454.1 Q1577.72 1454.1 1575.89 1457.66 Q1574.09 1461.2 1574.09 1468.33 Q1574.09 1475.44 1575.89 1479.01 Q1577.72 1482.55 1581.33 1482.55 Q1584.97 1482.55 1586.77 1479.01 Q1588.6 1475.44 1588.6 1468.33 Q1588.6 1461.2 1586.77 1457.66 Q1584.97 1454.1 1581.33 1454.1 M1581.33 1450.39 Q1587.14 1450.39 1590.2 1455 Q1593.28 1459.58 1593.28 1468.33 Q1593.28 1477.06 1590.2 1481.67 Q1587.14 1486.25 1581.33 1486.25 Q1575.52 1486.25 1572.44 1481.67 Q1569.39 1477.06 1569.39 1468.33 Q1569.39 1459.58 1572.44 1455 Q1575.52 1450.39 1581.33 1450.39 Z" fill="#000000" fill-rule="nonzero" fill-opacity="1" /><path clip-path="url(#clip190)" d="M1941.36 1481.64 L1957.68 1481.64 L1957.68 1485.58 L1935.74 1485.58 L1935.74 1481.64 Q1938.4 1478.89 1942.98 1474.26 Q1947.59 1469.61 1948.77 1468.27 Q1951.02 1465.74 1951.9 1464.01 Q1952.8 1462.25 1952.8 1460.56 Q1952.8 1457.8 1950.85 1456.07 Q1948.93 1454.33 1945.83 1454.33 Q1943.63 1454.33 1941.18 1455.09 Q1938.75 1455.86 1935.97 1457.41 L1935.97 1452.69 Q1938.79 1451.55 1941.25 1450.97 Q1943.7 1450.39 1945.74 1450.39 Q1951.11 1450.39 1954.3 1453.08 Q1957.5 1455.77 1957.5 1460.26 Q1957.5 1462.39 1956.69 1464.31 Q1955.9 1466.2 1953.79 1468.8 Q1953.22 1469.47 1950.11 1472.69 Q1947.01 1475.88 1941.36 1481.64 Z" fill="#000000" fill-rule="nonzero" fill-opacity="1" /><path clip-path="url(#clip190)" d="M1977.5 1454.1 Q1973.89 1454.1 1972.06 1457.66 Q1970.25 1461.2 1970.25 1468.33 Q1970.25 1475.44 1972.06 1479.01 Q1973.89 1482.55 1977.5 1482.55 Q1981.13 1482.55 1982.94 1479.01 Q1984.77 1475.44 1984.77 1468.33 Q1984.77 1461.2 1982.94 1457.66 Q1981.13 1454.1 1977.5 1454.1 M1977.5 1450.39 Q1983.31 1450.39 1986.36 1455 Q1989.44 1459.58 1989.44 1468.33 Q1989.44 1477.06 1986.36 1481.67 Q1983.31 1486.25 1977.5 1486.25 Q1971.69 1486.25 1968.61 1481.67 Q1965.55 1477.06 1965.55 1468.33 Q1965.55 1459.58 1968.61 1455 Q1971.69 1450.39 1977.5 1450.39 Z" fill="#000000" fill-rule="nonzero" fill-opacity="1" /><path clip-path="url(#clip190)" d="M2007.66 1454.1 Q2004.05 1454.1 2002.22 1457.66 Q2000.41 1461.2 2000.41 1468.33 Q2000.41 1475.44 2002.22 1479.01 Q2004.05 1482.55 2007.66 1482.55 Q2011.29 1482.55 2013.1 1479.01 Q2014.93 1475.44 2014.93 1468.33 Q2014.93 1461.2 2013.1 1457.66 Q2011.29 1454.1 2007.66 1454.1 M2007.66 1450.39 Q2013.47 1450.39 2016.52 1455 Q2019.6 1459.58 2019.6 1468.33 Q2019.6 1477.06 2016.52 1481.67 Q2013.47 1486.25 2007.66 1486.25 Q2001.85 1486.25 1998.77 1481.67 Q1995.71 1477.06 1995.71 1468.33 Q1995.71 1459.58 1998.77 1455 Q2001.85 1450.39 2007.66 1450.39 Z" fill="#000000" fill-rule="nonzero" fill-opacity="1" /><path clip-path="url(#clip190)" d="M1137.99 1520.52 L1144.42 1520.52 L1144.42 1568.04 L1137.99 1568.04 L1137.99 1520.52 Z" fill="#000000" fill-rule="nonzero" fill-opacity="1" /><path clip-path="url(#clip190)" d="M1162.75 1522.27 L1162.75 1532.4 L1174.81 1532.4 L1174.81 1536.95 L1162.75 1536.95 L1162.75 1556.3 Q1162.75 1560.66 1163.93 1561.9 Q1165.14 1563.14 1168.8 1563.14 L1174.81 1563.14 L1174.81 1568.04 L1168.8 1568.04 Q1162.02 1568.04 1159.44 1565.53 Q1156.86 1562.98 1156.86 1556.3 L1156.86 1536.95 L1152.57 1536.95 L1152.57 1532.4 L1156.86 1532.4 L1156.86 1522.27 L1162.75 1522.27 Z" fill="#000000" fill-rule="nonzero" fill-opacity="1" /><path clip-path="url(#clip190)" d="M1213.01 1548.76 L1213.01 1551.62 L1186.08 1551.62 Q1186.46 1557.67 1189.71 1560.85 Q1192.99 1564 1198.81 1564 Q1202.19 1564 1205.34 1563.17 Q1208.52 1562.35 1211.64 1560.69 L1211.64 1566.23 Q1208.49 1567.57 1205.18 1568.27 Q1201.87 1568.97 1198.46 1568.97 Q1189.93 1568.97 1184.94 1564 Q1179.97 1559.04 1179.97 1550.57 Q1179.97 1541.82 1184.68 1536.69 Q1189.42 1531.54 1197.45 1531.54 Q1204.64 1531.54 1208.81 1536.18 Q1213.01 1540.8 1213.01 1548.76 M1207.15 1547.04 Q1207.09 1542.23 1204.45 1539.37 Q1201.84 1536.5 1197.51 1536.5 Q1192.61 1536.5 1189.65 1539.27 Q1186.72 1542.04 1186.27 1547.07 L1207.15 1547.04 Z" fill="#000000" fill-rule="nonzero" fill-opacity="1" /><path clip-path="url(#clip190)" d="M1243.28 1537.87 Q1242.29 1537.3 1241.11 1537.04 Q1239.97 1536.76 1238.57 1536.76 Q1233.6 1536.76 1230.93 1540 Q1228.29 1543.22 1228.29 1549.27 L1228.29 1568.04 L1222.4 1568.04 L1222.4 1532.4 L1228.29 1532.4 L1228.29 1537.93 Q1230.13 1534.69 1233.09 1533.13 Q1236.05 1531.54 1240.29 1531.54 Q1240.89 1531.54 1241.62 1531.63 Q1242.36 1531.7 1243.25 1531.85 L1243.28 1537.87 Z" fill="#000000" fill-rule="nonzero" fill-opacity="1" /><path clip-path="url(#clip190)" d="M1265.62 1550.12 Q1258.52 1550.12 1255.79 1551.75 Q1253.05 1553.37 1253.05 1557.29 Q1253.05 1560.4 1255.09 1562.25 Q1257.16 1564.07 1260.69 1564.07 Q1265.56 1564.07 1268.49 1560.63 Q1271.45 1557.16 1271.45 1551.43 L1271.45 1550.12 L1265.62 1550.12 M1277.3 1547.71 L1277.3 1568.04 L1271.45 1568.04 L1271.45 1562.63 Q1269.44 1565.88 1266.45 1567.44 Q1263.46 1568.97 1259.13 1568.97 Q1253.65 1568.97 1250.41 1565.91 Q1247.19 1562.82 1247.19 1557.67 Q1247.19 1551.65 1251.2 1548.6 Q1255.25 1545.54 1263.23 1545.54 L1271.45 1545.54 L1271.45 1544.97 Q1271.45 1540.93 1268.77 1538.73 Q1266.13 1536.5 1261.32 1536.5 Q1258.27 1536.5 1255.37 1537.23 Q1252.48 1537.97 1249.8 1539.43 L1249.8 1534.02 Q1253.02 1532.78 1256.04 1532.17 Q1259.07 1531.54 1261.93 1531.54 Q1269.66 1531.54 1273.48 1535.55 Q1277.3 1539.56 1277.3 1547.71 Z" fill="#000000" fill-rule="nonzero" fill-opacity="1" /><path clip-path="url(#clip190)" d="M1295.16 1522.27 L1295.16 1532.4 L1307.22 1532.4 L1307.22 1536.95 L1295.16 1536.95 L1295.16 1556.3 Q1295.16 1560.66 1296.34 1561.9 Q1297.55 1563.14 1301.21 1563.14 L1307.22 1563.14 L1307.22 1568.04 L1301.21 1568.04 Q1294.43 1568.04 1291.85 1565.53 Q1289.27 1562.98 1289.27 1556.3 L1289.27 1536.95 L1284.97 1536.95 L1284.97 1532.4 L1289.27 1532.4 L1289.27 1522.27 L1295.16 1522.27 Z" fill="#000000" fill-rule="nonzero" fill-opacity="1" /><path clip-path="url(#clip190)" d="M1314.92 1532.4 L1320.78 1532.4 L1320.78 1568.04 L1314.92 1568.04 L1314.92 1532.4 M1314.92 1518.52 L1320.78 1518.52 L1320.78 1525.93 L1314.92 1525.93 L1314.92 1518.52 Z" fill="#000000" fill-rule="nonzero" fill-opacity="1" /><path clip-path="url(#clip190)" d="M1346.85 1536.5 Q1342.14 1536.5 1339.4 1540.19 Q1336.66 1543.85 1336.66 1550.25 Q1336.66 1556.65 1339.37 1560.34 Q1342.11 1564 1346.85 1564 Q1351.53 1564 1354.26 1560.31 Q1357 1556.62 1357 1550.25 Q1357 1543.92 1354.26 1540.23 Q1351.53 1536.5 1346.85 1536.5 M1346.85 1531.54 Q1354.49 1531.54 1358.85 1536.5 Q1363.21 1541.47 1363.21 1550.25 Q1363.21 1559 1358.85 1564 Q1354.49 1568.97 1346.85 1568.97 Q1339.18 1568.97 1334.82 1564 Q1330.49 1559 1330.49 1550.25 Q1330.49 1541.47 1334.82 1536.5 Q1339.18 1531.54 1346.85 1531.54 Z" fill="#000000" fill-rule="nonzero" fill-opacity="1" /><path clip-path="url(#clip190)" d="M1402.55 1546.53 L1402.55 1568.04 L1396.69 1568.04 L1396.69 1546.72 Q1396.69 1541.66 1394.72 1539.14 Q1392.74 1536.63 1388.8 1536.63 Q1384.06 1536.63 1381.32 1539.65 Q1378.58 1542.68 1378.58 1547.9 L1378.58 1568.04 L1372.69 1568.04 L1372.69 1532.4 L1378.58 1532.4 L1378.58 1537.93 Q1380.68 1534.72 1383.51 1533.13 Q1386.38 1531.54 1390.1 1531.54 Q1396.25 1531.54 1399.4 1535.36 Q1402.55 1539.14 1402.55 1546.53 Z" fill="#000000" fill-rule="nonzero" fill-opacity="1" /><path clip-path="url(#clip190)" d="M1436.95 1533.45 L1436.95 1538.98 Q1434.47 1537.71 1431.8 1537.07 Q1429.12 1536.44 1426.26 1536.44 Q1421.9 1536.44 1419.7 1537.77 Q1417.54 1539.11 1417.54 1541.79 Q1417.54 1543.82 1419.1 1545 Q1420.66 1546.15 1425.37 1547.2 L1427.37 1547.64 Q1433.61 1548.98 1436.22 1551.43 Q1438.86 1553.85 1438.86 1558.21 Q1438.86 1563.17 1434.92 1566.07 Q1431 1568.97 1424.13 1568.97 Q1421.26 1568.97 1418.14 1568.39 Q1415.06 1567.85 1411.62 1566.74 L1411.62 1560.69 Q1414.87 1562.38 1418.02 1563.24 Q1421.17 1564.07 1424.26 1564.07 Q1428.39 1564.07 1430.62 1562.66 Q1432.85 1561.23 1432.85 1558.65 Q1432.85 1556.27 1431.23 1554.99 Q1429.63 1553.72 1424.19 1552.54 L1422.15 1552.07 Q1416.71 1550.92 1414.29 1548.56 Q1411.87 1546.18 1411.87 1542.04 Q1411.87 1537.01 1415.44 1534.27 Q1419 1531.54 1425.56 1531.54 Q1428.81 1531.54 1431.67 1532.01 Q1434.54 1532.49 1436.95 1533.45 Z" fill="#000000" fill-rule="nonzero" fill-opacity="1" /><polyline clip-path="url(#clip190)" style="stroke:#000000; stroke-linecap:round; stroke-linejoin:round; stroke-width:4; stroke-opacity:1; fill:none" points="224.098,1423.18 224.098,123.472 "/>
<polyline clip-path="url(#clip190)" style="stroke:#000000; stroke-linecap:round; stroke-linejoin:round; stroke-width:4; stroke-opacity:1; fill:none" points="224.098,1390.62 242.996,1390.62 "/>
<polyline clip-path="url(#clip190)" style="stroke:#000000; stroke-linecap:round; stroke-linejoin:round; stroke-width:4; stroke-opacity:1; fill:none" points="224.098,1082.72 242.996,1082.72 "/>
<polyline clip-path="url(#clip190)" style="stroke:#000000; stroke-linecap:round; stroke-linejoin:round; stroke-width:4; stroke-opacity:1; fill:none" points="224.098,774.829 242.996,774.829 "/>
<polyline clip-path="url(#clip190)" style="stroke:#000000; stroke-linecap:round; stroke-linejoin:round; stroke-width:4; stroke-opacity:1; fill:none" points="224.098,466.936 242.996,466.936 "/>
<polyline clip-path="url(#clip190)" style="stroke:#000000; stroke-linecap:round; stroke-linejoin:round; stroke-width:4; stroke-opacity:1; fill:none" points="224.098,159.043 242.996,159.043 "/>
<path clip-path="url(#clip190)" d="M50.9921 1391.07 L80.6679 1391.07 L80.6679 1395 L50.9921 1395 L50.9921 1391.07 Z" fill="#000000" fill-rule="nonzero" fill-opacity="1" /><path clip-path="url(#clip190)" d="M91.5706 1403.96 L99.2095 1403.96 L99.2095 1377.59 L90.8993 1379.26 L90.8993 1375 L99.1632 1373.34 L103.839 1373.34 L103.839 1403.96 L111.478 1403.96 L111.478 1407.9 L91.5706 1407.9 L91.5706 1403.96 Z" fill="#000000" fill-rule="nonzero" fill-opacity="1" /><path clip-path="url(#clip190)" d="M120.922 1402.02 L125.807 1402.02 L125.807 1407.9 L120.922 1407.9 L120.922 1402.02 Z" fill="#000000" fill-rule="nonzero" fill-opacity="1" /><path clip-path="url(#clip190)" d="M145.992 1376.41 Q142.381 1376.41 140.552 1379.98 Q138.746 1383.52 138.746 1390.65 Q138.746 1397.76 140.552 1401.32 Q142.381 1404.86 145.992 1404.86 Q149.626 1404.86 151.431 1401.32 Q153.26 1397.76 153.26 1390.65 Q153.26 1383.52 151.431 1379.98 Q149.626 1376.41 145.992 1376.41 M145.992 1372.71 Q151.802 1372.71 154.857 1377.32 Q157.936 1381.9 157.936 1390.65 Q157.936 1399.38 154.857 1403.98 Q151.802 1408.57 145.992 1408.57 Q140.181 1408.57 137.103 1403.98 Q134.047 1399.38 134.047 1390.65 Q134.047 1381.9 137.103 1377.32 Q140.181 1372.71 145.992 1372.71 Z" fill="#000000" fill-rule="nonzero" fill-opacity="1" /><path clip-path="url(#clip190)" d="M176.153 1376.41 Q172.542 1376.41 170.714 1379.98 Q168.908 1383.52 168.908 1390.65 Q168.908 1397.76 170.714 1401.32 Q172.542 1404.86 176.153 1404.86 Q179.788 1404.86 181.593 1401.32 Q183.422 1397.76 183.422 1390.65 Q183.422 1383.52 181.593 1379.98 Q179.788 1376.41 176.153 1376.41 M176.153 1372.71 Q181.964 1372.71 185.019 1377.32 Q188.098 1381.9 188.098 1390.65 Q188.098 1399.38 185.019 1403.98 Q181.964 1408.57 176.153 1408.57 Q170.343 1408.57 167.265 1403.98 Q164.209 1399.38 164.209 1390.65 Q164.209 1381.9 167.265 1377.32 Q170.343 1372.71 176.153 1372.71 Z" fill="#000000" fill-rule="nonzero" fill-opacity="1" /><path clip-path="url(#clip190)" d="M51.9875 1083.17 L81.6633 1083.17 L81.6633 1087.11 L51.9875 1087.11 L51.9875 1083.17 Z" fill="#000000" fill-rule="nonzero" fill-opacity="1" /><path clip-path="url(#clip190)" d="M101.756 1068.52 Q98.1447 1068.52 96.316 1072.09 Q94.5104 1075.63 94.5104 1082.76 Q94.5104 1089.86 96.316 1093.43 Q98.1447 1096.97 101.756 1096.97 Q105.39 1096.97 107.196 1093.43 Q109.024 1089.86 109.024 1082.76 Q109.024 1075.63 107.196 1072.09 Q105.39 1068.52 101.756 1068.52 M101.756 1064.82 Q107.566 1064.82 110.621 1069.42 Q113.7 1074.01 113.7 1082.76 Q113.7 1091.48 110.621 1096.09 Q107.566 1100.67 101.756 1100.67 Q95.9456 1100.67 92.8669 1096.09 Q89.8114 1091.48 89.8114 1082.76 Q89.8114 1074.01 92.8669 1069.42 Q95.9456 1064.82 101.756 1064.82 Z" fill="#000000" fill-rule="nonzero" fill-opacity="1" /><path clip-path="url(#clip190)" d="M121.918 1094.12 L126.802 1094.12 L126.802 1100 L121.918 1100 L121.918 1094.12 Z" fill="#000000" fill-rule="nonzero" fill-opacity="1" /><path clip-path="url(#clip190)" d="M135.806 1065.44 L158.029 1065.44 L158.029 1067.43 L145.482 1100 L140.598 1100 L152.404 1069.38 L135.806 1069.38 L135.806 1065.44 Z" fill="#000000" fill-rule="nonzero" fill-opacity="1" /><path clip-path="url(#clip190)" d="M167.195 1065.44 L185.552 1065.44 L185.552 1069.38 L171.478 1069.38 L171.478 1077.85 Q172.496 1077.5 173.515 1077.34 Q174.533 1077.16 175.552 1077.16 Q181.339 1077.16 184.718 1080.33 Q188.098 1083.5 188.098 1088.91 Q188.098 1094.49 184.626 1097.59 Q181.153 1100.67 174.834 1100.67 Q172.658 1100.67 170.39 1100.3 Q168.144 1099.93 165.737 1099.19 L165.737 1094.49 Q167.82 1095.63 170.042 1096.18 Q172.265 1096.74 174.741 1096.74 Q178.746 1096.74 181.084 1094.63 Q183.422 1092.53 183.422 1088.91 Q183.422 1085.3 181.084 1083.2 Q178.746 1081.09 174.741 1081.09 Q172.866 1081.09 170.991 1081.51 Q169.14 1081.92 167.195 1082.8 L167.195 1065.44 Z" fill="#000000" fill-rule="nonzero" fill-opacity="1" /><path clip-path="url(#clip190)" d="M50.9921 775.28 L80.6679 775.28 L80.6679 779.216 L50.9921 779.216 L50.9921 775.28 Z" fill="#000000" fill-rule="nonzero" fill-opacity="1" /><path clip-path="url(#clip190)" d="M100.76 760.628 Q97.1493 760.628 95.3206 764.193 Q93.515 767.734 93.515 774.864 Q93.515 781.97 95.3206 785.535 Q97.1493 789.077 100.76 789.077 Q104.395 789.077 106.2 785.535 Q108.029 781.97 108.029 774.864 Q108.029 767.734 106.2 764.193 Q104.395 760.628 100.76 760.628 M100.76 756.924 Q106.571 756.924 109.626 761.531 Q112.705 766.114 112.705 774.864 Q112.705 783.591 109.626 788.197 Q106.571 792.78 100.76 792.78 Q94.9502 792.78 91.8715 788.197 Q88.816 783.591 88.816 774.864 Q88.816 766.114 91.8715 761.531 Q94.9502 756.924 100.76 756.924 Z" fill="#000000" fill-rule="nonzero" fill-opacity="1" /><path clip-path="url(#clip190)" d="M120.922 786.229 L125.807 786.229 L125.807 792.109 L120.922 792.109 L120.922 786.229 Z" fill="#000000" fill-rule="nonzero" fill-opacity="1" /><path clip-path="url(#clip190)" d="M136.038 757.549 L154.394 757.549 L154.394 761.484 L140.32 761.484 L140.32 769.956 Q141.339 769.609 142.357 769.447 Q143.376 769.262 144.394 769.262 Q150.181 769.262 153.561 772.433 Q156.941 775.605 156.941 781.021 Q156.941 786.6 153.468 789.702 Q149.996 792.78 143.677 792.78 Q141.501 792.78 139.232 792.41 Q136.987 792.04 134.58 791.299 L134.58 786.6 Q136.663 787.734 138.885 788.29 Q141.107 788.845 143.584 788.845 Q147.589 788.845 149.927 786.739 Q152.265 784.632 152.265 781.021 Q152.265 777.41 149.927 775.304 Q147.589 773.197 143.584 773.197 Q141.709 773.197 139.834 773.614 Q137.982 774.03 136.038 774.91 L136.038 757.549 Z" fill="#000000" fill-rule="nonzero" fill-opacity="1" /><path clip-path="url(#clip190)" d="M176.153 760.628 Q172.542 760.628 170.714 764.193 Q168.908 767.734 168.908 774.864 Q168.908 781.97 170.714 785.535 Q172.542 789.077 176.153 789.077 Q179.788 789.077 181.593 785.535 Q183.422 781.97 183.422 774.864 Q183.422 767.734 181.593 764.193 Q179.788 760.628 176.153 760.628 M176.153 756.924 Q181.964 756.924 185.019 761.531 Q188.098 766.114 188.098 774.864 Q188.098 783.591 185.019 788.197 Q181.964 792.78 176.153 792.78 Q170.343 792.78 167.265 788.197 Q164.209 783.591 164.209 774.864 Q164.209 766.114 167.265 761.531 Q170.343 756.924 176.153 756.924 Z" fill="#000000" fill-rule="nonzero" fill-opacity="1" /><path clip-path="url(#clip190)" d="M51.9875 467.387 L81.6633 467.387 L81.6633 471.322 L51.9875 471.322 L51.9875 467.387 Z" fill="#000000" fill-rule="nonzero" fill-opacity="1" /><path clip-path="url(#clip190)" d="M101.756 452.735 Q98.1447 452.735 96.316 456.299 Q94.5104 459.841 94.5104 466.971 Q94.5104 474.077 96.316 477.642 Q98.1447 481.183 101.756 481.183 Q105.39 481.183 107.196 477.642 Q109.024 474.077 109.024 466.971 Q109.024 459.841 107.196 456.299 Q105.39 452.735 101.756 452.735 M101.756 449.031 Q107.566 449.031 110.621 453.637 Q113.7 458.221 113.7 466.971 Q113.7 475.697 110.621 480.304 Q107.566 484.887 101.756 484.887 Q95.9456 484.887 92.8669 480.304 Q89.8114 475.697 89.8114 466.971 Q89.8114 458.221 92.8669 453.637 Q95.9456 449.031 101.756 449.031 Z" fill="#000000" fill-rule="nonzero" fill-opacity="1" /><path clip-path="url(#clip190)" d="M121.918 478.336 L126.802 478.336 L126.802 484.216 L121.918 484.216 L121.918 478.336 Z" fill="#000000" fill-rule="nonzero" fill-opacity="1" /><path clip-path="url(#clip190)" d="M141.015 480.281 L157.334 480.281 L157.334 484.216 L135.39 484.216 L135.39 480.281 Q138.052 477.526 142.635 472.896 Q147.242 468.244 148.422 466.901 Q150.668 464.378 151.547 462.642 Q152.45 460.883 152.45 459.193 Q152.45 456.438 150.505 454.702 Q148.584 452.966 145.482 452.966 Q143.283 452.966 140.83 453.73 Q138.399 454.494 135.621 456.045 L135.621 451.322 Q138.445 450.188 140.899 449.61 Q143.353 449.031 145.39 449.031 Q150.76 449.031 153.955 451.716 Q157.149 454.401 157.149 458.892 Q157.149 461.022 156.339 462.943 Q155.552 464.841 153.445 467.434 Q152.867 468.105 149.765 471.322 Q146.663 474.517 141.015 480.281 Z" fill="#000000" fill-rule="nonzero" fill-opacity="1" /><path clip-path="url(#clip190)" d="M167.195 449.656 L185.552 449.656 L185.552 453.591 L171.478 453.591 L171.478 462.063 Q172.496 461.716 173.515 461.554 Q174.533 461.369 175.552 461.369 Q181.339 461.369 184.718 464.54 Q188.098 467.711 188.098 473.128 Q188.098 478.707 184.626 481.808 Q181.153 484.887 174.834 484.887 Q172.658 484.887 170.39 484.517 Q168.144 484.146 165.737 483.406 L165.737 478.707 Q167.82 479.841 170.042 480.396 Q172.265 480.952 174.741 480.952 Q178.746 480.952 181.084 478.845 Q183.422 476.739 183.422 473.128 Q183.422 469.517 181.084 467.41 Q178.746 465.304 174.741 465.304 Q172.866 465.304 170.991 465.721 Q169.14 466.137 167.195 467.017 L167.195 449.656 Z" fill="#000000" fill-rule="nonzero" fill-opacity="1" /><path clip-path="url(#clip190)" d="M100.76 144.841 Q97.1493 144.841 95.3206 148.406 Q93.515 151.948 93.515 159.077 Q93.515 166.184 95.3206 169.749 Q97.1493 173.29 100.76 173.29 Q104.395 173.29 106.2 169.749 Q108.029 166.184 108.029 159.077 Q108.029 151.948 106.2 148.406 Q104.395 144.841 100.76 144.841 M100.76 141.138 Q106.571 141.138 109.626 145.744 Q112.705 150.327 112.705 159.077 Q112.705 167.804 109.626 172.411 Q106.571 176.994 100.76 176.994 Q94.9502 176.994 91.8715 172.411 Q88.816 167.804 88.816 159.077 Q88.816 150.327 91.8715 145.744 Q94.9502 141.138 100.76 141.138 Z" fill="#000000" fill-rule="nonzero" fill-opacity="1" /><path clip-path="url(#clip190)" d="M120.922 170.443 L125.807 170.443 L125.807 176.323 L120.922 176.323 L120.922 170.443 Z" fill="#000000" fill-rule="nonzero" fill-opacity="1" /><path clip-path="url(#clip190)" d="M145.992 144.841 Q142.381 144.841 140.552 148.406 Q138.746 151.948 138.746 159.077 Q138.746 166.184 140.552 169.749 Q142.381 173.29 145.992 173.29 Q149.626 173.29 151.431 169.749 Q153.26 166.184 153.26 159.077 Q153.26 151.948 151.431 148.406 Q149.626 144.841 145.992 144.841 M145.992 141.138 Q151.802 141.138 154.857 145.744 Q157.936 150.327 157.936 159.077 Q157.936 167.804 154.857 172.411 Q151.802 176.994 145.992 176.994 Q140.181 176.994 137.103 172.411 Q134.047 167.804 134.047 159.077 Q134.047 150.327 137.103 145.744 Q140.181 141.138 145.992 141.138 Z" fill="#000000" fill-rule="nonzero" fill-opacity="1" /><path clip-path="url(#clip190)" d="M176.153 144.841 Q172.542 144.841 170.714 148.406 Q168.908 151.948 168.908 159.077 Q168.908 166.184 170.714 169.749 Q172.542 173.29 176.153 173.29 Q179.788 173.29 181.593 169.749 Q183.422 166.184 183.422 159.077 Q183.422 151.948 181.593 148.406 Q179.788 144.841 176.153 144.841 M176.153 141.138 Q181.964 141.138 185.019 145.744 Q188.098 150.327 188.098 159.077 Q188.098 167.804 185.019 172.411 Q181.964 176.994 176.153 176.994 Q170.343 176.994 167.265 172.411 Q164.209 167.804 164.209 159.077 Q164.209 150.327 167.265 145.744 Q170.343 141.138 176.153 141.138 Z" fill="#000000" fill-rule="nonzero" fill-opacity="1" /><path clip-path="url(#clip190)" d="M952.87 16.7545 L952.87 25.383 Q948.738 21.5346 944.039 19.6307 Q939.381 17.7268 934.115 17.7268 Q923.744 17.7268 918.235 24.0867 Q912.726 30.4061 912.726 42.3968 Q912.726 54.3469 918.235 60.7069 Q923.744 67.0263 934.115 67.0263 Q939.381 67.0263 944.039 65.1223 Q948.738 63.2184 952.87 59.3701 L952.87 67.9175 Q948.576 70.8341 943.756 72.2924 Q938.976 73.7508 933.628 73.7508 Q919.896 73.7508 911.997 65.3654 Q904.097 56.9395 904.097 42.3968 Q904.097 27.8135 911.997 19.4281 Q919.896 11.0023 933.628 11.0023 Q939.057 11.0023 943.837 12.4606 Q948.657 13.8784 952.87 16.7545 Z" fill="#000000" fill-rule="nonzero" fill-opacity="1" /><path clip-path="url(#clip190)" d="M982.766 32.4315 Q976.771 32.4315 973.287 37.1306 Q969.803 41.7891 969.803 49.9314 Q969.803 58.0738 973.246 62.7728 Q976.73 67.4314 982.766 67.4314 Q988.721 67.4314 992.205 62.7323 Q995.688 58.0333 995.688 49.9314 Q995.688 41.8701 992.205 37.1711 Q988.721 32.4315 982.766 32.4315 M982.766 26.1121 Q992.488 26.1121 998.038 32.4315 Q1003.59 38.7509 1003.59 49.9314 Q1003.59 61.0714 998.038 67.4314 Q992.488 73.7508 982.766 73.7508 Q973.003 73.7508 967.453 67.4314 Q961.944 61.0714 961.944 49.9314 Q961.944 38.7509 967.453 32.4315 Q973.003 26.1121 982.766 26.1121 Z" fill="#000000" fill-rule="nonzero" fill-opacity="1" /><path clip-path="url(#clip190)" d="M1053.66 45.1919 L1053.66 72.576 L1046.2 72.576 L1046.2 45.4349 Q1046.2 38.994 1043.69 35.7938 Q1041.18 32.5936 1036.16 32.5936 Q1030.12 32.5936 1026.64 36.4419 Q1023.15 40.2903 1023.15 46.9338 L1023.15 72.576 L1015.66 72.576 L1015.66 27.2059 L1023.15 27.2059 L1023.15 34.2544 Q1025.83 30.163 1029.43 28.1376 Q1033.08 26.1121 1037.82 26.1121 Q1045.64 26.1121 1049.65 30.9732 Q1053.66 35.7938 1053.66 45.1919 Z" fill="#000000" fill-rule="nonzero" fill-opacity="1" /><path clip-path="url(#clip190)" d="M1063.18 27.2059 L1071.08 27.2059 L1085.25 65.2844 L1099.43 27.2059 L1107.33 27.2059 L1090.32 72.576 L1080.19 72.576 L1063.18 27.2059 Z" fill="#000000" fill-rule="nonzero" fill-opacity="1" /><path clip-path="url(#clip190)" d="M1156.43 48.0275 L1156.43 51.6733 L1122.16 51.6733 Q1122.64 59.3701 1126.78 63.421 Q1130.95 67.4314 1138.36 67.4314 Q1142.66 67.4314 1146.67 66.3781 Q1150.72 65.3249 1154.69 63.2184 L1154.69 70.267 Q1150.68 71.9684 1146.46 72.8596 Q1142.25 73.7508 1137.92 73.7508 Q1127.06 73.7508 1120.7 67.4314 Q1114.38 61.1119 1114.38 50.3365 Q1114.38 39.1965 1120.38 32.6746 Q1126.41 26.1121 1136.62 26.1121 Q1145.77 26.1121 1151.08 32.0264 Q1156.43 37.9003 1156.43 48.0275 M1148.97 45.84 Q1148.89 39.7232 1145.53 36.0774 Q1142.21 32.4315 1136.7 32.4315 Q1130.46 32.4315 1126.69 35.9558 Q1122.97 39.4801 1122.4 45.8805 L1148.97 45.84 Z" fill="#000000" fill-rule="nonzero" fill-opacity="1" /><path clip-path="url(#clip190)" d="M1194.95 34.1734 Q1193.7 33.4443 1192.2 33.1202 Q1190.74 32.7556 1188.96 32.7556 Q1182.64 32.7556 1179.23 36.8875 Q1175.87 40.9789 1175.87 48.6757 L1175.87 72.576 L1168.38 72.576 L1168.38 27.2059 L1175.87 27.2059 L1175.87 34.2544 Q1178.22 30.1225 1181.99 28.1376 Q1185.76 26.1121 1191.14 26.1121 Q1191.91 26.1121 1192.85 26.2337 Q1193.78 26.3147 1194.91 26.5172 L1194.95 34.1734 Z" fill="#000000" fill-rule="nonzero" fill-opacity="1" /><path clip-path="url(#clip190)" d="M1231.17 49.3643 Q1231.17 41.2625 1227.81 36.8065 Q1224.48 32.3505 1218.45 32.3505 Q1212.45 32.3505 1209.09 36.8065 Q1205.77 41.2625 1205.77 49.3643 Q1205.77 57.4256 1209.09 61.8816 Q1212.45 66.3376 1218.45 66.3376 Q1224.48 66.3376 1227.81 61.8816 Q1231.17 57.4256 1231.17 49.3643 M1238.62 66.9452 Q1238.62 78.5308 1233.48 84.1616 Q1228.33 89.8329 1217.72 89.8329 Q1213.79 89.8329 1210.31 89.2252 Q1206.82 88.6581 1203.54 87.4428 L1203.54 80.1917 Q1206.82 81.9741 1210.02 82.8248 Q1213.22 83.6755 1216.54 83.6755 Q1223.88 83.6755 1227.52 79.8271 Q1231.17 76.0193 1231.17 68.282 L1231.17 64.5957 Q1228.86 68.6061 1225.25 70.5911 Q1221.65 72.576 1216.62 72.576 Q1208.28 72.576 1203.18 66.2161 Q1198.07 59.8562 1198.07 49.3643 Q1198.07 38.832 1203.18 32.472 Q1208.28 26.1121 1216.62 26.1121 Q1221.65 26.1121 1225.25 28.0971 Q1228.86 30.082 1231.17 34.0924 L1231.17 27.2059 L1238.62 27.2059 L1238.62 66.9452 Z" fill="#000000" fill-rule="nonzero" fill-opacity="1" /><path clip-path="url(#clip190)" d="M1292.78 48.0275 L1292.78 51.6733 L1258.51 51.6733 Q1259 59.3701 1263.13 63.421 Q1267.3 67.4314 1274.71 67.4314 Q1279.01 67.4314 1283.02 66.3781 Q1287.07 65.3249 1291.04 63.2184 L1291.04 70.267 Q1287.03 71.9684 1282.82 72.8596 Q1278.6 73.7508 1274.27 73.7508 Q1263.41 73.7508 1257.05 67.4314 Q1250.73 61.1119 1250.73 50.3365 Q1250.73 39.1965 1256.73 32.6746 Q1262.76 26.1121 1272.97 26.1121 Q1282.13 26.1121 1287.43 32.0264 Q1292.78 37.9003 1292.78 48.0275 M1285.33 45.84 Q1285.25 39.7232 1281.88 36.0774 Q1278.56 32.4315 1273.05 32.4315 Q1266.82 32.4315 1263.05 35.9558 Q1259.32 39.4801 1258.75 45.8805 L1285.33 45.84 Z" fill="#000000" fill-rule="nonzero" fill-opacity="1" /><path clip-path="url(#clip190)" d="M1342.73 45.1919 L1342.73 72.576 L1335.28 72.576 L1335.28 45.4349 Q1335.28 38.994 1332.76 35.7938 Q1330.25 32.5936 1325.23 32.5936 Q1319.19 32.5936 1315.71 36.4419 Q1312.23 40.2903 1312.23 46.9338 L1312.23 72.576 L1304.73 72.576 L1304.73 27.2059 L1312.23 27.2059 L1312.23 34.2544 Q1314.9 30.163 1318.5 28.1376 Q1322.15 26.1121 1326.89 26.1121 Q1334.71 26.1121 1338.72 30.9732 Q1342.73 35.7938 1342.73 45.1919 Z" fill="#000000" fill-rule="nonzero" fill-opacity="1" /><path clip-path="url(#clip190)" d="M1390.25 28.9478 L1390.25 35.9153 Q1387.09 34.1734 1383.89 33.3227 Q1380.73 32.4315 1377.49 32.4315 Q1370.23 32.4315 1366.22 37.0496 Q1362.21 41.6271 1362.21 49.9314 Q1362.21 58.2358 1366.22 62.8538 Q1370.23 67.4314 1377.49 67.4314 Q1380.73 67.4314 1383.89 66.5807 Q1387.09 65.6895 1390.25 63.9476 L1390.25 70.8341 Q1387.13 72.2924 1383.76 73.0216 Q1380.44 73.7508 1376.68 73.7508 Q1366.43 73.7508 1360.39 67.3098 Q1354.36 60.8689 1354.36 49.9314 Q1354.36 38.832 1360.43 32.472 Q1366.55 26.1121 1377.16 26.1121 Q1380.61 26.1121 1383.89 26.8413 Q1387.17 27.5299 1390.25 28.9478 Z" fill="#000000" fill-rule="nonzero" fill-opacity="1" /><path clip-path="url(#clip190)" d="M1442.02 48.0275 L1442.02 51.6733 L1407.75 51.6733 Q1408.23 59.3701 1412.36 63.421 Q1416.54 67.4314 1423.95 67.4314 Q1428.24 67.4314 1432.25 66.3781 Q1436.31 65.3249 1440.28 63.2184 L1440.28 70.267 Q1436.26 71.9684 1432.05 72.8596 Q1427.84 73.7508 1423.5 73.7508 Q1412.65 73.7508 1406.29 67.4314 Q1399.97 61.1119 1399.97 50.3365 Q1399.97 39.1965 1405.96 32.6746 Q1412 26.1121 1422.21 26.1121 Q1431.36 26.1121 1436.67 32.0264 Q1442.02 37.9003 1442.02 48.0275 M1434.56 45.84 Q1434.48 39.7232 1431.12 36.0774 Q1427.8 32.4315 1422.29 32.4315 Q1416.05 32.4315 1412.28 35.9558 Q1408.56 39.4801 1407.99 45.8805 L1434.56 45.84 Z" fill="#000000" fill-rule="nonzero" fill-opacity="1" /><path clip-path="url(#clip190)" d="M1498.2 32.4315 Q1492.21 32.4315 1488.72 37.1306 Q1485.24 41.7891 1485.24 49.9314 Q1485.24 58.0738 1488.68 62.7728 Q1492.17 67.4314 1498.2 67.4314 Q1504.16 67.4314 1507.64 62.7323 Q1511.13 58.0333 1511.13 49.9314 Q1511.13 41.8701 1507.64 37.1711 Q1504.16 32.4315 1498.2 32.4315 M1498.2 26.1121 Q1507.93 26.1121 1513.47 32.4315 Q1519.02 38.7509 1519.02 49.9314 Q1519.02 61.0714 1513.47 67.4314 Q1507.93 73.7508 1498.2 73.7508 Q1488.44 73.7508 1482.89 67.4314 Q1477.38 61.0714 1477.38 49.9314 Q1477.38 38.7509 1482.89 32.4315 Q1488.44 26.1121 1498.2 26.1121 Z" fill="#000000" fill-rule="nonzero" fill-opacity="1" /><path clip-path="url(#clip190)" d="M1554.35 9.54393 L1554.35 15.7418 L1547.22 15.7418 Q1543.21 15.7418 1541.63 17.3622 Q1540.09 18.9825 1540.09 23.1955 L1540.09 27.2059 L1552.36 27.2059 L1552.36 32.9987 L1540.09 32.9987 L1540.09 72.576 L1532.6 72.576 L1532.6 32.9987 L1525.47 32.9987 L1525.47 27.2059 L1532.6 27.2059 L1532.6 24.0462 Q1532.6 16.471 1536.12 13.0277 Q1539.64 9.54393 1547.3 9.54393 L1554.35 9.54393 Z" fill="#000000" fill-rule="nonzero" fill-opacity="1" /><path clip-path="url(#clip190)" d="M1596.84 73.7508 Q1591.13 73.7508 1587.4 70.3075 Q1582.99 66.2161 1582.99 58.8029 Q1582.99 51.1062 1586.88 45.1109 Q1590.89 38.9535 1598.1 38.9535 Q1602.84 38.9535 1606.56 41.9107 Q1608.75 43.6525 1610.25 46.5692 Q1610.78 43.288 1610.78 39.5611 Q1610.78 34.0924 1609.48 30.9327 Q1606.61 23.9246 1598.99 23.9246 Q1596.11 23.9246 1591.66 25.707 L1591.66 18.9015 Q1596.36 17.6457 1600.57 17.6457 Q1611.43 17.6457 1616.04 27.611 Q1618.19 32.31 1618.19 39.3181 Q1618.19 43.8956 1617.18 49.2023 Q1614.63 62.4892 1608.02 68.8087 Q1602.84 73.7508 1596.84 73.7508 M1589.92 60.0182 Q1589.92 64.0691 1591.7 66.2566 Q1593.6 68.5656 1596.52 68.5656 Q1599.11 68.5656 1601.18 66.7427 Q1604.09 64.2311 1606.24 60.1397 Q1608.02 56.7775 1608.91 53.1722 Q1605.31 44.4627 1599.07 44.4627 Q1593.72 44.4627 1591.37 51.5113 Q1589.92 55.8863 1589.92 60.0182 Z" fill="#000000" fill-rule="nonzero" fill-opacity="1" /><path clip-path="url(#clip190)" d="M1656.31 51.4708 L1654.53 42.1132 Q1652.7 32.5126 1645.49 32.5126 Q1640.07 32.5126 1637.59 36.9686 Q1634.48 42.5588 1634.48 49.9314 Q1634.48 58.8434 1637.51 63.0969 Q1640.59 67.4314 1645.49 67.4314 Q1650.92 67.4314 1653.84 58.8029 L1656.31 51.4708 M1660.48 39.075 L1664.49 27.2059 L1671.14 27.2059 L1662.83 51.7949 L1664.45 60.6663 Q1664.82 62.6513 1666.23 64.3122 Q1667.9 66.2566 1669.19 66.2566 L1672.76 66.2566 L1672.76 72.576 L1668.3 72.576 Q1664.49 72.576 1661.09 69.1732 Q1659.43 67.4719 1658.74 63.9071 Q1656.88 68.4036 1653.07 71.9279 Q1651.29 73.5887 1645.49 73.5887 Q1635.97 73.5887 1631.36 67.4314 Q1626.62 61.0714 1626.62 49.9314 Q1626.62 38.0218 1631.76 32.4315 Q1637.47 26.1931 1645.49 26.1931 Q1658.09 26.1931 1660.48 39.075 Z" fill="#000000" fill-rule="nonzero" fill-opacity="1" /><polyline clip-path="url(#clip192)" style="stroke:#008000; stroke-linecap:round; stroke-linejoin:round; stroke-width:4; stroke-opacity:1; fill:none" points="284.343,1386.4 292.852,1347.88 301.361,1310.68 309.87,1274.75 318.38,1240.04 326.889,1206.49 335.398,1174.07 343.907,1142.73 352.416,1112.43 360.926,1083.14 369.435,1054.81 377.944,1027.4 386.453,1000.9 394.962,975.249 403.472,950.434 411.981,926.42 420.49,903.178 428.999,880.681 437.508,858.902 446.017,837.817 454.527,817.401 463.036,797.63 471.545,778.483 480.054,759.938 488.563,741.975 497.073,724.574 505.582,707.715 514.091,691.38 522.6,675.552 531.109,660.214 539.618,645.35 548.128,630.944 556.637,616.98 565.146,603.445 573.655,590.323 582.164,577.603 590.674,565.27 599.183,553.313 607.692,541.718 616.201,530.475 624.71,519.572 633.22,508.998 641.729,498.743 650.238,488.797 658.747,479.15 667.256,469.792 675.765,460.714 684.275,451.908 692.784,443.366 701.293,435.078 709.802,427.037 718.311,419.235 726.821,411.665 735.33,404.32 743.839,397.193 752.348,390.277 760.857,383.565 769.367,377.052 777.876,370.731 786.385,364.597 794.894,358.643 803.403,352.864 811.912,347.255 820.422,341.811 828.931,336.527 837.44,331.398 845.949,326.419 854.458,321.586 862.968,316.895 871.477,312.34 879.986,307.919 888.495,303.626 897.004,299.459 905.514,295.413 914.023,291.485 922.532,287.672 931.041,283.969 939.55,280.374 948.059,276.884 956.569,273.495 965.078,270.204 973.587,267.009 982.096,263.906 990.605,260.894 999.115,257.968 1007.62,255.128 1016.13,252.369 1024.64,249.69 1033.15,247.089 1041.66,244.563 1050.17,242.11 1058.68,239.728 1067.19,237.414 1075.7,235.168 1084.21,232.986 1092.72,230.867 1101.22,228.809 1109.73,226.81 1118.24,224.869 1126.75,222.984 1135.26,221.153 1143.77,219.375 1152.28,217.648 1160.79,215.971 1169.3,214.341 1177.81,212.759 1186.32,211.222 1194.83,209.73 1203.34,208.28 1211.84,206.872 1220.35,205.504 1228.86,204.176 1237.37,202.885 1245.88,201.632 1254.39,200.415 1262.9,199.232 1271.41,198.084 1279.92,196.968 1288.43,195.884 1296.94,194.832 1305.45,193.809 1313.95,192.816 1322.46,191.851 1330.97,190.914 1339.48,190.004 1347.99,189.12 1356.5,188.261 1365.01,187.427 1373.52,186.617 1382.03,185.829 1390.54,185.065 1399.05,184.322 1407.56,183.6 1416.06,182.899 1424.57,182.219 1433.08,181.557 1441.59,180.915 1450.1,180.29 1458.61,179.684 1467.12,179.095 1475.63,178.523 1484.14,177.967 1492.65,177.427 1501.16,176.903 1509.67,176.394 1518.17,175.899 1526.68,175.418 1535.19,174.951 1543.7,174.497 1552.21,174.056 1560.72,173.628 1569.23,173.212 1577.74,172.808 1586.25,172.415 1594.76,172.034 1603.27,171.664 1611.78,171.304 1620.29,170.954 1628.79,170.615 1637.3,170.285 1645.81,169.964 1654.32,169.653 1662.83,169.35 1671.34,169.056 1679.85,168.771 1688.36,168.494 1696.87,168.224 1705.38,167.962 1713.89,167.708 1722.4,167.461 1730.9,167.221 1739.41,166.988 1747.92,166.762 1756.43,166.542 1764.94,166.328 1773.45,166.12 1781.96,165.919 1790.47,165.723 1798.98,165.532 1807.49,165.347 1816,165.168 1824.51,164.993 1833.01,164.823 1841.52,164.659 1850.03,164.499 1858.54,164.343 1867.05,164.192 1875.56,164.045 1884.07,163.903 1892.58,163.764 1901.09,163.63 1909.6,163.499 1918.11,163.372 1926.62,163.249 1935.13,163.129 1943.63,163.012 1952.14,162.899 1960.65,162.789 1969.16,162.683 1977.67,162.579 1986.18,162.478 1994.69,162.38 2003.2,162.285 2011.71,162.193 2020.22,162.103 2028.73,162.016 2037.24,161.931 2045.74,161.849 2054.25,161.769 2062.76,161.691 2071.27,161.616 2079.78,161.542 2088.29,161.471 2096.8,161.402 2105.31,161.335 2113.82,161.27 2122.33,161.206 2130.84,161.144 2139.35,161.085 2147.85,161.026 2156.36,160.97 2164.87,160.915 2173.38,160.862 2181.89,160.81 2190.4,160.759 2198.91,160.711 2207.42,160.663 2215.93,160.617 2224.44,160.572 2232.95,160.528 2241.46,160.486 2249.96,160.445 2258.47,160.405 2266.98,160.366 2275.49,160.329 2284,160.292 2292.51,160.256 "/>
</svg>
