<?xml version="1.0" encoding="utf-8"?>
<svg xmlns="http://www.w3.org/2000/svg" xmlns:xlink="http://www.w3.org/1999/xlink" width="1150" height="350" viewBox="0 0 4600 1400">
<defs>
  <clipPath id="clip230">
    <rect x="0" y="0" width="4600" height="1400"/>
  </clipPath>
</defs>
<path clip-path="url(#clip230)" d="M0 1400 L4600 1400 L4600 0 L0 0  Z" fill="#ffffff" fill-rule="evenodd" fill-opacity="1"/>
<defs>
  <clipPath id="clip231">
    <rect x="920" y="0" width="3221" height="1400"/>
  </clipPath>
</defs>
<path clip-path="url(#clip230)" d="M161.917 1309.2 L4552.76 1309.2 L4552.76 47.2441 L161.917 47.2441  Z" fill="#ffffff" fill-rule="evenodd" fill-opacity="1"/>
<defs>
  <clipPath id="clip232">
    <rect x="161" y="47" width="4392" height="1263"/>
  </clipPath>
</defs>
<polyline clip-path="url(#clip232)" style="stroke:#000000; stroke-linecap:round; stroke-linejoin:round; stroke-width:2; stroke-opacity:0.1; fill:none" points="286.186,1309.2 286.186,47.2441 "/>
<polyline clip-path="url(#clip232)" style="stroke:#000000; stroke-linecap:round; stroke-linejoin:round; stroke-width:2; stroke-opacity:0.1; fill:none" points="957.601,1309.2 957.601,47.2441 "/>
<polyline clip-path="url(#clip232)" style="stroke:#000000; stroke-linecap:round; stroke-linejoin:round; stroke-width:2; stroke-opacity:0.1; fill:none" points="1629.02,1309.2 1629.02,47.2441 "/>
<polyline clip-path="url(#clip232)" style="stroke:#000000; stroke-linecap:round; stroke-linejoin:round; stroke-width:2; stroke-opacity:0.1; fill:none" points="2300.43,1309.2 2300.43,47.2441 "/>
<polyline clip-path="url(#clip232)" style="stroke:#000000; stroke-linecap:round; stroke-linejoin:round; stroke-width:2; stroke-opacity:0.1; fill:none" points="2971.85,1309.2 2971.85,47.2441 "/>
<polyline clip-path="url(#clip232)" style="stroke:#000000; stroke-linecap:round; stroke-linejoin:round; stroke-width:2; stroke-opacity:0.1; fill:none" points="3643.26,1309.2 3643.26,47.2441 "/>
<polyline clip-path="url(#clip232)" style="stroke:#000000; stroke-linecap:round; stroke-linejoin:round; stroke-width:2; stroke-opacity:0.1; fill:none" points="4314.68,1309.2 4314.68,47.2441 "/>
<polyline clip-path="url(#clip232)" style="stroke:#000000; stroke-linecap:round; stroke-linejoin:round; stroke-width:2; stroke-opacity:0.1; fill:none" points="161.917,1228.66 4552.76,1228.66 "/>
<polyline clip-path="url(#clip232)" style="stroke:#000000; stroke-linecap:round; stroke-linejoin:round; stroke-width:2; stroke-opacity:0.1; fill:none" points="161.917,1031.57 4552.76,1031.57 "/>
<polyline clip-path="url(#clip232)" style="stroke:#000000; stroke-linecap:round; stroke-linejoin:round; stroke-width:2; stroke-opacity:0.1; fill:none" points="161.917,834.486 4552.76,834.486 "/>
<polyline clip-path="url(#clip232)" style="stroke:#000000; stroke-linecap:round; stroke-linejoin:round; stroke-width:2; stroke-opacity:0.1; fill:none" points="161.917,637.399 4552.76,637.399 "/>
<polyline clip-path="url(#clip232)" style="stroke:#000000; stroke-linecap:round; stroke-linejoin:round; stroke-width:2; stroke-opacity:0.1; fill:none" points="161.917,440.312 4552.76,440.312 "/>
<polyline clip-path="url(#clip232)" style="stroke:#000000; stroke-linecap:round; stroke-linejoin:round; stroke-width:2; stroke-opacity:0.1; fill:none" points="161.917,243.225 4552.76,243.225 "/>
<polyline clip-path="url(#clip230)" style="stroke:#000000; stroke-linecap:round; stroke-linejoin:round; stroke-width:4; stroke-opacity:1; fill:none" points="161.917,1309.2 4552.76,1309.2 "/>
<polyline clip-path="url(#clip230)" style="stroke:#000000; stroke-linecap:round; stroke-linejoin:round; stroke-width:4; stroke-opacity:1; fill:none" points="286.186,1309.2 286.186,1290.31 "/>
<polyline clip-path="url(#clip230)" style="stroke:#000000; stroke-linecap:round; stroke-linejoin:round; stroke-width:4; stroke-opacity:1; fill:none" points="957.601,1309.2 957.601,1290.31 "/>
<polyline clip-path="url(#clip230)" style="stroke:#000000; stroke-linecap:round; stroke-linejoin:round; stroke-width:4; stroke-opacity:1; fill:none" points="1629.02,1309.2 1629.02,1290.31 "/>
<polyline clip-path="url(#clip230)" style="stroke:#000000; stroke-linecap:round; stroke-linejoin:round; stroke-width:4; stroke-opacity:1; fill:none" points="2300.43,1309.2 2300.43,1290.31 "/>
<polyline clip-path="url(#clip230)" style="stroke:#000000; stroke-linecap:round; stroke-linejoin:round; stroke-width:4; stroke-opacity:1; fill:none" points="2971.85,1309.2 2971.85,1290.31 "/>
<polyline clip-path="url(#clip230)" style="stroke:#000000; stroke-linecap:round; stroke-linejoin:round; stroke-width:4; stroke-opacity:1; fill:none" points="3643.26,1309.2 3643.26,1290.31 "/>
<polyline clip-path="url(#clip230)" style="stroke:#000000; stroke-linecap:round; stroke-linejoin:round; stroke-width:4; stroke-opacity:1; fill:none" points="4314.68,1309.2 4314.68,1290.31 "/>
<path clip-path="url(#clip230)" d="M259.886 1369.08 L285.852 1369.08 L285.852 1372.52 L259.886 1372.52 L259.886 1369.08 Z" fill="#000000" fill-rule="nonzero" fill-opacity="1" /><path clip-path="url(#clip230)" d="M298.207 1380.36 L312.487 1380.36 L312.487 1383.8 L293.285 1383.8 L293.285 1380.36 Q295.615 1377.95 299.625 1373.9 Q303.656 1369.83 304.689 1368.65 Q306.653 1366.44 307.423 1364.93 Q308.213 1363.39 308.213 1361.91 Q308.213 1359.5 306.512 1357.98 Q304.83 1356.46 302.116 1356.46 Q300.192 1356.46 298.045 1357.13 Q295.919 1357.8 293.488 1359.15 L293.488 1355.02 Q295.959 1354.03 298.106 1353.52 Q300.253 1353.02 302.035 1353.02 Q306.734 1353.02 309.53 1355.37 Q312.325 1357.71 312.325 1361.64 Q312.325 1363.51 311.616 1365.19 Q310.927 1366.85 309.084 1369.12 Q308.578 1369.71 305.863 1372.52 Q303.149 1375.32 298.207 1380.36 Z" fill="#000000" fill-rule="nonzero" fill-opacity="1" /><path clip-path="url(#clip230)" d="M931.139 1369.08 L957.105 1369.08 L957.105 1372.52 L931.139 1372.52 L931.139 1369.08 Z" fill="#000000" fill-rule="nonzero" fill-opacity="1" /><path clip-path="url(#clip230)" d="M966.645 1380.36 L973.329 1380.36 L973.329 1357.29 L966.058 1358.75 L966.058 1355.02 L973.288 1353.56 L977.38 1353.56 L977.38 1380.36 L984.064 1380.36 L984.064 1383.8 L966.645 1383.8 L966.645 1380.36 Z" fill="#000000" fill-rule="nonzero" fill-opacity="1" /><path clip-path="url(#clip230)" d="M1629.02 1356.26 Q1625.86 1356.26 1624.26 1359.38 Q1622.68 1362.47 1622.68 1368.71 Q1622.68 1374.93 1624.26 1378.05 Q1625.86 1381.15 1629.02 1381.15 Q1632.2 1381.15 1633.78 1378.05 Q1635.38 1374.93 1635.38 1368.71 Q1635.38 1362.47 1633.78 1359.38 Q1632.2 1356.26 1629.02 1356.26 M1629.02 1353.02 Q1634.1 1353.02 1636.77 1357.05 Q1639.47 1361.06 1639.47 1368.71 Q1639.47 1376.35 1636.77 1380.38 Q1634.1 1384.39 1629.02 1384.39 Q1623.93 1384.39 1621.24 1380.38 Q1618.57 1376.35 1618.57 1368.71 Q1618.57 1361.06 1621.24 1357.05 Q1623.93 1353.02 1629.02 1353.02 Z" fill="#000000" fill-rule="nonzero" fill-opacity="1" /><path clip-path="url(#clip230)" d="M2292.02 1380.36 L2298.7 1380.36 L2298.7 1357.29 L2291.43 1358.75 L2291.43 1355.02 L2298.66 1353.56 L2302.75 1353.56 L2302.75 1380.36 L2309.43 1380.36 L2309.43 1383.8 L2292.02 1383.8 L2292.02 1380.36 Z" fill="#000000" fill-rule="nonzero" fill-opacity="1" /><path clip-path="url(#clip230)" d="M2967.17 1380.36 L2981.45 1380.36 L2981.45 1383.8 L2962.25 1383.8 L2962.25 1380.36 Q2964.58 1377.95 2968.59 1373.9 Q2972.62 1369.83 2973.65 1368.65 Q2975.61 1366.44 2976.38 1364.93 Q2977.17 1363.39 2977.17 1361.91 Q2977.17 1359.5 2975.47 1357.98 Q2973.79 1356.46 2971.08 1356.46 Q2969.15 1356.46 2967.01 1357.13 Q2964.88 1357.8 2962.45 1359.15 L2962.45 1355.02 Q2964.92 1354.03 2967.07 1353.52 Q2969.21 1353.02 2971 1353.02 Q2975.69 1353.02 2978.49 1355.37 Q2981.29 1357.71 2981.29 1361.64 Q2981.29 1363.51 2980.58 1365.19 Q2979.89 1366.85 2978.04 1369.12 Q2977.54 1369.71 2974.82 1372.52 Q2972.11 1375.32 2967.17 1380.36 Z" fill="#000000" fill-rule="nonzero" fill-opacity="1" /><path clip-path="url(#clip230)" d="M3646.98 1367.5 Q3649.92 1368.13 3651.56 1370.11 Q3653.22 1372.1 3653.22 1375.01 Q3653.22 1379.49 3650.14 1381.94 Q3647.06 1384.39 3641.39 1384.39 Q3639.48 1384.39 3637.46 1384.01 Q3635.45 1383.64 3633.31 1382.89 L3633.31 1378.94 Q3635.01 1379.93 3637.03 1380.44 Q3639.06 1380.95 3641.27 1380.95 Q3645.11 1380.95 3647.12 1379.43 Q3649.15 1377.91 3649.15 1375.01 Q3649.15 1372.34 3647.26 1370.84 Q3645.4 1369.32 3642.06 1369.32 L3638.53 1369.32 L3638.53 1365.96 L3642.22 1365.96 Q3645.24 1365.96 3646.84 1364.76 Q3648.44 1363.55 3648.44 1361.28 Q3648.44 1358.95 3646.78 1357.71 Q3645.14 1356.46 3642.06 1356.46 Q3640.38 1356.46 3638.45 1356.82 Q3636.53 1357.19 3634.22 1357.96 L3634.22 1354.31 Q3636.55 1353.66 3638.57 1353.34 Q3640.62 1353.02 3642.42 1353.02 Q3647.08 1353.02 3649.79 1355.14 Q3652.51 1357.25 3652.51 1360.85 Q3652.51 1363.37 3651.07 1365.11 Q3649.63 1366.83 3646.98 1367.5 Z" fill="#000000" fill-rule="nonzero" fill-opacity="1" /><path clip-path="url(#clip230)" d="M4317.31 1357.13 L4306.98 1373.27 L4317.31 1373.27 L4317.31 1357.13 M4316.24 1353.56 L4321.38 1353.56 L4321.38 1373.27 L4325.7 1373.27 L4325.7 1376.67 L4321.38 1376.67 L4321.38 1383.8 L4317.31 1383.8 L4317.31 1376.67 L4303.66 1376.67 L4303.66 1372.72 L4316.24 1353.56 Z" fill="#000000" fill-rule="nonzero" fill-opacity="1" /><polyline clip-path="url(#clip230)" style="stroke:#000000; stroke-linecap:round; stroke-linejoin:round; stroke-width:4; stroke-opacity:1; fill:none" points="161.917,1309.2 161.917,47.2441 "/>
<polyline clip-path="url(#clip230)" style="stroke:#000000; stroke-linecap:round; stroke-linejoin:round; stroke-width:4; stroke-opacity:1; fill:none" points="161.917,1228.66 180.815,1228.66 "/>
<polyline clip-path="url(#clip230)" style="stroke:#000000; stroke-linecap:round; stroke-linejoin:round; stroke-width:4; stroke-opacity:1; fill:none" points="161.917,1031.57 180.815,1031.57 "/>
<polyline clip-path="url(#clip230)" style="stroke:#000000; stroke-linecap:round; stroke-linejoin:round; stroke-width:4; stroke-opacity:1; fill:none" points="161.917,834.486 180.815,834.486 "/>
<polyline clip-path="url(#clip230)" style="stroke:#000000; stroke-linecap:round; stroke-linejoin:round; stroke-width:4; stroke-opacity:1; fill:none" points="161.917,637.399 180.815,637.399 "/>
<polyline clip-path="url(#clip230)" style="stroke:#000000; stroke-linecap:round; stroke-linejoin:round; stroke-width:4; stroke-opacity:1; fill:none" points="161.917,440.312 180.815,440.312 "/>
<polyline clip-path="url(#clip230)" style="stroke:#000000; stroke-linecap:round; stroke-linejoin:round; stroke-width:4; stroke-opacity:1; fill:none" points="161.917,243.225 180.815,243.225 "/>
<path clip-path="url(#clip230)" d="M40.3162 1229.06 L66.2825 1229.06 L66.2825 1232.5 L40.3162 1232.5 L40.3162 1229.06 Z" fill="#000000" fill-rule="nonzero" fill-opacity="1" /><path clip-path="url(#clip230)" d="M78.6378 1240.34 L92.9172 1240.34 L92.9172 1243.78 L73.7159 1243.78 L73.7159 1240.34 Q76.0452 1237.93 80.0556 1233.88 Q84.0862 1229.8 85.1192 1228.63 Q87.0839 1226.42 87.8536 1224.9 Q88.6435 1223.36 88.6435 1221.89 Q88.6435 1219.47 86.9421 1217.96 Q85.261 1216.44 82.5469 1216.44 Q80.6227 1216.44 78.4757 1217.1 Q76.349 1217.77 73.9184 1219.13 L73.9184 1215 Q76.3895 1214.01 78.5365 1213.5 Q80.6835 1212.99 82.4659 1212.99 Q87.1649 1212.99 89.96 1215.34 Q92.7552 1217.69 92.7552 1221.62 Q92.7552 1223.49 92.0462 1225.17 Q91.3576 1226.83 89.5144 1229.1 Q89.0081 1229.68 86.294 1232.5 Q83.5799 1235.29 78.6378 1240.34 Z" fill="#000000" fill-rule="nonzero" fill-opacity="1" /><path clip-path="url(#clip230)" d="M39.9921 1031.97 L65.9584 1031.97 L65.9584 1035.41 L39.9921 1035.41 L39.9921 1031.97 Z" fill="#000000" fill-rule="nonzero" fill-opacity="1" /><path clip-path="url(#clip230)" d="M75.4983 1043.25 L82.1823 1043.25 L82.1823 1020.18 L74.9109 1021.64 L74.9109 1017.91 L82.1418 1016.45 L86.2332 1016.45 L86.2332 1043.25 L92.9172 1043.25 L92.9172 1046.69 L75.4983 1046.69 L75.4983 1043.25 Z" fill="#000000" fill-rule="nonzero" fill-opacity="1" /><path clip-path="url(#clip230)" d="M82.4659 822.06 Q79.3062 822.06 77.706 825.179 Q76.1262 828.278 76.1262 834.516 Q76.1262 840.735 77.706 843.854 Q79.3062 846.953 82.4659 846.953 Q85.6458 846.953 87.2257 843.854 Q88.8258 840.735 88.8258 834.516 Q88.8258 828.278 87.2257 825.179 Q85.6458 822.06 82.4659 822.06 M82.4659 818.819 Q87.5497 818.819 90.2233 822.85 Q92.9172 826.86 92.9172 834.516 Q92.9172 842.152 90.2233 846.183 Q87.5497 850.193 82.4659 850.193 Q77.382 850.193 74.6881 846.183 Q72.0145 842.152 72.0145 834.516 Q72.0145 826.86 74.6881 822.85 Q77.382 818.819 82.4659 818.819 Z" fill="#000000" fill-rule="nonzero" fill-opacity="1" /><path clip-path="url(#clip230)" d="M75.4983 649.076 L82.1823 649.076 L82.1823 626.006 L74.9109 627.464 L74.9109 623.737 L82.1418 622.279 L86.2332 622.279 L86.2332 649.076 L92.9172 649.076 L92.9172 652.519 L75.4983 652.519 L75.4983 649.076 Z" fill="#000000" fill-rule="nonzero" fill-opacity="1" /><path clip-path="url(#clip230)" d="M78.6378 451.989 L92.9172 451.989 L92.9172 455.432 L73.7159 455.432 L73.7159 451.989 Q76.0452 449.578 80.0556 445.528 Q84.0862 441.456 85.1192 440.282 Q87.0839 438.074 87.8536 436.555 Q88.6435 435.015 88.6435 433.537 Q88.6435 431.127 86.9421 429.608 Q85.261 428.088 82.5469 428.088 Q80.6227 428.088 78.4757 428.757 Q76.349 429.425 73.9184 430.782 L73.9184 426.65 Q76.3895 425.658 78.5365 425.152 Q80.6835 424.645 82.4659 424.645 Q87.1649 424.645 89.96 426.995 Q92.7552 429.344 92.7552 433.274 Q92.7552 435.137 92.0462 436.818 Q91.3576 438.479 89.5144 440.748 Q89.0081 441.335 86.294 444.15 Q83.5799 446.945 78.6378 451.989 Z" fill="#000000" fill-rule="nonzero" fill-opacity="1" /><path clip-path="url(#clip230)" d="M86.6788 242.04 Q89.6157 242.668 91.2563 244.653 Q92.9172 246.638 92.9172 249.555 Q92.9172 254.031 89.8385 256.482 Q86.7598 258.932 81.0885 258.932 Q79.1846 258.932 77.1592 258.548 Q75.154 258.183 73.007 257.434 L73.007 253.484 Q74.7084 254.476 76.7338 254.983 Q78.7593 255.489 80.967 255.489 Q84.8154 255.489 86.8206 253.97 Q88.846 252.451 88.846 249.555 Q88.846 246.881 86.9624 245.382 Q85.0989 243.863 81.7569 243.863 L78.2327 243.863 L78.2327 240.501 L81.919 240.501 Q84.9369 240.501 86.537 239.306 Q88.1371 238.091 88.1371 235.822 Q88.1371 233.493 86.4763 232.257 Q84.8356 231.001 81.7569 231.001 Q80.0758 231.001 78.1516 231.366 Q76.2275 231.731 73.9184 232.5 L73.9184 228.854 Q76.2477 228.206 78.2732 227.882 Q80.3189 227.558 82.1215 227.558 Q86.7801 227.558 89.4942 229.685 Q92.2083 231.791 92.2083 235.397 Q92.2083 237.908 90.7702 239.65 Q89.3321 241.372 86.6788 242.04 Z" fill="#000000" fill-rule="nonzero" fill-opacity="1" /><circle clip-path="url(#clip232)" cx="1097.72" cy="875.57" r="14.4" fill="#ff0000" fill-rule="evenodd" fill-opacity="1" stroke="#000000" stroke-opacity="1" stroke-width="2.8"/>
<circle clip-path="url(#clip232)" cx="2850.05" cy="846.358" r="14.4" fill="#ff0000" fill-rule="evenodd" fill-opacity="1" stroke="#000000" stroke-opacity="1" stroke-width="2.8"/>
<circle clip-path="url(#clip232)" cx="1129.95" cy="752.185" r="14.4" fill="#ff0000" fill-rule="evenodd" fill-opacity="1" stroke="#000000" stroke-opacity="1" stroke-width="2.8"/>
<circle clip-path="url(#clip232)" cx="1506.21" cy="801.818" r="14.4" fill="#ff0000" fill-rule="evenodd" fill-opacity="1" stroke="#000000" stroke-opacity="1" stroke-width="2.8"/>
<circle clip-path="url(#clip232)" cx="1950.98" cy="577.215" r="14.4" fill="#ff0000" fill-rule="evenodd" fill-opacity="1" stroke="#000000" stroke-opacity="1" stroke-width="2.8"/>
<circle clip-path="url(#clip232)" cx="1171.89" cy="885.136" r="14.4" fill="#ff0000" fill-rule="evenodd" fill-opacity="1" stroke="#000000" stroke-opacity="1" stroke-width="2.8"/>
<circle clip-path="url(#clip232)" cx="1200.97" cy="496.692" r="14.4" fill="#ff0000" fill-rule="evenodd" fill-opacity="1" stroke="#000000" stroke-opacity="1" stroke-width="2.8"/>
<circle clip-path="url(#clip232)" cx="2150.91" cy="768.665" r="14.4" fill="#ff0000" fill-rule="evenodd" fill-opacity="1" stroke="#000000" stroke-opacity="1" stroke-width="2.8"/>
<circle clip-path="url(#clip232)" cx="2107.1" cy="879.622" r="14.4" fill="#ff0000" fill-rule="evenodd" fill-opacity="1" stroke="#000000" stroke-opacity="1" stroke-width="2.8"/>
<circle clip-path="url(#clip232)" cx="2188.91" cy="975.143" r="14.4" fill="#ff0000" fill-rule="evenodd" fill-opacity="1" stroke="#000000" stroke-opacity="1" stroke-width="2.8"/>
<circle clip-path="url(#clip232)" cx="1704.41" cy="827.86" r="14.4" fill="#ff0000" fill-rule="evenodd" fill-opacity="1" stroke="#000000" stroke-opacity="1" stroke-width="2.8"/>
<circle clip-path="url(#clip232)" cx="2311.07" cy="1184.58" r="14.4" fill="#ff0000" fill-rule="evenodd" fill-opacity="1" stroke="#000000" stroke-opacity="1" stroke-width="2.8"/>
<circle clip-path="url(#clip232)" cx="2096.6" cy="993.497" r="14.4" fill="#ff0000" fill-rule="evenodd" fill-opacity="1" stroke="#000000" stroke-opacity="1" stroke-width="2.8"/>
<circle clip-path="url(#clip232)" cx="2520.13" cy="838.612" r="14.4" fill="#ff0000" fill-rule="evenodd" fill-opacity="1" stroke="#000000" stroke-opacity="1" stroke-width="2.8"/>
<circle clip-path="url(#clip232)" cx="1803.28" cy="856.263" r="14.4" fill="#ff0000" fill-rule="evenodd" fill-opacity="1" stroke="#000000" stroke-opacity="1" stroke-width="2.8"/>
<circle clip-path="url(#clip232)" cx="2807.97" cy="628.626" r="14.4" fill="#ff0000" fill-rule="evenodd" fill-opacity="1" stroke="#000000" stroke-opacity="1" stroke-width="2.8"/>
<circle clip-path="url(#clip232)" cx="2912.78" cy="1145.56" r="14.4" fill="#ff0000" fill-rule="evenodd" fill-opacity="1" stroke="#000000" stroke-opacity="1" stroke-width="2.8"/>
<circle clip-path="url(#clip232)" cx="2507.92" cy="705.228" r="14.4" fill="#ff0000" fill-rule="evenodd" fill-opacity="1" stroke="#000000" stroke-opacity="1" stroke-width="2.8"/>
<circle clip-path="url(#clip232)" cx="2099.1" cy="542.773" r="14.4" fill="#ff0000" fill-rule="evenodd" fill-opacity="1" stroke="#000000" stroke-opacity="1" stroke-width="2.8"/>
<circle clip-path="url(#clip232)" cx="1589.69" cy="685.352" r="14.4" fill="#ff0000" fill-rule="evenodd" fill-opacity="1" stroke="#000000" stroke-opacity="1" stroke-width="2.8"/>
<circle clip-path="url(#clip232)" cx="606.578" cy="579.593" r="14.4" fill="#ff0000" fill-rule="evenodd" fill-opacity="1" stroke="#000000" stroke-opacity="1" stroke-width="2.8"/>
<circle clip-path="url(#clip232)" cx="2551.8" cy="923.227" r="14.4" fill="#ff0000" fill-rule="evenodd" fill-opacity="1" stroke="#000000" stroke-opacity="1" stroke-width="2.8"/>
<circle clip-path="url(#clip232)" cx="1399.75" cy="586.78" r="14.4" fill="#ff0000" fill-rule="evenodd" fill-opacity="1" stroke="#000000" stroke-opacity="1" stroke-width="2.8"/>
<circle clip-path="url(#clip232)" cx="1923.47" cy="1135.59" r="14.4" fill="#ff0000" fill-rule="evenodd" fill-opacity="1" stroke="#000000" stroke-opacity="1" stroke-width="2.8"/>
<circle clip-path="url(#clip232)" cx="1976.72" cy="1060.59" r="14.4" fill="#ff0000" fill-rule="evenodd" fill-opacity="1" stroke="#000000" stroke-opacity="1" stroke-width="2.8"/>
<circle clip-path="url(#clip232)" cx="2031.98" cy="661.824" r="14.4" fill="#ff0000" fill-rule="evenodd" fill-opacity="1" stroke="#000000" stroke-opacity="1" stroke-width="2.8"/>
<circle clip-path="url(#clip232)" cx="2830.19" cy="674.479" r="14.4" fill="#ff0000" fill-rule="evenodd" fill-opacity="1" stroke="#000000" stroke-opacity="1" stroke-width="2.8"/>
<circle clip-path="url(#clip232)" cx="1266.87" cy="816.722" r="14.4" fill="#ff0000" fill-rule="evenodd" fill-opacity="1" stroke="#000000" stroke-opacity="1" stroke-width="2.8"/>
<circle clip-path="url(#clip232)" cx="1181.25" cy="571.158" r="14.4" fill="#ff0000" fill-rule="evenodd" fill-opacity="1" stroke="#000000" stroke-opacity="1" stroke-width="2.8"/>
<circle clip-path="url(#clip232)" cx="2063.7" cy="1021.52" r="14.4" fill="#ff0000" fill-rule="evenodd" fill-opacity="1" stroke="#000000" stroke-opacity="1" stroke-width="2.8"/>
<circle clip-path="url(#clip232)" cx="594.211" cy="858.648" r="14.4" fill="#ff0000" fill-rule="evenodd" fill-opacity="1" stroke="#000000" stroke-opacity="1" stroke-width="2.8"/>
<circle clip-path="url(#clip232)" cx="1340.91" cy="758.193" r="14.4" fill="#ff0000" fill-rule="evenodd" fill-opacity="1" stroke="#000000" stroke-opacity="1" stroke-width="2.8"/>
<circle clip-path="url(#clip232)" cx="2334" cy="1273.49" r="14.4" fill="#ff0000" fill-rule="evenodd" fill-opacity="1" stroke="#000000" stroke-opacity="1" stroke-width="2.8"/>
<circle clip-path="url(#clip232)" cx="1790.72" cy="1175.39" r="14.4" fill="#ff0000" fill-rule="evenodd" fill-opacity="1" stroke="#000000" stroke-opacity="1" stroke-width="2.8"/>
<circle clip-path="url(#clip232)" cx="2077.52" cy="1266.4" r="14.4" fill="#ff0000" fill-rule="evenodd" fill-opacity="1" stroke="#000000" stroke-opacity="1" stroke-width="2.8"/>
<circle clip-path="url(#clip232)" cx="514.334" cy="941.789" r="14.4" fill="#ff0000" fill-rule="evenodd" fill-opacity="1" stroke="#000000" stroke-opacity="1" stroke-width="2.8"/>
<circle clip-path="url(#clip232)" cx="1984.75" cy="851.397" r="14.4" fill="#ff0000" fill-rule="evenodd" fill-opacity="1" stroke="#000000" stroke-opacity="1" stroke-width="2.8"/>
<circle clip-path="url(#clip232)" cx="1432.65" cy="565.629" r="14.4" fill="#ff0000" fill-rule="evenodd" fill-opacity="1" stroke="#000000" stroke-opacity="1" stroke-width="2.8"/>
<circle clip-path="url(#clip232)" cx="1946.86" cy="861.922" r="14.4" fill="#ff0000" fill-rule="evenodd" fill-opacity="1" stroke="#000000" stroke-opacity="1" stroke-width="2.8"/>
<circle clip-path="url(#clip232)" cx="1124.96" cy="1249.4" r="14.4" fill="#ff0000" fill-rule="evenodd" fill-opacity="1" stroke="#000000" stroke-opacity="1" stroke-width="2.8"/>
<circle clip-path="url(#clip232)" cx="2345.34" cy="412.448" r="14.4" fill="#ff0000" fill-rule="evenodd" fill-opacity="1" stroke="#000000" stroke-opacity="1" stroke-width="2.8"/>
<circle clip-path="url(#clip232)" cx="649.826" cy="992.41" r="14.4" fill="#ff0000" fill-rule="evenodd" fill-opacity="1" stroke="#000000" stroke-opacity="1" stroke-width="2.8"/>
<circle clip-path="url(#clip232)" cx="2022.99" cy="1050.8" r="14.4" fill="#ff0000" fill-rule="evenodd" fill-opacity="1" stroke="#000000" stroke-opacity="1" stroke-width="2.8"/>
<circle clip-path="url(#clip232)" cx="2044.13" cy="912.838" r="14.4" fill="#ff0000" fill-rule="evenodd" fill-opacity="1" stroke="#000000" stroke-opacity="1" stroke-width="2.8"/>
<circle clip-path="url(#clip232)" cx="1945.98" cy="913.415" r="14.4" fill="#ff0000" fill-rule="evenodd" fill-opacity="1" stroke="#000000" stroke-opacity="1" stroke-width="2.8"/>
<circle clip-path="url(#clip232)" cx="1602.85" cy="862.882" r="14.4" fill="#ff0000" fill-rule="evenodd" fill-opacity="1" stroke="#000000" stroke-opacity="1" stroke-width="2.8"/>
<circle clip-path="url(#clip232)" cx="1071.69" cy="744.611" r="14.4" fill="#ff0000" fill-rule="evenodd" fill-opacity="1" stroke="#000000" stroke-opacity="1" stroke-width="2.8"/>
<circle clip-path="url(#clip232)" cx="721.152" cy="981.061" r="14.4" fill="#ff0000" fill-rule="evenodd" fill-opacity="1" stroke="#000000" stroke-opacity="1" stroke-width="2.8"/>
<circle clip-path="url(#clip232)" cx="965.008" cy="707.704" r="14.4" fill="#ff0000" fill-rule="evenodd" fill-opacity="1" stroke="#000000" stroke-opacity="1" stroke-width="2.8"/>
<circle clip-path="url(#clip232)" cx="765.119" cy="617.755" r="14.4" fill="#ff0000" fill-rule="evenodd" fill-opacity="1" stroke="#000000" stroke-opacity="1" stroke-width="2.8"/>
<circle clip-path="url(#clip232)" cx="2773.86" cy="244.468" r="14.4" fill="#0000ff" fill-rule="evenodd" fill-opacity="1" stroke="#000000" stroke-opacity="1" stroke-width="2.8"/>
<circle clip-path="url(#clip232)" cx="3164.94" cy="368.129" r="14.4" fill="#0000ff" fill-rule="evenodd" fill-opacity="1" stroke="#000000" stroke-opacity="1" stroke-width="2.8"/>
<circle clip-path="url(#clip232)" cx="2507.33" cy="562.544" r="14.4" fill="#0000ff" fill-rule="evenodd" fill-opacity="1" stroke="#000000" stroke-opacity="1" stroke-width="2.8"/>
<circle clip-path="url(#clip232)" cx="3519.08" cy="570.329" r="14.4" fill="#0000ff" fill-rule="evenodd" fill-opacity="1" stroke="#000000" stroke-opacity="1" stroke-width="2.8"/>
<circle clip-path="url(#clip232)" cx="3318.21" cy="376.651" r="14.4" fill="#0000ff" fill-rule="evenodd" fill-opacity="1" stroke="#000000" stroke-opacity="1" stroke-width="2.8"/>
<circle clip-path="url(#clip232)" cx="2717.85" cy="752.871" r="14.4" fill="#0000ff" fill-rule="evenodd" fill-opacity="1" stroke="#000000" stroke-opacity="1" stroke-width="2.8"/>
<circle clip-path="url(#clip232)" cx="3607.16" cy="303.413" r="14.4" fill="#0000ff" fill-rule="evenodd" fill-opacity="1" stroke="#000000" stroke-opacity="1" stroke-width="2.8"/>
<circle clip-path="url(#clip232)" cx="3583.28" cy="543.528" r="14.4" fill="#0000ff" fill-rule="evenodd" fill-opacity="1" stroke="#000000" stroke-opacity="1" stroke-width="2.8"/>
<circle clip-path="url(#clip232)" cx="3074.86" cy="388.194" r="14.4" fill="#0000ff" fill-rule="evenodd" fill-opacity="1" stroke="#000000" stroke-opacity="1" stroke-width="2.8"/>
<circle clip-path="url(#clip232)" cx="3796.32" cy="521.635" r="14.4" fill="#0000ff" fill-rule="evenodd" fill-opacity="1" stroke="#000000" stroke-opacity="1" stroke-width="2.8"/>
<circle clip-path="url(#clip232)" cx="2755.89" cy="306.902" r="14.4" fill="#0000ff" fill-rule="evenodd" fill-opacity="1" stroke="#000000" stroke-opacity="1" stroke-width="2.8"/>
<circle clip-path="url(#clip232)" cx="3610.31" cy="482.18" r="14.4" fill="#0000ff" fill-rule="evenodd" fill-opacity="1" stroke="#000000" stroke-opacity="1" stroke-width="2.8"/>
<circle clip-path="url(#clip232)" cx="2343.66" cy="664.844" r="14.4" fill="#0000ff" fill-rule="evenodd" fill-opacity="1" stroke="#000000" stroke-opacity="1" stroke-width="2.8"/>
<circle clip-path="url(#clip232)" cx="2449.55" cy="253.765" r="14.4" fill="#0000ff" fill-rule="evenodd" fill-opacity="1" stroke="#000000" stroke-opacity="1" stroke-width="2.8"/>
<circle clip-path="url(#clip232)" cx="3121.87" cy="438.665" r="14.4" fill="#0000ff" fill-rule="evenodd" fill-opacity="1" stroke="#000000" stroke-opacity="1" stroke-width="2.8"/>
<circle clip-path="url(#clip232)" cx="2823.76" cy="296.487" r="14.4" fill="#0000ff" fill-rule="evenodd" fill-opacity="1" stroke="#000000" stroke-opacity="1" stroke-width="2.8"/>
<circle clip-path="url(#clip232)" cx="3467.17" cy="257.997" r="14.4" fill="#0000ff" fill-rule="evenodd" fill-opacity="1" stroke="#000000" stroke-opacity="1" stroke-width="2.8"/>
<circle clip-path="url(#clip232)" cx="2970.06" cy="468.594" r="14.4" fill="#0000ff" fill-rule="evenodd" fill-opacity="1" stroke="#000000" stroke-opacity="1" stroke-width="2.8"/>
<circle clip-path="url(#clip232)" cx="3861.36" cy="220.933" r="14.4" fill="#0000ff" fill-rule="evenodd" fill-opacity="1" stroke="#000000" stroke-opacity="1" stroke-width="2.8"/>
<circle clip-path="url(#clip232)" cx="2679.01" cy="600.765" r="14.4" fill="#0000ff" fill-rule="evenodd" fill-opacity="1" stroke="#000000" stroke-opacity="1" stroke-width="2.8"/>
<circle clip-path="url(#clip232)" cx="4428.49" cy="842.633" r="14.4" fill="#0000ff" fill-rule="evenodd" fill-opacity="1" stroke="#000000" stroke-opacity="1" stroke-width="2.8"/>
<circle clip-path="url(#clip232)" cx="3155.97" cy="781.326" r="14.4" fill="#0000ff" fill-rule="evenodd" fill-opacity="1" stroke="#000000" stroke-opacity="1" stroke-width="2.8"/>
<circle clip-path="url(#clip232)" cx="3449.41" cy="531.414" r="14.4" fill="#0000ff" fill-rule="evenodd" fill-opacity="1" stroke="#000000" stroke-opacity="1" stroke-width="2.8"/>
<circle clip-path="url(#clip232)" cx="2934.92" cy="826.131" r="14.4" fill="#0000ff" fill-rule="evenodd" fill-opacity="1" stroke="#000000" stroke-opacity="1" stroke-width="2.8"/>
<circle clip-path="url(#clip232)" cx="2094.7" cy="733.513" r="14.4" fill="#0000ff" fill-rule="evenodd" fill-opacity="1" stroke="#000000" stroke-opacity="1" stroke-width="2.8"/>
<circle clip-path="url(#clip232)" cx="2613.06" cy="431.444" r="14.4" fill="#0000ff" fill-rule="evenodd" fill-opacity="1" stroke="#000000" stroke-opacity="1" stroke-width="2.8"/>
<circle clip-path="url(#clip232)" cx="2823.91" cy="250.11" r="14.4" fill="#0000ff" fill-rule="evenodd" fill-opacity="1" stroke="#000000" stroke-opacity="1" stroke-width="2.8"/>
<circle clip-path="url(#clip232)" cx="2936.23" cy="452.996" r="14.4" fill="#0000ff" fill-rule="evenodd" fill-opacity="1" stroke="#000000" stroke-opacity="1" stroke-width="2.8"/>
<circle clip-path="url(#clip232)" cx="3580.51" cy="388.551" r="14.4" fill="#0000ff" fill-rule="evenodd" fill-opacity="1" stroke="#000000" stroke-opacity="1" stroke-width="2.8"/>
<circle clip-path="url(#clip232)" cx="3233.51" cy="637.239" r="14.4" fill="#0000ff" fill-rule="evenodd" fill-opacity="1" stroke="#000000" stroke-opacity="1" stroke-width="2.8"/>
<circle clip-path="url(#clip232)" cx="3057.33" cy="201.456" r="14.4" fill="#0000ff" fill-rule="evenodd" fill-opacity="1" stroke="#000000" stroke-opacity="1" stroke-width="2.8"/>
<circle clip-path="url(#clip232)" cx="3650.1" cy="173.665" r="14.4" fill="#0000ff" fill-rule="evenodd" fill-opacity="1" stroke="#000000" stroke-opacity="1" stroke-width="2.8"/>
<circle clip-path="url(#clip232)" cx="2675.01" cy="390.503" r="14.4" fill="#0000ff" fill-rule="evenodd" fill-opacity="1" stroke="#000000" stroke-opacity="1" stroke-width="2.8"/>
<circle clip-path="url(#clip232)" cx="3093.02" cy="693.026" r="14.4" fill="#0000ff" fill-rule="evenodd" fill-opacity="1" stroke="#000000" stroke-opacity="1" stroke-width="2.8"/>
<circle clip-path="url(#clip232)" cx="1793.91" cy="401.187" r="14.4" fill="#0000ff" fill-rule="evenodd" fill-opacity="1" stroke="#000000" stroke-opacity="1" stroke-width="2.8"/>
<circle clip-path="url(#clip232)" cx="1386.78" cy="549.768" r="14.4" fill="#0000ff" fill-rule="evenodd" fill-opacity="1" stroke="#000000" stroke-opacity="1" stroke-width="2.8"/>
<circle clip-path="url(#clip232)" cx="3179.15" cy="406.878" r="14.4" fill="#0000ff" fill-rule="evenodd" fill-opacity="1" stroke="#000000" stroke-opacity="1" stroke-width="2.8"/>
<circle clip-path="url(#clip232)" cx="2181.29" cy="100.73" r="14.4" fill="#0000ff" fill-rule="evenodd" fill-opacity="1" stroke="#000000" stroke-opacity="1" stroke-width="2.8"/>
<circle clip-path="url(#clip232)" cx="1748.79" cy="601.919" r="14.4" fill="#0000ff" fill-rule="evenodd" fill-opacity="1" stroke="#000000" stroke-opacity="1" stroke-width="2.8"/>
<circle clip-path="url(#clip232)" cx="3359.38" cy="202.74" r="14.4" fill="#0000ff" fill-rule="evenodd" fill-opacity="1" stroke="#000000" stroke-opacity="1" stroke-width="2.8"/>
<circle clip-path="url(#clip232)" cx="3174.99" cy="425.31" r="14.4" fill="#0000ff" fill-rule="evenodd" fill-opacity="1" stroke="#000000" stroke-opacity="1" stroke-width="2.8"/>
<circle clip-path="url(#clip232)" cx="2240.64" cy="364.062" r="14.4" fill="#0000ff" fill-rule="evenodd" fill-opacity="1" stroke="#000000" stroke-opacity="1" stroke-width="2.8"/>
<circle clip-path="url(#clip232)" cx="3836.84" cy="438.302" r="14.4" fill="#0000ff" fill-rule="evenodd" fill-opacity="1" stroke="#000000" stroke-opacity="1" stroke-width="2.8"/>
<circle clip-path="url(#clip232)" cx="3811.1" cy="469.514" r="14.4" fill="#0000ff" fill-rule="evenodd" fill-opacity="1" stroke="#000000" stroke-opacity="1" stroke-width="2.8"/>
<circle clip-path="url(#clip232)" cx="3333.44" cy="471.605" r="14.4" fill="#0000ff" fill-rule="evenodd" fill-opacity="1" stroke="#000000" stroke-opacity="1" stroke-width="2.8"/>
<circle clip-path="url(#clip232)" cx="3283.94" cy="282.567" r="14.4" fill="#0000ff" fill-rule="evenodd" fill-opacity="1" stroke="#000000" stroke-opacity="1" stroke-width="2.8"/>
<circle clip-path="url(#clip232)" cx="3760.41" cy="516.697" r="14.4" fill="#0000ff" fill-rule="evenodd" fill-opacity="1" stroke="#000000" stroke-opacity="1" stroke-width="2.8"/>
<circle clip-path="url(#clip232)" cx="3537.65" cy="379.69" r="14.4" fill="#0000ff" fill-rule="evenodd" fill-opacity="1" stroke="#000000" stroke-opacity="1" stroke-width="2.8"/>
<circle clip-path="url(#clip232)" cx="3792.37" cy="855.893" r="14.4" fill="#0000ff" fill-rule="evenodd" fill-opacity="1" stroke="#000000" stroke-opacity="1" stroke-width="2.8"/>
<circle clip-path="url(#clip232)" cx="2133.69" cy="504.632" r="14.4" fill="#0000ff" fill-rule="evenodd" fill-opacity="1" stroke="#000000" stroke-opacity="1" stroke-width="2.8"/>
<polyline clip-path="url(#clip232)" style="stroke:#e26f46; stroke-linecap:round; stroke-linejoin:round; stroke-width:12; stroke-opacity:1; fill:none" points="286.186,82.9599 4314.68,1221.72 "/>
<path clip-path="url(#clip230)" d="M308.278 1267.14 L1005.83 1267.14 L1005.83 1163.46 L308.278 1163.46  Z" fill="#ffffff" fill-rule="evenodd" fill-opacity="1"/>
<polyline clip-path="url(#clip230)" style="stroke:#000000; stroke-linecap:round; stroke-linejoin:round; stroke-width:4; stroke-opacity:1; fill:none" points="308.278,1267.14 1005.83,1267.14 1005.83,1163.46 308.278,1163.46 308.278,1267.14 "/>
<polyline clip-path="url(#clip230)" style="stroke:#e26f46; stroke-linecap:round; stroke-linejoin:round; stroke-width:12; stroke-opacity:1; fill:none" points="357.066,1215.3 649.788,1215.3 "/>
<path clip-path="url(#clip230)" d="M698.575 1196.56 L702.834 1196.56 L702.834 1232.58 L698.575 1232.58 L698.575 1196.56 Z" fill="#000000" fill-rule="nonzero" fill-opacity="1" /><path clip-path="url(#clip230)" d="M721.793 1209.64 Q718.367 1209.64 716.376 1212.32 Q714.385 1214.98 714.385 1219.64 Q714.385 1224.29 716.353 1226.98 Q718.344 1229.64 721.793 1229.64 Q725.195 1229.64 727.186 1226.95 Q729.177 1224.27 729.177 1219.64 Q729.177 1215.03 727.186 1212.35 Q725.195 1209.64 721.793 1209.64 M721.793 1206.03 Q727.348 1206.03 730.52 1209.64 Q733.691 1213.25 733.691 1219.64 Q733.691 1226 730.52 1229.64 Q727.348 1233.25 721.793 1233.25 Q716.214 1233.25 713.043 1229.64 Q709.895 1226 709.895 1219.64 Q709.895 1213.25 713.043 1209.64 Q716.214 1206.03 721.793 1206.03 Z" fill="#000000" fill-rule="nonzero" fill-opacity="1" /><path clip-path="url(#clip230)" d="M757.279 1207.42 L757.279 1211.44 Q755.473 1210.52 753.529 1210.05 Q751.584 1209.59 749.501 1209.59 Q746.33 1209.59 744.732 1210.56 Q743.158 1211.54 743.158 1213.48 Q743.158 1214.96 744.293 1215.82 Q745.427 1216.65 748.853 1217.42 L750.311 1217.74 Q754.848 1218.71 756.746 1220.49 Q758.668 1222.25 758.668 1225.42 Q758.668 1229.04 755.797 1231.14 Q752.95 1233.25 747.95 1233.25 Q745.867 1233.25 743.598 1232.83 Q741.353 1232.44 738.853 1231.63 L738.853 1227.23 Q741.214 1228.46 743.506 1229.08 Q745.797 1229.68 748.043 1229.68 Q751.052 1229.68 752.672 1228.67 Q754.293 1227.62 754.293 1225.75 Q754.293 1224.01 753.112 1223.09 Q751.955 1222.16 747.996 1221.3 L746.515 1220.96 Q742.557 1220.12 740.797 1218.41 Q739.038 1216.67 739.038 1213.67 Q739.038 1210.01 741.631 1208.02 Q744.223 1206.03 748.992 1206.03 Q751.353 1206.03 753.436 1206.37 Q755.519 1206.72 757.279 1207.42 Z" fill="#000000" fill-rule="nonzero" fill-opacity="1" /><path clip-path="url(#clip230)" d="M781.978 1207.42 L781.978 1211.44 Q780.172 1210.52 778.228 1210.05 Q776.283 1209.59 774.2 1209.59 Q771.029 1209.59 769.431 1210.56 Q767.857 1211.54 767.857 1213.48 Q767.857 1214.96 768.992 1215.82 Q770.126 1216.65 773.552 1217.42 L775.01 1217.74 Q779.547 1218.71 781.445 1220.49 Q783.366 1222.25 783.366 1225.42 Q783.366 1229.04 780.496 1231.14 Q777.649 1233.25 772.649 1233.25 Q770.566 1233.25 768.297 1232.83 Q766.052 1232.44 763.552 1231.63 L763.552 1227.23 Q765.913 1228.46 768.205 1229.08 Q770.496 1229.68 772.742 1229.68 Q775.751 1229.68 777.371 1228.67 Q778.991 1227.62 778.991 1225.75 Q778.991 1224.01 777.811 1223.09 Q776.654 1222.16 772.695 1221.3 L771.214 1220.96 Q767.255 1220.12 765.496 1218.41 Q763.737 1216.67 763.737 1213.67 Q763.737 1210.01 766.33 1208.02 Q768.922 1206.03 773.691 1206.03 Q776.052 1206.03 778.135 1206.37 Q780.218 1206.72 781.978 1207.42 Z" fill="#000000" fill-rule="nonzero" fill-opacity="1" /><path clip-path="url(#clip230)" d="M805.774 1211.05 L835.45 1211.05 L835.45 1214.94 L805.774 1214.94 L805.774 1211.05 M805.774 1220.49 L835.45 1220.49 L835.45 1224.43 L805.774 1224.43 L805.774 1220.49 Z" fill="#000000" fill-rule="nonzero" fill-opacity="1" /><path clip-path="url(#clip230)" d="M864.639 1228.64 L880.959 1228.64 L880.959 1232.58 L859.014 1232.58 L859.014 1228.64 Q861.676 1225.89 866.26 1221.26 Q870.866 1216.61 872.047 1215.26 Q874.292 1212.74 875.172 1211 Q876.074 1209.24 876.074 1207.55 Q876.074 1204.8 874.13 1203.06 Q872.209 1201.33 869.107 1201.33 Q866.908 1201.33 864.454 1202.09 Q862.023 1202.86 859.246 1204.41 L859.246 1199.68 Q862.07 1198.55 864.523 1197.97 Q866.977 1197.39 869.014 1197.39 Q874.384 1197.39 877.579 1200.08 Q880.773 1202.76 880.773 1207.25 Q880.773 1209.38 879.963 1211.3 Q879.176 1213.2 877.07 1215.8 Q876.491 1216.47 873.389 1219.68 Q870.287 1222.88 864.639 1228.64 Z" fill="#000000" fill-rule="nonzero" fill-opacity="1" /><path clip-path="url(#clip230)" d="M900.773 1201.1 Q897.162 1201.1 895.333 1204.66 Q893.528 1208.2 893.528 1215.33 Q893.528 1222.44 895.333 1226 Q897.162 1229.54 900.773 1229.54 Q904.407 1229.54 906.213 1226 Q908.042 1222.44 908.042 1215.33 Q908.042 1208.2 906.213 1204.66 Q904.407 1201.1 900.773 1201.1 M900.773 1197.39 Q906.583 1197.39 909.639 1202 Q912.718 1206.58 912.718 1215.33 Q912.718 1224.06 909.639 1228.67 Q906.583 1233.25 900.773 1233.25 Q894.963 1233.25 891.884 1228.67 Q888.829 1224.06 888.829 1215.33 Q888.829 1206.58 891.884 1202 Q894.963 1197.39 900.773 1197.39 Z" fill="#000000" fill-rule="nonzero" fill-opacity="1" /><path clip-path="url(#clip230)" d="M920.935 1226.7 L925.819 1226.7 L925.819 1232.58 L920.935 1232.58 L920.935 1226.7 Z" fill="#000000" fill-rule="nonzero" fill-opacity="1" /><path clip-path="url(#clip230)" d="M934.824 1198.02 L957.046 1198.02 L957.046 1200.01 L944.5 1232.58 L939.616 1232.58 L951.421 1201.95 L934.824 1201.95 L934.824 1198.02 Z" fill="#000000" fill-rule="nonzero" fill-opacity="1" /></svg>
