<?xml version="1.0" encoding="utf-8"?>
<svg xmlns="http://www.w3.org/2000/svg" xmlns:xlink="http://www.w3.org/1999/xlink" width="600" height="400" viewBox="0 0 2400 1600">
<defs>
  <clipPath id="clip260">
    <rect x="0" y="0" width="2400" height="1600"/>
  </clipPath>
</defs>
<path clip-path="url(#clip260)" d="
M0 1600 L2400 1600 L2400 0 L0 0  Z
  " fill="#ffffff" fill-rule="evenodd" fill-opacity="1"/>
<defs>
  <clipPath id="clip261">
    <rect x="480" y="0" width="1681" height="1600"/>
  </clipPath>
</defs>
<path clip-path="url(#clip260)" d="
M194.422 1423.18 L2352.76 1423.18 L2352.76 47.2441 L194.422 47.2441  Z
  " fill="#ffffff" fill-rule="evenodd" fill-opacity="1"/>
<defs>
  <clipPath id="clip262">
    <rect x="194" y="47" width="2159" height="1377"/>
  </clipPath>
</defs>
<polyline clip-path="url(#clip262)" style="stroke:#000000; stroke-width:2; stroke-opacity:0.1; fill:none" points="
  523.081,1423.18 523.081,47.2441 
  "/>
<polyline clip-path="url(#clip262)" style="stroke:#000000; stroke-width:2; stroke-opacity:0.1; fill:none" points="
  1112.61,1423.18 1112.61,47.2441 
  "/>
<polyline clip-path="url(#clip262)" style="stroke:#000000; stroke-width:2; stroke-opacity:0.1; fill:none" points="
  1702.14,1423.18 1702.14,47.2441 
  "/>
<polyline clip-path="url(#clip262)" style="stroke:#000000; stroke-width:2; stroke-opacity:0.1; fill:none" points="
  2291.67,1423.18 2291.67,47.2441 
  "/>
<polyline clip-path="url(#clip260)" style="stroke:#000000; stroke-width:4; stroke-opacity:1; fill:none" points="
  194.422,1423.18 2352.76,1423.18 
  "/>
<polyline clip-path="url(#clip260)" style="stroke:#000000; stroke-width:4; stroke-opacity:1; fill:none" points="
  523.081,1423.18 523.081,1406.67 
  "/>
<polyline clip-path="url(#clip260)" style="stroke:#000000; stroke-width:4; stroke-opacity:1; fill:none" points="
  1112.61,1423.18 1112.61,1406.67 
  "/>
<polyline clip-path="url(#clip260)" style="stroke:#000000; stroke-width:4; stroke-opacity:1; fill:none" points="
  1702.14,1423.18 1702.14,1406.67 
  "/>
<polyline clip-path="url(#clip260)" style="stroke:#000000; stroke-width:4; stroke-opacity:1; fill:none" points="
  2291.67,1423.18 2291.67,1406.67 
  "/>
<path clip-path="url(#clip260)" d="M 0 0 M492.144 1467.02 L521.82 1467.02 L521.82 1470.96 L492.144 1470.96 L492.144 1467.02 Z" fill="#000000" fill-rule="evenodd" fill-opacity="1" /><path clip-path="url(#clip260)" d="M 0 0 M542.491 1464.71 Q539.343 1464.71 537.491 1466.86 Q535.662 1469.01 535.662 1472.76 Q535.662 1476.49 537.491 1478.67 Q539.343 1480.82 542.491 1480.82 Q545.639 1480.82 547.468 1478.67 Q549.32 1476.49 549.32 1472.76 Q549.32 1469.01 547.468 1466.86 Q545.639 1464.71 542.491 1464.71 M551.773 1450.06 L551.773 1454.31 Q550.014 1453.48 548.209 1453.04 Q546.426 1452.6 544.667 1452.6 Q540.037 1452.6 537.584 1455.73 Q535.153 1458.85 534.806 1465.17 Q536.172 1463.16 538.232 1462.09 Q540.292 1461 542.769 1461 Q547.977 1461 550.986 1464.18 Q554.019 1467.32 554.019 1472.76 Q554.019 1478.09 550.871 1481.31 Q547.723 1484.52 542.491 1484.52 Q536.496 1484.52 533.324 1479.94 Q530.153 1475.33 530.153 1466.61 Q530.153 1458.41 534.042 1453.55 Q537.931 1448.67 544.482 1448.67 Q546.241 1448.67 548.023 1449.01 Q549.829 1449.36 551.773 1450.06 Z" fill="#000000" fill-rule="evenodd" fill-opacity="1" /><path clip-path="url(#clip260)" d="M 0 0 M1081.51 1467.02 L1111.19 1467.02 L1111.19 1470.96 L1081.51 1470.96 L1081.51 1467.02 Z" fill="#000000" fill-rule="evenodd" fill-opacity="1" /><path clip-path="url(#clip260)" d="M 0 0 M1134.13 1453.37 L1122.32 1471.81 L1134.13 1471.81 L1134.13 1453.37 M1132.9 1449.29 L1138.78 1449.29 L1138.78 1471.81 L1143.71 1471.81 L1143.71 1475.7 L1138.78 1475.7 L1138.78 1483.85 L1134.13 1483.85 L1134.13 1475.7 L1118.53 1475.7 L1118.53 1471.19 L1132.9 1449.29 Z" fill="#000000" fill-rule="evenodd" fill-opacity="1" /><path clip-path="url(#clip260)" d="M 0 0 M1672.08 1467.02 L1701.76 1467.02 L1701.76 1470.96 L1672.08 1470.96 L1672.08 1467.02 Z" fill="#000000" fill-rule="evenodd" fill-opacity="1" /><path clip-path="url(#clip260)" d="M 0 0 M1715.88 1479.92 L1732.2 1479.92 L1732.2 1483.85 L1710.25 1483.85 L1710.25 1479.92 Q1712.92 1477.16 1717.5 1472.53 Q1722.11 1467.88 1723.29 1466.54 Q1725.53 1464.01 1726.41 1462.28 Q1727.31 1460.52 1727.31 1458.83 Q1727.31 1456.07 1725.37 1454.34 Q1723.45 1452.6 1720.35 1452.6 Q1718.15 1452.6 1715.69 1453.37 Q1713.26 1454.13 1710.49 1455.68 L1710.49 1450.96 Q1713.31 1449.82 1715.76 1449.25 Q1718.22 1448.67 1720.25 1448.67 Q1725.62 1448.67 1728.82 1451.35 Q1732.01 1454.04 1732.01 1458.53 Q1732.01 1460.66 1731.2 1462.58 Q1730.42 1464.48 1728.31 1467.07 Q1727.73 1467.74 1724.63 1470.96 Q1721.53 1474.15 1715.88 1479.92 Z" fill="#000000" fill-rule="evenodd" fill-opacity="1" /><path clip-path="url(#clip260)" d="M 0 0 M2291.67 1452.37 Q2288.06 1452.37 2286.23 1455.94 Q2284.43 1459.48 2284.43 1466.61 Q2284.43 1473.71 2286.23 1477.28 Q2288.06 1480.82 2291.67 1480.82 Q2295.31 1480.82 2297.11 1477.28 Q2298.94 1473.71 2298.94 1466.61 Q2298.94 1459.48 2297.11 1455.94 Q2295.31 1452.37 2291.67 1452.37 M2291.67 1448.67 Q2297.48 1448.67 2300.54 1453.27 Q2303.62 1457.86 2303.62 1466.61 Q2303.62 1475.33 2300.54 1479.94 Q2297.48 1484.52 2291.67 1484.52 Q2285.86 1484.52 2282.78 1479.94 Q2279.73 1475.33 2279.73 1466.61 Q2279.73 1457.86 2282.78 1453.27 Q2285.86 1448.67 2291.67 1448.67 Z" fill="#000000" fill-rule="evenodd" fill-opacity="1" /><path clip-path="url(#clip260)" d="M 0 0 M1182.86 1518.52 L1188.72 1518.52 L1188.72 1568.04 L1182.86 1568.04 L1182.86 1518.52 Z" fill="#000000" fill-rule="evenodd" fill-opacity="1" /><path clip-path="url(#clip260)" d="M 0 0 M1214.79 1536.5 Q1210.08 1536.5 1207.34 1540.19 Q1204.6 1543.85 1204.6 1550.25 Q1204.6 1556.65 1207.31 1560.34 Q1210.04 1564 1214.79 1564 Q1219.46 1564 1222.2 1560.31 Q1224.94 1556.62 1224.94 1550.25 Q1224.94 1543.92 1222.2 1540.23 Q1219.46 1536.5 1214.79 1536.5 M1214.79 1531.54 Q1222.42 1531.54 1226.79 1536.5 Q1231.15 1541.47 1231.15 1550.25 Q1231.15 1559 1226.79 1564 Q1222.42 1568.97 1214.79 1568.97 Q1207.12 1568.97 1202.75 1564 Q1198.43 1559 1198.43 1550.25 Q1198.43 1541.47 1202.75 1536.5 Q1207.12 1531.54 1214.79 1531.54 Z" fill="#000000" fill-rule="evenodd" fill-opacity="1" /><path clip-path="url(#clip260)" d="M 0 0 M1264.31 1549.81 Q1264.31 1543.44 1261.67 1539.94 Q1259.06 1536.44 1254.32 1536.44 Q1249.61 1536.44 1246.96 1539.94 Q1244.35 1543.44 1244.35 1549.81 Q1244.35 1556.14 1246.96 1559.64 Q1249.61 1563.14 1254.32 1563.14 Q1259.06 1563.14 1261.67 1559.64 Q1264.31 1556.14 1264.31 1549.81 M1270.17 1563.62 Q1270.17 1572.72 1266.13 1577.15 Q1262.08 1581.6 1253.74 1581.6 Q1250.66 1581.6 1247.92 1581.13 Q1245.18 1580.68 1242.6 1579.72 L1242.6 1574.03 Q1245.18 1575.43 1247.7 1576.1 Q1250.21 1576.76 1252.82 1576.76 Q1258.58 1576.76 1261.45 1573.74 Q1264.31 1570.75 1264.31 1564.67 L1264.31 1561.77 Q1262.5 1564.92 1259.66 1566.48 Q1256.83 1568.04 1252.88 1568.04 Q1246.33 1568.04 1242.32 1563.05 Q1238.31 1558.05 1238.31 1549.81 Q1238.31 1541.53 1242.32 1536.53 Q1246.33 1531.54 1252.88 1531.54 Q1256.83 1531.54 1259.66 1533.1 Q1262.5 1534.66 1264.31 1537.81 L1264.31 1532.4 L1270.17 1532.4 L1270.17 1563.62 Z" fill="#000000" fill-rule="evenodd" fill-opacity="1" /><path clip-path="url(#clip260)" d="M 0 0 M1296.3 1518.58 Q1292.03 1525.9 1289.96 1533.06 Q1287.9 1540.23 1287.9 1547.58 Q1287.9 1554.93 1289.96 1562.16 Q1292.07 1569.35 1296.3 1576.64 L1291.21 1576.64 Q1286.43 1569.16 1284.04 1561.93 Q1281.69 1554.71 1281.69 1547.58 Q1281.69 1540.48 1284.04 1533.29 Q1286.4 1526.09 1291.21 1518.58 L1296.3 1518.58 Z" fill="#000000" fill-rule="evenodd" fill-opacity="1" /><path clip-path="url(#clip260)" d="M 0 0 M1328.45 1551.46 L1327.05 1544.11 Q1325.61 1536.57 1319.95 1536.57 Q1315.68 1536.57 1313.74 1540.07 Q1311.29 1544.46 1311.29 1550.25 Q1311.29 1557.25 1313.68 1560.6 Q1316.1 1564 1319.95 1564 Q1324.21 1564 1326.5 1557.22 L1328.45 1551.46 M1331.72 1541.72 L1334.87 1532.4 L1340.09 1532.4 L1333.57 1551.72 L1334.84 1558.69 Q1335.13 1560.25 1336.24 1561.55 Q1337.55 1563.08 1338.57 1563.08 L1341.37 1563.08 L1341.37 1568.04 L1337.87 1568.04 Q1334.87 1568.04 1332.2 1565.37 Q1330.9 1564.03 1330.36 1561.23 Q1328.89 1564.77 1325.9 1567.53 Q1324.5 1568.84 1319.95 1568.84 Q1312.47 1568.84 1308.84 1564 Q1305.12 1559 1305.12 1550.25 Q1305.12 1540.89 1309.16 1536.5 Q1313.65 1531.6 1319.95 1531.6 Q1329.85 1531.6 1331.72 1541.72 Z" fill="#000000" fill-rule="evenodd" fill-opacity="1" /><path clip-path="url(#clip260)" d="M 0 0 M1349.71 1518.58 L1354.8 1518.58 Q1359.57 1526.09 1361.93 1533.29 Q1364.32 1540.48 1364.32 1547.58 Q1364.32 1554.71 1361.93 1561.93 Q1359.57 1569.16 1354.8 1576.64 L1349.71 1576.64 Q1353.94 1569.35 1356.01 1562.16 Q1358.11 1554.93 1358.11 1547.58 Q1358.11 1540.23 1356.01 1533.06 Q1353.94 1525.9 1349.71 1518.58 Z" fill="#000000" fill-rule="evenodd" fill-opacity="1" /><polyline clip-path="url(#clip262)" style="stroke:#000000; stroke-width:2; stroke-opacity:0.1; fill:none" points="
  194.422,1362.11 2352.76,1362.11 
  "/>
<polyline clip-path="url(#clip262)" style="stroke:#000000; stroke-width:2; stroke-opacity:0.1; fill:none" points="
  194.422,1045.23 2352.76,1045.23 
  "/>
<polyline clip-path="url(#clip262)" style="stroke:#000000; stroke-width:2; stroke-opacity:0.1; fill:none" points="
  194.422,728.355 2352.76,728.355 
  "/>
<polyline clip-path="url(#clip262)" style="stroke:#000000; stroke-width:2; stroke-opacity:0.1; fill:none" points="
  194.422,411.48 2352.76,411.48 
  "/>
<polyline clip-path="url(#clip262)" style="stroke:#000000; stroke-width:2; stroke-opacity:0.1; fill:none" points="
  194.422,94.6038 2352.76,94.6038 
  "/>
<polyline clip-path="url(#clip260)" style="stroke:#000000; stroke-width:4; stroke-opacity:1; fill:none" points="
  194.422,1423.18 194.422,47.2441 
  "/>
<polyline clip-path="url(#clip260)" style="stroke:#000000; stroke-width:4; stroke-opacity:1; fill:none" points="
  194.422,1362.11 220.322,1362.11 
  "/>
<polyline clip-path="url(#clip260)" style="stroke:#000000; stroke-width:4; stroke-opacity:1; fill:none" points="
  194.422,1045.23 220.322,1045.23 
  "/>
<polyline clip-path="url(#clip260)" style="stroke:#000000; stroke-width:4; stroke-opacity:1; fill:none" points="
  194.422,728.355 220.322,728.355 
  "/>
<polyline clip-path="url(#clip260)" style="stroke:#000000; stroke-width:4; stroke-opacity:1; fill:none" points="
  194.422,411.48 220.322,411.48 
  "/>
<polyline clip-path="url(#clip260)" style="stroke:#000000; stroke-width:4; stroke-opacity:1; fill:none" points="
  194.422,94.6038 220.322,94.6038 
  "/>
<path clip-path="url(#clip260)" d="M 0 0 M50.9921 1362.56 L80.6679 1362.56 L80.6679 1366.49 L50.9921 1366.49 L50.9921 1362.56 Z" fill="#000000" fill-rule="evenodd" fill-opacity="1" /><path clip-path="url(#clip260)" d="M 0 0 M100.76 1347.91 Q97.1493 1347.91 95.3206 1351.47 Q93.515 1355.01 93.515 1362.14 Q93.515 1369.25 95.3206 1372.81 Q97.1493 1376.35 100.76 1376.35 Q104.395 1376.35 106.2 1372.81 Q108.029 1369.25 108.029 1362.14 Q108.029 1355.01 106.2 1351.47 Q104.395 1347.91 100.76 1347.91 M100.76 1344.2 Q106.571 1344.2 109.626 1348.81 Q112.705 1353.39 112.705 1362.14 Q112.705 1370.87 109.626 1375.48 Q106.571 1380.06 100.76 1380.06 Q94.9502 1380.06 91.8715 1375.48 Q88.816 1370.87 88.816 1362.14 Q88.816 1353.39 91.8715 1348.81 Q94.9502 1344.2 100.76 1344.2 Z" fill="#000000" fill-rule="evenodd" fill-opacity="1" /><path clip-path="url(#clip260)" d="M 0 0 M120.922 1373.51 L125.807 1373.51 L125.807 1379.39 L120.922 1379.39 L120.922 1373.51 Z" fill="#000000" fill-rule="evenodd" fill-opacity="1" /><path clip-path="url(#clip260)" d="M 0 0 M148.839 1348.9 L137.033 1367.35 L148.839 1367.35 L148.839 1348.9 M147.612 1344.83 L153.492 1344.83 L153.492 1367.35 L158.422 1367.35 L158.422 1371.24 L153.492 1371.24 L153.492 1379.39 L148.839 1379.39 L148.839 1371.24 L133.237 1371.24 L133.237 1366.73 L147.612 1344.83 Z" fill="#000000" fill-rule="evenodd" fill-opacity="1" /><path clip-path="url(#clip260)" d="M 0 0 M53.0754 1045.68 L82.7512 1045.68 L82.7512 1049.62 L53.0754 1049.62 L53.0754 1045.68 Z" fill="#000000" fill-rule="evenodd" fill-opacity="1" /><path clip-path="url(#clip260)" d="M 0 0 M102.844 1031.03 Q99.2326 1031.03 97.4039 1034.59 Q95.5984 1038.14 95.5984 1045.27 Q95.5984 1052.37 97.4039 1055.94 Q99.2326 1059.48 102.844 1059.48 Q106.478 1059.48 108.283 1055.94 Q110.112 1052.37 110.112 1045.27 Q110.112 1038.14 108.283 1034.59 Q106.478 1031.03 102.844 1031.03 M102.844 1027.33 Q108.654 1027.33 111.709 1031.93 Q114.788 1036.52 114.788 1045.27 Q114.788 1053.99 111.709 1058.6 Q108.654 1063.18 102.844 1063.18 Q97.0335 1063.18 93.9549 1058.6 Q90.8993 1053.99 90.8993 1045.27 Q90.8993 1036.52 93.9549 1031.93 Q97.0335 1027.33 102.844 1027.33 Z" fill="#000000" fill-rule="evenodd" fill-opacity="1" /><path clip-path="url(#clip260)" d="M 0 0 M123.006 1056.63 L127.89 1056.63 L127.89 1062.51 L123.006 1062.51 L123.006 1056.63 Z" fill="#000000" fill-rule="evenodd" fill-opacity="1" /><path clip-path="url(#clip260)" d="M 0 0 M142.103 1058.58 L158.422 1058.58 L158.422 1062.51 L136.478 1062.51 L136.478 1058.58 Q139.14 1055.82 143.723 1051.19 Q148.33 1046.54 149.51 1045.2 Q151.755 1042.67 152.635 1040.94 Q153.538 1039.18 153.538 1037.49 Q153.538 1034.73 151.593 1033 Q149.672 1031.26 146.57 1031.26 Q144.371 1031.26 141.918 1032.03 Q139.487 1032.79 136.709 1034.34 L136.709 1029.62 Q139.533 1028.48 141.987 1027.91 Q144.441 1027.33 146.478 1027.33 Q151.848 1027.33 155.042 1030.01 Q158.237 1032.7 158.237 1037.19 Q158.237 1039.32 157.427 1041.24 Q156.64 1043.14 154.533 1045.73 Q153.955 1046.4 150.853 1049.62 Q147.751 1052.81 142.103 1058.58 Z" fill="#000000" fill-rule="evenodd" fill-opacity="1" /><path clip-path="url(#clip260)" d="M 0 0 M101.246 714.154 Q97.6354 714.154 95.8067 717.719 Q94.0012 721.261 94.0012 728.39 Q94.0012 735.497 95.8067 739.061 Q97.6354 742.603 101.246 742.603 Q104.881 742.603 106.686 739.061 Q108.515 735.497 108.515 728.39 Q108.515 721.261 106.686 717.719 Q104.881 714.154 101.246 714.154 M101.246 710.45 Q107.057 710.45 110.112 715.057 Q113.191 719.64 113.191 728.39 Q113.191 737.117 110.112 741.723 Q107.057 746.307 101.246 746.307 Q95.4363 746.307 92.3576 741.723 Q89.3021 737.117 89.3021 728.39 Q89.3021 719.64 92.3576 715.057 Q95.4363 710.45 101.246 710.45 Z" fill="#000000" fill-rule="evenodd" fill-opacity="1" /><path clip-path="url(#clip260)" d="M 0 0 M121.408 739.756 L126.293 739.756 L126.293 745.635 L121.408 745.635 L121.408 739.756 Z" fill="#000000" fill-rule="evenodd" fill-opacity="1" /><path clip-path="url(#clip260)" d="M 0 0 M146.478 714.154 Q142.867 714.154 141.038 717.719 Q139.232 721.261 139.232 728.39 Q139.232 735.497 141.038 739.061 Q142.867 742.603 146.478 742.603 Q150.112 742.603 151.918 739.061 Q153.746 735.497 153.746 728.39 Q153.746 721.261 151.918 717.719 Q150.112 714.154 146.478 714.154 M146.478 710.45 Q152.288 710.45 155.343 715.057 Q158.422 719.64 158.422 728.39 Q158.422 737.117 155.343 741.723 Q152.288 746.307 146.478 746.307 Q140.668 746.307 137.589 741.723 Q134.533 737.117 134.533 728.39 Q134.533 719.64 137.589 715.057 Q140.668 710.45 146.478 710.45 Z" fill="#000000" fill-rule="evenodd" fill-opacity="1" /><path clip-path="url(#clip260)" d="M 0 0 M102.844 397.278 Q99.2326 397.278 97.4039 400.843 Q95.5984 404.385 95.5984 411.514 Q95.5984 418.621 97.4039 422.186 Q99.2326 425.727 102.844 425.727 Q106.478 425.727 108.283 422.186 Q110.112 418.621 110.112 411.514 Q110.112 404.385 108.283 400.843 Q106.478 397.278 102.844 397.278 M102.844 393.575 Q108.654 393.575 111.709 398.181 Q114.788 402.764 114.788 411.514 Q114.788 420.241 111.709 424.848 Q108.654 429.431 102.844 429.431 Q97.0335 429.431 93.9549 424.848 Q90.8993 420.241 90.8993 411.514 Q90.8993 402.764 93.9549 398.181 Q97.0335 393.575 102.844 393.575 Z" fill="#000000" fill-rule="evenodd" fill-opacity="1" /><path clip-path="url(#clip260)" d="M 0 0 M123.006 422.88 L127.89 422.88 L127.89 428.76 L123.006 428.76 L123.006 422.88 Z" fill="#000000" fill-rule="evenodd" fill-opacity="1" /><path clip-path="url(#clip260)" d="M 0 0 M142.103 424.824 L158.422 424.824 L158.422 428.76 L136.478 428.76 L136.478 424.824 Q139.14 422.07 143.723 417.44 Q148.33 412.787 149.51 411.445 Q151.755 408.922 152.635 407.186 Q153.538 405.426 153.538 403.737 Q153.538 400.982 151.593 399.246 Q149.672 397.51 146.57 397.51 Q144.371 397.51 141.918 398.274 Q139.487 399.038 136.709 400.588 L136.709 395.866 Q139.533 394.732 141.987 394.153 Q144.441 393.575 146.478 393.575 Q151.848 393.575 155.042 396.26 Q158.237 398.945 158.237 403.436 Q158.237 405.565 157.427 407.487 Q156.64 409.385 154.533 411.977 Q153.955 412.649 150.853 415.866 Q147.751 419.061 142.103 424.824 Z" fill="#000000" fill-rule="evenodd" fill-opacity="1" /><path clip-path="url(#clip260)" d="M 0 0 M100.76 80.4025 Q97.1493 80.4025 95.3206 83.9673 Q93.515 87.5089 93.515 94.6385 Q93.515 101.745 95.3206 105.31 Q97.1493 108.851 100.76 108.851 Q104.395 108.851 106.2 105.31 Q108.029 101.745 108.029 94.6385 Q108.029 87.5089 106.2 83.9673 Q104.395 80.4025 100.76 80.4025 M100.76 76.6988 Q106.571 76.6988 109.626 81.3052 Q112.705 85.8885 112.705 94.6385 Q112.705 103.365 109.626 107.972 Q106.571 112.555 100.76 112.555 Q94.9502 112.555 91.8715 107.972 Q88.816 103.365 88.816 94.6385 Q88.816 85.8885 91.8715 81.3052 Q94.9502 76.6988 100.76 76.6988 Z" fill="#000000" fill-rule="evenodd" fill-opacity="1" /><path clip-path="url(#clip260)" d="M 0 0 M120.922 106.004 L125.807 106.004 L125.807 111.884 L120.922 111.884 L120.922 106.004 Z" fill="#000000" fill-rule="evenodd" fill-opacity="1" /><path clip-path="url(#clip260)" d="M 0 0 M148.839 81.3978 L137.033 99.8468 L148.839 99.8468 L148.839 81.3978 M147.612 77.3238 L153.492 77.3238 L153.492 99.8468 L158.422 99.8468 L158.422 103.736 L153.492 103.736 L153.492 111.884 L148.839 111.884 L148.839 103.736 L133.237 103.736 L133.237 99.2218 L147.612 77.3238 Z" fill="#000000" fill-rule="evenodd" fill-opacity="1" /><polyline clip-path="url(#clip262)" style="stroke:#009af9; stroke-width:4; stroke-opacity:1; fill:none" points="
  255.507,1301.08 459.823,1225.04 729.913,1032.22 934.228,796.633 1138.54,511.031 1408.63,194.223 1507.81,124.703 1817.27,86.1857 1936.78,159.494 2087.36,405.097 
  2186.54,745.491 2291.67,1377.95 
  "/>
<path clip-path="url(#clip260)" d="
M1589.7 214.069 L2280.81 214.069 L2280.81 93.1086 L1589.7 93.1086  Z
  " fill="#ffffff" fill-rule="evenodd" fill-opacity="1"/>
<polyline clip-path="url(#clip260)" style="stroke:#000000; stroke-width:4; stroke-opacity:1; fill:none" points="
  1589.7,214.069 2280.81,214.069 2280.81,93.1086 1589.7,93.1086 1589.7,214.069 
  "/>
<polyline clip-path="url(#clip260)" style="stroke:#009af9; stroke-width:4; stroke-opacity:1; fill:none" points="
  1613.68,153.589 1757.57,153.589 
  "/>
<path clip-path="url(#clip260)" d="M 0 0 M1797.94 154.665 Q1799.45 155.174 1800.86 156.841 Q1802.3 158.508 1803.73 161.424 L1808.48 170.869 L1803.45 170.869 L1799.03 162.003 Q1797.32 158.531 1795.7 157.396 Q1794.1 156.262 1791.32 156.262 L1786.23 156.262 L1786.23 170.869 L1781.55 170.869 L1781.55 136.309 L1792.11 136.309 Q1798.04 136.309 1800.95 138.785 Q1803.87 141.262 1803.87 146.262 Q1803.87 149.526 1802.34 151.679 Q1800.84 153.832 1797.94 154.665 M1786.23 140.151 L1786.23 152.42 L1792.11 152.42 Q1795.49 152.42 1797.2 150.869 Q1798.94 149.295 1798.94 146.262 Q1798.94 143.23 1797.2 141.702 Q1795.49 140.151 1792.11 140.151 L1786.23 140.151 Z" fill="#000000" fill-rule="evenodd" fill-opacity="1" /><path clip-path="url(#clip260)" d="M 0 0 M1818.94 166.933 L1835.26 166.933 L1835.26 170.869 L1813.31 170.869 L1813.31 166.933 Q1815.98 164.179 1820.56 159.549 Q1825.17 154.896 1826.35 153.554 Q1828.59 151.031 1829.47 149.295 Q1830.37 147.535 1830.37 145.846 Q1830.37 143.091 1828.43 141.355 Q1826.51 139.619 1823.41 139.619 Q1821.21 139.619 1818.75 140.383 Q1816.32 141.147 1813.55 142.697 L1813.55 137.975 Q1816.37 136.841 1818.82 136.262 Q1821.28 135.684 1823.31 135.684 Q1828.68 135.684 1831.88 138.369 Q1835.07 141.054 1835.07 145.545 Q1835.07 147.674 1834.26 149.596 Q1833.48 151.494 1831.37 154.086 Q1830.79 154.758 1827.69 157.975 Q1824.59 161.17 1818.94 166.933 Z" fill="#000000" fill-rule="evenodd" fill-opacity="1" /><path clip-path="url(#clip260)" d="M 0 0 M1863.66 166.98 L1863.66 180.73 L1859.38 180.73 L1859.38 144.943 L1863.66 144.943 L1863.66 148.878 Q1865 146.563 1867.04 145.452 Q1869.1 144.318 1871.95 144.318 Q1876.67 144.318 1879.61 148.068 Q1882.57 151.818 1882.57 157.929 Q1882.57 164.04 1879.61 167.79 Q1876.67 171.54 1871.95 171.54 Q1869.1 171.54 1867.04 170.429 Q1865 169.295 1863.66 166.98 M1878.15 157.929 Q1878.15 153.23 1876.21 150.568 Q1874.29 147.883 1870.91 147.883 Q1867.53 147.883 1865.58 150.568 Q1863.66 153.23 1863.66 157.929 Q1863.66 162.628 1865.58 165.313 Q1867.53 167.975 1870.91 167.975 Q1874.29 167.975 1876.21 165.313 Q1878.15 162.628 1878.15 157.929 Z" fill="#000000" fill-rule="evenodd" fill-opacity="1" /><path clip-path="url(#clip260)" d="M 0 0 M1904.66 148.924 Q1903.94 148.508 1903.08 148.322 Q1902.25 148.114 1901.23 148.114 Q1897.62 148.114 1895.67 150.475 Q1893.75 152.813 1893.75 157.211 L1893.75 170.869 L1889.47 170.869 L1889.47 144.943 L1893.75 144.943 L1893.75 148.971 Q1895.1 146.609 1897.25 145.475 Q1899.4 144.318 1902.48 144.318 Q1902.92 144.318 1903.45 144.387 Q1903.98 144.434 1904.63 144.549 L1904.66 148.924 Z" fill="#000000" fill-rule="evenodd" fill-opacity="1" /><path clip-path="url(#clip260)" d="M 0 0 M1930.26 156.841 L1930.26 158.924 L1910.67 158.924 Q1910.95 163.322 1913.31 165.637 Q1915.7 167.929 1919.93 167.929 Q1922.39 167.929 1924.68 167.327 Q1926.99 166.725 1929.26 165.521 L1929.26 169.549 Q1926.97 170.521 1924.56 171.031 Q1922.16 171.54 1919.68 171.54 Q1913.48 171.54 1909.84 167.929 Q1906.23 164.318 1906.23 158.16 Q1906.23 151.795 1909.66 148.068 Q1913.1 144.318 1918.94 144.318 Q1924.17 144.318 1927.2 147.697 Q1930.26 151.054 1930.26 156.841 M1926 155.591 Q1925.95 152.096 1924.03 150.012 Q1922.13 147.929 1918.98 147.929 Q1915.42 147.929 1913.27 149.943 Q1911.14 151.957 1910.81 155.614 L1926 155.591 Z" fill="#000000" fill-rule="evenodd" fill-opacity="1" /><path clip-path="url(#clip260)" d="M 0 0 M1954.31 148.878 L1954.31 134.85 L1958.57 134.85 L1958.57 170.869 L1954.31 170.869 L1954.31 166.98 Q1952.97 169.295 1950.91 170.429 Q1948.87 171.54 1946 171.54 Q1941.3 171.54 1938.34 167.79 Q1935.4 164.04 1935.4 157.929 Q1935.4 151.818 1938.34 148.068 Q1941.3 144.318 1946 144.318 Q1948.87 144.318 1950.91 145.452 Q1952.97 146.563 1954.31 148.878 M1939.79 157.929 Q1939.79 162.628 1941.72 165.313 Q1943.66 167.975 1947.04 167.975 Q1950.42 167.975 1952.36 165.313 Q1954.31 162.628 1954.31 157.929 Q1954.31 153.23 1952.36 150.568 Q1950.42 147.883 1947.04 147.883 Q1943.66 147.883 1941.72 150.568 Q1939.79 153.23 1939.79 157.929 Z" fill="#000000" fill-rule="evenodd" fill-opacity="1" /><path clip-path="url(#clip260)" d="M 0 0 M1967.34 144.943 L1971.6 144.943 L1971.6 170.869 L1967.34 170.869 L1967.34 144.943 M1967.34 134.85 L1971.6 134.85 L1971.6 140.244 L1967.34 140.244 L1967.34 134.85 Z" fill="#000000" fill-rule="evenodd" fill-opacity="1" /><path clip-path="url(#clip260)" d="M 0 0 M1999.17 145.938 L1999.17 149.92 Q1997.36 148.924 1995.53 148.438 Q1993.73 147.929 1991.88 147.929 Q1987.73 147.929 1985.44 150.568 Q1983.15 153.184 1983.15 157.929 Q1983.15 162.674 1985.44 165.313 Q1987.73 167.929 1991.88 167.929 Q1993.73 167.929 1995.53 167.443 Q1997.36 166.933 1999.17 165.938 L1999.17 169.873 Q1997.39 170.707 1995.47 171.123 Q1993.57 171.54 1991.41 171.54 Q1985.56 171.54 1982.11 167.859 Q1978.66 164.179 1978.66 157.929 Q1978.66 151.586 1982.13 147.952 Q1985.63 144.318 1991.69 144.318 Q1993.66 144.318 1995.53 144.735 Q1997.41 145.128 1999.17 145.938 Z" fill="#000000" fill-rule="evenodd" fill-opacity="1" /><path clip-path="url(#clip260)" d="M 0 0 M2010.79 137.582 L2010.79 144.943 L2019.56 144.943 L2019.56 148.253 L2010.79 148.253 L2010.79 162.327 Q2010.79 165.498 2011.65 166.401 Q2012.53 167.304 2015.19 167.304 L2019.56 167.304 L2019.56 170.869 L2015.19 170.869 Q2010.26 170.869 2008.38 169.04 Q2006.51 167.188 2006.51 162.327 L2006.51 148.253 L2003.38 148.253 L2003.38 144.943 L2006.51 144.943 L2006.51 137.582 L2010.79 137.582 Z" fill="#000000" fill-rule="evenodd" fill-opacity="1" /><path clip-path="url(#clip260)" d="M 0 0 M2025.16 144.943 L2029.42 144.943 L2029.42 170.869 L2025.16 170.869 L2025.16 144.943 M2025.16 134.85 L2029.42 134.85 L2029.42 140.244 L2025.16 140.244 L2025.16 134.85 Z" fill="#000000" fill-rule="evenodd" fill-opacity="1" /><path clip-path="url(#clip260)" d="M 0 0 M2048.38 147.929 Q2044.96 147.929 2042.97 150.614 Q2040.97 153.276 2040.97 157.929 Q2040.97 162.582 2042.94 165.267 Q2044.93 167.929 2048.38 167.929 Q2051.78 167.929 2053.78 165.244 Q2055.77 162.558 2055.77 157.929 Q2055.77 153.322 2053.78 150.637 Q2051.78 147.929 2048.38 147.929 M2048.38 144.318 Q2053.94 144.318 2057.11 147.929 Q2060.28 151.54 2060.28 157.929 Q2060.28 164.295 2057.11 167.929 Q2053.94 171.54 2048.38 171.54 Q2042.8 171.54 2039.63 167.929 Q2036.48 164.295 2036.48 157.929 Q2036.48 151.54 2039.63 147.929 Q2042.8 144.318 2048.38 144.318 Z" fill="#000000" fill-rule="evenodd" fill-opacity="1" /><path clip-path="url(#clip260)" d="M 0 0 M2088.89 155.221 L2088.89 170.869 L2084.63 170.869 L2084.63 155.359 Q2084.63 151.679 2083.2 149.85 Q2081.76 148.022 2078.89 148.022 Q2075.44 148.022 2073.45 150.221 Q2071.46 152.42 2071.46 156.216 L2071.46 170.869 L2067.18 170.869 L2067.18 144.943 L2071.46 144.943 L2071.46 148.971 Q2072.99 146.633 2075.05 145.475 Q2077.13 144.318 2079.84 144.318 Q2084.31 144.318 2086.6 147.096 Q2088.89 149.85 2088.89 155.221 Z" fill="#000000" fill-rule="evenodd" fill-opacity="1" /><path clip-path="url(#clip260)" d="M 0 0 M2128.98 145.707 L2128.98 149.734 Q2127.18 148.809 2125.23 148.346 Q2123.29 147.883 2121.21 147.883 Q2118.03 147.883 2116.44 148.855 Q2114.86 149.827 2114.86 151.771 Q2114.86 153.253 2116 154.109 Q2117.13 154.943 2120.56 155.707 L2122.02 156.031 Q2126.55 157.003 2128.45 158.785 Q2130.37 160.545 2130.37 163.716 Q2130.37 167.327 2127.5 169.433 Q2124.65 171.54 2119.65 171.54 Q2117.57 171.54 2115.3 171.123 Q2113.06 170.73 2110.56 169.92 L2110.56 165.521 Q2112.92 166.748 2115.21 167.373 Q2117.5 167.975 2119.75 167.975 Q2122.76 167.975 2124.38 166.957 Q2126 165.915 2126 164.04 Q2126 162.304 2124.82 161.378 Q2123.66 160.452 2119.7 159.596 L2118.22 159.248 Q2114.26 158.415 2112.5 156.702 Q2110.74 154.966 2110.74 151.957 Q2110.74 148.299 2113.34 146.309 Q2115.93 144.318 2120.7 144.318 Q2123.06 144.318 2125.14 144.665 Q2127.22 145.012 2128.98 145.707 Z" fill="#000000" fill-rule="evenodd" fill-opacity="1" /><path clip-path="url(#clip260)" d="M 0 0 M2155.81 145.938 L2155.81 149.92 Q2154.01 148.924 2152.18 148.438 Q2150.37 147.929 2148.52 147.929 Q2144.38 147.929 2142.09 150.568 Q2139.79 153.184 2139.79 157.929 Q2139.79 162.674 2142.09 165.313 Q2144.38 167.929 2148.52 167.929 Q2150.37 167.929 2152.18 167.443 Q2154.01 166.933 2155.81 165.938 L2155.81 169.873 Q2154.03 170.707 2152.11 171.123 Q2150.21 171.54 2148.06 171.54 Q2142.2 171.54 2138.75 167.859 Q2135.3 164.179 2135.3 157.929 Q2135.3 151.586 2138.77 147.952 Q2142.27 144.318 2148.34 144.318 Q2150.3 144.318 2152.18 144.735 Q2154.05 145.128 2155.81 145.938 Z" fill="#000000" fill-rule="evenodd" fill-opacity="1" /><path clip-path="url(#clip260)" d="M 0 0 M2173.27 147.929 Q2169.84 147.929 2167.85 150.614 Q2165.86 153.276 2165.86 157.929 Q2165.86 162.582 2167.83 165.267 Q2169.82 167.929 2173.27 167.929 Q2176.67 167.929 2178.66 165.244 Q2180.65 162.558 2180.65 157.929 Q2180.65 153.322 2178.66 150.637 Q2176.67 147.929 2173.27 147.929 M2173.27 144.318 Q2178.82 144.318 2181.99 147.929 Q2185.16 151.54 2185.16 157.929 Q2185.16 164.295 2181.99 167.929 Q2178.82 171.54 2173.27 171.54 Q2167.69 171.54 2164.52 167.929 Q2161.37 164.295 2161.37 157.929 Q2161.37 151.54 2164.52 147.929 Q2167.69 144.318 2173.27 144.318 Z" fill="#000000" fill-rule="evenodd" fill-opacity="1" /><path clip-path="url(#clip260)" d="M 0 0 M2207.25 148.924 Q2206.53 148.508 2205.67 148.322 Q2204.84 148.114 2203.82 148.114 Q2200.21 148.114 2198.27 150.475 Q2196.34 152.813 2196.34 157.211 L2196.34 170.869 L2192.06 170.869 L2192.06 144.943 L2196.34 144.943 L2196.34 148.971 Q2197.69 146.609 2199.84 145.475 Q2201.99 144.318 2205.07 144.318 Q2205.51 144.318 2206.04 144.387 Q2206.58 144.434 2207.22 144.549 L2207.25 148.924 Z" fill="#000000" fill-rule="evenodd" fill-opacity="1" /><path clip-path="url(#clip260)" d="M 0 0 M2232.85 156.841 L2232.85 158.924 L2213.27 158.924 Q2213.54 163.322 2215.9 165.637 Q2218.29 167.929 2222.52 167.929 Q2224.98 167.929 2227.27 167.327 Q2229.58 166.725 2231.85 165.521 L2231.85 169.549 Q2229.56 170.521 2227.15 171.031 Q2224.75 171.54 2222.27 171.54 Q2216.07 171.54 2212.43 167.929 Q2208.82 164.318 2208.82 158.16 Q2208.82 151.795 2212.25 148.068 Q2215.7 144.318 2221.53 144.318 Q2226.76 144.318 2229.79 147.697 Q2232.85 151.054 2232.85 156.841 M2228.59 155.591 Q2228.54 152.096 2226.62 150.012 Q2224.72 147.929 2221.58 147.929 Q2218.01 147.929 2215.86 149.943 Q2213.73 151.957 2213.4 155.614 L2228.59 155.591 Z" fill="#000000" fill-rule="evenodd" fill-opacity="1" /></svg>
