<?xml version="1.0" encoding="utf-8"?>
<svg xmlns="http://www.w3.org/2000/svg" xmlns:xlink="http://www.w3.org/1999/xlink" width="600" height="400" viewBox="0 0 2400 1600">
<defs>
  <clipPath id="clip300">
    <rect x="0" y="0" width="2400" height="1600"/>
  </clipPath>
</defs>
<path clip-path="url(#clip300)" d="
M0 1600 L2400 1600 L2400 0 L0 0  Z
  " fill="#ffffff" fill-rule="evenodd" fill-opacity="1"/>
<defs>
  <clipPath id="clip301">
    <rect x="480" y="0" width="1681" height="1600"/>
  </clipPath>
</defs>
<path clip-path="url(#clip300)" d="
M178.867 1423.18 L2352.76 1423.18 L2352.76 47.2441 L178.867 47.2441  Z
  " fill="#ffffff" fill-rule="evenodd" fill-opacity="1"/>
<defs>
  <clipPath id="clip302">
    <rect x="178" y="47" width="2175" height="1377"/>
  </clipPath>
</defs>
<polyline clip-path="url(#clip302)" style="stroke:#000000; stroke-width:2; stroke-opacity:0.1; fill:none" points="
  240.392,1423.18 240.392,47.2441 
  "/>
<polyline clip-path="url(#clip302)" style="stroke:#000000; stroke-width:2; stroke-opacity:0.1; fill:none" points="
  753.102,1423.18 753.102,47.2441 
  "/>
<polyline clip-path="url(#clip302)" style="stroke:#000000; stroke-width:2; stroke-opacity:0.1; fill:none" points="
  1265.81,1423.18 1265.81,47.2441 
  "/>
<polyline clip-path="url(#clip302)" style="stroke:#000000; stroke-width:2; stroke-opacity:0.1; fill:none" points="
  1778.52,1423.18 1778.52,47.2441 
  "/>
<polyline clip-path="url(#clip302)" style="stroke:#000000; stroke-width:2; stroke-opacity:0.1; fill:none" points="
  2291.23,1423.18 2291.23,47.2441 
  "/>
<polyline clip-path="url(#clip300)" style="stroke:#000000; stroke-width:4; stroke-opacity:1; fill:none" points="
  178.867,1423.18 2352.76,1423.18 
  "/>
<polyline clip-path="url(#clip300)" style="stroke:#000000; stroke-width:4; stroke-opacity:1; fill:none" points="
  240.392,1423.18 240.392,1406.67 
  "/>
<polyline clip-path="url(#clip300)" style="stroke:#000000; stroke-width:4; stroke-opacity:1; fill:none" points="
  753.102,1423.18 753.102,1406.67 
  "/>
<polyline clip-path="url(#clip300)" style="stroke:#000000; stroke-width:4; stroke-opacity:1; fill:none" points="
  1265.81,1423.18 1265.81,1406.67 
  "/>
<polyline clip-path="url(#clip300)" style="stroke:#000000; stroke-width:4; stroke-opacity:1; fill:none" points="
  1778.52,1423.18 1778.52,1406.67 
  "/>
<polyline clip-path="url(#clip300)" style="stroke:#000000; stroke-width:4; stroke-opacity:1; fill:none" points="
  2291.23,1423.18 2291.23,1406.67 
  "/>
<path clip-path="url(#clip300)" d="M 0 0 M202.695 1452.37 Q199.084 1452.37 197.255 1455.94 Q195.45 1459.48 195.45 1466.61 Q195.45 1473.71 197.255 1477.28 Q199.084 1480.82 202.695 1480.82 Q206.329 1480.82 208.135 1477.28 Q209.964 1473.71 209.964 1466.61 Q209.964 1459.48 208.135 1455.94 Q206.329 1452.37 202.695 1452.37 M202.695 1448.67 Q208.505 1448.67 211.561 1453.27 Q214.64 1457.86 214.64 1466.61 Q214.64 1475.33 211.561 1479.94 Q208.505 1484.52 202.695 1484.52 Q196.885 1484.52 193.806 1479.94 Q190.751 1475.33 190.751 1466.61 Q190.751 1457.86 193.806 1453.27 Q196.885 1448.67 202.695 1448.67 Z" fill="#000000" fill-rule="evenodd" fill-opacity="1" /><path clip-path="url(#clip300)" d="M 0 0 M222.857 1477.97 L227.741 1477.97 L227.741 1483.85 L222.857 1483.85 L222.857 1477.97 Z" fill="#000000" fill-rule="evenodd" fill-opacity="1" /><path clip-path="url(#clip300)" d="M 0 0 M247.926 1452.37 Q244.315 1452.37 242.487 1455.94 Q240.681 1459.48 240.681 1466.61 Q240.681 1473.71 242.487 1477.28 Q244.315 1480.82 247.926 1480.82 Q251.561 1480.82 253.366 1477.28 Q255.195 1473.71 255.195 1466.61 Q255.195 1459.48 253.366 1455.94 Q251.561 1452.37 247.926 1452.37 M247.926 1448.67 Q253.737 1448.67 256.792 1453.27 Q259.871 1457.86 259.871 1466.61 Q259.871 1475.33 256.792 1479.94 Q253.737 1484.52 247.926 1484.52 Q242.116 1484.52 239.038 1479.94 Q235.982 1475.33 235.982 1466.61 Q235.982 1457.86 239.038 1453.27 Q242.116 1448.67 247.926 1448.67 Z" fill="#000000" fill-rule="evenodd" fill-opacity="1" /><path clip-path="url(#clip300)" d="M 0 0 M278.088 1452.37 Q274.477 1452.37 272.649 1455.94 Q270.843 1459.48 270.843 1466.61 Q270.843 1473.71 272.649 1477.28 Q274.477 1480.82 278.088 1480.82 Q281.723 1480.82 283.528 1477.28 Q285.357 1473.71 285.357 1466.61 Q285.357 1459.48 283.528 1455.94 Q281.723 1452.37 278.088 1452.37 M278.088 1448.67 Q283.899 1448.67 286.954 1453.27 Q290.033 1457.86 290.033 1466.61 Q290.033 1475.33 286.954 1479.94 Q283.899 1484.52 278.088 1484.52 Q272.278 1484.52 269.2 1479.94 Q266.144 1475.33 266.144 1466.61 Q266.144 1457.86 269.2 1453.27 Q272.278 1448.67 278.088 1448.67 Z" fill="#000000" fill-rule="evenodd" fill-opacity="1" /><path clip-path="url(#clip300)" d="M 0 0 M715.903 1452.37 Q712.292 1452.37 710.463 1455.94 Q708.657 1459.48 708.657 1466.61 Q708.657 1473.71 710.463 1477.28 Q712.292 1480.82 715.903 1480.82 Q719.537 1480.82 721.342 1477.28 Q723.171 1473.71 723.171 1466.61 Q723.171 1459.48 721.342 1455.94 Q719.537 1452.37 715.903 1452.37 M715.903 1448.67 Q721.713 1448.67 724.768 1453.27 Q727.847 1457.86 727.847 1466.61 Q727.847 1475.33 724.768 1479.94 Q721.713 1484.52 715.903 1484.52 Q710.093 1484.52 707.014 1479.94 Q703.958 1475.33 703.958 1466.61 Q703.958 1457.86 707.014 1453.27 Q710.093 1448.67 715.903 1448.67 Z" fill="#000000" fill-rule="evenodd" fill-opacity="1" /><path clip-path="url(#clip300)" d="M 0 0 M736.065 1477.97 L740.949 1477.97 L740.949 1483.85 L736.065 1483.85 L736.065 1477.97 Z" fill="#000000" fill-rule="evenodd" fill-opacity="1" /><path clip-path="url(#clip300)" d="M 0 0 M755.162 1479.92 L771.481 1479.92 L771.481 1483.85 L749.537 1483.85 L749.537 1479.92 Q752.199 1477.16 756.782 1472.53 Q761.389 1467.88 762.569 1466.54 Q764.814 1464.01 765.694 1462.28 Q766.597 1460.52 766.597 1458.83 Q766.597 1456.07 764.652 1454.34 Q762.731 1452.6 759.629 1452.6 Q757.43 1452.6 754.977 1453.37 Q752.546 1454.13 749.768 1455.68 L749.768 1450.96 Q752.592 1449.82 755.046 1449.25 Q757.5 1448.67 759.537 1448.67 Q764.907 1448.67 768.101 1451.35 Q771.296 1454.04 771.296 1458.53 Q771.296 1460.66 770.486 1462.58 Q769.699 1464.48 767.592 1467.07 Q767.013 1467.74 763.912 1470.96 Q760.81 1474.15 755.162 1479.92 Z" fill="#000000" fill-rule="evenodd" fill-opacity="1" /><path clip-path="url(#clip300)" d="M 0 0 M781.342 1449.29 L799.699 1449.29 L799.699 1453.23 L785.625 1453.23 L785.625 1461.7 Q786.643 1461.35 787.662 1461.19 Q788.68 1461 789.699 1461 Q795.486 1461 798.865 1464.18 Q802.245 1467.35 802.245 1472.76 Q802.245 1478.34 798.773 1481.44 Q795.3 1484.52 788.981 1484.52 Q786.805 1484.52 784.537 1484.15 Q782.291 1483.78 779.884 1483.04 L779.884 1478.34 Q781.967 1479.48 784.189 1480.03 Q786.412 1480.59 788.888 1480.59 Q792.893 1480.59 795.231 1478.48 Q797.569 1476.38 797.569 1472.76 Q797.569 1469.15 795.231 1467.05 Q792.893 1464.94 788.888 1464.94 Q787.013 1464.94 785.138 1465.36 Q783.287 1465.77 781.342 1466.65 L781.342 1449.29 Z" fill="#000000" fill-rule="evenodd" fill-opacity="1" /><path clip-path="url(#clip300)" d="M 0 0 M1228.11 1452.37 Q1224.5 1452.37 1222.67 1455.94 Q1220.87 1459.48 1220.87 1466.61 Q1220.87 1473.71 1222.67 1477.28 Q1224.5 1480.82 1228.11 1480.82 Q1231.75 1480.82 1233.55 1477.28 Q1235.38 1473.71 1235.38 1466.61 Q1235.38 1459.48 1233.55 1455.94 Q1231.75 1452.37 1228.11 1452.37 M1228.11 1448.67 Q1233.92 1448.67 1236.98 1453.27 Q1240.06 1457.86 1240.06 1466.61 Q1240.06 1475.33 1236.98 1479.94 Q1233.92 1484.52 1228.11 1484.52 Q1222.3 1484.52 1219.23 1479.94 Q1216.17 1475.33 1216.17 1466.61 Q1216.17 1457.86 1219.23 1453.27 Q1222.3 1448.67 1228.11 1448.67 Z" fill="#000000" fill-rule="evenodd" fill-opacity="1" /><path clip-path="url(#clip300)" d="M 0 0 M1248.28 1477.97 L1253.16 1477.97 L1253.16 1483.85 L1248.28 1483.85 L1248.28 1477.97 Z" fill="#000000" fill-rule="evenodd" fill-opacity="1" /><path clip-path="url(#clip300)" d="M 0 0 M1263.39 1449.29 L1281.75 1449.29 L1281.75 1453.23 L1267.67 1453.23 L1267.67 1461.7 Q1268.69 1461.35 1269.71 1461.19 Q1270.73 1461 1271.75 1461 Q1277.54 1461 1280.92 1464.18 Q1284.29 1467.35 1284.29 1472.76 Q1284.29 1478.34 1280.82 1481.44 Q1277.35 1484.52 1271.03 1484.52 Q1268.86 1484.52 1266.59 1484.15 Q1264.34 1483.78 1261.93 1483.04 L1261.93 1478.34 Q1264.02 1479.48 1266.24 1480.03 Q1268.46 1480.59 1270.94 1480.59 Q1274.94 1480.59 1277.28 1478.48 Q1279.62 1476.38 1279.62 1472.76 Q1279.62 1469.15 1277.28 1467.05 Q1274.94 1464.94 1270.94 1464.94 Q1269.06 1464.94 1267.19 1465.36 Q1265.34 1465.77 1263.39 1466.65 L1263.39 1449.29 Z" fill="#000000" fill-rule="evenodd" fill-opacity="1" /><path clip-path="url(#clip300)" d="M 0 0 M1303.51 1452.37 Q1299.9 1452.37 1298.07 1455.94 Q1296.26 1459.48 1296.26 1466.61 Q1296.26 1473.71 1298.07 1477.28 Q1299.9 1480.82 1303.51 1480.82 Q1307.14 1480.82 1308.95 1477.28 Q1310.78 1473.71 1310.78 1466.61 Q1310.78 1459.48 1308.95 1455.94 Q1307.14 1452.37 1303.51 1452.37 M1303.51 1448.67 Q1309.32 1448.67 1312.37 1453.27 Q1315.45 1457.86 1315.45 1466.61 Q1315.45 1475.33 1312.37 1479.94 Q1309.32 1484.52 1303.51 1484.52 Q1297.7 1484.52 1294.62 1479.94 Q1291.56 1475.33 1291.56 1466.61 Q1291.56 1457.86 1294.62 1453.27 Q1297.7 1448.67 1303.51 1448.67 Z" fill="#000000" fill-rule="evenodd" fill-opacity="1" /><path clip-path="url(#clip300)" d="M 0 0 M1741.32 1452.37 Q1737.71 1452.37 1735.88 1455.94 Q1734.08 1459.48 1734.08 1466.61 Q1734.08 1473.71 1735.88 1477.28 Q1737.71 1480.82 1741.32 1480.82 Q1744.96 1480.82 1746.76 1477.28 Q1748.59 1473.71 1748.59 1466.61 Q1748.59 1459.48 1746.76 1455.94 Q1744.96 1452.37 1741.32 1452.37 M1741.32 1448.67 Q1747.13 1448.67 1750.19 1453.27 Q1753.27 1457.86 1753.27 1466.61 Q1753.27 1475.33 1750.19 1479.94 Q1747.13 1484.52 1741.32 1484.52 Q1735.51 1484.52 1732.43 1479.94 Q1729.38 1475.33 1729.38 1466.61 Q1729.38 1457.86 1732.43 1453.27 Q1735.51 1448.67 1741.32 1448.67 Z" fill="#000000" fill-rule="evenodd" fill-opacity="1" /><path clip-path="url(#clip300)" d="M 0 0 M1761.48 1477.97 L1766.37 1477.97 L1766.37 1483.85 L1761.48 1483.85 L1761.48 1477.97 Z" fill="#000000" fill-rule="evenodd" fill-opacity="1" /><path clip-path="url(#clip300)" d="M 0 0 M1775.37 1449.29 L1797.59 1449.29 L1797.59 1451.28 L1785.05 1483.85 L1780.16 1483.85 L1791.97 1453.23 L1775.37 1453.23 L1775.37 1449.29 Z" fill="#000000" fill-rule="evenodd" fill-opacity="1" /><path clip-path="url(#clip300)" d="M 0 0 M1806.76 1449.29 L1825.12 1449.29 L1825.12 1453.23 L1811.04 1453.23 L1811.04 1461.7 Q1812.06 1461.35 1813.08 1461.19 Q1814.1 1461 1815.12 1461 Q1820.91 1461 1824.28 1464.18 Q1827.66 1467.35 1827.66 1472.76 Q1827.66 1478.34 1824.19 1481.44 Q1820.72 1484.52 1814.4 1484.52 Q1812.22 1484.52 1809.96 1484.15 Q1807.71 1483.78 1805.3 1483.04 L1805.3 1478.34 Q1807.39 1479.48 1809.61 1480.03 Q1811.83 1480.59 1814.31 1480.59 Q1818.31 1480.59 1820.65 1478.48 Q1822.99 1476.38 1822.99 1472.76 Q1822.99 1469.15 1820.65 1467.05 Q1818.31 1464.94 1814.31 1464.94 Q1812.43 1464.94 1810.56 1465.36 Q1808.71 1465.77 1806.76 1466.65 L1806.76 1449.29 Z" fill="#000000" fill-rule="evenodd" fill-opacity="1" /><path clip-path="url(#clip300)" d="M 0 0 M2243.3 1479.92 L2250.94 1479.92 L2250.94 1453.55 L2242.63 1455.22 L2242.63 1450.96 L2250.9 1449.29 L2255.57 1449.29 L2255.57 1479.92 L2263.21 1479.92 L2263.21 1483.85 L2243.3 1483.85 L2243.3 1479.92 Z" fill="#000000" fill-rule="evenodd" fill-opacity="1" /><path clip-path="url(#clip300)" d="M 0 0 M2272.65 1477.97 L2277.54 1477.97 L2277.54 1483.85 L2272.65 1483.85 L2272.65 1477.97 Z" fill="#000000" fill-rule="evenodd" fill-opacity="1" /><path clip-path="url(#clip300)" d="M 0 0 M2297.72 1452.37 Q2294.11 1452.37 2292.28 1455.94 Q2290.48 1459.48 2290.48 1466.61 Q2290.48 1473.71 2292.28 1477.28 Q2294.11 1480.82 2297.72 1480.82 Q2301.36 1480.82 2303.16 1477.28 Q2304.99 1473.71 2304.99 1466.61 Q2304.99 1459.48 2303.16 1455.94 Q2301.36 1452.37 2297.72 1452.37 M2297.72 1448.67 Q2303.53 1448.67 2306.59 1453.27 Q2309.67 1457.86 2309.67 1466.61 Q2309.67 1475.33 2306.59 1479.94 Q2303.53 1484.52 2297.72 1484.52 Q2291.91 1484.52 2288.83 1479.94 Q2285.78 1475.33 2285.78 1466.61 Q2285.78 1457.86 2288.83 1453.27 Q2291.91 1448.67 2297.72 1448.67 Z" fill="#000000" fill-rule="evenodd" fill-opacity="1" /><path clip-path="url(#clip300)" d="M 0 0 M2327.89 1452.37 Q2324.27 1452.37 2322.45 1455.94 Q2320.64 1459.48 2320.64 1466.61 Q2320.64 1473.71 2322.45 1477.28 Q2324.27 1480.82 2327.89 1480.82 Q2331.52 1480.82 2333.33 1477.28 Q2335.15 1473.71 2335.15 1466.61 Q2335.15 1459.48 2333.33 1455.94 Q2331.52 1452.37 2327.89 1452.37 M2327.89 1448.67 Q2333.7 1448.67 2336.75 1453.27 Q2339.83 1457.86 2339.83 1466.61 Q2339.83 1475.33 2336.75 1479.94 Q2333.7 1484.52 2327.89 1484.52 Q2322.08 1484.52 2319 1479.94 Q2315.94 1475.33 2315.94 1466.61 Q2315.94 1457.86 2319 1453.27 Q2322.08 1448.67 2327.89 1448.67 Z" fill="#000000" fill-rule="evenodd" fill-opacity="1" /><path clip-path="url(#clip300)" d="M 0 0 M1271.02 1551.46 L1269.61 1544.11 Q1268.18 1536.57 1262.52 1536.57 Q1258.25 1536.57 1256.31 1540.07 Q1253.86 1544.46 1253.86 1550.25 Q1253.86 1557.25 1256.25 1560.6 Q1258.67 1564 1262.52 1564 Q1266.78 1564 1269.07 1557.22 L1271.02 1551.46 M1274.29 1541.72 L1277.44 1532.4 L1282.66 1532.4 L1276.14 1551.72 L1277.41 1558.69 Q1277.7 1560.25 1278.81 1561.55 Q1280.12 1563.08 1281.14 1563.08 L1283.94 1563.08 L1283.94 1568.04 L1280.44 1568.04 Q1277.44 1568.04 1274.77 1565.37 Q1273.47 1564.03 1272.92 1561.23 Q1271.46 1564.77 1268.47 1567.53 Q1267.07 1568.84 1262.52 1568.84 Q1255.04 1568.84 1251.41 1564 Q1247.68 1559 1247.68 1550.25 Q1247.68 1540.89 1251.73 1536.5 Q1256.21 1531.6 1262.52 1531.6 Q1272.42 1531.6 1274.29 1541.72 Z" fill="#000000" fill-rule="evenodd" fill-opacity="1" /><polyline clip-path="url(#clip302)" style="stroke:#000000; stroke-width:2; stroke-opacity:0.1; fill:none" points="
  178.867,1245.32 2352.76,1245.32 
  "/>
<polyline clip-path="url(#clip302)" style="stroke:#000000; stroke-width:2; stroke-opacity:0.1; fill:none" points="
  178.867,878.172 2352.76,878.172 
  "/>
<polyline clip-path="url(#clip302)" style="stroke:#000000; stroke-width:2; stroke-opacity:0.1; fill:none" points="
  178.867,511.022 2352.76,511.022 
  "/>
<polyline clip-path="url(#clip302)" style="stroke:#000000; stroke-width:2; stroke-opacity:0.1; fill:none" points="
  178.867,143.873 2352.76,143.873 
  "/>
<polyline clip-path="url(#clip300)" style="stroke:#000000; stroke-width:4; stroke-opacity:1; fill:none" points="
  178.867,1423.18 178.867,47.2441 
  "/>
<polyline clip-path="url(#clip300)" style="stroke:#000000; stroke-width:4; stroke-opacity:1; fill:none" points="
  178.867,1245.32 204.953,1245.32 
  "/>
<polyline clip-path="url(#clip300)" style="stroke:#000000; stroke-width:4; stroke-opacity:1; fill:none" points="
  178.867,878.172 204.953,878.172 
  "/>
<polyline clip-path="url(#clip300)" style="stroke:#000000; stroke-width:4; stroke-opacity:1; fill:none" points="
  178.867,511.022 204.953,511.022 
  "/>
<polyline clip-path="url(#clip300)" style="stroke:#000000; stroke-width:4; stroke-opacity:1; fill:none" points="
  178.867,143.873 204.953,143.873 
  "/>
<path clip-path="url(#clip300)" d="M 0 0 M50.9921 1245.77 L80.6679 1245.77 L80.6679 1249.71 L50.9921 1249.71 L50.9921 1245.77 Z" fill="#000000" fill-rule="evenodd" fill-opacity="1" /><path clip-path="url(#clip300)" d="M 0 0 M91.5706 1258.67 L99.2095 1258.67 L99.2095 1232.3 L90.8993 1233.97 L90.8993 1229.71 L99.1632 1228.04 L103.839 1228.04 L103.839 1258.67 L111.478 1258.67 L111.478 1262.6 L91.5706 1262.6 L91.5706 1258.67 Z" fill="#000000" fill-rule="evenodd" fill-opacity="1" /><path clip-path="url(#clip300)" d="M 0 0 M130.922 1231.12 Q127.311 1231.12 125.482 1234.68 Q123.677 1238.23 123.677 1245.36 Q123.677 1252.46 125.482 1256.03 Q127.311 1259.57 130.922 1259.57 Q134.556 1259.57 136.362 1256.03 Q138.191 1252.46 138.191 1245.36 Q138.191 1238.23 136.362 1234.68 Q134.556 1231.12 130.922 1231.12 M130.922 1227.42 Q136.732 1227.42 139.788 1232.02 Q142.867 1236.61 142.867 1245.36 Q142.867 1254.08 139.788 1258.69 Q136.732 1263.27 130.922 1263.27 Q125.112 1263.27 122.033 1258.69 Q118.978 1254.08 118.978 1245.36 Q118.978 1236.61 122.033 1232.02 Q125.112 1227.42 130.922 1227.42 Z" fill="#000000" fill-rule="evenodd" fill-opacity="1" /><path clip-path="url(#clip300)" d="M 0 0 M82.1494 878.623 L111.825 878.623 L111.825 882.558 L82.1494 882.558 L82.1494 878.623 Z" fill="#000000" fill-rule="evenodd" fill-opacity="1" /><path clip-path="url(#clip300)" d="M 0 0 M121.964 860.892 L140.32 860.892 L140.32 864.827 L126.246 864.827 L126.246 873.299 Q127.265 872.952 128.283 872.79 Q129.302 872.605 130.32 872.605 Q136.107 872.605 139.487 875.776 Q142.867 878.947 142.867 884.364 Q142.867 889.943 139.394 893.044 Q135.922 896.123 129.603 896.123 Q127.427 896.123 125.158 895.753 Q122.913 895.382 120.506 894.642 L120.506 889.943 Q122.589 891.077 124.811 891.632 Q127.033 892.188 129.51 892.188 Q133.515 892.188 135.853 890.081 Q138.191 887.975 138.191 884.364 Q138.191 880.753 135.853 878.646 Q133.515 876.54 129.51 876.54 Q127.635 876.54 125.76 876.956 Q123.908 877.373 121.964 878.253 L121.964 860.892 Z" fill="#000000" fill-rule="evenodd" fill-opacity="1" /><path clip-path="url(#clip300)" d="M 0 0 M130.922 496.821 Q127.311 496.821 125.482 500.386 Q123.677 503.927 123.677 511.057 Q123.677 518.163 125.482 521.728 Q127.311 525.27 130.922 525.27 Q134.556 525.27 136.362 521.728 Q138.191 518.163 138.191 511.057 Q138.191 503.927 136.362 500.386 Q134.556 496.821 130.922 496.821 M130.922 493.117 Q136.732 493.117 139.788 497.724 Q142.867 502.307 142.867 511.057 Q142.867 519.784 139.788 524.39 Q136.732 528.973 130.922 528.973 Q125.112 528.973 122.033 524.39 Q118.978 519.784 118.978 511.057 Q118.978 502.307 122.033 497.724 Q125.112 493.117 130.922 493.117 Z" fill="#000000" fill-rule="evenodd" fill-opacity="1" /><path clip-path="url(#clip300)" d="M 0 0 M121.964 126.593 L140.32 126.593 L140.32 130.528 L126.246 130.528 L126.246 139 Q127.265 138.653 128.283 138.491 Q129.302 138.306 130.32 138.306 Q136.107 138.306 139.487 141.477 Q142.867 144.648 142.867 150.065 Q142.867 155.643 139.394 158.745 Q135.922 161.824 129.603 161.824 Q127.427 161.824 125.158 161.454 Q122.913 161.083 120.506 160.342 L120.506 155.643 Q122.589 156.778 124.811 157.333 Q127.033 157.889 129.51 157.889 Q133.515 157.889 135.853 155.782 Q138.191 153.676 138.191 150.065 Q138.191 146.454 135.853 144.347 Q133.515 142.241 129.51 142.241 Q127.635 142.241 125.76 142.657 Q123.908 143.074 121.964 143.954 L121.964 126.593 Z" fill="#000000" fill-rule="evenodd" fill-opacity="1" /><polyline clip-path="url(#clip302)" style="stroke:#009af9; stroke-width:4; stroke-opacity:1; fill:none" points="
  240.392,86.1857 242.443,96.2273 244.493,106.493 250.646,137.467 260.9,186.03 281.409,264.521 342.934,394.789 383.951,441.18 650.56,605.207 855.643,710.371 
  1265.81,916.924 1675.98,1114.18 2291.23,1384.24 
  "/>
<path clip-path="url(#clip300)" d="
M1933.8 214.069 L2280.29 214.069 L2280.29 93.1086 L1933.8 93.1086  Z
  " fill="#ffffff" fill-rule="evenodd" fill-opacity="1"/>
<polyline clip-path="url(#clip300)" style="stroke:#000000; stroke-width:4; stroke-opacity:1; fill:none" points="
  1933.8,214.069 2280.29,214.069 2280.29,93.1086 1933.8,93.1086 1933.8,214.069 
  "/>
<polyline clip-path="url(#clip300)" style="stroke:#009af9; stroke-width:4; stroke-opacity:1; fill:none" points="
  1957.95,153.589 2102.88,153.589 
  "/>
<path clip-path="url(#clip300)" d="M 0 0 M2134.95 171.54 Q2131.68 171.54 2129.55 169.572 Q2127.03 167.234 2127.03 162.998 Q2127.03 158.6 2129.25 155.174 Q2131.55 151.656 2135.67 151.656 Q2138.37 151.656 2140.5 153.346 Q2141.75 154.341 2142.61 156.008 Q2142.91 154.133 2142.91 152.003 Q2142.91 148.878 2142.17 147.072 Q2140.53 143.068 2136.17 143.068 Q2134.53 143.068 2131.98 144.086 L2131.98 140.197 Q2134.67 139.48 2137.08 139.48 Q2143.28 139.48 2145.92 145.174 Q2147.15 147.859 2147.15 151.864 Q2147.15 154.48 2146.57 157.512 Q2145.11 165.105 2141.34 168.716 Q2138.37 171.54 2134.95 171.54 M2130.99 163.693 Q2130.99 166.008 2132.01 167.258 Q2133.1 168.577 2134.76 168.577 Q2136.24 168.577 2137.42 167.535 Q2139.09 166.1 2140.32 163.762 Q2141.34 161.841 2141.85 159.781 Q2139.79 154.804 2136.22 154.804 Q2133.17 154.804 2131.82 158.832 Q2130.99 161.332 2130.99 163.693 Z" fill="#000000" fill-rule="evenodd" fill-opacity="1" /><path clip-path="url(#clip300)" d="M 0 0 M2153.81 134.85 L2158.07 134.85 L2158.07 170.869 L2153.81 170.869 L2153.81 134.85 Z" fill="#000000" fill-rule="evenodd" fill-opacity="1" /><path clip-path="url(#clip300)" d="M 0 0 M2174.55 136.309 L2178.49 136.309 L2166.45 175.267 L2162.52 175.267 L2174.55 136.309 Z" fill="#000000" fill-rule="evenodd" fill-opacity="1" /><path clip-path="url(#clip300)" d="M 0 0 M2188.6 171.54 Q2185.34 171.54 2183.21 169.572 Q2180.69 167.234 2180.69 162.998 Q2180.69 158.6 2182.91 155.174 Q2185.2 151.656 2189.32 151.656 Q2192.03 151.656 2194.16 153.346 Q2195.41 154.341 2196.27 156.008 Q2196.57 154.133 2196.57 152.003 Q2196.57 148.878 2195.83 147.072 Q2194.18 143.068 2189.83 143.068 Q2188.19 143.068 2185.64 144.086 L2185.64 140.197 Q2188.33 139.48 2190.73 139.48 Q2196.94 139.48 2199.58 145.174 Q2200.8 147.859 2200.8 151.864 Q2200.8 154.48 2200.23 157.512 Q2198.77 165.105 2194.99 168.716 Q2192.03 171.54 2188.6 171.54 M2184.65 163.693 Q2184.65 166.008 2185.67 167.258 Q2186.75 168.577 2188.42 168.577 Q2189.9 168.577 2191.08 167.535 Q2192.75 166.1 2193.98 163.762 Q2194.99 161.841 2195.5 159.781 Q2193.44 154.804 2189.88 154.804 Q2186.82 154.804 2185.48 158.832 Q2184.65 161.332 2184.65 163.693 Z" fill="#000000" fill-rule="evenodd" fill-opacity="1" /><path clip-path="url(#clip300)" d="M 0 0 M2222.59 158.808 L2221.57 153.461 Q2220.53 147.975 2216.41 147.975 Q2213.3 147.975 2211.89 150.522 Q2210.11 153.716 2210.11 157.929 Q2210.11 163.021 2211.85 165.452 Q2213.6 167.929 2216.41 167.929 Q2219.51 167.929 2221.17 162.998 L2222.59 158.808 M2224.97 151.725 L2227.26 144.943 L2231.06 144.943 L2226.31 158.994 L2227.24 164.063 Q2227.45 165.197 2228.26 166.146 Q2229.21 167.258 2229.95 167.258 L2231.98 167.258 L2231.98 170.869 L2229.44 170.869 Q2227.26 170.869 2225.32 168.924 Q2224.37 167.952 2223.98 165.915 Q2222.91 168.484 2220.73 170.498 Q2219.72 171.447 2216.41 171.447 Q2210.97 171.447 2208.33 167.929 Q2205.62 164.295 2205.62 157.929 Q2205.62 151.123 2208.56 147.929 Q2211.82 144.364 2216.41 144.364 Q2223.6 144.364 2224.97 151.725 Z" fill="#000000" fill-rule="evenodd" fill-opacity="1" /></svg>
