<?xml version="1.0" encoding="utf-8"?>
<svg xmlns="http://www.w3.org/2000/svg" xmlns:xlink="http://www.w3.org/1999/xlink" width="600" height="400" viewBox="0 0 2400 1600">
<defs>
  <clipPath id="clip340">
    <rect x="0" y="0" width="2400" height="1600"/>
  </clipPath>
</defs>
<path clip-path="url(#clip340)" d="
M0 1600 L2400 1600 L2400 0 L0 0  Z
  " fill="#ffffff" fill-rule="evenodd" fill-opacity="1"/>
<defs>
  <clipPath id="clip341">
    <rect x="480" y="0" width="1681" height="1600"/>
  </clipPath>
</defs>
<path clip-path="url(#clip340)" d="
M201.274 1423.18 L2352.76 1423.18 L2352.76 47.2441 L201.274 47.2441  Z
  " fill="#ffffff" fill-rule="evenodd" fill-opacity="1"/>
<defs>
  <clipPath id="clip342">
    <rect x="201" y="47" width="2152" height="1377"/>
  </clipPath>
</defs>
<polyline clip-path="url(#clip342)" style="stroke:#000000; stroke-width:2; stroke-opacity:0.1; fill:none" points="
  528.89,1423.18 528.89,47.2441 
  "/>
<polyline clip-path="url(#clip342)" style="stroke:#000000; stroke-width:2; stroke-opacity:0.1; fill:none" points="
  1116.55,1423.18 1116.55,47.2441 
  "/>
<polyline clip-path="url(#clip342)" style="stroke:#000000; stroke-width:2; stroke-opacity:0.1; fill:none" points="
  1704.21,1423.18 1704.21,47.2441 
  "/>
<polyline clip-path="url(#clip342)" style="stroke:#000000; stroke-width:2; stroke-opacity:0.1; fill:none" points="
  2291.86,1423.18 2291.86,47.2441 
  "/>
<polyline clip-path="url(#clip340)" style="stroke:#000000; stroke-width:4; stroke-opacity:1; fill:none" points="
  201.274,1423.18 2352.76,1423.18 
  "/>
<polyline clip-path="url(#clip340)" style="stroke:#000000; stroke-width:4; stroke-opacity:1; fill:none" points="
  528.89,1423.18 528.89,1406.67 
  "/>
<polyline clip-path="url(#clip340)" style="stroke:#000000; stroke-width:4; stroke-opacity:1; fill:none" points="
  1116.55,1423.18 1116.55,1406.67 
  "/>
<polyline clip-path="url(#clip340)" style="stroke:#000000; stroke-width:4; stroke-opacity:1; fill:none" points="
  1704.21,1423.18 1704.21,1406.67 
  "/>
<polyline clip-path="url(#clip340)" style="stroke:#000000; stroke-width:4; stroke-opacity:1; fill:none" points="
  2291.86,1423.18 2291.86,1406.67 
  "/>
<path clip-path="url(#clip340)" d="M 0 0 M497.953 1467.02 L527.628 1467.02 L527.628 1470.96 L497.953 1470.96 L497.953 1467.02 Z" fill="#000000" fill-rule="evenodd" fill-opacity="1" /><path clip-path="url(#clip340)" d="M 0 0 M548.3 1464.71 Q545.151 1464.71 543.3 1466.86 Q541.471 1469.01 541.471 1472.76 Q541.471 1476.49 543.3 1478.67 Q545.151 1480.82 548.3 1480.82 Q551.448 1480.82 553.276 1478.67 Q555.128 1476.49 555.128 1472.76 Q555.128 1469.01 553.276 1466.86 Q551.448 1464.71 548.3 1464.71 M557.582 1450.06 L557.582 1454.31 Q555.823 1453.48 554.017 1453.04 Q552.235 1452.6 550.475 1452.6 Q545.846 1452.6 543.392 1455.73 Q540.962 1458.85 540.614 1465.17 Q541.98 1463.16 544.04 1462.09 Q546.1 1461 548.577 1461 Q553.786 1461 556.795 1464.18 Q559.827 1467.32 559.827 1472.76 Q559.827 1478.09 556.679 1481.31 Q553.531 1484.52 548.3 1484.52 Q542.304 1484.52 539.133 1479.94 Q535.962 1475.33 535.962 1466.61 Q535.962 1458.41 539.85 1453.55 Q543.739 1448.67 550.29 1448.67 Q552.049 1448.67 553.832 1449.01 Q555.637 1449.36 557.582 1450.06 Z" fill="#000000" fill-rule="evenodd" fill-opacity="1" /><path clip-path="url(#clip340)" d="M 0 0 M1085.45 1467.02 L1115.12 1467.02 L1115.12 1470.96 L1085.45 1470.96 L1085.45 1467.02 Z" fill="#000000" fill-rule="evenodd" fill-opacity="1" /><path clip-path="url(#clip340)" d="M 0 0 M1138.06 1453.37 L1126.26 1471.81 L1138.06 1471.81 L1138.06 1453.37 M1136.84 1449.29 L1142.72 1449.29 L1142.72 1471.81 L1147.65 1471.81 L1147.65 1475.7 L1142.72 1475.7 L1142.72 1483.85 L1138.06 1483.85 L1138.06 1475.7 L1122.46 1475.7 L1122.46 1471.19 L1136.84 1449.29 Z" fill="#000000" fill-rule="evenodd" fill-opacity="1" /><path clip-path="url(#clip340)" d="M 0 0 M1674.15 1467.02 L1703.82 1467.02 L1703.82 1470.96 L1674.15 1470.96 L1674.15 1467.02 Z" fill="#000000" fill-rule="evenodd" fill-opacity="1" /><path clip-path="url(#clip340)" d="M 0 0 M1717.94 1479.92 L1734.26 1479.92 L1734.26 1483.85 L1712.32 1483.85 L1712.32 1479.92 Q1714.98 1477.16 1719.57 1472.53 Q1724.17 1467.88 1725.35 1466.54 Q1727.6 1464.01 1728.48 1462.28 Q1729.38 1460.52 1729.38 1458.83 Q1729.38 1456.07 1727.44 1454.34 Q1725.51 1452.6 1722.41 1452.6 Q1720.21 1452.6 1717.76 1453.37 Q1715.33 1454.13 1712.55 1455.68 L1712.55 1450.96 Q1715.38 1449.82 1717.83 1449.25 Q1720.28 1448.67 1722.32 1448.67 Q1727.69 1448.67 1730.88 1451.35 Q1734.08 1454.04 1734.08 1458.53 Q1734.08 1460.66 1733.27 1462.58 Q1732.48 1464.48 1730.38 1467.07 Q1729.8 1467.74 1726.69 1470.96 Q1723.59 1474.15 1717.94 1479.92 Z" fill="#000000" fill-rule="evenodd" fill-opacity="1" /><path clip-path="url(#clip340)" d="M 0 0 M2291.86 1452.37 Q2288.25 1452.37 2286.43 1455.94 Q2284.62 1459.48 2284.62 1466.61 Q2284.62 1473.71 2286.43 1477.28 Q2288.25 1480.82 2291.86 1480.82 Q2295.5 1480.82 2297.3 1477.28 Q2299.13 1473.71 2299.13 1466.61 Q2299.13 1459.48 2297.3 1455.94 Q2295.5 1452.37 2291.86 1452.37 M2291.86 1448.67 Q2297.68 1448.67 2300.73 1453.27 Q2303.81 1457.86 2303.81 1466.61 Q2303.81 1475.33 2300.73 1479.94 Q2297.68 1484.52 2291.86 1484.52 Q2286.05 1484.52 2282.98 1479.94 Q2279.92 1475.33 2279.92 1466.61 Q2279.92 1457.86 2282.98 1453.27 Q2286.05 1448.67 2291.86 1448.67 Z" fill="#000000" fill-rule="evenodd" fill-opacity="1" /><path clip-path="url(#clip340)" d="M 0 0 M1282.22 1551.46 L1280.82 1544.11 Q1279.39 1536.57 1273.72 1536.57 Q1269.46 1536.57 1267.51 1540.07 Q1265.06 1544.46 1265.06 1550.25 Q1265.06 1557.25 1267.45 1560.6 Q1269.87 1564 1273.72 1564 Q1277.99 1564 1280.28 1557.22 L1282.22 1551.46 M1285.5 1541.72 L1288.65 1532.4 L1293.87 1532.4 L1287.34 1551.72 L1288.62 1558.69 Q1288.9 1560.25 1290.02 1561.55 Q1291.32 1563.08 1292.34 1563.08 L1295.14 1563.08 L1295.14 1568.04 L1291.64 1568.04 Q1288.65 1568.04 1285.97 1565.37 Q1284.67 1564.03 1284.13 1561.23 Q1282.66 1564.77 1279.67 1567.53 Q1278.27 1568.84 1273.72 1568.84 Q1266.24 1568.84 1262.61 1564 Q1258.89 1559 1258.89 1550.25 Q1258.89 1540.89 1262.93 1536.5 Q1267.42 1531.6 1273.72 1531.6 Q1283.62 1531.6 1285.5 1541.72 Z" fill="#000000" fill-rule="evenodd" fill-opacity="1" /><polyline clip-path="url(#clip342)" style="stroke:#000000; stroke-width:2; stroke-opacity:0.1; fill:none" points="
  201.274,1329.46 2352.76,1329.46 
  "/>
<polyline clip-path="url(#clip342)" style="stroke:#000000; stroke-width:2; stroke-opacity:0.1; fill:none" points="
  201.274,1134.14 2352.76,1134.14 
  "/>
<polyline clip-path="url(#clip342)" style="stroke:#000000; stroke-width:2; stroke-opacity:0.1; fill:none" points="
  201.274,938.826 2352.76,938.826 
  "/>
<polyline clip-path="url(#clip342)" style="stroke:#000000; stroke-width:2; stroke-opacity:0.1; fill:none" points="
  201.274,743.508 2352.76,743.508 
  "/>
<polyline clip-path="url(#clip342)" style="stroke:#000000; stroke-width:2; stroke-opacity:0.1; fill:none" points="
  201.274,548.19 2352.76,548.19 
  "/>
<polyline clip-path="url(#clip342)" style="stroke:#000000; stroke-width:2; stroke-opacity:0.1; fill:none" points="
  201.274,352.872 2352.76,352.872 
  "/>
<polyline clip-path="url(#clip342)" style="stroke:#000000; stroke-width:2; stroke-opacity:0.1; fill:none" points="
  201.274,157.554 2352.76,157.554 
  "/>
<polyline clip-path="url(#clip340)" style="stroke:#000000; stroke-width:4; stroke-opacity:1; fill:none" points="
  201.274,1423.18 201.274,47.2441 
  "/>
<polyline clip-path="url(#clip340)" style="stroke:#000000; stroke-width:4; stroke-opacity:1; fill:none" points="
  201.274,1329.46 227.092,1329.46 
  "/>
<polyline clip-path="url(#clip340)" style="stroke:#000000; stroke-width:4; stroke-opacity:1; fill:none" points="
  201.274,1134.14 227.092,1134.14 
  "/>
<polyline clip-path="url(#clip340)" style="stroke:#000000; stroke-width:4; stroke-opacity:1; fill:none" points="
  201.274,938.826 227.092,938.826 
  "/>
<polyline clip-path="url(#clip340)" style="stroke:#000000; stroke-width:4; stroke-opacity:1; fill:none" points="
  201.274,743.508 227.092,743.508 
  "/>
<polyline clip-path="url(#clip340)" style="stroke:#000000; stroke-width:4; stroke-opacity:1; fill:none" points="
  201.274,548.19 227.092,548.19 
  "/>
<polyline clip-path="url(#clip340)" style="stroke:#000000; stroke-width:4; stroke-opacity:1; fill:none" points="
  201.274,352.872 227.092,352.872 
  "/>
<polyline clip-path="url(#clip340)" style="stroke:#000000; stroke-width:4; stroke-opacity:1; fill:none" points="
  201.274,157.554 227.092,157.554 
  "/>
<path clip-path="url(#clip340)" d="M 0 0 M51.6634 1312.18 L73.8855 1312.18 L73.8855 1314.17 L61.3393 1346.74 L56.4551 1346.74 L68.2606 1316.12 L51.6634 1316.12 L51.6634 1312.18 Z" fill="#000000" fill-rule="evenodd" fill-opacity="1" /><path clip-path="url(#clip340)" d="M 0 0 M81.8253 1312.18 L104.047 1312.18 L104.047 1314.17 L91.5012 1346.74 L86.6169 1346.74 L98.4224 1316.12 L81.8253 1316.12 L81.8253 1312.18 Z" fill="#000000" fill-rule="evenodd" fill-opacity="1" /><path clip-path="url(#clip340)" d="M 0 0 M123.168 1315.26 Q119.557 1315.26 117.728 1318.83 Q115.922 1322.37 115.922 1329.5 Q115.922 1336.6 117.728 1340.17 Q119.557 1343.71 123.168 1343.71 Q126.802 1343.71 128.607 1340.17 Q130.436 1336.6 130.436 1329.5 Q130.436 1322.37 128.607 1318.83 Q126.802 1315.26 123.168 1315.26 M123.168 1311.56 Q128.978 1311.56 132.033 1316.16 Q135.112 1320.75 135.112 1329.5 Q135.112 1338.22 132.033 1342.83 Q128.978 1347.41 123.168 1347.41 Q117.358 1347.41 114.279 1342.83 Q111.223 1338.22 111.223 1329.5 Q111.223 1320.75 114.279 1316.16 Q117.358 1311.56 123.168 1311.56 Z" fill="#000000" fill-rule="evenodd" fill-opacity="1" /><path clip-path="url(#clip340)" d="M 0 0 M153.33 1315.26 Q149.718 1315.26 147.89 1318.83 Q146.084 1322.37 146.084 1329.5 Q146.084 1336.6 147.89 1340.17 Q149.718 1343.71 153.33 1343.71 Q156.964 1343.71 158.769 1340.17 Q160.598 1336.6 160.598 1329.5 Q160.598 1322.37 158.769 1318.83 Q156.964 1315.26 153.33 1315.26 M153.33 1311.56 Q159.14 1311.56 162.195 1316.16 Q165.274 1320.75 165.274 1329.5 Q165.274 1338.22 162.195 1342.83 Q159.14 1347.41 153.33 1347.41 Q147.519 1347.41 144.441 1342.83 Q141.385 1338.22 141.385 1329.5 Q141.385 1320.75 144.441 1316.16 Q147.519 1311.56 153.33 1311.56 Z" fill="#000000" fill-rule="evenodd" fill-opacity="1" /><path clip-path="url(#clip340)" d="M 0 0 M51.6634 1116.86 L73.8855 1116.86 L73.8855 1118.86 L61.3393 1151.42 L56.4551 1151.42 L68.2606 1120.8 L51.6634 1120.8 L51.6634 1116.86 Z" fill="#000000" fill-rule="evenodd" fill-opacity="1" /><path clip-path="url(#clip340)" d="M 0 0 M93.0058 1135.01 Q89.6725 1135.01 87.7512 1136.79 Q85.8531 1138.58 85.8531 1141.7 Q85.8531 1144.83 87.7512 1146.61 Q89.6725 1148.39 93.0058 1148.39 Q96.3391 1148.39 98.2604 1146.61 Q100.182 1144.8 100.182 1141.7 Q100.182 1138.58 98.2604 1136.79 Q96.3623 1135.01 93.0058 1135.01 M88.3299 1133.02 Q85.3206 1132.28 83.6308 1130.22 Q81.9642 1128.16 81.9642 1125.2 Q81.9642 1121.05 84.904 1118.65 Q87.8669 1116.24 93.0058 1116.24 Q98.1678 1116.24 101.108 1118.65 Q104.047 1121.05 104.047 1125.2 Q104.047 1128.16 102.358 1130.22 Q100.691 1132.28 97.7048 1133.02 Q101.084 1133.81 102.959 1136.1 Q104.858 1138.39 104.858 1141.7 Q104.858 1146.73 101.779 1149.41 Q98.7234 1152.1 93.0058 1152.1 Q87.2882 1152.1 84.2095 1149.41 Q81.154 1146.73 81.154 1141.7 Q81.154 1138.39 83.0521 1136.1 Q84.9503 1133.81 88.3299 1133.02 M86.6169 1125.64 Q86.6169 1128.32 88.2836 1129.83 Q89.9734 1131.33 93.0058 1131.33 Q96.015 1131.33 97.7048 1129.83 Q99.4178 1128.32 99.4178 1125.64 Q99.4178 1122.95 97.7048 1121.45 Q96.015 1119.94 93.0058 1119.94 Q89.9734 1119.94 88.2836 1121.45 Q86.6169 1122.95 86.6169 1125.64 Z" fill="#000000" fill-rule="evenodd" fill-opacity="1" /><path clip-path="url(#clip340)" d="M 0 0 M123.168 1119.94 Q119.557 1119.94 117.728 1123.51 Q115.922 1127.05 115.922 1134.18 Q115.922 1141.29 117.728 1144.85 Q119.557 1148.39 123.168 1148.39 Q126.802 1148.39 128.607 1144.85 Q130.436 1141.29 130.436 1134.18 Q130.436 1127.05 128.607 1123.51 Q126.802 1119.94 123.168 1119.94 M123.168 1116.24 Q128.978 1116.24 132.033 1120.85 Q135.112 1125.43 135.112 1134.18 Q135.112 1142.91 132.033 1147.51 Q128.978 1152.1 123.168 1152.1 Q117.358 1152.1 114.279 1147.51 Q111.223 1142.91 111.223 1134.18 Q111.223 1125.43 114.279 1120.85 Q117.358 1116.24 123.168 1116.24 Z" fill="#000000" fill-rule="evenodd" fill-opacity="1" /><path clip-path="url(#clip340)" d="M 0 0 M153.33 1119.94 Q149.718 1119.94 147.89 1123.51 Q146.084 1127.05 146.084 1134.18 Q146.084 1141.29 147.89 1144.85 Q149.718 1148.39 153.33 1148.39 Q156.964 1148.39 158.769 1144.85 Q160.598 1141.29 160.598 1134.18 Q160.598 1127.05 158.769 1123.51 Q156.964 1119.94 153.33 1119.94 M153.33 1116.24 Q159.14 1116.24 162.195 1120.85 Q165.274 1125.43 165.274 1134.18 Q165.274 1142.91 162.195 1147.51 Q159.14 1152.1 153.33 1152.1 Q147.519 1152.1 144.441 1147.51 Q141.385 1142.91 141.385 1134.18 Q141.385 1125.43 144.441 1120.85 Q147.519 1116.24 153.33 1116.24 Z" fill="#000000" fill-rule="evenodd" fill-opacity="1" /><path clip-path="url(#clip340)" d="M 0 0 M51.6634 921.546 L73.8855 921.546 L73.8855 923.537 L61.3393 956.106 L56.4551 956.106 L68.2606 925.481 L51.6634 925.481 L51.6634 921.546 Z" fill="#000000" fill-rule="evenodd" fill-opacity="1" /><path clip-path="url(#clip340)" d="M 0 0 M83.1447 955.389 L83.1447 951.129 Q84.904 951.963 86.7095 952.403 Q88.5151 952.842 90.2512 952.842 Q94.8808 952.842 97.3113 949.741 Q99.765 946.616 100.112 940.273 Q98.7696 942.264 96.7095 943.329 Q94.6493 944.393 92.1493 944.393 Q86.9642 944.393 83.9318 941.268 Q80.9225 938.12 80.9225 932.681 Q80.9225 927.356 84.0707 924.139 Q87.2188 920.921 92.4502 920.921 Q98.4456 920.921 101.594 925.528 Q104.765 930.111 104.765 938.861 Q104.765 947.032 100.876 951.917 Q97.0104 956.778 90.4595 956.778 Q88.7003 956.778 86.8947 956.43 Q85.0892 956.083 83.1447 955.389 M92.4502 940.736 Q95.5984 940.736 97.4271 938.583 Q99.2789 936.43 99.2789 932.681 Q99.2789 928.954 97.4271 926.801 Q95.5984 924.625 92.4502 924.625 Q89.3021 924.625 87.4503 926.801 Q85.6216 928.954 85.6216 932.681 Q85.6216 936.43 87.4503 938.583 Q89.3021 940.736 92.4502 940.736 Z" fill="#000000" fill-rule="evenodd" fill-opacity="1" /><path clip-path="url(#clip340)" d="M 0 0 M123.168 924.625 Q119.557 924.625 117.728 928.19 Q115.922 931.731 115.922 938.861 Q115.922 945.967 117.728 949.532 Q119.557 953.074 123.168 953.074 Q126.802 953.074 128.607 949.532 Q130.436 945.967 130.436 938.861 Q130.436 931.731 128.607 928.19 Q126.802 924.625 123.168 924.625 M123.168 920.921 Q128.978 920.921 132.033 925.528 Q135.112 930.111 135.112 938.861 Q135.112 947.588 132.033 952.194 Q128.978 956.778 123.168 956.778 Q117.358 956.778 114.279 952.194 Q111.223 947.588 111.223 938.861 Q111.223 930.111 114.279 925.528 Q117.358 920.921 123.168 920.921 Z" fill="#000000" fill-rule="evenodd" fill-opacity="1" /><path clip-path="url(#clip340)" d="M 0 0 M153.33 924.625 Q149.718 924.625 147.89 928.19 Q146.084 931.731 146.084 938.861 Q146.084 945.967 147.89 949.532 Q149.718 953.074 153.33 953.074 Q156.964 953.074 158.769 949.532 Q160.598 945.967 160.598 938.861 Q160.598 931.731 158.769 928.19 Q156.964 924.625 153.33 924.625 M153.33 920.921 Q159.14 920.921 162.195 925.528 Q165.274 930.111 165.274 938.861 Q165.274 947.588 162.195 952.194 Q159.14 956.778 153.33 956.778 Q147.519 956.778 144.441 952.194 Q141.385 947.588 141.385 938.861 Q141.385 930.111 144.441 925.528 Q147.519 920.921 153.33 920.921 Z" fill="#000000" fill-rule="evenodd" fill-opacity="1" /><path clip-path="url(#clip340)" d="M 0 0 M62.8439 744.376 Q59.5106 744.376 57.5893 746.159 Q55.6912 747.941 55.6912 751.066 Q55.6912 754.191 57.5893 755.974 Q59.5106 757.756 62.8439 757.756 Q66.1772 757.756 68.0985 755.974 Q70.0198 754.168 70.0198 751.066 Q70.0198 747.941 68.0985 746.159 Q66.2004 744.376 62.8439 744.376 M58.168 742.386 Q55.1588 741.645 53.469 739.585 Q51.8023 737.525 51.8023 734.562 Q51.8023 730.418 54.7421 728.011 Q57.7051 725.603 62.8439 725.603 Q68.0059 725.603 70.9457 728.011 Q73.8855 730.418 73.8855 734.562 Q73.8855 737.525 72.1957 739.585 Q70.5291 741.645 67.543 742.386 Q70.9226 743.173 72.7976 745.464 Q74.6957 747.756 74.6957 751.066 Q74.6957 756.089 71.617 758.774 Q68.5615 761.46 62.8439 761.46 Q57.1264 761.46 54.0477 758.774 Q50.9921 756.089 50.9921 751.066 Q50.9921 747.756 52.8903 745.464 Q54.7884 743.173 58.168 742.386 M56.4551 735.001 Q56.4551 737.687 58.1217 739.191 Q59.8115 740.696 62.8439 740.696 Q65.8532 740.696 67.543 739.191 Q69.2559 737.687 69.2559 735.001 Q69.2559 732.316 67.543 730.812 Q65.8532 729.307 62.8439 729.307 Q59.8115 729.307 58.1217 730.812 Q56.4551 732.316 56.4551 735.001 Z" fill="#000000" fill-rule="evenodd" fill-opacity="1" /><path clip-path="url(#clip340)" d="M 0 0 M93.0058 729.307 Q89.3947 729.307 87.566 732.872 Q85.7605 736.413 85.7605 743.543 Q85.7605 750.649 87.566 754.214 Q89.3947 757.756 93.0058 757.756 Q96.64 757.756 98.4456 754.214 Q100.274 750.649 100.274 743.543 Q100.274 736.413 98.4456 732.872 Q96.64 729.307 93.0058 729.307 M93.0058 725.603 Q98.8159 725.603 101.871 730.21 Q104.95 734.793 104.95 743.543 Q104.95 752.27 101.871 756.876 Q98.8159 761.46 93.0058 761.46 Q87.1956 761.46 84.1169 756.876 Q81.0614 752.27 81.0614 743.543 Q81.0614 734.793 84.1169 730.21 Q87.1956 725.603 93.0058 725.603 Z" fill="#000000" fill-rule="evenodd" fill-opacity="1" /><path clip-path="url(#clip340)" d="M 0 0 M123.168 729.307 Q119.557 729.307 117.728 732.872 Q115.922 736.413 115.922 743.543 Q115.922 750.649 117.728 754.214 Q119.557 757.756 123.168 757.756 Q126.802 757.756 128.607 754.214 Q130.436 750.649 130.436 743.543 Q130.436 736.413 128.607 732.872 Q126.802 729.307 123.168 729.307 M123.168 725.603 Q128.978 725.603 132.033 730.21 Q135.112 734.793 135.112 743.543 Q135.112 752.27 132.033 756.876 Q128.978 761.46 123.168 761.46 Q117.358 761.46 114.279 756.876 Q111.223 752.27 111.223 743.543 Q111.223 734.793 114.279 730.21 Q117.358 725.603 123.168 725.603 Z" fill="#000000" fill-rule="evenodd" fill-opacity="1" /><path clip-path="url(#clip340)" d="M 0 0 M153.33 729.307 Q149.718 729.307 147.89 732.872 Q146.084 736.413 146.084 743.543 Q146.084 750.649 147.89 754.214 Q149.718 757.756 153.33 757.756 Q156.964 757.756 158.769 754.214 Q160.598 750.649 160.598 743.543 Q160.598 736.413 158.769 732.872 Q156.964 729.307 153.33 729.307 M153.33 725.603 Q159.14 725.603 162.195 730.21 Q165.274 734.793 165.274 743.543 Q165.274 752.27 162.195 756.876 Q159.14 761.46 153.33 761.46 Q147.519 761.46 144.441 756.876 Q141.385 752.27 141.385 743.543 Q141.385 734.793 144.441 730.21 Q147.519 725.603 153.33 725.603 Z" fill="#000000" fill-rule="evenodd" fill-opacity="1" /><path clip-path="url(#clip340)" d="M 0 0 M62.8439 549.058 Q59.5106 549.058 57.5893 550.841 Q55.6912 552.623 55.6912 555.748 Q55.6912 558.873 57.5893 560.656 Q59.5106 562.438 62.8439 562.438 Q66.1772 562.438 68.0985 560.656 Q70.0198 558.85 70.0198 555.748 Q70.0198 552.623 68.0985 550.841 Q66.2004 549.058 62.8439 549.058 M58.168 547.068 Q55.1588 546.327 53.469 544.267 Q51.8023 542.207 51.8023 539.244 Q51.8023 535.1 54.7421 532.693 Q57.7051 530.285 62.8439 530.285 Q68.0059 530.285 70.9457 532.693 Q73.8855 535.1 73.8855 539.244 Q73.8855 542.207 72.1957 544.267 Q70.5291 546.327 67.543 547.068 Q70.9226 547.855 72.7976 550.146 Q74.6957 552.438 74.6957 555.748 Q74.6957 560.771 71.617 563.456 Q68.5615 566.142 62.8439 566.142 Q57.1264 566.142 54.0477 563.456 Q50.9921 560.771 50.9921 555.748 Q50.9921 552.438 52.8903 550.146 Q54.7884 547.855 58.168 547.068 M56.4551 539.683 Q56.4551 542.369 58.1217 543.873 Q59.8115 545.378 62.8439 545.378 Q65.8532 545.378 67.543 543.873 Q69.2559 542.369 69.2559 539.683 Q69.2559 536.998 67.543 535.494 Q65.8532 533.989 62.8439 533.989 Q59.8115 533.989 58.1217 535.494 Q56.4551 536.998 56.4551 539.683 Z" fill="#000000" fill-rule="evenodd" fill-opacity="1" /><path clip-path="url(#clip340)" d="M 0 0 M83.816 561.535 L91.4549 561.535 L91.4549 535.17 L83.1447 536.836 L83.1447 532.577 L91.4086 530.91 L96.0845 530.91 L96.0845 561.535 L103.723 561.535 L103.723 565.47 L83.816 565.47 L83.816 561.535 Z" fill="#000000" fill-rule="evenodd" fill-opacity="1" /><path clip-path="url(#clip340)" d="M 0 0 M123.168 533.989 Q119.557 533.989 117.728 537.554 Q115.922 541.095 115.922 548.225 Q115.922 555.331 117.728 558.896 Q119.557 562.438 123.168 562.438 Q126.802 562.438 128.607 558.896 Q130.436 555.331 130.436 548.225 Q130.436 541.095 128.607 537.554 Q126.802 533.989 123.168 533.989 M123.168 530.285 Q128.978 530.285 132.033 534.892 Q135.112 539.475 135.112 548.225 Q135.112 556.952 132.033 561.558 Q128.978 566.142 123.168 566.142 Q117.358 566.142 114.279 561.558 Q111.223 556.952 111.223 548.225 Q111.223 539.475 114.279 534.892 Q117.358 530.285 123.168 530.285 Z" fill="#000000" fill-rule="evenodd" fill-opacity="1" /><path clip-path="url(#clip340)" d="M 0 0 M153.33 533.989 Q149.718 533.989 147.89 537.554 Q146.084 541.095 146.084 548.225 Q146.084 555.331 147.89 558.896 Q149.718 562.438 153.33 562.438 Q156.964 562.438 158.769 558.896 Q160.598 555.331 160.598 548.225 Q160.598 541.095 158.769 537.554 Q156.964 533.989 153.33 533.989 M153.33 530.285 Q159.14 530.285 162.195 534.892 Q165.274 539.475 165.274 548.225 Q165.274 556.952 162.195 561.558 Q159.14 566.142 153.33 566.142 Q147.519 566.142 144.441 561.558 Q141.385 556.952 141.385 548.225 Q141.385 539.475 144.441 534.892 Q147.519 530.285 153.33 530.285 Z" fill="#000000" fill-rule="evenodd" fill-opacity="1" /><path clip-path="url(#clip340)" d="M 0 0 M62.8439 353.74 Q59.5106 353.74 57.5893 355.523 Q55.6912 357.305 55.6912 360.43 Q55.6912 363.555 57.5893 365.338 Q59.5106 367.12 62.8439 367.12 Q66.1772 367.12 68.0985 365.338 Q70.0198 363.532 70.0198 360.43 Q70.0198 357.305 68.0985 355.523 Q66.2004 353.74 62.8439 353.74 M58.168 351.75 Q55.1588 351.009 53.469 348.949 Q51.8023 346.889 51.8023 343.926 Q51.8023 339.782 54.7421 337.375 Q57.7051 334.967 62.8439 334.967 Q68.0059 334.967 70.9457 337.375 Q73.8855 339.782 73.8855 343.926 Q73.8855 346.889 72.1957 348.949 Q70.5291 351.009 67.543 351.75 Q70.9226 352.537 72.7976 354.828 Q74.6957 357.12 74.6957 360.43 Q74.6957 365.453 71.617 368.138 Q68.5615 370.824 62.8439 370.824 Q57.1264 370.824 54.0477 368.138 Q50.9921 365.453 50.9921 360.43 Q50.9921 357.12 52.8903 354.828 Q54.7884 352.537 58.168 351.75 M56.4551 344.365 Q56.4551 347.051 58.1217 348.555 Q59.8115 350.06 62.8439 350.06 Q65.8532 350.06 67.543 348.555 Q69.2559 347.051 69.2559 344.365 Q69.2559 341.68 67.543 340.176 Q65.8532 338.671 62.8439 338.671 Q59.8115 338.671 58.1217 340.176 Q56.4551 341.68 56.4551 344.365 Z" fill="#000000" fill-rule="evenodd" fill-opacity="1" /><path clip-path="url(#clip340)" d="M 0 0 M87.0336 366.217 L103.353 366.217 L103.353 370.152 L81.4086 370.152 L81.4086 366.217 Q84.0707 363.463 88.654 358.833 Q93.2604 354.18 94.441 352.838 Q96.6863 350.314 97.566 348.578 Q98.4687 346.819 98.4687 345.129 Q98.4687 342.375 96.5243 340.639 Q94.603 338.902 91.5012 338.902 Q89.3021 338.902 86.8484 339.666 Q84.4179 340.43 81.6401 341.981 L81.6401 337.259 Q84.4642 336.125 86.9179 335.546 Q89.3715 334.967 91.4086 334.967 Q96.7789 334.967 99.9733 337.652 Q103.168 340.338 103.168 344.828 Q103.168 346.958 102.358 348.879 Q101.571 350.777 99.4641 353.37 Q98.8854 354.041 95.7836 357.259 Q92.6817 360.453 87.0336 366.217 Z" fill="#000000" fill-rule="evenodd" fill-opacity="1" /><path clip-path="url(#clip340)" d="M 0 0 M123.168 338.671 Q119.557 338.671 117.728 342.236 Q115.922 345.777 115.922 352.907 Q115.922 360.013 117.728 363.578 Q119.557 367.12 123.168 367.12 Q126.802 367.12 128.607 363.578 Q130.436 360.013 130.436 352.907 Q130.436 345.777 128.607 342.236 Q126.802 338.671 123.168 338.671 M123.168 334.967 Q128.978 334.967 132.033 339.574 Q135.112 344.157 135.112 352.907 Q135.112 361.634 132.033 366.24 Q128.978 370.824 123.168 370.824 Q117.358 370.824 114.279 366.24 Q111.223 361.634 111.223 352.907 Q111.223 344.157 114.279 339.574 Q117.358 334.967 123.168 334.967 Z" fill="#000000" fill-rule="evenodd" fill-opacity="1" /><path clip-path="url(#clip340)" d="M 0 0 M153.33 338.671 Q149.718 338.671 147.89 342.236 Q146.084 345.777 146.084 352.907 Q146.084 360.013 147.89 363.578 Q149.718 367.12 153.33 367.12 Q156.964 367.12 158.769 363.578 Q160.598 360.013 160.598 352.907 Q160.598 345.777 158.769 342.236 Q156.964 338.671 153.33 338.671 M153.33 334.967 Q159.14 334.967 162.195 339.574 Q165.274 344.157 165.274 352.907 Q165.274 361.634 162.195 366.24 Q159.14 370.824 153.33 370.824 Q147.519 370.824 144.441 366.24 Q141.385 361.634 141.385 352.907 Q141.385 344.157 144.441 339.574 Q147.519 334.967 153.33 334.967 Z" fill="#000000" fill-rule="evenodd" fill-opacity="1" /><path clip-path="url(#clip340)" d="M 0 0 M62.8439 158.422 Q59.5106 158.422 57.5893 160.205 Q55.6912 161.987 55.6912 165.112 Q55.6912 168.237 57.5893 170.02 Q59.5106 171.802 62.8439 171.802 Q66.1772 171.802 68.0985 170.02 Q70.0198 168.214 70.0198 165.112 Q70.0198 161.987 68.0985 160.205 Q66.2004 158.422 62.8439 158.422 M58.168 156.432 Q55.1588 155.691 53.469 153.631 Q51.8023 151.571 51.8023 148.608 Q51.8023 144.464 54.7421 142.057 Q57.7051 139.649 62.8439 139.649 Q68.0059 139.649 70.9457 142.057 Q73.8855 144.464 73.8855 148.608 Q73.8855 151.571 72.1957 153.631 Q70.5291 155.691 67.543 156.432 Q70.9226 157.219 72.7976 159.51 Q74.6957 161.802 74.6957 165.112 Q74.6957 170.135 71.617 172.82 Q68.5615 175.506 62.8439 175.506 Q57.1264 175.506 54.0477 172.82 Q50.9921 170.135 50.9921 165.112 Q50.9921 161.802 52.8903 159.51 Q54.7884 157.219 58.168 156.432 M56.4551 149.047 Q56.4551 151.733 58.1217 153.237 Q59.8115 154.742 62.8439 154.742 Q65.8532 154.742 67.543 153.237 Q69.2559 151.733 69.2559 149.047 Q69.2559 146.362 67.543 144.858 Q65.8532 143.353 62.8439 143.353 Q59.8115 143.353 58.1217 144.858 Q56.4551 146.362 56.4551 149.047 Z" fill="#000000" fill-rule="evenodd" fill-opacity="1" /><path clip-path="url(#clip340)" d="M 0 0 M97.1724 156.2 Q100.529 156.918 102.404 159.186 Q104.302 161.455 104.302 164.788 Q104.302 169.904 100.784 172.705 Q97.265 175.506 90.7836 175.506 Q88.6077 175.506 86.2929 175.066 Q84.0012 174.649 81.5475 173.793 L81.5475 169.279 Q83.492 170.413 85.8068 170.992 Q88.1216 171.57 90.6447 171.57 Q95.0428 171.57 97.3345 169.834 Q99.6493 168.098 99.6493 164.788 Q99.6493 161.733 97.4965 160.02 Q95.3669 158.283 91.5475 158.283 L87.5197 158.283 L87.5197 154.441 L91.7326 154.441 Q95.1817 154.441 97.0104 153.075 Q98.8391 151.686 98.8391 149.094 Q98.8391 146.432 96.941 145.02 Q95.066 143.584 91.5475 143.584 Q89.6262 143.584 87.4271 144.001 Q85.2281 144.418 82.5892 145.297 L82.5892 141.131 Q85.2512 140.39 87.566 140.02 Q89.904 139.649 91.9641 139.649 Q97.2882 139.649 100.39 142.08 Q103.492 144.487 103.492 148.608 Q103.492 151.478 101.848 153.469 Q100.205 155.436 97.1724 156.2 Z" fill="#000000" fill-rule="evenodd" fill-opacity="1" /><path clip-path="url(#clip340)" d="M 0 0 M123.168 143.353 Q119.557 143.353 117.728 146.918 Q115.922 150.459 115.922 157.589 Q115.922 164.695 117.728 168.26 Q119.557 171.802 123.168 171.802 Q126.802 171.802 128.607 168.26 Q130.436 164.695 130.436 157.589 Q130.436 150.459 128.607 146.918 Q126.802 143.353 123.168 143.353 M123.168 139.649 Q128.978 139.649 132.033 144.256 Q135.112 148.839 135.112 157.589 Q135.112 166.316 132.033 170.922 Q128.978 175.506 123.168 175.506 Q117.358 175.506 114.279 170.922 Q111.223 166.316 111.223 157.589 Q111.223 148.839 114.279 144.256 Q117.358 139.649 123.168 139.649 Z" fill="#000000" fill-rule="evenodd" fill-opacity="1" /><path clip-path="url(#clip340)" d="M 0 0 M153.33 143.353 Q149.718 143.353 147.89 146.918 Q146.084 150.459 146.084 157.589 Q146.084 164.695 147.89 168.26 Q149.718 171.802 153.33 171.802 Q156.964 171.802 158.769 168.26 Q160.598 164.695 160.598 157.589 Q160.598 150.459 158.769 146.918 Q156.964 143.353 153.33 143.353 M153.33 139.649 Q159.14 139.649 162.195 144.256 Q165.274 148.839 165.274 157.589 Q165.274 166.316 162.195 170.922 Q159.14 175.506 153.33 175.506 Q147.519 175.506 144.441 170.922 Q141.385 166.316 141.385 157.589 Q141.385 148.839 144.441 144.256 Q147.519 139.649 153.33 139.649 Z" fill="#000000" fill-rule="evenodd" fill-opacity="1" /><polyline clip-path="url(#clip342)" style="stroke:#009af9; stroke-width:4; stroke-opacity:1; fill:none" points="
  262.165,168.255 465.832,243.292 735.065,433.579 938.732,666.066 1142.4,947.913 1411.63,1260.56 1510.5,1329.16 1818.97,1367.17 1938.1,1294.83 2088.2,1052.45 
  2187.06,716.535 2291.86,92.3889 
  "/>
<polyline clip-path="url(#clip342)" style="stroke:#e26f46; stroke-width:8; stroke-opacity:1; fill:none" points="
  2254.66,92.3889 2217.42,353.645 2180.39,569.654 2143.82,745.658 2107.92,887.265 2072.92,1000 2038.99,1088.99 2006.29,1158.75 1974.96,1213.16 1945.12,1255.41 
  1916.85,1288.09 1890.24,1313.26 1865.33,1332.55 1842.17,1347.23 1820.77,1358.31 1801.14,1366.56 1783.26,1372.6 1767.09,1376.93 1752.57,1379.94 1739.64,1381.94 
  1728.2,1383.2 1718.16,1383.9 1709.39,1384.2 1701.79,1384.24 1695.24,1384.1 
  "/>
<path clip-path="url(#clip340)" d="
M1816.96 274.549 L2281.04 274.549 L2281.04 93.1086 L1816.96 93.1086  Z
  " fill="#ffffff" fill-rule="evenodd" fill-opacity="1"/>
<polyline clip-path="url(#clip340)" style="stroke:#000000; stroke-width:4; stroke-opacity:1; fill:none" points="
  1816.96,274.549 2281.04,274.549 2281.04,93.1086 1816.96,93.1086 1816.96,274.549 
  "/>
<polyline clip-path="url(#clip340)" style="stroke:#009af9; stroke-width:4; stroke-opacity:1; fill:none" points="
  1840.87,153.589 1984.3,153.589 
  "/>
<path clip-path="url(#clip340)" d="M 0 0 M2008.21 136.309 L2015.17 136.309 L2023.99 159.827 L2032.86 136.309 L2039.83 136.309 L2039.83 170.869 L2035.27 170.869 L2035.27 140.522 L2026.36 164.225 L2021.66 164.225 L2012.74 140.522 L2012.74 170.869 L2008.21 170.869 L2008.21 136.309 Z" fill="#000000" fill-rule="evenodd" fill-opacity="1" /><path clip-path="url(#clip340)" d="M 0 0 M2069.83 137.443 L2069.83 142.003 Q2067.17 140.73 2064.8 140.105 Q2062.44 139.48 2060.24 139.48 Q2056.42 139.48 2054.34 140.961 Q2052.28 142.443 2052.28 145.174 Q2052.28 147.466 2053.65 148.647 Q2055.04 149.804 2058.88 150.522 L2061.7 151.1 Q2066.93 152.096 2069.41 154.619 Q2071.91 157.119 2071.91 161.332 Q2071.91 166.355 2068.53 168.947 Q2065.17 171.54 2058.67 171.54 Q2056.22 171.54 2053.44 170.984 Q2050.68 170.429 2047.72 169.341 L2047.72 164.526 Q2050.57 166.123 2053.3 166.933 Q2056.03 167.744 2058.67 167.744 Q2062.67 167.744 2064.85 166.17 Q2067.03 164.596 2067.03 161.679 Q2067.03 159.133 2065.45 157.697 Q2063.9 156.262 2060.34 155.545 L2057.49 154.989 Q2052.26 153.947 2049.92 151.725 Q2047.58 149.503 2047.58 145.545 Q2047.58 140.961 2050.8 138.322 Q2054.04 135.684 2059.71 135.684 Q2062.14 135.684 2064.67 136.123 Q2067.19 136.563 2069.83 137.443 Z" fill="#000000" fill-rule="evenodd" fill-opacity="1" /><path clip-path="url(#clip340)" d="M 0 0 M2079.2 136.309 L2101.05 136.309 L2101.05 140.244 L2083.88 140.244 L2083.88 150.475 L2100.34 150.475 L2100.34 154.41 L2083.88 154.41 L2083.88 166.933 L2101.47 166.933 L2101.47 170.869 L2079.2 170.869 L2079.2 136.309 Z" fill="#000000" fill-rule="evenodd" fill-opacity="1" /><polyline clip-path="url(#clip340)" style="stroke:#e26f46; stroke-width:4; stroke-opacity:1; fill:none" points="
  1840.87,214.069 1984.3,214.069 
  "/>
<path clip-path="url(#clip340)" d="M 0 0 M2033.76 226.418 L2033.76 217.136 L2026.12 217.136 L2026.12 213.293 L2038.39 213.293 L2038.39 228.131 Q2035.68 230.052 2032.42 231.048 Q2029.16 232.02 2025.45 232.02 Q2017.35 232.02 2012.77 227.298 Q2008.21 222.552 2008.21 214.103 Q2008.21 205.631 2012.77 200.909 Q2017.35 196.164 2025.45 196.164 Q2028.83 196.164 2031.86 196.997 Q2034.92 197.83 2037.49 199.451 L2037.49 204.427 Q2034.9 202.228 2031.98 201.117 Q2029.06 200.006 2025.85 200.006 Q2019.5 200.006 2016.31 203.548 Q2013.14 207.089 2013.14 214.103 Q2013.14 221.094 2016.31 224.636 Q2019.5 228.177 2025.85 228.177 Q2028.32 228.177 2030.27 227.761 Q2032.21 227.321 2033.76 226.418 Z" fill="#000000" fill-rule="evenodd" fill-opacity="1" /><path clip-path="url(#clip340)" d="M 0 0 M2047.35 225.469 L2052.23 225.469 L2052.23 231.349 L2047.35 231.349 L2047.35 225.469 Z" fill="#000000" fill-rule="evenodd" fill-opacity="1" /><path clip-path="url(#clip340)" d="M 0 0 M2066.68 200.631 L2066.68 227.506 L2072.33 227.506 Q2079.48 227.506 2082.79 224.265 Q2086.12 221.025 2086.12 214.034 Q2086.12 207.089 2082.79 203.872 Q2079.48 200.631 2072.33 200.631 L2066.68 200.631 M2062 196.789 L2071.61 196.789 Q2081.66 196.789 2086.35 200.978 Q2091.05 205.145 2091.05 214.034 Q2091.05 222.969 2086.33 227.159 Q2081.61 231.349 2071.61 231.349 L2062 231.349 L2062 196.789 Z" fill="#000000" fill-rule="evenodd" fill-opacity="1" /><path clip-path="url(#clip340)" d="M 0 0 M2098.92 225.469 L2103.81 225.469 L2103.81 231.349 L2098.92 231.349 L2098.92 225.469 Z" fill="#000000" fill-rule="evenodd" fill-opacity="1" /><path clip-path="url(#clip340)" d="M 0 0 M2141.59 195.33 L2141.59 198.872 L2137.51 198.872 Q2135.22 198.872 2134.32 199.798 Q2133.44 200.724 2133.44 203.131 L2133.44 205.423 L2140.45 205.423 L2140.45 208.733 L2133.44 208.733 L2133.44 231.349 L2129.16 231.349 L2129.16 208.733 L2125.08 208.733 L2125.08 205.423 L2129.16 205.423 L2129.16 203.617 Q2129.16 199.289 2131.17 197.321 Q2133.18 195.33 2137.56 195.33 L2141.59 195.33 Z" fill="#000000" fill-rule="evenodd" fill-opacity="1" /><path clip-path="url(#clip340)" d="M 0 0 M2155.2 208.409 Q2151.77 208.409 2149.78 211.094 Q2147.79 213.756 2147.79 218.409 Q2147.79 223.062 2149.76 225.747 Q2151.75 228.409 2155.2 228.409 Q2158.6 228.409 2160.59 225.724 Q2162.58 223.038 2162.58 218.409 Q2162.58 213.802 2160.59 211.117 Q2158.6 208.409 2155.2 208.409 M2155.2 204.798 Q2160.75 204.798 2163.92 208.409 Q2167.1 212.02 2167.1 218.409 Q2167.1 224.775 2163.92 228.409 Q2160.75 232.02 2155.2 232.02 Q2149.62 232.02 2146.45 228.409 Q2143.3 224.775 2143.3 218.409 Q2143.3 212.02 2146.45 208.409 Q2149.62 204.798 2155.2 204.798 Z" fill="#000000" fill-rule="evenodd" fill-opacity="1" /><path clip-path="url(#clip340)" d="M 0 0 M2189.18 209.404 Q2188.46 208.988 2187.6 208.802 Q2186.77 208.594 2185.75 208.594 Q2182.14 208.594 2180.2 210.955 Q2178.28 213.293 2178.28 217.691 L2178.28 231.349 L2173.99 231.349 L2173.99 205.423 L2178.28 205.423 L2178.28 209.451 Q2179.62 207.089 2181.77 205.955 Q2183.92 204.798 2187 204.798 Q2187.44 204.798 2187.97 204.867 Q2188.51 204.914 2189.16 205.029 L2189.18 209.404 Z" fill="#000000" fill-rule="evenodd" fill-opacity="1" /><path clip-path="url(#clip340)" d="M 0 0 M2223.83 219.288 L2222.81 213.941 Q2221.77 208.455 2217.65 208.455 Q2214.55 208.455 2213.14 211.002 Q2211.35 214.196 2211.35 218.409 Q2211.35 223.501 2213.09 225.932 Q2214.85 228.409 2217.65 228.409 Q2220.75 228.409 2222.42 223.478 L2223.83 219.288 M2226.22 212.205 L2228.51 205.423 L2232.3 205.423 L2227.56 219.474 L2228.48 224.543 Q2228.69 225.677 2229.5 226.626 Q2230.45 227.738 2231.19 227.738 L2233.23 227.738 L2233.23 231.349 L2230.68 231.349 Q2228.51 231.349 2226.56 229.404 Q2225.61 228.432 2225.22 226.395 Q2224.16 228.964 2221.98 230.978 Q2220.96 231.927 2217.65 231.927 Q2212.21 231.927 2209.57 228.409 Q2206.86 224.775 2206.86 218.409 Q2206.86 211.603 2209.8 208.409 Q2213.07 204.844 2217.65 204.844 Q2224.85 204.844 2226.22 212.205 Z" fill="#000000" fill-rule="evenodd" fill-opacity="1" /></svg>
