<?xml version="1.0" encoding="utf-8"?>
<svg xmlns="http://www.w3.org/2000/svg" xmlns:xlink="http://www.w3.org/1999/xlink" width="600" height="400" viewBox="0 0 2400 1600">
<defs>
  <clipPath id="clip220">
    <rect x="0" y="0" width="2400" height="1600"/>
  </clipPath>
</defs>
<path clip-path="url(#clip220)" d="
M0 1600 L2400 1600 L2400 0 L0 0  Z
  " fill="#ffffff" fill-rule="evenodd" fill-opacity="1"/>
<defs>
  <clipPath id="clip221">
    <rect x="480" y="0" width="1681" height="1600"/>
  </clipPath>
</defs>
<path clip-path="url(#clip220)" d="
M201.274 1423.18 L2352.76 1423.18 L2352.76 47.2441 L201.274 47.2441  Z
  " fill="#ffffff" fill-rule="evenodd" fill-opacity="1"/>
<defs>
  <clipPath id="clip222">
    <rect x="201" y="47" width="2152" height="1377"/>
  </clipPath>
</defs>
<polyline clip-path="url(#clip222)" style="stroke:#000000; stroke-width:2; stroke-opacity:0.1; fill:none" points="
  528.89,1423.18 528.89,47.2441 
  "/>
<polyline clip-path="url(#clip222)" style="stroke:#000000; stroke-width:2; stroke-opacity:0.1; fill:none" points="
  1116.55,1423.18 1116.55,47.2441 
  "/>
<polyline clip-path="url(#clip222)" style="stroke:#000000; stroke-width:2; stroke-opacity:0.1; fill:none" points="
  1704.21,1423.18 1704.21,47.2441 
  "/>
<polyline clip-path="url(#clip222)" style="stroke:#000000; stroke-width:2; stroke-opacity:0.1; fill:none" points="
  2291.86,1423.18 2291.86,47.2441 
  "/>
<polyline clip-path="url(#clip220)" style="stroke:#000000; stroke-width:4; stroke-opacity:1; fill:none" points="
  201.274,1423.18 2352.76,1423.18 
  "/>
<polyline clip-path="url(#clip220)" style="stroke:#000000; stroke-width:4; stroke-opacity:1; fill:none" points="
  528.89,1423.18 528.89,1406.67 
  "/>
<polyline clip-path="url(#clip220)" style="stroke:#000000; stroke-width:4; stroke-opacity:1; fill:none" points="
  1116.55,1423.18 1116.55,1406.67 
  "/>
<polyline clip-path="url(#clip220)" style="stroke:#000000; stroke-width:4; stroke-opacity:1; fill:none" points="
  1704.21,1423.18 1704.21,1406.67 
  "/>
<polyline clip-path="url(#clip220)" style="stroke:#000000; stroke-width:4; stroke-opacity:1; fill:none" points="
  2291.86,1423.18 2291.86,1406.67 
  "/>
<path clip-path="url(#clip220)" d="M 0 0 M497.953 1467.02 L527.628 1467.02 L527.628 1470.96 L497.953 1470.96 L497.953 1467.02 Z" fill="#000000" fill-rule="evenodd" fill-opacity="1" /><path clip-path="url(#clip220)" d="M 0 0 M548.3 1464.71 Q545.151 1464.71 543.3 1466.86 Q541.471 1469.01 541.471 1472.76 Q541.471 1476.49 543.3 1478.67 Q545.151 1480.82 548.3 1480.82 Q551.448 1480.82 553.276 1478.67 Q555.128 1476.49 555.128 1472.76 Q555.128 1469.01 553.276 1466.86 Q551.448 1464.71 548.3 1464.71 M557.582 1450.06 L557.582 1454.31 Q555.823 1453.48 554.017 1453.04 Q552.235 1452.6 550.475 1452.6 Q545.846 1452.6 543.392 1455.73 Q540.962 1458.85 540.614 1465.17 Q541.98 1463.16 544.04 1462.09 Q546.1 1461 548.577 1461 Q553.786 1461 556.795 1464.18 Q559.827 1467.32 559.827 1472.76 Q559.827 1478.09 556.679 1481.31 Q553.531 1484.52 548.3 1484.52 Q542.304 1484.52 539.133 1479.94 Q535.962 1475.33 535.962 1466.61 Q535.962 1458.41 539.85 1453.55 Q543.739 1448.67 550.29 1448.67 Q552.049 1448.67 553.832 1449.01 Q555.637 1449.36 557.582 1450.06 Z" fill="#000000" fill-rule="evenodd" fill-opacity="1" /><path clip-path="url(#clip220)" d="M 0 0 M1085.45 1467.02 L1115.12 1467.02 L1115.12 1470.96 L1085.45 1470.96 L1085.45 1467.02 Z" fill="#000000" fill-rule="evenodd" fill-opacity="1" /><path clip-path="url(#clip220)" d="M 0 0 M1138.06 1453.37 L1126.26 1471.81 L1138.06 1471.81 L1138.06 1453.37 M1136.84 1449.29 L1142.72 1449.29 L1142.72 1471.81 L1147.65 1471.81 L1147.65 1475.7 L1142.72 1475.7 L1142.72 1483.85 L1138.06 1483.85 L1138.06 1475.7 L1122.46 1475.7 L1122.46 1471.19 L1136.84 1449.29 Z" fill="#000000" fill-rule="evenodd" fill-opacity="1" /><path clip-path="url(#clip220)" d="M 0 0 M1674.15 1467.02 L1703.82 1467.02 L1703.82 1470.96 L1674.15 1470.96 L1674.15 1467.02 Z" fill="#000000" fill-rule="evenodd" fill-opacity="1" /><path clip-path="url(#clip220)" d="M 0 0 M1717.94 1479.92 L1734.26 1479.92 L1734.26 1483.85 L1712.32 1483.85 L1712.32 1479.92 Q1714.98 1477.16 1719.57 1472.53 Q1724.17 1467.88 1725.35 1466.54 Q1727.6 1464.01 1728.48 1462.28 Q1729.38 1460.52 1729.38 1458.83 Q1729.38 1456.07 1727.44 1454.34 Q1725.51 1452.6 1722.41 1452.6 Q1720.21 1452.6 1717.76 1453.37 Q1715.33 1454.13 1712.55 1455.68 L1712.55 1450.96 Q1715.38 1449.82 1717.83 1449.25 Q1720.28 1448.67 1722.32 1448.67 Q1727.69 1448.67 1730.88 1451.35 Q1734.08 1454.04 1734.08 1458.53 Q1734.08 1460.66 1733.27 1462.58 Q1732.48 1464.48 1730.38 1467.07 Q1729.8 1467.74 1726.69 1470.96 Q1723.59 1474.15 1717.94 1479.92 Z" fill="#000000" fill-rule="evenodd" fill-opacity="1" /><path clip-path="url(#clip220)" d="M 0 0 M2291.86 1452.37 Q2288.25 1452.37 2286.43 1455.94 Q2284.62 1459.48 2284.62 1466.61 Q2284.62 1473.71 2286.43 1477.28 Q2288.25 1480.82 2291.86 1480.82 Q2295.5 1480.82 2297.3 1477.28 Q2299.13 1473.71 2299.13 1466.61 Q2299.13 1459.48 2297.3 1455.94 Q2295.5 1452.37 2291.86 1452.37 M2291.86 1448.67 Q2297.68 1448.67 2300.73 1453.27 Q2303.81 1457.86 2303.81 1466.61 Q2303.81 1475.33 2300.73 1479.94 Q2297.68 1484.52 2291.86 1484.52 Q2286.05 1484.52 2282.98 1479.94 Q2279.92 1475.33 2279.92 1466.61 Q2279.92 1457.86 2282.98 1453.27 Q2286.05 1448.67 2291.86 1448.67 Z" fill="#000000" fill-rule="evenodd" fill-opacity="1" /><path clip-path="url(#clip220)" d="M 0 0 M1186.29 1518.52 L1192.14 1518.52 L1192.14 1568.04 L1186.29 1568.04 L1186.29 1518.52 Z" fill="#000000" fill-rule="evenodd" fill-opacity="1" /><path clip-path="url(#clip220)" d="M 0 0 M1218.21 1536.5 Q1213.5 1536.5 1210.76 1540.19 Q1208.03 1543.85 1208.03 1550.25 Q1208.03 1556.65 1210.73 1560.34 Q1213.47 1564 1218.21 1564 Q1222.89 1564 1225.63 1560.31 Q1228.37 1556.62 1228.37 1550.25 Q1228.37 1543.92 1225.63 1540.23 Q1222.89 1536.5 1218.21 1536.5 M1218.21 1531.54 Q1225.85 1531.54 1230.21 1536.5 Q1234.57 1541.47 1234.57 1550.25 Q1234.57 1559 1230.21 1564 Q1225.85 1568.97 1218.21 1568.97 Q1210.54 1568.97 1206.18 1564 Q1201.85 1559 1201.85 1550.25 Q1201.85 1541.47 1206.18 1536.5 Q1210.54 1531.54 1218.21 1531.54 Z" fill="#000000" fill-rule="evenodd" fill-opacity="1" /><path clip-path="url(#clip220)" d="M 0 0 M1267.74 1549.81 Q1267.74 1543.44 1265.1 1539.94 Q1262.49 1536.44 1257.74 1536.44 Q1253.03 1536.44 1250.39 1539.94 Q1247.78 1543.44 1247.78 1549.81 Q1247.78 1556.14 1250.39 1559.64 Q1253.03 1563.14 1257.74 1563.14 Q1262.49 1563.14 1265.1 1559.64 Q1267.74 1556.14 1267.74 1549.81 M1273.59 1563.62 Q1273.59 1572.72 1269.55 1577.15 Q1265.51 1581.6 1257.17 1581.6 Q1254.08 1581.6 1251.35 1581.13 Q1248.61 1580.68 1246.03 1579.72 L1246.03 1574.03 Q1248.61 1575.43 1251.12 1576.1 Q1253.64 1576.76 1256.25 1576.76 Q1262.01 1576.76 1264.87 1573.74 Q1267.74 1570.75 1267.74 1564.67 L1267.74 1561.77 Q1265.92 1564.92 1263.09 1566.48 Q1260.26 1568.04 1256.31 1568.04 Q1249.75 1568.04 1245.74 1563.05 Q1241.73 1558.05 1241.73 1549.81 Q1241.73 1541.53 1245.74 1536.53 Q1249.75 1531.54 1256.31 1531.54 Q1260.26 1531.54 1263.09 1533.1 Q1265.92 1534.66 1267.74 1537.81 L1267.74 1532.4 L1273.59 1532.4 L1273.59 1563.62 Z" fill="#000000" fill-rule="evenodd" fill-opacity="1" /><path clip-path="url(#clip220)" d="M 0 0 M1299.72 1518.58 Q1295.46 1525.9 1293.39 1533.06 Q1291.32 1540.23 1291.32 1547.58 Q1291.32 1554.93 1293.39 1562.16 Q1295.49 1569.35 1299.72 1576.64 L1294.63 1576.64 Q1289.86 1569.16 1287.47 1561.93 Q1285.12 1554.71 1285.12 1547.58 Q1285.12 1540.48 1287.47 1533.29 Q1289.83 1526.09 1294.63 1518.58 L1299.72 1518.58 Z" fill="#000000" fill-rule="evenodd" fill-opacity="1" /><path clip-path="url(#clip220)" d="M 0 0 M1331.87 1551.46 L1330.47 1544.11 Q1329.04 1536.57 1323.37 1536.57 Q1319.11 1536.57 1317.17 1540.07 Q1314.72 1544.46 1314.72 1550.25 Q1314.72 1557.25 1317.1 1560.6 Q1319.52 1564 1323.37 1564 Q1327.64 1564 1329.93 1557.22 L1331.87 1551.46 M1335.15 1541.72 L1338.3 1532.4 L1343.52 1532.4 L1337 1551.72 L1338.27 1558.69 Q1338.56 1560.25 1339.67 1561.55 Q1340.97 1563.08 1341.99 1563.08 L1344.79 1563.08 L1344.79 1568.04 L1341.29 1568.04 Q1338.3 1568.04 1335.63 1565.37 Q1334.32 1564.03 1333.78 1561.23 Q1332.32 1564.77 1329.33 1567.53 Q1327.92 1568.84 1323.37 1568.84 Q1315.89 1568.84 1312.27 1564 Q1308.54 1559 1308.54 1550.25 Q1308.54 1540.89 1312.58 1536.5 Q1317.07 1531.6 1323.37 1531.6 Q1333.27 1531.6 1335.15 1541.72 Z" fill="#000000" fill-rule="evenodd" fill-opacity="1" /><path clip-path="url(#clip220)" d="M 0 0 M1353.13 1518.58 L1358.23 1518.58 Q1363 1526.09 1365.36 1533.29 Q1367.74 1540.48 1367.74 1547.58 Q1367.74 1554.71 1365.36 1561.93 Q1363 1569.16 1358.23 1576.64 L1353.13 1576.64 Q1357.37 1569.35 1359.43 1562.16 Q1361.54 1554.93 1361.54 1547.58 Q1361.54 1540.23 1359.43 1533.06 Q1357.37 1525.9 1353.13 1518.58 Z" fill="#000000" fill-rule="evenodd" fill-opacity="1" /><polyline clip-path="url(#clip222)" style="stroke:#000000; stroke-width:2; stroke-opacity:0.1; fill:none" points="
  201.274,1346.02 2352.76,1346.02 
  "/>
<polyline clip-path="url(#clip222)" style="stroke:#000000; stroke-width:2; stroke-opacity:0.1; fill:none" points="
  201.274,1148.1 2352.76,1148.1 
  "/>
<polyline clip-path="url(#clip222)" style="stroke:#000000; stroke-width:2; stroke-opacity:0.1; fill:none" points="
  201.274,950.185 2352.76,950.185 
  "/>
<polyline clip-path="url(#clip222)" style="stroke:#000000; stroke-width:2; stroke-opacity:0.1; fill:none" points="
  201.274,752.265 2352.76,752.265 
  "/>
<polyline clip-path="url(#clip222)" style="stroke:#000000; stroke-width:2; stroke-opacity:0.1; fill:none" points="
  201.274,554.345 2352.76,554.345 
  "/>
<polyline clip-path="url(#clip222)" style="stroke:#000000; stroke-width:2; stroke-opacity:0.1; fill:none" points="
  201.274,356.425 2352.76,356.425 
  "/>
<polyline clip-path="url(#clip222)" style="stroke:#000000; stroke-width:2; stroke-opacity:0.1; fill:none" points="
  201.274,158.505 2352.76,158.505 
  "/>
<polyline clip-path="url(#clip220)" style="stroke:#000000; stroke-width:4; stroke-opacity:1; fill:none" points="
  201.274,1423.18 201.274,47.2441 
  "/>
<polyline clip-path="url(#clip220)" style="stroke:#000000; stroke-width:4; stroke-opacity:1; fill:none" points="
  201.274,1346.02 227.092,1346.02 
  "/>
<polyline clip-path="url(#clip220)" style="stroke:#000000; stroke-width:4; stroke-opacity:1; fill:none" points="
  201.274,1148.1 227.092,1148.1 
  "/>
<polyline clip-path="url(#clip220)" style="stroke:#000000; stroke-width:4; stroke-opacity:1; fill:none" points="
  201.274,950.185 227.092,950.185 
  "/>
<polyline clip-path="url(#clip220)" style="stroke:#000000; stroke-width:4; stroke-opacity:1; fill:none" points="
  201.274,752.265 227.092,752.265 
  "/>
<polyline clip-path="url(#clip220)" style="stroke:#000000; stroke-width:4; stroke-opacity:1; fill:none" points="
  201.274,554.345 227.092,554.345 
  "/>
<polyline clip-path="url(#clip220)" style="stroke:#000000; stroke-width:4; stroke-opacity:1; fill:none" points="
  201.274,356.425 227.092,356.425 
  "/>
<polyline clip-path="url(#clip220)" style="stroke:#000000; stroke-width:4; stroke-opacity:1; fill:none" points="
  201.274,158.505 227.092,158.505 
  "/>
<path clip-path="url(#clip220)" d="M 0 0 M51.6634 1328.74 L73.8855 1328.74 L73.8855 1330.74 L61.3393 1363.3 L56.4551 1363.3 L68.2606 1332.68 L51.6634 1332.68 L51.6634 1328.74 Z" fill="#000000" fill-rule="evenodd" fill-opacity="1" /><path clip-path="url(#clip220)" d="M 0 0 M81.8253 1328.74 L104.047 1328.74 L104.047 1330.74 L91.5012 1363.3 L86.6169 1363.3 L98.4224 1332.68 L81.8253 1332.68 L81.8253 1328.74 Z" fill="#000000" fill-rule="evenodd" fill-opacity="1" /><path clip-path="url(#clip220)" d="M 0 0 M123.168 1331.82 Q119.557 1331.82 117.728 1335.39 Q115.922 1338.93 115.922 1346.06 Q115.922 1353.17 117.728 1356.73 Q119.557 1360.27 123.168 1360.27 Q126.802 1360.27 128.607 1356.73 Q130.436 1353.17 130.436 1346.06 Q130.436 1338.93 128.607 1335.39 Q126.802 1331.82 123.168 1331.82 M123.168 1328.12 Q128.978 1328.12 132.033 1332.73 Q135.112 1337.31 135.112 1346.06 Q135.112 1354.79 132.033 1359.39 Q128.978 1363.98 123.168 1363.98 Q117.358 1363.98 114.279 1359.39 Q111.223 1354.79 111.223 1346.06 Q111.223 1337.31 114.279 1332.73 Q117.358 1328.12 123.168 1328.12 Z" fill="#000000" fill-rule="evenodd" fill-opacity="1" /><path clip-path="url(#clip220)" d="M 0 0 M153.33 1331.82 Q149.718 1331.82 147.89 1335.39 Q146.084 1338.93 146.084 1346.06 Q146.084 1353.17 147.89 1356.73 Q149.718 1360.27 153.33 1360.27 Q156.964 1360.27 158.769 1356.73 Q160.598 1353.17 160.598 1346.06 Q160.598 1338.93 158.769 1335.39 Q156.964 1331.82 153.33 1331.82 M153.33 1328.12 Q159.14 1328.12 162.195 1332.73 Q165.274 1337.31 165.274 1346.06 Q165.274 1354.79 162.195 1359.39 Q159.14 1363.98 153.33 1363.98 Q147.519 1363.98 144.441 1359.39 Q141.385 1354.79 141.385 1346.06 Q141.385 1337.31 144.441 1332.73 Q147.519 1328.12 153.33 1328.12 Z" fill="#000000" fill-rule="evenodd" fill-opacity="1" /><path clip-path="url(#clip220)" d="M 0 0 M51.6634 1130.82 L73.8855 1130.82 L73.8855 1132.82 L61.3393 1165.38 L56.4551 1165.38 L68.2606 1134.76 L51.6634 1134.76 L51.6634 1130.82 Z" fill="#000000" fill-rule="evenodd" fill-opacity="1" /><path clip-path="url(#clip220)" d="M 0 0 M93.0058 1148.97 Q89.6725 1148.97 87.7512 1150.76 Q85.8531 1152.54 85.8531 1155.66 Q85.8531 1158.79 87.7512 1160.57 Q89.6725 1162.35 93.0058 1162.35 Q96.3391 1162.35 98.2604 1160.57 Q100.182 1158.76 100.182 1155.66 Q100.182 1152.54 98.2604 1150.76 Q96.3623 1148.97 93.0058 1148.97 M88.3299 1146.98 Q85.3206 1146.24 83.6308 1144.18 Q81.9642 1142.12 81.9642 1139.16 Q81.9642 1135.01 84.904 1132.61 Q87.8669 1130.2 93.0058 1130.2 Q98.1678 1130.2 101.108 1132.61 Q104.047 1135.01 104.047 1139.16 Q104.047 1142.12 102.358 1144.18 Q100.691 1146.24 97.7048 1146.98 Q101.084 1147.77 102.959 1150.06 Q104.858 1152.35 104.858 1155.66 Q104.858 1160.69 101.779 1163.37 Q98.7234 1166.06 93.0058 1166.06 Q87.2882 1166.06 84.2095 1163.37 Q81.154 1160.69 81.154 1155.66 Q81.154 1152.35 83.0521 1150.06 Q84.9503 1147.77 88.3299 1146.98 M86.6169 1139.6 Q86.6169 1142.28 88.2836 1143.79 Q89.9734 1145.29 93.0058 1145.29 Q96.015 1145.29 97.7048 1143.79 Q99.4178 1142.28 99.4178 1139.6 Q99.4178 1136.91 97.7048 1135.41 Q96.015 1133.9 93.0058 1133.9 Q89.9734 1133.9 88.2836 1135.41 Q86.6169 1136.91 86.6169 1139.6 Z" fill="#000000" fill-rule="evenodd" fill-opacity="1" /><path clip-path="url(#clip220)" d="M 0 0 M123.168 1133.9 Q119.557 1133.9 117.728 1137.47 Q115.922 1141.01 115.922 1148.14 Q115.922 1155.25 117.728 1158.81 Q119.557 1162.35 123.168 1162.35 Q126.802 1162.35 128.607 1158.81 Q130.436 1155.25 130.436 1148.14 Q130.436 1141.01 128.607 1137.47 Q126.802 1133.9 123.168 1133.9 M123.168 1130.2 Q128.978 1130.2 132.033 1134.81 Q135.112 1139.39 135.112 1148.14 Q135.112 1156.87 132.033 1161.47 Q128.978 1166.06 123.168 1166.06 Q117.358 1166.06 114.279 1161.47 Q111.223 1156.87 111.223 1148.14 Q111.223 1139.39 114.279 1134.81 Q117.358 1130.2 123.168 1130.2 Z" fill="#000000" fill-rule="evenodd" fill-opacity="1" /><path clip-path="url(#clip220)" d="M 0 0 M153.33 1133.9 Q149.718 1133.9 147.89 1137.47 Q146.084 1141.01 146.084 1148.14 Q146.084 1155.25 147.89 1158.81 Q149.718 1162.35 153.33 1162.35 Q156.964 1162.35 158.769 1158.81 Q160.598 1155.25 160.598 1148.14 Q160.598 1141.01 158.769 1137.47 Q156.964 1133.9 153.33 1133.9 M153.33 1130.2 Q159.14 1130.2 162.195 1134.81 Q165.274 1139.39 165.274 1148.14 Q165.274 1156.87 162.195 1161.47 Q159.14 1166.06 153.33 1166.06 Q147.519 1166.06 144.441 1161.47 Q141.385 1156.87 141.385 1148.14 Q141.385 1139.39 144.441 1134.81 Q147.519 1130.2 153.33 1130.2 Z" fill="#000000" fill-rule="evenodd" fill-opacity="1" /><path clip-path="url(#clip220)" d="M 0 0 M51.6634 932.905 L73.8855 932.905 L73.8855 934.896 L61.3393 967.465 L56.4551 967.465 L68.2606 936.84 L51.6634 936.84 L51.6634 932.905 Z" fill="#000000" fill-rule="evenodd" fill-opacity="1" /><path clip-path="url(#clip220)" d="M 0 0 M83.1447 966.747 L83.1447 962.488 Q84.904 963.321 86.7095 963.761 Q88.5151 964.201 90.2512 964.201 Q94.8808 964.201 97.3113 961.099 Q99.765 957.974 100.112 951.632 Q98.7696 953.622 96.7095 954.687 Q94.6493 955.752 92.1493 955.752 Q86.9642 955.752 83.9318 952.627 Q80.9225 949.479 80.9225 944.039 Q80.9225 938.715 84.0707 935.497 Q87.2188 932.28 92.4502 932.28 Q98.4456 932.28 101.594 936.886 Q104.765 941.47 104.765 950.22 Q104.765 958.391 100.876 963.275 Q97.0104 968.136 90.4595 968.136 Q88.7003 968.136 86.8947 967.789 Q85.0892 967.442 83.1447 966.747 M92.4502 952.095 Q95.5984 952.095 97.4271 949.942 Q99.2789 947.789 99.2789 944.039 Q99.2789 940.312 97.4271 938.159 Q95.5984 935.984 92.4502 935.984 Q89.3021 935.984 87.4503 938.159 Q85.6216 940.312 85.6216 944.039 Q85.6216 947.789 87.4503 949.942 Q89.3021 952.095 92.4502 952.095 Z" fill="#000000" fill-rule="evenodd" fill-opacity="1" /><path clip-path="url(#clip220)" d="M 0 0 M123.168 935.984 Q119.557 935.984 117.728 939.548 Q115.922 943.09 115.922 950.22 Q115.922 957.326 117.728 960.891 Q119.557 964.432 123.168 964.432 Q126.802 964.432 128.607 960.891 Q130.436 957.326 130.436 950.22 Q130.436 943.09 128.607 939.548 Q126.802 935.984 123.168 935.984 M123.168 932.28 Q128.978 932.28 132.033 936.886 Q135.112 941.47 135.112 950.22 Q135.112 958.946 132.033 963.553 Q128.978 968.136 123.168 968.136 Q117.358 968.136 114.279 963.553 Q111.223 958.946 111.223 950.22 Q111.223 941.47 114.279 936.886 Q117.358 932.28 123.168 932.28 Z" fill="#000000" fill-rule="evenodd" fill-opacity="1" /><path clip-path="url(#clip220)" d="M 0 0 M153.33 935.984 Q149.718 935.984 147.89 939.548 Q146.084 943.09 146.084 950.22 Q146.084 957.326 147.89 960.891 Q149.718 964.432 153.33 964.432 Q156.964 964.432 158.769 960.891 Q160.598 957.326 160.598 950.22 Q160.598 943.09 158.769 939.548 Q156.964 935.984 153.33 935.984 M153.33 932.28 Q159.14 932.28 162.195 936.886 Q165.274 941.47 165.274 950.22 Q165.274 958.946 162.195 963.553 Q159.14 968.136 153.33 968.136 Q147.519 968.136 144.441 963.553 Q141.385 958.946 141.385 950.22 Q141.385 941.47 144.441 936.886 Q147.519 932.28 153.33 932.28 Z" fill="#000000" fill-rule="evenodd" fill-opacity="1" /><path clip-path="url(#clip220)" d="M 0 0 M62.8439 753.133 Q59.5106 753.133 57.5893 754.915 Q55.6912 756.698 55.6912 759.823 Q55.6912 762.948 57.5893 764.73 Q59.5106 766.512 62.8439 766.512 Q66.1772 766.512 68.0985 764.73 Q70.0198 762.925 70.0198 759.823 Q70.0198 756.698 68.0985 754.915 Q66.2004 753.133 62.8439 753.133 M58.168 751.142 Q55.1588 750.401 53.469 748.341 Q51.8023 746.281 51.8023 743.318 Q51.8023 739.175 54.7421 736.767 Q57.7051 734.36 62.8439 734.36 Q68.0059 734.36 70.9457 736.767 Q73.8855 739.175 73.8855 743.318 Q73.8855 746.281 72.1957 748.341 Q70.5291 750.401 67.543 751.142 Q70.9226 751.929 72.7976 754.221 Q74.6957 756.513 74.6957 759.823 Q74.6957 764.846 71.617 767.531 Q68.5615 770.216 62.8439 770.216 Q57.1264 770.216 54.0477 767.531 Q50.9921 764.846 50.9921 759.823 Q50.9921 756.513 52.8903 754.221 Q54.7884 751.929 58.168 751.142 M56.4551 743.758 Q56.4551 746.443 58.1217 747.948 Q59.8115 749.452 62.8439 749.452 Q65.8532 749.452 67.543 747.948 Q69.2559 746.443 69.2559 743.758 Q69.2559 741.073 67.543 739.568 Q65.8532 738.064 62.8439 738.064 Q59.8115 738.064 58.1217 739.568 Q56.4551 741.073 56.4551 743.758 Z" fill="#000000" fill-rule="evenodd" fill-opacity="1" /><path clip-path="url(#clip220)" d="M 0 0 M93.0058 738.064 Q89.3947 738.064 87.566 741.628 Q85.7605 745.17 85.7605 752.3 Q85.7605 759.406 87.566 762.971 Q89.3947 766.512 93.0058 766.512 Q96.64 766.512 98.4456 762.971 Q100.274 759.406 100.274 752.3 Q100.274 745.17 98.4456 741.628 Q96.64 738.064 93.0058 738.064 M93.0058 734.36 Q98.8159 734.36 101.871 738.966 Q104.95 743.55 104.95 752.3 Q104.95 761.026 101.871 765.633 Q98.8159 770.216 93.0058 770.216 Q87.1956 770.216 84.1169 765.633 Q81.0614 761.026 81.0614 752.3 Q81.0614 743.55 84.1169 738.966 Q87.1956 734.36 93.0058 734.36 Z" fill="#000000" fill-rule="evenodd" fill-opacity="1" /><path clip-path="url(#clip220)" d="M 0 0 M123.168 738.064 Q119.557 738.064 117.728 741.628 Q115.922 745.17 115.922 752.3 Q115.922 759.406 117.728 762.971 Q119.557 766.512 123.168 766.512 Q126.802 766.512 128.607 762.971 Q130.436 759.406 130.436 752.3 Q130.436 745.17 128.607 741.628 Q126.802 738.064 123.168 738.064 M123.168 734.36 Q128.978 734.36 132.033 738.966 Q135.112 743.55 135.112 752.3 Q135.112 761.026 132.033 765.633 Q128.978 770.216 123.168 770.216 Q117.358 770.216 114.279 765.633 Q111.223 761.026 111.223 752.3 Q111.223 743.55 114.279 738.966 Q117.358 734.36 123.168 734.36 Z" fill="#000000" fill-rule="evenodd" fill-opacity="1" /><path clip-path="url(#clip220)" d="M 0 0 M153.33 738.064 Q149.718 738.064 147.89 741.628 Q146.084 745.17 146.084 752.3 Q146.084 759.406 147.89 762.971 Q149.718 766.512 153.33 766.512 Q156.964 766.512 158.769 762.971 Q160.598 759.406 160.598 752.3 Q160.598 745.17 158.769 741.628 Q156.964 738.064 153.33 738.064 M153.33 734.36 Q159.14 734.36 162.195 738.966 Q165.274 743.55 165.274 752.3 Q165.274 761.026 162.195 765.633 Q159.14 770.216 153.33 770.216 Q147.519 770.216 144.441 765.633 Q141.385 761.026 141.385 752.3 Q141.385 743.55 144.441 738.966 Q147.519 734.36 153.33 734.36 Z" fill="#000000" fill-rule="evenodd" fill-opacity="1" /><path clip-path="url(#clip220)" d="M 0 0 M62.8439 555.213 Q59.5106 555.213 57.5893 556.995 Q55.6912 558.778 55.6912 561.903 Q55.6912 565.028 57.5893 566.81 Q59.5106 568.593 62.8439 568.593 Q66.1772 568.593 68.0985 566.81 Q70.0198 565.005 70.0198 561.903 Q70.0198 558.778 68.0985 556.995 Q66.2004 555.213 62.8439 555.213 M58.168 553.222 Q55.1588 552.482 53.469 550.421 Q51.8023 548.361 51.8023 545.398 Q51.8023 541.255 54.7421 538.847 Q57.7051 536.44 62.8439 536.44 Q68.0059 536.44 70.9457 538.847 Q73.8855 541.255 73.8855 545.398 Q73.8855 548.361 72.1957 550.421 Q70.5291 552.482 67.543 553.222 Q70.9226 554.009 72.7976 556.301 Q74.6957 558.593 74.6957 561.903 Q74.6957 566.926 71.617 569.611 Q68.5615 572.296 62.8439 572.296 Q57.1264 572.296 54.0477 569.611 Q50.9921 566.926 50.9921 561.903 Q50.9921 558.593 52.8903 556.301 Q54.7884 554.009 58.168 553.222 M56.4551 545.838 Q56.4551 548.523 58.1217 550.028 Q59.8115 551.532 62.8439 551.532 Q65.8532 551.532 67.543 550.028 Q69.2559 548.523 69.2559 545.838 Q69.2559 543.153 67.543 541.648 Q65.8532 540.144 62.8439 540.144 Q59.8115 540.144 58.1217 541.648 Q56.4551 543.153 56.4551 545.838 Z" fill="#000000" fill-rule="evenodd" fill-opacity="1" /><path clip-path="url(#clip220)" d="M 0 0 M83.816 567.69 L91.4549 567.69 L91.4549 541.324 L83.1447 542.991 L83.1447 538.732 L91.4086 537.065 L96.0845 537.065 L96.0845 567.69 L103.723 567.69 L103.723 571.625 L83.816 571.625 L83.816 567.69 Z" fill="#000000" fill-rule="evenodd" fill-opacity="1" /><path clip-path="url(#clip220)" d="M 0 0 M123.168 540.144 Q119.557 540.144 117.728 543.708 Q115.922 547.25 115.922 554.38 Q115.922 561.486 117.728 565.051 Q119.557 568.593 123.168 568.593 Q126.802 568.593 128.607 565.051 Q130.436 561.486 130.436 554.38 Q130.436 547.25 128.607 543.708 Q126.802 540.144 123.168 540.144 M123.168 536.44 Q128.978 536.44 132.033 541.046 Q135.112 545.63 135.112 554.38 Q135.112 563.106 132.033 567.713 Q128.978 572.296 123.168 572.296 Q117.358 572.296 114.279 567.713 Q111.223 563.106 111.223 554.38 Q111.223 545.63 114.279 541.046 Q117.358 536.44 123.168 536.44 Z" fill="#000000" fill-rule="evenodd" fill-opacity="1" /><path clip-path="url(#clip220)" d="M 0 0 M153.33 540.144 Q149.718 540.144 147.89 543.708 Q146.084 547.25 146.084 554.38 Q146.084 561.486 147.89 565.051 Q149.718 568.593 153.33 568.593 Q156.964 568.593 158.769 565.051 Q160.598 561.486 160.598 554.38 Q160.598 547.25 158.769 543.708 Q156.964 540.144 153.33 540.144 M153.33 536.44 Q159.14 536.44 162.195 541.046 Q165.274 545.63 165.274 554.38 Q165.274 563.106 162.195 567.713 Q159.14 572.296 153.33 572.296 Q147.519 572.296 144.441 567.713 Q141.385 563.106 141.385 554.38 Q141.385 545.63 144.441 541.046 Q147.519 536.44 153.33 536.44 Z" fill="#000000" fill-rule="evenodd" fill-opacity="1" /><path clip-path="url(#clip220)" d="M 0 0 M62.8439 357.293 Q59.5106 357.293 57.5893 359.075 Q55.6912 360.858 55.6912 363.983 Q55.6912 367.108 57.5893 368.89 Q59.5106 370.673 62.8439 370.673 Q66.1772 370.673 68.0985 368.89 Q70.0198 367.085 70.0198 363.983 Q70.0198 360.858 68.0985 359.075 Q66.2004 357.293 62.8439 357.293 M58.168 355.302 Q55.1588 354.562 53.469 352.501 Q51.8023 350.441 51.8023 347.478 Q51.8023 343.335 54.7421 340.927 Q57.7051 338.52 62.8439 338.52 Q68.0059 338.52 70.9457 340.927 Q73.8855 343.335 73.8855 347.478 Q73.8855 350.441 72.1957 352.501 Q70.5291 354.562 67.543 355.302 Q70.9226 356.089 72.7976 358.381 Q74.6957 360.673 74.6957 363.983 Q74.6957 369.006 71.617 371.691 Q68.5615 374.376 62.8439 374.376 Q57.1264 374.376 54.0477 371.691 Q50.9921 369.006 50.9921 363.983 Q50.9921 360.673 52.8903 358.381 Q54.7884 356.089 58.168 355.302 M56.4551 347.918 Q56.4551 350.603 58.1217 352.108 Q59.8115 353.613 62.8439 353.613 Q65.8532 353.613 67.543 352.108 Q69.2559 350.603 69.2559 347.918 Q69.2559 345.233 67.543 343.728 Q65.8532 342.224 62.8439 342.224 Q59.8115 342.224 58.1217 343.728 Q56.4551 345.233 56.4551 347.918 Z" fill="#000000" fill-rule="evenodd" fill-opacity="1" /><path clip-path="url(#clip220)" d="M 0 0 M87.0336 369.77 L103.353 369.77 L103.353 373.705 L81.4086 373.705 L81.4086 369.77 Q84.0707 367.015 88.654 362.386 Q93.2604 357.733 94.441 356.39 Q96.6863 353.867 97.566 352.131 Q98.4687 350.372 98.4687 348.682 Q98.4687 345.927 96.5243 344.191 Q94.603 342.455 91.5012 342.455 Q89.3021 342.455 86.8484 343.219 Q84.4179 343.983 81.6401 345.534 L81.6401 340.812 Q84.4642 339.677 86.9179 339.099 Q89.3715 338.52 91.4086 338.52 Q96.7789 338.52 99.9733 341.205 Q103.168 343.89 103.168 348.381 Q103.168 350.511 102.358 352.432 Q101.571 354.33 99.4641 356.923 Q98.8854 357.594 95.7836 360.812 Q92.6817 364.006 87.0336 369.77 Z" fill="#000000" fill-rule="evenodd" fill-opacity="1" /><path clip-path="url(#clip220)" d="M 0 0 M123.168 342.224 Q119.557 342.224 117.728 345.788 Q115.922 349.33 115.922 356.46 Q115.922 363.566 117.728 367.131 Q119.557 370.673 123.168 370.673 Q126.802 370.673 128.607 367.131 Q130.436 363.566 130.436 356.46 Q130.436 349.33 128.607 345.788 Q126.802 342.224 123.168 342.224 M123.168 338.52 Q128.978 338.52 132.033 343.126 Q135.112 347.71 135.112 356.46 Q135.112 365.187 132.033 369.793 Q128.978 374.376 123.168 374.376 Q117.358 374.376 114.279 369.793 Q111.223 365.187 111.223 356.46 Q111.223 347.71 114.279 343.126 Q117.358 338.52 123.168 338.52 Z" fill="#000000" fill-rule="evenodd" fill-opacity="1" /><path clip-path="url(#clip220)" d="M 0 0 M153.33 342.224 Q149.718 342.224 147.89 345.788 Q146.084 349.33 146.084 356.46 Q146.084 363.566 147.89 367.131 Q149.718 370.673 153.33 370.673 Q156.964 370.673 158.769 367.131 Q160.598 363.566 160.598 356.46 Q160.598 349.33 158.769 345.788 Q156.964 342.224 153.33 342.224 M153.33 338.52 Q159.14 338.52 162.195 343.126 Q165.274 347.71 165.274 356.46 Q165.274 365.187 162.195 369.793 Q159.14 374.376 153.33 374.376 Q147.519 374.376 144.441 369.793 Q141.385 365.187 141.385 356.46 Q141.385 347.71 144.441 343.126 Q147.519 338.52 153.33 338.52 Z" fill="#000000" fill-rule="evenodd" fill-opacity="1" /><path clip-path="url(#clip220)" d="M 0 0 M62.8439 159.373 Q59.5106 159.373 57.5893 161.156 Q55.6912 162.938 55.6912 166.063 Q55.6912 169.188 57.5893 170.97 Q59.5106 172.753 62.8439 172.753 Q66.1772 172.753 68.0985 170.97 Q70.0198 169.165 70.0198 166.063 Q70.0198 162.938 68.0985 161.156 Q66.2004 159.373 62.8439 159.373 M58.168 157.382 Q55.1588 156.642 53.469 154.581 Q51.8023 152.521 51.8023 149.558 Q51.8023 145.415 54.7421 143.007 Q57.7051 140.6 62.8439 140.6 Q68.0059 140.6 70.9457 143.007 Q73.8855 145.415 73.8855 149.558 Q73.8855 152.521 72.1957 154.581 Q70.5291 156.642 67.543 157.382 Q70.9226 158.169 72.7976 160.461 Q74.6957 162.753 74.6957 166.063 Q74.6957 171.086 71.617 173.771 Q68.5615 176.456 62.8439 176.456 Q57.1264 176.456 54.0477 173.771 Q50.9921 171.086 50.9921 166.063 Q50.9921 162.753 52.8903 160.461 Q54.7884 158.169 58.168 157.382 M56.4551 149.998 Q56.4551 152.683 58.1217 154.188 Q59.8115 155.693 62.8439 155.693 Q65.8532 155.693 67.543 154.188 Q69.2559 152.683 69.2559 149.998 Q69.2559 147.313 67.543 145.808 Q65.8532 144.304 62.8439 144.304 Q59.8115 144.304 58.1217 145.808 Q56.4551 147.313 56.4551 149.998 Z" fill="#000000" fill-rule="evenodd" fill-opacity="1" /><path clip-path="url(#clip220)" d="M 0 0 M97.1724 157.151 Q100.529 157.868 102.404 160.137 Q104.302 162.405 104.302 165.739 Q104.302 170.855 100.784 173.655 Q97.265 176.456 90.7836 176.456 Q88.6077 176.456 86.2929 176.017 Q84.0012 175.6 81.5475 174.743 L81.5475 170.23 Q83.492 171.364 85.8068 171.942 Q88.1216 172.521 90.6447 172.521 Q95.0428 172.521 97.3345 170.785 Q99.6493 169.049 99.6493 165.739 Q99.6493 162.683 97.4965 160.97 Q95.3669 159.234 91.5475 159.234 L87.5197 159.234 L87.5197 155.392 L91.7326 155.392 Q95.1817 155.392 97.0104 154.026 Q98.8391 152.637 98.8391 150.044 Q98.8391 147.382 96.941 145.97 Q95.066 144.535 91.5475 144.535 Q89.6262 144.535 87.4271 144.952 Q85.2281 145.369 82.5892 146.248 L82.5892 142.082 Q85.2512 141.341 87.566 140.97 Q89.904 140.6 91.9641 140.6 Q97.2882 140.6 100.39 143.031 Q103.492 145.438 103.492 149.558 Q103.492 152.429 101.848 154.419 Q100.205 156.387 97.1724 157.151 Z" fill="#000000" fill-rule="evenodd" fill-opacity="1" /><path clip-path="url(#clip220)" d="M 0 0 M123.168 144.304 Q119.557 144.304 117.728 147.869 Q115.922 151.41 115.922 158.54 Q115.922 165.646 117.728 169.211 Q119.557 172.753 123.168 172.753 Q126.802 172.753 128.607 169.211 Q130.436 165.646 130.436 158.54 Q130.436 151.41 128.607 147.869 Q126.802 144.304 123.168 144.304 M123.168 140.6 Q128.978 140.6 132.033 145.207 Q135.112 149.79 135.112 158.54 Q135.112 167.267 132.033 171.873 Q128.978 176.456 123.168 176.456 Q117.358 176.456 114.279 171.873 Q111.223 167.267 111.223 158.54 Q111.223 149.79 114.279 145.207 Q117.358 140.6 123.168 140.6 Z" fill="#000000" fill-rule="evenodd" fill-opacity="1" /><path clip-path="url(#clip220)" d="M 0 0 M153.33 144.304 Q149.718 144.304 147.89 147.869 Q146.084 151.41 146.084 158.54 Q146.084 165.646 147.89 169.211 Q149.718 172.753 153.33 172.753 Q156.964 172.753 158.769 169.211 Q160.598 165.646 160.598 158.54 Q160.598 151.41 158.769 147.869 Q156.964 144.304 153.33 144.304 M153.33 140.6 Q159.14 140.6 162.195 145.207 Q165.274 149.79 165.274 158.54 Q165.274 167.267 162.195 171.873 Q159.14 176.456 153.33 176.456 Q147.519 176.456 144.441 171.873 Q141.385 167.267 141.385 158.54 Q141.385 149.79 144.441 145.207 Q147.519 140.6 153.33 140.6 Z" fill="#000000" fill-rule="evenodd" fill-opacity="1" /><polyline clip-path="url(#clip222)" style="stroke:#009af9; stroke-width:4; stroke-opacity:1; fill:none" points="
  262.165,169.349 465.832,245.385 735.065,438.207 938.732,673.791 1142.4,959.393 1411.63,1276.2 1510.5,1345.72 1818.97,1384.24 1938.1,1310.93 2088.2,1065.33 
  2187.06,724.933 2291.86,92.4716 
  "/>
<path clip-path="url(#clip220)" d="
M1948.72 214.069 L2281.04 214.069 L2281.04 93.1086 L1948.72 93.1086  Z
  " fill="#ffffff" fill-rule="evenodd" fill-opacity="1"/>
<polyline clip-path="url(#clip220)" style="stroke:#000000; stroke-width:4; stroke-opacity:1; fill:none" points="
  1948.72,214.069 2281.04,214.069 2281.04,93.1086 1948.72,93.1086 1948.72,214.069 
  "/>
<polyline clip-path="url(#clip220)" style="stroke:#009af9; stroke-width:4; stroke-opacity:1; fill:none" points="
  1972.63,153.589 2116.06,153.589 
  "/>
<path clip-path="url(#clip220)" d="M 0 0 M2139.97 136.309 L2146.93 136.309 L2155.75 159.827 L2164.62 136.309 L2171.59 136.309 L2171.59 170.869 L2167.03 170.869 L2167.03 140.522 L2158.11 164.225 L2153.41 164.225 L2144.5 140.522 L2144.5 170.869 L2139.97 170.869 L2139.97 136.309 Z" fill="#000000" fill-rule="evenodd" fill-opacity="1" /><path clip-path="url(#clip220)" d="M 0 0 M2201.59 137.443 L2201.59 142.003 Q2198.92 140.73 2196.56 140.105 Q2194.2 139.48 2192 139.48 Q2188.18 139.48 2186.1 140.961 Q2184.04 142.443 2184.04 145.174 Q2184.04 147.466 2185.41 148.647 Q2186.79 149.804 2190.64 150.522 L2193.46 151.1 Q2198.69 152.096 2201.17 154.619 Q2203.67 157.119 2203.67 161.332 Q2203.67 166.355 2200.29 168.947 Q2196.93 171.54 2190.43 171.54 Q2187.97 171.54 2185.2 170.984 Q2182.44 170.429 2179.48 169.341 L2179.48 164.526 Q2182.33 166.123 2185.06 166.933 Q2187.79 167.744 2190.43 167.744 Q2194.43 167.744 2196.61 166.17 Q2198.78 164.596 2198.78 161.679 Q2198.78 159.133 2197.21 157.697 Q2195.66 156.262 2192.1 155.545 L2189.25 154.989 Q2184.02 153.947 2181.68 151.725 Q2179.34 149.503 2179.34 145.545 Q2179.34 140.961 2182.56 138.322 Q2185.8 135.684 2191.47 135.684 Q2193.9 135.684 2196.42 136.123 Q2198.95 136.563 2201.59 137.443 Z" fill="#000000" fill-rule="evenodd" fill-opacity="1" /><path clip-path="url(#clip220)" d="M 0 0 M2210.96 136.309 L2232.81 136.309 L2232.81 140.244 L2215.64 140.244 L2215.64 150.475 L2232.09 150.475 L2232.09 154.41 L2215.64 154.41 L2215.64 166.933 L2233.23 166.933 L2233.23 170.869 L2210.96 170.869 L2210.96 136.309 Z" fill="#000000" fill-rule="evenodd" fill-opacity="1" /></svg>
