<?xml version="1.0" encoding="utf-8"?>
<svg xmlns="http://www.w3.org/2000/svg" xmlns:xlink="http://www.w3.org/1999/xlink" width="600" height="400" viewBox="0 0 2400 1600">
<defs>
  <clipPath id="clip8000">
    <rect x="0" y="0" width="2400" height="1600"/>
  </clipPath>
</defs>
<path clip-path="url(#clip8000)" d="
M0 1600 L2400 1600 L2400 8.88178e-14 L0 8.88178e-14  Z
  " fill="#ffffff" fill-rule="evenodd" fill-opacity="1"/>
<defs>
  <clipPath id="clip8001">
    <rect x="480" y="0" width="1681" height="1600"/>
  </clipPath>
</defs>
<path clip-path="url(#clip8000)" d="
M125.256 1486.45 L2352.76 1486.45 L2352.76 47.2441 L125.256 47.2441  Z
  " fill="#ffffff" fill-rule="evenodd" fill-opacity="1"/>
<defs>
  <clipPath id="clip8002">
    <rect x="125" y="47" width="2229" height="1440"/>
  </clipPath>
</defs>
<polyline clip-path="url(#clip8002)" style="stroke:#000000; stroke-width:2; stroke-opacity:0.1; fill:none" points="
  465.771,1486.45 465.771,47.2441 
  "/>
<polyline clip-path="url(#clip8002)" style="stroke:#000000; stroke-width:2; stroke-opacity:0.1; fill:none" points="
  903.986,1486.45 903.986,47.2441 
  "/>
<polyline clip-path="url(#clip8002)" style="stroke:#000000; stroke-width:2; stroke-opacity:0.1; fill:none" points="
  1342.2,1486.45 1342.2,47.2441 
  "/>
<polyline clip-path="url(#clip8002)" style="stroke:#000000; stroke-width:2; stroke-opacity:0.1; fill:none" points="
  1780.42,1486.45 1780.42,47.2441 
  "/>
<polyline clip-path="url(#clip8002)" style="stroke:#000000; stroke-width:2; stroke-opacity:0.1; fill:none" points="
  2218.63,1486.45 2218.63,47.2441 
  "/>
<polyline clip-path="url(#clip8002)" style="stroke:#000000; stroke-width:2; stroke-opacity:0.1; fill:none" points="
  125.256,1366.66 2352.76,1366.66 
  "/>
<polyline clip-path="url(#clip8002)" style="stroke:#000000; stroke-width:2; stroke-opacity:0.1; fill:none" points="
  125.256,1062.04 2352.76,1062.04 
  "/>
<polyline clip-path="url(#clip8002)" style="stroke:#000000; stroke-width:2; stroke-opacity:0.1; fill:none" points="
  125.256,757.417 2352.76,757.417 
  "/>
<polyline clip-path="url(#clip8002)" style="stroke:#000000; stroke-width:2; stroke-opacity:0.1; fill:none" points="
  125.256,452.794 2352.76,452.794 
  "/>
<polyline clip-path="url(#clip8002)" style="stroke:#000000; stroke-width:2; stroke-opacity:0.1; fill:none" points="
  125.256,148.171 2352.76,148.171 
  "/>
<polyline clip-path="url(#clip8000)" style="stroke:#000000; stroke-width:4; stroke-opacity:1; fill:none" points="
  125.256,1486.45 2352.76,1486.45 
  "/>
<polyline clip-path="url(#clip8000)" style="stroke:#000000; stroke-width:4; stroke-opacity:1; fill:none" points="
  125.256,1486.45 125.256,47.2441 
  "/>
<polyline clip-path="url(#clip8000)" style="stroke:#000000; stroke-width:4; stroke-opacity:1; fill:none" points="
  465.771,1486.45 465.771,1469.18 
  "/>
<polyline clip-path="url(#clip8000)" style="stroke:#000000; stroke-width:4; stroke-opacity:1; fill:none" points="
  903.986,1486.45 903.986,1469.18 
  "/>
<polyline clip-path="url(#clip8000)" style="stroke:#000000; stroke-width:4; stroke-opacity:1; fill:none" points="
  1342.2,1486.45 1342.2,1469.18 
  "/>
<polyline clip-path="url(#clip8000)" style="stroke:#000000; stroke-width:4; stroke-opacity:1; fill:none" points="
  1780.42,1486.45 1780.42,1469.18 
  "/>
<polyline clip-path="url(#clip8000)" style="stroke:#000000; stroke-width:4; stroke-opacity:1; fill:none" points="
  2218.63,1486.45 2218.63,1469.18 
  "/>
<polyline clip-path="url(#clip8000)" style="stroke:#000000; stroke-width:4; stroke-opacity:1; fill:none" points="
  125.256,1366.66 151.986,1366.66 
  "/>
<polyline clip-path="url(#clip8000)" style="stroke:#000000; stroke-width:4; stroke-opacity:1; fill:none" points="
  125.256,1062.04 151.986,1062.04 
  "/>
<polyline clip-path="url(#clip8000)" style="stroke:#000000; stroke-width:4; stroke-opacity:1; fill:none" points="
  125.256,757.417 151.986,757.417 
  "/>
<polyline clip-path="url(#clip8000)" style="stroke:#000000; stroke-width:4; stroke-opacity:1; fill:none" points="
  125.256,452.794 151.986,452.794 
  "/>
<polyline clip-path="url(#clip8000)" style="stroke:#000000; stroke-width:4; stroke-opacity:1; fill:none" points="
  125.256,148.171 151.986,148.171 
  "/>
<path clip-path="url(#clip8000)" d="M 0 0 M446.825 1525.04 L459.301 1525.04 L459.301 1528.83 L446.825 1528.83 L446.825 1525.04 Z" fill="#000000" fill-rule="evenodd" fill-opacity="1" /><path clip-path="url(#clip8000)" d="M 0 0 M468.399 1535.98 L484.718 1535.98 L484.718 1539.92 L462.774 1539.92 L462.774 1535.98 Q465.436 1533.23 470.019 1528.6 Q474.625 1523.95 475.806 1522.61 Q478.051 1520.08 478.931 1518.35 Q479.834 1516.59 479.834 1514.9 Q479.834 1512.14 477.889 1510.41 Q475.968 1508.67 472.866 1508.67 Q470.667 1508.67 468.213 1509.43 Q465.783 1510.2 463.005 1511.75 L463.005 1507.03 Q465.829 1505.89 468.283 1505.31 Q470.736 1504.73 472.774 1504.73 Q478.144 1504.73 481.338 1507.42 Q484.533 1510.11 484.533 1514.6 Q484.533 1516.73 483.723 1518.65 Q482.936 1520.54 480.829 1523.14 Q480.25 1523.81 477.148 1527.03 Q474.047 1530.22 468.399 1535.98 Z" fill="#000000" fill-rule="evenodd" fill-opacity="1" /><path clip-path="url(#clip8000)" d="M 0 0 M884.855 1525.04 L897.331 1525.04 L897.331 1528.83 L884.855 1528.83 L884.855 1525.04 Z" fill="#000000" fill-rule="evenodd" fill-opacity="1" /><path clip-path="url(#clip8000)" d="M 0 0 M903.211 1535.98 L910.85 1535.98 L910.85 1509.62 L902.54 1511.29 L902.54 1507.03 L910.804 1505.36 L915.479 1505.36 L915.479 1535.98 L923.118 1535.98 L923.118 1539.92 L903.211 1539.92 L903.211 1535.98 Z" fill="#000000" fill-rule="evenodd" fill-opacity="1" /><path clip-path="url(#clip8000)" d="M 0 0 M1342.2 1508.44 Q1338.59 1508.44 1336.76 1512 Q1334.96 1515.55 1334.96 1522.67 Q1334.96 1529.78 1336.76 1533.35 Q1338.59 1536.89 1342.2 1536.89 Q1345.84 1536.89 1347.64 1533.35 Q1349.47 1529.78 1349.47 1522.67 Q1349.47 1515.55 1347.64 1512 Q1345.84 1508.44 1342.2 1508.44 M1342.2 1504.73 Q1348.01 1504.73 1351.07 1509.34 Q1354.15 1513.92 1354.15 1522.67 Q1354.15 1531.4 1351.07 1536.01 Q1348.01 1540.59 1342.2 1540.59 Q1336.39 1540.59 1333.31 1536.01 Q1330.26 1531.4 1330.26 1522.67 Q1330.26 1513.92 1333.31 1509.34 Q1336.39 1504.73 1342.2 1504.73 Z" fill="#000000" fill-rule="evenodd" fill-opacity="1" /><path clip-path="url(#clip8000)" d="M 0 0 M1770.8 1535.98 L1778.44 1535.98 L1778.44 1509.62 L1770.13 1511.29 L1770.13 1507.03 L1778.39 1505.36 L1783.07 1505.36 L1783.07 1535.98 L1790.71 1535.98 L1790.71 1539.92 L1770.8 1539.92 L1770.8 1535.98 Z" fill="#000000" fill-rule="evenodd" fill-opacity="1" /><path clip-path="url(#clip8000)" d="M 0 0 M2213.28 1535.98 L2229.6 1535.98 L2229.6 1539.92 L2207.66 1539.92 L2207.66 1535.98 Q2210.32 1533.23 2214.91 1528.6 Q2219.51 1523.95 2220.69 1522.61 Q2222.94 1520.08 2223.82 1518.35 Q2224.72 1516.59 2224.72 1514.9 Q2224.72 1512.14 2222.78 1510.41 Q2220.85 1508.67 2217.75 1508.67 Q2215.55 1508.67 2213.1 1509.43 Q2210.67 1510.2 2207.89 1511.75 L2207.89 1507.03 Q2210.72 1505.89 2213.17 1505.31 Q2215.62 1504.73 2217.66 1504.73 Q2223.03 1504.73 2226.22 1507.42 Q2229.42 1510.11 2229.42 1514.6 Q2229.42 1516.73 2228.61 1518.65 Q2227.82 1520.54 2225.72 1523.14 Q2225.14 1523.81 2222.03 1527.03 Q2218.93 1530.22 2213.28 1535.98 Z" fill="#000000" fill-rule="evenodd" fill-opacity="1" /><path clip-path="url(#clip8000)" d="M 0 0 M63.3625 1369.06 L75.8393 1369.06 L75.8393 1372.85 L63.3625 1372.85 L63.3625 1369.06 Z" fill="#000000" fill-rule="evenodd" fill-opacity="1" /><path clip-path="url(#clip8000)" d="M 0 0 M84.9365 1380.01 L101.256 1380.01 L101.256 1383.94 L79.3115 1383.94 L79.3115 1380.01 Q81.9735 1377.25 86.5568 1372.62 Q91.1633 1367.97 92.3438 1366.63 Q94.5892 1364.1 95.4688 1362.37 Q96.3716 1360.61 96.3716 1358.92 Q96.3716 1356.16 94.4271 1354.43 Q92.5059 1352.69 89.404 1352.69 Q87.205 1352.69 84.7513 1353.46 Q82.3207 1354.22 79.543 1355.77 L79.543 1351.05 Q82.367 1349.91 84.8207 1349.34 Q87.2744 1348.76 89.3114 1348.76 Q94.6818 1348.76 97.8762 1351.44 Q101.071 1354.13 101.071 1358.62 Q101.071 1360.75 100.26 1362.67 Q99.4734 1364.57 97.3669 1367.16 Q96.7882 1367.83 93.6864 1371.05 Q90.5846 1374.24 84.9365 1380.01 Z" fill="#000000" fill-rule="evenodd" fill-opacity="1" /><path clip-path="url(#clip8000)" d="M 0 0 M62.9921 1064.44 L75.4689 1064.44 L75.4689 1068.23 L62.9921 1068.23 L62.9921 1064.44 Z" fill="#000000" fill-rule="evenodd" fill-opacity="1" /><path clip-path="url(#clip8000)" d="M 0 0 M81.3485 1075.38 L88.9874 1075.38 L88.9874 1049.02 L80.6772 1050.69 L80.6772 1046.43 L88.9411 1044.76 L93.617 1044.76 L93.617 1075.38 L101.256 1075.38 L101.256 1079.32 L81.3485 1079.32 L81.3485 1075.38 Z" fill="#000000" fill-rule="evenodd" fill-opacity="1" /><path clip-path="url(#clip8000)" d="M 0 0 M89.3114 743.216 Q85.7003 743.216 83.8716 746.78 Q82.0661 750.322 82.0661 757.452 Q82.0661 764.558 83.8716 768.123 Q85.7003 771.664 89.3114 771.664 Q92.9457 771.664 94.7512 768.123 Q96.5799 764.558 96.5799 757.452 Q96.5799 750.322 94.7512 746.78 Q92.9457 743.216 89.3114 743.216 M89.3114 739.512 Q95.1216 739.512 98.1771 744.118 Q101.256 748.702 101.256 757.452 Q101.256 766.178 98.1771 770.785 Q95.1216 775.368 89.3114 775.368 Q83.5013 775.368 80.4226 770.785 Q77.367 766.178 77.367 757.452 Q77.367 748.702 80.4226 744.118 Q83.5013 739.512 89.3114 739.512 Z" fill="#000000" fill-rule="evenodd" fill-opacity="1" /><path clip-path="url(#clip8000)" d="M 0 0 M81.3485 466.139 L88.9874 466.139 L88.9874 439.773 L80.6772 441.44 L80.6772 437.181 L88.9411 435.514 L93.617 435.514 L93.617 466.139 L101.256 466.139 L101.256 470.074 L81.3485 470.074 L81.3485 466.139 Z" fill="#000000" fill-rule="evenodd" fill-opacity="1" /><path clip-path="url(#clip8000)" d="M 0 0 M84.9365 161.516 L101.256 161.516 L101.256 165.451 L79.3115 165.451 L79.3115 161.516 Q81.9735 158.761 86.5568 154.132 Q91.1633 149.479 92.3438 148.137 Q94.5892 145.613 95.4688 143.877 Q96.3716 142.118 96.3716 140.428 Q96.3716 137.674 94.4271 135.937 Q92.5059 134.201 89.404 134.201 Q87.205 134.201 84.7513 134.965 Q82.3207 135.729 79.543 137.28 L79.543 132.558 Q82.367 131.424 84.8207 130.845 Q87.2744 130.266 89.3114 130.266 Q94.6818 130.266 97.8762 132.951 Q101.071 135.637 101.071 140.127 Q101.071 142.257 100.26 144.178 Q99.4734 146.076 97.3669 148.669 Q96.7882 149.34 93.6864 152.558 Q90.5846 155.752 84.9365 161.516 Z" fill="#000000" fill-rule="evenodd" fill-opacity="1" /><circle clip-path="url(#clip8002)" cx="1186.13" cy="870.925" r="14" fill="#009af9" fill-rule="evenodd" fill-opacity="1" stroke="#000000" stroke-opacity="1" stroke-width="3.2"/>
<circle clip-path="url(#clip8002)" cx="1662.98" cy="493.107" r="14" fill="#009af9" fill-rule="evenodd" fill-opacity="1" stroke="#000000" stroke-opacity="1" stroke-width="3.2"/>
<circle clip-path="url(#clip8002)" cx="1621.19" cy="584.311" r="14" fill="#009af9" fill-rule="evenodd" fill-opacity="1" stroke="#000000" stroke-opacity="1" stroke-width="3.2"/>
<circle clip-path="url(#clip8002)" cx="1691.43" cy="405.826" r="14" fill="#009af9" fill-rule="evenodd" fill-opacity="1" stroke="#000000" stroke-opacity="1" stroke-width="3.2"/>
<circle clip-path="url(#clip8002)" cx="753.91" cy="1075.26" r="14" fill="#009af9" fill-rule="evenodd" fill-opacity="1" stroke="#000000" stroke-opacity="1" stroke-width="3.2"/>
<circle clip-path="url(#clip8002)" cx="1248.79" cy="290.387" r="14" fill="#009af9" fill-rule="evenodd" fill-opacity="1" stroke="#000000" stroke-opacity="1" stroke-width="3.2"/>
<circle clip-path="url(#clip8002)" cx="1581.61" cy="219.835" r="14" fill="#009af9" fill-rule="evenodd" fill-opacity="1" stroke="#000000" stroke-opacity="1" stroke-width="3.2"/>
<circle clip-path="url(#clip8002)" cx="1495.2" cy="787.471" r="14" fill="#009af9" fill-rule="evenodd" fill-opacity="1" stroke="#000000" stroke-opacity="1" stroke-width="3.2"/>
<circle clip-path="url(#clip8002)" cx="1480.68" cy="693.37" r="14" fill="#009af9" fill-rule="evenodd" fill-opacity="1" stroke="#000000" stroke-opacity="1" stroke-width="3.2"/>
<circle clip-path="url(#clip8002)" cx="1361.72" cy="837.396" r="14" fill="#009af9" fill-rule="evenodd" fill-opacity="1" stroke="#000000" stroke-opacity="1" stroke-width="3.2"/>
<circle clip-path="url(#clip8002)" cx="1227.17" cy="769.683" r="14" fill="#009af9" fill-rule="evenodd" fill-opacity="1" stroke="#000000" stroke-opacity="1" stroke-width="3.2"/>
<circle clip-path="url(#clip8002)" cx="1625.42" cy="550.728" r="14" fill="#009af9" fill-rule="evenodd" fill-opacity="1" stroke="#000000" stroke-opacity="1" stroke-width="3.2"/>
<circle clip-path="url(#clip8002)" cx="1805.14" cy="768.938" r="14" fill="#009af9" fill-rule="evenodd" fill-opacity="1" stroke="#000000" stroke-opacity="1" stroke-width="3.2"/>
<circle clip-path="url(#clip8002)" cx="1411.8" cy="646.932" r="14" fill="#009af9" fill-rule="evenodd" fill-opacity="1" stroke="#000000" stroke-opacity="1" stroke-width="3.2"/>
<circle clip-path="url(#clip8002)" cx="1164.24" cy="488.266" r="14" fill="#009af9" fill-rule="evenodd" fill-opacity="1" stroke="#000000" stroke-opacity="1" stroke-width="3.2"/>
<circle clip-path="url(#clip8002)" cx="2119.64" cy="320.918" r="14" fill="#009af9" fill-rule="evenodd" fill-opacity="1" stroke="#000000" stroke-opacity="1" stroke-width="3.2"/>
<circle clip-path="url(#clip8002)" cx="1955.96" cy="892.624" r="14" fill="#009af9" fill-rule="evenodd" fill-opacity="1" stroke="#000000" stroke-opacity="1" stroke-width="3.2"/>
<circle clip-path="url(#clip8002)" cx="1286.85" cy="1006.73" r="14" fill="#009af9" fill-rule="evenodd" fill-opacity="1" stroke="#000000" stroke-opacity="1" stroke-width="3.2"/>
<circle clip-path="url(#clip8002)" cx="443.509" cy="1113.57" r="14" fill="#009af9" fill-rule="evenodd" fill-opacity="1" stroke="#000000" stroke-opacity="1" stroke-width="3.2"/>
<circle clip-path="url(#clip8002)" cx="1201.11" cy="483.726" r="14" fill="#009af9" fill-rule="evenodd" fill-opacity="1" stroke="#000000" stroke-opacity="1" stroke-width="3.2"/>
<circle clip-path="url(#clip8002)" cx="1131.86" cy="918.03" r="14" fill="#009af9" fill-rule="evenodd" fill-opacity="1" stroke="#000000" stroke-opacity="1" stroke-width="3.2"/>
<circle clip-path="url(#clip8002)" cx="1209.42" cy="333.619" r="14" fill="#009af9" fill-rule="evenodd" fill-opacity="1" stroke="#000000" stroke-opacity="1" stroke-width="3.2"/>
<circle clip-path="url(#clip8002)" cx="619.536" cy="1445.72" r="14" fill="#009af9" fill-rule="evenodd" fill-opacity="1" stroke="#000000" stroke-opacity="1" stroke-width="3.2"/>
<circle clip-path="url(#clip8002)" cx="1570.5" cy="702.175" r="14" fill="#009af9" fill-rule="evenodd" fill-opacity="1" stroke="#000000" stroke-opacity="1" stroke-width="3.2"/>
<circle clip-path="url(#clip8002)" cx="864.658" cy="559.337" r="14" fill="#009af9" fill-rule="evenodd" fill-opacity="1" stroke="#000000" stroke-opacity="1" stroke-width="3.2"/>
<circle clip-path="url(#clip8002)" cx="1086.73" cy="390.768" r="14" fill="#009af9" fill-rule="evenodd" fill-opacity="1" stroke="#000000" stroke-opacity="1" stroke-width="3.2"/>
<circle clip-path="url(#clip8002)" cx="1231.95" cy="830.197" r="14" fill="#009af9" fill-rule="evenodd" fill-opacity="1" stroke="#000000" stroke-opacity="1" stroke-width="3.2"/>
<circle clip-path="url(#clip8002)" cx="1335.96" cy="901.511" r="14" fill="#009af9" fill-rule="evenodd" fill-opacity="1" stroke="#000000" stroke-opacity="1" stroke-width="3.2"/>
<circle clip-path="url(#clip8002)" cx="1046.14" cy="986.725" r="14" fill="#009af9" fill-rule="evenodd" fill-opacity="1" stroke="#000000" stroke-opacity="1" stroke-width="3.2"/>
<circle clip-path="url(#clip8002)" cx="948.505" cy="1206.89" r="14" fill="#009af9" fill-rule="evenodd" fill-opacity="1" stroke="#000000" stroke-opacity="1" stroke-width="3.2"/>
<circle clip-path="url(#clip8002)" cx="668.192" cy="490.67" r="14" fill="#009af9" fill-rule="evenodd" fill-opacity="1" stroke="#000000" stroke-opacity="1" stroke-width="3.2"/>
<circle clip-path="url(#clip8002)" cx="1108.66" cy="747.489" r="14" fill="#009af9" fill-rule="evenodd" fill-opacity="1" stroke="#000000" stroke-opacity="1" stroke-width="3.2"/>
<circle clip-path="url(#clip8002)" cx="1081.97" cy="706.955" r="14" fill="#009af9" fill-rule="evenodd" fill-opacity="1" stroke="#000000" stroke-opacity="1" stroke-width="3.2"/>
<circle clip-path="url(#clip8002)" cx="1229.81" cy="848.436" r="14" fill="#009af9" fill-rule="evenodd" fill-opacity="1" stroke="#000000" stroke-opacity="1" stroke-width="3.2"/>
<circle clip-path="url(#clip8002)" cx="1396.3" cy="569.464" r="14" fill="#009af9" fill-rule="evenodd" fill-opacity="1" stroke="#000000" stroke-opacity="1" stroke-width="3.2"/>
<circle clip-path="url(#clip8002)" cx="1210.11" cy="753.526" r="14" fill="#009af9" fill-rule="evenodd" fill-opacity="1" stroke="#000000" stroke-opacity="1" stroke-width="3.2"/>
<circle clip-path="url(#clip8002)" cx="1362.16" cy="375.491" r="14" fill="#009af9" fill-rule="evenodd" fill-opacity="1" stroke="#000000" stroke-opacity="1" stroke-width="3.2"/>
<circle clip-path="url(#clip8002)" cx="1969.71" cy="833.692" r="14" fill="#009af9" fill-rule="evenodd" fill-opacity="1" stroke="#000000" stroke-opacity="1" stroke-width="3.2"/>
<circle clip-path="url(#clip8002)" cx="1542.8" cy="369.181" r="14" fill="#009af9" fill-rule="evenodd" fill-opacity="1" stroke="#000000" stroke-opacity="1" stroke-width="3.2"/>
<circle clip-path="url(#clip8002)" cx="1851.44" cy="725.324" r="14" fill="#009af9" fill-rule="evenodd" fill-opacity="1" stroke="#000000" stroke-opacity="1" stroke-width="3.2"/>
<circle clip-path="url(#clip8002)" cx="1989.94" cy="624.474" r="14" fill="#009af9" fill-rule="evenodd" fill-opacity="1" stroke="#000000" stroke-opacity="1" stroke-width="3.2"/>
<circle clip-path="url(#clip8002)" cx="983.415" cy="876.99" r="14" fill="#009af9" fill-rule="evenodd" fill-opacity="1" stroke="#000000" stroke-opacity="1" stroke-width="3.2"/>
<circle clip-path="url(#clip8002)" cx="886.138" cy="925.3" r="14" fill="#009af9" fill-rule="evenodd" fill-opacity="1" stroke="#000000" stroke-opacity="1" stroke-width="3.2"/>
<circle clip-path="url(#clip8002)" cx="1418.48" cy="846.937" r="14" fill="#009af9" fill-rule="evenodd" fill-opacity="1" stroke="#000000" stroke-opacity="1" stroke-width="3.2"/>
<circle clip-path="url(#clip8002)" cx="891.384" cy="1210.43" r="14" fill="#009af9" fill-rule="evenodd" fill-opacity="1" stroke="#000000" stroke-opacity="1" stroke-width="3.2"/>
<circle clip-path="url(#clip8002)" cx="674.57" cy="696.693" r="14" fill="#009af9" fill-rule="evenodd" fill-opacity="1" stroke="#000000" stroke-opacity="1" stroke-width="3.2"/>
<circle clip-path="url(#clip8002)" cx="1217.16" cy="1080.78" r="14" fill="#009af9" fill-rule="evenodd" fill-opacity="1" stroke="#000000" stroke-opacity="1" stroke-width="3.2"/>
<circle clip-path="url(#clip8002)" cx="2282.84" cy="342.044" r="14" fill="#009af9" fill-rule="evenodd" fill-opacity="1" stroke="#000000" stroke-opacity="1" stroke-width="3.2"/>
<circle clip-path="url(#clip8002)" cx="1176.29" cy="854.189" r="14" fill="#009af9" fill-rule="evenodd" fill-opacity="1" stroke="#000000" stroke-opacity="1" stroke-width="3.2"/>
<circle clip-path="url(#clip8002)" cx="1328.73" cy="715.076" r="14" fill="#009af9" fill-rule="evenodd" fill-opacity="1" stroke="#000000" stroke-opacity="1" stroke-width="3.2"/>
<circle clip-path="url(#clip8002)" cx="1159.04" cy="700.274" r="14" fill="#009af9" fill-rule="evenodd" fill-opacity="1" stroke="#000000" stroke-opacity="1" stroke-width="3.2"/>
<circle clip-path="url(#clip8002)" cx="305.202" cy="1030.87" r="14" fill="#009af9" fill-rule="evenodd" fill-opacity="1" stroke="#000000" stroke-opacity="1" stroke-width="3.2"/>
<circle clip-path="url(#clip8002)" cx="1010.72" cy="629.824" r="14" fill="#009af9" fill-rule="evenodd" fill-opacity="1" stroke="#000000" stroke-opacity="1" stroke-width="3.2"/>
<circle clip-path="url(#clip8002)" cx="1164.26" cy="643.869" r="14" fill="#009af9" fill-rule="evenodd" fill-opacity="1" stroke="#000000" stroke-opacity="1" stroke-width="3.2"/>
<circle clip-path="url(#clip8002)" cx="1976.44" cy="278.117" r="14" fill="#009af9" fill-rule="evenodd" fill-opacity="1" stroke="#000000" stroke-opacity="1" stroke-width="3.2"/>
<circle clip-path="url(#clip8002)" cx="1739.85" cy="316.745" r="14" fill="#009af9" fill-rule="evenodd" fill-opacity="1" stroke="#000000" stroke-opacity="1" stroke-width="3.2"/>
<circle clip-path="url(#clip8002)" cx="1435.52" cy="436.722" r="14" fill="#009af9" fill-rule="evenodd" fill-opacity="1" stroke="#000000" stroke-opacity="1" stroke-width="3.2"/>
<circle clip-path="url(#clip8002)" cx="1728.9" cy="819.846" r="14" fill="#009af9" fill-rule="evenodd" fill-opacity="1" stroke="#000000" stroke-opacity="1" stroke-width="3.2"/>
<circle clip-path="url(#clip8002)" cx="1140.81" cy="807.19" r="14" fill="#009af9" fill-rule="evenodd" fill-opacity="1" stroke="#000000" stroke-opacity="1" stroke-width="3.2"/>
<circle clip-path="url(#clip8002)" cx="1523.39" cy="87.9763" r="14" fill="#009af9" fill-rule="evenodd" fill-opacity="1" stroke="#000000" stroke-opacity="1" stroke-width="3.2"/>
<circle clip-path="url(#clip8002)" cx="1668.11" cy="405.773" r="14" fill="#009af9" fill-rule="evenodd" fill-opacity="1" stroke="#000000" stroke-opacity="1" stroke-width="3.2"/>
<circle clip-path="url(#clip8002)" cx="1602.69" cy="717.842" r="14" fill="#009af9" fill-rule="evenodd" fill-opacity="1" stroke="#000000" stroke-opacity="1" stroke-width="3.2"/>
<circle clip-path="url(#clip8002)" cx="1246.81" cy="388.664" r="14" fill="#009af9" fill-rule="evenodd" fill-opacity="1" stroke="#000000" stroke-opacity="1" stroke-width="3.2"/>
<circle clip-path="url(#clip8002)" cx="1727.29" cy="535.758" r="14" fill="#009af9" fill-rule="evenodd" fill-opacity="1" stroke="#000000" stroke-opacity="1" stroke-width="3.2"/>
<circle clip-path="url(#clip8002)" cx="1072.53" cy="1056.3" r="14" fill="#009af9" fill-rule="evenodd" fill-opacity="1" stroke="#000000" stroke-opacity="1" stroke-width="3.2"/>
<circle clip-path="url(#clip8002)" cx="188.298" cy="1176.41" r="14" fill="#009af9" fill-rule="evenodd" fill-opacity="1" stroke="#000000" stroke-opacity="1" stroke-width="3.2"/>
<circle clip-path="url(#clip8002)" cx="719.277" cy="1076.39" r="14" fill="#009af9" fill-rule="evenodd" fill-opacity="1" stroke="#000000" stroke-opacity="1" stroke-width="3.2"/>
<circle clip-path="url(#clip8002)" cx="1715.19" cy="321.439" r="14" fill="#009af9" fill-rule="evenodd" fill-opacity="1" stroke="#000000" stroke-opacity="1" stroke-width="3.2"/>
<circle clip-path="url(#clip8002)" cx="1110.96" cy="944.614" r="14" fill="#009af9" fill-rule="evenodd" fill-opacity="1" stroke="#000000" stroke-opacity="1" stroke-width="3.2"/>
<circle clip-path="url(#clip8002)" cx="784.913" cy="1038.36" r="14" fill="#009af9" fill-rule="evenodd" fill-opacity="1" stroke="#000000" stroke-opacity="1" stroke-width="3.2"/>
<circle clip-path="url(#clip8002)" cx="1648.05" cy="769.54" r="14" fill="#009af9" fill-rule="evenodd" fill-opacity="1" stroke="#000000" stroke-opacity="1" stroke-width="3.2"/>
<circle clip-path="url(#clip8002)" cx="1594.31" cy="711.342" r="14" fill="#009af9" fill-rule="evenodd" fill-opacity="1" stroke="#000000" stroke-opacity="1" stroke-width="3.2"/>
<circle clip-path="url(#clip8002)" cx="1381.55" cy="730.435" r="14" fill="#009af9" fill-rule="evenodd" fill-opacity="1" stroke="#000000" stroke-opacity="1" stroke-width="3.2"/>
<circle clip-path="url(#clip8002)" cx="655.088" cy="1006.01" r="14" fill="#009af9" fill-rule="evenodd" fill-opacity="1" stroke="#000000" stroke-opacity="1" stroke-width="3.2"/>
<circle clip-path="url(#clip8002)" cx="1757.6" cy="1025.13" r="14" fill="#009af9" fill-rule="evenodd" fill-opacity="1" stroke="#000000" stroke-opacity="1" stroke-width="3.2"/>
<circle clip-path="url(#clip8002)" cx="1687.37" cy="757.246" r="14" fill="#009af9" fill-rule="evenodd" fill-opacity="1" stroke="#000000" stroke-opacity="1" stroke-width="3.2"/>
<circle clip-path="url(#clip8002)" cx="2026.32" cy="506.833" r="14" fill="#009af9" fill-rule="evenodd" fill-opacity="1" stroke="#000000" stroke-opacity="1" stroke-width="3.2"/>
<circle clip-path="url(#clip8002)" cx="2006.92" cy="435.917" r="14" fill="#009af9" fill-rule="evenodd" fill-opacity="1" stroke="#000000" stroke-opacity="1" stroke-width="3.2"/>
<circle clip-path="url(#clip8002)" cx="616.856" cy="1100.94" r="14" fill="#009af9" fill-rule="evenodd" fill-opacity="1" stroke="#000000" stroke-opacity="1" stroke-width="3.2"/>
<circle clip-path="url(#clip8002)" cx="903.26" cy="938.498" r="14" fill="#009af9" fill-rule="evenodd" fill-opacity="1" stroke="#000000" stroke-opacity="1" stroke-width="3.2"/>
<circle clip-path="url(#clip8002)" cx="1646.84" cy="477.152" r="14" fill="#009af9" fill-rule="evenodd" fill-opacity="1" stroke="#000000" stroke-opacity="1" stroke-width="3.2"/>
<circle clip-path="url(#clip8002)" cx="1597.18" cy="312.441" r="14" fill="#009af9" fill-rule="evenodd" fill-opacity="1" stroke="#000000" stroke-opacity="1" stroke-width="3.2"/>
<circle clip-path="url(#clip8002)" cx="1573.04" cy="545.312" r="14" fill="#009af9" fill-rule="evenodd" fill-opacity="1" stroke="#000000" stroke-opacity="1" stroke-width="3.2"/>
<circle clip-path="url(#clip8002)" cx="1915.15" cy="207.318" r="14" fill="#009af9" fill-rule="evenodd" fill-opacity="1" stroke="#000000" stroke-opacity="1" stroke-width="3.2"/>
<circle clip-path="url(#clip8002)" cx="1515.14" cy="192.519" r="14" fill="#009af9" fill-rule="evenodd" fill-opacity="1" stroke="#000000" stroke-opacity="1" stroke-width="3.2"/>
<circle clip-path="url(#clip8002)" cx="2289.71" cy="489.654" r="14" fill="#009af9" fill-rule="evenodd" fill-opacity="1" stroke="#000000" stroke-opacity="1" stroke-width="3.2"/>
<circle clip-path="url(#clip8002)" cx="962.897" cy="820.909" r="14" fill="#009af9" fill-rule="evenodd" fill-opacity="1" stroke="#000000" stroke-opacity="1" stroke-width="3.2"/>
<circle clip-path="url(#clip8002)" cx="933.335" cy="1342.02" r="14" fill="#009af9" fill-rule="evenodd" fill-opacity="1" stroke="#000000" stroke-opacity="1" stroke-width="3.2"/>
<circle clip-path="url(#clip8002)" cx="1869.16" cy="356.862" r="14" fill="#009af9" fill-rule="evenodd" fill-opacity="1" stroke="#000000" stroke-opacity="1" stroke-width="3.2"/>
<circle clip-path="url(#clip8002)" cx="1015.92" cy="937.802" r="14" fill="#009af9" fill-rule="evenodd" fill-opacity="1" stroke="#000000" stroke-opacity="1" stroke-width="3.2"/>
<circle clip-path="url(#clip8002)" cx="799.673" cy="929.339" r="14" fill="#009af9" fill-rule="evenodd" fill-opacity="1" stroke="#000000" stroke-opacity="1" stroke-width="3.2"/>
<circle clip-path="url(#clip8002)" cx="1099.98" cy="670.525" r="14" fill="#009af9" fill-rule="evenodd" fill-opacity="1" stroke="#000000" stroke-opacity="1" stroke-width="3.2"/>
<circle clip-path="url(#clip8002)" cx="1449.13" cy="908.462" r="14" fill="#009af9" fill-rule="evenodd" fill-opacity="1" stroke="#000000" stroke-opacity="1" stroke-width="3.2"/>
<circle clip-path="url(#clip8002)" cx="649.142" cy="1011.93" r="14" fill="#009af9" fill-rule="evenodd" fill-opacity="1" stroke="#000000" stroke-opacity="1" stroke-width="3.2"/>
<circle clip-path="url(#clip8002)" cx="2078.97" cy="644.756" r="14" fill="#009af9" fill-rule="evenodd" fill-opacity="1" stroke="#000000" stroke-opacity="1" stroke-width="3.2"/>
<circle clip-path="url(#clip8002)" cx="1677.56" cy="717.223" r="14" fill="#009af9" fill-rule="evenodd" fill-opacity="1" stroke="#000000" stroke-opacity="1" stroke-width="3.2"/>
<circle clip-path="url(#clip8002)" cx="1236.27" cy="473.28" r="14" fill="#009af9" fill-rule="evenodd" fill-opacity="1" stroke="#000000" stroke-opacity="1" stroke-width="3.2"/>
<circle clip-path="url(#clip8002)" cx="1819.54" cy="413.201" r="14" fill="#009af9" fill-rule="evenodd" fill-opacity="1" stroke="#000000" stroke-opacity="1" stroke-width="3.2"/>
<circle clip-path="url(#clip8002)" cx="1178.41" cy="972.728" r="14" fill="#009af9" fill-rule="evenodd" fill-opacity="1" stroke="#000000" stroke-opacity="1" stroke-width="3.2"/>
<circle clip-path="url(#clip8002)" cx="1941.32" cy="416.509" r="14" fill="#009af9" fill-rule="evenodd" fill-opacity="1" stroke="#000000" stroke-opacity="1" stroke-width="3.2"/>
<polyline clip-path="url(#clip8002)" style="stroke:#ff0000; stroke-width:4; stroke-opacity:1; fill:none" points="
  188.298,1147.57 2289.71,339.679 
  "/>
</svg>
