<?xml version="1.0" encoding="utf-8"?>
<svg xmlns="http://www.w3.org/2000/svg" xmlns:xlink="http://www.w3.org/1999/xlink" width="600" height="400" viewBox="0 0 2400 1600">
<defs>
  <clipPath id="clip6700">
    <rect x="0" y="0" width="2400" height="1600"/>
  </clipPath>
</defs>
<path clip-path="url(#clip6700)" d="
M0 1600 L2400 1600 L2400 8.88178e-14 L0 8.88178e-14  Z
  " fill="#ffffff" fill-rule="evenodd" fill-opacity="1"/>
<defs>
  <clipPath id="clip6701">
    <rect x="480" y="0" width="1681" height="1600"/>
  </clipPath>
</defs>
<path clip-path="url(#clip6700)" d="
M125.256 1486.45 L2352.76 1486.45 L2352.76 47.2441 L125.256 47.2441  Z
  " fill="#ffffff" fill-rule="evenodd" fill-opacity="1"/>
<defs>
  <clipPath id="clip6702">
    <rect x="125" y="47" width="2229" height="1440"/>
  </clipPath>
</defs>
<polyline clip-path="url(#clip6702)" style="stroke:#000000; stroke-width:2; stroke-opacity:0.1; fill:none" points="
  132.443,1486.45 132.443,47.2441 
  "/>
<polyline clip-path="url(#clip6702)" style="stroke:#000000; stroke-width:2; stroke-opacity:0.1; fill:none" points="
  611.174,1486.45 611.174,47.2441 
  "/>
<polyline clip-path="url(#clip6702)" style="stroke:#000000; stroke-width:2; stroke-opacity:0.1; fill:none" points="
  1089.9,1486.45 1089.9,47.2441 
  "/>
<polyline clip-path="url(#clip6702)" style="stroke:#000000; stroke-width:2; stroke-opacity:0.1; fill:none" points="
  1568.64,1486.45 1568.64,47.2441 
  "/>
<polyline clip-path="url(#clip6702)" style="stroke:#000000; stroke-width:2; stroke-opacity:0.1; fill:none" points="
  2047.37,1486.45 2047.37,47.2441 
  "/>
<polyline clip-path="url(#clip6702)" style="stroke:#000000; stroke-width:2; stroke-opacity:0.1; fill:none" points="
  125.256,1486.45 2352.76,1486.45 
  "/>
<polyline clip-path="url(#clip6702)" style="stroke:#000000; stroke-width:2; stroke-opacity:0.1; fill:none" points="
  125.256,1265.03 2352.76,1265.03 
  "/>
<polyline clip-path="url(#clip6702)" style="stroke:#000000; stroke-width:2; stroke-opacity:0.1; fill:none" points="
  125.256,1043.62 2352.76,1043.62 
  "/>
<polyline clip-path="url(#clip6702)" style="stroke:#000000; stroke-width:2; stroke-opacity:0.1; fill:none" points="
  125.256,822.2 2352.76,822.2 
  "/>
<polyline clip-path="url(#clip6702)" style="stroke:#000000; stroke-width:2; stroke-opacity:0.1; fill:none" points="
  125.256,600.784 2352.76,600.784 
  "/>
<polyline clip-path="url(#clip6702)" style="stroke:#000000; stroke-width:2; stroke-opacity:0.1; fill:none" points="
  125.256,379.368 2352.76,379.368 
  "/>
<polyline clip-path="url(#clip6702)" style="stroke:#000000; stroke-width:2; stroke-opacity:0.1; fill:none" points="
  125.256,157.952 2352.76,157.952 
  "/>
<polyline clip-path="url(#clip6700)" style="stroke:#000000; stroke-width:4; stroke-opacity:1; fill:none" points="
  125.256,1486.45 2352.76,1486.45 
  "/>
<polyline clip-path="url(#clip6700)" style="stroke:#000000; stroke-width:4; stroke-opacity:1; fill:none" points="
  125.256,1486.45 125.256,47.2441 
  "/>
<polyline clip-path="url(#clip6700)" style="stroke:#000000; stroke-width:4; stroke-opacity:1; fill:none" points="
  132.443,1486.45 132.443,1469.18 
  "/>
<polyline clip-path="url(#clip6700)" style="stroke:#000000; stroke-width:4; stroke-opacity:1; fill:none" points="
  611.174,1486.45 611.174,1469.18 
  "/>
<polyline clip-path="url(#clip6700)" style="stroke:#000000; stroke-width:4; stroke-opacity:1; fill:none" points="
  1089.9,1486.45 1089.9,1469.18 
  "/>
<polyline clip-path="url(#clip6700)" style="stroke:#000000; stroke-width:4; stroke-opacity:1; fill:none" points="
  1568.64,1486.45 1568.64,1469.18 
  "/>
<polyline clip-path="url(#clip6700)" style="stroke:#000000; stroke-width:4; stroke-opacity:1; fill:none" points="
  2047.37,1486.45 2047.37,1469.18 
  "/>
<polyline clip-path="url(#clip6700)" style="stroke:#000000; stroke-width:4; stroke-opacity:1; fill:none" points="
  125.256,1486.45 151.986,1486.45 
  "/>
<polyline clip-path="url(#clip6700)" style="stroke:#000000; stroke-width:4; stroke-opacity:1; fill:none" points="
  125.256,1265.03 151.986,1265.03 
  "/>
<polyline clip-path="url(#clip6700)" style="stroke:#000000; stroke-width:4; stroke-opacity:1; fill:none" points="
  125.256,1043.62 151.986,1043.62 
  "/>
<polyline clip-path="url(#clip6700)" style="stroke:#000000; stroke-width:4; stroke-opacity:1; fill:none" points="
  125.256,822.2 151.986,822.2 
  "/>
<polyline clip-path="url(#clip6700)" style="stroke:#000000; stroke-width:4; stroke-opacity:1; fill:none" points="
  125.256,600.784 151.986,600.784 
  "/>
<polyline clip-path="url(#clip6700)" style="stroke:#000000; stroke-width:4; stroke-opacity:1; fill:none" points="
  125.256,379.368 151.986,379.368 
  "/>
<polyline clip-path="url(#clip6700)" style="stroke:#000000; stroke-width:4; stroke-opacity:1; fill:none" points="
  125.256,157.952 151.986,157.952 
  "/>
<path clip-path="url(#clip6700)" d="M 0 0 M113.497 1525.04 L125.974 1525.04 L125.974 1528.83 L113.497 1528.83 L113.497 1525.04 Z" fill="#000000" fill-rule="evenodd" fill-opacity="1" /><path clip-path="url(#clip6700)" d="M 0 0 M135.071 1535.98 L151.39 1535.98 L151.39 1539.92 L129.446 1539.92 L129.446 1535.98 Q132.108 1533.23 136.691 1528.6 Q141.298 1523.95 142.478 1522.61 Q144.723 1520.08 145.603 1518.35 Q146.506 1516.59 146.506 1514.9 Q146.506 1512.14 144.561 1510.41 Q142.64 1508.67 139.538 1508.67 Q137.339 1508.67 134.886 1509.43 Q132.455 1510.2 129.677 1511.75 L129.677 1507.03 Q132.501 1505.89 134.955 1505.31 Q137.409 1504.73 139.446 1504.73 Q144.816 1504.73 148.01 1507.42 Q151.205 1510.11 151.205 1514.6 Q151.205 1516.73 150.395 1518.65 Q149.608 1520.54 147.501 1523.14 Q146.922 1523.81 143.821 1527.03 Q140.719 1530.22 135.071 1535.98 Z" fill="#000000" fill-rule="evenodd" fill-opacity="1" /><path clip-path="url(#clip6700)" d="M 0 0 M611.174 1508.44 Q607.563 1508.44 605.734 1512 Q603.929 1515.55 603.929 1522.67 Q603.929 1529.78 605.734 1533.35 Q607.563 1536.89 611.174 1536.89 Q614.808 1536.89 616.614 1533.35 Q618.443 1529.78 618.443 1522.67 Q618.443 1515.55 616.614 1512 Q614.808 1508.44 611.174 1508.44 M611.174 1504.73 Q616.984 1504.73 620.04 1509.34 Q623.118 1513.92 623.118 1522.67 Q623.118 1531.4 620.04 1536.01 Q616.984 1540.59 611.174 1540.59 Q605.364 1540.59 602.285 1536.01 Q599.23 1531.4 599.23 1522.67 Q599.23 1513.92 602.285 1509.34 Q605.364 1504.73 611.174 1504.73 Z" fill="#000000" fill-rule="evenodd" fill-opacity="1" /><path clip-path="url(#clip6700)" d="M 0 0 M1084.56 1535.98 L1100.88 1535.98 L1100.88 1539.92 L1078.93 1539.92 L1078.93 1535.98 Q1081.59 1533.23 1086.18 1528.6 Q1090.78 1523.95 1091.96 1522.61 Q1094.21 1520.08 1095.09 1518.35 Q1095.99 1516.59 1095.99 1514.9 Q1095.99 1512.14 1094.05 1510.41 Q1092.13 1508.67 1089.03 1508.67 Q1086.83 1508.67 1084.37 1509.43 Q1081.94 1510.2 1079.16 1511.75 L1079.16 1507.03 Q1081.99 1505.89 1084.44 1505.31 Q1086.9 1504.73 1088.93 1504.73 Q1094.3 1504.73 1097.5 1507.42 Q1100.69 1510.11 1100.69 1514.6 Q1100.69 1516.73 1099.88 1518.65 Q1099.09 1520.54 1096.99 1523.14 Q1096.41 1523.81 1093.31 1527.03 Q1090.21 1530.22 1084.56 1535.98 Z" fill="#000000" fill-rule="evenodd" fill-opacity="1" /><path clip-path="url(#clip6700)" d="M 0 0 M1571.64 1509.43 L1559.84 1527.88 L1571.64 1527.88 L1571.64 1509.43 M1570.42 1505.36 L1576.3 1505.36 L1576.3 1527.88 L1581.23 1527.88 L1581.23 1531.77 L1576.3 1531.77 L1576.3 1539.92 L1571.64 1539.92 L1571.64 1531.77 L1556.04 1531.77 L1556.04 1527.26 L1570.42 1505.36 Z" fill="#000000" fill-rule="evenodd" fill-opacity="1" /><path clip-path="url(#clip6700)" d="M 0 0 M2047.77 1520.78 Q2044.62 1520.78 2042.77 1522.93 Q2040.94 1525.08 2040.94 1528.83 Q2040.94 1532.56 2042.77 1534.73 Q2044.62 1536.89 2047.77 1536.89 Q2050.92 1536.89 2052.75 1534.73 Q2054.6 1532.56 2054.6 1528.83 Q2054.6 1525.08 2052.75 1522.93 Q2050.92 1520.78 2047.77 1520.78 M2057.05 1506.12 L2057.05 1510.38 Q2055.29 1509.55 2053.49 1509.11 Q2051.71 1508.67 2049.95 1508.67 Q2045.32 1508.67 2042.86 1511.8 Q2040.43 1514.92 2040.09 1521.24 Q2041.45 1519.23 2043.51 1518.16 Q2045.57 1517.07 2048.05 1517.07 Q2053.26 1517.07 2056.27 1520.24 Q2059.3 1523.39 2059.3 1528.83 Q2059.3 1534.16 2056.15 1537.37 Q2053 1540.59 2047.77 1540.59 Q2041.78 1540.59 2038.6 1536.01 Q2035.43 1531.4 2035.43 1522.67 Q2035.43 1514.48 2039.32 1509.62 Q2043.21 1504.73 2049.76 1504.73 Q2051.52 1504.73 2053.3 1505.08 Q2055.11 1505.43 2057.05 1506.12 Z" fill="#000000" fill-rule="evenodd" fill-opacity="1" /><path clip-path="url(#clip6700)" d="M 0 0 M63.3625 1488.84 L75.8393 1488.84 L75.8393 1492.64 L63.3625 1492.64 L63.3625 1488.84 Z" fill="#000000" fill-rule="evenodd" fill-opacity="1" /><path clip-path="url(#clip6700)" d="M 0 0 M84.9365 1499.79 L101.256 1499.79 L101.256 1503.73 L79.3115 1503.73 L79.3115 1499.79 Q81.9735 1497.04 86.5568 1492.41 Q91.1633 1487.76 92.3438 1486.41 Q94.5892 1483.89 95.4688 1482.15 Q96.3716 1480.39 96.3716 1478.7 Q96.3716 1475.95 94.4271 1474.21 Q92.5059 1472.48 89.404 1472.48 Q87.205 1472.48 84.7513 1473.24 Q82.3207 1474.01 79.543 1475.56 L79.543 1470.83 Q82.367 1469.7 84.8207 1469.12 Q87.2744 1468.54 89.3114 1468.54 Q94.6818 1468.54 97.8762 1471.23 Q101.071 1473.91 101.071 1478.4 Q101.071 1480.53 100.26 1482.45 Q99.4734 1484.35 97.3669 1486.95 Q96.7882 1487.62 93.6864 1490.83 Q90.5846 1494.03 84.9365 1499.79 Z" fill="#000000" fill-rule="evenodd" fill-opacity="1" /><path clip-path="url(#clip6700)" d="M 0 0 M62.9921 1267.43 L75.4689 1267.43 L75.4689 1271.22 L62.9921 1271.22 L62.9921 1267.43 Z" fill="#000000" fill-rule="evenodd" fill-opacity="1" /><path clip-path="url(#clip6700)" d="M 0 0 M81.3485 1278.38 L88.9874 1278.38 L88.9874 1252.01 L80.6772 1253.68 L80.6772 1249.42 L88.9411 1247.75 L93.617 1247.75 L93.617 1278.38 L101.256 1278.38 L101.256 1282.31 L81.3485 1282.31 L81.3485 1278.38 Z" fill="#000000" fill-rule="evenodd" fill-opacity="1" /><path clip-path="url(#clip6700)" d="M 0 0 M89.3114 1029.41 Q85.7003 1029.41 83.8716 1032.98 Q82.0661 1036.52 82.0661 1043.65 Q82.0661 1050.76 83.8716 1054.32 Q85.7003 1057.86 89.3114 1057.86 Q92.9457 1057.86 94.7512 1054.32 Q96.5799 1050.76 96.5799 1043.65 Q96.5799 1036.52 94.7512 1032.98 Q92.9457 1029.41 89.3114 1029.41 M89.3114 1025.71 Q95.1216 1025.71 98.1771 1030.32 Q101.256 1034.9 101.256 1043.65 Q101.256 1052.38 98.1771 1056.98 Q95.1216 1061.57 89.3114 1061.57 Q83.5013 1061.57 80.4226 1056.98 Q77.367 1052.38 77.367 1043.65 Q77.367 1034.9 80.4226 1030.32 Q83.5013 1025.71 89.3114 1025.71 Z" fill="#000000" fill-rule="evenodd" fill-opacity="1" /><path clip-path="url(#clip6700)" d="M 0 0 M81.3485 835.545 L88.9874 835.545 L88.9874 809.179 L80.6772 810.846 L80.6772 806.587 L88.9411 804.92 L93.617 804.92 L93.617 835.545 L101.256 835.545 L101.256 839.48 L81.3485 839.48 L81.3485 835.545 Z" fill="#000000" fill-rule="evenodd" fill-opacity="1" /><path clip-path="url(#clip6700)" d="M 0 0 M84.9365 614.129 L101.256 614.129 L101.256 618.064 L79.3115 618.064 L79.3115 614.129 Q81.9735 611.374 86.5568 606.745 Q91.1633 602.092 92.3438 600.749 Q94.5892 598.226 95.4688 596.49 Q96.3716 594.731 96.3716 593.041 Q96.3716 590.286 94.4271 588.55 Q92.5059 586.814 89.404 586.814 Q87.205 586.814 84.7513 587.578 Q82.3207 588.342 79.543 589.893 L79.543 585.171 Q82.367 584.036 84.8207 583.458 Q87.2744 582.879 89.3114 582.879 Q94.6818 582.879 97.8762 585.564 Q101.071 588.249 101.071 592.74 Q101.071 594.87 100.26 596.791 Q99.4734 598.689 97.3669 601.282 Q96.7882 601.953 93.6864 605.171 Q90.5846 608.365 84.9365 614.129 Z" fill="#000000" fill-rule="evenodd" fill-opacity="1" /><path clip-path="url(#clip6700)" d="M 0 0 M94.1262 378.014 Q97.4827 378.731 99.3577 381 Q101.256 383.268 101.256 386.602 Q101.256 391.718 97.7373 394.518 Q94.2188 397.319 87.7374 397.319 Q85.5614 397.319 83.2466 396.88 Q80.955 396.463 78.5013 395.606 L78.5013 391.093 Q80.4457 392.227 82.7605 392.805 Q85.0753 393.384 87.5985 393.384 Q91.9966 393.384 94.2883 391.648 Q96.6031 389.912 96.6031 386.602 Q96.6031 383.546 94.4503 381.833 Q92.3207 380.097 88.5012 380.097 L84.4735 380.097 L84.4735 376.255 L88.6864 376.255 Q92.1355 376.255 93.9642 374.889 Q95.7929 373.5 95.7929 370.907 Q95.7929 368.245 93.8947 366.833 Q92.0197 365.398 88.5012 365.398 Q86.58 365.398 84.3809 365.815 Q82.1818 366.232 79.543 367.111 L79.543 362.945 Q82.205 362.204 84.5198 361.833 Q86.8577 361.463 88.9179 361.463 Q94.242 361.463 97.3438 363.894 Q100.446 366.301 100.446 370.421 Q100.446 373.292 98.8021 375.282 Q97.1586 377.25 94.1262 378.014 Z" fill="#000000" fill-rule="evenodd" fill-opacity="1" /><path clip-path="url(#clip6700)" d="M 0 0 M91.6725 144.746 L79.867 163.195 L91.6725 163.195 L91.6725 144.746 M90.4457 140.672 L96.3253 140.672 L96.3253 163.195 L101.256 163.195 L101.256 167.084 L96.3253 167.084 L96.3253 175.232 L91.6725 175.232 L91.6725 167.084 L76.0708 167.084 L76.0708 162.57 L90.4457 140.672 Z" fill="#000000" fill-rule="evenodd" fill-opacity="1" /><circle clip-path="url(#clip6702)" cx="269.606" cy="1331.9" r="14" fill="#ff0000" fill-rule="evenodd" fill-opacity="1" stroke="#000000" stroke-opacity="1" stroke-width="3.2"/>
<circle clip-path="url(#clip6702)" cx="472.27" cy="1134.04" r="14" fill="#ff0000" fill-rule="evenodd" fill-opacity="1" stroke="#000000" stroke-opacity="1" stroke-width="3.2"/>
<circle clip-path="url(#clip6702)" cx="765.598" cy="782.92" r="14" fill="#ff0000" fill-rule="evenodd" fill-opacity="1" stroke="#000000" stroke-opacity="1" stroke-width="3.2"/>
<circle clip-path="url(#clip6702)" cx="743.32" cy="1127.31" r="14" fill="#ff0000" fill-rule="evenodd" fill-opacity="1" stroke="#000000" stroke-opacity="1" stroke-width="3.2"/>
<circle clip-path="url(#clip6702)" cx="885.688" cy="832.14" r="14" fill="#ff0000" fill-rule="evenodd" fill-opacity="1" stroke="#000000" stroke-opacity="1" stroke-width="3.2"/>
<circle clip-path="url(#clip6702)" cx="736.056" cy="934.537" r="14" fill="#ff0000" fill-rule="evenodd" fill-opacity="1" stroke="#000000" stroke-opacity="1" stroke-width="3.2"/>
<circle clip-path="url(#clip6702)" cx="188.298" cy="1273.98" r="14" fill="#ff0000" fill-rule="evenodd" fill-opacity="1" stroke="#000000" stroke-opacity="1" stroke-width="3.2"/>
<circle clip-path="url(#clip6702)" cx="982.07" cy="936.555" r="14" fill="#ff0000" fill-rule="evenodd" fill-opacity="1" stroke="#000000" stroke-opacity="1" stroke-width="3.2"/>
<circle clip-path="url(#clip6702)" cx="501.59" cy="1027.18" r="14" fill="#ff0000" fill-rule="evenodd" fill-opacity="1" stroke="#000000" stroke-opacity="1" stroke-width="3.2"/>
<circle clip-path="url(#clip6702)" cx="817.806" cy="881.717" r="14" fill="#ff0000" fill-rule="evenodd" fill-opacity="1" stroke="#000000" stroke-opacity="1" stroke-width="3.2"/>
<circle clip-path="url(#clip6702)" cx="541.345" cy="1088.59" r="14" fill="#ff0000" fill-rule="evenodd" fill-opacity="1" stroke="#000000" stroke-opacity="1" stroke-width="3.2"/>
<circle clip-path="url(#clip6702)" cx="732.297" cy="1087.55" r="14" fill="#ff0000" fill-rule="evenodd" fill-opacity="1" stroke="#000000" stroke-opacity="1" stroke-width="3.2"/>
<circle clip-path="url(#clip6702)" cx="676.569" cy="1387.3" r="14" fill="#ff0000" fill-rule="evenodd" fill-opacity="1" stroke="#000000" stroke-opacity="1" stroke-width="3.2"/>
<circle clip-path="url(#clip6702)" cx="425.101" cy="1208.51" r="14" fill="#ff0000" fill-rule="evenodd" fill-opacity="1" stroke="#000000" stroke-opacity="1" stroke-width="3.2"/>
<circle clip-path="url(#clip6702)" cx="688.339" cy="1197.08" r="14" fill="#ff0000" fill-rule="evenodd" fill-opacity="1" stroke="#000000" stroke-opacity="1" stroke-width="3.2"/>
<circle clip-path="url(#clip6702)" cx="970.368" cy="989.793" r="14" fill="#ff0000" fill-rule="evenodd" fill-opacity="1" stroke="#000000" stroke-opacity="1" stroke-width="3.2"/>
<circle clip-path="url(#clip6702)" cx="1008.06" cy="1134.62" r="14" fill="#ff0000" fill-rule="evenodd" fill-opacity="1" stroke="#000000" stroke-opacity="1" stroke-width="3.2"/>
<circle clip-path="url(#clip6702)" cx="976.362" cy="834.335" r="14" fill="#ff0000" fill-rule="evenodd" fill-opacity="1" stroke="#000000" stroke-opacity="1" stroke-width="3.2"/>
<circle clip-path="url(#clip6702)" cx="1007.02" cy="1288.3" r="14" fill="#ff0000" fill-rule="evenodd" fill-opacity="1" stroke="#000000" stroke-opacity="1" stroke-width="3.2"/>
<circle clip-path="url(#clip6702)" cx="633.457" cy="1266.27" r="14" fill="#ff0000" fill-rule="evenodd" fill-opacity="1" stroke="#000000" stroke-opacity="1" stroke-width="3.2"/>
<circle clip-path="url(#clip6702)" cx="293.199" cy="680.378" r="14" fill="#ff0000" fill-rule="evenodd" fill-opacity="1" stroke="#000000" stroke-opacity="1" stroke-width="3.2"/>
<circle clip-path="url(#clip6702)" cx="609.972" cy="1305.06" r="14" fill="#ff0000" fill-rule="evenodd" fill-opacity="1" stroke="#000000" stroke-opacity="1" stroke-width="3.2"/>
<circle clip-path="url(#clip6702)" cx="313.657" cy="1154.71" r="14" fill="#ff0000" fill-rule="evenodd" fill-opacity="1" stroke="#000000" stroke-opacity="1" stroke-width="3.2"/>
<circle clip-path="url(#clip6702)" cx="418.66" cy="914.214" r="14" fill="#ff0000" fill-rule="evenodd" fill-opacity="1" stroke="#000000" stroke-opacity="1" stroke-width="3.2"/>
<circle clip-path="url(#clip6702)" cx="537.106" cy="931.67" r="14" fill="#ff0000" fill-rule="evenodd" fill-opacity="1" stroke="#000000" stroke-opacity="1" stroke-width="3.2"/>
<circle clip-path="url(#clip6702)" cx="661.39" cy="960.448" r="14" fill="#ff0000" fill-rule="evenodd" fill-opacity="1" stroke="#000000" stroke-opacity="1" stroke-width="3.2"/>
<circle clip-path="url(#clip6702)" cx="598.891" cy="974.057" r="14" fill="#ff0000" fill-rule="evenodd" fill-opacity="1" stroke="#000000" stroke-opacity="1" stroke-width="3.2"/>
<circle clip-path="url(#clip6702)" cx="649.393" cy="885.276" r="14" fill="#ff0000" fill-rule="evenodd" fill-opacity="1" stroke="#000000" stroke-opacity="1" stroke-width="3.2"/>
<circle clip-path="url(#clip6702)" cx="948.717" cy="957.3" r="14" fill="#ff0000" fill-rule="evenodd" fill-opacity="1" stroke="#000000" stroke-opacity="1" stroke-width="3.2"/>
<circle clip-path="url(#clip6702)" cx="535.952" cy="1011.8" r="14" fill="#ff0000" fill-rule="evenodd" fill-opacity="1" stroke="#000000" stroke-opacity="1" stroke-width="3.2"/>
<circle clip-path="url(#clip6702)" cx="768.818" cy="925.008" r="14" fill="#ff0000" fill-rule="evenodd" fill-opacity="1" stroke="#000000" stroke-opacity="1" stroke-width="3.2"/>
<circle clip-path="url(#clip6702)" cx="640.342" cy="1122.59" r="14" fill="#ff0000" fill-rule="evenodd" fill-opacity="1" stroke="#000000" stroke-opacity="1" stroke-width="3.2"/>
<circle clip-path="url(#clip6702)" cx="321.966" cy="1003.98" r="14" fill="#ff0000" fill-rule="evenodd" fill-opacity="1" stroke="#000000" stroke-opacity="1" stroke-width="3.2"/>
<circle clip-path="url(#clip6702)" cx="1102.83" cy="1033.02" r="14" fill="#ff0000" fill-rule="evenodd" fill-opacity="1" stroke="#000000" stroke-opacity="1" stroke-width="3.2"/>
<circle clip-path="url(#clip6702)" cx="681.916" cy="1341.73" r="14" fill="#ff0000" fill-rule="evenodd" fill-opacity="1" stroke="#000000" stroke-opacity="1" stroke-width="3.2"/>
<circle clip-path="url(#clip6702)" cx="589.394" cy="1004.8" r="14" fill="#ff0000" fill-rule="evenodd" fill-opacity="1" stroke="#000000" stroke-opacity="1" stroke-width="3.2"/>
<circle clip-path="url(#clip6702)" cx="581.254" cy="799.75" r="14" fill="#ff0000" fill-rule="evenodd" fill-opacity="1" stroke="#000000" stroke-opacity="1" stroke-width="3.2"/>
<circle clip-path="url(#clip6702)" cx="796.426" cy="751.785" r="14" fill="#ff0000" fill-rule="evenodd" fill-opacity="1" stroke="#000000" stroke-opacity="1" stroke-width="3.2"/>
<circle clip-path="url(#clip6702)" cx="589.161" cy="1314.02" r="14" fill="#ff0000" fill-rule="evenodd" fill-opacity="1" stroke="#000000" stroke-opacity="1" stroke-width="3.2"/>
<circle clip-path="url(#clip6702)" cx="680.207" cy="833.369" r="14" fill="#ff0000" fill-rule="evenodd" fill-opacity="1" stroke="#000000" stroke-opacity="1" stroke-width="3.2"/>
<circle clip-path="url(#clip6702)" cx="552.786" cy="942.587" r="14" fill="#ff0000" fill-rule="evenodd" fill-opacity="1" stroke="#000000" stroke-opacity="1" stroke-width="3.2"/>
<circle clip-path="url(#clip6702)" cx="391.634" cy="1058.44" r="14" fill="#ff0000" fill-rule="evenodd" fill-opacity="1" stroke="#000000" stroke-opacity="1" stroke-width="3.2"/>
<circle clip-path="url(#clip6702)" cx="642.156" cy="1426.22" r="14" fill="#ff0000" fill-rule="evenodd" fill-opacity="1" stroke="#000000" stroke-opacity="1" stroke-width="3.2"/>
<circle clip-path="url(#clip6702)" cx="519.974" cy="845.018" r="14" fill="#ff0000" fill-rule="evenodd" fill-opacity="1" stroke="#000000" stroke-opacity="1" stroke-width="3.2"/>
<circle clip-path="url(#clip6702)" cx="813.73" cy="1402.32" r="14" fill="#ff0000" fill-rule="evenodd" fill-opacity="1" stroke="#000000" stroke-opacity="1" stroke-width="3.2"/>
<circle clip-path="url(#clip6702)" cx="260.269" cy="868.394" r="14" fill="#ff0000" fill-rule="evenodd" fill-opacity="1" stroke="#000000" stroke-opacity="1" stroke-width="3.2"/>
<circle clip-path="url(#clip6702)" cx="870.419" cy="779.722" r="14" fill="#ff0000" fill-rule="evenodd" fill-opacity="1" stroke="#000000" stroke-opacity="1" stroke-width="3.2"/>
<circle clip-path="url(#clip6702)" cx="1909.85" cy="1186.27" r="14" fill="#0000ff" fill-rule="evenodd" fill-opacity="1" stroke="#000000" stroke-opacity="1" stroke-width="3.2"/>
<circle clip-path="url(#clip6702)" cx="1571.66" cy="546.312" r="14" fill="#0000ff" fill-rule="evenodd" fill-opacity="1" stroke="#000000" stroke-opacity="1" stroke-width="3.2"/>
<circle clip-path="url(#clip6702)" cx="1102.29" cy="616.052" r="14" fill="#0000ff" fill-rule="evenodd" fill-opacity="1" stroke="#000000" stroke-opacity="1" stroke-width="3.2"/>
<circle clip-path="url(#clip6702)" cx="1654" cy="652.276" r="14" fill="#0000ff" fill-rule="evenodd" fill-opacity="1" stroke="#000000" stroke-opacity="1" stroke-width="3.2"/>
<circle clip-path="url(#clip6702)" cx="1280.17" cy="788.325" r="14" fill="#0000ff" fill-rule="evenodd" fill-opacity="1" stroke="#000000" stroke-opacity="1" stroke-width="3.2"/>
<circle clip-path="url(#clip6702)" cx="1579.87" cy="584.786" r="14" fill="#0000ff" fill-rule="evenodd" fill-opacity="1" stroke="#000000" stroke-opacity="1" stroke-width="3.2"/>
<circle clip-path="url(#clip6702)" cx="1542.46" cy="195.494" r="14" fill="#0000ff" fill-rule="evenodd" fill-opacity="1" stroke="#000000" stroke-opacity="1" stroke-width="3.2"/>
<circle clip-path="url(#clip6702)" cx="1580.02" cy="358.221" r="14" fill="#0000ff" fill-rule="evenodd" fill-opacity="1" stroke="#000000" stroke-opacity="1" stroke-width="3.2"/>
<circle clip-path="url(#clip6702)" cx="1976.11" cy="841.978" r="14" fill="#0000ff" fill-rule="evenodd" fill-opacity="1" stroke="#000000" stroke-opacity="1" stroke-width="3.2"/>
<circle clip-path="url(#clip6702)" cx="1524.95" cy="657.07" r="14" fill="#0000ff" fill-rule="evenodd" fill-opacity="1" stroke="#000000" stroke-opacity="1" stroke-width="3.2"/>
<circle clip-path="url(#clip6702)" cx="1536.25" cy="946.703" r="14" fill="#0000ff" fill-rule="evenodd" fill-opacity="1" stroke="#000000" stroke-opacity="1" stroke-width="3.2"/>
<circle clip-path="url(#clip6702)" cx="1930.07" cy="728.929" r="14" fill="#0000ff" fill-rule="evenodd" fill-opacity="1" stroke="#000000" stroke-opacity="1" stroke-width="3.2"/>
<circle clip-path="url(#clip6702)" cx="1611.58" cy="777.814" r="14" fill="#0000ff" fill-rule="evenodd" fill-opacity="1" stroke="#000000" stroke-opacity="1" stroke-width="3.2"/>
<circle clip-path="url(#clip6702)" cx="1307.29" cy="760.631" r="14" fill="#0000ff" fill-rule="evenodd" fill-opacity="1" stroke="#000000" stroke-opacity="1" stroke-width="3.2"/>
<circle clip-path="url(#clip6702)" cx="1581.31" cy="1043.47" r="14" fill="#0000ff" fill-rule="evenodd" fill-opacity="1" stroke="#000000" stroke-opacity="1" stroke-width="3.2"/>
<circle clip-path="url(#clip6702)" cx="2127.73" cy="666.271" r="14" fill="#0000ff" fill-rule="evenodd" fill-opacity="1" stroke="#000000" stroke-opacity="1" stroke-width="3.2"/>
<circle clip-path="url(#clip6702)" cx="1478.66" cy="471.606" r="14" fill="#0000ff" fill-rule="evenodd" fill-opacity="1" stroke="#000000" stroke-opacity="1" stroke-width="3.2"/>
<circle clip-path="url(#clip6702)" cx="1493.97" cy="1209.76" r="14" fill="#0000ff" fill-rule="evenodd" fill-opacity="1" stroke="#000000" stroke-opacity="1" stroke-width="3.2"/>
<circle clip-path="url(#clip6702)" cx="1308.64" cy="820.034" r="14" fill="#0000ff" fill-rule="evenodd" fill-opacity="1" stroke="#000000" stroke-opacity="1" stroke-width="3.2"/>
<circle clip-path="url(#clip6702)" cx="1690.53" cy="651.062" r="14" fill="#0000ff" fill-rule="evenodd" fill-opacity="1" stroke="#000000" stroke-opacity="1" stroke-width="3.2"/>
<circle clip-path="url(#clip6702)" cx="1716.38" cy="861.853" r="14" fill="#0000ff" fill-rule="evenodd" fill-opacity="1" stroke="#000000" stroke-opacity="1" stroke-width="3.2"/>
<circle clip-path="url(#clip6702)" cx="1511.63" cy="143.561" r="14" fill="#0000ff" fill-rule="evenodd" fill-opacity="1" stroke="#000000" stroke-opacity="1" stroke-width="3.2"/>
<circle clip-path="url(#clip6702)" cx="1749.72" cy="1138.97" r="14" fill="#0000ff" fill-rule="evenodd" fill-opacity="1" stroke="#000000" stroke-opacity="1" stroke-width="3.2"/>
<circle clip-path="url(#clip6702)" cx="2289.71" cy="893.45" r="14" fill="#0000ff" fill-rule="evenodd" fill-opacity="1" stroke="#000000" stroke-opacity="1" stroke-width="3.2"/>
<circle clip-path="url(#clip6702)" cx="1892.26" cy="852.349" r="14" fill="#0000ff" fill-rule="evenodd" fill-opacity="1" stroke="#000000" stroke-opacity="1" stroke-width="3.2"/>
<circle clip-path="url(#clip6702)" cx="1970.99" cy="1075.89" r="14" fill="#0000ff" fill-rule="evenodd" fill-opacity="1" stroke="#000000" stroke-opacity="1" stroke-width="3.2"/>
<circle clip-path="url(#clip6702)" cx="1389.41" cy="633.971" r="14" fill="#0000ff" fill-rule="evenodd" fill-opacity="1" stroke="#000000" stroke-opacity="1" stroke-width="3.2"/>
<circle clip-path="url(#clip6702)" cx="1692.7" cy="275.255" r="14" fill="#0000ff" fill-rule="evenodd" fill-opacity="1" stroke="#000000" stroke-opacity="1" stroke-width="3.2"/>
<circle clip-path="url(#clip6702)" cx="1404.32" cy="222.862" r="14" fill="#0000ff" fill-rule="evenodd" fill-opacity="1" stroke="#000000" stroke-opacity="1" stroke-width="3.2"/>
<circle clip-path="url(#clip6702)" cx="1729.56" cy="1019.47" r="14" fill="#0000ff" fill-rule="evenodd" fill-opacity="1" stroke="#000000" stroke-opacity="1" stroke-width="3.2"/>
<circle clip-path="url(#clip6702)" cx="1407.64" cy="250.174" r="14" fill="#0000ff" fill-rule="evenodd" fill-opacity="1" stroke="#000000" stroke-opacity="1" stroke-width="3.2"/>
<circle clip-path="url(#clip6702)" cx="1390.33" cy="593.936" r="14" fill="#0000ff" fill-rule="evenodd" fill-opacity="1" stroke="#000000" stroke-opacity="1" stroke-width="3.2"/>
<circle clip-path="url(#clip6702)" cx="1532.41" cy="470.679" r="14" fill="#0000ff" fill-rule="evenodd" fill-opacity="1" stroke="#000000" stroke-opacity="1" stroke-width="3.2"/>
<circle clip-path="url(#clip6702)" cx="1441.63" cy="706.356" r="14" fill="#0000ff" fill-rule="evenodd" fill-opacity="1" stroke="#000000" stroke-opacity="1" stroke-width="3.2"/>
<circle clip-path="url(#clip6702)" cx="1397.6" cy="790.845" r="14" fill="#0000ff" fill-rule="evenodd" fill-opacity="1" stroke="#000000" stroke-opacity="1" stroke-width="3.2"/>
<circle clip-path="url(#clip6702)" cx="1675.09" cy="682.359" r="14" fill="#0000ff" fill-rule="evenodd" fill-opacity="1" stroke="#000000" stroke-opacity="1" stroke-width="3.2"/>
<circle clip-path="url(#clip6702)" cx="1849.15" cy="621.369" r="14" fill="#0000ff" fill-rule="evenodd" fill-opacity="1" stroke="#000000" stroke-opacity="1" stroke-width="3.2"/>
<circle clip-path="url(#clip6702)" cx="1347.41" cy="854.689" r="14" fill="#0000ff" fill-rule="evenodd" fill-opacity="1" stroke="#000000" stroke-opacity="1" stroke-width="3.2"/>
<circle clip-path="url(#clip6702)" cx="2088.07" cy="645.522" r="14" fill="#0000ff" fill-rule="evenodd" fill-opacity="1" stroke="#000000" stroke-opacity="1" stroke-width="3.2"/>
<circle clip-path="url(#clip6702)" cx="1617.94" cy="801.442" r="14" fill="#0000ff" fill-rule="evenodd" fill-opacity="1" stroke="#000000" stroke-opacity="1" stroke-width="3.2"/>
<circle clip-path="url(#clip6702)" cx="1482.93" cy="940.506" r="14" fill="#0000ff" fill-rule="evenodd" fill-opacity="1" stroke="#000000" stroke-opacity="1" stroke-width="3.2"/>
<circle clip-path="url(#clip6702)" cx="1451.74" cy="555.008" r="14" fill="#0000ff" fill-rule="evenodd" fill-opacity="1" stroke="#000000" stroke-opacity="1" stroke-width="3.2"/>
<circle clip-path="url(#clip6702)" cx="1207.82" cy="449.719" r="14" fill="#0000ff" fill-rule="evenodd" fill-opacity="1" stroke="#000000" stroke-opacity="1" stroke-width="3.2"/>
<circle clip-path="url(#clip6702)" cx="1142.57" cy="782.553" r="14" fill="#0000ff" fill-rule="evenodd" fill-opacity="1" stroke="#000000" stroke-opacity="1" stroke-width="3.2"/>
<circle clip-path="url(#clip6702)" cx="1729.4" cy="597.975" r="14" fill="#0000ff" fill-rule="evenodd" fill-opacity="1" stroke="#000000" stroke-opacity="1" stroke-width="3.2"/>
<circle clip-path="url(#clip6702)" cx="1400.06" cy="463.87" r="14" fill="#0000ff" fill-rule="evenodd" fill-opacity="1" stroke="#000000" stroke-opacity="1" stroke-width="3.2"/>
<circle clip-path="url(#clip6702)" cx="1147.5" cy="548.379" r="14" fill="#0000ff" fill-rule="evenodd" fill-opacity="1" stroke="#000000" stroke-opacity="1" stroke-width="3.2"/>
<circle clip-path="url(#clip6702)" cx="1463.66" cy="503.213" r="14" fill="#0000ff" fill-rule="evenodd" fill-opacity="1" stroke="#000000" stroke-opacity="1" stroke-width="3.2"/>
<circle clip-path="url(#clip6702)" cx="1285.59" cy="629.971" r="14" fill="#0000ff" fill-rule="evenodd" fill-opacity="1" stroke="#000000" stroke-opacity="1" stroke-width="3.2"/>
<circle clip-path="url(#clip6702)" cx="1681.16" cy="950.572" r="14" fill="#0000ff" fill-rule="evenodd" fill-opacity="1" stroke="#000000" stroke-opacity="1" stroke-width="3.2"/>
<polyline clip-path="url(#clip6702)" style="stroke:#e26f46; stroke-width:4; stroke-opacity:1; fill:none" points="
  611.174,237.191 1089.9,839.368 
  "/>
<path clip-path="url(#clip6700)" d="
M1821.71 251.724 L2280.76 251.724 L2280.76 130.764 L1821.71 130.764  Z
  " fill="#ffffff" fill-rule="evenodd" fill-opacity="1"/>
<polyline clip-path="url(#clip6700)" style="stroke:#000000; stroke-width:4; stroke-opacity:1; fill:none" points="
  1821.71,251.724 2280.76,251.724 2280.76,130.764 1821.71,130.764 1821.71,251.724 
  "/>
<polyline clip-path="url(#clip6700)" style="stroke:#e26f46; stroke-width:4; stroke-opacity:1; fill:none" points="
  1845.71,191.244 1989.71,191.244 
  "/>
<path clip-path="url(#clip6700)" d="M 0 0 M2013.71 172.506 L2017.97 172.506 L2017.97 208.524 L2013.71 208.524 L2013.71 172.506 Z" fill="#000000" fill-rule="evenodd" fill-opacity="1" /><path clip-path="url(#clip6700)" d="M 0 0 M2032.48 185.584 Q2029.05 185.584 2027.06 188.27 Q2025.07 190.932 2025.07 195.584 Q2025.07 200.237 2027.04 202.922 Q2029.03 205.584 2032.48 205.584 Q2035.88 205.584 2037.87 202.899 Q2039.86 200.214 2039.86 195.584 Q2039.86 190.978 2037.87 188.293 Q2035.88 185.584 2032.48 185.584 M2032.48 181.973 Q2038.03 181.973 2041.21 185.584 Q2044.38 189.195 2044.38 195.584 Q2044.38 201.95 2041.21 205.584 Q2038.03 209.195 2032.48 209.195 Q2026.9 209.195 2023.73 205.584 Q2020.58 201.95 2020.58 195.584 Q2020.58 189.195 2023.73 185.584 Q2026.9 181.973 2032.48 181.973 Z" fill="#000000" fill-rule="evenodd" fill-opacity="1" /><path clip-path="url(#clip6700)" d="M 0 0 M2065.37 183.362 L2065.37 187.39 Q2063.57 186.464 2061.62 186.001 Q2059.68 185.538 2057.59 185.538 Q2054.42 185.538 2052.83 186.51 Q2051.25 187.483 2051.25 189.427 Q2051.25 190.908 2052.39 191.765 Q2053.52 192.598 2056.95 193.362 L2058.4 193.686 Q2062.94 194.658 2064.84 196.441 Q2066.76 198.2 2066.76 201.371 Q2066.76 204.982 2063.89 207.089 Q2061.04 209.195 2056.04 209.195 Q2053.96 209.195 2051.69 208.779 Q2049.45 208.385 2046.95 207.575 L2046.95 203.177 Q2049.31 204.404 2051.6 205.029 Q2053.89 205.631 2056.14 205.631 Q2059.15 205.631 2060.77 204.612 Q2062.39 203.57 2062.39 201.695 Q2062.39 199.959 2061.21 199.033 Q2060.05 198.107 2056.09 197.251 L2054.61 196.904 Q2050.65 196.07 2048.89 194.358 Q2047.13 192.621 2047.13 189.612 Q2047.13 185.955 2049.72 183.964 Q2052.32 181.973 2057.09 181.973 Q2059.45 181.973 2061.53 182.321 Q2063.61 182.668 2065.37 183.362 Z" fill="#000000" fill-rule="evenodd" fill-opacity="1" /><path clip-path="url(#clip6700)" d="M 0 0 M2087.76 183.362 L2087.76 187.39 Q2085.95 186.464 2084.01 186.001 Q2082.06 185.538 2079.98 185.538 Q2076.81 185.538 2075.21 186.51 Q2073.64 187.483 2073.64 189.427 Q2073.64 190.908 2074.77 191.765 Q2075.9 192.598 2079.33 193.362 L2080.79 193.686 Q2085.33 194.658 2087.22 196.441 Q2089.15 198.2 2089.15 201.371 Q2089.15 204.982 2086.28 207.089 Q2083.43 209.195 2078.43 209.195 Q2076.34 209.195 2074.08 208.779 Q2071.83 208.385 2069.33 207.575 L2069.33 203.177 Q2071.69 204.404 2073.98 205.029 Q2076.28 205.631 2078.52 205.631 Q2081.53 205.631 2083.15 204.612 Q2084.77 203.57 2084.77 201.695 Q2084.77 199.959 2083.59 199.033 Q2082.43 198.107 2078.47 197.251 L2076.99 196.904 Q2073.03 196.07 2071.28 194.358 Q2069.52 192.621 2069.52 189.612 Q2069.52 185.955 2072.11 183.964 Q2074.7 181.973 2079.47 181.973 Q2081.83 181.973 2083.91 182.321 Q2086 182.668 2087.76 183.362 Z" fill="#000000" fill-rule="evenodd" fill-opacity="1" /><path clip-path="url(#clip6700)" d="M 0 0 M2109.24 186.996 L2138.91 186.996 L2138.91 190.885 L2109.24 190.885 L2109.24 186.996 M2109.24 196.441 L2138.91 196.441 L2138.91 200.376 L2109.24 200.376 L2109.24 196.441 Z" fill="#000000" fill-rule="evenodd" fill-opacity="1" /><path clip-path="url(#clip6700)" d="M 0 0 M2156.3 193.64 L2168.77 193.64 L2168.77 197.436 L2156.3 197.436 L2156.3 193.64 Z" fill="#000000" fill-rule="evenodd" fill-opacity="1" /><path clip-path="url(#clip6700)" d="M 0 0 M2183.84 177.043 Q2180.23 177.043 2178.4 180.608 Q2176.6 184.149 2176.6 191.279 Q2176.6 198.385 2178.4 201.95 Q2180.23 205.492 2183.84 205.492 Q2187.48 205.492 2189.28 201.95 Q2191.11 198.385 2191.11 191.279 Q2191.11 184.149 2189.28 180.608 Q2187.48 177.043 2183.84 177.043 M2183.84 173.339 Q2189.65 173.339 2192.71 177.946 Q2195.79 182.529 2195.79 191.279 Q2195.79 200.006 2192.71 204.612 Q2189.65 209.195 2183.84 209.195 Q2178.03 209.195 2174.96 204.612 Q2171.9 200.006 2171.9 191.279 Q2171.9 182.529 2174.96 177.946 Q2178.03 173.339 2183.84 173.339 Z" fill="#000000" fill-rule="evenodd" fill-opacity="1" /><path clip-path="url(#clip6700)" d="M 0 0 M2200.86 202.644 L2205.74 202.644 L2205.74 208.524 L2200.86 208.524 L2200.86 202.644 Z" fill="#000000" fill-rule="evenodd" fill-opacity="1" /><path clip-path="url(#clip6700)" d="M 0 0 M2220.81 177.043 Q2217.2 177.043 2215.37 180.608 Q2213.57 184.149 2213.57 191.279 Q2213.57 198.385 2215.37 201.95 Q2217.2 205.492 2220.81 205.492 Q2224.45 205.492 2226.25 201.95 Q2228.08 198.385 2228.08 191.279 Q2228.08 184.149 2226.25 180.608 Q2224.45 177.043 2220.81 177.043 M2220.81 173.339 Q2226.62 173.339 2229.68 177.946 Q2232.76 182.529 2232.76 191.279 Q2232.76 200.006 2229.68 204.612 Q2226.62 209.195 2220.81 209.195 Q2215 209.195 2211.92 204.612 Q2208.87 200.006 2208.87 191.279 Q2208.87 182.529 2211.92 177.946 Q2215 173.339 2220.81 173.339 Z" fill="#000000" fill-rule="evenodd" fill-opacity="1" /></svg>
