<?xml version="1.0" encoding="utf-8"?>
<svg xmlns="http://www.w3.org/2000/svg" xmlns:xlink="http://www.w3.org/1999/xlink" width="600" height="400" viewBox="0 0 2400 1600">
<defs>
  <clipPath id="clip230">
    <rect x="0" y="0" width="2400" height="1600"/>
  </clipPath>
</defs>
<path clip-path="url(#clip230)" d="M0 1600 L2400 1600 L2400 0 L0 0  Z" fill="#ffffff" fill-rule="evenodd" fill-opacity="1"/>
<defs>
  <clipPath id="clip231">
    <rect x="480" y="0" width="1681" height="1600"/>
  </clipPath>
</defs>
<path clip-path="url(#clip230)" d="M149.191 1486.45 L2352.76 1486.45 L2352.76 123.472 L149.191 123.472  Z" fill="#ffffff" fill-rule="evenodd" fill-opacity="1"/>
<defs>
  <clipPath id="clip232">
    <rect x="149" y="123" width="2205" height="1364"/>
  </clipPath>
</defs>
<polyline clip-path="url(#clip232)" style="stroke:#000000; stroke-linecap:round; stroke-linejoin:round; stroke-width:2; stroke-opacity:0.1; fill:none" points="363.004,1486.45 363.004,123.472 "/>
<polyline clip-path="url(#clip232)" style="stroke:#000000; stroke-linecap:round; stroke-linejoin:round; stroke-width:2; stroke-opacity:0.1; fill:none" points="792.819,1486.45 792.819,123.472 "/>
<polyline clip-path="url(#clip232)" style="stroke:#000000; stroke-linecap:round; stroke-linejoin:round; stroke-width:2; stroke-opacity:0.1; fill:none" points="1222.63,1486.45 1222.63,123.472 "/>
<polyline clip-path="url(#clip232)" style="stroke:#000000; stroke-linecap:round; stroke-linejoin:round; stroke-width:2; stroke-opacity:0.1; fill:none" points="1652.45,1486.45 1652.45,123.472 "/>
<polyline clip-path="url(#clip232)" style="stroke:#000000; stroke-linecap:round; stroke-linejoin:round; stroke-width:2; stroke-opacity:0.1; fill:none" points="2082.26,1486.45 2082.26,123.472 "/>
<polyline clip-path="url(#clip232)" style="stroke:#000000; stroke-linecap:round; stroke-linejoin:round; stroke-width:2; stroke-opacity:0.1; fill:none" points="149.191,1438.36 2352.76,1438.36 "/>
<polyline clip-path="url(#clip232)" style="stroke:#000000; stroke-linecap:round; stroke-linejoin:round; stroke-width:2; stroke-opacity:0.1; fill:none" points="149.191,1171.74 2352.76,1171.74 "/>
<polyline clip-path="url(#clip232)" style="stroke:#000000; stroke-linecap:round; stroke-linejoin:round; stroke-width:2; stroke-opacity:0.1; fill:none" points="149.191,905.115 2352.76,905.115 "/>
<polyline clip-path="url(#clip232)" style="stroke:#000000; stroke-linecap:round; stroke-linejoin:round; stroke-width:2; stroke-opacity:0.1; fill:none" points="149.191,638.492 2352.76,638.492 "/>
<polyline clip-path="url(#clip232)" style="stroke:#000000; stroke-linecap:round; stroke-linejoin:round; stroke-width:2; stroke-opacity:0.1; fill:none" points="149.191,371.87 2352.76,371.87 "/>
<polyline clip-path="url(#clip230)" style="stroke:#000000; stroke-linecap:round; stroke-linejoin:round; stroke-width:4; stroke-opacity:1; fill:none" points="149.191,1486.45 2352.76,1486.45 "/>
<polyline clip-path="url(#clip230)" style="stroke:#000000; stroke-linecap:round; stroke-linejoin:round; stroke-width:4; stroke-opacity:1; fill:none" points="363.004,1486.45 363.004,1467.55 "/>
<polyline clip-path="url(#clip230)" style="stroke:#000000; stroke-linecap:round; stroke-linejoin:round; stroke-width:4; stroke-opacity:1; fill:none" points="792.819,1486.45 792.819,1467.55 "/>
<polyline clip-path="url(#clip230)" style="stroke:#000000; stroke-linecap:round; stroke-linejoin:round; stroke-width:4; stroke-opacity:1; fill:none" points="1222.63,1486.45 1222.63,1467.55 "/>
<polyline clip-path="url(#clip230)" style="stroke:#000000; stroke-linecap:round; stroke-linejoin:round; stroke-width:4; stroke-opacity:1; fill:none" points="1652.45,1486.45 1652.45,1467.55 "/>
<polyline clip-path="url(#clip230)" style="stroke:#000000; stroke-linecap:round; stroke-linejoin:round; stroke-width:4; stroke-opacity:1; fill:none" points="2082.26,1486.45 2082.26,1467.55 "/>
<path clip-path="url(#clip230)" d="M332.946 1532.02 L362.622 1532.02 L362.622 1535.95 L332.946 1535.95 L332.946 1532.02 Z" fill="#000000" fill-rule="nonzero" fill-opacity="1" /><path clip-path="url(#clip230)" d="M376.742 1544.91 L393.062 1544.91 L393.062 1548.85 L371.117 1548.85 L371.117 1544.91 Q373.779 1542.16 378.363 1537.53 Q382.969 1532.88 384.15 1531.53 Q386.395 1529.01 387.275 1527.27 Q388.178 1525.51 388.178 1523.82 Q388.178 1521.07 386.233 1519.33 Q384.312 1517.6 381.21 1517.6 Q379.011 1517.6 376.557 1518.36 Q374.127 1519.13 371.349 1520.68 L371.349 1515.95 Q374.173 1514.82 376.627 1514.24 Q379.08 1513.66 381.117 1513.66 Q386.488 1513.66 389.682 1516.35 Q392.877 1519.03 392.877 1523.52 Q392.877 1525.65 392.066 1527.57 Q391.279 1529.47 389.173 1532.07 Q388.594 1532.74 385.492 1535.95 Q382.391 1539.15 376.742 1544.91 Z" fill="#000000" fill-rule="nonzero" fill-opacity="1" /><path clip-path="url(#clip230)" d="M762.576 1532.02 L792.252 1532.02 L792.252 1535.95 L762.576 1535.95 L762.576 1532.02 Z" fill="#000000" fill-rule="nonzero" fill-opacity="1" /><path clip-path="url(#clip230)" d="M803.154 1544.91 L810.793 1544.91 L810.793 1518.55 L802.483 1520.21 L802.483 1515.95 L810.747 1514.29 L815.423 1514.29 L815.423 1544.91 L823.062 1544.91 L823.062 1548.85 L803.154 1548.85 L803.154 1544.91 Z" fill="#000000" fill-rule="nonzero" fill-opacity="1" /><path clip-path="url(#clip230)" d="M1222.63 1517.37 Q1219.02 1517.37 1217.19 1520.93 Q1215.39 1524.47 1215.39 1531.6 Q1215.39 1538.71 1217.19 1542.27 Q1219.02 1545.82 1222.63 1545.82 Q1226.27 1545.82 1228.07 1542.27 Q1229.9 1538.71 1229.9 1531.6 Q1229.9 1524.47 1228.07 1520.93 Q1226.27 1517.37 1222.63 1517.37 M1222.63 1513.66 Q1228.44 1513.66 1231.5 1518.27 Q1234.58 1522.85 1234.58 1531.6 Q1234.58 1540.33 1231.5 1544.94 Q1228.44 1549.52 1222.63 1549.52 Q1216.82 1549.52 1213.74 1544.94 Q1210.69 1540.33 1210.69 1531.6 Q1210.69 1522.85 1213.74 1518.27 Q1216.82 1513.66 1222.63 1513.66 Z" fill="#000000" fill-rule="nonzero" fill-opacity="1" /><path clip-path="url(#clip230)" d="M1642.83 1544.91 L1650.47 1544.91 L1650.47 1518.55 L1642.16 1520.21 L1642.16 1515.95 L1650.42 1514.29 L1655.1 1514.29 L1655.1 1544.91 L1662.74 1544.91 L1662.74 1548.85 L1642.83 1548.85 L1642.83 1544.91 Z" fill="#000000" fill-rule="nonzero" fill-opacity="1" /><path clip-path="url(#clip230)" d="M2076.92 1544.91 L2093.24 1544.91 L2093.24 1548.85 L2071.29 1548.85 L2071.29 1544.91 Q2073.95 1542.16 2078.54 1537.53 Q2083.14 1532.88 2084.32 1531.53 Q2086.57 1529.01 2087.45 1527.27 Q2088.35 1525.51 2088.35 1523.82 Q2088.35 1521.07 2086.41 1519.33 Q2084.49 1517.6 2081.38 1517.6 Q2079.18 1517.6 2076.73 1518.36 Q2074.3 1519.13 2071.52 1520.68 L2071.52 1515.95 Q2074.35 1514.82 2076.8 1514.24 Q2079.25 1513.66 2081.29 1513.66 Q2086.66 1513.66 2089.86 1516.35 Q2093.05 1519.03 2093.05 1523.52 Q2093.05 1525.65 2092.24 1527.57 Q2091.45 1529.47 2089.35 1532.07 Q2088.77 1532.74 2085.67 1535.95 Q2082.56 1539.15 2076.92 1544.91 Z" fill="#000000" fill-rule="nonzero" fill-opacity="1" /><polyline clip-path="url(#clip230)" style="stroke:#000000; stroke-linecap:round; stroke-linejoin:round; stroke-width:4; stroke-opacity:1; fill:none" points="149.191,1486.45 149.191,123.472 "/>
<polyline clip-path="url(#clip230)" style="stroke:#000000; stroke-linecap:round; stroke-linejoin:round; stroke-width:4; stroke-opacity:1; fill:none" points="149.191,1438.36 168.089,1438.36 "/>
<polyline clip-path="url(#clip230)" style="stroke:#000000; stroke-linecap:round; stroke-linejoin:round; stroke-width:4; stroke-opacity:1; fill:none" points="149.191,1171.74 168.089,1171.74 "/>
<polyline clip-path="url(#clip230)" style="stroke:#000000; stroke-linecap:round; stroke-linejoin:round; stroke-width:4; stroke-opacity:1; fill:none" points="149.191,905.115 168.089,905.115 "/>
<polyline clip-path="url(#clip230)" style="stroke:#000000; stroke-linecap:round; stroke-linejoin:round; stroke-width:4; stroke-opacity:1; fill:none" points="149.191,638.492 168.089,638.492 "/>
<polyline clip-path="url(#clip230)" style="stroke:#000000; stroke-linecap:round; stroke-linejoin:round; stroke-width:4; stroke-opacity:1; fill:none" points="149.191,371.87 168.089,371.87 "/>
<path clip-path="url(#clip230)" d="M50.9921 1438.81 L80.6679 1438.81 L80.6679 1442.75 L50.9921 1442.75 L50.9921 1438.81 Z" fill="#000000" fill-rule="nonzero" fill-opacity="1" /><path clip-path="url(#clip230)" d="M103.608 1425.15 L91.8021 1443.6 L103.608 1443.6 L103.608 1425.15 M102.381 1421.08 L108.26 1421.08 L108.26 1443.6 L113.191 1443.6 L113.191 1447.49 L108.26 1447.49 L108.26 1455.64 L103.608 1455.64 L103.608 1447.49 L88.0058 1447.49 L88.0058 1442.98 L102.381 1421.08 Z" fill="#000000" fill-rule="nonzero" fill-opacity="1" /><path clip-path="url(#clip230)" d="M53.0754 1172.19 L82.7512 1172.19 L82.7512 1176.12 L53.0754 1176.12 L53.0754 1172.19 Z" fill="#000000" fill-rule="nonzero" fill-opacity="1" /><path clip-path="url(#clip230)" d="M96.8715 1185.08 L113.191 1185.08 L113.191 1189.02 L91.2465 1189.02 L91.2465 1185.08 Q93.9086 1182.33 98.4919 1177.7 Q103.098 1173.04 104.279 1171.7 Q106.524 1169.18 107.404 1167.44 Q108.307 1165.68 108.307 1163.99 Q108.307 1161.24 106.362 1159.5 Q104.441 1157.77 101.339 1157.77 Q99.14 1157.77 96.6863 1158.53 Q94.2558 1159.3 91.478 1160.85 L91.478 1156.12 Q94.3021 1154.99 96.7558 1154.41 Q99.2095 1153.83 101.246 1153.83 Q106.617 1153.83 109.811 1156.52 Q113.006 1159.2 113.006 1163.69 Q113.006 1165.82 112.196 1167.74 Q111.408 1169.64 109.302 1172.23 Q108.723 1172.91 105.621 1176.12 Q102.52 1179.32 96.8715 1185.08 Z" fill="#000000" fill-rule="nonzero" fill-opacity="1" /><path clip-path="url(#clip230)" d="M101.246 890.913 Q97.6354 890.913 95.8067 894.478 Q94.0012 898.02 94.0012 905.149 Q94.0012 912.256 95.8067 915.821 Q97.6354 919.362 101.246 919.362 Q104.881 919.362 106.686 915.821 Q108.515 912.256 108.515 905.149 Q108.515 898.02 106.686 894.478 Q104.881 890.913 101.246 890.913 M101.246 887.21 Q107.057 887.21 110.112 891.816 Q113.191 896.399 113.191 905.149 Q113.191 913.876 110.112 918.483 Q107.057 923.066 101.246 923.066 Q95.4363 923.066 92.3576 918.483 Q89.3021 913.876 89.3021 905.149 Q89.3021 896.399 92.3576 891.816 Q95.4363 887.21 101.246 887.21 Z" fill="#000000" fill-rule="nonzero" fill-opacity="1" /><path clip-path="url(#clip230)" d="M96.8715 651.837 L113.191 651.837 L113.191 655.772 L91.2465 655.772 L91.2465 651.837 Q93.9086 649.082 98.4919 644.453 Q103.098 639.8 104.279 638.458 Q106.524 635.934 107.404 634.198 Q108.307 632.439 108.307 630.749 Q108.307 627.995 106.362 626.259 Q104.441 624.522 101.339 624.522 Q99.14 624.522 96.6863 625.286 Q94.2558 626.05 91.478 627.601 L91.478 622.879 Q94.3021 621.745 96.7558 621.166 Q99.2095 620.587 101.246 620.587 Q106.617 620.587 109.811 623.272 Q113.006 625.958 113.006 630.448 Q113.006 632.578 112.196 634.499 Q111.408 636.397 109.302 638.99 Q108.723 639.661 105.621 642.879 Q102.52 646.073 96.8715 651.837 Z" fill="#000000" fill-rule="nonzero" fill-opacity="1" /><path clip-path="url(#clip230)" d="M103.608 358.664 L91.8021 377.113 L103.608 377.113 L103.608 358.664 M102.381 354.59 L108.26 354.59 L108.26 377.113 L113.191 377.113 L113.191 381.002 L108.26 381.002 L108.26 389.15 L103.608 389.15 L103.608 381.002 L88.0058 381.002 L88.0058 376.488 L102.381 354.59 Z" fill="#000000" fill-rule="nonzero" fill-opacity="1" /><path clip-path="url(#clip230)" d="M349.08 44.2197 Q351.713 45.1109 354.184 48.0275 Q356.696 50.9442 359.207 56.0483 L367.512 72.576 L358.721 72.576 L350.984 57.061 Q347.986 50.9847 345.151 48.9997 Q342.356 47.0148 337.494 47.0148 L328.582 47.0148 L328.582 72.576 L320.4 72.576 L320.4 12.096 L338.872 12.096 Q349.242 12.096 354.346 16.4305 Q359.45 20.7649 359.45 29.5149 Q359.45 35.2267 356.777 38.994 Q354.144 42.7613 349.08 44.2197 M328.582 18.8205 L328.582 40.2903 L338.872 40.2903 Q344.786 40.2903 347.784 37.5762 Q350.822 34.8216 350.822 29.5149 Q350.822 24.2082 347.784 21.5346 Q344.786 18.8205 338.872 18.8205 L328.582 18.8205 Z" fill="#000000" fill-rule="nonzero" fill-opacity="1" /><path clip-path="url(#clip230)" d="M412.801 48.0275 L412.801 51.6733 L378.53 51.6733 Q379.016 59.3701 383.148 63.421 Q387.321 67.4314 394.734 67.4314 Q399.028 67.4314 403.038 66.3781 Q407.089 65.3249 411.059 63.2184 L411.059 70.267 Q407.049 71.9684 402.836 72.8596 Q398.623 73.7508 394.288 73.7508 Q383.432 73.7508 377.072 67.4314 Q370.752 61.1119 370.752 50.3365 Q370.752 39.1965 376.748 32.6746 Q382.784 26.1121 392.992 26.1121 Q402.147 26.1121 407.454 32.0264 Q412.801 37.9003 412.801 48.0275 M405.347 45.84 Q405.266 39.7232 401.904 36.0774 Q398.582 32.4315 393.073 32.4315 Q386.834 32.4315 383.067 35.9558 Q379.34 39.4801 378.773 45.8805 L405.347 45.84 Z" fill="#000000" fill-rule="nonzero" fill-opacity="1" /><path clip-path="url(#clip230)" d="M454.89 49.3643 Q454.89 41.2625 451.527 36.8065 Q448.206 32.3505 442.17 32.3505 Q436.175 32.3505 432.812 36.8065 Q429.491 41.2625 429.491 49.3643 Q429.491 57.4256 432.812 61.8816 Q436.175 66.3376 442.17 66.3376 Q448.206 66.3376 451.527 61.8816 Q454.89 57.4256 454.89 49.3643 M462.343 66.9452 Q462.343 78.5308 457.199 84.1616 Q452.054 89.8329 441.441 89.8329 Q437.511 89.8329 434.028 89.2252 Q430.544 88.6581 427.263 87.4428 L427.263 80.1917 Q430.544 81.9741 433.744 82.8248 Q436.944 83.6755 440.266 83.6755 Q447.598 83.6755 451.244 79.8271 Q454.89 76.0193 454.89 68.282 L454.89 64.5957 Q452.581 68.6061 448.975 70.5911 Q445.37 72.576 440.347 72.576 Q432.002 72.576 426.898 66.2161 Q421.794 59.8562 421.794 49.3643 Q421.794 38.832 426.898 32.472 Q432.002 26.1121 440.347 26.1121 Q445.37 26.1121 448.975 28.0971 Q452.581 30.082 454.89 34.0924 L454.89 27.2059 L462.343 27.2059 L462.343 66.9452 Z" fill="#000000" fill-rule="nonzero" fill-opacity="1" /><path clip-path="url(#clip230)" d="M503.987 34.1734 Q502.731 33.4443 501.232 33.1202 Q499.774 32.7556 497.991 32.7556 Q491.672 32.7556 488.269 36.8875 Q484.907 40.9789 484.907 48.6757 L484.907 72.576 L477.413 72.576 L477.413 27.2059 L484.907 27.2059 L484.907 34.2544 Q487.256 30.1225 491.024 28.1376 Q494.791 26.1121 500.179 26.1121 Q500.948 26.1121 501.88 26.2337 Q502.812 26.3147 503.946 26.5172 L503.987 34.1734 Z" fill="#000000" fill-rule="nonzero" fill-opacity="1" /><path clip-path="url(#clip230)" d="M548.79 48.0275 L548.79 51.6733 L514.519 51.6733 Q515.005 59.3701 519.137 63.421 Q523.309 67.4314 530.723 67.4314 Q535.017 67.4314 539.027 66.3781 Q543.078 65.3249 547.048 63.2184 L547.048 70.267 Q543.037 71.9684 538.824 72.8596 Q534.611 73.7508 530.277 73.7508 Q519.421 73.7508 513.061 67.4314 Q506.741 61.1119 506.741 50.3365 Q506.741 39.1965 512.737 32.6746 Q518.772 26.1121 528.981 26.1121 Q538.136 26.1121 543.442 32.0264 Q548.79 37.9003 548.79 48.0275 M541.336 45.84 Q541.255 39.7232 537.893 36.0774 Q534.571 32.4315 529.062 32.4315 Q522.823 32.4315 519.056 35.9558 Q515.329 39.4801 514.762 45.8805 L541.336 45.84 Z" fill="#000000" fill-rule="nonzero" fill-opacity="1" /><path clip-path="url(#clip230)" d="M589.947 28.5427 L589.947 35.5912 Q586.787 33.9709 583.384 33.1607 Q579.982 32.3505 576.336 32.3505 Q570.786 32.3505 567.991 34.0519 Q565.236 35.7533 565.236 39.156 Q565.236 41.7486 567.221 43.2475 Q569.206 44.7058 575.202 46.0426 L577.754 46.6097 Q585.693 48.3111 589.015 51.4303 Q592.377 54.509 592.377 60.0587 Q592.377 66.3781 587.354 70.0644 Q582.372 73.7508 573.622 73.7508 Q569.976 73.7508 566.006 73.0216 Q562.077 72.3329 557.702 70.9151 L557.702 63.2184 Q561.834 65.3654 565.844 66.4591 Q569.854 67.5124 573.784 67.5124 Q579.05 67.5124 581.886 65.73 Q584.721 63.9071 584.721 60.6258 Q584.721 57.5877 582.655 55.9673 Q580.63 54.3469 573.703 52.8481 L571.11 52.2405 Q564.183 50.7821 561.104 47.7845 Q558.026 44.7463 558.026 39.4801 Q558.026 33.0797 562.563 29.5959 Q567.1 26.1121 575.445 26.1121 Q579.577 26.1121 583.222 26.7198 Q586.868 27.3274 589.947 28.5427 Z" fill="#000000" fill-rule="nonzero" fill-opacity="1" /><path clip-path="url(#clip230)" d="M633.17 28.5427 L633.17 35.5912 Q630.01 33.9709 626.608 33.1607 Q623.205 32.3505 619.559 32.3505 Q614.009 32.3505 611.214 34.0519 Q608.459 35.7533 608.459 39.156 Q608.459 41.7486 610.444 43.2475 Q612.429 44.7058 618.425 46.0426 L620.977 46.6097 Q628.917 48.3111 632.238 51.4303 Q635.601 54.509 635.601 60.0587 Q635.601 66.3781 630.577 70.0644 Q625.595 73.7508 616.845 73.7508 Q613.199 73.7508 609.229 73.0216 Q605.3 72.3329 600.925 70.9151 L600.925 63.2184 Q605.057 65.3654 609.067 66.4591 Q613.077 67.5124 617.007 67.5124 Q622.273 67.5124 625.109 65.73 Q627.944 63.9071 627.944 60.6258 Q627.944 57.5877 625.878 55.9673 Q623.853 54.3469 616.926 52.8481 L614.333 52.2405 Q607.406 50.7821 604.328 47.7845 Q601.249 44.7463 601.249 39.4801 Q601.249 33.0797 605.786 29.5959 Q610.323 26.1121 618.668 26.1121 Q622.8 26.1121 626.445 26.7198 Q630.091 27.3274 633.17 28.5427 Z" fill="#000000" fill-rule="nonzero" fill-opacity="1" /><path clip-path="url(#clip230)" d="M647.47 27.2059 L654.923 27.2059 L654.923 72.576 L647.47 72.576 L647.47 27.2059 M647.47 9.54393 L654.923 9.54393 L654.923 18.9825 L647.47 18.9825 L647.47 9.54393 Z" fill="#000000" fill-rule="nonzero" fill-opacity="1" /><path clip-path="url(#clip230)" d="M688.1 32.4315 Q682.105 32.4315 678.621 37.1306 Q675.137 41.7891 675.137 49.9314 Q675.137 58.0738 678.581 62.7728 Q682.064 67.4314 688.1 67.4314 Q694.055 67.4314 697.539 62.7323 Q701.023 58.0333 701.023 49.9314 Q701.023 41.8701 697.539 37.1711 Q694.055 32.4315 688.1 32.4315 M688.1 26.1121 Q697.822 26.1121 703.372 32.4315 Q708.922 38.7509 708.922 49.9314 Q708.922 61.0714 703.372 67.4314 Q697.822 73.7508 688.1 73.7508 Q678.338 73.7508 672.788 67.4314 Q667.279 61.0714 667.279 49.9314 Q667.279 38.7509 672.788 32.4315 Q678.338 26.1121 688.1 26.1121 Z" fill="#000000" fill-rule="nonzero" fill-opacity="1" /><path clip-path="url(#clip230)" d="M758.991 45.1919 L758.991 72.576 L751.537 72.576 L751.537 45.4349 Q751.537 38.994 749.026 35.7938 Q746.514 32.5936 741.491 32.5936 Q735.455 32.5936 731.972 36.4419 Q728.488 40.2903 728.488 46.9338 L728.488 72.576 L720.994 72.576 L720.994 27.2059 L728.488 27.2059 L728.488 34.2544 Q731.161 30.163 734.767 28.1376 Q738.412 26.1121 743.152 26.1121 Q750.97 26.1121 754.981 30.9732 Q758.991 35.7938 758.991 45.1919 Z" fill="#000000" fill-rule="nonzero" fill-opacity="1" /><path clip-path="url(#clip230)" d="M829.153 28.5427 L829.153 35.5912 Q825.993 33.9709 822.59 33.1607 Q819.188 32.3505 815.542 32.3505 Q809.992 32.3505 807.197 34.0519 Q804.442 35.7533 804.442 39.156 Q804.442 41.7486 806.427 43.2475 Q808.412 44.7058 814.407 46.0426 L816.96 46.6097 Q824.899 48.3111 828.221 51.4303 Q831.583 54.509 831.583 60.0587 Q831.583 66.3781 826.56 70.0644 Q821.578 73.7508 812.828 73.7508 Q809.182 73.7508 805.212 73.0216 Q801.283 72.3329 796.908 70.9151 L796.908 63.2184 Q801.039 65.3654 805.05 66.4591 Q809.06 67.5124 812.99 67.5124 Q818.256 67.5124 821.091 65.73 Q823.927 63.9071 823.927 60.6258 Q823.927 57.5877 821.861 55.9673 Q819.836 54.3469 812.909 52.8481 L810.316 52.2405 Q803.389 50.7821 800.31 47.7845 Q797.232 44.7463 797.232 39.4801 Q797.232 33.0797 801.769 29.5959 Q806.306 26.1121 814.65 26.1121 Q818.782 26.1121 822.428 26.7198 Q826.074 27.3274 829.153 28.5427 Z" fill="#000000" fill-rule="nonzero" fill-opacity="1" /><path clip-path="url(#clip230)" d="M843.452 9.54393 L850.906 9.54393 L850.906 72.576 L843.452 72.576 L843.452 9.54393 Z" fill="#000000" fill-rule="nonzero" fill-opacity="1" /><path clip-path="url(#clip230)" d="M884.083 32.4315 Q878.088 32.4315 874.604 37.1306 Q871.12 41.7891 871.12 49.9314 Q871.12 58.0738 874.563 62.7728 Q878.047 67.4314 884.083 67.4314 Q890.038 67.4314 893.522 62.7323 Q897.005 58.0333 897.005 49.9314 Q897.005 41.8701 893.522 37.1711 Q890.038 32.4315 884.083 32.4315 M884.083 26.1121 Q893.805 26.1121 899.355 32.4315 Q904.905 38.7509 904.905 49.9314 Q904.905 61.0714 899.355 67.4314 Q893.805 73.7508 884.083 73.7508 Q874.32 73.7508 868.771 67.4314 Q863.261 61.0714 863.261 49.9314 Q863.261 38.7509 868.771 32.4315 Q874.32 26.1121 884.083 26.1121 Z" fill="#000000" fill-rule="nonzero" fill-opacity="1" /><path clip-path="url(#clip230)" d="M924.471 65.7705 L924.471 89.8329 L916.976 89.8329 L916.976 27.2059 L924.471 27.2059 L924.471 34.0924 Q926.82 30.0415 930.385 28.0971 Q933.99 26.1121 938.973 26.1121 Q947.237 26.1121 952.381 32.6746 Q957.566 39.2371 957.566 49.9314 Q957.566 60.6258 952.381 67.1883 Q947.237 73.7508 938.973 73.7508 Q933.99 73.7508 930.385 71.8063 Q926.82 69.8214 924.471 65.7705 M949.829 49.9314 Q949.829 41.7081 946.426 37.0496 Q943.064 32.3505 937.15 32.3505 Q931.236 32.3505 927.833 37.0496 Q924.471 41.7081 924.471 49.9314 Q924.471 58.1548 927.833 62.8538 Q931.236 67.5124 937.15 67.5124 Q943.064 67.5124 946.426 62.8538 Q949.829 58.1548 949.829 49.9314 Z" fill="#000000" fill-rule="nonzero" fill-opacity="1" /><path clip-path="url(#clip230)" d="M1008.73 48.0275 L1008.73 51.6733 L974.459 51.6733 Q974.945 59.3701 979.077 63.421 Q983.249 67.4314 990.662 67.4314 Q994.956 67.4314 998.967 66.3781 Q1003.02 65.3249 1006.99 63.2184 L1006.99 70.267 Q1002.98 71.9684 998.764 72.8596 Q994.551 73.7508 990.217 73.7508 Q979.36 73.7508 973 67.4314 Q966.681 61.1119 966.681 50.3365 Q966.681 39.1965 972.676 32.6746 Q978.712 26.1121 988.92 26.1121 Q998.075 26.1121 1003.38 32.0264 Q1008.73 37.9003 1008.73 48.0275 M1001.28 45.84 Q1001.19 39.7232 997.832 36.0774 Q994.511 32.4315 989.001 32.4315 Q982.763 32.4315 978.996 35.9558 Q975.269 39.4801 974.702 45.8805 L1001.28 45.84 Z" fill="#000000" fill-rule="nonzero" fill-opacity="1" /><path clip-path="url(#clip230)" d="M1076.26 28.5427 L1076.26 35.5912 Q1073.1 33.9709 1069.7 33.1607 Q1066.29 32.3505 1062.65 32.3505 Q1057.1 32.3505 1054.3 34.0519 Q1051.55 35.7533 1051.55 39.156 Q1051.55 41.7486 1053.53 43.2475 Q1055.52 44.7058 1061.51 46.0426 L1064.06 46.6097 Q1072 48.3111 1075.33 51.4303 Q1078.69 54.509 1078.69 60.0587 Q1078.69 66.3781 1073.67 70.0644 Q1068.68 73.7508 1059.93 73.7508 Q1056.29 73.7508 1052.32 73.0216 Q1048.39 72.3329 1044.01 70.9151 L1044.01 63.2184 Q1048.14 65.3654 1052.16 66.4591 Q1056.17 67.5124 1060.09 67.5124 Q1065.36 67.5124 1068.2 65.73 Q1071.03 63.9071 1071.03 60.6258 Q1071.03 57.5877 1068.97 55.9673 Q1066.94 54.3469 1060.01 52.8481 L1057.42 52.2405 Q1050.49 50.7821 1047.42 47.7845 Q1044.34 44.7463 1044.34 39.4801 Q1044.34 33.0797 1048.87 29.5959 Q1053.41 26.1121 1061.76 26.1121 Q1065.89 26.1121 1069.53 26.7198 Q1073.18 27.3274 1076.26 28.5427 Z" fill="#000000" fill-rule="nonzero" fill-opacity="1" /><path clip-path="url(#clip230)" d="M1129.37 48.0275 L1129.37 51.6733 L1095.09 51.6733 Q1095.58 59.3701 1099.71 63.421 Q1103.89 67.4314 1111.3 67.4314 Q1115.59 67.4314 1119.6 66.3781 Q1123.65 65.3249 1127.62 63.2184 L1127.62 70.267 Q1123.61 71.9684 1119.4 72.8596 Q1115.19 73.7508 1110.85 73.7508 Q1100 73.7508 1093.64 67.4314 Q1087.32 61.1119 1087.32 50.3365 Q1087.32 39.1965 1093.31 32.6746 Q1099.35 26.1121 1109.56 26.1121 Q1118.71 26.1121 1124.02 32.0264 Q1129.37 37.9003 1129.37 48.0275 M1121.91 45.84 Q1121.83 39.7232 1118.47 36.0774 Q1115.15 32.4315 1109.64 32.4315 Q1103.4 32.4315 1099.63 35.9558 Q1095.9 39.4801 1095.34 45.8805 L1121.91 45.84 Z" fill="#000000" fill-rule="nonzero" fill-opacity="1" /><path clip-path="url(#clip230)" d="M1179.31 45.1919 L1179.31 72.576 L1171.86 72.576 L1171.86 45.4349 Q1171.86 38.994 1169.35 35.7938 Q1166.84 32.5936 1161.81 32.5936 Q1155.78 32.5936 1152.29 36.4419 Q1148.81 40.2903 1148.81 46.9338 L1148.81 72.576 L1141.32 72.576 L1141.32 27.2059 L1148.81 27.2059 L1148.81 34.2544 Q1151.48 30.163 1155.09 28.1376 Q1158.73 26.1121 1163.47 26.1121 Q1171.29 26.1121 1175.3 30.9732 Q1179.31 35.7938 1179.31 45.1919 Z" fill="#000000" fill-rule="nonzero" fill-opacity="1" /><path clip-path="url(#clip230)" d="M1223.1 28.5427 L1223.1 35.5912 Q1219.94 33.9709 1216.54 33.1607 Q1213.14 32.3505 1209.49 32.3505 Q1203.94 32.3505 1201.15 34.0519 Q1198.39 35.7533 1198.39 39.156 Q1198.39 41.7486 1200.38 43.2475 Q1202.36 44.7058 1208.36 46.0426 L1210.91 46.6097 Q1218.85 48.3111 1222.17 51.4303 Q1225.53 54.509 1225.53 60.0587 Q1225.53 66.3781 1220.51 70.0644 Q1215.53 73.7508 1206.78 73.7508 Q1203.13 73.7508 1199.16 73.0216 Q1195.23 72.3329 1190.86 70.9151 L1190.86 63.2184 Q1194.99 65.3654 1199 66.4591 Q1203.01 67.5124 1206.94 67.5124 Q1212.21 67.5124 1215.04 65.73 Q1217.88 63.9071 1217.88 60.6258 Q1217.88 57.5877 1215.81 55.9673 Q1213.79 54.3469 1206.86 52.8481 L1204.27 52.2405 Q1197.34 50.7821 1194.26 47.7845 Q1191.18 44.7463 1191.18 39.4801 Q1191.18 33.0797 1195.72 29.5959 Q1200.26 26.1121 1208.6 26.1121 Q1212.73 26.1121 1216.38 26.7198 Q1220.02 27.3274 1223.1 28.5427 Z" fill="#000000" fill-rule="nonzero" fill-opacity="1" /><path clip-path="url(#clip230)" d="M1237.4 27.2059 L1244.86 27.2059 L1244.86 72.576 L1237.4 72.576 L1237.4 27.2059 M1237.4 9.54393 L1244.86 9.54393 L1244.86 18.9825 L1237.4 18.9825 L1237.4 9.54393 Z" fill="#000000" fill-rule="nonzero" fill-opacity="1" /><path clip-path="url(#clip230)" d="M1267.83 14.324 L1267.83 27.2059 L1283.18 27.2059 L1283.18 32.9987 L1267.83 32.9987 L1267.83 57.6282 Q1267.83 63.1779 1269.32 64.7578 Q1270.86 66.3376 1275.52 66.3376 L1283.18 66.3376 L1283.18 72.576 L1275.52 72.576 Q1266.89 72.576 1263.61 69.3758 Q1260.33 66.1351 1260.33 57.6282 L1260.33 32.9987 L1254.86 32.9987 L1254.86 27.2059 L1260.33 27.2059 L1260.33 14.324 L1267.83 14.324 Z" fill="#000000" fill-rule="nonzero" fill-opacity="1" /><path clip-path="url(#clip230)" d="M1292.98 27.2059 L1300.43 27.2059 L1300.43 72.576 L1292.98 72.576 L1292.98 27.2059 M1292.98 9.54393 L1300.43 9.54393 L1300.43 18.9825 L1292.98 18.9825 L1292.98 9.54393 Z" fill="#000000" fill-rule="nonzero" fill-opacity="1" /><path clip-path="url(#clip230)" d="M1310.68 27.2059 L1318.58 27.2059 L1332.76 65.2844 L1346.94 27.2059 L1354.84 27.2059 L1337.82 72.576 L1327.7 72.576 L1310.68 27.2059 Z" fill="#000000" fill-rule="nonzero" fill-opacity="1" /><path clip-path="url(#clip230)" d="M1365.13 27.2059 L1372.58 27.2059 L1372.58 72.576 L1365.13 72.576 L1365.13 27.2059 M1365.13 9.54393 L1372.58 9.54393 L1372.58 18.9825 L1365.13 18.9825 L1365.13 9.54393 Z" fill="#000000" fill-rule="nonzero" fill-opacity="1" /><path clip-path="url(#clip230)" d="M1395.55 14.324 L1395.55 27.2059 L1410.9 27.2059 L1410.9 32.9987 L1395.55 32.9987 L1395.55 57.6282 Q1395.55 63.1779 1397.05 64.7578 Q1398.59 66.3376 1403.25 66.3376 L1410.9 66.3376 L1410.9 72.576 L1403.25 72.576 Q1394.62 72.576 1391.34 69.3758 Q1388.06 66.1351 1388.06 57.6282 L1388.06 32.9987 L1382.59 32.9987 L1382.59 27.2059 L1388.06 27.2059 L1388.06 14.324 L1395.55 14.324 Z" fill="#000000" fill-rule="nonzero" fill-opacity="1" /><path clip-path="url(#clip230)" d="M1439.58 76.7889 Q1436.42 84.8907 1433.43 87.3618 Q1430.43 89.8329 1425.41 89.8329 L1419.45 89.8329 L1419.45 83.5945 L1423.83 83.5945 Q1426.9 83.5945 1428.61 82.1361 Q1430.31 80.6778 1432.37 75.2496 L1433.71 71.8468 L1415.36 27.2059 L1423.26 27.2059 L1437.44 62.6918 L1451.61 27.2059 L1459.51 27.2059 L1439.58 76.7889 Z" fill="#000000" fill-rule="nonzero" fill-opacity="1" /><path clip-path="url(#clip230)" d="M1491.84 27.2059 L1499.29 27.2059 L1508.61 62.6108 L1517.89 27.2059 L1526.68 27.2059 L1536 62.6108 L1545.27 27.2059 L1552.73 27.2059 L1540.86 72.576 L1532.07 72.576 L1522.3 35.3887 L1512.5 72.576 L1503.71 72.576 L1491.84 27.2059 Z" fill="#000000" fill-rule="nonzero" fill-opacity="1" /><path clip-path="url(#clip230)" d="M1564.03 27.2059 L1571.48 27.2059 L1571.48 72.576 L1564.03 72.576 L1564.03 27.2059 M1564.03 9.54393 L1571.48 9.54393 L1571.48 18.9825 L1564.03 18.9825 L1564.03 9.54393 Z" fill="#000000" fill-rule="nonzero" fill-opacity="1" /><path clip-path="url(#clip230)" d="M1594.45 14.324 L1594.45 27.2059 L1609.8 27.2059 L1609.8 32.9987 L1594.45 32.9987 L1594.45 57.6282 Q1594.45 63.1779 1595.95 64.7578 Q1597.49 66.3376 1602.15 66.3376 L1609.8 66.3376 L1609.8 72.576 L1602.15 72.576 Q1593.52 72.576 1590.24 69.3758 Q1586.96 66.1351 1586.96 57.6282 L1586.96 32.9987 L1581.49 32.9987 L1581.49 27.2059 L1586.96 27.2059 L1586.96 14.324 L1594.45 14.324 Z" fill="#000000" fill-rule="nonzero" fill-opacity="1" /><path clip-path="url(#clip230)" d="M1657.32 45.1919 L1657.32 72.576 L1649.87 72.576 L1649.87 45.4349 Q1649.87 38.994 1647.35 35.7938 Q1644.84 32.5936 1639.82 32.5936 Q1633.78 32.5936 1630.3 36.4419 Q1626.82 40.2903 1626.82 46.9338 L1626.82 72.576 L1619.32 72.576 L1619.32 9.54393 L1626.82 9.54393 L1626.82 34.2544 Q1629.49 30.163 1633.1 28.1376 Q1636.74 26.1121 1641.48 26.1121 Q1649.3 26.1121 1653.31 30.9732 Q1657.32 35.7938 1657.32 45.1919 Z" fill="#000000" fill-rule="nonzero" fill-opacity="1" /><path clip-path="url(#clip230)" d="M1724.85 34.1734 Q1723.59 33.4443 1722.09 33.1202 Q1720.64 32.7556 1718.85 32.7556 Q1712.53 32.7556 1709.13 36.8875 Q1705.77 40.9789 1705.77 48.6757 L1705.77 72.576 L1698.27 72.576 L1698.27 27.2059 L1705.77 27.2059 L1705.77 34.2544 Q1708.12 30.1225 1711.89 28.1376 Q1715.65 26.1121 1721.04 26.1121 Q1721.81 26.1121 1722.74 26.2337 Q1723.67 26.3147 1724.81 26.5172 L1724.85 34.1734 Z" fill="#000000" fill-rule="nonzero" fill-opacity="1" /><path clip-path="url(#clip230)" d="M1769.65 48.0275 L1769.65 51.6733 L1735.38 51.6733 Q1735.87 59.3701 1740 63.421 Q1744.17 67.4314 1751.58 67.4314 Q1755.88 67.4314 1759.89 66.3781 Q1763.94 65.3249 1767.91 63.2184 L1767.91 70.267 Q1763.9 71.9684 1759.69 72.8596 Q1755.47 73.7508 1751.14 73.7508 Q1740.28 73.7508 1733.92 67.4314 Q1727.6 61.1119 1727.6 50.3365 Q1727.6 39.1965 1733.6 32.6746 Q1739.63 26.1121 1749.84 26.1121 Q1759 26.1121 1764.3 32.0264 Q1769.65 37.9003 1769.65 48.0275 M1762.2 45.84 Q1762.12 39.7232 1758.75 36.0774 Q1755.43 32.4315 1749.92 32.4315 Q1743.68 32.4315 1739.92 35.9558 Q1736.19 39.4801 1735.62 45.8805 L1762.2 45.84 Z" fill="#000000" fill-rule="nonzero" fill-opacity="1" /><path clip-path="url(#clip230)" d="M1810.81 28.5427 L1810.81 35.5912 Q1807.65 33.9709 1804.25 33.1607 Q1800.84 32.3505 1797.2 32.3505 Q1791.65 32.3505 1788.85 34.0519 Q1786.1 35.7533 1786.1 39.156 Q1786.1 41.7486 1788.08 43.2475 Q1790.07 44.7058 1796.06 46.0426 L1798.62 46.6097 Q1806.55 48.3111 1809.88 51.4303 Q1813.24 54.509 1813.24 60.0587 Q1813.24 66.3781 1808.22 70.0644 Q1803.23 73.7508 1794.48 73.7508 Q1790.84 73.7508 1786.87 73.0216 Q1782.94 72.3329 1778.56 70.9151 L1778.56 63.2184 Q1782.7 65.3654 1786.71 66.4591 Q1790.72 67.5124 1794.65 67.5124 Q1799.91 67.5124 1802.75 65.73 Q1805.58 63.9071 1805.58 60.6258 Q1805.58 57.5877 1803.52 55.9673 Q1801.49 54.3469 1794.56 52.8481 L1791.97 52.2405 Q1785.04 50.7821 1781.97 47.7845 Q1778.89 44.7463 1778.89 39.4801 Q1778.89 33.0797 1783.42 29.5959 Q1787.96 26.1121 1796.31 26.1121 Q1800.44 26.1121 1804.08 26.7198 Q1807.73 27.3274 1810.81 28.5427 Z" fill="#000000" fill-rule="nonzero" fill-opacity="1" /><path clip-path="url(#clip230)" d="M1832.32 65.7705 L1832.32 89.8329 L1824.82 89.8329 L1824.82 27.2059 L1832.32 27.2059 L1832.32 34.0924 Q1834.67 30.0415 1838.23 28.0971 Q1841.84 26.1121 1846.82 26.1121 Q1855.08 26.1121 1860.23 32.6746 Q1865.41 39.2371 1865.41 49.9314 Q1865.41 60.6258 1860.23 67.1883 Q1855.08 73.7508 1846.82 73.7508 Q1841.84 73.7508 1838.23 71.8063 Q1834.67 69.8214 1832.32 65.7705 M1857.68 49.9314 Q1857.68 41.7081 1854.27 37.0496 Q1850.91 32.3505 1845 32.3505 Q1839.08 32.3505 1835.68 37.0496 Q1832.32 41.7081 1832.32 49.9314 Q1832.32 58.1548 1835.68 62.8538 Q1839.08 67.5124 1845 67.5124 Q1850.91 67.5124 1854.27 62.8538 Q1857.68 58.1548 1857.68 49.9314 Z" fill="#000000" fill-rule="nonzero" fill-opacity="1" /><path clip-path="url(#clip230)" d="M1916.58 48.0275 L1916.58 51.6733 L1882.31 51.6733 Q1882.79 59.3701 1886.92 63.421 Q1891.1 67.4314 1898.51 67.4314 Q1902.8 67.4314 1906.81 66.3781 Q1910.87 65.3249 1914.84 63.2184 L1914.84 70.267 Q1910.83 71.9684 1906.61 72.8596 Q1902.4 73.7508 1898.06 73.7508 Q1887.21 73.7508 1880.85 67.4314 Q1874.53 61.1119 1874.53 50.3365 Q1874.53 39.1965 1880.52 32.6746 Q1886.56 26.1121 1896.77 26.1121 Q1905.92 26.1121 1911.23 32.0264 Q1916.58 37.9003 1916.58 48.0275 M1909.12 45.84 Q1909.04 39.7232 1905.68 36.0774 Q1902.36 32.4315 1896.85 32.4315 Q1890.61 32.4315 1886.84 35.9558 Q1883.12 39.4801 1882.55 45.8805 L1909.12 45.84 Z" fill="#000000" fill-rule="nonzero" fill-opacity="1" /><path clip-path="url(#clip230)" d="M1961.46 28.9478 L1961.46 35.9153 Q1958.3 34.1734 1955.1 33.3227 Q1951.94 32.4315 1948.7 32.4315 Q1941.45 32.4315 1937.44 37.0496 Q1933.43 41.6271 1933.43 49.9314 Q1933.43 58.2358 1937.44 62.8538 Q1941.45 67.4314 1948.7 67.4314 Q1951.94 67.4314 1955.1 66.5807 Q1958.3 65.6895 1961.46 63.9476 L1961.46 70.8341 Q1958.34 72.2924 1954.98 73.0216 Q1951.66 73.7508 1947.89 73.7508 Q1937.64 73.7508 1931.61 67.3098 Q1925.57 60.8689 1925.57 49.9314 Q1925.57 38.832 1931.65 32.472 Q1937.76 26.1121 1948.38 26.1121 Q1951.82 26.1121 1955.1 26.8413 Q1958.38 27.5299 1961.46 28.9478 Z" fill="#000000" fill-rule="nonzero" fill-opacity="1" /><path clip-path="url(#clip230)" d="M1981.8 14.324 L1981.8 27.2059 L1997.15 27.2059 L1997.15 32.9987 L1981.8 32.9987 L1981.8 57.6282 Q1981.8 63.1779 1983.3 64.7578 Q1984.84 66.3376 1989.49 66.3376 L1997.15 66.3376 L1997.15 72.576 L1989.49 72.576 Q1980.87 72.576 1977.58 69.3758 Q1974.3 66.1351 1974.3 57.6282 L1974.3 32.9987 L1968.83 32.9987 L1968.83 27.2059 L1974.3 27.2059 L1974.3 14.324 L1981.8 14.324 Z" fill="#000000" fill-rule="nonzero" fill-opacity="1" /><path clip-path="url(#clip230)" d="M2040.7 14.324 L2040.7 27.2059 L2056.05 27.2059 L2056.05 32.9987 L2040.7 32.9987 L2040.7 57.6282 Q2040.7 63.1779 2042.2 64.7578 Q2043.74 66.3376 2048.39 66.3376 L2056.05 66.3376 L2056.05 72.576 L2048.39 72.576 Q2039.77 72.576 2036.48 69.3758 Q2033.2 66.1351 2033.2 57.6282 L2033.2 32.9987 L2027.73 32.9987 L2027.73 27.2059 L2033.2 27.2059 L2033.2 14.324 L2040.7 14.324 Z" fill="#000000" fill-rule="nonzero" fill-opacity="1" /><path clip-path="url(#clip230)" d="M2083.43 32.4315 Q2077.44 32.4315 2073.96 37.1306 Q2070.47 41.7891 2070.47 49.9314 Q2070.47 58.0738 2073.91 62.7728 Q2077.4 67.4314 2083.43 67.4314 Q2089.39 67.4314 2092.87 62.7323 Q2096.36 58.0333 2096.36 49.9314 Q2096.36 41.8701 2092.87 37.1711 Q2089.39 32.4315 2083.43 32.4315 M2083.43 26.1121 Q2093.16 26.1121 2098.71 32.4315 Q2104.26 38.7509 2104.26 49.9314 Q2104.26 61.0714 2098.71 67.4314 Q2093.16 73.7508 2083.43 73.7508 Q2073.67 73.7508 2068.12 67.4314 Q2062.61 61.0714 2062.61 49.9314 Q2062.61 38.7509 2068.12 32.4315 Q2073.67 26.1121 2083.43 26.1121 Z" fill="#000000" fill-rule="nonzero" fill-opacity="1" /><path clip-path="url(#clip230)" d="M2180.7 27.2059 L2164.29 49.2833 L2181.55 72.576 L2172.76 72.576 L2159.55 54.752 L2146.34 72.576 L2137.55 72.576 L2155.18 48.8377 L2139.05 27.2059 L2147.84 27.2059 L2159.87 43.369 L2171.91 27.2059 L2180.7 27.2059 Z" fill="#000000" fill-rule="nonzero" fill-opacity="1" /><circle clip-path="url(#clip232)" cx="1087.25" cy="884.56" r="9.19266" fill="#ff0000" fill-rule="evenodd" fill-opacity="1" stroke="#000000" stroke-opacity="1" stroke-width="3.2"/>
<circle clip-path="url(#clip232)" cx="1088.85" cy="1001.66" r="11.2943" fill="#0000ff" fill-rule="evenodd" fill-opacity="1" stroke="#000000" stroke-opacity="1" stroke-width="3.2"/>
<circle clip-path="url(#clip232)" cx="1573.49" cy="651.225" r="8.75576" fill="#0000ff" fill-rule="evenodd" fill-opacity="1" stroke="#000000" stroke-opacity="1" stroke-width="3.2"/>
<circle clip-path="url(#clip232)" cx="1427.54" cy="698.11" r="4.99925" fill="#ff0000" fill-rule="evenodd" fill-opacity="1" stroke="#000000" stroke-opacity="1" stroke-width="3.2"/>
<circle clip-path="url(#clip232)" cx="853.184" cy="975.352" r="15.8315" fill="#ff0000" fill-rule="evenodd" fill-opacity="1" stroke="#000000" stroke-opacity="1" stroke-width="3.2"/>
<circle clip-path="url(#clip232)" cx="591.112" cy="981.127" r="32.8763" fill="#ff0000" fill-rule="evenodd" fill-opacity="1" stroke="#000000" stroke-opacity="1" stroke-width="3.2"/>
<circle clip-path="url(#clip232)" cx="522.401" cy="1157.61" r="19.8059" fill="#ff0000" fill-rule="evenodd" fill-opacity="1" stroke="#000000" stroke-opacity="1" stroke-width="3.2"/>
<circle clip-path="url(#clip232)" cx="1817.64" cy="415.638" r="7.08243" fill="#ff0000" fill-rule="evenodd" fill-opacity="1" stroke="#000000" stroke-opacity="1" stroke-width="3.2"/>
<circle clip-path="url(#clip232)" cx="867.893" cy="1047.88" r="7.57197" fill="#ff0000" fill-rule="evenodd" fill-opacity="1" stroke="#000000" stroke-opacity="1" stroke-width="3.2"/>
<circle clip-path="url(#clip232)" cx="1583.8" cy="612.26" r="5.54282" fill="#0000ff" fill-rule="evenodd" fill-opacity="1" stroke="#000000" stroke-opacity="1" stroke-width="3.2"/>
<circle clip-path="url(#clip232)" cx="1409.12" cy="726.674" r="5.26554" fill="#0000ff" fill-rule="evenodd" fill-opacity="1" stroke="#000000" stroke-opacity="1" stroke-width="3.2"/>
<circle clip-path="url(#clip232)" cx="1052.67" cy="940.995" r="5.86072" fill="#ff0000" fill-rule="evenodd" fill-opacity="1" stroke="#000000" stroke-opacity="1" stroke-width="3.2"/>
<circle clip-path="url(#clip232)" cx="1444.9" cy="812.898" r="16.3152" fill="#0000ff" fill-rule="evenodd" fill-opacity="1" stroke="#000000" stroke-opacity="1" stroke-width="3.2"/>
<circle clip-path="url(#clip232)" cx="1844.67" cy="563.731" r="18.221" fill="#0000ff" fill-rule="evenodd" fill-opacity="1" stroke="#000000" stroke-opacity="1" stroke-width="3.2"/>
<circle clip-path="url(#clip232)" cx="506.645" cy="1245.28" r="12.0762" fill="#ff0000" fill-rule="evenodd" fill-opacity="1" stroke="#000000" stroke-opacity="1" stroke-width="3.2"/>
<circle clip-path="url(#clip232)" cx="1386.67" cy="595.987" r="17.9854" fill="#ff0000" fill-rule="evenodd" fill-opacity="1" stroke="#000000" stroke-opacity="1" stroke-width="3.2"/>
<circle clip-path="url(#clip232)" cx="694.353" cy="1319.87" r="16.6642" fill="#0000ff" fill-rule="evenodd" fill-opacity="1" stroke="#000000" stroke-opacity="1" stroke-width="3.2"/>
<circle clip-path="url(#clip232)" cx="1181.12" cy="857.685" r="5.57389" fill="#ff0000" fill-rule="evenodd" fill-opacity="1" stroke="#000000" stroke-opacity="1" stroke-width="3.2"/>
<circle clip-path="url(#clip232)" cx="628.281" cy="1297.73" r="10.0009" fill="#0000ff" fill-rule="evenodd" fill-opacity="1" stroke="#000000" stroke-opacity="1" stroke-width="3.2"/>
<circle clip-path="url(#clip232)" cx="594.052" cy="1007.59" r="30.0259" fill="#ff0000" fill-rule="evenodd" fill-opacity="1" stroke="#000000" stroke-opacity="1" stroke-width="3.2"/>
<circle clip-path="url(#clip232)" cx="1781.81" cy="623.191" r="19.9543" fill="#0000ff" fill-rule="evenodd" fill-opacity="1" stroke="#000000" stroke-opacity="1" stroke-width="3.2"/>
<circle clip-path="url(#clip232)" cx="2196.71" cy="608.736" r="46.4066" fill="#0000ff" fill-rule="evenodd" fill-opacity="1" stroke="#000000" stroke-opacity="1" stroke-width="3.2"/>
<circle clip-path="url(#clip232)" cx="1320.14" cy="763.334" r="5.68348" fill="#ff0000" fill-rule="evenodd" fill-opacity="1" stroke="#000000" stroke-opacity="1" stroke-width="3.2"/>
<circle clip-path="url(#clip232)" cx="1329.83" cy="868.012" r="14.1015" fill="#0000ff" fill-rule="evenodd" fill-opacity="1" stroke="#000000" stroke-opacity="1" stroke-width="3.2"/>
<circle clip-path="url(#clip232)" cx="1609.44" cy="451.119" r="17.5265" fill="#ff0000" fill-rule="evenodd" fill-opacity="1" stroke="#000000" stroke-opacity="1" stroke-width="3.2"/>
<circle clip-path="url(#clip232)" cx="1344.77" cy="751.215" r="5.24203" fill="#ff0000" fill-rule="evenodd" fill-opacity="1" stroke="#000000" stroke-opacity="1" stroke-width="3.2"/>
<circle clip-path="url(#clip232)" cx="1696.97" cy="548.726" r="6.78435" fill="#0000ff" fill-rule="evenodd" fill-opacity="1" stroke="#000000" stroke-opacity="1" stroke-width="3.2"/>
<circle clip-path="url(#clip232)" cx="1507.98" cy="570.546" r="12.3777" fill="#ff0000" fill-rule="evenodd" fill-opacity="1" stroke="#000000" stroke-opacity="1" stroke-width="3.2"/>
<circle clip-path="url(#clip232)" cx="1296.25" cy="931.78" r="18.2357" fill="#0000ff" fill-rule="evenodd" fill-opacity="1" stroke="#000000" stroke-opacity="1" stroke-width="3.2"/>
<circle clip-path="url(#clip232)" cx="1703.99" cy="707.356" r="23.1581" fill="#0000ff" fill-rule="evenodd" fill-opacity="1" stroke="#000000" stroke-opacity="1" stroke-width="3.2"/>
<circle clip-path="url(#clip232)" cx="1377.14" cy="706.817" r="7.51569" fill="#ff0000" fill-rule="evenodd" fill-opacity="1" stroke="#000000" stroke-opacity="1" stroke-width="3.2"/>
<circle clip-path="url(#clip232)" cx="1136.8" cy="931.083" r="7.44319" fill="#0000ff" fill-rule="evenodd" fill-opacity="1" stroke="#000000" stroke-opacity="1" stroke-width="3.2"/>
<circle clip-path="url(#clip232)" cx="1056.89" cy="875.122" r="12.1801" fill="#ff0000" fill-rule="evenodd" fill-opacity="1" stroke="#000000" stroke-opacity="1" stroke-width="3.2"/>
<circle clip-path="url(#clip232)" cx="1033.63" cy="981.391" r="5.54871" fill="#0000ff" fill-rule="evenodd" fill-opacity="1" stroke="#000000" stroke-opacity="1" stroke-width="3.2"/>
<circle clip-path="url(#clip232)" cx="1493.37" cy="837.907" r="22.0812" fill="#0000ff" fill-rule="evenodd" fill-opacity="1" stroke="#000000" stroke-opacity="1" stroke-width="3.2"/>
<circle clip-path="url(#clip232)" cx="1192.71" cy="728.672" r="17.7273" fill="#ff0000" fill-rule="evenodd" fill-opacity="1" stroke="#000000" stroke-opacity="1" stroke-width="3.2"/>
<circle clip-path="url(#clip232)" cx="887.846" cy="969.935" r="14.0436" fill="#ff0000" fill-rule="evenodd" fill-opacity="1" stroke="#000000" stroke-opacity="1" stroke-width="3.2"/>
<circle clip-path="url(#clip232)" cx="844.937" cy="937.692" r="20.1613" fill="#ff0000" fill-rule="evenodd" fill-opacity="1" stroke="#000000" stroke-opacity="1" stroke-width="3.2"/>
<circle clip-path="url(#clip232)" cx="1820.87" cy="617.686" r="22.0293" fill="#0000ff" fill-rule="evenodd" fill-opacity="1" stroke="#000000" stroke-opacity="1" stroke-width="3.2"/>
<circle clip-path="url(#clip232)" cx="1543.69" cy="802.526" r="21.9183" fill="#0000ff" fill-rule="evenodd" fill-opacity="1" stroke="#000000" stroke-opacity="1" stroke-width="3.2"/>
<circle clip-path="url(#clip232)" cx="1206.56" cy="742.089" r="15.4513" fill="#ff0000" fill-rule="evenodd" fill-opacity="1" stroke="#000000" stroke-opacity="1" stroke-width="3.2"/>
<circle clip-path="url(#clip232)" cx="1151.61" cy="1010.26" r="16.3762" fill="#0000ff" fill-rule="evenodd" fill-opacity="1" stroke="#000000" stroke-opacity="1" stroke-width="3.2"/>
<circle clip-path="url(#clip232)" cx="1149.15" cy="719.515" r="21.5746" fill="#ff0000" fill-rule="evenodd" fill-opacity="1" stroke="#000000" stroke-opacity="1" stroke-width="3.2"/>
<circle clip-path="url(#clip232)" cx="944.898" cy="1047.76" r="6.23419" fill="#0000ff" fill-rule="evenodd" fill-opacity="1" stroke="#000000" stroke-opacity="1" stroke-width="3.2"/>
<circle clip-path="url(#clip232)" cx="835.566" cy="1162.22" r="10.3562" fill="#0000ff" fill-rule="evenodd" fill-opacity="1" stroke="#000000" stroke-opacity="1" stroke-width="3.2"/>
<circle clip-path="url(#clip232)" cx="1139.68" cy="683.072" r="25.8651" fill="#ff0000" fill-rule="evenodd" fill-opacity="1" stroke="#000000" stroke-opacity="1" stroke-width="3.2"/>
<circle clip-path="url(#clip232)" cx="1424.01" cy="757.235" r="9.33008" fill="#0000ff" fill-rule="evenodd" fill-opacity="1" stroke="#000000" stroke-opacity="1" stroke-width="3.2"/>
<circle clip-path="url(#clip232)" cx="781.203" cy="1059.91" r="12.1953" fill="#ff0000" fill-rule="evenodd" fill-opacity="1" stroke="#000000" stroke-opacity="1" stroke-width="3.2"/>
<circle clip-path="url(#clip232)" cx="956.275" cy="918.137" r="14.6344" fill="#ff0000" fill-rule="evenodd" fill-opacity="1" stroke="#000000" stroke-opacity="1" stroke-width="3.2"/>
<circle clip-path="url(#clip232)" cx="1495.87" cy="607.877" r="9.44986" fill="#ff0000" fill-rule="evenodd" fill-opacity="1" stroke="#000000" stroke-opacity="1" stroke-width="3.2"/>
<circle clip-path="url(#clip232)" cx="1016.91" cy="875.518" r="14.8288" fill="#ff0000" fill-rule="evenodd" fill-opacity="1" stroke="#000000" stroke-opacity="1" stroke-width="3.2"/>
<circle clip-path="url(#clip232)" cx="1650.17" cy="633.998" r="12.185" fill="#0000ff" fill-rule="evenodd" fill-opacity="1" stroke="#000000" stroke-opacity="1" stroke-width="3.2"/>
<circle clip-path="url(#clip232)" cx="1364.62" cy="728.908" r="6.14356" fill="#ff0000" fill-rule="evenodd" fill-opacity="1" stroke="#000000" stroke-opacity="1" stroke-width="3.2"/>
<circle clip-path="url(#clip232)" cx="1384.88" cy="853.021" r="16.3011" fill="#0000ff" fill-rule="evenodd" fill-opacity="1" stroke="#000000" stroke-opacity="1" stroke-width="3.2"/>
<circle clip-path="url(#clip232)" cx="776.766" cy="1109.67" r="7.50584" fill="#ff0000" fill-rule="evenodd" fill-opacity="1" stroke="#000000" stroke-opacity="1" stroke-width="3.2"/>
<circle clip-path="url(#clip232)" cx="2290.39" cy="162.047" r="7.9278" fill="#0000ff" fill-rule="evenodd" fill-opacity="1" stroke="#000000" stroke-opacity="1" stroke-width="3.2"/>
<circle clip-path="url(#clip232)" cx="810.429" cy="1012.55" r="14.978" fill="#ff0000" fill-rule="evenodd" fill-opacity="1" stroke="#000000" stroke-opacity="1" stroke-width="3.2"/>
<circle clip-path="url(#clip232)" cx="1232.93" cy="1047.35" r="25.5634" fill="#0000ff" fill-rule="evenodd" fill-opacity="1" stroke="#000000" stroke-opacity="1" stroke-width="3.2"/>
<circle clip-path="url(#clip232)" cx="1749.28" cy="615.121" r="16.958" fill="#0000ff" fill-rule="evenodd" fill-opacity="1" stroke="#000000" stroke-opacity="1" stroke-width="3.2"/>
<circle clip-path="url(#clip232)" cx="1783.27" cy="606.375" r="18.3668" fill="#0000ff" fill-rule="evenodd" fill-opacity="1" stroke="#000000" stroke-opacity="1" stroke-width="3.2"/>
<circle clip-path="url(#clip232)" cx="1033.51" cy="1012.71" r="8.6801" fill="#0000ff" fill-rule="evenodd" fill-opacity="1" stroke="#000000" stroke-opacity="1" stroke-width="3.2"/>
<circle clip-path="url(#clip232)" cx="457.588" cy="1269.97" r="12.9007" fill="#ff0000" fill-rule="evenodd" fill-opacity="1" stroke="#000000" stroke-opacity="1" stroke-width="3.2"/>
<circle clip-path="url(#clip232)" cx="1413.53" cy="768.887" r="9.79333" fill="#0000ff" fill-rule="evenodd" fill-opacity="1" stroke="#000000" stroke-opacity="1" stroke-width="3.2"/>
<circle clip-path="url(#clip232)" cx="988.62" cy="1029.77" r="7.37096" fill="#0000ff" fill-rule="evenodd" fill-opacity="1" stroke="#000000" stroke-opacity="1" stroke-width="3.2"/>
<circle clip-path="url(#clip232)" cx="1455.4" cy="857.551" r="21.497" fill="#0000ff" fill-rule="evenodd" fill-opacity="1" stroke="#000000" stroke-opacity="1" stroke-width="3.2"/>
<circle clip-path="url(#clip232)" cx="309.223" cy="1447.87" r="5.04378" fill="#ff0000" fill-rule="evenodd" fill-opacity="1" stroke="#000000" stroke-opacity="1" stroke-width="3.2"/>
<circle clip-path="url(#clip232)" cx="1011.59" cy="1063.33" r="12.2798" fill="#0000ff" fill-rule="evenodd" fill-opacity="1" stroke="#000000" stroke-opacity="1" stroke-width="3.2"/>
<circle clip-path="url(#clip232)" cx="988.665" cy="873.916" r="16.8891" fill="#ff0000" fill-rule="evenodd" fill-opacity="1" stroke="#000000" stroke-opacity="1" stroke-width="3.2"/>
<circle clip-path="url(#clip232)" cx="770.883" cy="971.634" r="21.7387" fill="#ff0000" fill-rule="evenodd" fill-opacity="1" stroke="#000000" stroke-opacity="1" stroke-width="3.2"/>
<circle clip-path="url(#clip232)" cx="1385.35" cy="874.689" r="18.5045" fill="#0000ff" fill-rule="evenodd" fill-opacity="1" stroke="#000000" stroke-opacity="1" stroke-width="3.2"/>
<circle clip-path="url(#clip232)" cx="786.147" cy="1038.1" r="14.0497" fill="#ff0000" fill-rule="evenodd" fill-opacity="1" stroke="#000000" stroke-opacity="1" stroke-width="3.2"/>
<circle clip-path="url(#clip232)" cx="1618.21" cy="637.442" r="10.3814" fill="#0000ff" fill-rule="evenodd" fill-opacity="1" stroke="#000000" stroke-opacity="1" stroke-width="3.2"/>
<circle clip-path="url(#clip232)" cx="839.42" cy="1057.18" r="8.55454" fill="#ff0000" fill-rule="evenodd" fill-opacity="1" stroke="#000000" stroke-opacity="1" stroke-width="3.2"/>
<circle clip-path="url(#clip232)" cx="1615.82" cy="707.932" r="17.2865" fill="#0000ff" fill-rule="evenodd" fill-opacity="1" stroke="#000000" stroke-opacity="1" stroke-width="3.2"/>
<circle clip-path="url(#clip232)" cx="536.815" cy="1293.54" r="5.20962" fill="#ff0000" fill-rule="evenodd" fill-opacity="1" stroke="#000000" stroke-opacity="1" stroke-width="3.2"/>
<circle clip-path="url(#clip232)" cx="1027.48" cy="943.343" r="7.31941" fill="#ff0000" fill-rule="evenodd" fill-opacity="1" stroke="#000000" stroke-opacity="1" stroke-width="3.2"/>
<circle clip-path="url(#clip232)" cx="1241.95" cy="660.262" r="21.2737" fill="#ff0000" fill-rule="evenodd" fill-opacity="1" stroke="#000000" stroke-opacity="1" stroke-width="3.2"/>
<circle clip-path="url(#clip232)" cx="882.098" cy="1147.34" r="11.994" fill="#0000ff" fill-rule="evenodd" fill-opacity="1" stroke="#000000" stroke-opacity="1" stroke-width="3.2"/>
<circle clip-path="url(#clip232)" cx="1003.16" cy="989.135" r="4.36395" fill="#ff0000" fill-rule="evenodd" fill-opacity="1" stroke="#000000" stroke-opacity="1" stroke-width="3.2"/>
<circle clip-path="url(#clip232)" cx="1707.16" cy="824.377" r="35.102" fill="#0000ff" fill-rule="evenodd" fill-opacity="1" stroke="#000000" stroke-opacity="1" stroke-width="3.2"/>
<circle clip-path="url(#clip232)" cx="691.912" cy="1011.81" r="23.0219" fill="#ff0000" fill-rule="evenodd" fill-opacity="1" stroke="#000000" stroke-opacity="1" stroke-width="3.2"/>
<circle clip-path="url(#clip232)" cx="1168.77" cy="927.138" r="9.1981" fill="#0000ff" fill-rule="evenodd" fill-opacity="1" stroke="#000000" stroke-opacity="1" stroke-width="3.2"/>
<circle clip-path="url(#clip232)" cx="884.947" cy="1218.93" r="19.3615" fill="#0000ff" fill-rule="evenodd" fill-opacity="1" stroke="#000000" stroke-opacity="1" stroke-width="3.2"/>
<circle clip-path="url(#clip232)" cx="1047.23" cy="876.298" r="12.7122" fill="#ff0000" fill-rule="evenodd" fill-opacity="1" stroke="#000000" stroke-opacity="1" stroke-width="3.2"/>
<circle clip-path="url(#clip232)" cx="480.43" cy="1124.13" r="25.9843" fill="#ff0000" fill-rule="evenodd" fill-opacity="1" stroke="#000000" stroke-opacity="1" stroke-width="3.2"/>
<circle clip-path="url(#clip232)" cx="1462.07" cy="774.046" r="13.5751" fill="#0000ff" fill-rule="evenodd" fill-opacity="1" stroke="#000000" stroke-opacity="1" stroke-width="3.2"/>
<circle clip-path="url(#clip232)" cx="1464.82" cy="717.63" r="8.10436" fill="#0000ff" fill-rule="evenodd" fill-opacity="1" stroke="#000000" stroke-opacity="1" stroke-width="3.2"/>
<circle clip-path="url(#clip232)" cx="515.068" cy="1152.42" r="20.8189" fill="#ff0000" fill-rule="evenodd" fill-opacity="1" stroke="#000000" stroke-opacity="1" stroke-width="3.2"/>
<circle clip-path="url(#clip232)" cx="1661.84" cy="600.669" r="9.62849" fill="#0000ff" fill-rule="evenodd" fill-opacity="1" stroke="#000000" stroke-opacity="1" stroke-width="3.2"/>
<circle clip-path="url(#clip232)" cx="1222.23" cy="905.215" r="10.5952" fill="#0000ff" fill-rule="evenodd" fill-opacity="1" stroke="#000000" stroke-opacity="1" stroke-width="3.2"/>
<circle clip-path="url(#clip232)" cx="577.578" cy="1410.33" r="17.8788" fill="#0000ff" fill-rule="evenodd" fill-opacity="1" stroke="#000000" stroke-opacity="1" stroke-width="3.2"/>
<circle clip-path="url(#clip232)" cx="1335.64" cy="783.571" r="6.02778" fill="#0000ff" fill-rule="evenodd" fill-opacity="1" stroke="#000000" stroke-opacity="1" stroke-width="3.2"/>
<circle clip-path="url(#clip232)" cx="766.55" cy="935.792" r="25.6232" fill="#ff0000" fill-rule="evenodd" fill-opacity="1" stroke="#000000" stroke-opacity="1" stroke-width="3.2"/>
<circle clip-path="url(#clip232)" cx="1668.1" cy="698.805" r="19.8876" fill="#0000ff" fill-rule="evenodd" fill-opacity="1" stroke="#000000" stroke-opacity="1" stroke-width="3.2"/>
<circle clip-path="url(#clip232)" cx="1540.48" cy="619.839" r="5.25067" fill="#ff0000" fill-rule="evenodd" fill-opacity="1" stroke="#000000" stroke-opacity="1" stroke-width="3.2"/>
<circle clip-path="url(#clip232)" cx="1424.64" cy="590.293" r="16.0025" fill="#ff0000" fill-rule="evenodd" fill-opacity="1" stroke="#000000" stroke-opacity="1" stroke-width="3.2"/>
<circle clip-path="url(#clip232)" cx="1380.89" cy="796.127" r="10.3294" fill="#0000ff" fill-rule="evenodd" fill-opacity="1" stroke="#000000" stroke-opacity="1" stroke-width="3.2"/>
<circle clip-path="url(#clip232)" cx="1202.62" cy="804.139" r="9.49588" fill="#ff0000" fill-rule="evenodd" fill-opacity="1" stroke="#000000" stroke-opacity="1" stroke-width="3.2"/>
<circle clip-path="url(#clip232)" cx="1956.84" cy="418.003" r="11.1553" fill="#0000ff" fill-rule="evenodd" fill-opacity="1" stroke="#000000" stroke-opacity="1" stroke-width="3.2"/>
<circle clip-path="url(#clip232)" cx="779.474" cy="1176.81" r="8.04683" fill="#0000ff" fill-rule="evenodd" fill-opacity="1" stroke="#000000" stroke-opacity="1" stroke-width="3.2"/>
<circle clip-path="url(#clip232)" cx="1160.56" cy="804.385" r="12.2995" fill="#ff0000" fill-rule="evenodd" fill-opacity="1" stroke="#000000" stroke-opacity="1" stroke-width="3.2"/>
<circle clip-path="url(#clip232)" cx="523.36" cy="1332.11" r="6.39177" fill="#0000ff" fill-rule="evenodd" fill-opacity="1" stroke="#000000" stroke-opacity="1" stroke-width="3.2"/>
<circle clip-path="url(#clip232)" cx="692.25" cy="1041" r="20.0734" fill="#ff0000" fill-rule="evenodd" fill-opacity="1" stroke="#000000" stroke-opacity="1" stroke-width="3.2"/>
<circle clip-path="url(#clip232)" cx="1446.28" cy="750.776" r="10.1802" fill="#0000ff" fill-rule="evenodd" fill-opacity="1" stroke="#000000" stroke-opacity="1" stroke-width="3.2"/>
<circle clip-path="url(#clip232)" cx="1880.01" cy="633.34" r="27.5754" fill="#0000ff" fill-rule="evenodd" fill-opacity="1" stroke="#000000" stroke-opacity="1" stroke-width="3.2"/>
<circle clip-path="url(#clip232)" cx="1340.56" cy="933.248" r="21.363" fill="#0000ff" fill-rule="evenodd" fill-opacity="1" stroke="#000000" stroke-opacity="1" stroke-width="3.2"/>
<circle clip-path="url(#clip232)" cx="1965.82" cy="514.519" r="21.4344" fill="#0000ff" fill-rule="evenodd" fill-opacity="1" stroke="#000000" stroke-opacity="1" stroke-width="3.2"/>
<circle clip-path="url(#clip232)" cx="845.036" cy="1089.01" r="4.98552" fill="#ff0000" fill-rule="evenodd" fill-opacity="1" stroke="#000000" stroke-opacity="1" stroke-width="3.2"/>
<circle clip-path="url(#clip232)" cx="1038.65" cy="922.424" r="8.66516" fill="#ff0000" fill-rule="evenodd" fill-opacity="1" stroke="#000000" stroke-opacity="1" stroke-width="3.2"/>
<circle clip-path="url(#clip232)" cx="1105.42" cy="744.726" r="21.9886" fill="#ff0000" fill-rule="evenodd" fill-opacity="1" stroke="#000000" stroke-opacity="1" stroke-width="3.2"/>
<circle clip-path="url(#clip232)" cx="327.373" cy="1246.09" r="24.0514" fill="#ff0000" fill-rule="evenodd" fill-opacity="1" stroke="#000000" stroke-opacity="1" stroke-width="3.2"/>
<circle clip-path="url(#clip232)" cx="1174.97" cy="952.378" r="12.1451" fill="#0000ff" fill-rule="evenodd" fill-opacity="1" stroke="#000000" stroke-opacity="1" stroke-width="3.2"/>
<circle clip-path="url(#clip232)" cx="1757.27" cy="716.804" r="27.6882" fill="#0000ff" fill-rule="evenodd" fill-opacity="1" stroke="#000000" stroke-opacity="1" stroke-width="3.2"/>
<circle clip-path="url(#clip232)" cx="1484.46" cy="736.825" r="11.3495" fill="#0000ff" fill-rule="evenodd" fill-opacity="1" stroke="#000000" stroke-opacity="1" stroke-width="3.2"/>
<circle clip-path="url(#clip232)" cx="1076.16" cy="882.287" r="10.1663" fill="#ff0000" fill-rule="evenodd" fill-opacity="1" stroke="#000000" stroke-opacity="1" stroke-width="3.2"/>
<circle clip-path="url(#clip232)" cx="422.163" cy="1038.73" r="38.4629" fill="#ff0000" fill-rule="evenodd" fill-opacity="1" stroke="#000000" stroke-opacity="1" stroke-width="3.2"/>
<circle clip-path="url(#clip232)" cx="445.891" cy="1050.8" r="35.6578" fill="#ff0000" fill-rule="evenodd" fill-opacity="1" stroke="#000000" stroke-opacity="1" stroke-width="3.2"/>
<circle clip-path="url(#clip232)" cx="1092.76" cy="883.314" r="8.94656" fill="#ff0000" fill-rule="evenodd" fill-opacity="1" stroke="#000000" stroke-opacity="1" stroke-width="3.2"/>
<circle clip-path="url(#clip232)" cx="1225.8" cy="822.858" r="6.06036" fill="#ff0000" fill-rule="evenodd" fill-opacity="1" stroke="#000000" stroke-opacity="1" stroke-width="3.2"/>
<circle clip-path="url(#clip232)" cx="211.556" cy="1236.18" r="32.8328" fill="#ff0000" fill-rule="evenodd" fill-opacity="1" stroke="#000000" stroke-opacity="1" stroke-width="3.2"/>
<circle clip-path="url(#clip232)" cx="1120.75" cy="1000.02" r="13.2744" fill="#0000ff" fill-rule="evenodd" fill-opacity="1" stroke="#000000" stroke-opacity="1" stroke-width="3.2"/>
<circle clip-path="url(#clip232)" cx="794.497" cy="1103.73" r="6.90838" fill="#ff0000" fill-rule="evenodd" fill-opacity="1" stroke="#000000" stroke-opacity="1" stroke-width="3.2"/>
<circle clip-path="url(#clip232)" cx="1308.1" cy="848.407" r="10.6747" fill="#0000ff" fill-rule="evenodd" fill-opacity="1" stroke="#000000" stroke-opacity="1" stroke-width="3.2"/>
<circle clip-path="url(#clip232)" cx="1281.56" cy="783.276" r="6.27851" fill="#ff0000" fill-rule="evenodd" fill-opacity="1" stroke="#000000" stroke-opacity="1" stroke-width="3.2"/>
<circle clip-path="url(#clip232)" cx="1273.9" cy="725.04" r="12.6316" fill="#ff0000" fill-rule="evenodd" fill-opacity="1" stroke="#000000" stroke-opacity="1" stroke-width="3.2"/>
<circle clip-path="url(#clip232)" cx="1160.07" cy="974.475" r="13.3582" fill="#0000ff" fill-rule="evenodd" fill-opacity="1" stroke="#000000" stroke-opacity="1" stroke-width="3.2"/>
<circle clip-path="url(#clip232)" cx="821.622" cy="936.757" r="21.8229" fill="#ff0000" fill-rule="evenodd" fill-opacity="1" stroke="#000000" stroke-opacity="1" stroke-width="3.2"/>
<circle clip-path="url(#clip232)" cx="1103.09" cy="1051.02" r="17.1989" fill="#0000ff" fill-rule="evenodd" fill-opacity="1" stroke="#000000" stroke-opacity="1" stroke-width="3.2"/>
<circle clip-path="url(#clip232)" cx="1574.51" cy="559.647" r="8.99642" fill="#ff0000" fill-rule="evenodd" fill-opacity="1" stroke="#000000" stroke-opacity="1" stroke-width="3.2"/>
<circle clip-path="url(#clip232)" cx="1344.26" cy="627.857" r="17.6426" fill="#ff0000" fill-rule="evenodd" fill-opacity="1" stroke="#000000" stroke-opacity="1" stroke-width="3.2"/>
<circle clip-path="url(#clip232)" cx="927.775" cy="1003.57" r="7.98635" fill="#ff0000" fill-rule="evenodd" fill-opacity="1" stroke="#000000" stroke-opacity="1" stroke-width="3.2"/>
<circle clip-path="url(#clip232)" cx="562.563" cy="1126.6" r="20.213" fill="#ff0000" fill-rule="evenodd" fill-opacity="1" stroke="#000000" stroke-opacity="1" stroke-width="3.2"/>
<circle clip-path="url(#clip232)" cx="857.98" cy="956.099" r="17.4389" fill="#ff0000" fill-rule="evenodd" fill-opacity="1" stroke="#000000" stroke-opacity="1" stroke-width="3.2"/>
<circle clip-path="url(#clip232)" cx="1460.38" cy="965.111" r="32.6146" fill="#0000ff" fill-rule="evenodd" fill-opacity="1" stroke="#000000" stroke-opacity="1" stroke-width="3.2"/>
<circle clip-path="url(#clip232)" cx="1800.37" cy="539.076" r="12.7705" fill="#0000ff" fill-rule="evenodd" fill-opacity="1" stroke="#000000" stroke-opacity="1" stroke-width="3.2"/>
<circle clip-path="url(#clip232)" cx="1265.81" cy="962.255" r="19.244" fill="#0000ff" fill-rule="evenodd" fill-opacity="1" stroke="#000000" stroke-opacity="1" stroke-width="3.2"/>
<circle clip-path="url(#clip232)" cx="851.715" cy="908.716" r="22.6101" fill="#ff0000" fill-rule="evenodd" fill-opacity="1" stroke="#000000" stroke-opacity="1" stroke-width="3.2"/>
<circle clip-path="url(#clip232)" cx="1046.96" cy="971.107" r="5.41417" fill="#0000ff" fill-rule="evenodd" fill-opacity="1" stroke="#000000" stroke-opacity="1" stroke-width="3.2"/>
<circle clip-path="url(#clip232)" cx="1263.35" cy="973.635" r="20.219" fill="#0000ff" fill-rule="evenodd" fill-opacity="1" stroke="#000000" stroke-opacity="1" stroke-width="3.2"/>
<circle clip-path="url(#clip232)" cx="1081.83" cy="996.043" r="10.2584" fill="#0000ff" fill-rule="evenodd" fill-opacity="1" stroke="#000000" stroke-opacity="1" stroke-width="3.2"/>
<circle clip-path="url(#clip232)" cx="1876.24" cy="593.731" r="23.3514" fill="#0000ff" fill-rule="evenodd" fill-opacity="1" stroke="#000000" stroke-opacity="1" stroke-width="3.2"/>
<circle clip-path="url(#clip232)" cx="1429.88" cy="733.927" r="7.38826" fill="#0000ff" fill-rule="evenodd" fill-opacity="1" stroke="#000000" stroke-opacity="1" stroke-width="3.2"/>
<circle clip-path="url(#clip232)" cx="272.061" cy="1357.5" r="16.6022" fill="#ff0000" fill-rule="evenodd" fill-opacity="1" stroke="#000000" stroke-opacity="1" stroke-width="3.2"/>
<circle clip-path="url(#clip232)" cx="518.266" cy="1282.16" r="7.59799" fill="#ff0000" fill-rule="evenodd" fill-opacity="1" stroke="#000000" stroke-opacity="1" stroke-width="3.2"/>
<circle clip-path="url(#clip232)" cx="1205.24" cy="773.826" r="12.3586" fill="#ff0000" fill-rule="evenodd" fill-opacity="1" stroke="#000000" stroke-opacity="1" stroke-width="3.2"/>
<circle clip-path="url(#clip232)" cx="1267.67" cy="960.153" r="19.1579" fill="#0000ff" fill-rule="evenodd" fill-opacity="1" stroke="#000000" stroke-opacity="1" stroke-width="3.2"/>
<circle clip-path="url(#clip232)" cx="807.652" cy="974.321" r="18.9968" fill="#ff0000" fill-rule="evenodd" fill-opacity="1" stroke="#000000" stroke-opacity="1" stroke-width="3.2"/>
<circle clip-path="url(#clip232)" cx="1637.69" cy="576.329" r="5.5647" fill="#0000ff" fill-rule="evenodd" fill-opacity="1" stroke="#000000" stroke-opacity="1" stroke-width="3.2"/>
<circle clip-path="url(#clip232)" cx="1786.13" cy="603.163" r="18.2369" fill="#0000ff" fill-rule="evenodd" fill-opacity="1" stroke="#000000" stroke-opacity="1" stroke-width="3.2"/>
<circle clip-path="url(#clip232)" cx="1396.35" cy="679.145" r="8.99769" fill="#ff0000" fill-rule="evenodd" fill-opacity="1" stroke="#000000" stroke-opacity="1" stroke-width="3.2"/>
<polyline clip-path="url(#clip232)" style="stroke:#0000ff; stroke-linecap:round; stroke-linejoin:round; stroke-width:4; stroke-opacity:1; fill:none" points="211.556,1197.8 2290.39,500.525 "/>
</svg>
