<?xml version="1.0" encoding="utf-8"?>
<svg xmlns="http://www.w3.org/2000/svg" xmlns:xlink="http://www.w3.org/1999/xlink" width="1150" height="350" viewBox="0 0 4600 1400">
<defs>
  <clipPath id="clip900">
    <rect x="0" y="0" width="4600" height="1400"/>
  </clipPath>
</defs>
<path clip-path="url(#clip900)" d="M0 1400 L4600 1400 L4600 0 L0 0  Z" fill="#ffffff" fill-rule="evenodd" fill-opacity="1"/>
<defs>
  <clipPath id="clip901">
    <rect x="194" y="90" width="4360" height="1186"/>
  </clipPath>
</defs>
<path clip-path="url(#clip900)" d="M194.041 1275.71 L4552.76 1275.71 L4552.76 90.6026 L194.041 90.6026  Z" fill="#ffffff" fill-rule="evenodd" fill-opacity="1"/>
<polyline clip-path="url(#clip901)" style="stroke:#000000; stroke-linecap:round; stroke-linejoin:round; stroke-width:2; stroke-opacity:0.1; fill:none" points="317.401,1275.71 317.401,90.6026 "/>
<polyline clip-path="url(#clip901)" style="stroke:#000000; stroke-linecap:round; stroke-linejoin:round; stroke-width:2; stroke-opacity:0.1; fill:none" points="1139.8,1275.71 1139.8,90.6026 "/>
<polyline clip-path="url(#clip901)" style="stroke:#000000; stroke-linecap:round; stroke-linejoin:round; stroke-width:2; stroke-opacity:0.1; fill:none" points="1962.2,1275.71 1962.2,90.6026 "/>
<polyline clip-path="url(#clip901)" style="stroke:#000000; stroke-linecap:round; stroke-linejoin:round; stroke-width:2; stroke-opacity:0.1; fill:none" points="2784.6,1275.71 2784.6,90.6026 "/>
<polyline clip-path="url(#clip901)" style="stroke:#000000; stroke-linecap:round; stroke-linejoin:round; stroke-width:2; stroke-opacity:0.1; fill:none" points="3607,1275.71 3607,90.6026 "/>
<polyline clip-path="url(#clip901)" style="stroke:#000000; stroke-linecap:round; stroke-linejoin:round; stroke-width:2; stroke-opacity:0.1; fill:none" points="4429.4,1275.71 4429.4,90.6026 "/>
<polyline clip-path="url(#clip901)" style="stroke:#000000; stroke-linecap:round; stroke-linejoin:round; stroke-width:2; stroke-opacity:0.1; fill:none" points="194.041,1154.83 4552.76,1154.83 "/>
<polyline clip-path="url(#clip901)" style="stroke:#000000; stroke-linecap:round; stroke-linejoin:round; stroke-width:2; stroke-opacity:0.1; fill:none" points="194.041,954.284 4552.76,954.284 "/>
<polyline clip-path="url(#clip901)" style="stroke:#000000; stroke-linecap:round; stroke-linejoin:round; stroke-width:2; stroke-opacity:0.1; fill:none" points="194.041,753.741 4552.76,753.741 "/>
<polyline clip-path="url(#clip901)" style="stroke:#000000; stroke-linecap:round; stroke-linejoin:round; stroke-width:2; stroke-opacity:0.1; fill:none" points="194.041,553.199 4552.76,553.199 "/>
<polyline clip-path="url(#clip901)" style="stroke:#000000; stroke-linecap:round; stroke-linejoin:round; stroke-width:2; stroke-opacity:0.1; fill:none" points="194.041,352.656 4552.76,352.656 "/>
<polyline clip-path="url(#clip901)" style="stroke:#000000; stroke-linecap:round; stroke-linejoin:round; stroke-width:2; stroke-opacity:0.1; fill:none" points="194.041,152.113 4552.76,152.113 "/>
<polyline clip-path="url(#clip900)" style="stroke:#000000; stroke-linecap:round; stroke-linejoin:round; stroke-width:4; stroke-opacity:1; fill:none" points="194.041,1275.71 4552.76,1275.71 "/>
<polyline clip-path="url(#clip900)" style="stroke:#000000; stroke-linecap:round; stroke-linejoin:round; stroke-width:4; stroke-opacity:1; fill:none" points="317.401,1275.71 317.401,1256.81 "/>
<polyline clip-path="url(#clip900)" style="stroke:#000000; stroke-linecap:round; stroke-linejoin:round; stroke-width:4; stroke-opacity:1; fill:none" points="1139.8,1275.71 1139.8,1256.81 "/>
<polyline clip-path="url(#clip900)" style="stroke:#000000; stroke-linecap:round; stroke-linejoin:round; stroke-width:4; stroke-opacity:1; fill:none" points="1962.2,1275.71 1962.2,1256.81 "/>
<polyline clip-path="url(#clip900)" style="stroke:#000000; stroke-linecap:round; stroke-linejoin:round; stroke-width:4; stroke-opacity:1; fill:none" points="2784.6,1275.71 2784.6,1256.81 "/>
<polyline clip-path="url(#clip900)" style="stroke:#000000; stroke-linecap:round; stroke-linejoin:round; stroke-width:4; stroke-opacity:1; fill:none" points="3607,1275.71 3607,1256.81 "/>
<polyline clip-path="url(#clip900)" style="stroke:#000000; stroke-linecap:round; stroke-linejoin:round; stroke-width:4; stroke-opacity:1; fill:none" points="4429.4,1275.71 4429.4,1256.81 "/>
<path clip-path="url(#clip900)" d="M297.612 1322.76 Q294.452 1322.76 292.852 1325.88 Q291.272 1328.98 291.272 1335.22 Q291.272 1341.43 292.852 1344.55 Q294.452 1347.65 297.612 1347.65 Q300.792 1347.65 302.372 1344.55 Q303.972 1341.43 303.972 1335.22 Q303.972 1328.98 302.372 1325.88 Q300.792 1322.76 297.612 1322.76 M297.612 1319.52 Q302.696 1319.52 305.37 1323.55 Q308.063 1327.56 308.063 1335.22 Q308.063 1342.85 305.37 1346.88 Q302.696 1350.89 297.612 1350.89 Q292.528 1350.89 289.834 1346.88 Q287.161 1342.85 287.161 1335.22 Q287.161 1327.56 289.834 1323.55 Q292.528 1319.52 297.612 1319.52 Z" fill="#000000" fill-rule="nonzero" fill-opacity="1" /><path clip-path="url(#clip900)" d="M315.254 1345.16 L319.527 1345.16 L319.527 1350.31 L315.254 1350.31 L315.254 1345.16 Z" fill="#000000" fill-rule="nonzero" fill-opacity="1" /><path clip-path="url(#clip900)" d="M337.189 1322.76 Q334.03 1322.76 332.43 1325.88 Q330.85 1328.98 330.85 1335.22 Q330.85 1341.43 332.43 1344.55 Q334.03 1347.65 337.189 1347.65 Q340.369 1347.65 341.949 1344.55 Q343.549 1341.43 343.549 1335.22 Q343.549 1328.98 341.949 1325.88 Q340.369 1322.76 337.189 1322.76 M337.189 1319.52 Q342.273 1319.52 344.947 1323.55 Q347.641 1327.56 347.641 1335.22 Q347.641 1342.85 344.947 1346.88 Q342.273 1350.89 337.189 1350.89 Q332.106 1350.89 329.412 1346.88 Q326.738 1342.85 326.738 1335.22 Q326.738 1327.56 329.412 1323.55 Q332.106 1319.52 337.189 1319.52 Z" fill="#000000" fill-rule="nonzero" fill-opacity="1" /><path clip-path="url(#clip900)" d="M1120.55 1322.76 Q1117.39 1322.76 1115.79 1325.88 Q1114.21 1328.98 1114.21 1335.22 Q1114.21 1341.43 1115.79 1344.55 Q1117.39 1347.65 1120.55 1347.65 Q1123.73 1347.65 1125.31 1344.55 Q1126.91 1341.43 1126.91 1335.22 Q1126.91 1328.98 1125.31 1325.88 Q1123.73 1322.76 1120.55 1322.76 M1120.55 1319.52 Q1125.63 1319.52 1128.31 1323.55 Q1131 1327.56 1131 1335.22 Q1131 1342.85 1128.31 1346.88 Q1125.63 1350.89 1120.55 1350.89 Q1115.46 1350.89 1112.77 1346.88 Q1110.1 1342.85 1110.1 1335.22 Q1110.1 1327.56 1112.77 1323.55 Q1115.46 1319.52 1120.55 1319.52 Z" fill="#000000" fill-rule="nonzero" fill-opacity="1" /><path clip-path="url(#clip900)" d="M1138.19 1345.16 L1142.46 1345.16 L1142.46 1350.31 L1138.19 1350.31 L1138.19 1345.16 Z" fill="#000000" fill-rule="nonzero" fill-opacity="1" /><path clip-path="url(#clip900)" d="M1152.08 1346.86 L1158.77 1346.86 L1158.77 1323.79 L1151.5 1325.25 L1151.5 1321.52 L1158.73 1320.07 L1162.82 1320.07 L1162.82 1346.86 L1169.5 1346.86 L1169.5 1350.31 L1152.08 1350.31 L1152.08 1346.86 Z" fill="#000000" fill-rule="nonzero" fill-opacity="1" /><path clip-path="url(#clip900)" d="M1943.11 1322.76 Q1939.95 1322.76 1938.35 1325.88 Q1936.77 1328.98 1936.77 1335.22 Q1936.77 1341.43 1938.35 1344.55 Q1939.95 1347.65 1943.11 1347.65 Q1946.29 1347.65 1947.87 1344.55 Q1949.47 1341.43 1949.47 1335.22 Q1949.47 1328.98 1947.87 1325.88 Q1946.29 1322.76 1943.11 1322.76 M1943.11 1319.52 Q1948.19 1319.52 1950.87 1323.55 Q1953.56 1327.56 1953.56 1335.22 Q1953.56 1342.85 1950.87 1346.88 Q1948.19 1350.89 1943.11 1350.89 Q1938.03 1350.89 1935.33 1346.88 Q1932.66 1342.85 1932.66 1335.22 Q1932.66 1327.56 1935.33 1323.55 Q1938.03 1319.52 1943.11 1319.52 Z" fill="#000000" fill-rule="nonzero" fill-opacity="1" /><path clip-path="url(#clip900)" d="M1960.75 1345.16 L1965.02 1345.16 L1965.02 1350.31 L1960.75 1350.31 L1960.75 1345.16 Z" fill="#000000" fill-rule="nonzero" fill-opacity="1" /><path clip-path="url(#clip900)" d="M1977.46 1346.86 L1991.74 1346.86 L1991.74 1350.31 L1972.54 1350.31 L1972.54 1346.86 Q1974.87 1344.45 1978.88 1340.4 Q1982.91 1336.33 1983.94 1335.15 Q1985.91 1332.95 1986.68 1331.43 Q1987.47 1329.89 1987.47 1328.41 Q1987.47 1326 1985.76 1324.48 Q1984.08 1322.96 1981.37 1322.96 Q1979.45 1322.96 1977.3 1323.63 Q1975.17 1324.3 1972.74 1325.66 L1972.74 1321.52 Q1975.21 1320.53 1977.36 1320.02 Q1979.51 1319.52 1981.29 1319.52 Q1985.99 1319.52 1988.78 1321.87 Q1991.58 1324.22 1991.58 1328.15 Q1991.58 1330.01 1990.87 1331.69 Q1990.18 1333.35 1988.34 1335.62 Q1987.83 1336.21 1985.12 1339.02 Q1982.4 1341.82 1977.46 1346.86 Z" fill="#000000" fill-rule="nonzero" fill-opacity="1" /><path clip-path="url(#clip900)" d="M2765.09 1322.76 Q2761.93 1322.76 2760.33 1325.88 Q2758.75 1328.98 2758.75 1335.22 Q2758.75 1341.43 2760.33 1344.55 Q2761.93 1347.65 2765.09 1347.65 Q2768.27 1347.65 2769.85 1344.55 Q2771.45 1341.43 2771.45 1335.22 Q2771.45 1328.98 2769.85 1325.88 Q2768.27 1322.76 2765.09 1322.76 M2765.09 1319.52 Q2770.18 1319.52 2772.85 1323.55 Q2775.54 1327.56 2775.54 1335.22 Q2775.54 1342.85 2772.85 1346.88 Q2770.18 1350.89 2765.09 1350.89 Q2760.01 1350.89 2757.32 1346.88 Q2754.64 1342.85 2754.64 1335.22 Q2754.64 1327.56 2757.32 1323.55 Q2760.01 1319.52 2765.09 1319.52 Z" fill="#000000" fill-rule="nonzero" fill-opacity="1" /><path clip-path="url(#clip900)" d="M2782.73 1345.16 L2787.01 1345.16 L2787.01 1350.31 L2782.73 1350.31 L2782.73 1345.16 Z" fill="#000000" fill-rule="nonzero" fill-opacity="1" /><path clip-path="url(#clip900)" d="M2808.32 1334 Q2811.25 1334.63 2812.89 1336.61 Q2814.55 1338.6 2814.55 1341.51 Q2814.55 1345.99 2811.48 1348.44 Q2808.4 1350.89 2802.73 1350.89 Q2800.82 1350.89 2798.8 1350.51 Q2796.79 1350.14 2794.64 1349.39 L2794.64 1345.44 Q2796.35 1346.44 2798.37 1346.94 Q2800.4 1347.45 2802.6 1347.45 Q2806.45 1347.45 2808.46 1345.93 Q2810.48 1344.41 2810.48 1341.51 Q2810.48 1338.84 2808.6 1337.34 Q2806.74 1335.82 2803.39 1335.82 L2799.87 1335.82 L2799.87 1332.46 L2803.56 1332.46 Q2806.57 1332.46 2808.17 1331.27 Q2809.77 1330.05 2809.77 1327.78 Q2809.77 1325.45 2808.11 1324.22 Q2806.47 1322.96 2803.39 1322.96 Q2801.71 1322.96 2799.79 1323.33 Q2797.86 1323.69 2795.56 1324.46 L2795.56 1320.81 Q2797.88 1320.17 2799.91 1319.84 Q2801.96 1319.52 2803.76 1319.52 Q2808.42 1319.52 2811.13 1321.64 Q2813.85 1323.75 2813.85 1327.36 Q2813.85 1329.87 2812.41 1331.61 Q2810.97 1333.33 2808.32 1334 Z" fill="#000000" fill-rule="nonzero" fill-opacity="1" /><path clip-path="url(#clip900)" d="M3587 1322.76 Q3583.84 1322.76 3582.24 1325.88 Q3580.66 1328.98 3580.66 1335.22 Q3580.66 1341.43 3582.24 1344.55 Q3583.84 1347.65 3587 1347.65 Q3590.18 1347.65 3591.76 1344.55 Q3593.36 1341.43 3593.36 1335.22 Q3593.36 1328.98 3591.76 1325.88 Q3590.18 1322.76 3587 1322.76 M3587 1319.52 Q3592.08 1319.52 3594.75 1323.55 Q3597.45 1327.56 3597.45 1335.22 Q3597.45 1342.85 3594.75 1346.88 Q3592.08 1350.89 3587 1350.89 Q3581.91 1350.89 3579.22 1346.88 Q3576.54 1342.85 3576.54 1335.22 Q3576.54 1327.56 3579.22 1323.55 Q3581.91 1319.52 3587 1319.52 Z" fill="#000000" fill-rule="nonzero" fill-opacity="1" /><path clip-path="url(#clip900)" d="M3604.64 1345.16 L3608.91 1345.16 L3608.91 1350.31 L3604.64 1350.31 L3604.64 1345.16 Z" fill="#000000" fill-rule="nonzero" fill-opacity="1" /><path clip-path="url(#clip900)" d="M3629.06 1323.63 L3618.73 1339.77 L3629.06 1339.77 L3629.06 1323.63 M3627.99 1320.07 L3633.14 1320.07 L3633.14 1339.77 L3637.45 1339.77 L3637.45 1343.18 L3633.14 1343.18 L3633.14 1350.31 L3629.06 1350.31 L3629.06 1343.18 L3615.41 1343.18 L3615.41 1339.23 L3627.99 1320.07 Z" fill="#000000" fill-rule="nonzero" fill-opacity="1" /><path clip-path="url(#clip900)" d="M4410.04 1322.76 Q4406.88 1322.76 4405.28 1325.88 Q4403.7 1328.98 4403.7 1335.22 Q4403.7 1341.43 4405.28 1344.55 Q4406.88 1347.65 4410.04 1347.65 Q4413.22 1347.65 4414.8 1344.55 Q4416.4 1341.43 4416.4 1335.22 Q4416.4 1328.98 4414.8 1325.88 Q4413.22 1322.76 4410.04 1322.76 M4410.04 1319.52 Q4415.13 1319.52 4417.8 1323.55 Q4420.49 1327.56 4420.49 1335.22 Q4420.49 1342.85 4417.8 1346.88 Q4415.13 1350.89 4410.04 1350.89 Q4404.96 1350.89 4402.27 1346.88 Q4399.59 1342.85 4399.59 1335.22 Q4399.59 1327.56 4402.27 1323.55 Q4404.96 1319.52 4410.04 1319.52 Z" fill="#000000" fill-rule="nonzero" fill-opacity="1" /><path clip-path="url(#clip900)" d="M4427.68 1345.16 L4431.96 1345.16 L4431.96 1350.31 L4427.68 1350.31 L4427.68 1345.16 Z" fill="#000000" fill-rule="nonzero" fill-opacity="1" /><path clip-path="url(#clip900)" d="M4440.91 1320.07 L4456.97 1320.07 L4456.97 1323.51 L4444.66 1323.51 L4444.66 1330.92 Q4445.55 1330.62 4446.44 1330.48 Q4447.33 1330.31 4448.22 1330.31 Q4453.29 1330.31 4456.24 1333.09 Q4459.2 1335.86 4459.2 1340.6 Q4459.2 1345.48 4456.16 1348.2 Q4453.12 1350.89 4447.59 1350.89 Q4445.69 1350.89 4443.71 1350.57 Q4441.74 1350.24 4439.63 1349.6 L4439.63 1345.48 Q4441.46 1346.48 4443.4 1346.96 Q4445.35 1347.45 4447.51 1347.45 Q4451.02 1347.45 4453.06 1345.61 Q4455.11 1343.76 4455.11 1340.6 Q4455.11 1337.44 4453.06 1335.6 Q4451.02 1333.76 4447.51 1333.76 Q4445.87 1333.76 4444.23 1334.12 Q4442.61 1334.49 4440.91 1335.26 L4440.91 1320.07 Z" fill="#000000" fill-rule="nonzero" fill-opacity="1" /><path clip-path="url(#clip900)" d="M2377.66 1423.15 L2376.51 1417.14 Q2375.34 1410.97 2370.7 1410.97 Q2367.21 1410.97 2365.62 1413.83 Q2363.62 1417.42 2363.62 1422.16 Q2363.62 1427.89 2365.57 1430.63 Q2367.55 1433.41 2370.7 1433.41 Q2374.19 1433.41 2376.07 1427.87 L2377.66 1423.15 M2380.34 1415.18 L2382.92 1407.55 L2387.19 1407.55 L2381.85 1423.36 L2382.89 1429.06 Q2383.12 1430.34 2384.04 1431.41 Q2385.1 1432.66 2385.94 1432.66 L2388.23 1432.66 L2388.23 1436.72 L2385.36 1436.72 Q2382.92 1436.72 2380.73 1434.53 Q2379.66 1433.44 2379.22 1431.15 Q2378.02 1434.04 2375.57 1436.3 Q2374.43 1437.37 2370.7 1437.37 Q2364.58 1437.37 2361.61 1433.41 Q2358.57 1429.33 2358.57 1422.16 Q2358.57 1414.51 2361.88 1410.91 Q2365.55 1406.9 2370.7 1406.9 Q2378.8 1406.9 2380.34 1415.18 Z" fill="#000000" fill-rule="nonzero" fill-opacity="1" /><polyline clip-path="url(#clip900)" style="stroke:#000000; stroke-linecap:round; stroke-linejoin:round; stroke-width:4; stroke-opacity:1; fill:none" points="194.041,1275.71 194.041,90.6026 "/>
<polyline clip-path="url(#clip900)" style="stroke:#000000; stroke-linecap:round; stroke-linejoin:round; stroke-width:4; stroke-opacity:1; fill:none" points="194.041,1154.83 212.938,1154.83 "/>
<polyline clip-path="url(#clip900)" style="stroke:#000000; stroke-linecap:round; stroke-linejoin:round; stroke-width:4; stroke-opacity:1; fill:none" points="194.041,954.284 212.938,954.284 "/>
<polyline clip-path="url(#clip900)" style="stroke:#000000; stroke-linecap:round; stroke-linejoin:round; stroke-width:4; stroke-opacity:1; fill:none" points="194.041,753.741 212.938,753.741 "/>
<polyline clip-path="url(#clip900)" style="stroke:#000000; stroke-linecap:round; stroke-linejoin:round; stroke-width:4; stroke-opacity:1; fill:none" points="194.041,553.199 212.938,553.199 "/>
<polyline clip-path="url(#clip900)" style="stroke:#000000; stroke-linecap:round; stroke-linejoin:round; stroke-width:4; stroke-opacity:1; fill:none" points="194.041,352.656 212.938,352.656 "/>
<polyline clip-path="url(#clip900)" style="stroke:#000000; stroke-linecap:round; stroke-linejoin:round; stroke-width:4; stroke-opacity:1; fill:none" points="194.041,152.113 212.938,152.113 "/>
<path clip-path="url(#clip900)" d="M41.4505 1166.5 L48.1344 1166.5 L48.1344 1143.43 L40.8631 1144.89 L40.8631 1141.16 L48.0939 1139.71 L52.1853 1139.71 L52.1853 1166.5 L58.8693 1166.5 L58.8693 1169.95 L41.4505 1169.95 L41.4505 1166.5 Z" fill="#000000" fill-rule="nonzero" fill-opacity="1" /><path clip-path="url(#clip900)" d="M67.1332 1164.8 L71.4069 1164.8 L71.4069 1169.95 L67.1332 1169.95 L67.1332 1164.8 Z" fill="#000000" fill-rule="nonzero" fill-opacity="1" /><path clip-path="url(#clip900)" d="M89.0688 1142.4 Q85.9091 1142.4 84.309 1145.52 Q82.7292 1148.62 82.7292 1154.86 Q82.7292 1161.07 84.309 1164.19 Q85.9091 1167.29 89.0688 1167.29 Q92.2488 1167.29 93.8286 1164.19 Q95.4288 1161.07 95.4288 1154.86 Q95.4288 1148.62 93.8286 1145.52 Q92.2488 1142.4 89.0688 1142.4 M89.0688 1139.16 Q94.1527 1139.16 96.8263 1143.19 Q99.5202 1147.2 99.5202 1154.86 Q99.5202 1162.49 96.8263 1166.52 Q94.1527 1170.53 89.0688 1170.53 Q83.9849 1170.53 81.2911 1166.52 Q78.6175 1162.49 78.6175 1154.86 Q78.6175 1147.2 81.2911 1143.19 Q83.9849 1139.16 89.0688 1139.16 Z" fill="#000000" fill-rule="nonzero" fill-opacity="1" /><path clip-path="url(#clip900)" d="M106.751 1139.71 L122.813 1139.71 L122.813 1143.15 L110.498 1143.15 L110.498 1150.56 Q111.389 1150.26 112.281 1150.12 Q113.172 1149.96 114.063 1149.96 Q119.127 1149.96 122.084 1152.73 Q125.041 1155.5 125.041 1160.24 Q125.041 1165.13 122.003 1167.84 Q118.965 1170.53 113.435 1170.53 Q111.531 1170.53 109.546 1170.21 Q107.581 1169.89 105.475 1169.24 L105.475 1165.13 Q107.298 1166.12 109.242 1166.6 Q111.187 1167.09 113.354 1167.09 Q116.858 1167.09 118.904 1165.25 Q120.949 1163.4 120.949 1160.24 Q120.949 1157.08 118.904 1155.24 Q116.858 1153.4 113.354 1153.4 Q111.713 1153.4 110.073 1153.76 Q108.452 1154.13 106.751 1154.9 L106.751 1139.71 Z" fill="#000000" fill-rule="nonzero" fill-opacity="1" /><path clip-path="url(#clip900)" d="M40.5795 965.96 L47.2635 965.96 L47.2635 942.891 L39.9921 944.349 L39.9921 940.622 L47.223 939.164 L51.3144 939.164 L51.3144 965.96 L57.9984 965.96 L57.9984 969.404 L40.5795 969.404 L40.5795 965.96 Z" fill="#000000" fill-rule="nonzero" fill-opacity="1" /><path clip-path="url(#clip900)" d="M66.2622 964.259 L70.5359 964.259 L70.5359 969.404 L66.2622 969.404 L66.2622 964.259 Z" fill="#000000" fill-rule="nonzero" fill-opacity="1" /><path clip-path="url(#clip900)" d="M80.1568 965.96 L86.8408 965.96 L86.8408 942.891 L79.5695 944.349 L79.5695 940.622 L86.8003 939.164 L90.8917 939.164 L90.8917 965.96 L97.5757 965.96 L97.5757 969.404 L80.1568 969.404 L80.1568 965.96 Z" fill="#000000" fill-rule="nonzero" fill-opacity="1" /><path clip-path="url(#clip900)" d="M114.59 941.858 Q111.43 941.858 109.83 944.977 Q108.25 948.076 108.25 954.314 Q108.25 960.532 109.83 963.651 Q111.43 966.75 114.59 966.75 Q117.769 966.75 119.349 963.651 Q120.949 960.532 120.949 954.314 Q120.949 948.076 119.349 944.977 Q117.769 941.858 114.59 941.858 M114.59 938.617 Q119.673 938.617 122.347 942.648 Q125.041 946.658 125.041 954.314 Q125.041 961.95 122.347 965.981 Q119.673 969.991 114.59 969.991 Q109.506 969.991 106.812 965.981 Q104.138 961.95 104.138 954.314 Q104.138 946.658 106.812 942.648 Q109.506 938.617 114.59 938.617 Z" fill="#000000" fill-rule="nonzero" fill-opacity="1" /><path clip-path="url(#clip900)" d="M41.4505 765.418 L48.1344 765.418 L48.1344 742.348 L40.8631 743.806 L40.8631 740.079 L48.0939 738.621 L52.1853 738.621 L52.1853 765.418 L58.8693 765.418 L58.8693 768.861 L41.4505 768.861 L41.4505 765.418 Z" fill="#000000" fill-rule="nonzero" fill-opacity="1" /><path clip-path="url(#clip900)" d="M67.1332 763.716 L71.4069 763.716 L71.4069 768.861 L67.1332 768.861 L67.1332 763.716 Z" fill="#000000" fill-rule="nonzero" fill-opacity="1" /><path clip-path="url(#clip900)" d="M81.0278 765.418 L87.7118 765.418 L87.7118 742.348 L80.4404 743.806 L80.4404 740.079 L87.6713 738.621 L91.7627 738.621 L91.7627 765.418 L98.4467 765.418 L98.4467 768.861 L81.0278 768.861 L81.0278 765.418 Z" fill="#000000" fill-rule="nonzero" fill-opacity="1" /><path clip-path="url(#clip900)" d="M106.751 738.621 L122.813 738.621 L122.813 742.064 L110.498 742.064 L110.498 749.478 Q111.389 749.174 112.281 749.032 Q113.172 748.87 114.063 748.87 Q119.127 748.87 122.084 751.645 Q125.041 754.42 125.041 759.159 Q125.041 764.041 122.003 766.755 Q118.965 769.449 113.435 769.449 Q111.531 769.449 109.546 769.124 Q107.581 768.8 105.475 768.152 L105.475 764.041 Q107.298 765.033 109.242 765.519 Q111.187 766.005 113.354 766.005 Q116.858 766.005 118.904 764.162 Q120.949 762.319 120.949 759.159 Q120.949 756 118.904 754.156 Q116.858 752.313 113.354 752.313 Q111.713 752.313 110.073 752.678 Q108.452 753.042 106.751 753.812 L106.751 738.621 Z" fill="#000000" fill-rule="nonzero" fill-opacity="1" /><path clip-path="url(#clip900)" d="M40.5795 564.875 L47.2635 564.875 L47.2635 541.805 L39.9921 543.264 L39.9921 539.537 L47.223 538.079 L51.3144 538.079 L51.3144 564.875 L57.9984 564.875 L57.9984 568.319 L40.5795 568.319 L40.5795 564.875 Z" fill="#000000" fill-rule="nonzero" fill-opacity="1" /><path clip-path="url(#clip900)" d="M66.2622 563.174 L70.5359 563.174 L70.5359 568.319 L66.2622 568.319 L66.2622 563.174 Z" fill="#000000" fill-rule="nonzero" fill-opacity="1" /><path clip-path="url(#clip900)" d="M82.9722 564.875 L97.2517 564.875 L97.2517 568.319 L78.0504 568.319 L78.0504 564.875 Q80.3796 562.465 84.39 558.414 Q88.4207 554.343 89.4537 553.168 Q91.4184 550.96 92.188 549.441 Q92.978 547.902 92.978 546.423 Q92.978 544.013 91.2766 542.494 Q89.5954 540.975 86.8813 540.975 Q84.9572 540.975 82.8102 541.643 Q80.6835 542.312 78.2529 543.669 L78.2529 539.537 Q80.724 538.544 82.8709 538.038 Q85.0179 537.532 86.8003 537.532 Q91.4994 537.532 94.2945 539.881 Q97.0896 542.231 97.0896 546.16 Q97.0896 548.024 96.3807 549.705 Q95.6921 551.365 93.8489 553.634 Q93.3425 554.221 90.6284 557.037 Q87.9143 559.832 82.9722 564.875 Z" fill="#000000" fill-rule="nonzero" fill-opacity="1" /><path clip-path="url(#clip900)" d="M114.59 540.772 Q111.43 540.772 109.83 543.892 Q108.25 546.991 108.25 553.229 Q108.25 559.447 109.83 562.566 Q111.43 565.665 114.59 565.665 Q117.769 565.665 119.349 562.566 Q120.949 559.447 120.949 553.229 Q120.949 546.991 119.349 543.892 Q117.769 540.772 114.59 540.772 M114.59 537.532 Q119.673 537.532 122.347 541.562 Q125.041 545.573 125.041 553.229 Q125.041 560.865 122.347 564.896 Q119.673 568.906 114.59 568.906 Q109.506 568.906 106.812 564.896 Q104.138 560.865 104.138 553.229 Q104.138 545.573 106.812 541.562 Q109.506 537.532 114.59 537.532 Z" fill="#000000" fill-rule="nonzero" fill-opacity="1" /><path clip-path="url(#clip900)" d="M41.4505 364.333 L48.1344 364.333 L48.1344 341.263 L40.8631 342.721 L40.8631 338.994 L48.0939 337.536 L52.1853 337.536 L52.1853 364.333 L58.8693 364.333 L58.8693 367.776 L41.4505 367.776 L41.4505 364.333 Z" fill="#000000" fill-rule="nonzero" fill-opacity="1" /><path clip-path="url(#clip900)" d="M67.1332 362.631 L71.4069 362.631 L71.4069 367.776 L67.1332 367.776 L67.1332 362.631 Z" fill="#000000" fill-rule="nonzero" fill-opacity="1" /><path clip-path="url(#clip900)" d="M83.8432 364.333 L98.1226 364.333 L98.1226 367.776 L78.9213 367.776 L78.9213 364.333 Q81.2506 361.922 85.261 357.871 Q89.2916 353.8 90.3246 352.626 Q92.2893 350.418 93.059 348.899 Q93.8489 347.359 93.8489 345.881 Q93.8489 343.47 92.1475 341.951 Q90.4664 340.432 87.7523 340.432 Q85.8281 340.432 83.6811 341.101 Q81.5544 341.769 79.1239 343.126 L79.1239 338.994 Q81.5949 338.002 83.7419 337.495 Q85.8889 336.989 87.6713 336.989 Q92.3703 336.989 95.1654 339.339 Q97.9606 341.688 97.9606 345.617 Q97.9606 347.481 97.2517 349.162 Q96.563 350.823 94.7198 353.091 Q94.2135 353.679 91.4994 356.494 Q88.7853 359.289 83.8432 364.333 Z" fill="#000000" fill-rule="nonzero" fill-opacity="1" /><path clip-path="url(#clip900)" d="M106.751 337.536 L122.813 337.536 L122.813 340.979 L110.498 340.979 L110.498 348.392 Q111.389 348.089 112.281 347.947 Q113.172 347.785 114.063 347.785 Q119.127 347.785 122.084 350.56 Q125.041 353.334 125.041 358.074 Q125.041 362.955 122.003 365.669 Q118.965 368.363 113.435 368.363 Q111.531 368.363 109.546 368.039 Q107.581 367.715 105.475 367.067 L105.475 362.955 Q107.298 363.948 109.242 364.434 Q111.187 364.92 113.354 364.92 Q116.858 364.92 118.904 363.077 Q120.949 361.234 120.949 358.074 Q120.949 354.914 118.904 353.071 Q116.858 351.228 113.354 351.228 Q111.713 351.228 110.073 351.593 Q108.452 351.957 106.751 352.727 L106.751 337.536 Z" fill="#000000" fill-rule="nonzero" fill-opacity="1" /><path clip-path="url(#clip900)" d="M40.5795 163.79 L47.2635 163.79 L47.2635 140.72 L39.9921 142.178 L39.9921 138.452 L47.223 136.993 L51.3144 136.993 L51.3144 163.79 L57.9984 163.79 L57.9984 167.233 L40.5795 167.233 L40.5795 163.79 Z" fill="#000000" fill-rule="nonzero" fill-opacity="1" /><path clip-path="url(#clip900)" d="M66.2622 162.089 L70.5359 162.089 L70.5359 167.233 L66.2622 167.233 L66.2622 162.089 Z" fill="#000000" fill-rule="nonzero" fill-opacity="1" /><path clip-path="url(#clip900)" d="M91.8437 150.928 Q94.7806 151.556 96.4212 153.541 Q98.0821 155.526 98.0821 158.443 Q98.0821 162.919 95.0034 165.37 Q91.9247 167.821 86.2535 167.821 Q84.3495 167.821 82.3241 167.436 Q80.3189 167.071 78.1719 166.322 L78.1719 162.372 Q79.8733 163.365 81.8987 163.871 Q83.9242 164.377 86.1319 164.377 Q89.9803 164.377 91.9855 162.858 Q94.0109 161.339 94.0109 158.443 Q94.0109 155.769 92.1273 154.27 Q90.2638 152.751 86.9219 152.751 L83.3976 152.751 L83.3976 149.389 L87.0839 149.389 Q90.1018 149.389 91.7019 148.194 Q93.302 146.979 93.302 144.71 Q93.302 142.381 91.6412 141.145 Q90.0005 139.89 86.9219 139.89 Q85.2407 139.89 83.3165 140.254 Q81.3924 140.619 79.0834 141.389 L79.0834 137.743 Q81.4126 137.095 83.4381 136.771 Q85.4838 136.446 87.2864 136.446 Q91.945 136.446 94.6591 138.573 Q97.3732 140.68 97.3732 144.285 Q97.3732 146.797 95.9351 148.538 Q94.497 150.26 91.8437 150.928 Z" fill="#000000" fill-rule="nonzero" fill-opacity="1" /><path clip-path="url(#clip900)" d="M114.59 139.687 Q111.43 139.687 109.83 142.806 Q108.25 145.905 108.25 152.144 Q108.25 158.362 109.83 161.481 Q111.43 164.58 114.59 164.58 Q117.769 164.58 119.349 161.481 Q120.949 158.362 120.949 152.144 Q120.949 145.905 119.349 142.806 Q117.769 139.687 114.59 139.687 M114.59 136.446 Q119.673 136.446 122.347 140.477 Q125.041 144.487 125.041 152.144 Q125.041 159.78 122.347 163.81 Q119.673 167.821 114.59 167.821 Q109.506 167.821 106.812 163.81 Q104.138 159.78 104.138 152.144 Q104.138 144.487 106.812 140.477 Q109.506 136.446 114.59 136.446 Z" fill="#000000" fill-rule="nonzero" fill-opacity="1" /><path clip-path="url(#clip900)" d="M1992.53 44.2197 Q1995.17 45.1109 1997.64 48.0275 Q2000.15 50.9442 2002.66 56.0483 L2010.96 72.576 L2002.17 72.576 L1994.44 57.061 Q1991.44 50.9847 1988.6 48.9997 Q1985.81 47.0148 1980.95 47.0148 L1972.03 47.0148 L1972.03 72.576 L1963.85 72.576 L1963.85 12.096 L1982.32 12.096 Q1992.69 12.096 1997.8 16.4305 Q2002.9 20.7649 2002.9 29.5149 Q2002.9 35.2267 2000.23 38.994 Q1997.6 42.7613 1992.53 44.2197 M1972.03 18.8205 L1972.03 40.2903 L1982.32 40.2903 Q1988.24 40.2903 1991.24 37.5762 Q1994.27 34.8216 1994.27 29.5149 Q1994.27 24.2082 1991.24 21.5346 Q1988.24 18.8205 1982.32 18.8205 L1972.03 18.8205 Z" fill="#000000" fill-rule="nonzero" fill-opacity="1" /><path clip-path="url(#clip900)" d="M2056.25 48.0275 L2056.25 51.6733 L2021.98 51.6733 Q2022.47 59.3701 2026.6 63.421 Q2030.77 67.4314 2038.19 67.4314 Q2042.48 67.4314 2046.49 66.3781 Q2050.54 65.3249 2054.51 63.2184 L2054.51 70.267 Q2050.5 71.9684 2046.29 72.8596 Q2042.07 73.7508 2037.74 73.7508 Q2026.88 73.7508 2020.52 67.4314 Q2014.2 61.1119 2014.2 50.3365 Q2014.2 39.1965 2020.2 32.6746 Q2026.24 26.1121 2036.44 26.1121 Q2045.6 26.1121 2050.91 32.0264 Q2056.25 37.9003 2056.25 48.0275 M2048.8 45.84 Q2048.72 39.7232 2045.36 36.0774 Q2042.03 32.4315 2036.53 32.4315 Q2030.29 32.4315 2026.52 35.9558 Q2022.79 39.4801 2022.23 45.8805 L2048.8 45.84 Z" fill="#000000" fill-rule="nonzero" fill-opacity="1" /><path clip-path="url(#clip900)" d="M2098.34 49.3643 Q2098.34 41.2625 2094.98 36.8065 Q2091.66 32.3505 2085.62 32.3505 Q2079.63 32.3505 2076.26 36.8065 Q2072.94 41.2625 2072.94 49.3643 Q2072.94 57.4256 2076.26 61.8816 Q2079.63 66.3376 2085.62 66.3376 Q2091.66 66.3376 2094.98 61.8816 Q2098.34 57.4256 2098.34 49.3643 M2105.8 66.9452 Q2105.8 78.5308 2100.65 84.1616 Q2095.51 89.8329 2084.89 89.8329 Q2080.96 89.8329 2077.48 89.2252 Q2074 88.6581 2070.71 87.4428 L2070.71 80.1917 Q2074 81.9741 2077.2 82.8248 Q2080.4 83.6755 2083.72 83.6755 Q2091.05 83.6755 2094.7 79.8271 Q2098.34 76.0193 2098.34 68.282 L2098.34 64.5957 Q2096.03 68.6061 2092.43 70.5911 Q2088.82 72.576 2083.8 72.576 Q2075.45 72.576 2070.35 66.2161 Q2065.25 59.8562 2065.25 49.3643 Q2065.25 38.832 2070.35 32.472 Q2075.45 26.1121 2083.8 26.1121 Q2088.82 26.1121 2092.43 28.0971 Q2096.03 30.082 2098.34 34.0924 L2098.34 27.2059 L2105.8 27.2059 L2105.8 66.9452 Z" fill="#000000" fill-rule="nonzero" fill-opacity="1" /><path clip-path="url(#clip900)" d="M2120.38 54.671 L2120.38 27.2059 L2127.83 27.2059 L2127.83 54.3874 Q2127.83 60.8284 2130.34 64.0691 Q2132.86 67.2693 2137.88 67.2693 Q2143.91 67.2693 2147.4 63.421 Q2150.92 59.5726 2150.92 52.9291 L2150.92 27.2059 L2158.38 27.2059 L2158.38 72.576 L2150.92 72.576 L2150.92 65.6084 Q2148.21 69.7404 2144.6 71.7658 Q2141.04 73.7508 2136.3 73.7508 Q2128.48 73.7508 2124.43 68.8897 Q2120.38 64.0286 2120.38 54.671 M2139.13 26.1121 L2139.13 26.1121 Z" fill="#000000" fill-rule="nonzero" fill-opacity="1" /><path clip-path="url(#clip900)" d="M2173.73 9.54393 L2181.18 9.54393 L2181.18 72.576 L2173.73 72.576 L2173.73 9.54393 Z" fill="#000000" fill-rule="nonzero" fill-opacity="1" /><path clip-path="url(#clip900)" d="M2217.4 49.7694 Q2208.36 49.7694 2204.88 51.8354 Q2201.4 53.9013 2201.4 58.8839 Q2201.4 62.8538 2203.99 65.2034 Q2206.62 67.5124 2211.12 67.5124 Q2217.32 67.5124 2221.04 63.1374 Q2224.81 58.7219 2224.81 51.4303 L2224.81 49.7694 L2217.4 49.7694 M2232.26 46.6907 L2232.26 72.576 L2224.81 72.576 L2224.81 65.6895 Q2222.26 69.8214 2218.45 71.8063 Q2214.64 73.7508 2209.13 73.7508 Q2202.17 73.7508 2198.03 69.8619 Q2193.94 65.9325 2193.94 59.3701 Q2193.94 51.7138 2199.05 47.825 Q2204.19 43.9361 2214.36 43.9361 L2224.81 43.9361 L2224.81 43.2069 Q2224.81 38.0623 2221.41 35.2672 Q2218.05 32.4315 2211.93 32.4315 Q2208.04 32.4315 2204.35 33.3632 Q2200.67 34.295 2197.27 36.1584 L2197.27 29.2718 Q2201.36 27.692 2205.2 26.9223 Q2209.05 26.1121 2212.7 26.1121 Q2222.54 26.1121 2227.4 31.2163 Q2232.26 36.3204 2232.26 46.6907 Z" fill="#000000" fill-rule="nonzero" fill-opacity="1" /><path clip-path="url(#clip900)" d="M2273.91 34.1734 Q2272.65 33.4443 2271.15 33.1202 Q2269.7 32.7556 2267.91 32.7556 Q2261.59 32.7556 2258.19 36.8875 Q2254.83 40.9789 2254.83 48.6757 L2254.83 72.576 L2247.33 72.576 L2247.33 27.2059 L2254.83 27.2059 L2254.83 34.2544 Q2257.18 30.1225 2260.95 28.1376 Q2264.71 26.1121 2270.1 26.1121 Q2270.87 26.1121 2271.8 26.2337 Q2272.73 26.3147 2273.87 26.5172 L2273.91 34.1734 Z" fill="#000000" fill-rule="nonzero" fill-opacity="1" /><path clip-path="url(#clip900)" d="M2281.73 27.2059 L2289.18 27.2059 L2289.18 72.576 L2281.73 72.576 L2281.73 27.2059 M2281.73 9.54393 L2289.18 9.54393 L2289.18 18.9825 L2281.73 18.9825 L2281.73 9.54393 Z" fill="#000000" fill-rule="nonzero" fill-opacity="1" /><path clip-path="url(#clip900)" d="M2301.54 27.2059 L2336.94 27.2059 L2336.94 34.0114 L2308.91 66.6212 L2336.94 66.6212 L2336.94 72.576 L2300.52 72.576 L2300.52 65.7705 L2328.55 33.1607 L2301.54 33.1607 L2301.54 27.2059 Z" fill="#000000" fill-rule="nonzero" fill-opacity="1" /><path clip-path="url(#clip900)" d="M2387.13 48.0275 L2387.13 51.6733 L2352.86 51.6733 Q2353.35 59.3701 2357.48 63.421 Q2361.65 67.4314 2369.06 67.4314 Q2373.36 67.4314 2377.37 66.3781 Q2381.42 65.3249 2385.39 63.2184 L2385.39 70.267 Q2381.38 71.9684 2377.17 72.8596 Q2372.95 73.7508 2368.62 73.7508 Q2357.76 73.7508 2351.4 67.4314 Q2345.08 61.1119 2345.08 50.3365 Q2345.08 39.1965 2351.08 32.6746 Q2357.11 26.1121 2367.32 26.1121 Q2376.48 26.1121 2381.78 32.0264 Q2387.13 37.9003 2387.13 48.0275 M2379.68 45.84 Q2379.6 39.7232 2376.23 36.0774 Q2372.91 32.4315 2367.4 32.4315 Q2361.16 32.4315 2357.4 35.9558 Q2353.67 39.4801 2353.1 45.8805 L2379.68 45.84 Z" fill="#000000" fill-rule="nonzero" fill-opacity="1" /><path clip-path="url(#clip900)" d="M2425.66 34.1734 Q2424.4 33.4443 2422.9 33.1202 Q2421.44 32.7556 2419.66 32.7556 Q2413.34 32.7556 2409.94 36.8875 Q2406.58 40.9789 2406.58 48.6757 L2406.58 72.576 L2399.08 72.576 L2399.08 27.2059 L2406.58 27.2059 L2406.58 34.2544 Q2408.92 30.1225 2412.69 28.1376 Q2416.46 26.1121 2421.85 26.1121 Q2422.62 26.1121 2423.55 26.2337 Q2424.48 26.3147 2425.61 26.5172 L2425.66 34.1734 Z" fill="#000000" fill-rule="nonzero" fill-opacity="1" /><path clip-path="url(#clip900)" d="M2459.84 9.54393 L2467.3 9.54393 L2467.3 72.576 L2459.84 72.576 L2459.84 9.54393 Z" fill="#000000" fill-rule="nonzero" fill-opacity="1" /><path clip-path="url(#clip900)" d="M2521.7 48.0275 L2521.7 51.6733 L2487.43 51.6733 Q2487.92 59.3701 2492.05 63.421 Q2496.22 67.4314 2503.63 67.4314 Q2507.93 67.4314 2511.94 66.3781 Q2515.99 65.3249 2519.96 63.2184 L2519.96 70.267 Q2515.95 71.9684 2511.74 72.8596 Q2507.52 73.7508 2503.19 73.7508 Q2492.33 73.7508 2485.97 67.4314 Q2479.65 61.1119 2479.65 50.3365 Q2479.65 39.1965 2485.65 32.6746 Q2491.68 26.1121 2501.89 26.1121 Q2511.05 26.1121 2516.35 32.0264 Q2521.7 37.9003 2521.7 48.0275 M2514.25 45.84 Q2514.17 39.7232 2510.81 36.0774 Q2507.48 32.4315 2501.97 32.4315 Q2495.74 32.4315 2491.97 35.9558 Q2488.24 39.4801 2487.67 45.8805 L2514.25 45.84 Z" fill="#000000" fill-rule="nonzero" fill-opacity="1" /><path clip-path="url(#clip900)" d="M2554.55 49.7694 Q2545.52 49.7694 2542.04 51.8354 Q2538.55 53.9013 2538.55 58.8839 Q2538.55 62.8538 2541.15 65.2034 Q2543.78 67.5124 2548.28 67.5124 Q2554.47 67.5124 2558.2 63.1374 Q2561.97 58.7219 2561.97 51.4303 L2561.97 49.7694 L2554.55 49.7694 M2569.42 46.6907 L2569.42 72.576 L2561.97 72.576 L2561.97 65.6895 Q2559.42 69.8214 2555.61 71.8063 Q2551.8 73.7508 2546.29 73.7508 Q2539.32 73.7508 2535.19 69.8619 Q2531.1 65.9325 2531.1 59.3701 Q2531.1 51.7138 2536.2 47.825 Q2541.35 43.9361 2551.52 43.9361 L2561.97 43.9361 L2561.97 43.2069 Q2561.97 38.0623 2558.57 35.2672 Q2555.2 32.4315 2549.09 32.4315 Q2545.2 32.4315 2541.51 33.3632 Q2537.82 34.295 2534.42 36.1584 L2534.42 29.2718 Q2538.51 27.692 2542.36 26.9223 Q2546.21 26.1121 2549.86 26.1121 Q2559.7 26.1121 2564.56 31.2163 Q2569.42 36.3204 2569.42 46.6907 Z" fill="#000000" fill-rule="nonzero" fill-opacity="1" /><path clip-path="url(#clip900)" d="M2611.06 34.1734 Q2609.81 33.4443 2608.31 33.1202 Q2606.85 32.7556 2605.07 32.7556 Q2598.75 32.7556 2595.35 36.8875 Q2591.99 40.9789 2591.99 48.6757 L2591.99 72.576 L2584.49 72.576 L2584.49 27.2059 L2591.99 27.2059 L2591.99 34.2544 Q2594.33 30.1225 2598.1 28.1376 Q2601.87 26.1121 2607.26 26.1121 Q2608.03 26.1121 2608.96 26.2337 Q2609.89 26.3147 2611.02 26.5172 L2611.06 34.1734 Z" fill="#000000" fill-rule="nonzero" fill-opacity="1" /><path clip-path="url(#clip900)" d="M2655.14 45.1919 L2655.14 72.576 L2647.69 72.576 L2647.69 45.4349 Q2647.69 38.994 2645.17 35.7938 Q2642.66 32.5936 2637.64 32.5936 Q2631.6 32.5936 2628.12 36.4419 Q2624.64 40.2903 2624.64 46.9338 L2624.64 72.576 L2617.14 72.576 L2617.14 27.2059 L2624.64 27.2059 L2624.64 34.2544 Q2627.31 30.163 2630.91 28.1376 Q2634.56 26.1121 2639.3 26.1121 Q2647.12 26.1121 2651.13 30.9732 Q2655.14 35.7938 2655.14 45.1919 Z" fill="#000000" fill-rule="nonzero" fill-opacity="1" /><path clip-path="url(#clip900)" d="M2670.01 27.2059 L2677.46 27.2059 L2677.46 72.576 L2670.01 72.576 L2670.01 27.2059 M2670.01 9.54393 L2677.46 9.54393 L2677.46 18.9825 L2670.01 18.9825 L2670.01 9.54393 Z" fill="#000000" fill-rule="nonzero" fill-opacity="1" /><path clip-path="url(#clip900)" d="M2730.77 45.1919 L2730.77 72.576 L2723.32 72.576 L2723.32 45.4349 Q2723.32 38.994 2720.8 35.7938 Q2718.29 32.5936 2713.27 32.5936 Q2707.23 32.5936 2703.75 36.4419 Q2700.27 40.2903 2700.27 46.9338 L2700.27 72.576 L2692.77 72.576 L2692.77 27.2059 L2700.27 27.2059 L2700.27 34.2544 Q2702.94 30.163 2706.54 28.1376 Q2710.19 26.1121 2714.93 26.1121 Q2722.75 26.1121 2726.76 30.9732 Q2730.77 35.7938 2730.77 45.1919 Z" fill="#000000" fill-rule="nonzero" fill-opacity="1" /><path clip-path="url(#clip900)" d="M2775.49 49.3643 Q2775.49 41.2625 2772.13 36.8065 Q2768.81 32.3505 2762.77 32.3505 Q2756.78 32.3505 2753.41 36.8065 Q2750.09 41.2625 2750.09 49.3643 Q2750.09 57.4256 2753.41 61.8816 Q2756.78 66.3376 2762.77 66.3376 Q2768.81 66.3376 2772.13 61.8816 Q2775.49 57.4256 2775.49 49.3643 M2782.94 66.9452 Q2782.94 78.5308 2777.8 84.1616 Q2772.66 89.8329 2762.04 89.8329 Q2758.11 89.8329 2754.63 89.2252 Q2751.15 88.6581 2747.86 87.4428 L2747.86 80.1917 Q2751.15 81.9741 2754.35 82.8248 Q2757.55 83.6755 2760.87 83.6755 Q2768.2 83.6755 2771.85 79.8271 Q2775.49 76.0193 2775.49 68.282 L2775.49 64.5957 Q2773.18 68.6061 2769.58 70.5911 Q2765.97 72.576 2760.95 72.576 Q2752.6 72.576 2747.5 66.2161 Q2742.4 59.8562 2742.4 49.3643 Q2742.4 38.832 2747.5 32.472 Q2752.6 26.1121 2760.95 26.1121 Q2765.97 26.1121 2769.58 28.0971 Q2773.18 30.082 2775.49 34.0924 L2775.49 27.2059 L2782.94 27.2059 L2782.94 66.9452 Z" fill="#000000" fill-rule="nonzero" fill-opacity="1" /><polyline clip-path="url(#clip901)" style="stroke:#009af9; stroke-linecap:round; stroke-linejoin:round; stroke-width:8; stroke-opacity:1; fill:none" points="317.401,124.143 399.641,176.261 481.881,227.085 564.12,276.617 646.36,324.861 728.6,371.823 810.84,417.505 893.08,461.911 975.32,505.045 1057.56,546.912 1139.8,587.514 1222.04,626.855 1304.28,664.94 1386.52,701.772 1468.76,737.354 1551,771.691 1633.24,804.786 1715.48,836.643 1797.72,867.266 1879.96,896.657 1962.2,924.822 2044.44,951.763 2126.68,977.484 2208.92,1001.99 2291.16,1025.28 2373.4,1047.36 2455.64,1068.24 2537.88,1087.92 2620.12,1106.39 2702.36,1123.68 2784.6,1139.77 2866.84,1154.67 2949.08,1168.39 3031.32,1180.93 3113.56,1192.29 3195.8,1202.47 3278.04,1211.49 3360.28,1219.34 3442.52,1226.02 3524.76,1231.55 3607,1235.92 3689.24,1239.13 3771.48,1241.2 3853.72,1242.11 3935.96,1241.89 4018.2,1240.52 4100.44,1238.02 4182.68,1234.38 4264.92,1229.61 4347.16,1223.72 4429.4,1216.7 "/>
<polyline clip-path="url(#clip901)" style="stroke:#e26f46; stroke-linecap:round; stroke-linejoin:round; stroke-width:20; stroke-opacity:1; fill:none" stroke-dasharray="10, 20" points="1139.8,587.514 1221.76,626.722 1301.14,663.511 1378.05,698.035 1452.55,730.439 1524.73,760.86 1594.68,789.423 1662.46,816.246 1728.15,841.44 1791.81,865.106 1853.52,887.342 1913.33,908.235 1971.32,927.87 2027.54,946.325 2082.04,963.674 2134.89,979.984 2186.13,995.32 2235.82,1009.74 2284.01,1023.3 2330.74,1036.06 2376.07,1048.06 2420.03,1059.35 2462.67,1069.97 2504.04,1079.97 2544.16,1089.37 2583.09,1098.22 2620.85,1106.55 2657.49,1114.4 2693.04,1121.78 2727.53,1128.73 2760.99,1135.27 2793.47,1141.43 2824.98,1147.23 2855.56,1152.7 2885.24,1157.84 2914.03,1162.69 2941.98,1167.25 2969.11,1171.55 2995.44,1175.6 3020.99,1179.42 3045.8,1183.01 3069.87,1186.4 3093.24,1189.59 3115.92,1192.6 3137.94,1195.43 3159.32,1198.1 3180.07,1200.62 3200.21,1202.99 3219.77,1205.22 3238.76,1207.33 3257.19,1209.32 3275.08,1211.19 3292.46,1212.95 3309.33,1214.61 3325.71,1216.18 3341.61,1217.66 3357.05,1219.05 3372.04,1220.37 3386.6,1221.61 3400.74,1222.77 3414.46,1223.87 3427.79,1224.91 3440.73,1225.89 3453.3,1226.82 3465.51,1227.69 3477.36,1228.51 3488.87,1229.28 3500.05,1230.01 3510.9,1230.7 3521.44,1231.35 3531.68,1231.96 3541.62,1232.54 3551.27,1233.08 3560.65,1233.6 3569.76,1234.08 3578.6,1234.54 3587.19,1234.97 3595.53,1235.38 3603.63,1235.76 3611.5,1236.12 3619.14,1236.46 3626.57,1236.79 3633.78,1237.09 3640.78,1237.38 3647.58,1237.65 3654.19,1237.9 3660.6,1238.14 3666.84,1238.37 3672.89,1238.58 3678.77,1238.79 3684.48,1238.98 3690.03,1239.16 3695.41,1239.33 3700.65,1239.49 3705.73,1239.64 3710.67,1239.78 3715.46,1239.91 3720.12,1240.04 3724.65,1240.16 3729.04,1240.27 3733.31,1240.38 3737.46,1240.48 3741.49,1240.58 3745.4,1240.67 3749.2,1240.75 3752.9,1240.83 3756.48,1240.9 3759.97,1240.98 3763.35,1241.04 3766.64,1241.11 3769.83,1241.17 3772.94,1241.22 3775.95,1241.28 3778.88,1241.33 3781.72,1241.37 3784.49,1241.42 3787.17,1241.46 3789.78,1241.5 3792.31,1241.54 3794.77,1241.57 3797.16,1241.61 3799.48,1241.64 3801.74,1241.67 3803.93,1241.69 3806.05,1241.72 3808.12,1241.75 3810.13,1241.77 3812.08,1241.79 3813.98,1241.81 3815.82,1241.83 3817.61,1241.85 3819.34,1241.87 3821.03,1241.89 3822.67,1241.9 3824.27,1241.92 3825.81,1241.93 3827.32,1241.94 3828.78,1241.96 3830.2,1241.97 3831.57,1241.98 3832.91,1241.99 3834.21,1242 3835.48,1242.01 3836.71,1242.02 3837.9,1242.03 3839.06,1242.03 3840.18,1242.04 3841.28,1242.05 3842.34,1242.05 3843.37,1242.06 3844.37,1242.07 3845.35,1242.07 3846.29,1242.08 3847.21,1242.08 3848.11,1242.09 3848.97,1242.09 3849.82,1242.1 3850.63,1242.1 3851.43,1242.1 3852.2,1242.11 3852.95,1242.11 3853.68,1242.11 3854.39,1242.12 3855.08,1242.12 3855.75,1242.12 3856.4,1242.12 3857.03,1242.13 3857.64,1242.13 3858.24,1242.13 3858.82,1242.13 3859.38,1242.13 3859.92,1242.14 3860.46,1242.14 3860.97,1242.14 3861.47,1242.14 3861.96,1242.14 3862.43,1242.14 3862.89,1242.14 3863.34,1242.15 3863.77,1242.15 3864.19,1242.15 3864.6,1242.15 3865,1242.15 3865.38,1242.15 3865.76,1242.15 3866.12,1242.15 3866.48,1242.15 3866.82,1242.15 3867.15,1242.15 3867.48,1242.15 3867.79,1242.16 3868.1,1242.16 3868.4,1242.16 3868.69,1242.16 3868.97,1242.16 3869.24,1242.16 3869.51,1242.16 3869.76,1242.16 3870.01,1242.16 3870.26,1242.16 3870.49,1242.16 3870.72,1242.16 3870.94,1242.16 3871.16,1242.16 3871.37,1242.16 3871.58,1242.16 3871.77,1242.16 3871.97,1242.16 3872.15,1242.16 3872.34,1242.16 3872.51,1242.16 3872.69,1242.16 3872.85,1242.16 3873.01,1242.16 3873.17,1242.16 3873.33,1242.16 3873.47,1242.16 3873.62,1242.16 3873.76,1242.16 3873.9,1242.16 3874.03,1242.16 3874.16,1242.16 3874.28,1242.16 3874.4,1242.16 3874.52,1242.16 3874.64,1242.16 3874.75,1242.16 3874.85,1242.16 3874.96,1242.16 3875.06,1242.16 3875.16,1242.16 3875.26,1242.16 3875.35,1242.16 3875.44,1242.16 3875.53,1242.16 3875.62,1242.16 3875.7,1242.16 "/>
<path clip-path="url(#clip900)" d="M339.331 285.626 L994.137 285.626 L994.137 130.106 L339.331 130.106  Z" fill="#ffffff" fill-rule="evenodd" fill-opacity="1"/>
<polyline clip-path="url(#clip900)" style="stroke:#000000; stroke-linecap:round; stroke-linejoin:round; stroke-width:4; stroke-opacity:1; fill:none" points="339.331,285.626 994.137,285.626 994.137,130.106 339.331,130.106 339.331,285.626 "/>
<polyline clip-path="url(#clip900)" style="stroke:#009af9; stroke-linecap:round; stroke-linejoin:round; stroke-width:8; stroke-opacity:1; fill:none" points="387.762,181.946 678.343,181.946 "/>
<path clip-path="url(#clip900)" d="M726.773 164.666 L733.74 164.666 L742.56 188.184 L751.425 164.666 L758.393 164.666 L758.393 199.226 L753.833 199.226 L753.833 168.879 L744.921 192.582 L740.222 192.582 L731.31 168.879 L731.31 199.226 L726.773 199.226 L726.773 164.666 Z" fill="#000000" fill-rule="nonzero" fill-opacity="1" /><path clip-path="url(#clip900)" d="M788.393 165.8 L788.393 170.36 Q785.731 169.087 783.37 168.462 Q781.009 167.837 778.809 167.837 Q774.99 167.837 772.907 169.319 Q770.847 170.8 770.847 173.532 Q770.847 175.823 772.212 177.004 Q773.601 178.161 777.444 178.879 L780.268 179.458 Q785.499 180.453 787.976 182.976 Q790.476 185.476 790.476 189.689 Q790.476 194.712 787.096 197.305 Q783.74 199.897 777.235 199.897 Q774.782 199.897 772.004 199.342 Q769.249 198.786 766.286 197.698 L766.286 192.883 Q769.134 194.481 771.865 195.291 Q774.597 196.101 777.235 196.101 Q781.24 196.101 783.416 194.527 Q785.592 192.953 785.592 190.036 Q785.592 187.49 784.018 186.055 Q782.467 184.62 778.902 183.902 L776.055 183.346 Q770.823 182.305 768.485 180.083 Q766.147 177.86 766.147 173.902 Q766.147 169.319 769.365 166.68 Q772.606 164.041 778.277 164.041 Q780.708 164.041 783.231 164.481 Q785.754 164.921 788.393 165.8 Z" fill="#000000" fill-rule="nonzero" fill-opacity="1" /><path clip-path="url(#clip900)" d="M797.768 164.666 L819.619 164.666 L819.619 168.601 L802.444 168.601 L802.444 178.833 L818.902 178.833 L818.902 182.768 L802.444 182.768 L802.444 195.291 L820.036 195.291 L820.036 199.226 L797.768 199.226 L797.768 164.666 Z" fill="#000000" fill-rule="nonzero" fill-opacity="1" /><path clip-path="url(#clip900)" d="M846.818 165.939 L846.818 173.3 L855.591 173.3 L855.591 176.61 L846.818 176.61 L846.818 190.684 Q846.818 193.856 847.675 194.758 Q848.554 195.661 851.216 195.661 L855.591 195.661 L855.591 199.226 L851.216 199.226 Q846.286 199.226 844.411 197.397 Q842.536 195.545 842.536 190.684 L842.536 176.61 L839.411 176.61 L839.411 173.3 L842.536 173.3 L842.536 165.939 L846.818 165.939 Z" fill="#000000" fill-rule="nonzero" fill-opacity="1" /><path clip-path="url(#clip900)" d="M883.369 185.198 L883.369 187.282 L863.786 187.282 Q864.064 191.68 866.425 193.995 Q868.809 196.286 873.045 196.286 Q875.499 196.286 877.79 195.684 Q880.105 195.082 882.374 193.879 L882.374 197.907 Q880.082 198.879 877.675 199.388 Q875.267 199.897 872.79 199.897 Q866.587 199.897 862.953 196.286 Q859.341 192.675 859.341 186.518 Q859.341 180.152 862.767 176.425 Q866.216 172.675 872.05 172.675 Q877.281 172.675 880.314 176.055 Q883.369 179.411 883.369 185.198 M879.11 183.948 Q879.064 180.453 877.142 178.37 Q875.244 176.286 872.096 176.286 Q868.531 176.286 866.378 178.3 Q864.249 180.314 863.925 183.971 L879.11 183.948 Z" fill="#000000" fill-rule="nonzero" fill-opacity="1" /><path clip-path="url(#clip900)" d="M906.887 174.064 L906.887 178.092 Q905.082 177.166 903.137 176.703 Q901.193 176.24 899.11 176.24 Q895.938 176.24 894.341 177.212 Q892.767 178.184 892.767 180.129 Q892.767 181.61 893.901 182.467 Q895.036 183.3 898.462 184.064 L899.92 184.388 Q904.457 185.36 906.355 187.143 Q908.276 188.902 908.276 192.073 Q908.276 195.684 905.406 197.791 Q902.559 199.897 897.559 199.897 Q895.475 199.897 893.207 199.481 Q890.962 199.087 888.462 198.277 L888.462 193.879 Q890.823 195.106 893.114 195.731 Q895.406 196.332 897.651 196.332 Q900.661 196.332 902.281 195.314 Q903.901 194.272 903.901 192.397 Q903.901 190.661 902.721 189.735 Q901.563 188.809 897.605 187.953 L896.124 187.606 Q892.165 186.772 890.406 185.059 Q888.647 183.323 888.647 180.314 Q888.647 176.657 891.239 174.666 Q893.832 172.675 898.6 172.675 Q900.962 172.675 903.045 173.022 Q905.128 173.37 906.887 174.064 Z" fill="#000000" fill-rule="nonzero" fill-opacity="1" /><path clip-path="url(#clip900)" d="M919.272 165.939 L919.272 173.3 L928.045 173.3 L928.045 176.61 L919.272 176.61 L919.272 190.684 Q919.272 193.856 920.128 194.758 Q921.008 195.661 923.67 195.661 L928.045 195.661 L928.045 199.226 L923.67 199.226 Q918.739 199.226 916.864 197.397 Q914.989 195.545 914.989 190.684 L914.989 176.61 L911.864 176.61 L911.864 173.3 L914.989 173.3 L914.989 165.939 L919.272 165.939 Z" fill="#000000" fill-rule="nonzero" fill-opacity="1" /><polyline clip-path="url(#clip900)" style="stroke:#e26f46; stroke-linecap:round; stroke-linejoin:round; stroke-width:20; stroke-opacity:1; fill:none" stroke-dasharray="10, 20" points="387.762,233.786 678.343,233.786 "/>
<path clip-path="url(#clip900)" d="M726.773 215.048 L731.032 215.048 L731.032 251.066 L726.773 251.066 L726.773 215.048 Z" fill="#000000" fill-rule="nonzero" fill-opacity="1" /><path clip-path="url(#clip900)" d="M762.12 237.038 L762.12 239.122 L742.537 239.122 Q742.814 243.52 745.175 245.835 Q747.56 248.126 751.796 248.126 Q754.249 248.126 756.541 247.524 Q758.856 246.922 761.124 245.719 L761.124 249.747 Q758.833 250.719 756.425 251.228 Q754.018 251.737 751.541 251.737 Q745.337 251.737 741.703 248.126 Q738.092 244.515 738.092 238.358 Q738.092 231.992 741.518 228.265 Q744.967 224.515 750.8 224.515 Q756.032 224.515 759.064 227.895 Q762.12 231.251 762.12 237.038 M757.86 235.788 Q757.814 232.293 755.893 230.21 Q753.995 228.126 750.847 228.126 Q747.282 228.126 745.129 230.14 Q742.999 232.154 742.675 235.811 L757.86 235.788 Z" fill="#000000" fill-rule="nonzero" fill-opacity="1" /><path clip-path="url(#clip900)" d="M780.893 238.034 Q775.731 238.034 773.74 239.214 Q771.749 240.395 771.749 243.242 Q771.749 245.51 773.231 246.853 Q774.735 248.172 777.305 248.172 Q780.846 248.172 782.976 245.672 Q785.129 243.149 785.129 238.983 L785.129 238.034 L780.893 238.034 M789.388 236.274 L789.388 251.066 L785.129 251.066 L785.129 247.131 Q783.671 249.492 781.495 250.626 Q779.319 251.737 776.171 251.737 Q772.189 251.737 769.828 249.515 Q767.49 247.27 767.49 243.52 Q767.49 239.145 770.407 236.923 Q773.347 234.7 779.157 234.7 L785.129 234.7 L785.129 234.284 Q785.129 231.344 783.184 229.747 Q781.263 228.126 777.768 228.126 Q775.546 228.126 773.439 228.659 Q771.333 229.191 769.388 230.256 L769.388 226.321 Q771.726 225.418 773.925 224.978 Q776.124 224.515 778.208 224.515 Q783.833 224.515 786.61 227.432 Q789.388 230.348 789.388 236.274 Z" fill="#000000" fill-rule="nonzero" fill-opacity="1" /><path clip-path="url(#clip900)" d="M813.184 229.122 Q812.467 228.705 811.61 228.52 Q810.777 228.311 809.758 228.311 Q806.147 228.311 804.203 230.673 Q802.282 233.011 802.282 237.409 L802.282 251.066 L797.999 251.066 L797.999 225.14 L802.282 225.14 L802.282 229.168 Q803.624 226.807 805.777 225.673 Q807.93 224.515 811.008 224.515 Q811.448 224.515 811.981 224.585 Q812.513 224.631 813.161 224.747 L813.184 229.122 Z" fill="#000000" fill-rule="nonzero" fill-opacity="1" /><path clip-path="url(#clip900)" d="M838.369 235.418 L838.369 251.066 L834.11 251.066 L834.11 235.557 Q834.11 231.876 832.675 230.048 Q831.24 228.219 828.369 228.219 Q824.92 228.219 822.93 230.418 Q820.939 232.617 820.939 236.413 L820.939 251.066 L816.656 251.066 L816.656 225.14 L820.939 225.14 L820.939 229.168 Q822.467 226.83 824.527 225.673 Q826.61 224.515 829.318 224.515 Q833.786 224.515 836.078 227.293 Q838.369 230.048 838.369 235.418 Z" fill="#000000" fill-rule="nonzero" fill-opacity="1" /><path clip-path="url(#clip900)" d="M869.04 237.038 L869.04 239.122 L849.457 239.122 Q849.735 243.52 852.096 245.835 Q854.48 248.126 858.716 248.126 Q861.17 248.126 863.462 247.524 Q865.777 246.922 868.045 245.719 L868.045 249.747 Q865.753 250.719 863.346 251.228 Q860.939 251.737 858.462 251.737 Q852.258 251.737 848.624 248.126 Q845.013 244.515 845.013 238.358 Q845.013 231.992 848.439 228.265 Q851.888 224.515 857.721 224.515 Q862.953 224.515 865.985 227.895 Q869.04 231.251 869.04 237.038 M864.781 235.788 Q864.735 232.293 862.814 230.21 Q860.915 228.126 857.767 228.126 Q854.203 228.126 852.05 230.14 Q849.92 232.154 849.596 235.811 L864.781 235.788 Z" fill="#000000" fill-rule="nonzero" fill-opacity="1" /><path clip-path="url(#clip900)" d="M893.091 229.075 L893.091 215.048 L897.35 215.048 L897.35 251.066 L893.091 251.066 L893.091 247.177 Q891.749 249.492 889.688 250.626 Q887.651 251.737 884.781 251.737 Q880.082 251.737 877.119 247.987 Q874.179 244.237 874.179 238.126 Q874.179 232.015 877.119 228.265 Q880.082 224.515 884.781 224.515 Q887.651 224.515 889.688 225.649 Q891.749 226.761 893.091 229.075 M878.577 238.126 Q878.577 242.825 880.499 245.51 Q882.443 248.172 885.823 248.172 Q889.202 248.172 891.147 245.51 Q893.091 242.825 893.091 238.126 Q893.091 233.427 891.147 230.765 Q889.202 228.08 885.823 228.08 Q882.443 228.08 880.499 230.765 Q878.577 233.427 878.577 238.126 Z" fill="#000000" fill-rule="nonzero" fill-opacity="1" /><path clip-path="url(#clip900)" d="M936.309 239.006 L935.29 233.659 Q934.248 228.173 930.128 228.173 Q927.026 228.173 925.614 230.719 Q923.832 233.913 923.832 238.126 Q923.832 243.219 925.568 245.649 Q927.327 248.126 930.128 248.126 Q933.23 248.126 934.897 243.196 L936.309 239.006 M938.693 231.923 L940.985 225.14 L944.781 225.14 L940.035 239.191 L940.961 244.26 Q941.17 245.395 941.98 246.344 Q942.929 247.455 943.67 247.455 L945.707 247.455 L945.707 251.066 L943.16 251.066 Q940.985 251.066 939.04 249.122 Q938.091 248.149 937.697 246.112 Q936.633 248.682 934.457 250.696 Q933.438 251.645 930.128 251.645 Q924.688 251.645 922.049 248.126 Q919.341 244.492 919.341 238.126 Q919.341 231.321 922.281 228.126 Q925.545 224.561 930.128 224.561 Q937.327 224.561 938.693 231.923 Z" fill="#000000" fill-rule="nonzero" fill-opacity="1" /></svg>
