<?xml version="1.0" encoding="utf-8"?>
<svg xmlns="http://www.w3.org/2000/svg" xmlns:xlink="http://www.w3.org/1999/xlink" width="1150" height="350" viewBox="0 0 4600 1400">
<defs>
  <clipPath id="clip990">
    <rect x="0" y="0" width="4600" height="1400"/>
  </clipPath>
</defs>
<path clip-path="url(#clip990)" d="M0 1400 L4600 1400 L4600 0 L0 0  Z" fill="#ffffff" fill-rule="evenodd" fill-opacity="1"/>
<defs>
  <clipPath id="clip991">
    <rect x="920" y="0" width="3221" height="1400"/>
  </clipPath>
</defs>
<path clip-path="url(#clip990)" d="M228.96 1275.71 L4552.76 1275.71 L4552.76 90.6026 L228.96 90.6026  Z" fill="#ffffff" fill-rule="evenodd" fill-opacity="1"/>
<defs>
  <clipPath id="clip992">
    <rect x="228" y="90" width="4325" height="1186"/>
  </clipPath>
</defs>
<polyline clip-path="url(#clip992)" style="stroke:#000000; stroke-linecap:round; stroke-linejoin:round; stroke-width:2; stroke-opacity:0.1; fill:none" points="334.047,1275.71 334.047,90.6026 "/>
<polyline clip-path="url(#clip992)" style="stroke:#000000; stroke-linecap:round; stroke-linejoin:round; stroke-width:2; stroke-opacity:0.1; fill:none" points="1198.25,1275.71 1198.25,90.6026 "/>
<polyline clip-path="url(#clip992)" style="stroke:#000000; stroke-linecap:round; stroke-linejoin:round; stroke-width:2; stroke-opacity:0.1; fill:none" points="2062.46,1275.71 2062.46,90.6026 "/>
<polyline clip-path="url(#clip992)" style="stroke:#000000; stroke-linecap:round; stroke-linejoin:round; stroke-width:2; stroke-opacity:0.1; fill:none" points="2926.67,1275.71 2926.67,90.6026 "/>
<polyline clip-path="url(#clip992)" style="stroke:#000000; stroke-linecap:round; stroke-linejoin:round; stroke-width:2; stroke-opacity:0.1; fill:none" points="3790.87,1275.71 3790.87,90.6026 "/>
<polyline clip-path="url(#clip992)" style="stroke:#000000; stroke-linecap:round; stroke-linejoin:round; stroke-width:2; stroke-opacity:0.1; fill:none" points="228.96,1246.01 4552.76,1246.01 "/>
<polyline clip-path="url(#clip992)" style="stroke:#000000; stroke-linecap:round; stroke-linejoin:round; stroke-width:2; stroke-opacity:0.1; fill:none" points="228.96,965.268 4552.76,965.268 "/>
<polyline clip-path="url(#clip992)" style="stroke:#000000; stroke-linecap:round; stroke-linejoin:round; stroke-width:2; stroke-opacity:0.1; fill:none" points="228.96,684.524 4552.76,684.524 "/>
<polyline clip-path="url(#clip992)" style="stroke:#000000; stroke-linecap:round; stroke-linejoin:round; stroke-width:2; stroke-opacity:0.1; fill:none" points="228.96,403.78 4552.76,403.78 "/>
<polyline clip-path="url(#clip992)" style="stroke:#000000; stroke-linecap:round; stroke-linejoin:round; stroke-width:2; stroke-opacity:0.1; fill:none" points="228.96,123.037 4552.76,123.037 "/>
<polyline clip-path="url(#clip990)" style="stroke:#000000; stroke-linecap:round; stroke-linejoin:round; stroke-width:4; stroke-opacity:1; fill:none" points="228.96,1275.71 4552.76,1275.71 "/>
<polyline clip-path="url(#clip990)" style="stroke:#000000; stroke-linecap:round; stroke-linejoin:round; stroke-width:4; stroke-opacity:1; fill:none" points="334.047,1275.71 334.047,1256.81 "/>
<polyline clip-path="url(#clip990)" style="stroke:#000000; stroke-linecap:round; stroke-linejoin:round; stroke-width:4; stroke-opacity:1; fill:none" points="1198.25,1275.71 1198.25,1256.81 "/>
<polyline clip-path="url(#clip990)" style="stroke:#000000; stroke-linecap:round; stroke-linejoin:round; stroke-width:4; stroke-opacity:1; fill:none" points="2062.46,1275.71 2062.46,1256.81 "/>
<polyline clip-path="url(#clip990)" style="stroke:#000000; stroke-linecap:round; stroke-linejoin:round; stroke-width:4; stroke-opacity:1; fill:none" points="2926.67,1275.71 2926.67,1256.81 "/>
<polyline clip-path="url(#clip990)" style="stroke:#000000; stroke-linecap:round; stroke-linejoin:round; stroke-width:4; stroke-opacity:1; fill:none" points="3790.87,1275.71 3790.87,1256.81 "/>
<path clip-path="url(#clip990)" d="M334.047 1322.76 Q330.887 1322.76 329.287 1325.88 Q327.707 1328.98 327.707 1335.22 Q327.707 1341.43 329.287 1344.55 Q330.887 1347.65 334.047 1347.65 Q337.227 1347.65 338.807 1344.55 Q340.407 1341.43 340.407 1335.22 Q340.407 1328.98 338.807 1325.88 Q337.227 1322.76 334.047 1322.76 M334.047 1319.52 Q339.131 1319.52 341.805 1323.55 Q344.498 1327.56 344.498 1335.22 Q344.498 1342.85 341.805 1346.88 Q339.131 1350.89 334.047 1350.89 Q328.963 1350.89 326.269 1346.88 Q323.596 1342.85 323.596 1335.22 Q323.596 1327.56 326.269 1323.55 Q328.963 1319.52 334.047 1319.52 Z" fill="#000000" fill-rule="nonzero" fill-opacity="1" /><path clip-path="url(#clip990)" d="M1176.12 1320.07 L1192.18 1320.07 L1192.18 1323.51 L1179.86 1323.51 L1179.86 1330.92 Q1180.75 1330.62 1181.64 1330.48 Q1182.54 1330.31 1183.43 1330.31 Q1188.49 1330.31 1191.45 1333.09 Q1194.4 1335.86 1194.4 1340.6 Q1194.4 1345.48 1191.37 1348.2 Q1188.33 1350.89 1182.8 1350.89 Q1180.9 1350.89 1178.91 1350.57 Q1176.95 1350.24 1174.84 1349.6 L1174.84 1345.48 Q1176.66 1346.48 1178.61 1346.96 Q1180.55 1347.45 1182.72 1347.45 Q1186.22 1347.45 1188.27 1345.61 Q1190.31 1343.76 1190.31 1340.6 Q1190.31 1337.44 1188.27 1335.6 Q1186.22 1333.76 1182.72 1333.76 Q1181.08 1333.76 1179.44 1334.12 Q1177.82 1334.49 1176.12 1335.26 L1176.12 1320.07 Z" fill="#000000" fill-rule="nonzero" fill-opacity="1" /><path clip-path="url(#clip990)" d="M1211.22 1322.76 Q1208.06 1322.76 1206.46 1325.88 Q1204.88 1328.98 1204.88 1335.22 Q1204.88 1341.43 1206.46 1344.55 Q1208.06 1347.65 1211.22 1347.65 Q1214.4 1347.65 1215.98 1344.55 Q1217.58 1341.43 1217.58 1335.22 Q1217.58 1328.98 1215.98 1325.88 Q1214.4 1322.76 1211.22 1322.76 M1211.22 1319.52 Q1216.3 1319.52 1218.97 1323.55 Q1221.67 1327.56 1221.67 1335.22 Q1221.67 1342.85 1218.97 1346.88 Q1216.3 1350.89 1211.22 1350.89 Q1206.13 1350.89 1203.44 1346.88 Q1200.76 1342.85 1200.76 1335.22 Q1200.76 1327.56 1203.44 1323.55 Q1206.13 1319.52 1211.22 1319.52 Z" fill="#000000" fill-rule="nonzero" fill-opacity="1" /><path clip-path="url(#clip990)" d="M2027.12 1346.86 L2033.8 1346.86 L2033.8 1323.79 L2026.53 1325.25 L2026.53 1321.52 L2033.76 1320.07 L2037.85 1320.07 L2037.85 1346.86 L2044.53 1346.86 L2044.53 1350.31 L2027.12 1350.31 L2027.12 1346.86 Z" fill="#000000" fill-rule="nonzero" fill-opacity="1" /><path clip-path="url(#clip990)" d="M2061.55 1322.76 Q2058.39 1322.76 2056.79 1325.88 Q2055.21 1328.98 2055.21 1335.22 Q2055.21 1341.43 2056.79 1344.55 Q2058.39 1347.65 2061.55 1347.65 Q2064.73 1347.65 2066.31 1344.55 Q2067.91 1341.43 2067.91 1335.22 Q2067.91 1328.98 2066.31 1325.88 Q2064.73 1322.76 2061.55 1322.76 M2061.55 1319.52 Q2066.63 1319.52 2069.31 1323.55 Q2072 1327.56 2072 1335.22 Q2072 1342.85 2069.31 1346.88 Q2066.63 1350.89 2061.55 1350.89 Q2056.46 1350.89 2053.77 1346.88 Q2051.1 1342.85 2051.1 1335.22 Q2051.1 1327.56 2053.77 1323.55 Q2056.46 1319.52 2061.55 1319.52 Z" fill="#000000" fill-rule="nonzero" fill-opacity="1" /><path clip-path="url(#clip990)" d="M2087.94 1322.76 Q2084.78 1322.76 2083.18 1325.88 Q2081.6 1328.98 2081.6 1335.22 Q2081.6 1341.43 2083.18 1344.55 Q2084.78 1347.65 2087.94 1347.65 Q2091.12 1347.65 2092.7 1344.55 Q2094.3 1341.43 2094.3 1335.22 Q2094.3 1328.98 2092.7 1325.88 Q2091.12 1322.76 2087.94 1322.76 M2087.94 1319.52 Q2093.02 1319.52 2095.7 1323.55 Q2098.39 1327.56 2098.39 1335.22 Q2098.39 1342.85 2095.7 1346.88 Q2093.02 1350.89 2087.94 1350.89 Q2082.86 1350.89 2080.16 1346.88 Q2077.49 1342.85 2077.49 1335.22 Q2077.49 1327.56 2080.16 1323.55 Q2082.86 1319.52 2087.94 1319.52 Z" fill="#000000" fill-rule="nonzero" fill-opacity="1" /><path clip-path="url(#clip990)" d="M2891.32 1346.86 L2898.01 1346.86 L2898.01 1323.79 L2890.73 1325.25 L2890.73 1321.52 L2897.96 1320.07 L2902.06 1320.07 L2902.06 1346.86 L2908.74 1346.86 L2908.74 1350.31 L2891.32 1350.31 L2891.32 1346.86 Z" fill="#000000" fill-rule="nonzero" fill-opacity="1" /><path clip-path="url(#clip990)" d="M2917.04 1320.07 L2933.11 1320.07 L2933.11 1323.51 L2920.79 1323.51 L2920.79 1330.92 Q2921.68 1330.62 2922.57 1330.48 Q2923.47 1330.31 2924.36 1330.31 Q2929.42 1330.31 2932.38 1333.09 Q2935.33 1335.86 2935.33 1340.6 Q2935.33 1345.48 2932.3 1348.2 Q2929.26 1350.89 2923.73 1350.89 Q2921.82 1350.89 2919.84 1350.57 Q2917.88 1350.24 2915.77 1349.6 L2915.77 1345.48 Q2917.59 1346.48 2919.54 1346.96 Q2921.48 1347.45 2923.65 1347.45 Q2927.15 1347.45 2929.2 1345.61 Q2931.24 1343.76 2931.24 1340.6 Q2931.24 1337.44 2929.2 1335.6 Q2927.15 1333.76 2923.65 1333.76 Q2922.01 1333.76 2920.37 1334.12 Q2918.75 1334.49 2917.04 1335.26 L2917.04 1320.07 Z" fill="#000000" fill-rule="nonzero" fill-opacity="1" /><path clip-path="url(#clip990)" d="M2952.15 1322.76 Q2948.99 1322.76 2947.39 1325.88 Q2945.81 1328.98 2945.81 1335.22 Q2945.81 1341.43 2947.39 1344.55 Q2948.99 1347.65 2952.15 1347.65 Q2955.33 1347.65 2956.91 1344.55 Q2958.51 1341.43 2958.51 1335.22 Q2958.51 1328.98 2956.91 1325.88 Q2955.33 1322.76 2952.15 1322.76 M2952.15 1319.52 Q2957.23 1319.52 2959.9 1323.55 Q2962.6 1327.56 2962.6 1335.22 Q2962.6 1342.85 2959.9 1346.88 Q2957.23 1350.89 2952.15 1350.89 Q2947.06 1350.89 2944.37 1346.88 Q2941.69 1342.85 2941.69 1335.22 Q2941.69 1327.56 2944.37 1323.55 Q2947.06 1319.52 2952.15 1319.52 Z" fill="#000000" fill-rule="nonzero" fill-opacity="1" /><path clip-path="url(#clip990)" d="M3759.1 1346.86 L3773.38 1346.86 L3773.38 1350.31 L3754.18 1350.31 L3754.18 1346.86 Q3756.51 1344.45 3760.52 1340.4 Q3764.55 1336.33 3765.58 1335.15 Q3767.55 1332.95 3768.32 1331.43 Q3769.11 1329.89 3769.11 1328.41 Q3769.11 1326 3767.41 1324.48 Q3765.73 1322.96 3763.01 1322.96 Q3761.09 1322.96 3758.94 1323.63 Q3756.81 1324.3 3754.38 1325.66 L3754.38 1321.52 Q3756.85 1320.53 3759 1320.02 Q3761.15 1319.52 3762.93 1319.52 Q3767.63 1319.52 3770.42 1321.87 Q3773.22 1324.22 3773.22 1328.15 Q3773.22 1330.01 3772.51 1331.69 Q3771.82 1333.35 3769.98 1335.62 Q3769.47 1336.21 3766.76 1339.02 Q3764.04 1341.82 3759.1 1346.86 Z" fill="#000000" fill-rule="nonzero" fill-opacity="1" /><path clip-path="url(#clip990)" d="M3790.72 1322.76 Q3787.56 1322.76 3785.96 1325.88 Q3784.38 1328.98 3784.38 1335.22 Q3784.38 1341.43 3785.96 1344.55 Q3787.56 1347.65 3790.72 1347.65 Q3793.9 1347.65 3795.48 1344.55 Q3797.08 1341.43 3797.08 1335.22 Q3797.08 1328.98 3795.48 1325.88 Q3793.9 1322.76 3790.72 1322.76 M3790.72 1319.52 Q3795.8 1319.52 3798.48 1323.55 Q3801.17 1327.56 3801.17 1335.22 Q3801.17 1342.85 3798.48 1346.88 Q3795.8 1350.89 3790.72 1350.89 Q3785.64 1350.89 3782.94 1346.88 Q3780.27 1342.85 3780.27 1335.22 Q3780.27 1327.56 3782.94 1323.55 Q3785.64 1319.52 3790.72 1319.52 Z" fill="#000000" fill-rule="nonzero" fill-opacity="1" /><path clip-path="url(#clip990)" d="M3817.11 1322.76 Q3813.95 1322.76 3812.35 1325.88 Q3810.77 1328.98 3810.77 1335.22 Q3810.77 1341.43 3812.35 1344.55 Q3813.95 1347.65 3817.11 1347.65 Q3820.29 1347.65 3821.87 1344.55 Q3823.47 1341.43 3823.47 1335.22 Q3823.47 1328.98 3821.87 1325.88 Q3820.29 1322.76 3817.11 1322.76 M3817.11 1319.52 Q3822.2 1319.52 3824.87 1323.55 Q3827.56 1327.56 3827.56 1335.22 Q3827.56 1342.85 3824.87 1346.88 Q3822.2 1350.89 3817.11 1350.89 Q3812.03 1350.89 3809.33 1346.88 Q3806.66 1342.85 3806.66 1335.22 Q3806.66 1327.56 3809.33 1323.55 Q3812.03 1319.52 3817.11 1319.52 Z" fill="#000000" fill-rule="nonzero" fill-opacity="1" /><path clip-path="url(#clip990)" d="M2267.77 1397.84 L2273.03 1397.84 L2273.03 1436.72 L2267.77 1436.72 L2267.77 1397.84 Z" fill="#000000" fill-rule="nonzero" fill-opacity="1" /><path clip-path="url(#clip990)" d="M2288.03 1399.27 L2288.03 1407.55 L2297.9 1407.55 L2297.9 1411.28 L2288.03 1411.28 L2288.03 1427.11 Q2288.03 1430.68 2289 1431.7 Q2289.99 1432.71 2292.98 1432.71 L2297.9 1432.71 L2297.9 1436.72 L2292.98 1436.72 Q2287.43 1436.72 2285.32 1434.66 Q2283.22 1432.58 2283.22 1427.11 L2283.22 1411.28 L2279.7 1411.28 L2279.7 1407.55 L2283.22 1407.55 L2283.22 1399.27 L2288.03 1399.27 Z" fill="#000000" fill-rule="nonzero" fill-opacity="1" /><path clip-path="url(#clip990)" d="M2329.15 1420.94 L2329.15 1423.28 L2307.12 1423.28 Q2307.43 1428.23 2310.09 1430.84 Q2312.77 1433.41 2317.54 1433.41 Q2320.3 1433.41 2322.88 1432.74 Q2325.48 1432.06 2328.03 1430.71 L2328.03 1435.24 Q2325.45 1436.33 2322.75 1436.9 Q2320.04 1437.48 2317.25 1437.48 Q2310.27 1437.48 2306.18 1433.41 Q2302.12 1429.35 2302.12 1422.42 Q2302.12 1415.26 2305.98 1411.07 Q2309.86 1406.85 2316.42 1406.85 Q2322.3 1406.85 2325.71 1410.65 Q2329.15 1414.43 2329.15 1420.94 M2324.36 1419.53 Q2324.31 1415.6 2322.15 1413.26 Q2320.01 1410.91 2316.47 1410.91 Q2312.46 1410.91 2310.04 1413.18 Q2307.64 1415.45 2307.28 1419.56 L2324.36 1419.53 Z" fill="#000000" fill-rule="nonzero" fill-opacity="1" /><path clip-path="url(#clip990)" d="M2353.92 1412.03 Q2353.11 1411.56 2352.15 1411.36 Q2351.21 1411.12 2350.06 1411.12 Q2346 1411.12 2343.81 1413.78 Q2341.65 1416.41 2341.65 1421.36 L2341.65 1436.72 L2336.83 1436.72 L2336.83 1407.55 L2341.65 1407.55 L2341.65 1412.09 Q2343.16 1409.43 2345.58 1408.15 Q2348.01 1406.85 2351.47 1406.85 Q2351.96 1406.85 2352.56 1406.93 Q2353.16 1406.98 2353.89 1407.11 L2353.92 1412.03 Z" fill="#000000" fill-rule="nonzero" fill-opacity="1" /><path clip-path="url(#clip990)" d="M2372.2 1422.06 Q2366.39 1422.06 2364.15 1423.39 Q2361.91 1424.72 2361.91 1427.92 Q2361.91 1430.47 2363.58 1431.98 Q2365.27 1433.47 2368.16 1433.47 Q2372.15 1433.47 2374.54 1430.65 Q2376.96 1427.81 2376.96 1423.13 L2376.96 1422.06 L2372.2 1422.06 M2381.76 1420.08 L2381.76 1436.72 L2376.96 1436.72 L2376.96 1432.29 Q2375.32 1434.95 2372.88 1436.23 Q2370.43 1437.48 2366.89 1437.48 Q2362.41 1437.48 2359.75 1434.98 Q2357.12 1432.45 2357.12 1428.23 Q2357.12 1423.31 2360.4 1420.81 Q2363.71 1418.31 2370.25 1418.31 L2376.96 1418.31 L2376.96 1417.84 Q2376.96 1414.53 2374.78 1412.74 Q2372.62 1410.91 2368.68 1410.91 Q2366.18 1410.91 2363.81 1411.51 Q2361.44 1412.11 2359.26 1413.31 L2359.26 1408.88 Q2361.89 1407.87 2364.36 1407.37 Q2366.83 1406.85 2369.18 1406.85 Q2375.51 1406.85 2378.63 1410.13 Q2381.76 1413.41 2381.76 1420.08 Z" fill="#000000" fill-rule="nonzero" fill-opacity="1" /><path clip-path="url(#clip990)" d="M2396.37 1399.27 L2396.37 1407.55 L2406.24 1407.55 L2406.24 1411.28 L2396.37 1411.28 L2396.37 1427.11 Q2396.37 1430.68 2397.33 1431.7 Q2398.32 1432.71 2401.31 1432.71 L2406.24 1432.71 L2406.24 1436.72 L2401.31 1436.72 Q2395.77 1436.72 2393.66 1434.66 Q2391.55 1432.58 2391.55 1427.11 L2391.55 1411.28 L2388.03 1411.28 L2388.03 1407.55 L2391.55 1407.55 L2391.55 1399.27 L2396.37 1399.27 Z" fill="#000000" fill-rule="nonzero" fill-opacity="1" /><path clip-path="url(#clip990)" d="M2412.54 1407.55 L2417.33 1407.55 L2417.33 1436.72 L2412.54 1436.72 L2412.54 1407.55 M2412.54 1396.2 L2417.33 1396.2 L2417.33 1402.27 L2412.54 1402.27 L2412.54 1396.2 Z" fill="#000000" fill-rule="nonzero" fill-opacity="1" /><path clip-path="url(#clip990)" d="M2438.66 1410.91 Q2434.8 1410.91 2432.56 1413.93 Q2430.32 1416.93 2430.32 1422.16 Q2430.32 1427.4 2432.54 1430.42 Q2434.78 1433.41 2438.66 1433.41 Q2442.49 1433.41 2444.72 1430.39 Q2446.96 1427.37 2446.96 1422.16 Q2446.96 1416.98 2444.72 1413.96 Q2442.49 1410.91 2438.66 1410.91 M2438.66 1406.85 Q2444.91 1406.85 2448.47 1410.91 Q2452.04 1414.98 2452.04 1422.16 Q2452.04 1429.33 2448.47 1433.41 Q2444.91 1437.48 2438.66 1437.48 Q2432.38 1437.48 2428.81 1433.41 Q2425.27 1429.33 2425.27 1422.16 Q2425.27 1414.98 2428.81 1410.91 Q2432.38 1406.85 2438.66 1406.85 Z" fill="#000000" fill-rule="nonzero" fill-opacity="1" /><path clip-path="url(#clip990)" d="M2484.23 1419.12 L2484.23 1436.72 L2479.44 1436.72 L2479.44 1419.27 Q2479.44 1415.13 2477.82 1413.08 Q2476.21 1411.02 2472.98 1411.02 Q2469.1 1411.02 2466.86 1413.49 Q2464.62 1415.97 2464.62 1420.24 L2464.62 1436.72 L2459.8 1436.72 L2459.8 1407.55 L2464.62 1407.55 L2464.62 1412.09 Q2466.34 1409.46 2468.66 1408.15 Q2471 1406.85 2474.05 1406.85 Q2479.07 1406.85 2481.65 1409.98 Q2484.23 1413.08 2484.23 1419.12 Z" fill="#000000" fill-rule="nonzero" fill-opacity="1" /><path clip-path="url(#clip990)" d="M2512.38 1408.41 L2512.38 1412.95 Q2510.35 1411.9 2508.16 1411.38 Q2505.97 1410.86 2503.63 1410.86 Q2500.06 1410.86 2498.27 1411.96 Q2496.5 1413.05 2496.5 1415.24 Q2496.5 1416.9 2497.77 1417.87 Q2499.05 1418.8 2502.9 1419.66 L2504.54 1420.03 Q2509.65 1421.12 2511.78 1423.13 Q2513.94 1425.11 2513.94 1428.67 Q2513.94 1432.74 2510.71 1435.11 Q2507.51 1437.48 2501.89 1437.48 Q2499.54 1437.48 2496.99 1437.01 Q2494.46 1436.56 2491.65 1435.65 L2491.65 1430.71 Q2494.31 1432.09 2496.89 1432.79 Q2499.46 1433.47 2501.99 1433.47 Q2505.38 1433.47 2507.2 1432.32 Q2509.02 1431.15 2509.02 1429.04 Q2509.02 1427.09 2507.69 1426.04 Q2506.39 1425 2501.94 1424.04 L2500.27 1423.65 Q2495.82 1422.71 2493.84 1420.78 Q2491.86 1418.83 2491.86 1415.45 Q2491.86 1411.33 2494.78 1409.09 Q2497.69 1406.85 2503.06 1406.85 Q2505.71 1406.85 2508.06 1407.24 Q2510.4 1407.63 2512.38 1408.41 Z" fill="#000000" fill-rule="nonzero" fill-opacity="1" /><polyline clip-path="url(#clip990)" style="stroke:#000000; stroke-linecap:round; stroke-linejoin:round; stroke-width:4; stroke-opacity:1; fill:none" points="228.96,1275.71 228.96,90.6026 "/>
<polyline clip-path="url(#clip990)" style="stroke:#000000; stroke-linecap:round; stroke-linejoin:round; stroke-width:4; stroke-opacity:1; fill:none" points="228.96,1246.01 247.857,1246.01 "/>
<polyline clip-path="url(#clip990)" style="stroke:#000000; stroke-linecap:round; stroke-linejoin:round; stroke-width:4; stroke-opacity:1; fill:none" points="228.96,965.268 247.857,965.268 "/>
<polyline clip-path="url(#clip990)" style="stroke:#000000; stroke-linecap:round; stroke-linejoin:round; stroke-width:4; stroke-opacity:1; fill:none" points="228.96,684.524 247.857,684.524 "/>
<polyline clip-path="url(#clip990)" style="stroke:#000000; stroke-linecap:round; stroke-linejoin:round; stroke-width:4; stroke-opacity:1; fill:none" points="228.96,403.78 247.857,403.78 "/>
<polyline clip-path="url(#clip990)" style="stroke:#000000; stroke-linecap:round; stroke-linejoin:round; stroke-width:4; stroke-opacity:1; fill:none" points="228.96,123.037 247.857,123.037 "/>
<path clip-path="url(#clip990)" d="M39.9921 1246.41 L65.9584 1246.41 L65.9584 1249.85 L39.9921 1249.85 L39.9921 1246.41 Z" fill="#000000" fill-rule="nonzero" fill-opacity="1" /><path clip-path="url(#clip990)" d="M75.4983 1257.69 L82.1823 1257.69 L82.1823 1234.62 L74.9109 1236.08 L74.9109 1232.35 L82.1418 1230.89 L86.2332 1230.89 L86.2332 1257.69 L92.9172 1257.69 L92.9172 1261.13 L75.4983 1261.13 L75.4983 1257.69 Z" fill="#000000" fill-rule="nonzero" fill-opacity="1" /><path clip-path="url(#clip990)" d="M101.181 1255.99 L105.455 1255.99 L105.455 1261.13 L101.181 1261.13 L101.181 1255.99 Z" fill="#000000" fill-rule="nonzero" fill-opacity="1" /><path clip-path="url(#clip990)" d="M123.117 1233.59 Q119.957 1233.59 118.357 1236.71 Q116.777 1239.8 116.777 1246.04 Q116.777 1252.26 118.357 1255.38 Q119.957 1258.48 123.117 1258.48 Q126.297 1258.48 127.876 1255.38 Q129.477 1252.26 129.477 1246.04 Q129.477 1239.8 127.876 1236.71 Q126.297 1233.59 123.117 1233.59 M123.117 1230.35 Q128.201 1230.35 130.874 1234.38 Q133.568 1238.39 133.568 1246.04 Q133.568 1253.68 130.874 1257.71 Q128.201 1261.72 123.117 1261.72 Q118.033 1261.72 115.339 1257.71 Q112.665 1253.68 112.665 1246.04 Q112.665 1238.39 115.339 1234.38 Q118.033 1230.35 123.117 1230.35 Z" fill="#000000" fill-rule="nonzero" fill-opacity="1" /><path clip-path="url(#clip990)" d="M149.508 1233.59 Q146.349 1233.59 144.749 1236.71 Q143.169 1239.8 143.169 1246.04 Q143.169 1252.26 144.749 1255.38 Q146.349 1258.48 149.508 1258.48 Q152.688 1258.48 154.268 1255.38 Q155.868 1252.26 155.868 1246.04 Q155.868 1239.8 154.268 1236.71 Q152.688 1233.59 149.508 1233.59 M149.508 1230.35 Q154.592 1230.35 157.266 1234.38 Q159.96 1238.39 159.96 1246.04 Q159.96 1253.68 157.266 1257.71 Q154.592 1261.72 149.508 1261.72 Q144.424 1261.72 141.731 1257.71 Q139.057 1253.68 139.057 1246.04 Q139.057 1238.39 141.731 1234.38 Q144.424 1230.35 149.508 1230.35 Z" fill="#000000" fill-rule="nonzero" fill-opacity="1" /><path clip-path="url(#clip990)" d="M40.8631 965.663 L66.8294 965.663 L66.8294 969.106 L40.8631 969.106 L40.8631 965.663 Z" fill="#000000" fill-rule="nonzero" fill-opacity="1" /><path clip-path="url(#clip990)" d="M84.4103 952.842 Q81.2506 952.842 79.6505 955.961 Q78.0706 959.06 78.0706 965.299 Q78.0706 971.517 79.6505 974.636 Q81.2506 977.735 84.4103 977.735 Q87.5903 977.735 89.1701 974.636 Q90.7702 971.517 90.7702 965.299 Q90.7702 959.06 89.1701 955.961 Q87.5903 952.842 84.4103 952.842 M84.4103 949.601 Q89.4942 949.601 92.1678 953.632 Q94.8616 957.642 94.8616 965.299 Q94.8616 972.935 92.1678 976.965 Q89.4942 980.976 84.4103 980.976 Q79.3264 980.976 76.6326 976.965 Q73.959 972.935 73.959 965.299 Q73.959 957.642 76.6326 953.632 Q79.3264 949.601 84.4103 949.601 Z" fill="#000000" fill-rule="nonzero" fill-opacity="1" /><path clip-path="url(#clip990)" d="M102.052 975.244 L106.326 975.244 L106.326 980.388 L102.052 980.388 L102.052 975.244 Z" fill="#000000" fill-rule="nonzero" fill-opacity="1" /><path clip-path="url(#clip990)" d="M114.205 950.148 L133.649 950.148 L133.649 951.89 L122.671 980.388 L118.397 980.388 L128.727 953.592 L114.205 953.592 L114.205 950.148 Z" fill="#000000" fill-rule="nonzero" fill-opacity="1" /><path clip-path="url(#clip990)" d="M141.67 950.148 L157.732 950.148 L157.732 953.592 L145.417 953.592 L145.417 961.005 Q146.308 960.701 147.199 960.559 Q148.091 960.397 148.982 960.397 Q154.045 960.397 157.002 963.172 Q159.96 965.947 159.96 970.686 Q159.96 975.568 156.921 978.282 Q153.883 980.976 148.354 980.976 Q146.45 980.976 144.465 980.652 Q142.5 980.327 140.394 979.679 L140.394 975.568 Q142.217 976.56 144.161 977.046 Q146.106 977.532 148.273 977.532 Q151.777 977.532 153.823 975.689 Q155.868 973.846 155.868 970.686 Q155.868 967.527 153.823 965.683 Q151.777 963.84 148.273 963.84 Q146.632 963.84 144.992 964.205 Q143.371 964.569 141.67 965.339 L141.67 950.148 Z" fill="#000000" fill-rule="nonzero" fill-opacity="1" /><path clip-path="url(#clip990)" d="M39.9921 684.919 L65.9584 684.919 L65.9584 688.363 L39.9921 688.363 L39.9921 684.919 Z" fill="#000000" fill-rule="nonzero" fill-opacity="1" /><path clip-path="url(#clip990)" d="M83.5393 672.098 Q80.3796 672.098 78.7795 675.217 Q77.1997 678.316 77.1997 684.555 Q77.1997 690.773 78.7795 693.892 Q80.3796 696.991 83.5393 696.991 Q86.7193 696.991 88.2992 693.892 Q89.8993 690.773 89.8993 684.555 Q89.8993 678.316 88.2992 675.217 Q86.7193 672.098 83.5393 672.098 M83.5393 668.857 Q88.6232 668.857 91.2968 672.888 Q93.9907 676.899 93.9907 684.555 Q93.9907 692.191 91.2968 696.221 Q88.6232 700.232 83.5393 700.232 Q78.4555 700.232 75.7616 696.221 Q73.088 692.191 73.088 684.555 Q73.088 676.899 75.7616 672.888 Q78.4555 668.857 83.5393 668.857 Z" fill="#000000" fill-rule="nonzero" fill-opacity="1" /><path clip-path="url(#clip990)" d="M101.181 694.5 L105.455 694.5 L105.455 699.644 L101.181 699.644 L101.181 694.5 Z" fill="#000000" fill-rule="nonzero" fill-opacity="1" /><path clip-path="url(#clip990)" d="M114.407 669.404 L130.469 669.404 L130.469 672.848 L118.154 672.848 L118.154 680.261 Q119.046 679.957 119.937 679.815 Q120.828 679.653 121.719 679.653 Q126.783 679.653 129.74 682.428 Q132.697 685.203 132.697 689.942 Q132.697 694.824 129.659 697.538 Q126.621 700.232 121.091 700.232 Q119.187 700.232 117.202 699.908 Q115.238 699.584 113.131 698.935 L113.131 694.824 Q114.954 695.816 116.899 696.302 Q118.843 696.788 121.01 696.788 Q124.514 696.788 126.56 694.945 Q128.606 693.102 128.606 689.942 Q128.606 686.783 126.56 684.94 Q124.514 683.096 121.01 683.096 Q119.37 683.096 117.729 683.461 Q116.109 683.826 114.407 684.595 L114.407 669.404 Z" fill="#000000" fill-rule="nonzero" fill-opacity="1" /><path clip-path="url(#clip990)" d="M149.508 672.098 Q146.349 672.098 144.749 675.217 Q143.169 678.316 143.169 684.555 Q143.169 690.773 144.749 693.892 Q146.349 696.991 149.508 696.991 Q152.688 696.991 154.268 693.892 Q155.868 690.773 155.868 684.555 Q155.868 678.316 154.268 675.217 Q152.688 672.098 149.508 672.098 M149.508 668.857 Q154.592 668.857 157.266 672.888 Q159.96 676.899 159.96 684.555 Q159.96 692.191 157.266 696.221 Q154.592 700.232 149.508 700.232 Q144.424 700.232 141.731 696.221 Q139.057 692.191 139.057 684.555 Q139.057 676.899 141.731 672.888 Q144.424 668.857 149.508 668.857 Z" fill="#000000" fill-rule="nonzero" fill-opacity="1" /><path clip-path="url(#clip990)" d="M40.8631 404.175 L66.8294 404.175 L66.8294 407.619 L40.8631 407.619 L40.8631 404.175 Z" fill="#000000" fill-rule="nonzero" fill-opacity="1" /><path clip-path="url(#clip990)" d="M84.4103 391.354 Q81.2506 391.354 79.6505 394.473 Q78.0706 397.572 78.0706 403.811 Q78.0706 410.029 79.6505 413.148 Q81.2506 416.247 84.4103 416.247 Q87.5903 416.247 89.1701 413.148 Q90.7702 410.029 90.7702 403.811 Q90.7702 397.572 89.1701 394.473 Q87.5903 391.354 84.4103 391.354 M84.4103 388.114 Q89.4942 388.114 92.1678 392.144 Q94.8616 396.155 94.8616 403.811 Q94.8616 411.447 92.1678 415.477 Q89.4942 419.488 84.4103 419.488 Q79.3264 419.488 76.6326 415.477 Q73.959 411.447 73.959 403.811 Q73.959 396.155 76.6326 392.144 Q79.3264 388.114 84.4103 388.114 Z" fill="#000000" fill-rule="nonzero" fill-opacity="1" /><path clip-path="url(#clip990)" d="M102.052 413.756 L106.326 413.756 L106.326 418.9 L102.052 418.9 L102.052 413.756 Z" fill="#000000" fill-rule="nonzero" fill-opacity="1" /><path clip-path="url(#clip990)" d="M118.762 415.457 L133.041 415.457 L133.041 418.9 L113.84 418.9 L113.84 415.457 Q116.169 413.047 120.18 408.996 Q124.21 404.925 125.243 403.75 Q127.208 401.542 127.978 400.023 Q128.768 398.484 128.768 397.005 Q128.768 394.595 127.066 393.076 Q125.385 391.557 122.671 391.557 Q120.747 391.557 118.6 392.225 Q116.473 392.894 114.043 394.251 L114.043 390.119 Q116.514 389.126 118.661 388.62 Q120.808 388.114 122.59 388.114 Q127.289 388.114 130.084 390.463 Q132.879 392.813 132.879 396.742 Q132.879 398.605 132.17 400.287 Q131.482 401.947 129.639 404.216 Q129.132 404.803 126.418 407.619 Q123.704 410.414 118.762 415.457 Z" fill="#000000" fill-rule="nonzero" fill-opacity="1" /><path clip-path="url(#clip990)" d="M141.67 388.66 L157.732 388.66 L157.732 392.104 L145.417 392.104 L145.417 399.517 Q146.308 399.213 147.199 399.071 Q148.091 398.909 148.982 398.909 Q154.045 398.909 157.002 401.684 Q159.96 404.459 159.96 409.199 Q159.96 414.08 156.921 416.794 Q153.883 419.488 148.354 419.488 Q146.45 419.488 144.465 419.164 Q142.5 418.84 140.394 418.192 L140.394 414.08 Q142.217 415.072 144.161 415.558 Q146.106 416.045 148.273 416.045 Q151.777 416.045 153.823 414.201 Q155.868 412.358 155.868 409.199 Q155.868 406.039 153.823 404.196 Q151.777 402.352 148.273 402.352 Q146.632 402.352 144.992 402.717 Q143.371 403.082 141.67 403.851 L141.67 388.66 Z" fill="#000000" fill-rule="nonzero" fill-opacity="1" /><path clip-path="url(#clip990)" d="M83.5393 110.61 Q80.3796 110.61 78.7795 113.73 Q77.1997 116.829 77.1997 123.067 Q77.1997 129.285 78.7795 132.404 Q80.3796 135.503 83.5393 135.503 Q86.7193 135.503 88.2992 132.404 Q89.8993 129.285 89.8993 123.067 Q89.8993 116.829 88.2992 113.73 Q86.7193 110.61 83.5393 110.61 M83.5393 107.37 Q88.6232 107.37 91.2968 111.4 Q93.9907 115.411 93.9907 123.067 Q93.9907 130.703 91.2968 134.734 Q88.6232 138.744 83.5393 138.744 Q78.4555 138.744 75.7616 134.734 Q73.088 130.703 73.088 123.067 Q73.088 115.411 75.7616 111.4 Q78.4555 107.37 83.5393 107.37 Z" fill="#000000" fill-rule="nonzero" fill-opacity="1" /><path clip-path="url(#clip990)" d="M101.181 133.012 L105.455 133.012 L105.455 138.157 L101.181 138.157 L101.181 133.012 Z" fill="#000000" fill-rule="nonzero" fill-opacity="1" /><path clip-path="url(#clip990)" d="M123.117 110.61 Q119.957 110.61 118.357 113.73 Q116.777 116.829 116.777 123.067 Q116.777 129.285 118.357 132.404 Q119.957 135.503 123.117 135.503 Q126.297 135.503 127.876 132.404 Q129.477 129.285 129.477 123.067 Q129.477 116.829 127.876 113.73 Q126.297 110.61 123.117 110.61 M123.117 107.37 Q128.201 107.37 130.874 111.4 Q133.568 115.411 133.568 123.067 Q133.568 130.703 130.874 134.734 Q128.201 138.744 123.117 138.744 Q118.033 138.744 115.339 134.734 Q112.665 130.703 112.665 123.067 Q112.665 115.411 115.339 111.4 Q118.033 107.37 123.117 107.37 Z" fill="#000000" fill-rule="nonzero" fill-opacity="1" /><path clip-path="url(#clip990)" d="M149.508 110.61 Q146.349 110.61 144.749 113.73 Q143.169 116.829 143.169 123.067 Q143.169 129.285 144.749 132.404 Q146.349 135.503 149.508 135.503 Q152.688 135.503 154.268 132.404 Q155.868 129.285 155.868 123.067 Q155.868 116.829 154.268 113.73 Q152.688 110.61 149.508 110.61 M149.508 107.37 Q154.592 107.37 157.266 111.4 Q159.96 115.411 159.96 123.067 Q159.96 130.703 157.266 134.734 Q154.592 138.744 149.508 138.744 Q144.424 138.744 141.731 134.734 Q139.057 130.703 139.057 123.067 Q139.057 115.411 141.731 111.4 Q144.424 107.37 149.508 107.37 Z" fill="#000000" fill-rule="nonzero" fill-opacity="1" /><path clip-path="url(#clip990)" d="M2055.3 16.7545 L2055.3 25.383 Q2051.17 21.5346 2046.47 19.6307 Q2041.81 17.7268 2036.55 17.7268 Q2026.18 17.7268 2020.67 24.0867 Q2015.16 30.4061 2015.16 42.3968 Q2015.16 54.3469 2020.67 60.7069 Q2026.18 67.0263 2036.55 67.0263 Q2041.81 67.0263 2046.47 65.1223 Q2051.17 63.2184 2055.3 59.3701 L2055.3 67.9175 Q2051.01 70.8341 2046.19 72.2924 Q2041.41 73.7508 2036.06 73.7508 Q2022.33 73.7508 2014.43 65.3654 Q2006.53 56.9395 2006.53 42.3968 Q2006.53 27.8135 2014.43 19.4281 Q2022.33 11.0023 2036.06 11.0023 Q2041.49 11.0023 2046.27 12.4606 Q2051.09 13.8784 2055.3 16.7545 Z" fill="#000000" fill-rule="nonzero" fill-opacity="1" /><path clip-path="url(#clip990)" d="M2085.2 32.4315 Q2079.2 32.4315 2075.72 37.1306 Q2072.23 41.7891 2072.23 49.9314 Q2072.23 58.0738 2075.68 62.7728 Q2079.16 67.4314 2085.2 67.4314 Q2091.15 67.4314 2094.64 62.7323 Q2098.12 58.0333 2098.12 49.9314 Q2098.12 41.8701 2094.64 37.1711 Q2091.15 32.4315 2085.2 32.4315 M2085.2 26.1121 Q2094.92 26.1121 2100.47 32.4315 Q2106.02 38.7509 2106.02 49.9314 Q2106.02 61.0714 2100.47 67.4314 Q2094.92 73.7508 2085.2 73.7508 Q2075.43 73.7508 2069.88 67.4314 Q2064.38 61.0714 2064.38 49.9314 Q2064.38 38.7509 2069.88 32.4315 Q2075.43 26.1121 2085.2 26.1121 Z" fill="#000000" fill-rule="nonzero" fill-opacity="1" /><path clip-path="url(#clip990)" d="M2156.09 45.1919 L2156.09 72.576 L2148.63 72.576 L2148.63 45.4349 Q2148.63 38.994 2146.12 35.7938 Q2143.61 32.5936 2138.59 32.5936 Q2132.55 32.5936 2129.07 36.4419 Q2125.58 40.2903 2125.58 46.9338 L2125.58 72.576 L2118.09 72.576 L2118.09 27.2059 L2125.58 27.2059 L2125.58 34.2544 Q2128.26 30.163 2131.86 28.1376 Q2135.51 26.1121 2140.25 26.1121 Q2148.07 26.1121 2152.08 30.9732 Q2156.09 35.7938 2156.09 45.1919 Z" fill="#000000" fill-rule="nonzero" fill-opacity="1" /><path clip-path="url(#clip990)" d="M2165.61 27.2059 L2173.51 27.2059 L2187.68 65.2844 L2201.86 27.2059 L2209.76 27.2059 L2192.75 72.576 L2182.62 72.576 L2165.61 27.2059 Z" fill="#000000" fill-rule="nonzero" fill-opacity="1" /><path clip-path="url(#clip990)" d="M2258.86 48.0275 L2258.86 51.6733 L2224.59 51.6733 Q2225.07 59.3701 2229.21 63.421 Q2233.38 67.4314 2240.79 67.4314 Q2245.09 67.4314 2249.1 66.3781 Q2253.15 65.3249 2257.12 63.2184 L2257.12 70.267 Q2253.11 71.9684 2248.89 72.8596 Q2244.68 73.7508 2240.35 73.7508 Q2229.49 73.7508 2223.13 67.4314 Q2216.81 61.1119 2216.81 50.3365 Q2216.81 39.1965 2222.81 32.6746 Q2228.84 26.1121 2239.05 26.1121 Q2248.21 26.1121 2253.51 32.0264 Q2258.86 37.9003 2258.86 48.0275 M2251.41 45.84 Q2251.32 39.7232 2247.96 36.0774 Q2244.64 32.4315 2239.13 32.4315 Q2232.89 32.4315 2229.13 35.9558 Q2225.4 39.4801 2224.83 45.8805 L2251.41 45.84 Z" fill="#000000" fill-rule="nonzero" fill-opacity="1" /><path clip-path="url(#clip990)" d="M2297.38 34.1734 Q2296.13 33.4443 2294.63 33.1202 Q2293.17 32.7556 2291.39 32.7556 Q2285.07 32.7556 2281.67 36.8875 Q2278.3 40.9789 2278.3 48.6757 L2278.3 72.576 L2270.81 72.576 L2270.81 27.2059 L2278.3 27.2059 L2278.3 34.2544 Q2280.65 30.1225 2284.42 28.1376 Q2288.19 26.1121 2293.58 26.1121 Q2294.34 26.1121 2295.28 26.2337 Q2296.21 26.3147 2297.34 26.5172 L2297.38 34.1734 Z" fill="#000000" fill-rule="nonzero" fill-opacity="1" /><path clip-path="url(#clip990)" d="M2333.6 49.3643 Q2333.6 41.2625 2330.24 36.8065 Q2326.91 32.3505 2320.88 32.3505 Q2314.88 32.3505 2311.52 36.8065 Q2308.2 41.2625 2308.2 49.3643 Q2308.2 57.4256 2311.52 61.8816 Q2314.88 66.3376 2320.88 66.3376 Q2326.91 66.3376 2330.24 61.8816 Q2333.6 57.4256 2333.6 49.3643 M2341.05 66.9452 Q2341.05 78.5308 2335.91 84.1616 Q2330.76 89.8329 2320.15 89.8329 Q2316.22 89.8329 2312.74 89.2252 Q2309.25 88.6581 2305.97 87.4428 L2305.97 80.1917 Q2309.25 81.9741 2312.45 82.8248 Q2315.65 83.6755 2318.97 83.6755 Q2326.31 83.6755 2329.95 79.8271 Q2333.6 76.0193 2333.6 68.282 L2333.6 64.5957 Q2331.29 68.6061 2327.68 70.5911 Q2324.08 72.576 2319.06 72.576 Q2310.71 72.576 2305.61 66.2161 Q2300.5 59.8562 2300.5 49.3643 Q2300.5 38.832 2305.61 32.472 Q2310.71 26.1121 2319.06 26.1121 Q2324.08 26.1121 2327.68 28.0971 Q2331.29 30.082 2333.6 34.0924 L2333.6 27.2059 L2341.05 27.2059 L2341.05 66.9452 Z" fill="#000000" fill-rule="nonzero" fill-opacity="1" /><path clip-path="url(#clip990)" d="M2395.21 48.0275 L2395.21 51.6733 L2360.94 51.6733 Q2361.43 59.3701 2365.56 63.421 Q2369.73 67.4314 2377.15 67.4314 Q2381.44 67.4314 2385.45 66.3781 Q2389.5 65.3249 2393.47 63.2184 L2393.47 70.267 Q2389.46 71.9684 2385.25 72.8596 Q2381.03 73.7508 2376.7 73.7508 Q2365.84 73.7508 2359.48 67.4314 Q2353.16 61.1119 2353.16 50.3365 Q2353.16 39.1965 2359.16 32.6746 Q2365.2 26.1121 2375.4 26.1121 Q2384.56 26.1121 2389.87 32.0264 Q2395.21 37.9003 2395.21 48.0275 M2387.76 45.84 Q2387.68 39.7232 2384.32 36.0774 Q2380.99 32.4315 2375.48 32.4315 Q2369.25 32.4315 2365.48 35.9558 Q2361.75 39.4801 2361.18 45.8805 L2387.76 45.84 Z" fill="#000000" fill-rule="nonzero" fill-opacity="1" /><path clip-path="url(#clip990)" d="M2445.16 45.1919 L2445.16 72.576 L2437.71 72.576 L2437.71 45.4349 Q2437.71 38.994 2435.19 35.7938 Q2432.68 32.5936 2427.66 32.5936 Q2421.62 32.5936 2418.14 36.4419 Q2414.66 40.2903 2414.66 46.9338 L2414.66 72.576 L2407.16 72.576 L2407.16 27.2059 L2414.66 27.2059 L2414.66 34.2544 Q2417.33 30.163 2420.94 28.1376 Q2424.58 26.1121 2429.32 26.1121 Q2437.14 26.1121 2441.15 30.9732 Q2445.16 35.7938 2445.16 45.1919 Z" fill="#000000" fill-rule="nonzero" fill-opacity="1" /><path clip-path="url(#clip990)" d="M2492.68 28.9478 L2492.68 35.9153 Q2489.52 34.1734 2486.32 33.3227 Q2483.16 32.4315 2479.92 32.4315 Q2472.67 32.4315 2468.66 37.0496 Q2464.65 41.6271 2464.65 49.9314 Q2464.65 58.2358 2468.66 62.8538 Q2472.67 67.4314 2479.92 67.4314 Q2483.16 67.4314 2486.32 66.5807 Q2489.52 65.6895 2492.68 63.9476 L2492.68 70.8341 Q2489.56 72.2924 2486.2 73.0216 Q2482.87 73.7508 2479.11 73.7508 Q2468.86 73.7508 2462.82 67.3098 Q2456.79 60.8689 2456.79 49.9314 Q2456.79 38.832 2462.86 32.472 Q2468.98 26.1121 2479.59 26.1121 Q2483.04 26.1121 2486.32 26.8413 Q2489.6 27.5299 2492.68 28.9478 Z" fill="#000000" fill-rule="nonzero" fill-opacity="1" /><path clip-path="url(#clip990)" d="M2544.45 48.0275 L2544.45 51.6733 L2510.18 51.6733 Q2510.66 59.3701 2514.8 63.421 Q2518.97 67.4314 2526.38 67.4314 Q2530.67 67.4314 2534.69 66.3781 Q2538.74 65.3249 2542.71 63.2184 L2542.71 70.267 Q2538.7 71.9684 2534.48 72.8596 Q2530.27 73.7508 2525.94 73.7508 Q2515.08 73.7508 2508.72 67.4314 Q2502.4 61.1119 2502.4 50.3365 Q2502.4 39.1965 2508.39 32.6746 Q2514.43 26.1121 2524.64 26.1121 Q2533.79 26.1121 2539.1 32.0264 Q2544.45 37.9003 2544.45 48.0275 M2536.99 45.84 Q2536.91 39.7232 2533.55 36.0774 Q2530.23 32.4315 2524.72 32.4315 Q2518.48 32.4315 2514.71 35.9558 Q2510.99 39.4801 2510.42 45.8805 L2536.99 45.84 Z" fill="#000000" fill-rule="nonzero" fill-opacity="1" /><path clip-path="url(#clip990)" d="M2600.63 32.4315 Q2594.64 32.4315 2591.15 37.1306 Q2587.67 41.7891 2587.67 49.9314 Q2587.67 58.0738 2591.11 62.7728 Q2594.6 67.4314 2600.63 67.4314 Q2606.59 67.4314 2610.07 62.7323 Q2613.56 58.0333 2613.56 49.9314 Q2613.56 41.8701 2610.07 37.1711 Q2606.59 32.4315 2600.63 32.4315 M2600.63 26.1121 Q2610.36 26.1121 2615.91 32.4315 Q2621.46 38.7509 2621.46 49.9314 Q2621.46 61.0714 2615.91 67.4314 Q2610.36 73.7508 2600.63 73.7508 Q2590.87 73.7508 2585.32 67.4314 Q2579.81 61.0714 2579.81 49.9314 Q2579.81 38.7509 2585.32 32.4315 Q2590.87 26.1121 2600.63 26.1121 Z" fill="#000000" fill-rule="nonzero" fill-opacity="1" /><path clip-path="url(#clip990)" d="M2656.78 9.54393 L2656.78 15.7418 L2649.65 15.7418 Q2645.64 15.7418 2644.06 17.3622 Q2642.52 18.9825 2642.52 23.1955 L2642.52 27.2059 L2654.79 27.2059 L2654.79 32.9987 L2642.52 32.9987 L2642.52 72.576 L2635.03 72.576 L2635.03 32.9987 L2627.9 32.9987 L2627.9 27.2059 L2635.03 27.2059 L2635.03 24.0462 Q2635.03 16.471 2638.55 13.0277 Q2642.07 9.54393 2649.73 9.54393 L2656.78 9.54393 Z" fill="#000000" fill-rule="nonzero" fill-opacity="1" /><path clip-path="url(#clip990)" d="M2699.27 73.7508 Q2693.56 73.7508 2689.83 70.3075 Q2685.42 66.2161 2685.42 58.8029 Q2685.42 51.1062 2689.31 45.1109 Q2693.32 38.9535 2700.53 38.9535 Q2705.27 38.9535 2709 41.9107 Q2711.18 43.6525 2712.68 46.5692 Q2713.21 43.288 2713.21 39.5611 Q2713.21 34.0924 2711.91 30.9327 Q2709.04 23.9246 2701.42 23.9246 Q2698.54 23.9246 2694.09 25.707 L2694.09 18.9015 Q2698.79 17.6457 2703 17.6457 Q2713.86 17.6457 2718.47 27.611 Q2720.62 32.31 2720.62 39.3181 Q2720.62 43.8956 2719.61 49.2023 Q2717.06 62.4892 2710.45 68.8087 Q2705.27 73.7508 2699.27 73.7508 M2692.35 60.0182 Q2692.35 64.0691 2694.13 66.2566 Q2696.03 68.5656 2698.95 68.5656 Q2701.54 68.5656 2703.61 66.7427 Q2706.52 64.2311 2708.67 60.1397 Q2710.45 56.7775 2711.35 53.1722 Q2707.74 44.4627 2701.5 44.4627 Q2696.15 44.4627 2693.8 51.5113 Q2692.35 55.8863 2692.35 60.0182 Z" fill="#000000" fill-rule="nonzero" fill-opacity="1" /><path clip-path="url(#clip990)" d="M2758.74 51.4708 L2756.96 42.1132 Q2755.14 32.5126 2747.92 32.5126 Q2742.5 32.5126 2740.03 36.9686 Q2736.91 42.5588 2736.91 49.9314 Q2736.91 58.8434 2739.94 63.0969 Q2743.02 67.4314 2747.92 67.4314 Q2753.35 67.4314 2756.27 58.8029 L2758.74 51.4708 M2762.91 39.075 L2766.92 27.2059 L2773.57 27.2059 L2765.26 51.7949 L2766.88 60.6663 Q2767.25 62.6513 2768.67 64.3122 Q2770.33 66.2566 2771.62 66.2566 L2775.19 66.2566 L2775.19 72.576 L2770.73 72.576 Q2766.92 72.576 2763.52 69.1732 Q2761.86 67.4719 2761.17 63.9071 Q2759.31 68.4036 2755.5 71.9279 Q2753.72 73.5887 2747.92 73.5887 Q2738.41 73.5887 2733.79 67.4314 Q2729.05 61.0714 2729.05 49.9314 Q2729.05 38.0218 2734.19 32.4315 Q2739.9 26.1931 2747.92 26.1931 Q2760.52 26.1931 2762.91 39.075 Z" fill="#000000" fill-rule="nonzero" fill-opacity="1" /><polyline clip-path="url(#clip992)" style="stroke:#008000; stroke-linecap:round; stroke-linejoin:round; stroke-width:4; stroke-opacity:1; fill:none" points="351.331,1242.16 368.615,1207.05 385.899,1173.13 403.184,1140.37 420.468,1108.71 437.752,1078.12 455.036,1048.56 472.32,1019.99 489.604,992.361 506.888,965.648 524.172,939.814 541.457,914.828 558.741,890.657 576.025,867.272 593.309,844.645 610.593,822.748 627.877,801.556 645.161,781.042 662.445,761.184 679.73,741.958 697.014,723.342 714.298,705.315 731.582,687.856 748.866,670.947 766.15,654.567 783.434,638.7 800.718,623.328 818.003,608.434 835.287,594.002 852.571,580.016 869.855,566.463 887.139,553.326 904.423,540.594 921.707,528.252 938.991,516.288 956.276,504.689 973.56,493.444 990.844,482.541 1008.13,471.968 1025.41,461.717 1042.7,451.775 1059.98,442.134 1077.26,432.783 1094.55,423.714 1111.83,414.917 1129.12,406.384 1146.4,398.107 1163.69,390.078 1180.97,382.289 1198.25,374.732 1215.54,367.4 1232.82,360.286 1250.11,353.384 1267.39,346.686 1284.67,340.187 1301.96,333.881 1319.24,327.761 1336.53,321.822 1353.81,316.059 1371.09,310.465 1388.38,305.036 1405.66,299.767 1422.95,294.653 1440.23,289.689 1457.52,284.871 1474.8,280.194 1492.08,275.654 1509.37,271.247 1526.65,266.969 1543.94,262.817 1561.22,258.785 1578.5,254.871 1595.79,251.071 1613.07,247.382 1630.36,243.801 1647.64,240.323 1664.92,236.947 1682.21,233.669 1699.49,230.487 1716.78,227.397 1734.06,224.396 1751.35,221.483 1768.63,218.654 1785.91,215.907 1803.2,213.239 1820.48,210.649 1837.77,208.134 1855.05,205.691 1872.33,203.319 1889.62,201.016 1906.9,198.779 1924.19,196.607 1941.47,194.498 1958.75,192.449 1976.04,190.459 1993.32,188.527 2010.61,186.651 2027.89,184.829 2045.18,183.059 2062.46,181.34 2079.74,179.67 2097.03,178.049 2114.31,176.474 2131.6,174.945 2148.88,173.459 2166.16,172.016 2183.45,170.615 2200.73,169.254 2218.02,167.932 2235.3,166.648 2252.58,165.401 2269.87,164.19 2287.15,163.013 2304.44,161.87 2321.72,160.76 2339.01,159.682 2356.29,158.635 2373.57,157.618 2390.86,156.63 2408.14,155.67 2425.43,154.738 2442.71,153.832 2459.99,152.952 2477.28,152.098 2494.56,151.268 2511.85,150.462 2529.13,149.679 2546.41,148.918 2563.7,148.179 2580.98,147.461 2598.27,146.764 2615.55,146.087 2632.84,145.429 2650.12,144.79 2667.4,144.169 2684.69,143.566 2701.97,142.98 2719.26,142.411 2736.54,141.858 2753.82,141.321 2771.11,140.799 2788.39,140.293 2805.68,139.8 2822.96,139.322 2840.24,138.857 2857.53,138.406 2874.81,137.968 2892.1,137.542 2909.38,137.128 2926.67,136.726 2943.95,136.336 2961.23,135.957 2978.52,135.588 2995.8,135.23 3013.09,134.882 3030.37,134.545 3047.65,134.217 3064.94,133.898 3082.22,133.588 3099.51,133.287 3116.79,132.995 3134.08,132.711 3151.36,132.435 3168.64,132.167 3185.93,131.907 3203.21,131.654 3220.5,131.409 3237.78,131.17 3255.06,130.938 3272.35,130.713 3289.63,130.494 3306.92,130.281 3324.2,130.075 3341.48,129.874 3358.77,129.679 3376.05,129.49 3393.34,129.306 3410.62,129.127 3427.91,128.954 3445.19,128.785 3462.47,128.621 3479.76,128.462 3497.04,128.308 3514.33,128.157 3531.61,128.011 3548.89,127.87 3566.18,127.732 3583.46,127.598 3600.75,127.468 3618.03,127.342 3635.31,127.219 3652.6,127.1 3669.88,126.984 3687.17,126.872 3704.45,126.762 3721.74,126.656 3739.02,126.553 3756.3,126.453 3773.59,126.356 3790.87,126.261 3808.16,126.169 3825.44,126.08 3842.72,125.993 3860.01,125.909 3877.29,125.827 3894.58,125.748 3911.86,125.67 3929.14,125.595 3946.43,125.522 3963.71,125.452 3981,125.383 3998.28,125.316 4015.57,125.251 4032.85,125.188 4050.13,125.127 4067.42,125.067 4084.7,125.009 4101.99,124.953 4119.27,124.898 4136.55,124.845 4153.84,124.794 4171.12,124.744 4188.41,124.695 4205.69,124.648 4222.97,124.602 4240.26,124.557 4257.54,124.514 4274.83,124.472 4292.11,124.431 4309.4,124.391 4326.68,124.353 4343.96,124.315 4361.25,124.279 4378.53,124.243 4395.82,124.209 4413.1,124.176 4430.38,124.143 "/>
</svg>
