<?xml version="1.0" encoding="utf-8"?>
<svg xmlns="http://www.w3.org/2000/svg" xmlns:xlink="http://www.w3.org/1999/xlink" width="600" height="400" viewBox="0 0 2400 1600">
<defs>
  <clipPath id="clip470">
    <rect x="0" y="0" width="2400" height="1600"/>
  </clipPath>
</defs>
<path clip-path="url(#clip470)" d="M0 1600 L2400 1600 L2400 0 L0 0  Z" fill="#ffffff" fill-rule="evenodd" fill-opacity="1"/>
<defs>
  <clipPath id="clip471">
    <rect x="480" y="0" width="1681" height="1600"/>
  </clipPath>
</defs>
<path clip-path="url(#clip470)" d="M156.598 1423.18 L2352.76 1423.18 L2352.76 123.472 L156.598 123.472  Z" fill="#ffffff" fill-rule="evenodd" fill-opacity="1"/>
<defs>
  <clipPath id="clip472">
    <rect x="156" y="123" width="2197" height="1301"/>
  </clipPath>
</defs>
<polyline clip-path="url(#clip472)" style="stroke:#000000; stroke-linecap:round; stroke-linejoin:round; stroke-width:2; stroke-opacity:0.1; fill:none" points="209.975,1423.18 209.975,123.472 "/>
<polyline clip-path="url(#clip472)" style="stroke:#000000; stroke-linecap:round; stroke-linejoin:round; stroke-width:2; stroke-opacity:0.1; fill:none" points="648.925,1423.18 648.925,123.472 "/>
<polyline clip-path="url(#clip472)" style="stroke:#000000; stroke-linecap:round; stroke-linejoin:round; stroke-width:2; stroke-opacity:0.1; fill:none" points="1087.88,1423.18 1087.88,123.472 "/>
<polyline clip-path="url(#clip472)" style="stroke:#000000; stroke-linecap:round; stroke-linejoin:round; stroke-width:2; stroke-opacity:0.1; fill:none" points="1526.83,1423.18 1526.83,123.472 "/>
<polyline clip-path="url(#clip472)" style="stroke:#000000; stroke-linecap:round; stroke-linejoin:round; stroke-width:2; stroke-opacity:0.1; fill:none" points="1965.78,1423.18 1965.78,123.472 "/>
<polyline clip-path="url(#clip472)" style="stroke:#000000; stroke-linecap:round; stroke-linejoin:round; stroke-width:2; stroke-opacity:0.1; fill:none" points="156.598,1386.4 2352.76,1386.4 "/>
<polyline clip-path="url(#clip472)" style="stroke:#000000; stroke-linecap:round; stroke-linejoin:round; stroke-width:2; stroke-opacity:0.1; fill:none" points="156.598,1017.82 2352.76,1017.82 "/>
<polyline clip-path="url(#clip472)" style="stroke:#000000; stroke-linecap:round; stroke-linejoin:round; stroke-width:2; stroke-opacity:0.1; fill:none" points="156.598,649.252 2352.76,649.252 "/>
<polyline clip-path="url(#clip472)" style="stroke:#000000; stroke-linecap:round; stroke-linejoin:round; stroke-width:2; stroke-opacity:0.1; fill:none" points="156.598,280.68 2352.76,280.68 "/>
<polyline clip-path="url(#clip470)" style="stroke:#000000; stroke-linecap:round; stroke-linejoin:round; stroke-width:4; stroke-opacity:1; fill:none" points="156.598,1423.18 2352.76,1423.18 "/>
<polyline clip-path="url(#clip470)" style="stroke:#000000; stroke-linecap:round; stroke-linejoin:round; stroke-width:4; stroke-opacity:1; fill:none" points="209.975,1423.18 209.975,1404.28 "/>
<polyline clip-path="url(#clip470)" style="stroke:#000000; stroke-linecap:round; stroke-linejoin:round; stroke-width:4; stroke-opacity:1; fill:none" points="648.925,1423.18 648.925,1404.28 "/>
<polyline clip-path="url(#clip470)" style="stroke:#000000; stroke-linecap:round; stroke-linejoin:round; stroke-width:4; stroke-opacity:1; fill:none" points="1087.88,1423.18 1087.88,1404.28 "/>
<polyline clip-path="url(#clip470)" style="stroke:#000000; stroke-linecap:round; stroke-linejoin:round; stroke-width:4; stroke-opacity:1; fill:none" points="1526.83,1423.18 1526.83,1404.28 "/>
<polyline clip-path="url(#clip470)" style="stroke:#000000; stroke-linecap:round; stroke-linejoin:round; stroke-width:4; stroke-opacity:1; fill:none" points="1965.78,1423.18 1965.78,1404.28 "/>
<path clip-path="url(#clip470)" d="M209.975 1454.1 Q206.364 1454.1 204.535 1457.66 Q202.729 1461.2 202.729 1468.33 Q202.729 1475.44 204.535 1479.01 Q206.364 1482.55 209.975 1482.55 Q213.609 1482.55 215.414 1479.01 Q217.243 1475.44 217.243 1468.33 Q217.243 1461.2 215.414 1457.66 Q213.609 1454.1 209.975 1454.1 M209.975 1450.39 Q215.785 1450.39 218.84 1455 Q221.919 1459.58 221.919 1468.33 Q221.919 1477.06 218.84 1481.67 Q215.785 1486.25 209.975 1486.25 Q204.164 1486.25 201.086 1481.67 Q198.03 1477.06 198.03 1468.33 Q198.03 1459.58 201.086 1455 Q204.164 1450.39 209.975 1450.39 Z" fill="#000000" fill-rule="nonzero" fill-opacity="1" /><path clip-path="url(#clip470)" d="M623.624 1451.02 L641.981 1451.02 L641.981 1454.96 L627.907 1454.96 L627.907 1463.43 Q628.925 1463.08 629.944 1462.92 Q630.962 1462.73 631.981 1462.73 Q637.768 1462.73 641.147 1465.9 Q644.527 1469.08 644.527 1474.49 Q644.527 1480.07 641.055 1483.17 Q637.583 1486.25 631.263 1486.25 Q629.087 1486.25 626.819 1485.88 Q624.574 1485.51 622.166 1484.77 L622.166 1480.07 Q624.249 1481.2 626.472 1481.76 Q628.694 1482.32 631.171 1482.32 Q635.175 1482.32 637.513 1480.21 Q639.851 1478.1 639.851 1474.49 Q639.851 1470.88 637.513 1468.77 Q635.175 1466.67 631.171 1466.67 Q629.296 1466.67 627.421 1467.08 Q625.569 1467.5 623.624 1468.38 L623.624 1451.02 Z" fill="#000000" fill-rule="nonzero" fill-opacity="1" /><path clip-path="url(#clip470)" d="M663.74 1454.1 Q660.129 1454.1 658.3 1457.66 Q656.495 1461.2 656.495 1468.33 Q656.495 1475.44 658.3 1479.01 Q660.129 1482.55 663.74 1482.55 Q667.374 1482.55 669.18 1479.01 Q671.008 1475.44 671.008 1468.33 Q671.008 1461.2 669.18 1457.66 Q667.374 1454.1 663.74 1454.1 M663.74 1450.39 Q669.55 1450.39 672.606 1455 Q675.684 1459.58 675.684 1468.33 Q675.684 1477.06 672.606 1481.67 Q669.55 1486.25 663.74 1486.25 Q657.93 1486.25 654.851 1481.67 Q651.796 1477.06 651.796 1468.33 Q651.796 1459.58 654.851 1455 Q657.93 1450.39 663.74 1450.39 Z" fill="#000000" fill-rule="nonzero" fill-opacity="1" /><path clip-path="url(#clip470)" d="M1047.48 1481.64 L1055.12 1481.64 L1055.12 1455.28 L1046.81 1456.95 L1046.81 1452.69 L1055.08 1451.02 L1059.75 1451.02 L1059.75 1481.64 L1067.39 1481.64 L1067.39 1485.58 L1047.48 1485.58 L1047.48 1481.64 Z" fill="#000000" fill-rule="nonzero" fill-opacity="1" /><path clip-path="url(#clip470)" d="M1086.83 1454.1 Q1083.22 1454.1 1081.39 1457.66 Q1079.59 1461.2 1079.59 1468.33 Q1079.59 1475.44 1081.39 1479.01 Q1083.22 1482.55 1086.83 1482.55 Q1090.47 1482.55 1092.27 1479.01 Q1094.1 1475.44 1094.1 1468.33 Q1094.1 1461.2 1092.27 1457.66 Q1090.47 1454.1 1086.83 1454.1 M1086.83 1450.39 Q1092.64 1450.39 1095.7 1455 Q1098.78 1459.58 1098.78 1468.33 Q1098.78 1477.06 1095.7 1481.67 Q1092.64 1486.25 1086.83 1486.25 Q1081.02 1486.25 1077.95 1481.67 Q1074.89 1477.06 1074.89 1468.33 Q1074.89 1459.58 1077.95 1455 Q1081.02 1450.39 1086.83 1450.39 Z" fill="#000000" fill-rule="nonzero" fill-opacity="1" /><path clip-path="url(#clip470)" d="M1117 1454.1 Q1113.38 1454.1 1111.56 1457.66 Q1109.75 1461.2 1109.75 1468.33 Q1109.75 1475.44 1111.56 1479.01 Q1113.38 1482.55 1117 1482.55 Q1120.63 1482.55 1122.44 1479.01 Q1124.26 1475.44 1124.26 1468.33 Q1124.26 1461.2 1122.44 1457.66 Q1120.63 1454.1 1117 1454.1 M1117 1450.39 Q1122.81 1450.39 1125.86 1455 Q1128.94 1459.58 1128.94 1468.33 Q1128.94 1477.06 1125.86 1481.67 Q1122.81 1486.25 1117 1486.25 Q1111.19 1486.25 1108.11 1481.67 Q1105.05 1477.06 1105.05 1468.33 Q1105.05 1459.58 1108.11 1455 Q1111.19 1450.39 1117 1450.39 Z" fill="#000000" fill-rule="nonzero" fill-opacity="1" /><path clip-path="url(#clip470)" d="M1486.43 1481.64 L1494.07 1481.64 L1494.07 1455.28 L1485.76 1456.95 L1485.76 1452.69 L1494.03 1451.02 L1498.7 1451.02 L1498.7 1481.64 L1506.34 1481.64 L1506.34 1485.58 L1486.43 1485.58 L1486.43 1481.64 Z" fill="#000000" fill-rule="nonzero" fill-opacity="1" /><path clip-path="url(#clip470)" d="M1515.83 1451.02 L1534.19 1451.02 L1534.19 1454.96 L1520.11 1454.96 L1520.11 1463.43 Q1521.13 1463.08 1522.15 1462.92 Q1523.17 1462.73 1524.19 1462.73 Q1529.97 1462.73 1533.35 1465.9 Q1536.73 1469.08 1536.73 1474.49 Q1536.73 1480.07 1533.26 1483.17 Q1529.79 1486.25 1523.47 1486.25 Q1521.29 1486.25 1519.03 1485.88 Q1516.78 1485.51 1514.37 1484.77 L1514.37 1480.07 Q1516.46 1481.2 1518.68 1481.76 Q1520.9 1482.32 1523.38 1482.32 Q1527.38 1482.32 1529.72 1480.21 Q1532.06 1478.1 1532.06 1474.49 Q1532.06 1470.88 1529.72 1468.77 Q1527.38 1466.67 1523.38 1466.67 Q1521.5 1466.67 1519.63 1467.08 Q1517.78 1467.5 1515.83 1468.38 L1515.83 1451.02 Z" fill="#000000" fill-rule="nonzero" fill-opacity="1" /><path clip-path="url(#clip470)" d="M1555.95 1454.1 Q1552.34 1454.1 1550.51 1457.66 Q1548.7 1461.2 1548.7 1468.33 Q1548.7 1475.44 1550.51 1479.01 Q1552.34 1482.55 1555.95 1482.55 Q1559.58 1482.55 1561.39 1479.01 Q1563.22 1475.44 1563.22 1468.33 Q1563.22 1461.2 1561.39 1457.66 Q1559.58 1454.1 1555.95 1454.1 M1555.95 1450.39 Q1561.76 1450.39 1564.81 1455 Q1567.89 1459.58 1567.89 1468.33 Q1567.89 1477.06 1564.81 1481.67 Q1561.76 1486.25 1555.95 1486.25 Q1550.14 1486.25 1547.06 1481.67 Q1544 1477.06 1544 1468.33 Q1544 1459.58 1547.06 1455 Q1550.14 1450.39 1555.95 1450.39 Z" fill="#000000" fill-rule="nonzero" fill-opacity="1" /><path clip-path="url(#clip470)" d="M1929.47 1481.64 L1945.79 1481.64 L1945.79 1485.58 L1923.84 1485.58 L1923.84 1481.64 Q1926.51 1478.89 1931.09 1474.26 Q1935.7 1469.61 1936.88 1468.27 Q1939.12 1465.74 1940 1464.01 Q1940.9 1462.25 1940.9 1460.56 Q1940.9 1457.8 1938.96 1456.07 Q1937.04 1454.33 1933.94 1454.33 Q1931.74 1454.33 1929.28 1455.09 Q1926.85 1455.86 1924.08 1457.41 L1924.08 1452.69 Q1926.9 1451.55 1929.35 1450.97 Q1931.81 1450.39 1933.84 1450.39 Q1939.21 1450.39 1942.41 1453.08 Q1945.6 1455.77 1945.6 1460.26 Q1945.6 1462.39 1944.79 1464.31 Q1944.01 1466.2 1941.9 1468.8 Q1941.32 1469.47 1938.22 1472.69 Q1935.12 1475.88 1929.47 1481.64 Z" fill="#000000" fill-rule="nonzero" fill-opacity="1" /><path clip-path="url(#clip470)" d="M1965.6 1454.1 Q1961.99 1454.1 1960.16 1457.66 Q1958.36 1461.2 1958.36 1468.33 Q1958.36 1475.44 1960.16 1479.01 Q1961.99 1482.55 1965.6 1482.55 Q1969.24 1482.55 1971.04 1479.01 Q1972.87 1475.44 1972.87 1468.33 Q1972.87 1461.2 1971.04 1457.66 Q1969.24 1454.1 1965.6 1454.1 M1965.6 1450.39 Q1971.41 1450.39 1974.47 1455 Q1977.55 1459.58 1977.55 1468.33 Q1977.55 1477.06 1974.47 1481.67 Q1971.41 1486.25 1965.6 1486.25 Q1959.79 1486.25 1956.71 1481.67 Q1953.66 1477.06 1953.66 1468.33 Q1953.66 1459.58 1956.71 1455 Q1959.79 1450.39 1965.6 1450.39 Z" fill="#000000" fill-rule="nonzero" fill-opacity="1" /><path clip-path="url(#clip470)" d="M1995.77 1454.1 Q1992.15 1454.1 1990.33 1457.66 Q1988.52 1461.2 1988.52 1468.33 Q1988.52 1475.44 1990.33 1479.01 Q1992.15 1482.55 1995.77 1482.55 Q1999.4 1482.55 2001.21 1479.01 Q2003.03 1475.44 2003.03 1468.33 Q2003.03 1461.2 2001.21 1457.66 Q1999.4 1454.1 1995.77 1454.1 M1995.77 1450.39 Q2001.58 1450.39 2004.63 1455 Q2007.71 1459.58 2007.71 1468.33 Q2007.71 1477.06 2004.63 1481.67 Q2001.58 1486.25 1995.77 1486.25 Q1989.96 1486.25 1986.88 1481.67 Q1983.82 1477.06 1983.82 1468.33 Q1983.82 1459.58 1986.88 1455 Q1989.96 1450.39 1995.77 1450.39 Z" fill="#000000" fill-rule="nonzero" fill-opacity="1" /><path clip-path="url(#clip470)" d="M1104.24 1520.52 L1110.67 1520.52 L1110.67 1568.04 L1104.24 1568.04 L1104.24 1520.52 Z" fill="#000000" fill-rule="nonzero" fill-opacity="1" /><path clip-path="url(#clip470)" d="M1129 1522.27 L1129 1532.4 L1141.07 1532.4 L1141.07 1536.95 L1129 1536.95 L1129 1556.3 Q1129 1560.66 1130.18 1561.9 Q1131.39 1563.14 1135.05 1563.14 L1141.07 1563.14 L1141.07 1568.04 L1135.05 1568.04 Q1128.27 1568.04 1125.69 1565.53 Q1123.11 1562.98 1123.11 1556.3 L1123.11 1536.95 L1118.82 1536.95 L1118.82 1532.4 L1123.11 1532.4 L1123.11 1522.27 L1129 1522.27 Z" fill="#000000" fill-rule="nonzero" fill-opacity="1" /><path clip-path="url(#clip470)" d="M1179.26 1548.76 L1179.26 1551.62 L1152.33 1551.62 Q1152.71 1557.67 1155.96 1560.85 Q1159.24 1564 1165.06 1564 Q1168.44 1564 1171.59 1563.17 Q1174.77 1562.35 1177.89 1560.69 L1177.89 1566.23 Q1174.74 1567.57 1171.43 1568.27 Q1168.12 1568.97 1164.71 1568.97 Q1156.18 1568.97 1151.19 1564 Q1146.22 1559.04 1146.22 1550.57 Q1146.22 1541.82 1150.93 1536.69 Q1155.67 1531.54 1163.7 1531.54 Q1170.89 1531.54 1175.06 1536.18 Q1179.26 1540.8 1179.26 1548.76 M1173.4 1547.04 Q1173.34 1542.23 1170.7 1539.37 Q1168.09 1536.5 1163.76 1536.5 Q1158.86 1536.5 1155.9 1539.27 Q1152.97 1542.04 1152.52 1547.07 L1173.4 1547.04 Z" fill="#000000" fill-rule="nonzero" fill-opacity="1" /><path clip-path="url(#clip470)" d="M1209.53 1537.87 Q1208.54 1537.3 1207.36 1537.04 Q1206.22 1536.76 1204.82 1536.76 Q1199.85 1536.76 1197.18 1540 Q1194.54 1543.22 1194.54 1549.27 L1194.54 1568.04 L1188.65 1568.04 L1188.65 1532.4 L1194.54 1532.4 L1194.54 1537.93 Q1196.38 1534.69 1199.34 1533.13 Q1202.3 1531.54 1206.54 1531.54 Q1207.14 1531.54 1207.87 1531.63 Q1208.61 1531.7 1209.5 1531.85 L1209.53 1537.87 Z" fill="#000000" fill-rule="nonzero" fill-opacity="1" /><path clip-path="url(#clip470)" d="M1231.87 1550.12 Q1224.77 1550.12 1222.04 1551.75 Q1219.3 1553.37 1219.3 1557.29 Q1219.3 1560.4 1221.34 1562.25 Q1223.41 1564.07 1226.94 1564.07 Q1231.81 1564.07 1234.74 1560.63 Q1237.7 1557.16 1237.7 1551.43 L1237.7 1550.12 L1231.87 1550.12 M1243.55 1547.71 L1243.55 1568.04 L1237.7 1568.04 L1237.7 1562.63 Q1235.69 1565.88 1232.7 1567.44 Q1229.71 1568.97 1225.38 1568.97 Q1219.9 1568.97 1216.66 1565.91 Q1213.44 1562.82 1213.44 1557.67 Q1213.44 1551.65 1217.45 1548.6 Q1221.5 1545.54 1229.48 1545.54 L1237.7 1545.54 L1237.7 1544.97 Q1237.7 1540.93 1235.02 1538.73 Q1232.38 1536.5 1227.58 1536.5 Q1224.52 1536.5 1221.62 1537.23 Q1218.73 1537.97 1216.05 1539.43 L1216.05 1534.02 Q1219.27 1532.78 1222.29 1532.17 Q1225.32 1531.54 1228.18 1531.54 Q1235.91 1531.54 1239.73 1535.55 Q1243.55 1539.56 1243.55 1547.71 Z" fill="#000000" fill-rule="nonzero" fill-opacity="1" /><path clip-path="url(#clip470)" d="M1261.41 1522.27 L1261.41 1532.4 L1273.47 1532.4 L1273.47 1536.95 L1261.41 1536.95 L1261.41 1556.3 Q1261.41 1560.66 1262.59 1561.9 Q1263.8 1563.14 1267.46 1563.14 L1273.47 1563.14 L1273.47 1568.04 L1267.46 1568.04 Q1260.68 1568.04 1258.1 1565.53 Q1255.52 1562.98 1255.52 1556.3 L1255.52 1536.95 L1251.22 1536.95 L1251.22 1532.4 L1255.52 1532.4 L1255.52 1522.27 L1261.41 1522.27 Z" fill="#000000" fill-rule="nonzero" fill-opacity="1" /><path clip-path="url(#clip470)" d="M1281.17 1532.4 L1287.03 1532.4 L1287.03 1568.04 L1281.17 1568.04 L1281.17 1532.4 M1281.17 1518.52 L1287.03 1518.52 L1287.03 1525.93 L1281.17 1525.93 L1281.17 1518.52 Z" fill="#000000" fill-rule="nonzero" fill-opacity="1" /><path clip-path="url(#clip470)" d="M1313.1 1536.5 Q1308.39 1536.5 1305.65 1540.19 Q1302.91 1543.85 1302.91 1550.25 Q1302.91 1556.65 1305.62 1560.34 Q1308.36 1564 1313.1 1564 Q1317.78 1564 1320.51 1560.31 Q1323.25 1556.62 1323.25 1550.25 Q1323.25 1543.92 1320.51 1540.23 Q1317.78 1536.5 1313.1 1536.5 M1313.1 1531.54 Q1320.74 1531.54 1325.1 1536.5 Q1329.46 1541.47 1329.46 1550.25 Q1329.46 1559 1325.1 1564 Q1320.74 1568.97 1313.1 1568.97 Q1305.43 1568.97 1301.07 1564 Q1296.74 1559 1296.74 1550.25 Q1296.74 1541.47 1301.07 1536.5 Q1305.43 1531.54 1313.1 1531.54 Z" fill="#000000" fill-rule="nonzero" fill-opacity="1" /><path clip-path="url(#clip470)" d="M1368.8 1546.53 L1368.8 1568.04 L1362.94 1568.04 L1362.94 1546.72 Q1362.94 1541.66 1360.97 1539.14 Q1359 1536.63 1355.05 1536.63 Q1350.31 1536.63 1347.57 1539.65 Q1344.83 1542.68 1344.83 1547.9 L1344.83 1568.04 L1338.94 1568.04 L1338.94 1532.4 L1344.83 1532.4 L1344.83 1537.93 Q1346.93 1534.72 1349.76 1533.13 Q1352.63 1531.54 1356.35 1531.54 Q1362.5 1531.54 1365.65 1535.36 Q1368.8 1539.14 1368.8 1546.53 Z" fill="#000000" fill-rule="nonzero" fill-opacity="1" /><path clip-path="url(#clip470)" d="M1403.2 1533.45 L1403.2 1538.98 Q1400.72 1537.71 1398.05 1537.07 Q1395.38 1536.44 1392.51 1536.44 Q1388.15 1536.44 1385.95 1537.77 Q1383.79 1539.11 1383.79 1541.79 Q1383.79 1543.82 1385.35 1545 Q1386.91 1546.15 1391.62 1547.2 L1393.62 1547.64 Q1399.86 1548.98 1402.47 1551.43 Q1405.11 1553.85 1405.11 1558.21 Q1405.11 1563.17 1401.17 1566.07 Q1397.25 1568.97 1390.38 1568.97 Q1387.51 1568.97 1384.39 1568.39 Q1381.31 1567.85 1377.87 1566.74 L1377.87 1560.69 Q1381.12 1562.38 1384.27 1563.24 Q1387.42 1564.07 1390.51 1564.07 Q1394.64 1564.07 1396.87 1562.66 Q1399.1 1561.23 1399.1 1558.65 Q1399.1 1556.27 1397.48 1554.99 Q1395.88 1553.72 1390.44 1552.54 L1388.4 1552.07 Q1382.96 1550.92 1380.54 1548.56 Q1378.12 1546.18 1378.12 1542.04 Q1378.12 1537.01 1381.69 1534.27 Q1385.25 1531.54 1391.81 1531.54 Q1395.06 1531.54 1397.92 1532.01 Q1400.79 1532.49 1403.2 1533.45 Z" fill="#000000" fill-rule="nonzero" fill-opacity="1" /><polyline clip-path="url(#clip470)" style="stroke:#000000; stroke-linecap:round; stroke-linejoin:round; stroke-width:4; stroke-opacity:1; fill:none" points="156.598,1423.18 156.598,123.472 "/>
<polyline clip-path="url(#clip470)" style="stroke:#000000; stroke-linecap:round; stroke-linejoin:round; stroke-width:4; stroke-opacity:1; fill:none" points="156.598,1386.4 175.496,1386.4 "/>
<polyline clip-path="url(#clip470)" style="stroke:#000000; stroke-linecap:round; stroke-linejoin:round; stroke-width:4; stroke-opacity:1; fill:none" points="156.598,1017.82 175.496,1017.82 "/>
<polyline clip-path="url(#clip470)" style="stroke:#000000; stroke-linecap:round; stroke-linejoin:round; stroke-width:4; stroke-opacity:1; fill:none" points="156.598,649.252 175.496,649.252 "/>
<polyline clip-path="url(#clip470)" style="stroke:#000000; stroke-linecap:round; stroke-linejoin:round; stroke-width:4; stroke-opacity:1; fill:none" points="156.598,280.68 175.496,280.68 "/>
<path clip-path="url(#clip470)" d="M64.6495 1372.19 Q61.0384 1372.19 59.2097 1375.76 Q57.4041 1379.3 57.4041 1386.43 Q57.4041 1393.54 59.2097 1397.1 Q61.0384 1400.64 64.6495 1400.64 Q68.2837 1400.64 70.0892 1397.1 Q71.9179 1393.54 71.9179 1386.43 Q71.9179 1379.3 70.0892 1375.76 Q68.2837 1372.19 64.6495 1372.19 M64.6495 1368.49 Q70.4596 1368.49 73.5152 1373.1 Q76.5938 1377.68 76.5938 1386.43 Q76.5938 1395.16 73.5152 1399.76 Q70.4596 1404.35 64.6495 1404.35 Q58.8393 1404.35 55.7606 1399.76 Q52.7051 1395.16 52.7051 1386.43 Q52.7051 1377.68 55.7606 1373.1 Q58.8393 1368.49 64.6495 1368.49 Z" fill="#000000" fill-rule="nonzero" fill-opacity="1" /><path clip-path="url(#clip470)" d="M84.8114 1397.8 L89.6956 1397.8 L89.6956 1403.68 L84.8114 1403.68 L84.8114 1397.8 Z" fill="#000000" fill-rule="nonzero" fill-opacity="1" /><path clip-path="url(#clip470)" d="M100.691 1399.74 L108.33 1399.74 L108.33 1373.37 L100.02 1375.04 L100.02 1370.78 L108.283 1369.12 L112.959 1369.12 L112.959 1399.74 L120.598 1399.74 L120.598 1403.68 L100.691 1403.68 L100.691 1399.74 Z" fill="#000000" fill-rule="nonzero" fill-opacity="1" /><path clip-path="url(#clip470)" d="M65.0198 1003.62 Q61.4087 1003.62 59.58 1007.19 Q57.7745 1010.73 57.7745 1017.86 Q57.7745 1024.96 59.58 1028.53 Q61.4087 1032.07 65.0198 1032.07 Q68.6541 1032.07 70.4596 1028.53 Q72.2883 1024.96 72.2883 1017.86 Q72.2883 1010.73 70.4596 1007.19 Q68.6541 1003.62 65.0198 1003.62 M65.0198 999.919 Q70.83 999.919 73.8855 1004.53 Q76.9642 1009.11 76.9642 1017.86 Q76.9642 1026.59 73.8855 1031.19 Q70.83 1035.78 65.0198 1035.78 Q59.2097 1035.78 56.131 1031.19 Q53.0754 1026.59 53.0754 1017.86 Q53.0754 1009.11 56.131 1004.53 Q59.2097 999.919 65.0198 999.919 Z" fill="#000000" fill-rule="nonzero" fill-opacity="1" /><path clip-path="url(#clip470)" d="M85.1818 1029.22 L90.066 1029.22 L90.066 1035.1 L85.1818 1035.1 L85.1818 1029.22 Z" fill="#000000" fill-rule="nonzero" fill-opacity="1" /><path clip-path="url(#clip470)" d="M104.279 1031.17 L120.598 1031.17 L120.598 1035.1 L98.6539 1035.1 L98.6539 1031.17 Q101.316 1028.41 105.899 1023.78 Q110.506 1019.13 111.686 1017.79 Q113.932 1015.27 114.811 1013.53 Q115.714 1011.77 115.714 1010.08 Q115.714 1007.33 113.77 1005.59 Q111.848 1003.85 108.746 1003.85 Q106.547 1003.85 104.094 1004.62 Q101.663 1005.38 98.8854 1006.93 L98.8854 1002.21 Q101.709 1001.08 104.163 1000.5 Q106.617 999.919 108.654 999.919 Q114.024 999.919 117.219 1002.6 Q120.413 1005.29 120.413 1009.78 Q120.413 1011.91 119.603 1013.83 Q118.816 1015.73 116.709 1018.32 Q116.131 1018.99 113.029 1022.21 Q109.927 1025.4 104.279 1031.17 Z" fill="#000000" fill-rule="nonzero" fill-opacity="1" /><path clip-path="url(#clip470)" d="M64.0708 635.051 Q60.4597 635.051 58.631 638.615 Q56.8254 642.157 56.8254 649.287 Q56.8254 656.393 58.631 659.958 Q60.4597 663.5 64.0708 663.5 Q67.705 663.5 69.5105 659.958 Q71.3392 656.393 71.3392 649.287 Q71.3392 642.157 69.5105 638.615 Q67.705 635.051 64.0708 635.051 M64.0708 631.347 Q69.8809 631.347 72.9365 635.953 Q76.0151 640.537 76.0151 649.287 Q76.0151 658.013 72.9365 662.62 Q69.8809 667.203 64.0708 667.203 Q58.2606 667.203 55.1819 662.62 Q52.1264 658.013 52.1264 649.287 Q52.1264 640.537 55.1819 635.953 Q58.2606 631.347 64.0708 631.347 Z" fill="#000000" fill-rule="nonzero" fill-opacity="1" /><path clip-path="url(#clip470)" d="M84.2327 660.652 L89.1169 660.652 L89.1169 666.532 L84.2327 666.532 L84.2327 660.652 Z" fill="#000000" fill-rule="nonzero" fill-opacity="1" /><path clip-path="url(#clip470)" d="M113.469 647.898 Q116.825 648.615 118.7 650.884 Q120.598 653.152 120.598 656.486 Q120.598 661.601 117.08 664.402 Q113.561 667.203 107.08 667.203 Q104.904 667.203 102.589 666.763 Q100.297 666.347 97.8437 665.49 L97.8437 660.976 Q99.7882 662.111 102.103 662.689 Q104.418 663.268 106.941 663.268 Q111.339 663.268 113.631 661.532 Q115.945 659.796 115.945 656.486 Q115.945 653.43 113.793 651.717 Q111.663 649.981 107.844 649.981 L103.816 649.981 L103.816 646.139 L108.029 646.139 Q111.478 646.139 113.307 644.773 Q115.135 643.384 115.135 640.791 Q115.135 638.129 113.237 636.717 Q111.362 635.282 107.844 635.282 Q105.922 635.282 103.723 635.699 Q101.524 636.115 98.8854 636.995 L98.8854 632.828 Q101.547 632.088 103.862 631.717 Q106.2 631.347 108.26 631.347 Q113.584 631.347 116.686 633.777 Q119.788 636.185 119.788 640.305 Q119.788 643.176 118.145 645.166 Q116.501 647.134 113.469 647.898 Z" fill="#000000" fill-rule="nonzero" fill-opacity="1" /><path clip-path="url(#clip470)" d="M62.9365 266.479 Q59.3254 266.479 57.4967 270.044 Q55.6912 273.585 55.6912 280.715 Q55.6912 287.821 57.4967 291.386 Q59.3254 294.928 62.9365 294.928 Q66.5707 294.928 68.3763 291.386 Q70.205 287.821 70.205 280.715 Q70.205 273.585 68.3763 270.044 Q66.5707 266.479 62.9365 266.479 M62.9365 262.775 Q68.7467 262.775 71.8022 267.382 Q74.8809 271.965 74.8809 280.715 Q74.8809 289.442 71.8022 294.048 Q68.7467 298.631 62.9365 298.631 Q57.1264 298.631 54.0477 294.048 Q50.9921 289.442 50.9921 280.715 Q50.9921 271.965 54.0477 267.382 Q57.1264 262.775 62.9365 262.775 Z" fill="#000000" fill-rule="nonzero" fill-opacity="1" /><path clip-path="url(#clip470)" d="M83.0984 292.08 L87.9827 292.08 L87.9827 297.96 L83.0984 297.96 L83.0984 292.08 Z" fill="#000000" fill-rule="nonzero" fill-opacity="1" /><path clip-path="url(#clip470)" d="M111.015 267.474 L99.2095 285.923 L111.015 285.923 L111.015 267.474 M109.788 263.4 L115.668 263.4 L115.668 285.923 L120.598 285.923 L120.598 289.812 L115.668 289.812 L115.668 297.96 L111.015 297.96 L111.015 289.812 L95.4132 289.812 L95.4132 285.298 L109.788 263.4 Z" fill="#000000" fill-rule="nonzero" fill-opacity="1" /><path clip-path="url(#clip470)" d="M940.57 16.7545 L940.57 25.383 Q936.438 21.5346 931.739 19.6307 Q927.08 17.7268 921.814 17.7268 Q911.444 17.7268 905.935 24.0867 Q900.425 30.4061 900.425 42.3968 Q900.425 54.3469 905.935 60.7069 Q911.444 67.0263 921.814 67.0263 Q927.08 67.0263 931.739 65.1223 Q936.438 63.2184 940.57 59.3701 L940.57 67.9175 Q936.276 70.8341 931.455 72.2924 Q926.675 73.7508 921.328 73.7508 Q907.596 73.7508 899.696 65.3654 Q891.797 56.9395 891.797 42.3968 Q891.797 27.8135 899.696 19.4281 Q907.596 11.0023 921.328 11.0023 Q926.756 11.0023 931.536 12.4606 Q936.357 13.8784 940.57 16.7545 Z" fill="#000000" fill-rule="nonzero" fill-opacity="1" /><path clip-path="url(#clip470)" d="M970.466 32.4315 Q964.47 32.4315 960.987 37.1306 Q957.503 41.7891 957.503 49.9314 Q957.503 58.0738 960.946 62.7728 Q964.43 67.4314 970.466 67.4314 Q976.42 67.4314 979.904 62.7323 Q983.388 58.0333 983.388 49.9314 Q983.388 41.8701 979.904 37.1711 Q976.42 32.4315 970.466 32.4315 M970.466 26.1121 Q980.188 26.1121 985.738 32.4315 Q991.287 38.7509 991.287 49.9314 Q991.287 61.0714 985.738 67.4314 Q980.188 73.7508 970.466 73.7508 Q960.703 73.7508 955.153 67.4314 Q949.644 61.0714 949.644 49.9314 Q949.644 38.7509 955.153 32.4315 Q960.703 26.1121 970.466 26.1121 Z" fill="#000000" fill-rule="nonzero" fill-opacity="1" /><path clip-path="url(#clip470)" d="M1041.36 45.1919 L1041.36 72.576 L1033.9 72.576 L1033.9 45.4349 Q1033.9 38.994 1031.39 35.7938 Q1028.88 32.5936 1023.86 32.5936 Q1017.82 32.5936 1014.34 36.4419 Q1010.85 40.2903 1010.85 46.9338 L1010.85 72.576 L1003.36 72.576 L1003.36 27.2059 L1010.85 27.2059 L1010.85 34.2544 Q1013.53 30.163 1017.13 28.1376 Q1020.78 26.1121 1025.52 26.1121 Q1033.34 26.1121 1037.35 30.9732 Q1041.36 35.7938 1041.36 45.1919 Z" fill="#000000" fill-rule="nonzero" fill-opacity="1" /><path clip-path="url(#clip470)" d="M1050.88 27.2059 L1058.78 27.2059 L1072.95 65.2844 L1087.13 27.2059 L1095.03 27.2059 L1078.02 72.576 L1067.89 72.576 L1050.88 27.2059 Z" fill="#000000" fill-rule="nonzero" fill-opacity="1" /><path clip-path="url(#clip470)" d="M1144.13 48.0275 L1144.13 51.6733 L1109.86 51.6733 Q1110.34 59.3701 1114.48 63.421 Q1118.65 67.4314 1126.06 67.4314 Q1130.35 67.4314 1134.37 66.3781 Q1138.42 65.3249 1142.39 63.2184 L1142.39 70.267 Q1138.38 71.9684 1134.16 72.8596 Q1129.95 73.7508 1125.62 73.7508 Q1114.76 73.7508 1108.4 67.4314 Q1102.08 61.1119 1102.08 50.3365 Q1102.08 39.1965 1108.07 32.6746 Q1114.11 26.1121 1124.32 26.1121 Q1133.47 26.1121 1138.78 32.0264 Q1144.13 37.9003 1144.13 48.0275 M1136.67 45.84 Q1136.59 39.7232 1133.23 36.0774 Q1129.91 32.4315 1124.4 32.4315 Q1118.16 32.4315 1114.39 35.9558 Q1110.67 39.4801 1110.1 45.8805 L1136.67 45.84 Z" fill="#000000" fill-rule="nonzero" fill-opacity="1" /><path clip-path="url(#clip470)" d="M1182.65 34.1734 Q1181.4 33.4443 1179.9 33.1202 Q1178.44 32.7556 1176.66 32.7556 Q1170.34 32.7556 1166.93 36.8875 Q1163.57 40.9789 1163.57 48.6757 L1163.57 72.576 L1156.08 72.576 L1156.08 27.2059 L1163.57 27.2059 L1163.57 34.2544 Q1165.92 30.1225 1169.69 28.1376 Q1173.46 26.1121 1178.84 26.1121 Q1179.61 26.1121 1180.55 26.2337 Q1181.48 26.3147 1182.61 26.5172 L1182.65 34.1734 Z" fill="#000000" fill-rule="nonzero" fill-opacity="1" /><path clip-path="url(#clip470)" d="M1218.87 49.3643 Q1218.87 41.2625 1215.5 36.8065 Q1212.18 32.3505 1206.15 32.3505 Q1200.15 32.3505 1196.79 36.8065 Q1193.47 41.2625 1193.47 49.3643 Q1193.47 57.4256 1196.79 61.8816 Q1200.15 66.3376 1206.15 66.3376 Q1212.18 66.3376 1215.5 61.8816 Q1218.87 57.4256 1218.87 49.3643 M1226.32 66.9452 Q1226.32 78.5308 1221.18 84.1616 Q1216.03 89.8329 1205.42 89.8329 Q1201.49 89.8329 1198 89.2252 Q1194.52 88.6581 1191.24 87.4428 L1191.24 80.1917 Q1194.52 81.9741 1197.72 82.8248 Q1200.92 83.6755 1204.24 83.6755 Q1211.58 83.6755 1215.22 79.8271 Q1218.87 76.0193 1218.87 68.282 L1218.87 64.5957 Q1216.56 68.6061 1212.95 70.5911 Q1209.35 72.576 1204.32 72.576 Q1195.98 72.576 1190.88 66.2161 Q1185.77 59.8562 1185.77 49.3643 Q1185.77 38.832 1190.88 32.472 Q1195.98 26.1121 1204.32 26.1121 Q1209.35 26.1121 1212.95 28.0971 Q1216.56 30.082 1218.87 34.0924 L1218.87 27.2059 L1226.32 27.2059 L1226.32 66.9452 Z" fill="#000000" fill-rule="nonzero" fill-opacity="1" /><path clip-path="url(#clip470)" d="M1280.48 48.0275 L1280.48 51.6733 L1246.21 51.6733 Q1246.7 59.3701 1250.83 63.421 Q1255 67.4314 1262.41 67.4314 Q1266.71 67.4314 1270.72 66.3781 Q1274.77 65.3249 1278.74 63.2184 L1278.74 70.267 Q1274.73 71.9684 1270.52 72.8596 Q1266.3 73.7508 1261.97 73.7508 Q1251.11 73.7508 1244.75 67.4314 Q1238.43 61.1119 1238.43 50.3365 Q1238.43 39.1965 1244.43 32.6746 Q1250.46 26.1121 1260.67 26.1121 Q1269.83 26.1121 1275.13 32.0264 Q1280.48 37.9003 1280.48 48.0275 M1273.03 45.84 Q1272.95 39.7232 1269.58 36.0774 Q1266.26 32.4315 1260.75 32.4315 Q1254.52 32.4315 1250.75 35.9558 Q1247.02 39.4801 1246.45 45.8805 L1273.03 45.84 Z" fill="#000000" fill-rule="nonzero" fill-opacity="1" /><path clip-path="url(#clip470)" d="M1330.43 45.1919 L1330.43 72.576 L1322.98 72.576 L1322.98 45.4349 Q1322.98 38.994 1320.46 35.7938 Q1317.95 32.5936 1312.93 32.5936 Q1306.89 32.5936 1303.41 36.4419 Q1299.93 40.2903 1299.93 46.9338 L1299.93 72.576 L1292.43 72.576 L1292.43 27.2059 L1299.93 27.2059 L1299.93 34.2544 Q1302.6 30.163 1306.2 28.1376 Q1309.85 26.1121 1314.59 26.1121 Q1322.41 26.1121 1326.42 30.9732 Q1330.43 35.7938 1330.43 45.1919 Z" fill="#000000" fill-rule="nonzero" fill-opacity="1" /><path clip-path="url(#clip470)" d="M1377.95 28.9478 L1377.95 35.9153 Q1374.79 34.1734 1371.59 33.3227 Q1368.43 32.4315 1365.19 32.4315 Q1357.93 32.4315 1353.92 37.0496 Q1349.91 41.6271 1349.91 49.9314 Q1349.91 58.2358 1353.92 62.8538 Q1357.93 67.4314 1365.19 67.4314 Q1368.43 67.4314 1371.59 66.5807 Q1374.79 65.6895 1377.95 63.9476 L1377.95 70.8341 Q1374.83 72.2924 1371.46 73.0216 Q1368.14 73.7508 1364.38 73.7508 Q1354.13 73.7508 1348.09 67.3098 Q1342.06 60.8689 1342.06 49.9314 Q1342.06 38.832 1348.13 32.472 Q1354.25 26.1121 1364.86 26.1121 Q1368.3 26.1121 1371.59 26.8413 Q1374.87 27.5299 1377.95 28.9478 Z" fill="#000000" fill-rule="nonzero" fill-opacity="1" /><path clip-path="url(#clip470)" d="M1429.72 48.0275 L1429.72 51.6733 L1395.45 51.6733 Q1395.93 59.3701 1400.06 63.421 Q1404.24 67.4314 1411.65 67.4314 Q1415.94 67.4314 1419.95 66.3781 Q1424 65.3249 1427.97 63.2184 L1427.97 70.267 Q1423.96 71.9684 1419.75 72.8596 Q1415.54 73.7508 1411.2 73.7508 Q1400.35 73.7508 1393.99 67.4314 Q1387.67 61.1119 1387.67 50.3365 Q1387.67 39.1965 1393.66 32.6746 Q1399.7 26.1121 1409.91 26.1121 Q1419.06 26.1121 1424.37 32.0264 Q1429.72 37.9003 1429.72 48.0275 M1422.26 45.84 Q1422.18 39.7232 1418.82 36.0774 Q1415.5 32.4315 1409.99 32.4315 Q1403.75 32.4315 1399.98 35.9558 Q1396.26 39.4801 1395.69 45.8805 L1422.26 45.84 Z" fill="#000000" fill-rule="nonzero" fill-opacity="1" /><path clip-path="url(#clip470)" d="M1485.9 32.4315 Q1479.91 32.4315 1476.42 37.1306 Q1472.94 41.7891 1472.94 49.9314 Q1472.94 58.0738 1476.38 62.7728 Q1479.87 67.4314 1485.9 67.4314 Q1491.86 67.4314 1495.34 62.7323 Q1498.83 58.0333 1498.83 49.9314 Q1498.83 41.8701 1495.34 37.1711 Q1491.86 32.4315 1485.9 32.4315 M1485.9 26.1121 Q1495.62 26.1121 1501.17 32.4315 Q1506.72 38.7509 1506.72 49.9314 Q1506.72 61.0714 1501.17 67.4314 Q1495.62 73.7508 1485.9 73.7508 Q1476.14 73.7508 1470.59 67.4314 Q1465.08 61.0714 1465.08 49.9314 Q1465.08 38.7509 1470.59 32.4315 Q1476.14 26.1121 1485.9 26.1121 Z" fill="#000000" fill-rule="nonzero" fill-opacity="1" /><path clip-path="url(#clip470)" d="M1542.05 9.54393 L1542.05 15.7418 L1534.92 15.7418 Q1530.91 15.7418 1529.33 17.3622 Q1527.79 18.9825 1527.79 23.1955 L1527.79 27.2059 L1540.06 27.2059 L1540.06 32.9987 L1527.79 32.9987 L1527.79 72.576 L1520.29 72.576 L1520.29 32.9987 L1513.17 32.9987 L1513.17 27.2059 L1520.29 27.2059 L1520.29 24.0462 Q1520.29 16.471 1523.82 13.0277 Q1527.34 9.54393 1535 9.54393 L1542.05 9.54393 Z" fill="#000000" fill-rule="nonzero" fill-opacity="1" /><path clip-path="url(#clip470)" d="M1601.11 51.4708 L1599.33 42.1132 Q1597.51 32.5126 1590.29 32.5126 Q1584.87 32.5126 1582.4 36.9686 Q1579.28 42.5588 1579.28 49.9314 Q1579.28 58.8434 1582.31 63.0969 Q1585.39 67.4314 1590.29 67.4314 Q1595.72 67.4314 1598.64 58.8029 L1601.11 51.4708 M1605.28 39.075 L1609.29 27.2059 L1615.94 27.2059 L1607.63 51.7949 L1609.25 60.6663 Q1609.62 62.6513 1611.04 64.3122 Q1612.7 66.2566 1613.99 66.2566 L1617.56 66.2566 L1617.56 72.576 L1613.1 72.576 Q1609.29 72.576 1605.89 69.1732 Q1604.23 67.4719 1603.54 63.9071 Q1601.68 68.4036 1597.87 71.9279 Q1596.09 73.5887 1590.29 73.5887 Q1580.77 73.5887 1576.16 67.4314 Q1571.42 61.0714 1571.42 49.9314 Q1571.42 38.0218 1576.56 32.4315 Q1582.27 26.1931 1590.29 26.1931 Q1602.89 26.1931 1605.28 39.075 Z" fill="#000000" fill-rule="nonzero" fill-opacity="1" /><polyline clip-path="url(#clip472)" style="stroke:#0000ff; stroke-linecap:round; stroke-linejoin:round; stroke-width:4; stroke-opacity:1; fill:none" points="218.754,1386.4 227.533,1349.66 236.312,1314.09 245.091,1279.62 253.87,1246.23 262.649,1213.88 271.428,1182.53 280.207,1152.16 288.986,1122.72 297.765,1094.19 306.544,1066.53 315.323,1039.72 324.102,1013.74 332.881,988.542 341.66,964.115 350.439,940.432 359.218,917.466 367.997,895.197 376.776,873.6 385.555,852.656 394.334,832.342 403.113,812.639 411.892,793.528 420.671,774.99 429.45,757.007 438.229,739.562 447.008,722.638 455.787,706.217 464.566,690.286 473.345,674.829 482.124,659.83 490.903,645.276 499.682,631.154 508.461,617.449 517.24,604.15 526.019,591.243 534.798,578.717 543.577,566.559 552.356,554.76 561.135,543.308 569.914,532.192 578.693,521.402 587.472,510.929 596.251,500.763 605.03,490.895 613.809,481.315 622.588,472.015 631.367,462.987 640.146,454.222 648.925,445.713 657.704,437.453 666.483,429.432 675.262,421.646 684.041,414.085 692.82,406.745 701.599,399.618 710.378,392.698 719.157,385.978 727.936,379.454 736.715,373.119 745.494,366.967 754.273,360.994 763.052,355.193 771.831,349.561 780.61,344.091 789.389,338.779 798.168,333.621 806.947,328.612 815.726,323.748 824.505,319.024 833.284,314.436 842.064,309.981 850.843,305.654 859.622,301.452 868.401,297.37 877.18,293.407 885.959,289.557 894.738,285.819 903.517,282.188 912.296,278.661 921.075,275.236 929.854,271.909 938.633,268.678 947.412,265.54 956.191,262.492 964.97,259.531 973.749,256.656 982.528,253.863 991.307,251.15 1000.09,248.515 1008.86,245.955 1017.64,243.47 1026.42,241.055 1035.2,238.709 1043.98,236.431 1052.76,234.218 1061.54,232.069 1070.32,229.981 1079.1,227.953 1087.88,225.983 1096.65,224.069 1105.43,222.211 1114.21,220.405 1122.99,218.651 1131.77,216.947 1140.55,215.293 1149.33,213.685 1158.11,212.123 1166.89,210.606 1175.67,209.133 1184.44,207.702 1193.22,206.311 1202,204.96 1210.78,203.648 1219.56,202.374 1228.34,201.136 1237.12,199.933 1245.9,198.765 1254.68,197.63 1263.46,196.527 1272.24,195.456 1281.01,194.415 1289.79,193.405 1298.57,192.423 1307.35,191.469 1316.13,190.542 1324.91,189.642 1333.69,188.768 1342.47,187.918 1351.25,187.093 1360.03,186.292 1368.8,185.513 1377.58,184.756 1386.36,184.021 1395.14,183.307 1403.92,182.614 1412.7,181.94 1421.48,181.285 1430.26,180.65 1439.04,180.032 1447.82,179.432 1456.59,178.849 1465.37,178.282 1474.15,177.732 1482.93,177.198 1491.71,176.678 1500.49,176.174 1509.27,175.684 1518.05,175.208 1526.83,174.745 1535.61,174.296 1544.38,173.86 1553.16,173.435 1561.94,173.024 1570.72,172.623 1579.5,172.235 1588.28,171.857 1597.06,171.49 1605.84,171.133 1614.62,170.787 1623.4,170.451 1632.17,170.124 1640.95,169.806 1649.73,169.498 1658.51,169.198 1667.29,168.907 1676.07,168.624 1684.85,168.349 1693.63,168.082 1702.41,167.823 1711.19,167.571 1719.96,167.326 1728.74,167.089 1737.52,166.858 1746.3,166.633 1755.08,166.415 1763.86,166.203 1772.64,165.998 1781.42,165.798 1790.2,165.603 1798.98,165.415 1807.75,165.231 1816.53,165.053 1825.31,164.88 1834.09,164.712 1842.87,164.549 1851.65,164.39 1860.43,164.236 1869.21,164.087 1877.99,163.941 1886.77,163.8 1895.54,163.662 1904.32,163.529 1913.1,163.4 1921.88,163.274 1930.66,163.151 1939.44,163.033 1948.22,162.917 1957,162.805 1965.78,162.696 1974.56,162.59 1983.34,162.487 1992.11,162.388 2000.89,162.291 2009.67,162.196 2018.45,162.105 2027.23,162.016 2036.01,161.929 2044.79,161.845 2053.57,161.764 2062.35,161.684 2071.13,161.607 2079.9,161.533 2088.68,161.46 2097.46,161.389 2106.24,161.321 2115.02,161.254 2123.8,161.189 2132.58,161.126 2141.36,161.065 2150.14,161.006 2158.92,160.948 2167.69,160.892 2176.47,160.838 2185.25,160.785 2194.03,160.733 2202.81,160.684 2211.59,160.635 2220.37,160.588 2229.15,160.542 2237.93,160.498 2246.71,160.455 2255.48,160.413 2264.26,160.372 2273.04,160.332 2281.82,160.294 2290.6,160.256 "/>
</svg>
