<?xml version="1.0" encoding="utf-8"?>
<svg xmlns="http://www.w3.org/2000/svg" xmlns:xlink="http://www.w3.org/1999/xlink" width="1150" height="350" viewBox="0 0 4600 1400">
<defs>
  <clipPath id="clip290">
    <rect x="0" y="0" width="4600" height="1400"/>
  </clipPath>
</defs>
<path clip-path="url(#clip290)" d="M0 1400 L4600 1400 L4600 0 L0 0  Z" fill="#ffffff" fill-rule="evenodd" fill-opacity="1"/>
<defs>
  <clipPath id="clip291">
    <rect x="163" y="90" width="4390" height="1220"/>
  </clipPath>
</defs>
<path clip-path="url(#clip290)" d="M163.416 1309.2 L4552.76 1309.2 L4552.76 90.6026 L163.416 90.6026  Z" fill="#ffffff" fill-rule="evenodd" fill-opacity="1"/>
<polyline clip-path="url(#clip291)" style="stroke:#000000; stroke-linecap:round; stroke-linejoin:round; stroke-width:2; stroke-opacity:0.1; fill:none" points="589.316,1309.2 589.316,90.6026 "/>
<polyline clip-path="url(#clip291)" style="stroke:#000000; stroke-linecap:round; stroke-linejoin:round; stroke-width:2; stroke-opacity:0.1; fill:none" points="1445.48,1309.2 1445.48,90.6026 "/>
<polyline clip-path="url(#clip291)" style="stroke:#000000; stroke-linecap:round; stroke-linejoin:round; stroke-width:2; stroke-opacity:0.1; fill:none" points="2301.64,1309.2 2301.64,90.6026 "/>
<polyline clip-path="url(#clip291)" style="stroke:#000000; stroke-linecap:round; stroke-linejoin:round; stroke-width:2; stroke-opacity:0.1; fill:none" points="3157.79,1309.2 3157.79,90.6026 "/>
<polyline clip-path="url(#clip291)" style="stroke:#000000; stroke-linecap:round; stroke-linejoin:round; stroke-width:2; stroke-opacity:0.1; fill:none" points="4013.95,1309.2 4013.95,90.6026 "/>
<polyline clip-path="url(#clip291)" style="stroke:#000000; stroke-linecap:round; stroke-linejoin:round; stroke-width:2; stroke-opacity:0.1; fill:none" points="163.416,1266.21 4552.76,1266.21 "/>
<polyline clip-path="url(#clip291)" style="stroke:#000000; stroke-linecap:round; stroke-linejoin:round; stroke-width:2; stroke-opacity:0.1; fill:none" points="163.416,1027.83 4552.76,1027.83 "/>
<polyline clip-path="url(#clip291)" style="stroke:#000000; stroke-linecap:round; stroke-linejoin:round; stroke-width:2; stroke-opacity:0.1; fill:none" points="163.416,789.448 4552.76,789.448 "/>
<polyline clip-path="url(#clip291)" style="stroke:#000000; stroke-linecap:round; stroke-linejoin:round; stroke-width:2; stroke-opacity:0.1; fill:none" points="163.416,551.068 4552.76,551.068 "/>
<polyline clip-path="url(#clip291)" style="stroke:#000000; stroke-linecap:round; stroke-linejoin:round; stroke-width:2; stroke-opacity:0.1; fill:none" points="163.416,312.688 4552.76,312.688 "/>
<polyline clip-path="url(#clip290)" style="stroke:#000000; stroke-linecap:round; stroke-linejoin:round; stroke-width:4; stroke-opacity:1; fill:none" points="163.416,1309.2 4552.76,1309.2 "/>
<polyline clip-path="url(#clip290)" style="stroke:#000000; stroke-linecap:round; stroke-linejoin:round; stroke-width:4; stroke-opacity:1; fill:none" points="589.316,1309.2 589.316,1290.31 "/>
<polyline clip-path="url(#clip290)" style="stroke:#000000; stroke-linecap:round; stroke-linejoin:round; stroke-width:4; stroke-opacity:1; fill:none" points="1445.48,1309.2 1445.48,1290.31 "/>
<polyline clip-path="url(#clip290)" style="stroke:#000000; stroke-linecap:round; stroke-linejoin:round; stroke-width:4; stroke-opacity:1; fill:none" points="2301.64,1309.2 2301.64,1290.31 "/>
<polyline clip-path="url(#clip290)" style="stroke:#000000; stroke-linecap:round; stroke-linejoin:round; stroke-width:4; stroke-opacity:1; fill:none" points="3157.79,1309.2 3157.79,1290.31 "/>
<polyline clip-path="url(#clip290)" style="stroke:#000000; stroke-linecap:round; stroke-linejoin:round; stroke-width:4; stroke-opacity:1; fill:none" points="4013.95,1309.2 4013.95,1290.31 "/>
<path clip-path="url(#clip290)" d="M563.016 1369.08 L588.982 1369.08 L588.982 1372.52 L563.016 1372.52 L563.016 1369.08 Z" fill="#000000" fill-rule="nonzero" fill-opacity="1" /><path clip-path="url(#clip290)" d="M601.337 1380.36 L615.617 1380.36 L615.617 1383.8 L596.415 1383.8 L596.415 1380.36 Q598.745 1377.95 602.755 1373.9 Q606.786 1369.83 607.819 1368.65 Q609.783 1366.44 610.553 1364.93 Q611.343 1363.39 611.343 1361.91 Q611.343 1359.5 609.642 1357.98 Q607.961 1356.46 605.246 1356.46 Q603.322 1356.46 601.175 1357.13 Q599.049 1357.8 596.618 1359.15 L596.618 1355.02 Q599.089 1354.03 601.236 1353.52 Q603.383 1353.02 605.165 1353.02 Q609.864 1353.02 612.66 1355.37 Q615.455 1357.71 615.455 1361.64 Q615.455 1363.51 614.746 1365.19 Q614.057 1366.85 612.214 1369.12 Q611.708 1369.71 608.993 1372.52 Q606.279 1375.32 601.337 1380.36 Z" fill="#000000" fill-rule="nonzero" fill-opacity="1" /><path clip-path="url(#clip290)" d="M1419.01 1369.08 L1444.98 1369.08 L1444.98 1372.52 L1419.01 1372.52 L1419.01 1369.08 Z" fill="#000000" fill-rule="nonzero" fill-opacity="1" /><path clip-path="url(#clip290)" d="M1454.52 1380.36 L1461.2 1380.36 L1461.2 1357.29 L1453.93 1358.75 L1453.93 1355.02 L1461.16 1353.56 L1465.25 1353.56 L1465.25 1380.36 L1471.94 1380.36 L1471.94 1383.8 L1454.52 1383.8 L1454.52 1380.36 Z" fill="#000000" fill-rule="nonzero" fill-opacity="1" /><path clip-path="url(#clip290)" d="M2301.64 1356.26 Q2298.48 1356.26 2296.88 1359.38 Q2295.3 1362.47 2295.3 1368.71 Q2295.3 1374.93 2296.88 1378.05 Q2298.48 1381.15 2301.64 1381.15 Q2304.82 1381.15 2306.4 1378.05 Q2308 1374.93 2308 1368.71 Q2308 1362.47 2306.4 1359.38 Q2304.82 1356.26 2301.64 1356.26 M2301.64 1353.02 Q2306.72 1353.02 2309.39 1357.05 Q2312.09 1361.06 2312.09 1368.71 Q2312.09 1376.35 2309.39 1380.38 Q2306.72 1384.39 2301.64 1384.39 Q2296.55 1384.39 2293.86 1380.38 Q2291.18 1376.35 2291.18 1368.71 Q2291.18 1361.06 2293.86 1357.05 Q2296.55 1353.02 2301.64 1353.02 Z" fill="#000000" fill-rule="nonzero" fill-opacity="1" /><path clip-path="url(#clip290)" d="M3149.38 1380.36 L3156.06 1380.36 L3156.06 1357.29 L3148.79 1358.75 L3148.79 1355.02 L3156.02 1353.56 L3160.11 1353.56 L3160.11 1380.36 L3166.8 1380.36 L3166.8 1383.8 L3149.38 1383.8 L3149.38 1380.36 Z" fill="#000000" fill-rule="nonzero" fill-opacity="1" /><path clip-path="url(#clip290)" d="M4009.28 1380.36 L4023.55 1380.36 L4023.55 1383.8 L4004.35 1383.8 L4004.35 1380.36 Q4006.68 1377.95 4010.69 1373.9 Q4014.72 1369.83 4015.76 1368.65 Q4017.72 1366.44 4018.49 1364.93 Q4019.28 1363.39 4019.28 1361.91 Q4019.28 1359.5 4017.58 1357.98 Q4015.9 1356.46 4013.18 1356.46 Q4011.26 1356.46 4009.11 1357.13 Q4006.99 1357.8 4004.56 1359.15 L4004.56 1355.02 Q4007.03 1354.03 4009.17 1353.52 Q4011.32 1353.02 4013.1 1353.02 Q4017.8 1353.02 4020.6 1355.37 Q4023.39 1357.71 4023.39 1361.64 Q4023.39 1363.51 4022.68 1365.19 Q4022 1366.85 4020.15 1369.12 Q4019.65 1369.71 4016.93 1372.52 Q4014.22 1375.32 4009.28 1380.36 Z" fill="#000000" fill-rule="nonzero" fill-opacity="1" /><polyline clip-path="url(#clip290)" style="stroke:#000000; stroke-linecap:round; stroke-linejoin:round; stroke-width:4; stroke-opacity:1; fill:none" points="163.416,1309.2 163.416,90.6026 "/>
<polyline clip-path="url(#clip290)" style="stroke:#000000; stroke-linecap:round; stroke-linejoin:round; stroke-width:4; stroke-opacity:1; fill:none" points="163.416,1266.21 182.314,1266.21 "/>
<polyline clip-path="url(#clip290)" style="stroke:#000000; stroke-linecap:round; stroke-linejoin:round; stroke-width:4; stroke-opacity:1; fill:none" points="163.416,1027.83 182.314,1027.83 "/>
<polyline clip-path="url(#clip290)" style="stroke:#000000; stroke-linecap:round; stroke-linejoin:round; stroke-width:4; stroke-opacity:1; fill:none" points="163.416,789.448 182.314,789.448 "/>
<polyline clip-path="url(#clip290)" style="stroke:#000000; stroke-linecap:round; stroke-linejoin:round; stroke-width:4; stroke-opacity:1; fill:none" points="163.416,551.068 182.314,551.068 "/>
<polyline clip-path="url(#clip290)" style="stroke:#000000; stroke-linecap:round; stroke-linejoin:round; stroke-width:4; stroke-opacity:1; fill:none" points="163.416,312.688 182.314,312.688 "/>
<path clip-path="url(#clip290)" d="M39.9921 1266.6 L65.9584 1266.6 L65.9584 1270.05 L39.9921 1270.05 L39.9921 1266.6 Z" fill="#000000" fill-rule="nonzero" fill-opacity="1" /><path clip-path="url(#clip290)" d="M86.0307 1254.65 L75.7008 1270.8 L86.0307 1270.8 L86.0307 1254.65 M84.9572 1251.09 L90.1018 1251.09 L90.1018 1270.8 L94.416 1270.8 L94.416 1274.2 L90.1018 1274.2 L90.1018 1281.33 L86.0307 1281.33 L86.0307 1274.2 L72.3791 1274.2 L72.3791 1270.25 L84.9572 1251.09 Z" fill="#000000" fill-rule="nonzero" fill-opacity="1" /><path clip-path="url(#clip290)" d="M41.815 1028.22 L67.7813 1028.22 L67.7813 1031.67 L41.815 1031.67 L41.815 1028.22 Z" fill="#000000" fill-rule="nonzero" fill-opacity="1" /><path clip-path="url(#clip290)" d="M80.1366 1039.5 L94.416 1039.5 L94.416 1042.95 L75.2147 1042.95 L75.2147 1039.5 Q77.544 1037.09 81.5544 1033.04 Q85.5851 1028.97 86.618 1027.8 Q88.5827 1025.59 89.3524 1024.07 Q90.1423 1022.53 90.1423 1021.05 Q90.1423 1018.64 88.4409 1017.12 Q86.7598 1015.6 84.0457 1015.6 Q82.1215 1015.6 79.9746 1016.27 Q77.8478 1016.94 75.4173 1018.3 L75.4173 1014.17 Q77.8883 1013.17 80.0353 1012.67 Q82.1823 1012.16 83.9647 1012.16 Q88.6637 1012.16 91.4589 1014.51 Q94.254 1016.86 94.254 1020.79 Q94.254 1022.65 93.5451 1024.33 Q92.8564 1026 91.0133 1028.26 Q90.5069 1028.85 87.7928 1031.67 Q85.0787 1034.46 80.1366 1039.5 Z" fill="#000000" fill-rule="nonzero" fill-opacity="1" /><path clip-path="url(#clip290)" d="M83.9647 777.022 Q80.805 777.022 79.2049 780.141 Q77.625 783.24 77.625 789.479 Q77.625 795.697 79.2049 798.816 Q80.805 801.915 83.9647 801.915 Q87.1447 801.915 88.7245 798.816 Q90.3246 795.697 90.3246 789.479 Q90.3246 783.24 88.7245 780.141 Q87.1447 777.022 83.9647 777.022 M83.9647 773.781 Q89.0486 773.781 91.7222 777.812 Q94.416 781.822 94.416 789.479 Q94.416 797.115 91.7222 801.145 Q89.0486 805.156 83.9647 805.156 Q78.8808 805.156 76.187 801.145 Q73.5134 797.115 73.5134 789.479 Q73.5134 781.822 76.187 777.812 Q78.8808 773.781 83.9647 773.781 Z" fill="#000000" fill-rule="nonzero" fill-opacity="1" /><path clip-path="url(#clip290)" d="M80.1366 562.745 L94.416 562.745 L94.416 566.188 L75.2147 566.188 L75.2147 562.745 Q77.544 560.335 81.5544 556.284 Q85.5851 552.213 86.618 551.038 Q88.5827 548.83 89.3524 547.311 Q90.1423 545.772 90.1423 544.293 Q90.1423 541.883 88.4409 540.364 Q86.7598 538.845 84.0457 538.845 Q82.1215 538.845 79.9746 539.513 Q77.8478 540.181 75.4173 541.539 L75.4173 537.407 Q77.8883 536.414 80.0353 535.908 Q82.1823 535.401 83.9647 535.401 Q88.6637 535.401 91.4589 537.751 Q94.254 540.1 94.254 544.03 Q94.254 545.893 93.5451 547.574 Q92.8564 549.235 91.0133 551.504 Q90.5069 552.091 87.7928 554.906 Q85.0787 557.702 80.1366 562.745 Z" fill="#000000" fill-rule="nonzero" fill-opacity="1" /><path clip-path="url(#clip290)" d="M86.0307 301.133 L75.7008 317.276 L86.0307 317.276 L86.0307 301.133 M84.9572 297.568 L90.1018 297.568 L90.1018 317.276 L94.416 317.276 L94.416 320.679 L90.1018 320.679 L90.1018 327.808 L86.0307 327.808 L86.0307 320.679 L72.3791 320.679 L72.3791 316.729 L84.9572 297.568 Z" fill="#000000" fill-rule="nonzero" fill-opacity="1" /><path clip-path="url(#clip290)" d="M1456.07 44.2197 Q1458.7 45.1109 1461.18 48.0275 Q1463.69 50.9442 1466.2 56.0483 L1474.5 72.576 L1465.71 72.576 L1457.98 57.061 Q1454.98 50.9847 1452.14 48.9997 Q1449.35 47.0148 1444.49 47.0148 L1435.57 47.0148 L1435.57 72.576 L1427.39 72.576 L1427.39 12.096 L1445.86 12.096 Q1456.23 12.096 1461.34 16.4305 Q1466.44 20.7649 1466.44 29.5149 Q1466.44 35.2267 1463.77 38.994 Q1461.13 42.7613 1456.07 44.2197 M1435.57 18.8205 L1435.57 40.2903 L1445.86 40.2903 Q1451.78 40.2903 1454.77 37.5762 Q1457.81 34.8216 1457.81 29.5149 Q1457.81 24.2082 1454.77 21.5346 Q1451.78 18.8205 1445.86 18.8205 L1435.57 18.8205 Z" fill="#000000" fill-rule="nonzero" fill-opacity="1" /><path clip-path="url(#clip290)" d="M1519.79 48.0275 L1519.79 51.6733 L1485.52 51.6733 Q1486.01 59.3701 1490.14 63.421 Q1494.31 67.4314 1501.72 67.4314 Q1506.02 67.4314 1510.03 66.3781 Q1514.08 65.3249 1518.05 63.2184 L1518.05 70.267 Q1514.04 71.9684 1509.83 72.8596 Q1505.61 73.7508 1501.28 73.7508 Q1490.42 73.7508 1484.06 67.4314 Q1477.74 61.1119 1477.74 50.3365 Q1477.74 39.1965 1483.74 32.6746 Q1489.77 26.1121 1499.98 26.1121 Q1509.14 26.1121 1514.44 32.0264 Q1519.79 37.9003 1519.79 48.0275 M1512.34 45.84 Q1512.26 39.7232 1508.89 36.0774 Q1505.57 32.4315 1500.06 32.4315 Q1493.83 32.4315 1490.06 35.9558 Q1486.33 39.4801 1485.76 45.8805 L1512.34 45.84 Z" fill="#000000" fill-rule="nonzero" fill-opacity="1" /><path clip-path="url(#clip290)" d="M1561.88 49.3643 Q1561.88 41.2625 1558.52 36.8065 Q1555.2 32.3505 1549.16 32.3505 Q1543.17 32.3505 1539.8 36.8065 Q1536.48 41.2625 1536.48 49.3643 Q1536.48 57.4256 1539.8 61.8816 Q1543.17 66.3376 1549.16 66.3376 Q1555.2 66.3376 1558.52 61.8816 Q1561.88 57.4256 1561.88 49.3643 M1569.33 66.9452 Q1569.33 78.5308 1564.19 84.1616 Q1559.05 89.8329 1548.43 89.8329 Q1544.5 89.8329 1541.02 89.2252 Q1537.53 88.6581 1534.25 87.4428 L1534.25 80.1917 Q1537.53 81.9741 1540.74 82.8248 Q1543.94 83.6755 1547.26 83.6755 Q1554.59 83.6755 1558.23 79.8271 Q1561.88 76.0193 1561.88 68.282 L1561.88 64.5957 Q1559.57 68.6061 1555.97 70.5911 Q1552.36 72.576 1547.34 72.576 Q1538.99 72.576 1533.89 66.2161 Q1528.78 59.8562 1528.78 49.3643 Q1528.78 38.832 1533.89 32.472 Q1538.99 26.1121 1547.34 26.1121 Q1552.36 26.1121 1555.97 28.0971 Q1559.57 30.082 1561.88 34.0924 L1561.88 27.2059 L1569.33 27.2059 L1569.33 66.9452 Z" fill="#000000" fill-rule="nonzero" fill-opacity="1" /><path clip-path="url(#clip290)" d="M1610.98 34.1734 Q1609.72 33.4443 1608.22 33.1202 Q1606.76 32.7556 1604.98 32.7556 Q1598.66 32.7556 1595.26 36.8875 Q1591.9 40.9789 1591.9 48.6757 L1591.9 72.576 L1584.4 72.576 L1584.4 27.2059 L1591.9 27.2059 L1591.9 34.2544 Q1594.25 30.1225 1598.01 28.1376 Q1601.78 26.1121 1607.17 26.1121 Q1607.94 26.1121 1608.87 26.2337 Q1609.8 26.3147 1610.94 26.5172 L1610.98 34.1734 Z" fill="#000000" fill-rule="nonzero" fill-opacity="1" /><path clip-path="url(#clip290)" d="M1655.78 48.0275 L1655.78 51.6733 L1621.51 51.6733 Q1622 59.3701 1626.13 63.421 Q1630.3 67.4314 1637.71 67.4314 Q1642.01 67.4314 1646.02 66.3781 Q1650.07 65.3249 1654.04 63.2184 L1654.04 70.267 Q1650.03 71.9684 1645.82 72.8596 Q1641.6 73.7508 1637.27 73.7508 Q1626.41 73.7508 1620.05 67.4314 Q1613.73 61.1119 1613.73 50.3365 Q1613.73 39.1965 1619.73 32.6746 Q1625.76 26.1121 1635.97 26.1121 Q1645.13 26.1121 1650.43 32.0264 Q1655.78 37.9003 1655.78 48.0275 M1648.33 45.84 Q1648.25 39.7232 1644.88 36.0774 Q1641.56 32.4315 1636.05 32.4315 Q1629.81 32.4315 1626.05 35.9558 Q1622.32 39.4801 1621.75 45.8805 L1648.33 45.84 Z" fill="#000000" fill-rule="nonzero" fill-opacity="1" /><path clip-path="url(#clip290)" d="M1696.94 28.5427 L1696.94 35.5912 Q1693.78 33.9709 1690.38 33.1607 Q1686.97 32.3505 1683.33 32.3505 Q1677.78 32.3505 1674.98 34.0519 Q1672.23 35.7533 1672.23 39.156 Q1672.23 41.7486 1674.21 43.2475 Q1676.2 44.7058 1682.19 46.0426 L1684.74 46.6097 Q1692.68 48.3111 1696.01 51.4303 Q1699.37 54.509 1699.37 60.0587 Q1699.37 66.3781 1694.35 70.0644 Q1689.36 73.7508 1680.61 73.7508 Q1676.97 73.7508 1673 73.0216 Q1669.07 72.3329 1664.69 70.9151 L1664.69 63.2184 Q1668.82 65.3654 1672.84 66.4591 Q1676.85 67.5124 1680.77 67.5124 Q1686.04 67.5124 1688.88 65.73 Q1691.71 63.9071 1691.71 60.6258 Q1691.71 57.5877 1689.65 55.9673 Q1687.62 54.3469 1680.69 52.8481 L1678.1 52.2405 Q1671.17 50.7821 1668.1 47.7845 Q1665.02 44.7463 1665.02 39.4801 Q1665.02 33.0797 1669.55 29.5959 Q1674.09 26.1121 1682.44 26.1121 Q1686.57 26.1121 1690.21 26.7198 Q1693.86 27.3274 1696.94 28.5427 Z" fill="#000000" fill-rule="nonzero" fill-opacity="1" /><path clip-path="url(#clip290)" d="M1740.16 28.5427 L1740.16 35.5912 Q1737 33.9709 1733.6 33.1607 Q1730.2 32.3505 1726.55 32.3505 Q1721 32.3505 1718.21 34.0519 Q1715.45 35.7533 1715.45 39.156 Q1715.45 41.7486 1717.44 43.2475 Q1719.42 44.7058 1725.42 46.0426 L1727.97 46.6097 Q1735.91 48.3111 1739.23 51.4303 Q1742.59 54.509 1742.59 60.0587 Q1742.59 66.3781 1737.57 70.0644 Q1732.59 73.7508 1723.84 73.7508 Q1720.19 73.7508 1716.22 73.0216 Q1712.29 72.3329 1707.92 70.9151 L1707.92 63.2184 Q1712.05 65.3654 1716.06 66.4591 Q1720.07 67.5124 1724 67.5124 Q1729.26 67.5124 1732.1 65.73 Q1734.94 63.9071 1734.94 60.6258 Q1734.94 57.5877 1732.87 55.9673 Q1730.84 54.3469 1723.92 52.8481 L1721.32 52.2405 Q1714.4 50.7821 1711.32 47.7845 Q1708.24 44.7463 1708.24 39.4801 Q1708.24 33.0797 1712.78 29.5959 Q1717.31 26.1121 1725.66 26.1121 Q1729.79 26.1121 1733.44 26.7198 Q1737.08 27.3274 1740.16 28.5427 Z" fill="#000000" fill-rule="nonzero" fill-opacity="1" /><path clip-path="url(#clip290)" d="M1754.46 27.2059 L1761.91 27.2059 L1761.91 72.576 L1754.46 72.576 L1754.46 27.2059 M1754.46 9.54393 L1761.91 9.54393 L1761.91 18.9825 L1754.46 18.9825 L1754.46 9.54393 Z" fill="#000000" fill-rule="nonzero" fill-opacity="1" /><path clip-path="url(#clip290)" d="M1795.09 32.4315 Q1789.1 32.4315 1785.61 37.1306 Q1782.13 41.7891 1782.13 49.9314 Q1782.13 58.0738 1785.57 62.7728 Q1789.06 67.4314 1795.09 67.4314 Q1801.05 67.4314 1804.53 62.7323 Q1808.01 58.0333 1808.01 49.9314 Q1808.01 41.8701 1804.53 37.1711 Q1801.05 32.4315 1795.09 32.4315 M1795.09 26.1121 Q1804.81 26.1121 1810.36 32.4315 Q1815.91 38.7509 1815.91 49.9314 Q1815.91 61.0714 1810.36 67.4314 Q1804.81 73.7508 1795.09 73.7508 Q1785.33 73.7508 1779.78 67.4314 Q1774.27 61.0714 1774.27 49.9314 Q1774.27 38.7509 1779.78 32.4315 Q1785.33 26.1121 1795.09 26.1121 Z" fill="#000000" fill-rule="nonzero" fill-opacity="1" /><path clip-path="url(#clip290)" d="M1865.98 45.1919 L1865.98 72.576 L1858.53 72.576 L1858.53 45.4349 Q1858.53 38.994 1856.02 35.7938 Q1853.51 32.5936 1848.48 32.5936 Q1842.45 32.5936 1838.96 36.4419 Q1835.48 40.2903 1835.48 46.9338 L1835.48 72.576 L1827.98 72.576 L1827.98 27.2059 L1835.48 27.2059 L1835.48 34.2544 Q1838.15 30.163 1841.76 28.1376 Q1845.4 26.1121 1850.14 26.1121 Q1857.96 26.1121 1861.97 30.9732 Q1865.98 35.7938 1865.98 45.1919 Z" fill="#000000" fill-rule="nonzero" fill-opacity="1" /><path clip-path="url(#clip290)" d="M1936.14 28.5427 L1936.14 35.5912 Q1932.98 33.9709 1929.58 33.1607 Q1926.18 32.3505 1922.53 32.3505 Q1916.98 32.3505 1914.19 34.0519 Q1911.43 35.7533 1911.43 39.156 Q1911.43 41.7486 1913.42 43.2475 Q1915.4 44.7058 1921.4 46.0426 L1923.95 46.6097 Q1931.89 48.3111 1935.21 51.4303 Q1938.57 54.509 1938.57 60.0587 Q1938.57 66.3781 1933.55 70.0644 Q1928.57 73.7508 1919.82 73.7508 Q1916.17 73.7508 1912.2 73.0216 Q1908.27 72.3329 1903.9 70.9151 L1903.9 63.2184 Q1908.03 65.3654 1912.04 66.4591 Q1916.05 67.5124 1919.98 67.5124 Q1925.25 67.5124 1928.08 65.73 Q1930.92 63.9071 1930.92 60.6258 Q1930.92 57.5877 1928.85 55.9673 Q1926.83 54.3469 1919.9 52.8481 L1917.31 52.2405 Q1910.38 50.7821 1907.3 47.7845 Q1904.22 44.7463 1904.22 39.4801 Q1904.22 33.0797 1908.76 29.5959 Q1913.3 26.1121 1921.64 26.1121 Q1925.77 26.1121 1929.42 26.7198 Q1933.07 27.3274 1936.14 28.5427 Z" fill="#000000" fill-rule="nonzero" fill-opacity="1" /><path clip-path="url(#clip290)" d="M1950.44 9.54393 L1957.9 9.54393 L1957.9 72.576 L1950.44 72.576 L1950.44 9.54393 Z" fill="#000000" fill-rule="nonzero" fill-opacity="1" /><path clip-path="url(#clip290)" d="M1991.07 32.4315 Q1985.08 32.4315 1981.59 37.1306 Q1978.11 41.7891 1978.11 49.9314 Q1978.11 58.0738 1981.55 62.7728 Q1985.04 67.4314 1991.07 67.4314 Q1997.03 67.4314 2000.51 62.7323 Q2004 58.0333 2004 49.9314 Q2004 41.8701 2000.51 37.1711 Q1997.03 32.4315 1991.07 32.4315 M1991.07 26.1121 Q2000.8 26.1121 2006.35 32.4315 Q2011.9 38.7509 2011.9 49.9314 Q2011.9 61.0714 2006.35 67.4314 Q2000.8 73.7508 1991.07 73.7508 Q1981.31 73.7508 1975.76 67.4314 Q1970.25 61.0714 1970.25 49.9314 Q1970.25 38.7509 1975.76 32.4315 Q1981.31 26.1121 1991.07 26.1121 Z" fill="#000000" fill-rule="nonzero" fill-opacity="1" /><path clip-path="url(#clip290)" d="M2031.46 65.7705 L2031.46 89.8329 L2023.97 89.8329 L2023.97 27.2059 L2031.46 27.2059 L2031.46 34.0924 Q2033.81 30.0415 2037.38 28.0971 Q2040.98 26.1121 2045.96 26.1121 Q2054.23 26.1121 2059.37 32.6746 Q2064.56 39.2371 2064.56 49.9314 Q2064.56 60.6258 2059.37 67.1883 Q2054.23 73.7508 2045.96 73.7508 Q2040.98 73.7508 2037.38 71.8063 Q2033.81 69.8214 2031.46 65.7705 M2056.82 49.9314 Q2056.82 41.7081 2053.42 37.0496 Q2050.06 32.3505 2044.14 32.3505 Q2038.23 32.3505 2034.82 37.0496 Q2031.46 41.7081 2031.46 49.9314 Q2031.46 58.1548 2034.82 62.8538 Q2038.23 67.5124 2044.14 67.5124 Q2050.06 67.5124 2053.42 62.8538 Q2056.82 58.1548 2056.82 49.9314 Z" fill="#000000" fill-rule="nonzero" fill-opacity="1" /><path clip-path="url(#clip290)" d="M2115.72 48.0275 L2115.72 51.6733 L2081.45 51.6733 Q2081.94 59.3701 2086.07 63.421 Q2090.24 67.4314 2097.65 67.4314 Q2101.95 67.4314 2105.96 66.3781 Q2110.01 65.3249 2113.98 63.2184 L2113.98 70.267 Q2109.97 71.9684 2105.76 72.8596 Q2101.54 73.7508 2097.21 73.7508 Q2086.35 73.7508 2079.99 67.4314 Q2073.67 61.1119 2073.67 50.3365 Q2073.67 39.1965 2079.67 32.6746 Q2085.7 26.1121 2095.91 26.1121 Q2105.07 26.1121 2110.37 32.0264 Q2115.72 37.9003 2115.72 48.0275 M2108.27 45.84 Q2108.19 39.7232 2104.82 36.0774 Q2101.5 32.4315 2095.99 32.4315 Q2089.75 32.4315 2085.99 35.9558 Q2082.26 39.4801 2081.69 45.8805 L2108.27 45.84 Z" fill="#000000" fill-rule="nonzero" fill-opacity="1" /><path clip-path="url(#clip290)" d="M2183.25 28.5427 L2183.25 35.5912 Q2180.09 33.9709 2176.69 33.1607 Q2173.28 32.3505 2169.64 32.3505 Q2164.09 32.3505 2161.29 34.0519 Q2158.54 35.7533 2158.54 39.156 Q2158.54 41.7486 2160.52 43.2475 Q2162.51 44.7058 2168.5 46.0426 L2171.06 46.6097 Q2179 48.3111 2182.32 51.4303 Q2185.68 54.509 2185.68 60.0587 Q2185.68 66.3781 2180.66 70.0644 Q2175.67 73.7508 2166.92 73.7508 Q2163.28 73.7508 2159.31 73.0216 Q2155.38 72.3329 2151 70.9151 L2151 63.2184 Q2155.14 65.3654 2159.15 66.4591 Q2163.16 67.5124 2167.09 67.5124 Q2172.35 67.5124 2175.19 65.73 Q2178.02 63.9071 2178.02 60.6258 Q2178.02 57.5877 2175.96 55.9673 Q2173.93 54.3469 2167 52.8481 L2164.41 52.2405 Q2157.49 50.7821 2154.41 47.7845 Q2151.33 44.7463 2151.33 39.4801 Q2151.33 33.0797 2155.86 29.5959 Q2160.4 26.1121 2168.75 26.1121 Q2172.88 26.1121 2176.52 26.7198 Q2180.17 27.3274 2183.25 28.5427 Z" fill="#000000" fill-rule="nonzero" fill-opacity="1" /><path clip-path="url(#clip290)" d="M2236.36 48.0275 L2236.36 51.6733 L2202.09 51.6733 Q2202.57 59.3701 2206.7 63.421 Q2210.88 67.4314 2218.29 67.4314 Q2222.58 67.4314 2226.59 66.3781 Q2230.64 65.3249 2234.61 63.2184 L2234.61 70.267 Q2230.6 71.9684 2226.39 72.8596 Q2222.18 73.7508 2217.84 73.7508 Q2206.99 73.7508 2200.63 67.4314 Q2194.31 61.1119 2194.31 50.3365 Q2194.31 39.1965 2200.3 32.6746 Q2206.34 26.1121 2216.55 26.1121 Q2225.7 26.1121 2231.01 32.0264 Q2236.36 37.9003 2236.36 48.0275 M2228.9 45.84 Q2228.82 39.7232 2225.46 36.0774 Q2222.14 32.4315 2216.63 32.4315 Q2210.39 32.4315 2206.62 35.9558 Q2202.9 39.4801 2202.33 45.8805 L2228.9 45.84 Z" fill="#000000" fill-rule="nonzero" fill-opacity="1" /><path clip-path="url(#clip290)" d="M2286.3 45.1919 L2286.3 72.576 L2278.85 72.576 L2278.85 45.4349 Q2278.85 38.994 2276.34 35.7938 Q2273.83 32.5936 2268.8 32.5936 Q2262.77 32.5936 2259.28 36.4419 Q2255.8 40.2903 2255.8 46.9338 L2255.8 72.576 L2248.31 72.576 L2248.31 27.2059 L2255.8 27.2059 L2255.8 34.2544 Q2258.47 30.163 2262.08 28.1376 Q2265.73 26.1121 2270.46 26.1121 Q2278.28 26.1121 2282.29 30.9732 Q2286.3 35.7938 2286.3 45.1919 Z" fill="#000000" fill-rule="nonzero" fill-opacity="1" /><path clip-path="url(#clip290)" d="M2330.09 28.5427 L2330.09 35.5912 Q2326.93 33.9709 2323.53 33.1607 Q2320.13 32.3505 2316.48 32.3505 Q2310.93 32.3505 2308.14 34.0519 Q2305.38 35.7533 2305.38 39.156 Q2305.38 41.7486 2307.37 43.2475 Q2309.35 44.7058 2315.35 46.0426 L2317.9 46.6097 Q2325.84 48.3111 2329.16 51.4303 Q2332.52 54.509 2332.52 60.0587 Q2332.52 66.3781 2327.5 70.0644 Q2322.52 73.7508 2313.77 73.7508 Q2310.12 73.7508 2306.15 73.0216 Q2302.22 72.3329 2297.85 70.9151 L2297.85 63.2184 Q2301.98 65.3654 2305.99 66.4591 Q2310 67.5124 2313.93 67.5124 Q2319.2 67.5124 2322.03 65.73 Q2324.87 63.9071 2324.87 60.6258 Q2324.87 57.5877 2322.8 55.9673 Q2320.78 54.3469 2313.85 52.8481 L2311.26 52.2405 Q2304.33 50.7821 2301.25 47.7845 Q2298.17 44.7463 2298.17 39.4801 Q2298.17 33.0797 2302.71 29.5959 Q2307.25 26.1121 2315.59 26.1121 Q2319.72 26.1121 2323.37 26.7198 Q2327.02 27.3274 2330.09 28.5427 Z" fill="#000000" fill-rule="nonzero" fill-opacity="1" /><path clip-path="url(#clip290)" d="M2344.39 27.2059 L2351.85 27.2059 L2351.85 72.576 L2344.39 72.576 L2344.39 27.2059 M2344.39 9.54393 L2351.85 9.54393 L2351.85 18.9825 L2344.39 18.9825 L2344.39 9.54393 Z" fill="#000000" fill-rule="nonzero" fill-opacity="1" /><path clip-path="url(#clip290)" d="M2374.82 14.324 L2374.82 27.2059 L2390.17 27.2059 L2390.17 32.9987 L2374.82 32.9987 L2374.82 57.6282 Q2374.82 63.1779 2376.32 64.7578 Q2377.85 66.3376 2382.51 66.3376 L2390.17 66.3376 L2390.17 72.576 L2382.51 72.576 Q2373.88 72.576 2370.6 69.3758 Q2367.32 66.1351 2367.32 57.6282 L2367.32 32.9987 L2361.85 32.9987 L2361.85 27.2059 L2367.32 27.2059 L2367.32 14.324 L2374.82 14.324 Z" fill="#000000" fill-rule="nonzero" fill-opacity="1" /><path clip-path="url(#clip290)" d="M2399.97 27.2059 L2407.43 27.2059 L2407.43 72.576 L2399.97 72.576 L2399.97 27.2059 M2399.97 9.54393 L2407.43 9.54393 L2407.43 18.9825 L2399.97 18.9825 L2399.97 9.54393 Z" fill="#000000" fill-rule="nonzero" fill-opacity="1" /><path clip-path="url(#clip290)" d="M2417.67 27.2059 L2425.57 27.2059 L2439.75 65.2844 L2453.93 27.2059 L2461.83 27.2059 L2444.82 72.576 L2434.69 72.576 L2417.67 27.2059 Z" fill="#000000" fill-rule="nonzero" fill-opacity="1" /><path clip-path="url(#clip290)" d="M2472.12 27.2059 L2479.57 27.2059 L2479.57 72.576 L2472.12 72.576 L2472.12 27.2059 M2472.12 9.54393 L2479.57 9.54393 L2479.57 18.9825 L2472.12 18.9825 L2472.12 9.54393 Z" fill="#000000" fill-rule="nonzero" fill-opacity="1" /><path clip-path="url(#clip290)" d="M2502.54 14.324 L2502.54 27.2059 L2517.89 27.2059 L2517.89 32.9987 L2502.54 32.9987 L2502.54 57.6282 Q2502.54 63.1779 2504.04 64.7578 Q2505.58 66.3376 2510.24 66.3376 L2517.89 66.3376 L2517.89 72.576 L2510.24 72.576 Q2501.61 72.576 2498.33 69.3758 Q2495.05 66.1351 2495.05 57.6282 L2495.05 32.9987 L2489.58 32.9987 L2489.58 27.2059 L2495.05 27.2059 L2495.05 14.324 L2502.54 14.324 Z" fill="#000000" fill-rule="nonzero" fill-opacity="1" /><path clip-path="url(#clip290)" d="M2546.57 76.7889 Q2543.41 84.8907 2540.42 87.3618 Q2537.42 89.8329 2532.4 89.8329 L2526.44 89.8329 L2526.44 83.5945 L2530.82 83.5945 Q2533.9 83.5945 2535.6 82.1361 Q2537.3 80.6778 2539.36 75.2496 L2540.7 71.8468 L2522.35 27.2059 L2530.25 27.2059 L2544.43 62.6918 L2558.61 27.2059 L2566.5 27.2059 L2546.57 76.7889 Z" fill="#000000" fill-rule="nonzero" fill-opacity="1" /><path clip-path="url(#clip290)" d="M2598.83 27.2059 L2606.28 27.2059 L2615.6 62.6108 L2624.88 27.2059 L2633.67 27.2059 L2642.99 62.6108 L2652.26 27.2059 L2659.72 27.2059 L2647.85 72.576 L2639.06 72.576 L2629.29 35.3887 L2619.49 72.576 L2610.7 72.576 L2598.83 27.2059 Z" fill="#000000" fill-rule="nonzero" fill-opacity="1" /><path clip-path="url(#clip290)" d="M2671.02 27.2059 L2678.47 27.2059 L2678.47 72.576 L2671.02 72.576 L2671.02 27.2059 M2671.02 9.54393 L2678.47 9.54393 L2678.47 18.9825 L2671.02 18.9825 L2671.02 9.54393 Z" fill="#000000" fill-rule="nonzero" fill-opacity="1" /><path clip-path="url(#clip290)" d="M2701.44 14.324 L2701.44 27.2059 L2716.79 27.2059 L2716.79 32.9987 L2701.44 32.9987 L2701.44 57.6282 Q2701.44 63.1779 2702.94 64.7578 Q2704.48 66.3376 2709.14 66.3376 L2716.79 66.3376 L2716.79 72.576 L2709.14 72.576 Q2700.51 72.576 2697.23 69.3758 Q2693.95 66.1351 2693.95 57.6282 L2693.95 32.9987 L2688.48 32.9987 L2688.48 27.2059 L2693.95 27.2059 L2693.95 14.324 L2701.44 14.324 Z" fill="#000000" fill-rule="nonzero" fill-opacity="1" /><path clip-path="url(#clip290)" d="M2764.31 45.1919 L2764.31 72.576 L2756.86 72.576 L2756.86 45.4349 Q2756.86 38.994 2754.35 35.7938 Q2751.83 32.5936 2746.81 32.5936 Q2740.77 32.5936 2737.29 36.4419 Q2733.81 40.2903 2733.81 46.9338 L2733.81 72.576 L2726.31 72.576 L2726.31 9.54393 L2733.81 9.54393 L2733.81 34.2544 Q2736.48 30.163 2740.09 28.1376 Q2743.73 26.1121 2748.47 26.1121 Q2756.29 26.1121 2760.3 30.9732 Q2764.31 35.7938 2764.31 45.1919 Z" fill="#000000" fill-rule="nonzero" fill-opacity="1" /><path clip-path="url(#clip290)" d="M2831.84 34.1734 Q2830.58 33.4443 2829.08 33.1202 Q2827.63 32.7556 2825.84 32.7556 Q2819.52 32.7556 2816.12 36.8875 Q2812.76 40.9789 2812.76 48.6757 L2812.76 72.576 L2805.27 72.576 L2805.27 27.2059 L2812.76 27.2059 L2812.76 34.2544 Q2815.11 30.1225 2818.88 28.1376 Q2822.64 26.1121 2828.03 26.1121 Q2828.8 26.1121 2829.73 26.2337 Q2830.66 26.3147 2831.8 26.5172 L2831.84 34.1734 Z" fill="#000000" fill-rule="nonzero" fill-opacity="1" /><path clip-path="url(#clip290)" d="M2876.64 48.0275 L2876.64 51.6733 L2842.37 51.6733 Q2842.86 59.3701 2846.99 63.421 Q2851.16 67.4314 2858.58 67.4314 Q2862.87 67.4314 2866.88 66.3781 Q2870.93 65.3249 2874.9 63.2184 L2874.9 70.267 Q2870.89 71.9684 2866.68 72.8596 Q2862.46 73.7508 2858.13 73.7508 Q2847.27 73.7508 2840.91 67.4314 Q2834.59 61.1119 2834.59 50.3365 Q2834.59 39.1965 2840.59 32.6746 Q2846.63 26.1121 2856.83 26.1121 Q2865.99 26.1121 2871.3 32.0264 Q2876.64 37.9003 2876.64 48.0275 M2869.19 45.84 Q2869.11 39.7232 2865.75 36.0774 Q2862.42 32.4315 2856.91 32.4315 Q2850.68 32.4315 2846.91 35.9558 Q2843.18 39.4801 2842.61 45.8805 L2869.19 45.84 Z" fill="#000000" fill-rule="nonzero" fill-opacity="1" /><path clip-path="url(#clip290)" d="M2917.8 28.5427 L2917.8 35.5912 Q2914.64 33.9709 2911.24 33.1607 Q2907.83 32.3505 2904.19 32.3505 Q2898.64 32.3505 2895.84 34.0519 Q2893.09 35.7533 2893.09 39.156 Q2893.09 41.7486 2895.07 43.2475 Q2897.06 44.7058 2903.05 46.0426 L2905.61 46.6097 Q2913.55 48.3111 2916.87 51.4303 Q2920.23 54.509 2920.23 60.0587 Q2920.23 66.3781 2915.21 70.0644 Q2910.22 73.7508 2901.47 73.7508 Q2897.83 73.7508 2893.86 73.0216 Q2889.93 72.3329 2885.55 70.9151 L2885.55 63.2184 Q2889.69 65.3654 2893.7 66.4591 Q2897.71 67.5124 2901.64 67.5124 Q2906.9 67.5124 2909.74 65.73 Q2912.57 63.9071 2912.57 60.6258 Q2912.57 57.5877 2910.51 55.9673 Q2908.48 54.3469 2901.56 52.8481 L2898.96 52.2405 Q2892.04 50.7821 2888.96 47.7845 Q2885.88 44.7463 2885.88 39.4801 Q2885.88 33.0797 2890.42 29.5959 Q2894.95 26.1121 2903.3 26.1121 Q2907.43 26.1121 2911.07 26.7198 Q2914.72 27.3274 2917.8 28.5427 Z" fill="#000000" fill-rule="nonzero" fill-opacity="1" /><path clip-path="url(#clip290)" d="M2939.31 65.7705 L2939.31 89.8329 L2931.82 89.8329 L2931.82 27.2059 L2939.31 27.2059 L2939.31 34.0924 Q2941.66 30.0415 2945.22 28.0971 Q2948.83 26.1121 2953.81 26.1121 Q2962.08 26.1121 2967.22 32.6746 Q2972.41 39.2371 2972.41 49.9314 Q2972.41 60.6258 2967.22 67.1883 Q2962.08 73.7508 2953.81 73.7508 Q2948.83 73.7508 2945.22 71.8063 Q2941.66 69.8214 2939.31 65.7705 M2964.67 49.9314 Q2964.67 41.7081 2961.27 37.0496 Q2957.9 32.3505 2951.99 32.3505 Q2946.07 32.3505 2942.67 37.0496 Q2939.31 41.7081 2939.31 49.9314 Q2939.31 58.1548 2942.67 62.8538 Q2946.07 67.5124 2951.99 67.5124 Q2957.9 67.5124 2961.27 62.8538 Q2964.67 58.1548 2964.67 49.9314 Z" fill="#000000" fill-rule="nonzero" fill-opacity="1" /><path clip-path="url(#clip290)" d="M3023.57 48.0275 L3023.57 51.6733 L2989.3 51.6733 Q2989.78 59.3701 2993.92 63.421 Q2998.09 67.4314 3005.5 67.4314 Q3009.8 67.4314 3013.81 66.3781 Q3017.86 65.3249 3021.83 63.2184 L3021.83 70.267 Q3017.82 71.9684 3013.6 72.8596 Q3009.39 73.7508 3005.06 73.7508 Q2994.2 73.7508 2987.84 67.4314 Q2981.52 61.1119 2981.52 50.3365 Q2981.52 39.1965 2987.52 32.6746 Q2993.55 26.1121 3003.76 26.1121 Q3012.91 26.1121 3018.22 32.0264 Q3023.57 37.9003 3023.57 48.0275 M3016.11 45.84 Q3016.03 39.7232 3012.67 36.0774 Q3009.35 32.4315 3003.84 32.4315 Q2997.6 32.4315 2993.83 35.9558 Q2990.11 39.4801 2989.54 45.8805 L3016.11 45.84 Z" fill="#000000" fill-rule="nonzero" fill-opacity="1" /><path clip-path="url(#clip290)" d="M3068.45 28.9478 L3068.45 35.9153 Q3065.29 34.1734 3062.09 33.3227 Q3058.93 32.4315 3055.69 32.4315 Q3048.44 32.4315 3044.43 37.0496 Q3040.42 41.6271 3040.42 49.9314 Q3040.42 58.2358 3044.43 62.8538 Q3048.44 67.4314 3055.69 67.4314 Q3058.93 67.4314 3062.09 66.5807 Q3065.29 65.6895 3068.45 63.9476 L3068.45 70.8341 Q3065.33 72.2924 3061.97 73.0216 Q3058.65 73.7508 3054.88 73.7508 Q3044.63 73.7508 3038.6 67.3098 Q3032.56 60.8689 3032.56 49.9314 Q3032.56 38.832 3038.64 32.472 Q3044.75 26.1121 3055.37 26.1121 Q3058.81 26.1121 3062.09 26.8413 Q3065.37 27.5299 3068.45 28.9478 Z" fill="#000000" fill-rule="nonzero" fill-opacity="1" /><path clip-path="url(#clip290)" d="M3088.79 14.324 L3088.79 27.2059 L3104.14 27.2059 L3104.14 32.9987 L3088.79 32.9987 L3088.79 57.6282 Q3088.79 63.1779 3090.29 64.7578 Q3091.83 66.3376 3096.48 66.3376 L3104.14 66.3376 L3104.14 72.576 L3096.48 72.576 Q3087.86 72.576 3084.58 69.3758 Q3081.29 66.1351 3081.29 57.6282 L3081.29 32.9987 L3075.83 32.9987 L3075.83 27.2059 L3081.29 27.2059 L3081.29 14.324 L3088.79 14.324 Z" fill="#000000" fill-rule="nonzero" fill-opacity="1" /><path clip-path="url(#clip290)" d="M3147.69 14.324 L3147.69 27.2059 L3163.04 27.2059 L3163.04 32.9987 L3147.69 32.9987 L3147.69 57.6282 Q3147.69 63.1779 3149.19 64.7578 Q3150.73 66.3376 3155.38 66.3376 L3163.04 66.3376 L3163.04 72.576 L3155.38 72.576 Q3146.76 72.576 3143.48 69.3758 Q3140.19 66.1351 3140.19 57.6282 L3140.19 32.9987 L3134.73 32.9987 L3134.73 27.2059 L3140.19 27.2059 L3140.19 14.324 L3147.69 14.324 Z" fill="#000000" fill-rule="nonzero" fill-opacity="1" /><path clip-path="url(#clip290)" d="M3190.43 32.4315 Q3184.43 32.4315 3180.95 37.1306 Q3177.46 41.7891 3177.46 49.9314 Q3177.46 58.0738 3180.91 62.7728 Q3184.39 67.4314 3190.43 67.4314 Q3196.38 67.4314 3199.86 62.7323 Q3203.35 58.0333 3203.35 49.9314 Q3203.35 41.8701 3199.86 37.1711 Q3196.38 32.4315 3190.43 32.4315 M3190.43 26.1121 Q3200.15 26.1121 3205.7 32.4315 Q3211.25 38.7509 3211.25 49.9314 Q3211.25 61.0714 3205.7 67.4314 Q3200.15 73.7508 3190.43 73.7508 Q3180.66 73.7508 3175.11 67.4314 Q3169.6 61.0714 3169.6 49.9314 Q3169.6 38.7509 3175.11 32.4315 Q3180.66 26.1121 3190.43 26.1121 Z" fill="#000000" fill-rule="nonzero" fill-opacity="1" /><path clip-path="url(#clip290)" d="M3268.85 76.7889 Q3265.69 84.8907 3262.69 87.3618 Q3259.7 89.8329 3254.67 89.8329 L3248.72 89.8329 L3248.72 83.5945 L3253.09 83.5945 Q3256.17 83.5945 3257.87 82.1361 Q3259.57 80.6778 3261.64 75.2496 L3262.98 71.8468 L3244.63 27.2059 L3252.53 27.2059 L3266.7 62.6918 L3280.88 27.2059 L3288.78 27.2059 L3268.85 76.7889 Z" fill="#000000" fill-rule="nonzero" fill-opacity="1" /><circle clip-path="url(#clip291)" cx="2031.96" cy="771.071" r="7.01634" fill="#0000ff" fill-rule="evenodd" fill-opacity="1" stroke="#000000" stroke-opacity="1" stroke-width="2.8"/>
<circle clip-path="url(#clip291)" cx="2035.15" cy="875.769" r="6.96642" fill="#0000ff" fill-rule="evenodd" fill-opacity="1" stroke="#000000" stroke-opacity="1" stroke-width="2.8"/>
<circle clip-path="url(#clip291)" cx="3000.52" cy="562.453" r="16.742" fill="#ff0000" fill-rule="evenodd" fill-opacity="1" stroke="#000000" stroke-opacity="1" stroke-width="2.8"/>
<circle clip-path="url(#clip291)" cx="2709.8" cy="604.371" r="12.2041" fill="#ff0000" fill-rule="evenodd" fill-opacity="1" stroke="#000000" stroke-opacity="1" stroke-width="2.8"/>
<circle clip-path="url(#clip291)" cx="1565.72" cy="852.245" r="14.2938" fill="#0000ff" fill-rule="evenodd" fill-opacity="1" stroke="#000000" stroke-opacity="1" stroke-width="2.8"/>
<circle clip-path="url(#clip291)" cx="1043.69" cy="857.409" r="22.4421" fill="#0000ff" fill-rule="evenodd" fill-opacity="1" stroke="#000000" stroke-opacity="1" stroke-width="2.8"/>
<circle clip-path="url(#clip291)" cx="906.824" cy="1015.19" r="24.5785" fill="#0000ff" fill-rule="evenodd" fill-opacity="1" stroke="#000000" stroke-opacity="1" stroke-width="2.8"/>
<circle clip-path="url(#clip291)" cx="3486.84" cy="351.82" r="24.333" fill="#ff0000" fill-rule="evenodd" fill-opacity="1" stroke="#000000" stroke-opacity="1" stroke-width="2.8"/>
<circle clip-path="url(#clip291)" cx="1595.02" cy="917.089" r="13.8365" fill="#0000ff" fill-rule="evenodd" fill-opacity="1" stroke="#000000" stroke-opacity="1" stroke-width="2.8"/>
<circle clip-path="url(#clip291)" cx="3021.06" cy="527.614" r="17.0625" fill="#ff0000" fill-rule="evenodd" fill-opacity="1" stroke="#000000" stroke-opacity="1" stroke-width="2.8"/>
<circle clip-path="url(#clip291)" cx="2673.11" cy="629.909" r="11.6314" fill="#ff0000" fill-rule="evenodd" fill-opacity="1" stroke="#000000" stroke-opacity="1" stroke-width="2.8"/>
<circle clip-path="url(#clip291)" cx="1963.08" cy="821.528" r="8.09148" fill="#0000ff" fill-rule="evenodd" fill-opacity="1" stroke="#000000" stroke-opacity="1" stroke-width="2.8"/>
<circle clip-path="url(#clip291)" cx="2744.38" cy="706.999" r="12.7439" fill="#ff0000" fill-rule="evenodd" fill-opacity="1" stroke="#000000" stroke-opacity="1" stroke-width="2.8"/>
<circle clip-path="url(#clip291)" cx="3540.69" cy="484.226" r="25.1735" fill="#ff0000" fill-rule="evenodd" fill-opacity="1" stroke="#000000" stroke-opacity="1" stroke-width="2.8"/>
<circle clip-path="url(#clip291)" cx="875.438" cy="1093.58" r="25.0684" fill="#0000ff" fill-rule="evenodd" fill-opacity="1" stroke="#000000" stroke-opacity="1" stroke-width="2.8"/>
<circle clip-path="url(#clip291)" cx="2628.38" cy="513.065" r="10.9332" fill="#ff0000" fill-rule="evenodd" fill-opacity="1" stroke="#000000" stroke-opacity="1" stroke-width="2.8"/>
<circle clip-path="url(#clip291)" cx="1249.34" cy="1160.27" r="19.2322" fill="#0000ff" fill-rule="evenodd" fill-opacity="1" stroke="#000000" stroke-opacity="1" stroke-width="2.8"/>
<circle clip-path="url(#clip291)" cx="2218.95" cy="747.043" r="4.5424" fill="#ff0000" fill-rule="evenodd" fill-opacity="1" stroke="#000000" stroke-opacity="1" stroke-width="2.8"/>
<circle clip-path="url(#clip291)" cx="1117.73" cy="1140.47" r="21.2865" fill="#0000ff" fill-rule="evenodd" fill-opacity="1" stroke="#000000" stroke-opacity="1" stroke-width="2.8"/>
<circle clip-path="url(#clip291)" cx="1049.55" cy="881.068" r="22.3507" fill="#0000ff" fill-rule="evenodd" fill-opacity="1" stroke="#000000" stroke-opacity="1" stroke-width="2.8"/>
<circle clip-path="url(#clip291)" cx="3415.47" cy="537.388" r="23.219" fill="#ff0000" fill-rule="evenodd" fill-opacity="1" stroke="#000000" stroke-opacity="1" stroke-width="2.8"/>
<circle clip-path="url(#clip291)" cx="4241.93" cy="524.464" r="36.1191" fill="#ff0000" fill-rule="evenodd" fill-opacity="1" stroke="#000000" stroke-opacity="1" stroke-width="2.8"/>
<circle clip-path="url(#clip291)" cx="2495.86" cy="662.686" r="8.86473" fill="#ff0000" fill-rule="evenodd" fill-opacity="1" stroke="#000000" stroke-opacity="1" stroke-width="2.8"/>
<circle clip-path="url(#clip291)" cx="2515.16" cy="756.276" r="9.16594" fill="#ff0000" fill-rule="evenodd" fill-opacity="1" stroke="#000000" stroke-opacity="1" stroke-width="2.8"/>
<circle clip-path="url(#clip291)" cx="3072.13" cy="383.543" r="17.8597" fill="#ff0000" fill-rule="evenodd" fill-opacity="1" stroke="#000000" stroke-opacity="1" stroke-width="2.8"/>
<circle clip-path="url(#clip291)" cx="2544.92" cy="651.851" r="9.63051" fill="#ff0000" fill-rule="evenodd" fill-opacity="1" stroke="#000000" stroke-opacity="1" stroke-width="2.8"/>
<circle clip-path="url(#clip291)" cx="3246.48" cy="470.811" r="20.5812" fill="#ff0000" fill-rule="evenodd" fill-opacity="1" stroke="#000000" stroke-opacity="1" stroke-width="2.8"/>
<circle clip-path="url(#clip291)" cx="2870.02" cy="490.319" r="14.7051" fill="#ff0000" fill-rule="evenodd" fill-opacity="1" stroke="#000000" stroke-opacity="1" stroke-width="2.8"/>
<circle clip-path="url(#clip291)" cx="2448.27" cy="813.289" r="8.12191" fill="#ff0000" fill-rule="evenodd" fill-opacity="1" stroke="#000000" stroke-opacity="1" stroke-width="2.8"/>
<circle clip-path="url(#clip291)" cx="3260.46" cy="612.637" r="20.7994" fill="#ff0000" fill-rule="evenodd" fill-opacity="1" stroke="#000000" stroke-opacity="1" stroke-width="2.8"/>
<circle clip-path="url(#clip291)" cx="2609.4" cy="612.156" r="10.6371" fill="#ff0000" fill-rule="evenodd" fill-opacity="1" stroke="#000000" stroke-opacity="1" stroke-width="2.8"/>
<circle clip-path="url(#clip291)" cx="2130.66" cy="812.666" r="5.4757" fill="#0000ff" fill-rule="evenodd" fill-opacity="1" stroke="#000000" stroke-opacity="1" stroke-width="2.8"/>
<circle clip-path="url(#clip291)" cx="1971.49" cy="762.632" r="7.96013" fill="#0000ff" fill-rule="evenodd" fill-opacity="1" stroke="#000000" stroke-opacity="1" stroke-width="2.8"/>
<circle clip-path="url(#clip291)" cx="1925.16" cy="857.645" r="8.6833" fill="#0000ff" fill-rule="evenodd" fill-opacity="1" stroke="#000000" stroke-opacity="1" stroke-width="2.8"/>
<circle clip-path="url(#clip291)" cx="2840.92" cy="729.36" r="14.2507" fill="#ff0000" fill-rule="evenodd" fill-opacity="1" stroke="#000000" stroke-opacity="1" stroke-width="2.8"/>
<circle clip-path="url(#clip291)" cx="2242.04" cy="631.696" r="4.90281" fill="#ff0000" fill-rule="evenodd" fill-opacity="1" stroke="#000000" stroke-opacity="1" stroke-width="2.8"/>
<circle clip-path="url(#clip291)" cx="1634.76" cy="847.402" r="13.2161" fill="#0000ff" fill-rule="evenodd" fill-opacity="1" stroke="#000000" stroke-opacity="1" stroke-width="2.8"/>
<circle clip-path="url(#clip291)" cx="1549.29" cy="818.574" r="14.5502" fill="#0000ff" fill-rule="evenodd" fill-opacity="1" stroke="#000000" stroke-opacity="1" stroke-width="2.8"/>
<circle clip-path="url(#clip291)" cx="3493.29" cy="532.466" r="24.4335" fill="#ff0000" fill-rule="evenodd" fill-opacity="1" stroke="#000000" stroke-opacity="1" stroke-width="2.8"/>
<circle clip-path="url(#clip291)" cx="2941.15" cy="697.727" r="15.8152" fill="#ff0000" fill-rule="evenodd" fill-opacity="1" stroke="#000000" stroke-opacity="1" stroke-width="2.8"/>
<circle clip-path="url(#clip291)" cx="2269.61" cy="643.691" r="5.33327" fill="#ff0000" fill-rule="evenodd" fill-opacity="1" stroke="#000000" stroke-opacity="1" stroke-width="2.8"/>
<circle clip-path="url(#clip291)" cx="2160.17" cy="883.452" r="5.01506" fill="#0000ff" fill-rule="evenodd" fill-opacity="1" stroke="#000000" stroke-opacity="1" stroke-width="2.8"/>
<circle clip-path="url(#clip291)" cx="2155.27" cy="623.509" r="5.09157" fill="#0000ff" fill-rule="evenodd" fill-opacity="1" stroke="#000000" stroke-opacity="1" stroke-width="2.8"/>
<circle clip-path="url(#clip291)" cx="1748.41" cy="916.979" r="11.4422" fill="#0000ff" fill-rule="evenodd" fill-opacity="1" stroke="#000000" stroke-opacity="1" stroke-width="2.8"/>
<circle clip-path="url(#clip291)" cx="1530.62" cy="1019.32" r="14.8416" fill="#0000ff" fill-rule="evenodd" fill-opacity="1" stroke="#000000" stroke-opacity="1" stroke-width="2.8"/>
<circle clip-path="url(#clip291)" cx="2136.39" cy="590.925" r="5.38621" fill="#0000ff" fill-rule="evenodd" fill-opacity="1" stroke="#000000" stroke-opacity="1" stroke-width="2.8"/>
<circle clip-path="url(#clip291)" cx="2702.76" cy="657.233" r="12.0942" fill="#ff0000" fill-rule="evenodd" fill-opacity="1" stroke="#000000" stroke-opacity="1" stroke-width="2.8"/>
<circle clip-path="url(#clip291)" cx="1422.34" cy="927.848" r="16.5318" fill="#0000ff" fill-rule="evenodd" fill-opacity="1" stroke="#000000" stroke-opacity="1" stroke-width="2.8"/>
<circle clip-path="url(#clip291)" cx="1771.07" cy="801.091" r="11.0885" fill="#0000ff" fill-rule="evenodd" fill-opacity="1" stroke="#000000" stroke-opacity="1" stroke-width="2.8"/>
<circle clip-path="url(#clip291)" cx="2845.9" cy="523.696" r="14.3285" fill="#ff0000" fill-rule="evenodd" fill-opacity="1" stroke="#000000" stroke-opacity="1" stroke-width="2.8"/>
<circle clip-path="url(#clip291)" cx="1891.86" cy="762.987" r="9.20312" fill="#0000ff" fill-rule="evenodd" fill-opacity="1" stroke="#000000" stroke-opacity="1" stroke-width="2.8"/>
<circle clip-path="url(#clip291)" cx="3153.25" cy="547.05" r="19.126" fill="#ff0000" fill-rule="evenodd" fill-opacity="1" stroke="#000000" stroke-opacity="1" stroke-width="2.8"/>
<circle clip-path="url(#clip291)" cx="2584.45" cy="631.906" r="10.2476" fill="#ff0000" fill-rule="evenodd" fill-opacity="1" stroke="#000000" stroke-opacity="1" stroke-width="2.8"/>
<circle clip-path="url(#clip291)" cx="2624.83" cy="742.873" r="10.8778" fill="#ff0000" fill-rule="evenodd" fill-opacity="1" stroke="#000000" stroke-opacity="1" stroke-width="2.8"/>
<circle clip-path="url(#clip291)" cx="1413.5" cy="972.334" r="16.6698" fill="#0000ff" fill-rule="evenodd" fill-opacity="1" stroke="#000000" stroke-opacity="1" stroke-width="2.8"/>
<circle clip-path="url(#clip291)" cx="4428.53" cy="125.091" r="39.0317" fill="#ff0000" fill-rule="evenodd" fill-opacity="1" stroke="#000000" stroke-opacity="1" stroke-width="2.8"/>
<circle clip-path="url(#clip291)" cx="1480.55" cy="885.501" r="15.6232" fill="#0000ff" fill-rule="evenodd" fill-opacity="1" stroke="#000000" stroke-opacity="1" stroke-width="2.8"/>
<circle clip-path="url(#clip291)" cx="2322.14" cy="916.621" r="6.15317" fill="#ff0000" fill-rule="evenodd" fill-opacity="1" stroke="#000000" stroke-opacity="1" stroke-width="2.8"/>
<circle clip-path="url(#clip291)" cx="3350.68" cy="530.173" r="22.2077" fill="#ff0000" fill-rule="evenodd" fill-opacity="1" stroke="#000000" stroke-opacity="1" stroke-width="2.8"/>
<circle clip-path="url(#clip291)" cx="3418.39" cy="522.353" r="23.2644" fill="#ff0000" fill-rule="evenodd" fill-opacity="1" stroke="#000000" stroke-opacity="1" stroke-width="2.8"/>
<circle clip-path="url(#clip291)" cx="1924.91" cy="885.649" r="8.6872" fill="#0000ff" fill-rule="evenodd" fill-opacity="1" stroke="#000000" stroke-opacity="1" stroke-width="2.8"/>
<circle clip-path="url(#clip291)" cx="777.72" cy="1115.65" r="26.5937" fill="#0000ff" fill-rule="evenodd" fill-opacity="1" stroke="#000000" stroke-opacity="1" stroke-width="2.8"/>
<circle clip-path="url(#clip291)" cx="2681.88" cy="667.651" r="11.7683" fill="#ff0000" fill-rule="evenodd" fill-opacity="1" stroke="#000000" stroke-opacity="1" stroke-width="2.8"/>
<circle clip-path="url(#clip291)" cx="1835.5" cy="900.895" r="10.0828" fill="#0000ff" fill-rule="evenodd" fill-opacity="1" stroke="#000000" stroke-opacity="1" stroke-width="2.8"/>
<circle clip-path="url(#clip291)" cx="2765.28" cy="746.923" r="13.0701" fill="#ff0000" fill-rule="evenodd" fill-opacity="1" stroke="#000000" stroke-opacity="1" stroke-width="2.8"/>
<circle clip-path="url(#clip291)" cx="482.189" cy="1274.71" r="31.2066" fill="#0000ff" fill-rule="evenodd" fill-opacity="1" stroke="#000000" stroke-opacity="1" stroke-width="2.8"/>
<circle clip-path="url(#clip291)" cx="1881.25" cy="930.9" r="9.36872" fill="#0000ff" fill-rule="evenodd" fill-opacity="1" stroke="#000000" stroke-opacity="1" stroke-width="2.8"/>
<circle clip-path="url(#clip291)" cx="1835.59" cy="761.555" r="10.0814" fill="#0000ff" fill-rule="evenodd" fill-opacity="1" stroke="#000000" stroke-opacity="1" stroke-width="2.8"/>
<circle clip-path="url(#clip291)" cx="1401.78" cy="848.921" r="16.8527" fill="#0000ff" fill-rule="evenodd" fill-opacity="1" stroke="#000000" stroke-opacity="1" stroke-width="2.8"/>
<circle clip-path="url(#clip291)" cx="2625.75" cy="762.246" r="10.8922" fill="#ff0000" fill-rule="evenodd" fill-opacity="1" stroke="#000000" stroke-opacity="1" stroke-width="2.8"/>
<circle clip-path="url(#clip291)" cx="1432.19" cy="908.343" r="16.3781" fill="#0000ff" fill-rule="evenodd" fill-opacity="1" stroke="#000000" stroke-opacity="1" stroke-width="2.8"/>
<circle clip-path="url(#clip291)" cx="3089.6" cy="550.129" r="18.1325" fill="#ff0000" fill-rule="evenodd" fill-opacity="1" stroke="#000000" stroke-opacity="1" stroke-width="2.8"/>
<circle clip-path="url(#clip291)" cx="1538.3" cy="925.403" r="14.7218" fill="#0000ff" fill-rule="evenodd" fill-opacity="1" stroke="#000000" stroke-opacity="1" stroke-width="2.8"/>
<circle clip-path="url(#clip291)" cx="3084.83" cy="613.152" r="18.058" fill="#ff0000" fill-rule="evenodd" fill-opacity="1" stroke="#000000" stroke-opacity="1" stroke-width="2.8"/>
<circle clip-path="url(#clip291)" cx="935.535" cy="1136.73" r="24.1303" fill="#0000ff" fill-rule="evenodd" fill-opacity="1" stroke="#000000" stroke-opacity="1" stroke-width="2.8"/>
<circle clip-path="url(#clip291)" cx="1912.9" cy="823.627" r="8.87471" fill="#0000ff" fill-rule="evenodd" fill-opacity="1" stroke="#000000" stroke-opacity="1" stroke-width="2.8"/>
<circle clip-path="url(#clip291)" cx="2340.12" cy="570.532" r="6.43381" fill="#ff0000" fill-rule="evenodd" fill-opacity="1" stroke="#000000" stroke-opacity="1" stroke-width="2.8"/>
<circle clip-path="url(#clip291)" cx="1623.31" cy="1006.02" r="13.3948" fill="#0000ff" fill-rule="evenodd" fill-opacity="1" stroke="#000000" stroke-opacity="1" stroke-width="2.8"/>
<circle clip-path="url(#clip291)" cx="1864.47" cy="864.568" r="9.63062" fill="#0000ff" fill-rule="evenodd" fill-opacity="1" stroke="#000000" stroke-opacity="1" stroke-width="2.8"/>
<circle clip-path="url(#clip291)" cx="3266.78" cy="717.263" r="20.898" fill="#ff0000" fill-rule="evenodd" fill-opacity="1" stroke="#000000" stroke-opacity="1" stroke-width="2.8"/>
<circle clip-path="url(#clip291)" cx="1244.48" cy="884.842" r="19.3081" fill="#0000ff" fill-rule="evenodd" fill-opacity="1" stroke="#000000" stroke-opacity="1" stroke-width="2.8"/>
<circle clip-path="url(#clip291)" cx="2194.35" cy="809.139" r="4.48148" fill="#0000ff" fill-rule="evenodd" fill-opacity="1" stroke="#000000" stroke-opacity="1" stroke-width="2.8"/>
<circle clip-path="url(#clip291)" cx="1628.99" cy="1070.02" r="13.3062" fill="#0000ff" fill-rule="evenodd" fill-opacity="1" stroke="#000000" stroke-opacity="1" stroke-width="2.8"/>
<circle clip-path="url(#clip291)" cx="1952.24" cy="763.684" r="8.26065" fill="#0000ff" fill-rule="evenodd" fill-opacity="1" stroke="#000000" stroke-opacity="1" stroke-width="2.8"/>
<circle clip-path="url(#clip291)" cx="823.219" cy="985.262" r="25.8835" fill="#0000ff" fill-rule="evenodd" fill-opacity="1" stroke="#000000" stroke-opacity="1" stroke-width="2.8"/>
<circle clip-path="url(#clip291)" cx="2778.58" cy="672.264" r="13.2777" fill="#ff0000" fill-rule="evenodd" fill-opacity="1" stroke="#000000" stroke-opacity="1" stroke-width="2.8"/>
<circle clip-path="url(#clip291)" cx="2784.05" cy="621.823" r="13.3631" fill="#ff0000" fill-rule="evenodd" fill-opacity="1" stroke="#000000" stroke-opacity="1" stroke-width="2.8"/>
<circle clip-path="url(#clip291)" cx="892.217" cy="1010.56" r="24.8065" fill="#0000ff" fill-rule="evenodd" fill-opacity="1" stroke="#000000" stroke-opacity="1" stroke-width="2.8"/>
<circle clip-path="url(#clip291)" cx="3176.49" cy="517.252" r="19.4887" fill="#ff0000" fill-rule="evenodd" fill-opacity="1" stroke="#000000" stroke-opacity="1" stroke-width="2.8"/>
<circle clip-path="url(#clip291)" cx="2300.83" cy="789.538" r="5.82053" fill="#ff0000" fill-rule="evenodd" fill-opacity="1" stroke="#000000" stroke-opacity="1" stroke-width="2.8"/>
<circle clip-path="url(#clip291)" cx="1016.73" cy="1241.15" r="22.8629" fill="#0000ff" fill-rule="evenodd" fill-opacity="1" stroke="#000000" stroke-opacity="1" stroke-width="2.8"/>
<circle clip-path="url(#clip291)" cx="2526.74" cy="680.78" r="9.34676" fill="#ff0000" fill-rule="evenodd" fill-opacity="1" stroke="#000000" stroke-opacity="1" stroke-width="2.8"/>
<circle clip-path="url(#clip291)" cx="1393.15" cy="816.876" r="16.9874" fill="#0000ff" fill-rule="evenodd" fill-opacity="1" stroke="#000000" stroke-opacity="1" stroke-width="2.8"/>
<circle clip-path="url(#clip291)" cx="3188.98" cy="604.992" r="19.6836" fill="#ff0000" fill-rule="evenodd" fill-opacity="1" stroke="#000000" stroke-opacity="1" stroke-width="2.8"/>
<circle clip-path="url(#clip291)" cx="2934.76" cy="534.391" r="15.7156" fill="#ff0000" fill-rule="evenodd" fill-opacity="1" stroke="#000000" stroke-opacity="1" stroke-width="2.8"/>
<circle clip-path="url(#clip291)" cx="2704.02" cy="507.974" r="12.1139" fill="#ff0000" fill-rule="evenodd" fill-opacity="1" stroke="#000000" stroke-opacity="1" stroke-width="2.8"/>
<circle clip-path="url(#clip291)" cx="2616.88" cy="692.005" r="10.7537" fill="#ff0000" fill-rule="evenodd" fill-opacity="1" stroke="#000000" stroke-opacity="1" stroke-width="2.8"/>
<circle clip-path="url(#clip291)" cx="2261.77" cy="699.168" r="5.21086" fill="#ff0000" fill-rule="evenodd" fill-opacity="1" stroke="#000000" stroke-opacity="1" stroke-width="2.8"/>
<circle clip-path="url(#clip291)" cx="3764.11" cy="353.935" r="28.6609" fill="#ff0000" fill-rule="evenodd" fill-opacity="1" stroke="#000000" stroke-opacity="1" stroke-width="2.8"/>
<circle clip-path="url(#clip291)" cx="1418.89" cy="1032.36" r="16.5856" fill="#0000ff" fill-rule="evenodd" fill-opacity="1" stroke="#000000" stroke-opacity="1" stroke-width="2.8"/>
<circle clip-path="url(#clip291)" cx="2177.99" cy="699.389" r="4.73682" fill="#0000ff" fill-rule="evenodd" fill-opacity="1" stroke="#000000" stroke-opacity="1" stroke-width="2.8"/>
<circle clip-path="url(#clip291)" cx="908.734" cy="1171.21" r="24.5487" fill="#0000ff" fill-rule="evenodd" fill-opacity="1" stroke="#000000" stroke-opacity="1" stroke-width="2.8"/>
<circle clip-path="url(#clip291)" cx="1245.15" cy="910.936" r="19.2976" fill="#0000ff" fill-rule="evenodd" fill-opacity="1" stroke="#000000" stroke-opacity="1" stroke-width="2.8"/>
<circle clip-path="url(#clip291)" cx="2747.12" cy="651.458" r="12.7866" fill="#ff0000" fill-rule="evenodd" fill-opacity="1" stroke="#000000" stroke-opacity="1" stroke-width="2.8"/>
<circle clip-path="url(#clip291)" cx="3611.08" cy="546.462" r="26.2722" fill="#ff0000" fill-rule="evenodd" fill-opacity="1" stroke="#000000" stroke-opacity="1" stroke-width="2.8"/>
<circle clip-path="url(#clip291)" cx="2536.54" cy="814.602" r="9.49975" fill="#ff0000" fill-rule="evenodd" fill-opacity="1" stroke="#000000" stroke-opacity="1" stroke-width="2.8"/>
<circle clip-path="url(#clip291)" cx="3782" cy="440.227" r="28.9401" fill="#ff0000" fill-rule="evenodd" fill-opacity="1" stroke="#000000" stroke-opacity="1" stroke-width="2.8"/>
<circle clip-path="url(#clip291)" cx="1549.49" cy="953.866" r="14.5472" fill="#0000ff" fill-rule="evenodd" fill-opacity="1" stroke="#000000" stroke-opacity="1" stroke-width="2.8"/>
<circle clip-path="url(#clip291)" cx="1935.15" cy="804.924" r="8.52738" fill="#0000ff" fill-rule="evenodd" fill-opacity="1" stroke="#000000" stroke-opacity="1" stroke-width="2.8"/>
<circle clip-path="url(#clip291)" cx="2068.14" cy="646.049" r="6.45146" fill="#0000ff" fill-rule="evenodd" fill-opacity="1" stroke="#000000" stroke-opacity="1" stroke-width="2.8"/>
<circle clip-path="url(#clip291)" cx="518.341" cy="1094.3" r="30.6423" fill="#0000ff" fill-rule="evenodd" fill-opacity="1" stroke="#000000" stroke-opacity="1" stroke-width="2.8"/>
<circle clip-path="url(#clip291)" cx="2206.7" cy="831.705" r="4.3512" fill="#ff0000" fill-rule="evenodd" fill-opacity="1" stroke="#000000" stroke-opacity="1" stroke-width="2.8"/>
<circle clip-path="url(#clip291)" cx="3366.59" cy="621.084" r="22.456" fill="#ff0000" fill-rule="evenodd" fill-opacity="1" stroke="#000000" stroke-opacity="1" stroke-width="2.8"/>
<circle clip-path="url(#clip291)" cx="2823.18" cy="638.985" r="13.9738" fill="#ff0000" fill-rule="evenodd" fill-opacity="1" stroke="#000000" stroke-opacity="1" stroke-width="2.8"/>
<circle clip-path="url(#clip291)" cx="2009.87" cy="769.038" r="7.36113" fill="#0000ff" fill-rule="evenodd" fill-opacity="1" stroke="#000000" stroke-opacity="1" stroke-width="2.8"/>
<circle clip-path="url(#clip291)" cx="707.157" cy="908.914" r="27.6951" fill="#0000ff" fill-rule="evenodd" fill-opacity="1" stroke="#000000" stroke-opacity="1" stroke-width="2.8"/>
<circle clip-path="url(#clip291)" cx="754.421" cy="919.701" r="26.9573" fill="#0000ff" fill-rule="evenodd" fill-opacity="1" stroke="#000000" stroke-opacity="1" stroke-width="2.8"/>
<circle clip-path="url(#clip291)" cx="2042.94" cy="769.957" r="6.8448" fill="#0000ff" fill-rule="evenodd" fill-opacity="1" stroke="#000000" stroke-opacity="1" stroke-width="2.8"/>
<circle clip-path="url(#clip291)" cx="2307.95" cy="715.905" r="5.93165" fill="#ff0000" fill-rule="evenodd" fill-opacity="1" stroke="#000000" stroke-opacity="1" stroke-width="2.8"/>
<circle clip-path="url(#clip291)" cx="287.643" cy="1085.44" r="34.2433" fill="#0000ff" fill-rule="evenodd" fill-opacity="1" stroke="#000000" stroke-opacity="1" stroke-width="2.8"/>
<circle clip-path="url(#clip291)" cx="2098.68" cy="874.301" r="5.97477" fill="#0000ff" fill-rule="evenodd" fill-opacity="1" stroke="#000000" stroke-opacity="1" stroke-width="2.8"/>
<circle clip-path="url(#clip291)" cx="1448.82" cy="967.028" r="16.1185" fill="#0000ff" fill-rule="evenodd" fill-opacity="1" stroke="#000000" stroke-opacity="1" stroke-width="2.8"/>
<circle clip-path="url(#clip291)" cx="2471.87" cy="738.748" r="8.49026" fill="#ff0000" fill-rule="evenodd" fill-opacity="1" stroke="#000000" stroke-opacity="1" stroke-width="2.8"/>
<circle clip-path="url(#clip291)" cx="2419.02" cy="680.515" r="7.66535" fill="#ff0000" fill-rule="evenodd" fill-opacity="1" stroke="#000000" stroke-opacity="1" stroke-width="2.8"/>
<circle clip-path="url(#clip291)" cx="2403.76" cy="628.449" r="7.42712" fill="#ff0000" fill-rule="evenodd" fill-opacity="1" stroke="#000000" stroke-opacity="1" stroke-width="2.8"/>
<circle clip-path="url(#clip291)" cx="2177.02" cy="851.462" r="4.75208" fill="#0000ff" fill-rule="evenodd" fill-opacity="1" stroke="#000000" stroke-opacity="1" stroke-width="2.8"/>
<circle clip-path="url(#clip291)" cx="1502.85" cy="817.738" r="15.2751" fill="#0000ff" fill-rule="evenodd" fill-opacity="1" stroke="#000000" stroke-opacity="1" stroke-width="2.8"/>
<circle clip-path="url(#clip291)" cx="2063.5" cy="919.896" r="6.52388" fill="#0000ff" fill-rule="evenodd" fill-opacity="1" stroke="#000000" stroke-opacity="1" stroke-width="2.8"/>
<circle clip-path="url(#clip291)" cx="3002.54" cy="480.575" r="16.7735" fill="#ff0000" fill-rule="evenodd" fill-opacity="1" stroke="#000000" stroke-opacity="1" stroke-width="2.8"/>
<circle clip-path="url(#clip291)" cx="2543.9" cy="541.559" r="9.61455" fill="#ff0000" fill-rule="evenodd" fill-opacity="1" stroke="#000000" stroke-opacity="1" stroke-width="2.8"/>
<circle clip-path="url(#clip291)" cx="1714.3" cy="877.477" r="11.9746" fill="#0000ff" fill-rule="evenodd" fill-opacity="1" stroke="#000000" stroke-opacity="1" stroke-width="2.8"/>
<circle clip-path="url(#clip291)" cx="986.823" cy="987.475" r="23.3298" fill="#0000ff" fill-rule="evenodd" fill-opacity="1" stroke="#000000" stroke-opacity="1" stroke-width="2.8"/>
<circle clip-path="url(#clip291)" cx="1575.27" cy="835.032" r="14.1447" fill="#0000ff" fill-rule="evenodd" fill-opacity="1" stroke="#000000" stroke-opacity="1" stroke-width="2.8"/>
<circle clip-path="url(#clip291)" cx="2775.21" cy="843.089" r="13.2251" fill="#ff0000" fill-rule="evenodd" fill-opacity="1" stroke="#000000" stroke-opacity="1" stroke-width="2.8"/>
<circle clip-path="url(#clip291)" cx="3452.45" cy="462.183" r="23.7962" fill="#ff0000" fill-rule="evenodd" fill-opacity="1" stroke="#000000" stroke-opacity="1" stroke-width="2.8"/>
<circle clip-path="url(#clip291)" cx="2387.64" cy="840.536" r="7.1756" fill="#ff0000" fill-rule="evenodd" fill-opacity="1" stroke="#000000" stroke-opacity="1" stroke-width="2.8"/>
<circle clip-path="url(#clip291)" cx="1562.79" cy="792.668" r="14.3395" fill="#0000ff" fill-rule="evenodd" fill-opacity="1" stroke="#000000" stroke-opacity="1" stroke-width="2.8"/>
<circle clip-path="url(#clip291)" cx="1951.71" cy="848.45" r="8.26888" fill="#0000ff" fill-rule="evenodd" fill-opacity="1" stroke="#000000" stroke-opacity="1" stroke-width="2.8"/>
<circle clip-path="url(#clip291)" cx="2382.73" cy="850.71" r="7.09896" fill="#ff0000" fill-rule="evenodd" fill-opacity="1" stroke="#000000" stroke-opacity="1" stroke-width="2.8"/>
<circle clip-path="url(#clip291)" cx="2021.16" cy="870.745" r="7.18486" fill="#0000ff" fill-rule="evenodd" fill-opacity="1" stroke="#000000" stroke-opacity="1" stroke-width="2.8"/>
<circle clip-path="url(#clip291)" cx="3603.58" cy="511.048" r="26.1551" fill="#ff0000" fill-rule="evenodd" fill-opacity="1" stroke="#000000" stroke-opacity="1" stroke-width="2.8"/>
<circle clip-path="url(#clip291)" cx="2714.45" cy="636.394" r="12.2767" fill="#ff0000" fill-rule="evenodd" fill-opacity="1" stroke="#000000" stroke-opacity="1" stroke-width="2.8"/>
<circle clip-path="url(#clip291)" cx="408.164" cy="1193.91" r="32.3621" fill="#0000ff" fill-rule="evenodd" fill-opacity="1" stroke="#000000" stroke-opacity="1" stroke-width="2.8"/>
<circle clip-path="url(#clip291)" cx="898.588" cy="1126.55" r="24.707" fill="#0000ff" fill-rule="evenodd" fill-opacity="1" stroke="#000000" stroke-opacity="1" stroke-width="2.8"/>
<circle clip-path="url(#clip291)" cx="2266.98" cy="672.067" r="5.29221" fill="#ff0000" fill-rule="evenodd" fill-opacity="1" stroke="#000000" stroke-opacity="1" stroke-width="2.8"/>
<circle clip-path="url(#clip291)" cx="2391.34" cy="838.657" r="7.23322" fill="#ff0000" fill-rule="evenodd" fill-opacity="1" stroke="#000000" stroke-opacity="1" stroke-width="2.8"/>
<circle clip-path="url(#clip291)" cx="1475.02" cy="851.324" r="15.7095" fill="#0000ff" fill-rule="evenodd" fill-opacity="1" stroke="#000000" stroke-opacity="1" stroke-width="2.8"/>
<circle clip-path="url(#clip291)" cx="3128.39" cy="495.49" r="18.738" fill="#ff0000" fill-rule="evenodd" fill-opacity="1" stroke="#000000" stroke-opacity="1" stroke-width="2.8"/>
<circle clip-path="url(#clip291)" cx="3424.08" cy="519.482" r="23.3532" fill="#ff0000" fill-rule="evenodd" fill-opacity="1" stroke="#000000" stroke-opacity="1" stroke-width="2.8"/>
<circle clip-path="url(#clip291)" cx="2647.67" cy="587.415" r="11.2344" fill="#ff0000" fill-rule="evenodd" fill-opacity="1" stroke="#000000" stroke-opacity="1" stroke-width="2.8"/>
<polyline clip-path="url(#clip291)" style="stroke:#0000ff; stroke-linecap:round; stroke-linejoin:round; stroke-width:4; stroke-opacity:1; fill:none" points="287.643,1051.13 4428.53,427.715 "/>
</svg>
