<?xml version="1.0" encoding="utf-8"?>
<svg xmlns="http://www.w3.org/2000/svg" xmlns:xlink="http://www.w3.org/1999/xlink" width="600" height="400" viewBox="0 0 2400 1600">
<defs>
  <clipPath id="clip500">
    <rect x="0" y="0" width="2400" height="1600"/>
  </clipPath>
</defs>
<path clip-path="url(#clip500)" d="M0 1600 L2400 1600 L2400 0 L0 0  Z" fill="#ffffff" fill-rule="evenodd" fill-opacity="1"/>
<defs>
  <clipPath id="clip501">
    <rect x="480" y="0" width="1681" height="1600"/>
  </clipPath>
</defs>
<path clip-path="url(#clip500)" d="M279.704 1423.18 L2352.76 1423.18 L2352.76 123.472 L279.704 123.472  Z" fill="#ffffff" fill-rule="evenodd" fill-opacity="1"/>
<defs>
  <clipPath id="clip502">
    <rect x="279" y="123" width="2074" height="1301"/>
  </clipPath>
</defs>
<polyline clip-path="url(#clip502)" style="stroke:#000000; stroke-linecap:round; stroke-linejoin:round; stroke-width:2; stroke-opacity:0.1; fill:none" points="338.375,1423.18 338.375,123.472 "/>
<polyline clip-path="url(#clip502)" style="stroke:#000000; stroke-linecap:round; stroke-linejoin:round; stroke-width:2; stroke-opacity:0.1; fill:none" points="729.517,1423.18 729.517,123.472 "/>
<polyline clip-path="url(#clip502)" style="stroke:#000000; stroke-linecap:round; stroke-linejoin:round; stroke-width:2; stroke-opacity:0.1; fill:none" points="1120.66,1423.18 1120.66,123.472 "/>
<polyline clip-path="url(#clip502)" style="stroke:#000000; stroke-linecap:round; stroke-linejoin:round; stroke-width:2; stroke-opacity:0.1; fill:none" points="1511.8,1423.18 1511.8,123.472 "/>
<polyline clip-path="url(#clip502)" style="stroke:#000000; stroke-linecap:round; stroke-linejoin:round; stroke-width:2; stroke-opacity:0.1; fill:none" points="1902.94,1423.18 1902.94,123.472 "/>
<polyline clip-path="url(#clip502)" style="stroke:#000000; stroke-linecap:round; stroke-linejoin:round; stroke-width:2; stroke-opacity:0.1; fill:none" points="2294.08,1423.18 2294.08,123.472 "/>
<polyline clip-path="url(#clip502)" style="stroke:#000000; stroke-linecap:round; stroke-linejoin:round; stroke-width:2; stroke-opacity:0.1; fill:none" points="279.704,1344.04 2352.76,1344.04 "/>
<polyline clip-path="url(#clip502)" style="stroke:#000000; stroke-linecap:round; stroke-linejoin:round; stroke-width:2; stroke-opacity:0.1; fill:none" points="279.704,1111.96 2352.76,1111.96 "/>
<polyline clip-path="url(#clip502)" style="stroke:#000000; stroke-linecap:round; stroke-linejoin:round; stroke-width:2; stroke-opacity:0.1; fill:none" points="279.704,879.882 2352.76,879.882 "/>
<polyline clip-path="url(#clip502)" style="stroke:#000000; stroke-linecap:round; stroke-linejoin:round; stroke-width:2; stroke-opacity:0.1; fill:none" points="279.704,647.805 2352.76,647.805 "/>
<polyline clip-path="url(#clip502)" style="stroke:#000000; stroke-linecap:round; stroke-linejoin:round; stroke-width:2; stroke-opacity:0.1; fill:none" points="279.704,415.728 2352.76,415.728 "/>
<polyline clip-path="url(#clip502)" style="stroke:#000000; stroke-linecap:round; stroke-linejoin:round; stroke-width:2; stroke-opacity:0.1; fill:none" points="279.704,183.651 2352.76,183.651 "/>
<polyline clip-path="url(#clip500)" style="stroke:#000000; stroke-linecap:round; stroke-linejoin:round; stroke-width:4; stroke-opacity:1; fill:none" points="279.704,1423.18 2352.76,1423.18 "/>
<polyline clip-path="url(#clip500)" style="stroke:#000000; stroke-linecap:round; stroke-linejoin:round; stroke-width:4; stroke-opacity:1; fill:none" points="338.375,1423.18 338.375,1404.28 "/>
<polyline clip-path="url(#clip500)" style="stroke:#000000; stroke-linecap:round; stroke-linejoin:round; stroke-width:4; stroke-opacity:1; fill:none" points="729.517,1423.18 729.517,1404.28 "/>
<polyline clip-path="url(#clip500)" style="stroke:#000000; stroke-linecap:round; stroke-linejoin:round; stroke-width:4; stroke-opacity:1; fill:none" points="1120.66,1423.18 1120.66,1404.28 "/>
<polyline clip-path="url(#clip500)" style="stroke:#000000; stroke-linecap:round; stroke-linejoin:round; stroke-width:4; stroke-opacity:1; fill:none" points="1511.8,1423.18 1511.8,1404.28 "/>
<polyline clip-path="url(#clip500)" style="stroke:#000000; stroke-linecap:round; stroke-linejoin:round; stroke-width:4; stroke-opacity:1; fill:none" points="1902.94,1423.18 1902.94,1404.28 "/>
<polyline clip-path="url(#clip500)" style="stroke:#000000; stroke-linecap:round; stroke-linejoin:round; stroke-width:4; stroke-opacity:1; fill:none" points="2294.08,1423.18 2294.08,1404.28 "/>
<path clip-path="url(#clip500)" d="M315.76 1454.1 Q312.148 1454.1 310.32 1457.66 Q308.514 1461.2 308.514 1468.33 Q308.514 1475.44 310.32 1479.01 Q312.148 1482.55 315.76 1482.55 Q319.394 1482.55 321.199 1479.01 Q323.028 1475.44 323.028 1468.33 Q323.028 1461.2 321.199 1457.66 Q319.394 1454.1 315.76 1454.1 M315.76 1450.39 Q321.57 1450.39 324.625 1455 Q327.704 1459.58 327.704 1468.33 Q327.704 1477.06 324.625 1481.67 Q321.57 1486.25 315.76 1486.25 Q309.949 1486.25 306.871 1481.67 Q303.815 1477.06 303.815 1468.33 Q303.815 1459.58 306.871 1455 Q309.949 1450.39 315.76 1450.39 Z" fill="#000000" fill-rule="nonzero" fill-opacity="1" /><path clip-path="url(#clip500)" d="M335.922 1479.7 L340.806 1479.7 L340.806 1485.58 L335.922 1485.58 L335.922 1479.7 Z" fill="#000000" fill-rule="nonzero" fill-opacity="1" /><path clip-path="url(#clip500)" d="M360.991 1454.1 Q357.38 1454.1 355.551 1457.66 Q353.745 1461.2 353.745 1468.33 Q353.745 1475.44 355.551 1479.01 Q357.38 1482.55 360.991 1482.55 Q364.625 1482.55 366.431 1479.01 Q368.259 1475.44 368.259 1468.33 Q368.259 1461.2 366.431 1457.66 Q364.625 1454.1 360.991 1454.1 M360.991 1450.39 Q366.801 1450.39 369.857 1455 Q372.935 1459.58 372.935 1468.33 Q372.935 1477.06 369.857 1481.67 Q366.801 1486.25 360.991 1486.25 Q355.181 1486.25 352.102 1481.67 Q349.046 1477.06 349.046 1468.33 Q349.046 1459.58 352.102 1455 Q355.181 1450.39 360.991 1450.39 Z" fill="#000000" fill-rule="nonzero" fill-opacity="1" /><path clip-path="url(#clip500)" d="M707.515 1454.1 Q703.904 1454.1 702.075 1457.66 Q700.27 1461.2 700.27 1468.33 Q700.27 1475.44 702.075 1479.01 Q703.904 1482.55 707.515 1482.55 Q711.149 1482.55 712.955 1479.01 Q714.783 1475.44 714.783 1468.33 Q714.783 1461.2 712.955 1457.66 Q711.149 1454.1 707.515 1454.1 M707.515 1450.39 Q713.325 1450.39 716.381 1455 Q719.459 1459.58 719.459 1468.33 Q719.459 1477.06 716.381 1481.67 Q713.325 1486.25 707.515 1486.25 Q701.705 1486.25 698.626 1481.67 Q695.571 1477.06 695.571 1468.33 Q695.571 1459.58 698.626 1455 Q701.705 1450.39 707.515 1450.39 Z" fill="#000000" fill-rule="nonzero" fill-opacity="1" /><path clip-path="url(#clip500)" d="M727.677 1479.7 L732.561 1479.7 L732.561 1485.58 L727.677 1485.58 L727.677 1479.7 Z" fill="#000000" fill-rule="nonzero" fill-opacity="1" /><path clip-path="url(#clip500)" d="M743.556 1481.64 L751.195 1481.64 L751.195 1455.28 L742.885 1456.95 L742.885 1452.69 L751.149 1451.02 L755.825 1451.02 L755.825 1481.64 L763.464 1481.64 L763.464 1485.58 L743.556 1485.58 L743.556 1481.64 Z" fill="#000000" fill-rule="nonzero" fill-opacity="1" /><path clip-path="url(#clip500)" d="M1098.84 1454.1 Q1095.23 1454.1 1093.4 1457.66 Q1091.6 1461.2 1091.6 1468.33 Q1091.6 1475.44 1093.4 1479.01 Q1095.23 1482.55 1098.84 1482.55 Q1102.48 1482.55 1104.28 1479.01 Q1106.11 1475.44 1106.11 1468.33 Q1106.11 1461.2 1104.28 1457.66 Q1102.48 1454.1 1098.84 1454.1 M1098.84 1450.39 Q1104.65 1450.39 1107.71 1455 Q1110.79 1459.58 1110.79 1468.33 Q1110.79 1477.06 1107.71 1481.67 Q1104.65 1486.25 1098.84 1486.25 Q1093.03 1486.25 1089.95 1481.67 Q1086.9 1477.06 1086.9 1468.33 Q1086.9 1459.58 1089.95 1455 Q1093.03 1450.39 1098.84 1450.39 Z" fill="#000000" fill-rule="nonzero" fill-opacity="1" /><path clip-path="url(#clip500)" d="M1119 1479.7 L1123.89 1479.7 L1123.89 1485.58 L1119 1485.58 L1119 1479.7 Z" fill="#000000" fill-rule="nonzero" fill-opacity="1" /><path clip-path="url(#clip500)" d="M1138.1 1481.64 L1154.42 1481.64 L1154.42 1485.58 L1132.48 1485.58 L1132.48 1481.64 Q1135.14 1478.89 1139.72 1474.26 Q1144.33 1469.61 1145.51 1468.27 Q1147.75 1465.74 1148.63 1464.01 Q1149.54 1462.25 1149.54 1460.56 Q1149.54 1457.8 1147.59 1456.07 Q1145.67 1454.33 1142.57 1454.33 Q1140.37 1454.33 1137.92 1455.09 Q1135.49 1455.86 1132.71 1457.41 L1132.71 1452.69 Q1135.53 1451.55 1137.99 1450.97 Q1140.44 1450.39 1142.48 1450.39 Q1147.85 1450.39 1151.04 1453.08 Q1154.24 1455.77 1154.24 1460.26 Q1154.24 1462.39 1153.42 1464.31 Q1152.64 1466.2 1150.53 1468.8 Q1149.95 1469.47 1146.85 1472.69 Q1143.75 1475.88 1138.1 1481.64 Z" fill="#000000" fill-rule="nonzero" fill-opacity="1" /><path clip-path="url(#clip500)" d="M1489.51 1454.1 Q1485.9 1454.1 1484.07 1457.66 Q1482.26 1461.2 1482.26 1468.33 Q1482.26 1475.44 1484.07 1479.01 Q1485.9 1482.55 1489.51 1482.55 Q1493.14 1482.55 1494.95 1479.01 Q1496.78 1475.44 1496.78 1468.33 Q1496.78 1461.2 1494.95 1457.66 Q1493.14 1454.1 1489.51 1454.1 M1489.51 1450.39 Q1495.32 1450.39 1498.37 1455 Q1501.45 1459.58 1501.45 1468.33 Q1501.45 1477.06 1498.37 1481.67 Q1495.32 1486.25 1489.51 1486.25 Q1483.7 1486.25 1480.62 1481.67 Q1477.56 1477.06 1477.56 1468.33 Q1477.56 1459.58 1480.62 1455 Q1483.7 1450.39 1489.51 1450.39 Z" fill="#000000" fill-rule="nonzero" fill-opacity="1" /><path clip-path="url(#clip500)" d="M1509.67 1479.7 L1514.56 1479.7 L1514.56 1485.58 L1509.67 1485.58 L1509.67 1479.7 Z" fill="#000000" fill-rule="nonzero" fill-opacity="1" /><path clip-path="url(#clip500)" d="M1538.91 1466.95 Q1542.26 1467.66 1544.14 1469.93 Q1546.04 1472.2 1546.04 1475.53 Q1546.04 1480.65 1542.52 1483.45 Q1539 1486.25 1532.52 1486.25 Q1530.34 1486.25 1528.03 1485.81 Q1525.74 1485.39 1523.28 1484.54 L1523.28 1480.02 Q1525.23 1481.16 1527.54 1481.74 Q1529.86 1482.32 1532.38 1482.32 Q1536.78 1482.32 1539.07 1480.58 Q1541.38 1478.84 1541.38 1475.53 Q1541.38 1472.48 1539.23 1470.77 Q1537.1 1469.03 1533.28 1469.03 L1529.25 1469.03 L1529.25 1465.19 L1533.47 1465.19 Q1536.92 1465.19 1538.75 1463.82 Q1540.57 1462.43 1540.57 1459.84 Q1540.57 1457.18 1538.68 1455.77 Q1536.8 1454.33 1533.28 1454.33 Q1531.36 1454.33 1529.16 1454.75 Q1526.96 1455.16 1524.32 1456.04 L1524.32 1451.88 Q1526.99 1451.14 1529.3 1450.77 Q1531.64 1450.39 1533.7 1450.39 Q1539.02 1450.39 1542.12 1452.83 Q1545.23 1455.23 1545.23 1459.35 Q1545.23 1462.22 1543.58 1464.21 Q1541.94 1466.18 1538.91 1466.95 Z" fill="#000000" fill-rule="nonzero" fill-opacity="1" /><path clip-path="url(#clip500)" d="M1880.08 1454.1 Q1876.47 1454.1 1874.64 1457.66 Q1872.84 1461.2 1872.84 1468.33 Q1872.84 1475.44 1874.64 1479.01 Q1876.47 1482.55 1880.08 1482.55 Q1883.72 1482.55 1885.52 1479.01 Q1887.35 1475.44 1887.35 1468.33 Q1887.35 1461.2 1885.52 1457.66 Q1883.72 1454.1 1880.08 1454.1 M1880.08 1450.39 Q1885.89 1450.39 1888.95 1455 Q1892.03 1459.58 1892.03 1468.33 Q1892.03 1477.06 1888.95 1481.67 Q1885.89 1486.25 1880.08 1486.25 Q1874.27 1486.25 1871.2 1481.67 Q1868.14 1477.06 1868.14 1468.33 Q1868.14 1459.58 1871.2 1455 Q1874.27 1450.39 1880.08 1450.39 Z" fill="#000000" fill-rule="nonzero" fill-opacity="1" /><path clip-path="url(#clip500)" d="M1900.25 1479.7 L1905.13 1479.7 L1905.13 1485.58 L1900.25 1485.58 L1900.25 1479.7 Z" fill="#000000" fill-rule="nonzero" fill-opacity="1" /><path clip-path="url(#clip500)" d="M1928.16 1455.09 L1916.36 1473.54 L1928.16 1473.54 L1928.16 1455.09 M1926.94 1451.02 L1932.82 1451.02 L1932.82 1473.54 L1937.75 1473.54 L1937.75 1477.43 L1932.82 1477.43 L1932.82 1485.58 L1928.16 1485.58 L1928.16 1477.43 L1912.56 1477.43 L1912.56 1472.92 L1926.94 1451.02 Z" fill="#000000" fill-rule="nonzero" fill-opacity="1" /><path clip-path="url(#clip500)" d="M2271.97 1454.1 Q2268.36 1454.1 2266.53 1457.66 Q2264.72 1461.2 2264.72 1468.33 Q2264.72 1475.44 2266.53 1479.01 Q2268.36 1482.55 2271.97 1482.55 Q2275.6 1482.55 2277.41 1479.01 Q2279.24 1475.44 2279.24 1468.33 Q2279.24 1461.2 2277.41 1457.66 Q2275.6 1454.1 2271.97 1454.1 M2271.97 1450.39 Q2277.78 1450.39 2280.83 1455 Q2283.91 1459.58 2283.91 1468.33 Q2283.91 1477.06 2280.83 1481.67 Q2277.78 1486.25 2271.97 1486.25 Q2266.16 1486.25 2263.08 1481.67 Q2260.02 1477.06 2260.02 1468.33 Q2260.02 1459.58 2263.08 1455 Q2266.16 1450.39 2271.97 1450.39 Z" fill="#000000" fill-rule="nonzero" fill-opacity="1" /><path clip-path="url(#clip500)" d="M2292.13 1479.7 L2297.01 1479.7 L2297.01 1485.58 L2292.13 1485.58 L2292.13 1479.7 Z" fill="#000000" fill-rule="nonzero" fill-opacity="1" /><path clip-path="url(#clip500)" d="M2307.24 1451.02 L2325.6 1451.02 L2325.6 1454.96 L2311.53 1454.96 L2311.53 1463.43 Q2312.55 1463.08 2313.56 1462.92 Q2314.58 1462.73 2315.6 1462.73 Q2321.39 1462.73 2324.77 1465.9 Q2328.15 1469.08 2328.15 1474.49 Q2328.15 1480.07 2324.67 1483.17 Q2321.2 1486.25 2314.88 1486.25 Q2312.71 1486.25 2310.44 1485.88 Q2308.19 1485.51 2305.79 1484.77 L2305.79 1480.07 Q2307.87 1481.2 2310.09 1481.76 Q2312.31 1482.32 2314.79 1482.32 Q2318.8 1482.32 2321.13 1480.21 Q2323.47 1478.1 2323.47 1474.49 Q2323.47 1470.88 2321.13 1468.77 Q2318.8 1466.67 2314.79 1466.67 Q2312.92 1466.67 2311.04 1467.08 Q2309.19 1467.5 2307.24 1468.38 L2307.24 1451.02 Z" fill="#000000" fill-rule="nonzero" fill-opacity="1" /><path clip-path="url(#clip500)" d="M1321.43 1551.46 L1320.03 1544.11 Q1318.6 1536.57 1312.94 1536.57 Q1308.67 1536.57 1306.73 1540.07 Q1304.28 1544.46 1304.28 1550.25 Q1304.28 1557.25 1306.67 1560.6 Q1309.08 1564 1312.94 1564 Q1317.2 1564 1319.49 1557.22 L1321.43 1551.46 M1324.71 1541.72 L1327.86 1532.4 L1333.08 1532.4 L1326.56 1551.72 L1327.83 1558.69 Q1328.12 1560.25 1329.23 1561.55 Q1330.54 1563.08 1331.56 1563.08 L1334.36 1563.08 L1334.36 1568.04 L1330.86 1568.04 Q1327.86 1568.04 1325.19 1565.37 Q1323.88 1564.03 1323.34 1561.23 Q1321.88 1564.77 1318.89 1567.53 Q1317.49 1568.84 1312.94 1568.84 Q1305.46 1568.84 1301.83 1564 Q1298.1 1559 1298.1 1550.25 Q1298.1 1540.89 1302.15 1536.5 Q1306.63 1531.6 1312.94 1531.6 Q1322.83 1531.6 1324.71 1541.72 Z" fill="#000000" fill-rule="nonzero" fill-opacity="1" /><polyline clip-path="url(#clip500)" style="stroke:#000000; stroke-linecap:round; stroke-linejoin:round; stroke-width:4; stroke-opacity:1; fill:none" points="279.704,1423.18 279.704,123.472 "/>
<polyline clip-path="url(#clip500)" style="stroke:#000000; stroke-linecap:round; stroke-linejoin:round; stroke-width:4; stroke-opacity:1; fill:none" points="279.704,1344.04 298.602,1344.04 "/>
<polyline clip-path="url(#clip500)" style="stroke:#000000; stroke-linecap:round; stroke-linejoin:round; stroke-width:4; stroke-opacity:1; fill:none" points="279.704,1111.96 298.602,1111.96 "/>
<polyline clip-path="url(#clip500)" style="stroke:#000000; stroke-linecap:round; stroke-linejoin:round; stroke-width:4; stroke-opacity:1; fill:none" points="279.704,879.882 298.602,879.882 "/>
<polyline clip-path="url(#clip500)" style="stroke:#000000; stroke-linecap:round; stroke-linejoin:round; stroke-width:4; stroke-opacity:1; fill:none" points="279.704,647.805 298.602,647.805 "/>
<polyline clip-path="url(#clip500)" style="stroke:#000000; stroke-linecap:round; stroke-linejoin:round; stroke-width:4; stroke-opacity:1; fill:none" points="279.704,415.728 298.602,415.728 "/>
<polyline clip-path="url(#clip500)" style="stroke:#000000; stroke-linecap:round; stroke-linejoin:round; stroke-width:4; stroke-opacity:1; fill:none" points="279.704,183.651 298.602,183.651 "/>
<path clip-path="url(#clip500)" d="M126.297 1329.83 Q122.686 1329.83 120.857 1333.4 Q119.052 1336.94 119.052 1344.07 Q119.052 1351.18 120.857 1354.74 Q122.686 1358.28 126.297 1358.28 Q129.931 1358.28 131.737 1354.74 Q133.566 1351.18 133.566 1344.07 Q133.566 1336.94 131.737 1333.4 Q129.931 1329.83 126.297 1329.83 M126.297 1326.13 Q132.107 1326.13 135.163 1330.74 Q138.242 1335.32 138.242 1344.07 Q138.242 1352.8 135.163 1357.4 Q132.107 1361.99 126.297 1361.99 Q120.487 1361.99 117.408 1357.4 Q114.353 1352.8 114.353 1344.07 Q114.353 1335.32 117.408 1330.74 Q120.487 1326.13 126.297 1326.13 Z" fill="#000000" fill-rule="nonzero" fill-opacity="1" /><path clip-path="url(#clip500)" d="M146.459 1355.44 L151.343 1355.44 L151.343 1361.32 L146.459 1361.32 L146.459 1355.44 Z" fill="#000000" fill-rule="nonzero" fill-opacity="1" /><path clip-path="url(#clip500)" d="M171.528 1329.83 Q167.917 1329.83 166.089 1333.4 Q164.283 1336.94 164.283 1344.07 Q164.283 1351.18 166.089 1354.74 Q167.917 1358.28 171.528 1358.28 Q175.163 1358.28 176.968 1354.74 Q178.797 1351.18 178.797 1344.07 Q178.797 1336.94 176.968 1333.4 Q175.163 1329.83 171.528 1329.83 M171.528 1326.13 Q177.339 1326.13 180.394 1330.74 Q183.473 1335.32 183.473 1344.07 Q183.473 1352.8 180.394 1357.4 Q177.339 1361.99 171.528 1361.99 Q165.718 1361.99 162.64 1357.4 Q159.584 1352.8 159.584 1344.07 Q159.584 1335.32 162.64 1330.74 Q165.718 1326.13 171.528 1326.13 Z" fill="#000000" fill-rule="nonzero" fill-opacity="1" /><path clip-path="url(#clip500)" d="M192.5 1357.38 L200.139 1357.38 L200.139 1331.02 L191.829 1332.68 L191.829 1328.42 L200.093 1326.76 L204.769 1326.76 L204.769 1357.38 L212.408 1357.38 L212.408 1361.32 L192.5 1361.32 L192.5 1357.38 Z" fill="#000000" fill-rule="nonzero" fill-opacity="1" /><path clip-path="url(#clip500)" d="M231.852 1344.9 Q228.519 1344.9 226.598 1346.69 Q224.699 1348.47 224.699 1351.59 Q224.699 1354.72 226.598 1356.5 Q228.519 1358.28 231.852 1358.28 Q235.185 1358.28 237.107 1356.5 Q239.028 1354.7 239.028 1351.59 Q239.028 1348.47 237.107 1346.69 Q235.209 1344.9 231.852 1344.9 M227.176 1342.91 Q224.167 1342.17 222.477 1340.11 Q220.811 1338.05 220.811 1335.09 Q220.811 1330.95 223.75 1328.54 Q226.713 1326.13 231.852 1326.13 Q237.014 1326.13 239.954 1328.54 Q242.894 1330.95 242.894 1335.09 Q242.894 1338.05 241.204 1340.11 Q239.537 1342.17 236.551 1342.91 Q239.931 1343.7 241.806 1345.99 Q243.704 1348.28 243.704 1351.59 Q243.704 1356.62 240.625 1359.3 Q237.57 1361.99 231.852 1361.99 Q226.135 1361.99 223.056 1359.3 Q220 1356.62 220 1351.59 Q220 1348.28 221.898 1345.99 Q223.797 1343.7 227.176 1342.91 M225.463 1335.53 Q225.463 1338.21 227.13 1339.72 Q228.82 1341.22 231.852 1341.22 Q234.861 1341.22 236.551 1339.72 Q238.264 1338.21 238.264 1335.53 Q238.264 1332.84 236.551 1331.34 Q234.861 1329.83 231.852 1329.83 Q228.82 1329.83 227.13 1331.34 Q225.463 1332.84 225.463 1335.53 Z" fill="#000000" fill-rule="nonzero" fill-opacity="1" /><path clip-path="url(#clip500)" d="M126.39 1097.76 Q122.779 1097.76 120.95 1101.32 Q119.144 1104.86 119.144 1111.99 Q119.144 1119.1 120.95 1122.66 Q122.779 1126.21 126.39 1126.21 Q130.024 1126.21 131.83 1122.66 Q133.658 1119.1 133.658 1111.99 Q133.658 1104.86 131.83 1101.32 Q130.024 1097.76 126.39 1097.76 M126.39 1094.05 Q132.2 1094.05 135.255 1098.66 Q138.334 1103.24 138.334 1111.99 Q138.334 1120.72 135.255 1125.33 Q132.2 1129.91 126.39 1129.91 Q120.58 1129.91 117.501 1125.33 Q114.445 1120.72 114.445 1111.99 Q114.445 1103.24 117.501 1098.66 Q120.58 1094.05 126.39 1094.05 Z" fill="#000000" fill-rule="nonzero" fill-opacity="1" /><path clip-path="url(#clip500)" d="M146.552 1123.36 L151.436 1123.36 L151.436 1129.24 L146.552 1129.24 L146.552 1123.36 Z" fill="#000000" fill-rule="nonzero" fill-opacity="1" /><path clip-path="url(#clip500)" d="M171.621 1097.76 Q168.01 1097.76 166.181 1101.32 Q164.376 1104.86 164.376 1111.99 Q164.376 1119.1 166.181 1122.66 Q168.01 1126.21 171.621 1126.21 Q175.255 1126.21 177.061 1122.66 Q178.889 1119.1 178.889 1111.99 Q178.889 1104.86 177.061 1101.32 Q175.255 1097.76 171.621 1097.76 M171.621 1094.05 Q177.431 1094.05 180.487 1098.66 Q183.565 1103.24 183.565 1111.99 Q183.565 1120.72 180.487 1125.33 Q177.431 1129.91 171.621 1129.91 Q165.811 1129.91 162.732 1125.33 Q159.677 1120.72 159.677 1111.99 Q159.677 1103.24 162.732 1098.66 Q165.811 1094.05 171.621 1094.05 Z" fill="#000000" fill-rule="nonzero" fill-opacity="1" /><path clip-path="url(#clip500)" d="M192.593 1125.3 L200.232 1125.3 L200.232 1098.94 L191.922 1100.6 L191.922 1096.35 L200.186 1094.68 L204.862 1094.68 L204.862 1125.3 L212.5 1125.3 L212.5 1129.24 L192.593 1129.24 L192.593 1125.3 Z" fill="#000000" fill-rule="nonzero" fill-opacity="1" /><path clip-path="url(#clip500)" d="M222.084 1128.52 L222.084 1124.26 Q223.843 1125.1 225.648 1125.54 Q227.454 1125.98 229.19 1125.98 Q233.82 1125.98 236.25 1122.87 Q238.704 1119.75 239.051 1113.41 Q237.709 1115.4 235.648 1116.46 Q233.588 1117.53 231.088 1117.53 Q225.903 1117.53 222.871 1114.4 Q219.861 1111.25 219.861 1105.81 Q219.861 1100.49 223.01 1097.27 Q226.158 1094.05 231.389 1094.05 Q237.384 1094.05 240.533 1098.66 Q243.704 1103.24 243.704 1111.99 Q243.704 1120.16 239.815 1125.05 Q235.949 1129.91 229.398 1129.91 Q227.639 1129.91 225.834 1129.56 Q224.028 1129.22 222.084 1128.52 M231.389 1113.87 Q234.537 1113.87 236.366 1111.72 Q238.218 1109.56 238.218 1105.81 Q238.218 1102.09 236.366 1099.93 Q234.537 1097.76 231.389 1097.76 Q228.241 1097.76 226.389 1099.93 Q224.56 1102.09 224.56 1105.81 Q224.56 1109.56 226.389 1111.72 Q228.241 1113.87 231.389 1113.87 Z" fill="#000000" fill-rule="nonzero" fill-opacity="1" /><path clip-path="url(#clip500)" d="M126.205 865.681 Q122.593 865.681 120.765 869.245 Q118.959 872.787 118.959 879.917 Q118.959 887.023 120.765 890.588 Q122.593 894.13 126.205 894.13 Q129.839 894.13 131.644 890.588 Q133.473 887.023 133.473 879.917 Q133.473 872.787 131.644 869.245 Q129.839 865.681 126.205 865.681 M126.205 861.977 Q132.015 861.977 135.07 866.583 Q138.149 871.167 138.149 879.917 Q138.149 888.643 135.07 893.25 Q132.015 897.833 126.205 897.833 Q120.394 897.833 117.316 893.25 Q114.26 888.643 114.26 879.917 Q114.26 871.167 117.316 866.583 Q120.394 861.977 126.205 861.977 Z" fill="#000000" fill-rule="nonzero" fill-opacity="1" /><path clip-path="url(#clip500)" d="M146.366 891.282 L151.251 891.282 L151.251 897.162 L146.366 897.162 L146.366 891.282 Z" fill="#000000" fill-rule="nonzero" fill-opacity="1" /><path clip-path="url(#clip500)" d="M171.436 865.681 Q167.825 865.681 165.996 869.245 Q164.19 872.787 164.19 879.917 Q164.19 887.023 165.996 890.588 Q167.825 894.13 171.436 894.13 Q175.07 894.13 176.876 890.588 Q178.704 887.023 178.704 879.917 Q178.704 872.787 176.876 869.245 Q175.07 865.681 171.436 865.681 M171.436 861.977 Q177.246 861.977 180.301 866.583 Q183.38 871.167 183.38 879.917 Q183.38 888.643 180.301 893.25 Q177.246 897.833 171.436 897.833 Q165.626 897.833 162.547 893.25 Q159.491 888.643 159.491 879.917 Q159.491 871.167 162.547 866.583 Q165.626 861.977 171.436 861.977 Z" fill="#000000" fill-rule="nonzero" fill-opacity="1" /><path clip-path="url(#clip500)" d="M195.625 893.227 L211.945 893.227 L211.945 897.162 L190 897.162 L190 893.227 Q192.663 890.472 197.246 885.843 Q201.852 881.19 203.033 879.847 Q205.278 877.324 206.158 875.588 Q207.061 873.829 207.061 872.139 Q207.061 869.384 205.116 867.648 Q203.195 865.912 200.093 865.912 Q197.894 865.912 195.44 866.676 Q193.01 867.44 190.232 868.991 L190.232 864.269 Q193.056 863.134 195.51 862.556 Q197.963 861.977 200 861.977 Q205.371 861.977 208.565 864.662 Q211.76 867.347 211.76 871.838 Q211.76 873.968 210.949 875.889 Q210.162 877.787 208.056 880.38 Q207.477 881.051 204.375 884.268 Q201.274 887.463 195.625 893.227 Z" fill="#000000" fill-rule="nonzero" fill-opacity="1" /><path clip-path="url(#clip500)" d="M231.76 865.681 Q228.148 865.681 226.32 869.245 Q224.514 872.787 224.514 879.917 Q224.514 887.023 226.32 890.588 Q228.148 894.13 231.76 894.13 Q235.394 894.13 237.199 890.588 Q239.028 887.023 239.028 879.917 Q239.028 872.787 237.199 869.245 Q235.394 865.681 231.76 865.681 M231.76 861.977 Q237.57 861.977 240.625 866.583 Q243.704 871.167 243.704 879.917 Q243.704 888.643 240.625 893.25 Q237.57 897.833 231.76 897.833 Q225.949 897.833 222.871 893.25 Q219.815 888.643 219.815 879.917 Q219.815 871.167 222.871 866.583 Q225.949 861.977 231.76 861.977 Z" fill="#000000" fill-rule="nonzero" fill-opacity="1" /><path clip-path="url(#clip500)" d="M127.431 633.604 Q123.82 633.604 121.992 637.168 Q120.186 640.71 120.186 647.84 Q120.186 654.946 121.992 658.511 Q123.82 662.052 127.431 662.052 Q131.066 662.052 132.871 658.511 Q134.7 654.946 134.7 647.84 Q134.7 640.71 132.871 637.168 Q131.066 633.604 127.431 633.604 M127.431 629.9 Q133.242 629.9 136.297 634.506 Q139.376 639.09 139.376 647.84 Q139.376 656.566 136.297 661.173 Q133.242 665.756 127.431 665.756 Q121.621 665.756 118.543 661.173 Q115.487 656.566 115.487 647.84 Q115.487 639.09 118.543 634.506 Q121.621 629.9 127.431 629.9 Z" fill="#000000" fill-rule="nonzero" fill-opacity="1" /><path clip-path="url(#clip500)" d="M147.593 659.205 L152.478 659.205 L152.478 665.085 L147.593 665.085 L147.593 659.205 Z" fill="#000000" fill-rule="nonzero" fill-opacity="1" /><path clip-path="url(#clip500)" d="M172.663 633.604 Q169.052 633.604 167.223 637.168 Q165.417 640.71 165.417 647.84 Q165.417 654.946 167.223 658.511 Q169.052 662.052 172.663 662.052 Q176.297 662.052 178.102 658.511 Q179.931 654.946 179.931 647.84 Q179.931 640.71 178.102 637.168 Q176.297 633.604 172.663 633.604 M172.663 629.9 Q178.473 629.9 181.528 634.506 Q184.607 639.09 184.607 647.84 Q184.607 656.566 181.528 661.173 Q178.473 665.756 172.663 665.756 Q166.852 665.756 163.774 661.173 Q160.718 656.566 160.718 647.84 Q160.718 639.09 163.774 634.506 Q166.852 629.9 172.663 629.9 Z" fill="#000000" fill-rule="nonzero" fill-opacity="1" /><path clip-path="url(#clip500)" d="M196.852 661.15 L213.172 661.15 L213.172 665.085 L191.227 665.085 L191.227 661.15 Q193.889 658.395 198.473 653.765 Q203.079 649.113 204.26 647.77 Q206.505 645.247 207.385 643.511 Q208.287 641.752 208.287 640.062 Q208.287 637.307 206.343 635.571 Q204.422 633.835 201.32 633.835 Q199.121 633.835 196.667 634.599 Q194.237 635.363 191.459 636.914 L191.459 632.192 Q194.283 631.057 196.737 630.479 Q199.19 629.9 201.227 629.9 Q206.598 629.9 209.792 632.585 Q212.986 635.27 212.986 639.761 Q212.986 641.891 212.176 643.812 Q211.389 645.71 209.283 648.303 Q208.704 648.974 205.602 652.191 Q202.5 655.386 196.852 661.15 Z" fill="#000000" fill-rule="nonzero" fill-opacity="1" /><path clip-path="url(#clip500)" d="M223.797 661.15 L231.435 661.15 L231.435 634.784 L223.125 636.451 L223.125 632.192 L231.389 630.525 L236.065 630.525 L236.065 661.15 L243.704 661.15 L243.704 665.085 L223.797 665.085 L223.797 661.15 Z" fill="#000000" fill-rule="nonzero" fill-opacity="1" /><path clip-path="url(#clip500)" d="M127.802 401.527 Q124.191 401.527 122.362 405.091 Q120.556 408.633 120.556 415.763 Q120.556 422.869 122.362 426.434 Q124.191 429.975 127.802 429.975 Q131.436 429.975 133.242 426.434 Q135.07 422.869 135.07 415.763 Q135.07 408.633 133.242 405.091 Q131.436 401.527 127.802 401.527 M127.802 397.823 Q133.612 397.823 136.667 402.429 Q139.746 407.013 139.746 415.763 Q139.746 424.489 136.667 429.096 Q133.612 433.679 127.802 433.679 Q121.992 433.679 118.913 429.096 Q115.857 424.489 115.857 415.763 Q115.857 407.013 118.913 402.429 Q121.992 397.823 127.802 397.823 Z" fill="#000000" fill-rule="nonzero" fill-opacity="1" /><path clip-path="url(#clip500)" d="M147.964 427.128 L152.848 427.128 L152.848 433.008 L147.964 433.008 L147.964 427.128 Z" fill="#000000" fill-rule="nonzero" fill-opacity="1" /><path clip-path="url(#clip500)" d="M173.033 401.527 Q169.422 401.527 167.593 405.091 Q165.788 408.633 165.788 415.763 Q165.788 422.869 167.593 426.434 Q169.422 429.975 173.033 429.975 Q176.667 429.975 178.473 426.434 Q180.301 422.869 180.301 415.763 Q180.301 408.633 178.473 405.091 Q176.667 401.527 173.033 401.527 M173.033 397.823 Q178.843 397.823 181.899 402.429 Q184.977 407.013 184.977 415.763 Q184.977 424.489 181.899 429.096 Q178.843 433.679 173.033 433.679 Q167.223 433.679 164.144 429.096 Q161.089 424.489 161.089 415.763 Q161.089 407.013 164.144 402.429 Q167.223 397.823 173.033 397.823 Z" fill="#000000" fill-rule="nonzero" fill-opacity="1" /><path clip-path="url(#clip500)" d="M197.223 429.073 L213.542 429.073 L213.542 433.008 L191.598 433.008 L191.598 429.073 Q194.26 426.318 198.843 421.688 Q203.449 417.036 204.63 415.693 Q206.875 413.17 207.755 411.434 Q208.658 409.675 208.658 407.985 Q208.658 405.23 206.713 403.494 Q204.792 401.758 201.69 401.758 Q199.491 401.758 197.037 402.522 Q194.607 403.286 191.829 404.837 L191.829 400.115 Q194.653 398.98 197.107 398.402 Q199.561 397.823 201.598 397.823 Q206.968 397.823 210.162 400.508 Q213.357 403.193 213.357 407.684 Q213.357 409.814 212.547 411.735 Q211.76 413.633 209.653 416.226 Q209.074 416.897 205.973 420.114 Q202.871 423.309 197.223 429.073 Z" fill="#000000" fill-rule="nonzero" fill-opacity="1" /><path clip-path="url(#clip500)" d="M227.385 429.073 L243.704 429.073 L243.704 433.008 L221.76 433.008 L221.76 429.073 Q224.422 426.318 229.005 421.688 Q233.611 417.036 234.792 415.693 Q237.037 413.17 237.917 411.434 Q238.82 409.675 238.82 407.985 Q238.82 405.23 236.875 403.494 Q234.954 401.758 231.852 401.758 Q229.653 401.758 227.199 402.522 Q224.769 403.286 221.991 404.837 L221.991 400.115 Q224.815 398.98 227.269 398.402 Q229.723 397.823 231.76 397.823 Q237.13 397.823 240.324 400.508 Q243.519 403.193 243.519 407.684 Q243.519 409.814 242.709 411.735 Q241.922 413.633 239.815 416.226 Q239.236 416.897 236.135 420.114 Q233.033 423.309 227.385 429.073 Z" fill="#000000" fill-rule="nonzero" fill-opacity="1" /><path clip-path="url(#clip500)" d="M126.853 169.45 Q123.242 169.45 121.413 173.014 Q119.607 176.556 119.607 183.686 Q119.607 190.792 121.413 194.357 Q123.242 197.898 126.853 197.898 Q130.487 197.898 132.292 194.357 Q134.121 190.792 134.121 183.686 Q134.121 176.556 132.292 173.014 Q130.487 169.45 126.853 169.45 M126.853 165.746 Q132.663 165.746 135.718 170.352 Q138.797 174.936 138.797 183.686 Q138.797 192.412 135.718 197.019 Q132.663 201.602 126.853 201.602 Q121.043 201.602 117.964 197.019 Q114.908 192.412 114.908 183.686 Q114.908 174.936 117.964 170.352 Q121.043 165.746 126.853 165.746 Z" fill="#000000" fill-rule="nonzero" fill-opacity="1" /><path clip-path="url(#clip500)" d="M147.015 195.051 L151.899 195.051 L151.899 200.931 L147.015 200.931 L147.015 195.051 Z" fill="#000000" fill-rule="nonzero" fill-opacity="1" /><path clip-path="url(#clip500)" d="M172.084 169.45 Q168.473 169.45 166.644 173.014 Q164.839 176.556 164.839 183.686 Q164.839 190.792 166.644 194.357 Q168.473 197.898 172.084 197.898 Q175.718 197.898 177.524 194.357 Q179.352 190.792 179.352 183.686 Q179.352 176.556 177.524 173.014 Q175.718 169.45 172.084 169.45 M172.084 165.746 Q177.894 165.746 180.95 170.352 Q184.028 174.936 184.028 183.686 Q184.028 192.412 180.95 197.019 Q177.894 201.602 172.084 201.602 Q166.274 201.602 163.195 197.019 Q160.14 192.412 160.14 183.686 Q160.14 174.936 163.195 170.352 Q166.274 165.746 172.084 165.746 Z" fill="#000000" fill-rule="nonzero" fill-opacity="1" /><path clip-path="url(#clip500)" d="M196.274 196.996 L212.593 196.996 L212.593 200.931 L190.649 200.931 L190.649 196.996 Q193.311 194.241 197.894 189.611 Q202.5 184.959 203.681 183.616 Q205.926 181.093 206.806 179.357 Q207.709 177.598 207.709 175.908 Q207.709 173.153 205.764 171.417 Q203.843 169.681 200.741 169.681 Q198.542 169.681 196.088 170.445 Q193.658 171.209 190.88 172.76 L190.88 168.037 Q193.704 166.903 196.158 166.325 Q198.612 165.746 200.649 165.746 Q206.019 165.746 209.213 168.431 Q212.408 171.116 212.408 175.607 Q212.408 177.737 211.598 179.658 Q210.811 181.556 208.704 184.149 Q208.125 184.82 205.024 188.037 Q201.922 191.232 196.274 196.996 Z" fill="#000000" fill-rule="nonzero" fill-opacity="1" /><path clip-path="url(#clip500)" d="M236.574 182.297 Q239.931 183.014 241.806 185.283 Q243.704 187.551 243.704 190.885 Q243.704 196 240.185 198.801 Q236.667 201.602 230.185 201.602 Q228.01 201.602 225.695 201.162 Q223.403 200.746 220.949 199.889 L220.949 195.375 Q222.894 196.51 225.209 197.088 Q227.523 197.667 230.047 197.667 Q234.445 197.667 236.736 195.931 Q239.051 194.195 239.051 190.885 Q239.051 187.829 236.898 186.116 Q234.769 184.38 230.949 184.38 L226.922 184.38 L226.922 180.537 L231.135 180.537 Q234.584 180.537 236.412 179.172 Q238.241 177.783 238.241 175.19 Q238.241 172.528 236.343 171.116 Q234.468 169.681 230.949 169.681 Q229.028 169.681 226.829 170.098 Q224.63 170.514 221.991 171.394 L221.991 167.227 Q224.653 166.487 226.968 166.116 Q229.306 165.746 231.366 165.746 Q236.69 165.746 239.792 168.176 Q242.894 170.584 242.894 174.704 Q242.894 177.574 241.25 179.565 Q239.607 181.533 236.574 182.297 Z" fill="#000000" fill-rule="nonzero" fill-opacity="1" /><path clip-path="url(#clip500)" d="M16.4842 837.445 L16.4842 827.864 L48.8219 815.738 L16.4842 803.547 L16.4842 793.967 L64.0042 793.967 L64.0042 800.237 L22.277 800.237 L54.8694 812.491 L54.8694 818.952 L22.277 831.206 L64.0042 831.206 L64.0042 837.445 L16.4842 837.445 Z" fill="#000000" fill-rule="nonzero" fill-opacity="1" /><path clip-path="url(#clip500)" d="M18.0438 752.717 L24.314 752.717 Q22.5634 756.377 21.704 759.624 Q20.8447 762.87 20.8447 765.894 Q20.8447 771.146 22.8817 774.01 Q24.9187 776.843 28.6745 776.843 Q31.8255 776.843 33.4488 774.965 Q35.0402 773.055 36.0269 767.772 L36.8226 763.889 Q38.1912 756.696 41.6605 753.29 Q45.098 749.852 50.8908 749.852 Q57.7976 749.852 61.3624 754.499 Q64.9272 759.115 64.9272 768.058 Q64.9272 771.432 64.1633 775.252 Q63.3994 779.039 61.9035 783.113 L55.2831 783.113 Q57.4793 779.198 58.5933 775.443 Q59.7073 771.687 59.7073 768.058 Q59.7073 762.552 57.543 759.56 Q55.3786 756.568 51.3682 756.568 Q47.8671 756.568 45.8937 758.733 Q43.9204 760.865 42.9337 765.767 L42.1698 769.682 Q40.7375 776.875 37.682 780.09 Q34.6264 783.304 29.1837 783.304 Q22.8817 783.304 19.2532 778.88 Q15.6248 774.424 15.6248 766.626 Q15.6248 763.284 16.2295 759.815 Q16.8343 756.345 18.0438 752.717 Z" fill="#000000" fill-rule="nonzero" fill-opacity="1" /><path clip-path="url(#clip500)" d="M16.4842 739.826 L16.4842 709.78 L21.895 709.78 L21.895 733.397 L35.9632 733.397 L35.9632 710.767 L41.3741 710.767 L41.3741 733.397 L58.5933 733.397 L58.5933 709.207 L64.0042 709.207 L64.0042 739.826 L16.4842 739.826 Z" fill="#000000" fill-rule="nonzero" fill-opacity="1" /><path clip-path="url(#clip500)" d="M400.422 12.096 L411.44 12.096 L438.257 62.6918 L438.257 12.096 L446.197 12.096 L446.197 72.576 L435.178 72.576 L408.362 21.9802 L408.362 72.576 L400.422 72.576 L400.422 12.096 Z" fill="#000000" fill-rule="nonzero" fill-opacity="1" /><path clip-path="url(#clip500)" d="M479.738 32.4315 Q473.743 32.4315 470.259 37.1306 Q466.776 41.7891 466.776 49.9314 Q466.776 58.0738 470.219 62.7728 Q473.703 67.4314 479.738 67.4314 Q485.693 67.4314 489.177 62.7323 Q492.661 58.0333 492.661 49.9314 Q492.661 41.8701 489.177 37.1711 Q485.693 32.4315 479.738 32.4315 M479.738 26.1121 Q489.461 26.1121 495.01 32.4315 Q500.56 38.7509 500.56 49.9314 Q500.56 61.0714 495.01 67.4314 Q489.461 73.7508 479.738 73.7508 Q469.976 73.7508 464.426 67.4314 Q458.917 61.0714 458.917 49.9314 Q458.917 38.7509 464.426 32.4315 Q469.976 26.1121 479.738 26.1121 Z" fill="#000000" fill-rule="nonzero" fill-opacity="1" /><path clip-path="url(#clip500)" d="M539.206 34.1734 Q537.95 33.4443 536.451 33.1202 Q534.993 32.7556 533.21 32.7556 Q526.891 32.7556 523.488 36.8875 Q520.126 40.9789 520.126 48.6757 L520.126 72.576 L512.632 72.576 L512.632 27.2059 L520.126 27.2059 L520.126 34.2544 Q522.475 30.1225 526.243 28.1376 Q530.01 26.1121 535.398 26.1121 Q536.168 26.1121 537.099 26.2337 Q538.031 26.3147 539.165 26.5172 L539.206 34.1734 Z" fill="#000000" fill-rule="nonzero" fill-opacity="1" /><path clip-path="url(#clip500)" d="M580.89 35.9153 Q583.685 30.8922 587.574 28.5022 Q591.462 26.1121 596.729 26.1121 Q603.818 26.1121 607.666 31.0947 Q611.514 36.0368 611.514 45.1919 L611.514 72.576 L604.02 72.576 L604.02 45.4349 Q604.02 38.913 601.711 35.7533 Q599.402 32.5936 594.663 32.5936 Q588.87 32.5936 585.508 36.4419 Q582.145 40.2903 582.145 46.9338 L582.145 72.576 L574.651 72.576 L574.651 45.4349 Q574.651 38.8725 572.342 35.7533 Q570.033 32.5936 565.213 32.5936 Q559.501 32.5936 556.138 36.4824 Q552.776 40.3308 552.776 46.9338 L552.776 72.576 L545.282 72.576 L545.282 27.2059 L552.776 27.2059 L552.776 34.2544 Q555.328 30.082 558.893 28.0971 Q562.458 26.1121 567.359 26.1121 Q572.302 26.1121 575.745 28.6237 Q579.229 31.1352 580.89 35.9153 Z" fill="#000000" fill-rule="nonzero" fill-opacity="1" /><path clip-path="url(#clip500)" d="M647 49.7694 Q637.967 49.7694 634.483 51.8354 Q630.999 53.9013 630.999 58.8839 Q630.999 62.8538 633.592 65.2034 Q636.225 67.5124 640.721 67.5124 Q646.919 67.5124 650.646 63.1374 Q654.413 58.7219 654.413 51.4303 L654.413 49.7694 L647 49.7694 M661.867 46.6907 L661.867 72.576 L654.413 72.576 L654.413 65.6895 Q651.861 69.8214 648.054 71.8063 Q644.246 73.7508 638.736 73.7508 Q631.769 73.7508 627.637 69.8619 Q623.546 65.9325 623.546 59.3701 Q623.546 51.7138 628.65 47.825 Q633.794 43.9361 643.962 43.9361 L654.413 43.9361 L654.413 43.2069 Q654.413 38.0623 651.011 35.2672 Q647.648 32.4315 641.532 32.4315 Q637.643 32.4315 633.956 33.3632 Q630.27 34.295 626.867 36.1584 L626.867 29.2718 Q630.959 27.692 634.807 26.9223 Q638.655 26.1121 642.301 26.1121 Q652.145 26.1121 657.006 31.2163 Q661.867 36.3204 661.867 46.6907 Z" fill="#000000" fill-rule="nonzero" fill-opacity="1" /><path clip-path="url(#clip500)" d="M677.22 9.54393 L684.674 9.54393 L684.674 72.576 L677.22 72.576 L677.22 9.54393 Z" fill="#000000" fill-rule="nonzero" fill-opacity="1" /><path clip-path="url(#clip500)" d="M700.27 27.2059 L707.723 27.2059 L707.723 72.576 L700.27 72.576 L700.27 27.2059 M700.27 9.54393 L707.723 9.54393 L707.723 18.9825 L700.27 18.9825 L700.27 9.54393 Z" fill="#000000" fill-rule="nonzero" fill-opacity="1" /><path clip-path="url(#clip500)" d="M720.079 27.2059 L755.483 27.2059 L755.483 34.0114 L727.451 66.6212 L755.483 66.6212 L755.483 72.576 L719.066 72.576 L719.066 65.7705 L747.098 33.1607 L720.079 33.1607 L720.079 27.2059 Z" fill="#000000" fill-rule="nonzero" fill-opacity="1" /><path clip-path="url(#clip500)" d="M805.674 48.0275 L805.674 51.6733 L771.404 51.6733 Q771.89 59.3701 776.022 63.421 Q780.194 67.4314 787.607 67.4314 Q791.901 67.4314 795.912 66.3781 Q799.962 65.3249 803.932 63.2184 L803.932 70.267 Q799.922 71.9684 795.709 72.8596 Q791.496 73.7508 787.162 73.7508 Q776.305 73.7508 769.945 67.4314 Q763.626 61.1119 763.626 50.3365 Q763.626 39.1965 769.621 32.6746 Q775.657 26.1121 785.865 26.1121 Q795.02 26.1121 800.327 32.0264 Q805.674 37.9003 805.674 48.0275 M798.221 45.84 Q798.14 39.7232 794.777 36.0774 Q791.456 32.4315 785.946 32.4315 Q779.708 32.4315 775.941 35.9558 Q772.214 39.4801 771.647 45.8805 L798.221 45.84 Z" fill="#000000" fill-rule="nonzero" fill-opacity="1" /><path clip-path="url(#clip500)" d="M847.763 34.0924 L847.763 9.54393 L855.217 9.54393 L855.217 72.576 L847.763 72.576 L847.763 65.7705 Q845.414 69.8214 841.808 71.8063 Q838.243 73.7508 833.22 73.7508 Q824.997 73.7508 819.812 67.1883 Q814.667 60.6258 814.667 49.9314 Q814.667 39.2371 819.812 32.6746 Q824.997 26.1121 833.22 26.1121 Q838.243 26.1121 841.808 28.0971 Q845.414 30.0415 847.763 34.0924 M822.364 49.9314 Q822.364 58.1548 825.726 62.8538 Q829.129 67.5124 835.043 67.5124 Q840.958 67.5124 844.36 62.8538 Q847.763 58.1548 847.763 49.9314 Q847.763 41.7081 844.36 37.0496 Q840.958 32.3505 835.043 32.3505 Q829.129 32.3505 825.726 37.0496 Q822.364 41.7081 822.364 49.9314 Z" fill="#000000" fill-rule="nonzero" fill-opacity="1" /><path clip-path="url(#clip500)" d="M897.265 12.096 L909.458 12.096 L924.892 53.2532 L940.407 12.096 L952.6 12.096 L952.6 72.576 L944.62 72.576 L944.62 19.4686 L929.024 60.9499 L920.801 60.9499 L905.205 19.4686 L905.205 72.576 L897.265 72.576 L897.265 12.096 Z" fill="#000000" fill-rule="nonzero" fill-opacity="1" /><path clip-path="url(#clip500)" d="M1005.1 14.0809 L1005.1 22.0612 Q1000.44 19.8332 996.31 18.7395 Q992.178 17.6457 988.329 17.6457 Q981.645 17.6457 978 20.2383 Q974.394 22.8309 974.394 27.611 Q974.394 31.6214 976.784 33.6873 Q979.215 35.7128 985.939 36.9686 L990.882 37.9813 Q1000.04 39.7232 1004.37 44.1387 Q1008.75 48.5136 1008.75 55.8863 Q1008.75 64.6767 1002.83 69.2137 Q996.958 73.7508 985.575 73.7508 Q981.281 73.7508 976.42 72.7785 Q971.599 71.8063 966.414 69.9024 L966.414 61.4765 Q971.397 64.2716 976.177 65.6895 Q980.957 67.1073 985.575 67.1073 Q992.583 67.1073 996.391 64.3527 Q1000.2 61.598 1000.2 56.4939 Q1000.2 52.0379 997.444 49.5264 Q994.73 47.0148 988.492 45.759 L983.509 44.7868 Q974.354 42.9639 970.262 39.075 Q966.171 35.1862 966.171 28.2591 Q966.171 20.2383 971.802 15.6203 Q977.473 11.0023 987.398 11.0023 Q991.651 11.0023 996.067 11.7719 Q1000.48 12.5416 1005.1 14.0809 Z" fill="#000000" fill-rule="nonzero" fill-opacity="1" /><path clip-path="url(#clip500)" d="M1021.51 12.096 L1059.75 12.096 L1059.75 18.9825 L1029.69 18.9825 L1029.69 36.8875 L1058.49 36.8875 L1058.49 43.7741 L1029.69 43.7741 L1029.69 65.6895 L1060.48 65.6895 L1060.48 72.576 L1021.51 72.576 L1021.51 12.096 Z" fill="#000000" fill-rule="nonzero" fill-opacity="1" /><path clip-path="url(#clip500)" d="M1117.55 32.4315 Q1111.56 32.4315 1108.07 37.1306 Q1104.59 41.7891 1104.59 49.9314 Q1104.59 58.0738 1108.03 62.7728 Q1111.52 67.4314 1117.55 67.4314 Q1123.51 67.4314 1126.99 62.7323 Q1130.48 58.0333 1130.48 49.9314 Q1130.48 41.8701 1126.99 37.1711 Q1123.51 32.4315 1117.55 32.4315 M1117.55 26.1121 Q1127.28 26.1121 1132.83 32.4315 Q1138.37 38.7509 1138.37 49.9314 Q1138.37 61.0714 1132.83 67.4314 Q1127.28 73.7508 1117.55 73.7508 Q1107.79 73.7508 1102.24 67.4314 Q1096.73 61.0714 1096.73 49.9314 Q1096.73 38.7509 1102.24 32.4315 Q1107.79 26.1121 1117.55 26.1121 Z" fill="#000000" fill-rule="nonzero" fill-opacity="1" /><path clip-path="url(#clip500)" d="M1188.44 45.1919 L1188.44 72.576 L1180.99 72.576 L1180.99 45.4349 Q1180.99 38.994 1178.48 35.7938 Q1175.97 32.5936 1170.94 32.5936 Q1164.91 32.5936 1161.42 36.4419 Q1157.94 40.2903 1157.94 46.9338 L1157.94 72.576 L1150.45 72.576 L1150.45 27.2059 L1157.94 27.2059 L1157.94 34.2544 Q1160.61 30.163 1164.22 28.1376 Q1167.87 26.1121 1172.61 26.1121 Q1180.42 26.1121 1184.43 30.9732 Q1188.44 35.7938 1188.44 45.1919 Z" fill="#000000" fill-rule="nonzero" fill-opacity="1" /><path clip-path="url(#clip500)" d="M1237.05 14.324 L1237.05 27.2059 L1252.41 27.2059 L1252.41 32.9987 L1237.05 32.9987 L1237.05 57.6282 Q1237.05 63.1779 1238.55 64.7578 Q1240.09 66.3376 1244.75 66.3376 L1252.41 66.3376 L1252.41 72.576 L1244.75 72.576 Q1236.12 72.576 1232.84 69.3758 Q1229.56 66.1351 1229.56 57.6282 L1229.56 32.9987 L1224.09 32.9987 L1224.09 27.2059 L1229.56 27.2059 L1229.56 14.324 L1237.05 14.324 Z" fill="#000000" fill-rule="nonzero" fill-opacity="1" /><path clip-path="url(#clip500)" d="M1288.5 34.1734 Q1287.25 33.4443 1285.75 33.1202 Q1284.29 32.7556 1282.51 32.7556 Q1276.19 32.7556 1272.78 36.8875 Q1269.42 40.9789 1269.42 48.6757 L1269.42 72.576 L1261.93 72.576 L1261.93 27.2059 L1269.42 27.2059 L1269.42 34.2544 Q1271.77 30.1225 1275.54 28.1376 Q1279.31 26.1121 1284.69 26.1121 Q1285.46 26.1121 1286.39 26.2337 Q1287.33 26.3147 1288.46 26.5172 L1288.5 34.1734 Z" fill="#000000" fill-rule="nonzero" fill-opacity="1" /><path clip-path="url(#clip500)" d="M1316.94 49.7694 Q1307.91 49.7694 1304.42 51.8354 Q1300.94 53.9013 1300.94 58.8839 Q1300.94 62.8538 1303.53 65.2034 Q1306.16 67.5124 1310.66 67.5124 Q1316.86 67.5124 1320.58 63.1374 Q1324.35 58.7219 1324.35 51.4303 L1324.35 49.7694 L1316.94 49.7694 M1331.81 46.6907 L1331.81 72.576 L1324.35 72.576 L1324.35 65.6895 Q1321.8 69.8214 1317.99 71.8063 Q1314.18 73.7508 1308.67 73.7508 Q1301.71 73.7508 1297.58 69.8619 Q1293.48 65.9325 1293.48 59.3701 Q1293.48 51.7138 1298.59 47.825 Q1303.73 43.9361 1313.9 43.9361 L1324.35 43.9361 L1324.35 43.2069 Q1324.35 38.0623 1320.95 35.2672 Q1317.59 32.4315 1311.47 32.4315 Q1307.58 32.4315 1303.89 33.3632 Q1300.21 34.295 1296.81 36.1584 L1296.81 29.2718 Q1300.9 27.692 1304.75 26.9223 Q1308.59 26.1121 1312.24 26.1121 Q1322.08 26.1121 1326.94 31.2163 Q1331.81 36.3204 1331.81 46.6907 Z" fill="#000000" fill-rule="nonzero" fill-opacity="1" /><path clip-path="url(#clip500)" d="M1347.16 27.2059 L1354.61 27.2059 L1354.61 72.576 L1347.16 72.576 L1347.16 27.2059 M1347.16 9.54393 L1354.61 9.54393 L1354.61 18.9825 L1347.16 18.9825 L1347.16 9.54393 Z" fill="#000000" fill-rule="nonzero" fill-opacity="1" /><path clip-path="url(#clip500)" d="M1407.92 45.1919 L1407.92 72.576 L1400.47 72.576 L1400.47 45.4349 Q1400.47 38.994 1397.96 35.7938 Q1395.45 32.5936 1390.42 32.5936 Q1384.39 32.5936 1380.9 36.4419 Q1377.42 40.2903 1377.42 46.9338 L1377.42 72.576 L1369.92 72.576 L1369.92 27.2059 L1377.42 27.2059 L1377.42 34.2544 Q1380.09 30.163 1383.7 28.1376 Q1387.34 26.1121 1392.08 26.1121 Q1399.9 26.1121 1403.91 30.9732 Q1407.92 35.7938 1407.92 45.1919 Z" fill="#000000" fill-rule="nonzero" fill-opacity="1" /><path clip-path="url(#clip500)" d="M1422.79 27.2059 L1430.24 27.2059 L1430.24 72.576 L1422.79 72.576 L1422.79 27.2059 M1422.79 9.54393 L1430.24 9.54393 L1430.24 18.9825 L1422.79 18.9825 L1422.79 9.54393 Z" fill="#000000" fill-rule="nonzero" fill-opacity="1" /><path clip-path="url(#clip500)" d="M1483.55 45.1919 L1483.55 72.576 L1476.1 72.576 L1476.1 45.4349 Q1476.1 38.994 1473.59 35.7938 Q1471.08 32.5936 1466.05 32.5936 Q1460.02 32.5936 1456.53 36.4419 Q1453.05 40.2903 1453.05 46.9338 L1453.05 72.576 L1445.56 72.576 L1445.56 27.2059 L1453.05 27.2059 L1453.05 34.2544 Q1455.72 30.163 1459.33 28.1376 Q1462.97 26.1121 1467.71 26.1121 Q1475.53 26.1121 1479.54 30.9732 Q1483.55 35.7938 1483.55 45.1919 Z" fill="#000000" fill-rule="nonzero" fill-opacity="1" /><path clip-path="url(#clip500)" d="M1528.27 49.3643 Q1528.27 41.2625 1524.91 36.8065 Q1521.59 32.3505 1515.55 32.3505 Q1509.56 32.3505 1506.2 36.8065 Q1502.88 41.2625 1502.88 49.3643 Q1502.88 57.4256 1506.2 61.8816 Q1509.56 66.3376 1515.55 66.3376 Q1521.59 66.3376 1524.91 61.8816 Q1528.27 57.4256 1528.27 49.3643 M1535.73 66.9452 Q1535.73 78.5308 1530.58 84.1616 Q1525.44 89.8329 1514.83 89.8329 Q1510.9 89.8329 1507.41 89.2252 Q1503.93 88.6581 1500.65 87.4428 L1500.65 80.1917 Q1503.93 81.9741 1507.13 82.8248 Q1510.33 83.6755 1513.65 83.6755 Q1520.98 83.6755 1524.63 79.8271 Q1528.27 76.0193 1528.27 68.282 L1528.27 64.5957 Q1525.97 68.6061 1522.36 70.5911 Q1518.75 72.576 1513.73 72.576 Q1505.39 72.576 1500.28 66.2161 Q1495.18 59.8562 1495.18 49.3643 Q1495.18 38.832 1500.28 32.472 Q1505.39 26.1121 1513.73 26.1121 Q1518.75 26.1121 1522.36 28.0971 Q1525.97 30.082 1528.27 34.0924 L1528.27 27.2059 L1535.73 27.2059 L1535.73 66.9452 Z" fill="#000000" fill-rule="nonzero" fill-opacity="1" /><path clip-path="url(#clip500)" d="M1598.07 49.7694 Q1589.04 49.7694 1585.55 51.8354 Q1582.07 53.9013 1582.07 58.8839 Q1582.07 62.8538 1584.66 65.2034 Q1587.3 67.5124 1591.79 67.5124 Q1597.99 67.5124 1601.72 63.1374 Q1605.48 58.7219 1605.48 51.4303 L1605.48 49.7694 L1598.07 49.7694 M1612.94 46.6907 L1612.94 72.576 L1605.48 72.576 L1605.48 65.6895 Q1602.93 69.8214 1599.12 71.8063 Q1595.32 73.7508 1589.81 73.7508 Q1582.84 73.7508 1578.71 69.8619 Q1574.62 65.9325 1574.62 59.3701 Q1574.62 51.7138 1579.72 47.825 Q1584.87 43.9361 1595.03 43.9361 L1605.48 43.9361 L1605.48 43.2069 Q1605.48 38.0623 1602.08 35.2672 Q1598.72 32.4315 1592.6 32.4315 Q1588.71 32.4315 1585.03 33.3632 Q1581.34 34.295 1577.94 36.1584 L1577.94 29.2718 Q1582.03 27.692 1585.88 26.9223 Q1589.73 26.1121 1593.37 26.1121 Q1603.22 26.1121 1608.08 31.2163 Q1612.94 36.3204 1612.94 46.6907 Z" fill="#000000" fill-rule="nonzero" fill-opacity="1" /><path clip-path="url(#clip500)" d="M1666.01 45.1919 L1666.01 72.576 L1658.55 72.576 L1658.55 45.4349 Q1658.55 38.994 1656.04 35.7938 Q1653.53 32.5936 1648.51 32.5936 Q1642.47 32.5936 1638.99 36.4419 Q1635.5 40.2903 1635.5 46.9338 L1635.5 72.576 L1628.01 72.576 L1628.01 27.2059 L1635.5 27.2059 L1635.5 34.2544 Q1638.18 30.163 1641.78 28.1376 Q1645.43 26.1121 1650.17 26.1121 Q1657.98 26.1121 1661.99 30.9732 Q1666.01 35.7938 1666.01 45.1919 Z" fill="#000000" fill-rule="nonzero" fill-opacity="1" /><path clip-path="url(#clip500)" d="M1710.73 34.0924 L1710.73 9.54393 L1718.18 9.54393 L1718.18 72.576 L1710.73 72.576 L1710.73 65.7705 Q1708.38 69.8214 1704.77 71.8063 Q1701.21 73.7508 1696.18 73.7508 Q1687.96 73.7508 1682.78 67.1883 Q1677.63 60.6258 1677.63 49.9314 Q1677.63 39.2371 1682.78 32.6746 Q1687.96 26.1121 1696.18 26.1121 Q1701.21 26.1121 1704.77 28.0971 Q1708.38 30.0415 1710.73 34.0924 M1685.33 49.9314 Q1685.33 58.1548 1688.69 62.8538 Q1692.09 67.5124 1698.01 67.5124 Q1703.92 67.5124 1707.32 62.8538 Q1710.73 58.1548 1710.73 49.9314 Q1710.73 41.7081 1707.32 37.0496 Q1703.92 32.3505 1698.01 32.3505 Q1692.09 32.3505 1688.69 37.0496 Q1685.33 41.7081 1685.33 49.9314 Z" fill="#000000" fill-rule="nonzero" fill-opacity="1" /><path clip-path="url(#clip500)" d="M1767.28 14.324 L1767.28 27.2059 L1782.63 27.2059 L1782.63 32.9987 L1767.28 32.9987 L1767.28 57.6282 Q1767.28 63.1779 1768.78 64.7578 Q1770.32 66.3376 1774.97 66.3376 L1782.63 66.3376 L1782.63 72.576 L1774.97 72.576 Q1766.35 72.576 1763.06 69.3758 Q1759.78 66.1351 1759.78 57.6282 L1759.78 32.9987 L1754.31 32.9987 L1754.31 27.2059 L1759.78 27.2059 L1759.78 14.324 L1767.28 14.324 Z" fill="#000000" fill-rule="nonzero" fill-opacity="1" /><path clip-path="url(#clip500)" d="M1831.24 48.0275 L1831.24 51.6733 L1796.97 51.6733 Q1797.46 59.3701 1801.59 63.421 Q1805.76 67.4314 1813.17 67.4314 Q1817.47 67.4314 1821.48 66.3781 Q1825.53 65.3249 1829.5 63.2184 L1829.5 70.267 Q1825.49 71.9684 1821.28 72.8596 Q1817.06 73.7508 1812.73 73.7508 Q1801.87 73.7508 1795.51 67.4314 Q1789.19 61.1119 1789.19 50.3365 Q1789.19 39.1965 1795.19 32.6746 Q1801.22 26.1121 1811.43 26.1121 Q1820.59 26.1121 1825.89 32.0264 Q1831.24 37.9003 1831.24 48.0275 M1823.79 45.84 Q1823.71 39.7232 1820.34 36.0774 Q1817.02 32.4315 1811.51 32.4315 Q1805.28 32.4315 1801.51 35.9558 Q1797.78 39.4801 1797.21 45.8805 L1823.79 45.84 Z" fill="#000000" fill-rule="nonzero" fill-opacity="1" /><path clip-path="url(#clip500)" d="M1872.4 28.5427 L1872.4 35.5912 Q1869.24 33.9709 1865.84 33.1607 Q1862.43 32.3505 1858.79 32.3505 Q1853.24 32.3505 1850.44 34.0519 Q1847.69 35.7533 1847.69 39.156 Q1847.69 41.7486 1849.67 43.2475 Q1851.66 44.7058 1857.65 46.0426 L1860.21 46.6097 Q1868.15 48.3111 1871.47 51.4303 Q1874.83 54.509 1874.83 60.0587 Q1874.83 66.3781 1869.81 70.0644 Q1864.82 73.7508 1856.07 73.7508 Q1852.43 73.7508 1848.46 73.0216 Q1844.53 72.3329 1840.15 70.9151 L1840.15 63.2184 Q1844.29 65.3654 1848.3 66.4591 Q1852.31 67.5124 1856.24 67.5124 Q1861.5 67.5124 1864.34 65.73 Q1867.17 63.9071 1867.17 60.6258 Q1867.17 57.5877 1865.11 55.9673 Q1863.08 54.3469 1856.15 52.8481 L1853.56 52.2405 Q1846.64 50.7821 1843.56 47.7845 Q1840.48 44.7463 1840.48 39.4801 Q1840.48 33.0797 1845.01 29.5959 Q1849.55 26.1121 1857.9 26.1121 Q1862.03 26.1121 1865.67 26.7198 Q1869.32 27.3274 1872.4 28.5427 Z" fill="#000000" fill-rule="nonzero" fill-opacity="1" /><path clip-path="url(#clip500)" d="M1894.07 14.324 L1894.07 27.2059 L1909.42 27.2059 L1909.42 32.9987 L1894.07 32.9987 L1894.07 57.6282 Q1894.07 63.1779 1895.57 64.7578 Q1897.11 66.3376 1901.77 66.3376 L1909.42 66.3376 L1909.42 72.576 L1901.77 72.576 Q1893.14 72.576 1889.86 69.3758 Q1886.58 66.1351 1886.58 57.6282 L1886.58 32.9987 L1881.11 32.9987 L1881.11 27.2059 L1886.58 27.2059 L1886.58 14.324 L1894.07 14.324 Z" fill="#000000" fill-rule="nonzero" fill-opacity="1" /><path clip-path="url(#clip500)" d="M1919.23 27.2059 L1926.68 27.2059 L1926.68 72.576 L1919.23 72.576 L1919.23 27.2059 M1919.23 9.54393 L1926.68 9.54393 L1926.68 18.9825 L1919.23 18.9825 L1919.23 9.54393 Z" fill="#000000" fill-rule="nonzero" fill-opacity="1" /><path clip-path="url(#clip500)" d="M1979.99 45.1919 L1979.99 72.576 L1972.54 72.576 L1972.54 45.4349 Q1972.54 38.994 1970.03 35.7938 Q1967.51 32.5936 1962.49 32.5936 Q1956.46 32.5936 1952.97 36.4419 Q1949.49 40.2903 1949.49 46.9338 L1949.49 72.576 L1941.99 72.576 L1941.99 27.2059 L1949.49 27.2059 L1949.49 34.2544 Q1952.16 30.163 1955.77 28.1376 Q1959.41 26.1121 1964.15 26.1121 Q1971.97 26.1121 1975.98 30.9732 Q1979.99 35.7938 1979.99 45.1919 Z" fill="#000000" fill-rule="nonzero" fill-opacity="1" /><path clip-path="url(#clip500)" d="M2024.71 49.3643 Q2024.71 41.2625 2021.35 36.8065 Q2018.03 32.3505 2011.99 32.3505 Q2006 32.3505 2002.64 36.8065 Q1999.31 41.2625 1999.31 49.3643 Q1999.31 57.4256 2002.64 61.8816 Q2006 66.3376 2011.99 66.3376 Q2018.03 66.3376 2021.35 61.8816 Q2024.71 57.4256 2024.71 49.3643 M2032.17 66.9452 Q2032.17 78.5308 2027.02 84.1616 Q2021.88 89.8329 2011.26 89.8329 Q2007.33 89.8329 2003.85 89.2252 Q2000.37 88.6581 1997.09 87.4428 L1997.09 80.1917 Q2000.37 81.9741 2003.57 82.8248 Q2006.77 83.6755 2010.09 83.6755 Q2017.42 83.6755 2021.07 79.8271 Q2024.71 76.0193 2024.71 68.282 L2024.71 64.5957 Q2022.4 68.6061 2018.8 70.5911 Q2015.19 72.576 2010.17 72.576 Q2001.83 72.576 1996.72 66.2161 Q1991.62 59.8562 1991.62 49.3643 Q1991.62 38.832 1996.72 32.472 Q2001.83 26.1121 2010.17 26.1121 Q2015.19 26.1121 2018.8 28.0971 Q2022.4 30.082 2024.71 34.0924 L2024.71 27.2059 L2032.17 27.2059 L2032.17 66.9452 Z" fill="#000000" fill-rule="nonzero" fill-opacity="1" /><path clip-path="url(#clip500)" d="M2102.81 28.5427 L2102.81 35.5912 Q2099.65 33.9709 2096.25 33.1607 Q2092.85 32.3505 2089.2 32.3505 Q2083.65 32.3505 2080.86 34.0519 Q2078.1 35.7533 2078.1 39.156 Q2078.1 41.7486 2080.09 43.2475 Q2082.07 44.7058 2088.07 46.0426 L2090.62 46.6097 Q2098.56 48.3111 2101.88 51.4303 Q2105.24 54.509 2105.24 60.0587 Q2105.24 66.3781 2100.22 70.0644 Q2095.24 73.7508 2086.49 73.7508 Q2082.84 73.7508 2078.87 73.0216 Q2074.94 72.3329 2070.57 70.9151 L2070.57 63.2184 Q2074.7 65.3654 2078.71 66.4591 Q2082.72 67.5124 2086.65 67.5124 Q2091.92 67.5124 2094.75 65.73 Q2097.59 63.9071 2097.59 60.6258 Q2097.59 57.5877 2095.52 55.9673 Q2093.5 54.3469 2086.57 52.8481 L2083.98 52.2405 Q2077.05 50.7821 2073.97 47.7845 Q2070.89 44.7463 2070.89 39.4801 Q2070.89 33.0797 2075.43 29.5959 Q2079.97 26.1121 2088.31 26.1121 Q2092.44 26.1121 2096.09 26.7198 Q2099.74 27.3274 2102.81 28.5427 Z" fill="#000000" fill-rule="nonzero" fill-opacity="1" /><path clip-path="url(#clip500)" d="M2155.92 48.0275 L2155.92 51.6733 L2121.65 51.6733 Q2122.14 59.3701 2126.27 63.421 Q2130.44 67.4314 2137.85 67.4314 Q2142.15 67.4314 2146.16 66.3781 Q2150.21 65.3249 2154.18 63.2184 L2154.18 70.267 Q2150.17 71.9684 2145.96 72.8596 Q2141.74 73.7508 2137.41 73.7508 Q2126.55 73.7508 2120.19 67.4314 Q2113.87 61.1119 2113.87 50.3365 Q2113.87 39.1965 2119.87 32.6746 Q2125.9 26.1121 2136.11 26.1121 Q2145.27 26.1121 2150.57 32.0264 Q2155.92 37.9003 2155.92 48.0275 M2148.47 45.84 Q2148.39 39.7232 2145.02 36.0774 Q2141.7 32.4315 2136.19 32.4315 Q2129.96 32.4315 2126.19 35.9558 Q2122.46 39.4801 2121.89 45.8805 L2148.47 45.84 Z" fill="#000000" fill-rule="nonzero" fill-opacity="1" /><path clip-path="url(#clip500)" d="M2175.53 14.324 L2175.53 27.2059 L2190.88 27.2059 L2190.88 32.9987 L2175.53 32.9987 L2175.53 57.6282 Q2175.53 63.1779 2177.03 64.7578 Q2178.57 66.3376 2183.22 66.3376 L2190.88 66.3376 L2190.88 72.576 L2183.22 72.576 Q2174.6 72.576 2171.32 69.3758 Q2168.03 66.1351 2168.03 57.6282 L2168.03 32.9987 L2162.57 32.9987 L2162.57 27.2059 L2168.03 27.2059 L2168.03 14.324 L2175.53 14.324 Z" fill="#000000" fill-rule="nonzero" fill-opacity="1" /><path clip-path="url(#clip500)" d="M2229.61 28.5427 L2229.61 35.5912 Q2226.45 33.9709 2223.05 33.1607 Q2219.64 32.3505 2216 32.3505 Q2210.45 32.3505 2207.65 34.0519 Q2204.9 35.7533 2204.9 39.156 Q2204.9 41.7486 2206.88 43.2475 Q2208.87 44.7058 2214.86 46.0426 L2217.41 46.6097 Q2225.35 48.3111 2228.68 51.4303 Q2232.04 54.509 2232.04 60.0587 Q2232.04 66.3781 2227.01 70.0644 Q2222.03 73.7508 2213.28 73.7508 Q2209.64 73.7508 2205.67 73.0216 Q2201.74 72.3329 2197.36 70.9151 L2197.36 63.2184 Q2201.49 65.3654 2205.5 66.4591 Q2209.52 67.5124 2213.44 67.5124 Q2218.71 67.5124 2221.55 65.73 Q2224.38 63.9071 2224.38 60.6258 Q2224.38 57.5877 2222.32 55.9673 Q2220.29 54.3469 2213.36 52.8481 L2210.77 52.2405 Q2203.84 50.7821 2200.77 47.7845 Q2197.69 44.7463 2197.69 39.4801 Q2197.69 33.0797 2202.22 29.5959 Q2206.76 26.1121 2215.11 26.1121 Q2219.24 26.1121 2222.88 26.7198 Q2226.53 27.3274 2229.61 28.5427 Z" fill="#000000" fill-rule="nonzero" fill-opacity="1" /><polyline clip-path="url(#clip502)" style="stroke:#009af9; stroke-linecap:round; stroke-linejoin:round; stroke-width:12; stroke-opacity:1; fill:none" points="338.375,160.32 377.489,213.622 416.604,265.599 455.718,316.256 494.832,365.596 533.946,413.624 573.06,460.343 612.175,505.757 651.289,549.871 690.403,592.688 729.517,634.212 768.631,674.446 807.745,713.396 846.86,751.064 885.974,787.454 925.088,822.571 964.202,856.417 1003.32,888.998 1042.43,920.316 1081.54,950.375 1120.66,979.179 1159.77,1006.73 1198.89,1033.04 1238,1058.1 1277.12,1081.92 1316.23,1104.5 1355.34,1125.86 1394.46,1145.98 1433.57,1164.87 1472.69,1182.55 1511.8,1199.01 1550.92,1214.25 1590.03,1228.28 1629.14,1241.1 1668.26,1252.72 1707.37,1263.14 1746.49,1272.36 1785.6,1280.38 1824.71,1287.22 1863.83,1292.87 1902.94,1297.34 1942.06,1300.62 1981.17,1302.74 2020.29,1303.67 2059.4,1303.44 2098.51,1302.05 2137.63,1299.49 2176.74,1295.77 2215.86,1290.89 2254.97,1284.86 2294.08,1277.69 "/>
<polyline clip-path="url(#clip502)" style="stroke:#e26f46; stroke-linecap:round; stroke-linejoin:round; stroke-width:12; stroke-opacity:1; fill:none" stroke-dasharray="48, 30" points="338.375,1386.4 377.489,1385.89 416.604,1384.38 455.718,1381.87 494.832,1378.35 533.946,1373.83 573.06,1368.31 612.175,1361.8 651.289,1354.28 690.403,1345.78 729.517,1336.28 768.631,1325.78 807.745,1314.3 846.86,1301.83 885.974,1288.38 925.088,1273.94 964.202,1258.51 1003.32,1242.11 1042.43,1224.72 1081.54,1206.36 1120.66,1187.01 1159.77,1166.7 1198.89,1145.41 1238,1123.14 1277.12,1099.91 1316.23,1075.71 1355.34,1050.54 1394.46,1024.41 1433.57,997.306 1472.69,969.243 1511.8,940.22 1550.92,910.237 1590.03,879.296 1629.14,847.398 1668.26,814.545 1707.37,780.739 1746.49,745.981 1785.6,710.272 1824.71,673.614 1863.83,636.01 1902.94,597.459 1942.06,557.964 1981.17,517.526 2020.29,476.146 2059.4,433.827 2098.51,390.569 2137.63,346.374 2176.74,301.244 2215.86,255.18 2254.97,208.184 2294.08,160.256 "/>
<path clip-path="url(#clip500)" d="M1753.87 1266.92 L2178.86 1266.92 L2178.86 1111.4 L1753.87 1111.4  Z" fill="#ffffff" fill-rule="evenodd" fill-opacity="1"/>
<polyline clip-path="url(#clip500)" style="stroke:#000000; stroke-linecap:round; stroke-linejoin:round; stroke-width:4; stroke-opacity:1; fill:none" points="1753.87,1266.92 2178.86,1266.92 2178.86,1111.4 1753.87,1111.4 1753.87,1266.92 "/>
<polyline clip-path="url(#clip500)" style="stroke:#009af9; stroke-linecap:round; stroke-linejoin:round; stroke-width:12; stroke-opacity:1; fill:none" points="1776.91,1163.24 1915.11,1163.24 "/>
<path clip-path="url(#clip500)" d="M1938.15 1145.96 L1945.11 1145.96 L1953.93 1169.48 L1962.8 1145.96 L1969.77 1145.96 L1969.77 1180.52 L1965.21 1180.52 L1965.21 1150.17 L1956.29 1173.87 L1951.59 1173.87 L1942.68 1150.17 L1942.68 1180.52 L1938.15 1180.52 L1938.15 1145.96 Z" fill="#000000" fill-rule="nonzero" fill-opacity="1" /><path clip-path="url(#clip500)" d="M1999.77 1147.09 L1999.77 1151.65 Q1997.1 1150.38 1994.74 1149.75 Q1992.38 1149.13 1990.18 1149.13 Q1986.36 1149.13 1984.28 1150.61 Q1982.22 1152.09 1982.22 1154.82 Q1982.22 1157.12 1983.59 1158.3 Q1984.97 1159.45 1988.82 1160.17 L1991.64 1160.75 Q1996.87 1161.75 1999.35 1164.27 Q2001.85 1166.77 2001.85 1170.98 Q2001.85 1176 1998.47 1178.6 Q1995.11 1181.19 1988.61 1181.19 Q1986.15 1181.19 1983.38 1180.63 Q1980.62 1180.08 1977.66 1178.99 L1977.66 1174.18 Q1980.51 1175.77 1983.24 1176.58 Q1985.97 1177.39 1988.61 1177.39 Q1992.61 1177.39 1994.79 1175.82 Q1996.96 1174.25 1996.96 1171.33 Q1996.96 1168.78 1995.39 1167.35 Q1993.84 1165.91 1990.27 1165.19 L1987.43 1164.64 Q1982.2 1163.6 1979.86 1161.37 Q1977.52 1159.15 1977.52 1155.19 Q1977.52 1150.61 1980.74 1147.97 Q1983.98 1145.33 1989.65 1145.33 Q1992.08 1145.33 1994.6 1145.77 Q1997.13 1146.21 1999.77 1147.09 Z" fill="#000000" fill-rule="nonzero" fill-opacity="1" /><path clip-path="url(#clip500)" d="M2009.14 1145.96 L2030.99 1145.96 L2030.99 1149.89 L2013.82 1149.89 L2013.82 1160.12 L2030.27 1160.12 L2030.27 1164.06 L2013.82 1164.06 L2013.82 1176.58 L2031.41 1176.58 L2031.41 1180.52 L2009.14 1180.52 L2009.14 1145.96 Z" fill="#000000" fill-rule="nonzero" fill-opacity="1" /><path clip-path="url(#clip500)" d="M2058.19 1147.23 L2058.19 1154.59 L2066.96 1154.59 L2066.96 1157.9 L2058.19 1157.9 L2058.19 1171.98 Q2058.19 1175.15 2059.05 1176.05 Q2059.93 1176.95 2062.59 1176.95 L2066.96 1176.95 L2066.96 1180.52 L2062.59 1180.52 Q2057.66 1180.52 2055.78 1178.69 Q2053.91 1176.84 2053.91 1171.98 L2053.91 1157.9 L2050.78 1157.9 L2050.78 1154.59 L2053.91 1154.59 L2053.91 1147.23 L2058.19 1147.23 Z" fill="#000000" fill-rule="nonzero" fill-opacity="1" /><path clip-path="url(#clip500)" d="M2094.74 1166.49 L2094.74 1168.57 L2075.16 1168.57 Q2075.44 1172.97 2077.8 1175.29 Q2080.18 1177.58 2084.42 1177.58 Q2086.87 1177.58 2089.16 1176.98 Q2091.48 1176.37 2093.75 1175.17 L2093.75 1179.2 Q2091.45 1180.17 2089.05 1180.68 Q2086.64 1181.19 2084.16 1181.19 Q2077.96 1181.19 2074.33 1177.58 Q2070.71 1173.97 2070.71 1167.81 Q2070.71 1161.44 2074.14 1157.72 Q2077.59 1153.97 2083.42 1153.97 Q2088.65 1153.97 2091.69 1157.35 Q2094.74 1160.7 2094.74 1166.49 M2090.48 1165.24 Q2090.44 1161.75 2088.52 1159.66 Q2086.62 1157.58 2083.47 1157.58 Q2079.9 1157.58 2077.75 1159.59 Q2075.62 1161.61 2075.3 1165.26 L2090.48 1165.24 Z" fill="#000000" fill-rule="nonzero" fill-opacity="1" /><path clip-path="url(#clip500)" d="M2118.26 1155.36 L2118.26 1159.38 Q2116.45 1158.46 2114.51 1158 Q2112.57 1157.53 2110.48 1157.53 Q2107.31 1157.53 2105.71 1158.5 Q2104.14 1159.48 2104.14 1161.42 Q2104.14 1162.9 2105.27 1163.76 Q2106.41 1164.59 2109.83 1165.36 L2111.29 1165.68 Q2115.83 1166.65 2117.73 1168.44 Q2119.65 1170.19 2119.65 1173.37 Q2119.65 1176.98 2116.78 1179.08 Q2113.93 1181.19 2108.93 1181.19 Q2106.85 1181.19 2104.58 1180.77 Q2102.33 1180.38 2099.83 1179.57 L2099.83 1175.17 Q2102.2 1176.4 2104.49 1177.02 Q2106.78 1177.62 2109.02 1177.62 Q2112.03 1177.62 2113.65 1176.61 Q2115.27 1175.56 2115.27 1173.69 Q2115.27 1171.95 2114.09 1171.03 Q2112.94 1170.1 2108.98 1169.25 L2107.5 1168.9 Q2103.54 1168.06 2101.78 1166.35 Q2100.02 1164.62 2100.02 1161.61 Q2100.02 1157.95 2102.61 1155.96 Q2105.2 1153.97 2109.97 1153.97 Q2112.33 1153.97 2114.42 1154.31 Q2116.5 1154.66 2118.26 1155.36 Z" fill="#000000" fill-rule="nonzero" fill-opacity="1" /><path clip-path="url(#clip500)" d="M2130.64 1147.23 L2130.64 1154.59 L2139.42 1154.59 L2139.42 1157.9 L2130.64 1157.9 L2130.64 1171.98 Q2130.64 1175.15 2131.5 1176.05 Q2132.38 1176.95 2135.04 1176.95 L2139.42 1176.95 L2139.42 1180.52 L2135.04 1180.52 Q2130.11 1180.52 2128.24 1178.69 Q2126.36 1176.84 2126.36 1171.98 L2126.36 1157.9 L2123.24 1157.9 L2123.24 1154.59 L2126.36 1154.59 L2126.36 1147.23 L2130.64 1147.23 Z" fill="#000000" fill-rule="nonzero" fill-opacity="1" /><polyline clip-path="url(#clip500)" style="stroke:#e26f46; stroke-linecap:round; stroke-linejoin:round; stroke-width:12; stroke-opacity:1; fill:none" stroke-dasharray="48, 30" points="1776.91,1215.08 1915.11,1215.08 "/>
<path clip-path="url(#clip500)" d="M1938.15 1197.8 L1945.11 1197.8 L1953.93 1221.32 L1962.8 1197.8 L1969.77 1197.8 L1969.77 1232.36 L1965.21 1232.36 L1965.21 1202.01 L1956.29 1225.71 L1951.59 1225.71 L1942.68 1202.01 L1942.68 1232.36 L1938.15 1232.36 L1938.15 1197.8 Z" fill="#000000" fill-rule="nonzero" fill-opacity="1" /><path clip-path="url(#clip500)" d="M1999.77 1198.93 L1999.77 1203.49 Q1997.1 1202.22 1994.74 1201.59 Q1992.38 1200.97 1990.18 1200.97 Q1986.36 1200.97 1984.28 1202.45 Q1982.22 1203.93 1982.22 1206.66 Q1982.22 1208.96 1983.59 1210.14 Q1984.97 1211.29 1988.82 1212.01 L1991.64 1212.59 Q1996.87 1213.59 1999.35 1216.11 Q2001.85 1218.61 2001.85 1222.82 Q2001.85 1227.84 1998.47 1230.44 Q1995.11 1233.03 1988.61 1233.03 Q1986.15 1233.03 1983.38 1232.47 Q1980.62 1231.92 1977.66 1230.83 L1977.66 1226.02 Q1980.51 1227.61 1983.24 1228.42 Q1985.97 1229.23 1988.61 1229.23 Q1992.61 1229.23 1994.79 1227.66 Q1996.96 1226.09 1996.96 1223.17 Q1996.96 1220.62 1995.39 1219.19 Q1993.84 1217.75 1990.27 1217.03 L1987.43 1216.48 Q1982.2 1215.44 1979.86 1213.21 Q1977.52 1210.99 1977.52 1207.03 Q1977.52 1202.45 1980.74 1199.81 Q1983.98 1197.17 1989.65 1197.17 Q1992.08 1197.17 1994.6 1197.61 Q1997.13 1198.05 1999.77 1198.93 Z" fill="#000000" fill-rule="nonzero" fill-opacity="1" /><path clip-path="url(#clip500)" d="M2009.14 1197.8 L2030.99 1197.8 L2030.99 1201.73 L2013.82 1201.73 L2013.82 1211.96 L2030.27 1211.96 L2030.27 1215.9 L2013.82 1215.9 L2013.82 1228.42 L2031.41 1228.42 L2031.41 1232.36 L2009.14 1232.36 L2009.14 1197.8 Z" fill="#000000" fill-rule="nonzero" fill-opacity="1" /><path clip-path="url(#clip500)" d="M2058.19 1199.07 L2058.19 1206.43 L2066.96 1206.43 L2066.96 1209.74 L2058.19 1209.74 L2058.19 1223.82 Q2058.19 1226.99 2059.05 1227.89 Q2059.93 1228.79 2062.59 1228.79 L2066.96 1228.79 L2066.96 1232.36 L2062.59 1232.36 Q2057.66 1232.36 2055.78 1230.53 Q2053.91 1228.68 2053.91 1223.82 L2053.91 1209.74 L2050.78 1209.74 L2050.78 1206.43 L2053.91 1206.43 L2053.91 1199.07 L2058.19 1199.07 Z" fill="#000000" fill-rule="nonzero" fill-opacity="1" /><path clip-path="url(#clip500)" d="M2087.59 1210.41 Q2086.87 1210 2086.02 1209.81 Q2085.18 1209.6 2084.16 1209.6 Q2080.55 1209.6 2078.61 1211.96 Q2076.69 1214.3 2076.69 1218.7 L2076.69 1232.36 L2072.4 1232.36 L2072.4 1206.43 L2076.69 1206.43 L2076.69 1210.46 Q2078.03 1208.1 2080.18 1206.96 Q2082.33 1205.81 2085.41 1205.81 Q2085.85 1205.81 2086.39 1205.88 Q2086.92 1205.92 2087.57 1206.04 L2087.59 1210.41 Z" fill="#000000" fill-rule="nonzero" fill-opacity="1" /><path clip-path="url(#clip500)" d="M2103.84 1219.33 Q2098.68 1219.33 2096.69 1220.51 Q2094.7 1221.69 2094.7 1224.53 Q2094.7 1226.8 2096.18 1228.15 Q2097.68 1229.46 2100.25 1229.46 Q2103.79 1229.46 2105.92 1226.96 Q2108.08 1224.44 2108.08 1220.28 L2108.08 1219.33 L2103.84 1219.33 M2112.33 1217.57 L2112.33 1232.36 L2108.08 1232.36 L2108.08 1228.42 Q2106.62 1230.78 2104.44 1231.92 Q2102.26 1233.03 2099.12 1233.03 Q2095.14 1233.03 2092.77 1230.81 Q2090.44 1228.56 2090.44 1224.81 Q2090.44 1220.44 2093.35 1218.21 Q2096.29 1215.99 2102.1 1215.99 L2108.08 1215.99 L2108.08 1215.58 Q2108.08 1212.64 2106.13 1211.04 Q2104.21 1209.42 2100.71 1209.42 Q2098.49 1209.42 2096.39 1209.95 Q2094.28 1210.48 2092.33 1211.55 L2092.33 1207.61 Q2094.67 1206.71 2096.87 1206.27 Q2099.07 1205.81 2101.15 1205.81 Q2106.78 1205.81 2109.56 1208.72 Q2112.33 1211.64 2112.33 1217.57 Z" fill="#000000" fill-rule="nonzero" fill-opacity="1" /><path clip-path="url(#clip500)" d="M2121.11 1206.43 L2125.37 1206.43 L2125.37 1232.36 L2121.11 1232.36 L2121.11 1206.43 M2121.11 1196.34 L2125.37 1196.34 L2125.37 1201.73 L2121.11 1201.73 L2121.11 1196.34 Z" fill="#000000" fill-rule="nonzero" fill-opacity="1" /><path clip-path="url(#clip500)" d="M2155.83 1216.71 L2155.83 1232.36 L2151.57 1232.36 L2151.57 1216.85 Q2151.57 1213.17 2150.14 1211.34 Q2148.7 1209.51 2145.83 1209.51 Q2142.38 1209.51 2140.39 1211.71 Q2138.4 1213.91 2138.4 1217.71 L2138.4 1232.36 L2134.12 1232.36 L2134.12 1206.43 L2138.4 1206.43 L2138.4 1210.46 Q2139.93 1208.12 2141.99 1206.96 Q2144.07 1205.81 2146.78 1205.81 Q2151.25 1205.81 2153.54 1208.59 Q2155.83 1211.34 2155.83 1216.71 Z" fill="#000000" fill-rule="nonzero" fill-opacity="1" /></svg>
