<?xml version="1.0" encoding="utf-8"?>
<svg xmlns="http://www.w3.org/2000/svg" xmlns:xlink="http://www.w3.org/1999/xlink" width="1150" height="350" viewBox="0 0 4600 1400">
<defs>
  <clipPath id="clip260">
    <rect x="0" y="0" width="4600" height="1400"/>
  </clipPath>
</defs>
<path clip-path="url(#clip260)" d="M0 1400 L4600 1400 L4600 0 L0 0  Z" fill="#ffffff" fill-rule="evenodd" fill-opacity="1"/>
<defs>
  <clipPath id="clip261">
    <rect x="161" y="90" width="4392" height="1220"/>
  </clipPath>
</defs>
<path clip-path="url(#clip260)" d="M161.917 1309.2 L4552.76 1309.2 L4552.76 90.6026 L161.917 90.6026  Z" fill="#ffffff" fill-rule="evenodd" fill-opacity="1"/>
<polyline clip-path="url(#clip261)" style="stroke:#000000; stroke-linecap:round; stroke-linejoin:round; stroke-width:2; stroke-opacity:0.1; fill:none" points="286.186,1309.2 286.186,90.6026 "/>
<polyline clip-path="url(#clip261)" style="stroke:#000000; stroke-linecap:round; stroke-linejoin:round; stroke-width:2; stroke-opacity:0.1; fill:none" points="957.601,1309.2 957.601,90.6026 "/>
<polyline clip-path="url(#clip261)" style="stroke:#000000; stroke-linecap:round; stroke-linejoin:round; stroke-width:2; stroke-opacity:0.1; fill:none" points="1629.02,1309.2 1629.02,90.6026 "/>
<polyline clip-path="url(#clip261)" style="stroke:#000000; stroke-linecap:round; stroke-linejoin:round; stroke-width:2; stroke-opacity:0.1; fill:none" points="2300.43,1309.2 2300.43,90.6026 "/>
<polyline clip-path="url(#clip261)" style="stroke:#000000; stroke-linecap:round; stroke-linejoin:round; stroke-width:2; stroke-opacity:0.1; fill:none" points="2971.85,1309.2 2971.85,90.6026 "/>
<polyline clip-path="url(#clip261)" style="stroke:#000000; stroke-linecap:round; stroke-linejoin:round; stroke-width:2; stroke-opacity:0.1; fill:none" points="3643.26,1309.2 3643.26,90.6026 "/>
<polyline clip-path="url(#clip261)" style="stroke:#000000; stroke-linecap:round; stroke-linejoin:round; stroke-width:2; stroke-opacity:0.1; fill:none" points="4314.68,1309.2 4314.68,90.6026 "/>
<polyline clip-path="url(#clip261)" style="stroke:#000000; stroke-linecap:round; stroke-linejoin:round; stroke-width:2; stroke-opacity:0.1; fill:none" points="161.917,1309.2 4552.76,1309.2 "/>
<polyline clip-path="url(#clip261)" style="stroke:#000000; stroke-linecap:round; stroke-linejoin:round; stroke-width:2; stroke-opacity:0.1; fill:none" points="161.917,1121.73 4552.76,1121.73 "/>
<polyline clip-path="url(#clip261)" style="stroke:#000000; stroke-linecap:round; stroke-linejoin:round; stroke-width:2; stroke-opacity:0.1; fill:none" points="161.917,934.249 4552.76,934.249 "/>
<polyline clip-path="url(#clip261)" style="stroke:#000000; stroke-linecap:round; stroke-linejoin:round; stroke-width:2; stroke-opacity:0.1; fill:none" points="161.917,746.772 4552.76,746.772 "/>
<polyline clip-path="url(#clip261)" style="stroke:#000000; stroke-linecap:round; stroke-linejoin:round; stroke-width:2; stroke-opacity:0.1; fill:none" points="161.917,559.295 4552.76,559.295 "/>
<polyline clip-path="url(#clip261)" style="stroke:#000000; stroke-linecap:round; stroke-linejoin:round; stroke-width:2; stroke-opacity:0.1; fill:none" points="161.917,371.818 4552.76,371.818 "/>
<polyline clip-path="url(#clip261)" style="stroke:#000000; stroke-linecap:round; stroke-linejoin:round; stroke-width:2; stroke-opacity:0.1; fill:none" points="161.917,184.341 4552.76,184.341 "/>
<polyline clip-path="url(#clip260)" style="stroke:#000000; stroke-linecap:round; stroke-linejoin:round; stroke-width:4; stroke-opacity:1; fill:none" points="161.917,1309.2 4552.76,1309.2 "/>
<polyline clip-path="url(#clip260)" style="stroke:#000000; stroke-linecap:round; stroke-linejoin:round; stroke-width:4; stroke-opacity:1; fill:none" points="286.186,1309.2 286.186,1290.31 "/>
<polyline clip-path="url(#clip260)" style="stroke:#000000; stroke-linecap:round; stroke-linejoin:round; stroke-width:4; stroke-opacity:1; fill:none" points="957.601,1309.2 957.601,1290.31 "/>
<polyline clip-path="url(#clip260)" style="stroke:#000000; stroke-linecap:round; stroke-linejoin:round; stroke-width:4; stroke-opacity:1; fill:none" points="1629.02,1309.2 1629.02,1290.31 "/>
<polyline clip-path="url(#clip260)" style="stroke:#000000; stroke-linecap:round; stroke-linejoin:round; stroke-width:4; stroke-opacity:1; fill:none" points="2300.43,1309.2 2300.43,1290.31 "/>
<polyline clip-path="url(#clip260)" style="stroke:#000000; stroke-linecap:round; stroke-linejoin:round; stroke-width:4; stroke-opacity:1; fill:none" points="2971.85,1309.2 2971.85,1290.31 "/>
<polyline clip-path="url(#clip260)" style="stroke:#000000; stroke-linecap:round; stroke-linejoin:round; stroke-width:4; stroke-opacity:1; fill:none" points="3643.26,1309.2 3643.26,1290.31 "/>
<polyline clip-path="url(#clip260)" style="stroke:#000000; stroke-linecap:round; stroke-linejoin:round; stroke-width:4; stroke-opacity:1; fill:none" points="4314.68,1309.2 4314.68,1290.31 "/>
<path clip-path="url(#clip260)" d="M259.886 1369.08 L285.852 1369.08 L285.852 1372.52 L259.886 1372.52 L259.886 1369.08 Z" fill="#000000" fill-rule="nonzero" fill-opacity="1" /><path clip-path="url(#clip260)" d="M298.207 1380.36 L312.487 1380.36 L312.487 1383.8 L293.285 1383.8 L293.285 1380.36 Q295.615 1377.95 299.625 1373.9 Q303.656 1369.83 304.689 1368.65 Q306.653 1366.44 307.423 1364.93 Q308.213 1363.39 308.213 1361.91 Q308.213 1359.5 306.512 1357.98 Q304.83 1356.46 302.116 1356.46 Q300.192 1356.46 298.045 1357.13 Q295.919 1357.8 293.488 1359.15 L293.488 1355.02 Q295.959 1354.03 298.106 1353.52 Q300.253 1353.02 302.035 1353.02 Q306.734 1353.02 309.53 1355.37 Q312.325 1357.71 312.325 1361.64 Q312.325 1363.51 311.616 1365.19 Q310.927 1366.85 309.084 1369.12 Q308.578 1369.71 305.863 1372.52 Q303.149 1375.32 298.207 1380.36 Z" fill="#000000" fill-rule="nonzero" fill-opacity="1" /><path clip-path="url(#clip260)" d="M931.139 1369.08 L957.105 1369.08 L957.105 1372.52 L931.139 1372.52 L931.139 1369.08 Z" fill="#000000" fill-rule="nonzero" fill-opacity="1" /><path clip-path="url(#clip260)" d="M966.645 1380.36 L973.329 1380.36 L973.329 1357.29 L966.058 1358.75 L966.058 1355.02 L973.288 1353.56 L977.38 1353.56 L977.38 1380.36 L984.064 1380.36 L984.064 1383.8 L966.645 1383.8 L966.645 1380.36 Z" fill="#000000" fill-rule="nonzero" fill-opacity="1" /><path clip-path="url(#clip260)" d="M1629.02 1356.26 Q1625.86 1356.26 1624.26 1359.38 Q1622.68 1362.47 1622.68 1368.71 Q1622.68 1374.93 1624.26 1378.05 Q1625.86 1381.15 1629.02 1381.15 Q1632.2 1381.15 1633.78 1378.05 Q1635.38 1374.93 1635.38 1368.71 Q1635.38 1362.47 1633.78 1359.38 Q1632.2 1356.26 1629.02 1356.26 M1629.02 1353.02 Q1634.1 1353.02 1636.77 1357.05 Q1639.47 1361.06 1639.47 1368.71 Q1639.47 1376.35 1636.77 1380.38 Q1634.1 1384.39 1629.02 1384.39 Q1623.93 1384.39 1621.24 1380.38 Q1618.57 1376.35 1618.57 1368.71 Q1618.57 1361.06 1621.24 1357.05 Q1623.93 1353.02 1629.02 1353.02 Z" fill="#000000" fill-rule="nonzero" fill-opacity="1" /><path clip-path="url(#clip260)" d="M2292.02 1380.36 L2298.7 1380.36 L2298.7 1357.29 L2291.43 1358.75 L2291.43 1355.02 L2298.66 1353.56 L2302.75 1353.56 L2302.75 1380.36 L2309.43 1380.36 L2309.43 1383.8 L2292.02 1383.8 L2292.02 1380.36 Z" fill="#000000" fill-rule="nonzero" fill-opacity="1" /><path clip-path="url(#clip260)" d="M2967.17 1380.36 L2981.45 1380.36 L2981.45 1383.8 L2962.25 1383.8 L2962.25 1380.36 Q2964.58 1377.95 2968.59 1373.9 Q2972.62 1369.83 2973.65 1368.65 Q2975.61 1366.44 2976.38 1364.93 Q2977.17 1363.39 2977.17 1361.91 Q2977.17 1359.5 2975.47 1357.98 Q2973.79 1356.46 2971.08 1356.46 Q2969.15 1356.46 2967.01 1357.13 Q2964.88 1357.8 2962.45 1359.15 L2962.45 1355.02 Q2964.92 1354.03 2967.07 1353.52 Q2969.21 1353.02 2971 1353.02 Q2975.69 1353.02 2978.49 1355.37 Q2981.29 1357.71 2981.29 1361.64 Q2981.29 1363.51 2980.58 1365.19 Q2979.89 1366.85 2978.04 1369.12 Q2977.54 1369.71 2974.82 1372.52 Q2972.11 1375.32 2967.17 1380.36 Z" fill="#000000" fill-rule="nonzero" fill-opacity="1" /><path clip-path="url(#clip260)" d="M3646.98 1367.5 Q3649.92 1368.13 3651.56 1370.11 Q3653.22 1372.1 3653.22 1375.01 Q3653.22 1379.49 3650.14 1381.94 Q3647.06 1384.39 3641.39 1384.39 Q3639.48 1384.39 3637.46 1384.01 Q3635.45 1383.64 3633.31 1382.89 L3633.31 1378.94 Q3635.01 1379.93 3637.03 1380.44 Q3639.06 1380.95 3641.27 1380.95 Q3645.11 1380.95 3647.12 1379.43 Q3649.15 1377.91 3649.15 1375.01 Q3649.15 1372.34 3647.26 1370.84 Q3645.4 1369.32 3642.06 1369.32 L3638.53 1369.32 L3638.53 1365.96 L3642.22 1365.96 Q3645.24 1365.96 3646.84 1364.76 Q3648.44 1363.55 3648.44 1361.28 Q3648.44 1358.95 3646.78 1357.71 Q3645.14 1356.46 3642.06 1356.46 Q3640.38 1356.46 3638.45 1356.82 Q3636.53 1357.19 3634.22 1357.96 L3634.22 1354.31 Q3636.55 1353.66 3638.57 1353.34 Q3640.62 1353.02 3642.42 1353.02 Q3647.08 1353.02 3649.79 1355.14 Q3652.51 1357.25 3652.51 1360.85 Q3652.51 1363.37 3651.07 1365.11 Q3649.63 1366.83 3646.98 1367.5 Z" fill="#000000" fill-rule="nonzero" fill-opacity="1" /><path clip-path="url(#clip260)" d="M4317.31 1357.13 L4306.98 1373.27 L4317.31 1373.27 L4317.31 1357.13 M4316.24 1353.56 L4321.38 1353.56 L4321.38 1373.27 L4325.7 1373.27 L4325.7 1376.67 L4321.38 1376.67 L4321.38 1383.8 L4317.31 1383.8 L4317.31 1376.67 L4303.66 1376.67 L4303.66 1372.72 L4316.24 1353.56 Z" fill="#000000" fill-rule="nonzero" fill-opacity="1" /><polyline clip-path="url(#clip260)" style="stroke:#000000; stroke-linecap:round; stroke-linejoin:round; stroke-width:4; stroke-opacity:1; fill:none" points="161.917,1309.2 161.917,90.6026 "/>
<polyline clip-path="url(#clip260)" style="stroke:#000000; stroke-linecap:round; stroke-linejoin:round; stroke-width:4; stroke-opacity:1; fill:none" points="161.917,1309.2 180.815,1309.2 "/>
<polyline clip-path="url(#clip260)" style="stroke:#000000; stroke-linecap:round; stroke-linejoin:round; stroke-width:4; stroke-opacity:1; fill:none" points="161.917,1121.73 180.815,1121.73 "/>
<polyline clip-path="url(#clip260)" style="stroke:#000000; stroke-linecap:round; stroke-linejoin:round; stroke-width:4; stroke-opacity:1; fill:none" points="161.917,934.249 180.815,934.249 "/>
<polyline clip-path="url(#clip260)" style="stroke:#000000; stroke-linecap:round; stroke-linejoin:round; stroke-width:4; stroke-opacity:1; fill:none" points="161.917,746.772 180.815,746.772 "/>
<polyline clip-path="url(#clip260)" style="stroke:#000000; stroke-linecap:round; stroke-linejoin:round; stroke-width:4; stroke-opacity:1; fill:none" points="161.917,559.295 180.815,559.295 "/>
<polyline clip-path="url(#clip260)" style="stroke:#000000; stroke-linecap:round; stroke-linejoin:round; stroke-width:4; stroke-opacity:1; fill:none" points="161.917,371.818 180.815,371.818 "/>
<polyline clip-path="url(#clip260)" style="stroke:#000000; stroke-linecap:round; stroke-linejoin:round; stroke-width:4; stroke-opacity:1; fill:none" points="161.917,184.341 180.815,184.341 "/>
<path clip-path="url(#clip260)" d="M40.3162 1309.6 L66.2825 1309.6 L66.2825 1313.04 L40.3162 1313.04 L40.3162 1309.6 Z" fill="#000000" fill-rule="nonzero" fill-opacity="1" /><path clip-path="url(#clip260)" d="M78.6378 1320.88 L92.9172 1320.88 L92.9172 1324.32 L73.7159 1324.32 L73.7159 1320.88 Q76.0452 1318.47 80.0556 1314.42 Q84.0862 1310.35 85.1192 1309.17 Q87.0839 1306.96 87.8536 1305.45 Q88.6435 1303.91 88.6435 1302.43 Q88.6435 1300.02 86.9421 1298.5 Q85.261 1296.98 82.5469 1296.98 Q80.6227 1296.98 78.4757 1297.65 Q76.349 1298.32 73.9184 1299.67 L73.9184 1295.54 Q76.3895 1294.55 78.5365 1294.04 Q80.6835 1293.54 82.4659 1293.54 Q87.1649 1293.54 89.96 1295.89 Q92.7552 1298.23 92.7552 1302.16 Q92.7552 1304.03 92.0462 1305.71 Q91.3576 1307.37 89.5144 1309.64 Q89.0081 1310.23 86.294 1313.04 Q83.5799 1315.84 78.6378 1320.88 Z" fill="#000000" fill-rule="nonzero" fill-opacity="1" /><path clip-path="url(#clip260)" d="M39.9921 1122.12 L65.9584 1122.12 L65.9584 1125.56 L39.9921 1125.56 L39.9921 1122.12 Z" fill="#000000" fill-rule="nonzero" fill-opacity="1" /><path clip-path="url(#clip260)" d="M75.4983 1133.4 L82.1823 1133.4 L82.1823 1110.33 L74.9109 1111.79 L74.9109 1108.06 L82.1418 1106.61 L86.2332 1106.61 L86.2332 1133.4 L92.9172 1133.4 L92.9172 1136.85 L75.4983 1136.85 L75.4983 1133.4 Z" fill="#000000" fill-rule="nonzero" fill-opacity="1" /><path clip-path="url(#clip260)" d="M82.4659 921.823 Q79.3062 921.823 77.706 924.942 Q76.1262 928.041 76.1262 934.279 Q76.1262 940.497 77.706 943.616 Q79.3062 946.715 82.4659 946.715 Q85.6458 946.715 87.2257 943.616 Q88.8258 940.497 88.8258 934.279 Q88.8258 928.041 87.2257 924.942 Q85.6458 921.823 82.4659 921.823 M82.4659 918.582 Q87.5497 918.582 90.2233 922.613 Q92.9172 926.623 92.9172 934.279 Q92.9172 941.915 90.2233 945.946 Q87.5497 949.956 82.4659 949.956 Q77.382 949.956 74.6881 945.946 Q72.0145 941.915 72.0145 934.279 Q72.0145 926.623 74.6881 922.613 Q77.382 918.582 82.4659 918.582 Z" fill="#000000" fill-rule="nonzero" fill-opacity="1" /><path clip-path="url(#clip260)" d="M75.4983 758.449 L82.1823 758.449 L82.1823 735.379 L74.9109 736.837 L74.9109 733.11 L82.1418 731.652 L86.2332 731.652 L86.2332 758.449 L92.9172 758.449 L92.9172 761.892 L75.4983 761.892 L75.4983 758.449 Z" fill="#000000" fill-rule="nonzero" fill-opacity="1" /><path clip-path="url(#clip260)" d="M78.6378 570.972 L92.9172 570.972 L92.9172 574.415 L73.7159 574.415 L73.7159 570.972 Q76.0452 568.561 80.0556 564.51 Q84.0862 560.439 85.1192 559.265 Q87.0839 557.057 87.8536 555.538 Q88.6435 553.998 88.6435 552.52 Q88.6435 550.109 86.9421 548.59 Q85.261 547.071 82.5469 547.071 Q80.6227 547.071 78.4757 547.74 Q76.349 548.408 73.9184 549.765 L73.9184 545.633 Q76.3895 544.641 78.5365 544.134 Q80.6835 543.628 82.4659 543.628 Q87.1649 543.628 89.96 545.978 Q92.7552 548.327 92.7552 552.256 Q92.7552 554.12 92.0462 555.801 Q91.3576 557.462 89.5144 559.73 Q89.0081 560.318 86.294 563.133 Q83.5799 565.928 78.6378 570.972 Z" fill="#000000" fill-rule="nonzero" fill-opacity="1" /><path clip-path="url(#clip260)" d="M86.6788 370.633 Q89.6157 371.261 91.2563 373.246 Q92.9172 375.231 92.9172 378.148 Q92.9172 382.624 89.8385 385.075 Q86.7598 387.525 81.0885 387.525 Q79.1846 387.525 77.1592 387.141 Q75.154 386.776 73.007 386.027 L73.007 382.077 Q74.7084 383.069 76.7338 383.576 Q78.7593 384.082 80.967 384.082 Q84.8154 384.082 86.8206 382.563 Q88.846 381.044 88.846 378.148 Q88.846 375.474 86.9624 373.975 Q85.0989 372.456 81.7569 372.456 L78.2327 372.456 L78.2327 369.094 L81.919 369.094 Q84.9369 369.094 86.537 367.899 Q88.1371 366.683 88.1371 364.415 Q88.1371 362.086 86.4763 360.85 Q84.8356 359.594 81.7569 359.594 Q80.0758 359.594 78.1516 359.959 Q76.2275 360.324 73.9184 361.093 L73.9184 357.447 Q76.2477 356.799 78.2732 356.475 Q80.3189 356.151 82.1215 356.151 Q86.7801 356.151 89.4942 358.278 Q92.2083 360.384 92.2083 363.99 Q92.2083 366.501 90.7702 368.243 Q89.3321 369.965 86.6788 370.633 Z" fill="#000000" fill-rule="nonzero" fill-opacity="1" /><path clip-path="url(#clip260)" d="M84.5318 172.786 L74.202 188.929 L84.5318 188.929 L84.5318 172.786 M83.4583 169.221 L88.603 169.221 L88.603 188.929 L92.9172 188.929 L92.9172 192.331 L88.603 192.331 L88.603 199.461 L84.5318 199.461 L84.5318 192.331 L70.8803 192.331 L70.8803 188.382 L83.4583 169.221 Z" fill="#000000" fill-rule="nonzero" fill-opacity="1" /><path clip-path="url(#clip260)" d="M1338.76 14.0809 L1338.76 22.0612 Q1334.1 19.8332 1329.97 18.7395 Q1325.83 17.6457 1321.99 17.6457 Q1315.3 17.6457 1311.66 20.2383 Q1308.05 22.8309 1308.05 27.611 Q1308.05 31.6214 1310.44 33.6873 Q1312.87 35.7128 1319.6 36.9686 L1324.54 37.9813 Q1333.69 39.7232 1338.03 44.1387 Q1342.4 48.5136 1342.4 55.8863 Q1342.4 64.6767 1336.49 69.2137 Q1330.61 73.7508 1319.23 73.7508 Q1314.94 73.7508 1310.08 72.7785 Q1305.26 71.8063 1300.07 69.9024 L1300.07 61.4765 Q1305.05 64.2716 1309.83 65.6895 Q1314.61 67.1073 1319.23 67.1073 Q1326.24 67.1073 1330.05 64.3527 Q1333.86 61.598 1333.86 56.4939 Q1333.86 52.0379 1331.1 49.5264 Q1328.39 47.0148 1322.15 45.759 L1317.17 44.7868 Q1308.01 42.9639 1303.92 39.075 Q1299.83 35.1862 1299.83 28.2591 Q1299.83 20.2383 1305.46 15.6203 Q1311.13 11.0023 1321.05 11.0023 Q1325.31 11.0023 1329.72 11.7719 Q1334.14 12.5416 1338.76 14.0809 Z" fill="#000000" fill-rule="nonzero" fill-opacity="1" /><path clip-path="url(#clip260)" d="M1393.65 48.0275 L1393.65 51.6733 L1359.38 51.6733 Q1359.86 59.3701 1363.99 63.421 Q1368.17 67.4314 1375.58 67.4314 Q1379.87 67.4314 1383.88 66.3781 Q1387.93 65.3249 1391.9 63.2184 L1391.9 70.267 Q1387.89 71.9684 1383.68 72.8596 Q1379.47 73.7508 1375.13 73.7508 Q1364.28 73.7508 1357.92 67.4314 Q1351.6 61.1119 1351.6 50.3365 Q1351.6 39.1965 1357.59 32.6746 Q1363.63 26.1121 1373.84 26.1121 Q1382.99 26.1121 1388.3 32.0264 Q1393.65 37.9003 1393.65 48.0275 M1386.19 45.84 Q1386.11 39.7232 1382.75 36.0774 Q1379.43 32.4315 1373.92 32.4315 Q1367.68 32.4315 1363.91 35.9558 Q1360.19 39.4801 1359.62 45.8805 L1386.19 45.84 Z" fill="#000000" fill-rule="nonzero" fill-opacity="1" /><path clip-path="url(#clip260)" d="M1443.59 45.1919 L1443.59 72.576 L1436.14 72.576 L1436.14 45.4349 Q1436.14 38.994 1433.63 35.7938 Q1431.12 32.5936 1426.09 32.5936 Q1420.06 32.5936 1416.57 36.4419 Q1413.09 40.2903 1413.09 46.9338 L1413.09 72.576 L1405.6 72.576 L1405.6 27.2059 L1413.09 27.2059 L1413.09 34.2544 Q1415.76 30.163 1419.37 28.1376 Q1423.02 26.1121 1427.76 26.1121 Q1435.57 26.1121 1439.58 30.9732 Q1443.59 35.7938 1443.59 45.1919 Z" fill="#000000" fill-rule="nonzero" fill-opacity="1" /><path clip-path="url(#clip260)" d="M1487.38 28.5427 L1487.38 35.5912 Q1484.22 33.9709 1480.82 33.1607 Q1477.42 32.3505 1473.77 32.3505 Q1468.22 32.3505 1465.43 34.0519 Q1462.67 35.7533 1462.67 39.156 Q1462.67 41.7486 1464.66 43.2475 Q1466.64 44.7058 1472.64 46.0426 L1475.19 46.6097 Q1483.13 48.3111 1486.45 51.4303 Q1489.82 54.509 1489.82 60.0587 Q1489.82 66.3781 1484.79 70.0644 Q1479.81 73.7508 1471.06 73.7508 Q1467.41 73.7508 1463.44 73.0216 Q1459.51 72.3329 1455.14 70.9151 L1455.14 63.2184 Q1459.27 65.3654 1463.28 66.4591 Q1467.29 67.5124 1471.22 67.5124 Q1476.49 67.5124 1479.32 65.73 Q1482.16 63.9071 1482.16 60.6258 Q1482.16 57.5877 1480.09 55.9673 Q1478.07 54.3469 1471.14 52.8481 L1468.55 52.2405 Q1461.62 50.7821 1458.54 47.7845 Q1455.46 44.7463 1455.46 39.4801 Q1455.46 33.0797 1460 29.5959 Q1464.54 26.1121 1472.88 26.1121 Q1477.01 26.1121 1480.66 26.7198 Q1484.31 27.3274 1487.38 28.5427 Z" fill="#000000" fill-rule="nonzero" fill-opacity="1" /><path clip-path="url(#clip260)" d="M1501.68 27.2059 L1509.14 27.2059 L1509.14 72.576 L1501.68 72.576 L1501.68 27.2059 M1501.68 9.54393 L1509.14 9.54393 L1509.14 18.9825 L1501.68 18.9825 L1501.68 9.54393 Z" fill="#000000" fill-rule="nonzero" fill-opacity="1" /><path clip-path="url(#clip260)" d="M1532.11 14.324 L1532.11 27.2059 L1547.46 27.2059 L1547.46 32.9987 L1532.11 32.9987 L1532.11 57.6282 Q1532.11 63.1779 1533.61 64.7578 Q1535.14 66.3376 1539.8 66.3376 L1547.46 66.3376 L1547.46 72.576 L1539.8 72.576 Q1531.17 72.576 1527.89 69.3758 Q1524.61 66.1351 1524.61 57.6282 L1524.61 32.9987 L1519.14 32.9987 L1519.14 27.2059 L1524.61 27.2059 L1524.61 14.324 L1532.11 14.324 Z" fill="#000000" fill-rule="nonzero" fill-opacity="1" /><path clip-path="url(#clip260)" d="M1557.26 27.2059 L1564.72 27.2059 L1564.72 72.576 L1557.26 72.576 L1557.26 27.2059 M1557.26 9.54393 L1564.72 9.54393 L1564.72 18.9825 L1557.26 18.9825 L1557.26 9.54393 Z" fill="#000000" fill-rule="nonzero" fill-opacity="1" /><path clip-path="url(#clip260)" d="M1574.97 27.2059 L1582.86 27.2059 L1597.04 65.2844 L1611.22 27.2059 L1619.12 27.2059 L1602.11 72.576 L1591.98 72.576 L1574.97 27.2059 Z" fill="#000000" fill-rule="nonzero" fill-opacity="1" /><path clip-path="url(#clip260)" d="M1629.41 27.2059 L1636.86 27.2059 L1636.86 72.576 L1629.41 72.576 L1629.41 27.2059 M1629.41 9.54393 L1636.86 9.54393 L1636.86 18.9825 L1629.41 18.9825 L1629.41 9.54393 Z" fill="#000000" fill-rule="nonzero" fill-opacity="1" /><path clip-path="url(#clip260)" d="M1659.83 14.324 L1659.83 27.2059 L1675.18 27.2059 L1675.18 32.9987 L1659.83 32.9987 L1659.83 57.6282 Q1659.83 63.1779 1661.33 64.7578 Q1662.87 66.3376 1667.53 66.3376 L1675.18 66.3376 L1675.18 72.576 L1667.53 72.576 Q1658.9 72.576 1655.62 69.3758 Q1652.34 66.1351 1652.34 57.6282 L1652.34 32.9987 L1646.87 32.9987 L1646.87 27.2059 L1652.34 27.2059 L1652.34 14.324 L1659.83 14.324 Z" fill="#000000" fill-rule="nonzero" fill-opacity="1" /><path clip-path="url(#clip260)" d="M1703.86 76.7889 Q1700.71 84.8907 1697.71 87.3618 Q1694.71 89.8329 1689.69 89.8329 L1683.73 89.8329 L1683.73 83.5945 L1688.11 83.5945 Q1691.19 83.5945 1692.89 82.1361 Q1694.59 80.6778 1696.65 75.2496 L1697.99 71.8468 L1679.64 27.2059 L1687.54 27.2059 L1701.72 62.6918 L1715.9 27.2059 L1723.8 27.2059 L1703.86 76.7889 Z" fill="#000000" fill-rule="nonzero" fill-opacity="1" /><path clip-path="url(#clip260)" d="M1778.04 32.4315 Q1772.04 32.4315 1768.56 37.1306 Q1765.07 41.7891 1765.07 49.9314 Q1765.07 58.0738 1768.52 62.7728 Q1772 67.4314 1778.04 67.4314 Q1783.99 67.4314 1787.48 62.7323 Q1790.96 58.0333 1790.96 49.9314 Q1790.96 41.8701 1787.48 37.1711 Q1783.99 32.4315 1778.04 32.4315 M1778.04 26.1121 Q1787.76 26.1121 1793.31 32.4315 Q1798.86 38.7509 1798.86 49.9314 Q1798.86 61.0714 1793.31 67.4314 Q1787.76 73.7508 1778.04 73.7508 Q1768.27 73.7508 1762.72 67.4314 Q1757.22 61.0714 1757.22 49.9314 Q1757.22 38.7509 1762.72 32.4315 Q1768.27 26.1121 1778.04 26.1121 Z" fill="#000000" fill-rule="nonzero" fill-opacity="1" /><path clip-path="url(#clip260)" d="M1834.18 9.54393 L1834.18 15.7418 L1827.05 15.7418 Q1823.04 15.7418 1821.46 17.3622 Q1819.92 18.9825 1819.92 23.1955 L1819.92 27.2059 L1832.2 27.2059 L1832.2 32.9987 L1819.92 32.9987 L1819.92 72.576 L1812.43 72.576 L1812.43 32.9987 L1805.3 32.9987 L1805.3 27.2059 L1812.43 27.2059 L1812.43 24.0462 Q1812.43 16.471 1815.95 13.0277 Q1819.48 9.54393 1827.13 9.54393 L1834.18 9.54393 Z" fill="#000000" fill-rule="nonzero" fill-opacity="1" /><path clip-path="url(#clip260)" d="M1874.16 14.324 L1874.16 27.2059 L1889.52 27.2059 L1889.52 32.9987 L1874.16 32.9987 L1874.16 57.6282 Q1874.16 63.1779 1875.66 64.7578 Q1877.2 66.3376 1881.86 66.3376 L1889.52 66.3376 L1889.52 72.576 L1881.86 72.576 Q1873.23 72.576 1869.95 69.3758 Q1866.67 66.1351 1866.67 57.6282 L1866.67 32.9987 L1861.2 32.9987 L1861.2 27.2059 L1866.67 27.2059 L1866.67 14.324 L1874.16 14.324 Z" fill="#000000" fill-rule="nonzero" fill-opacity="1" /><path clip-path="url(#clip260)" d="M1937.03 45.1919 L1937.03 72.576 L1929.58 72.576 L1929.58 45.4349 Q1929.58 38.994 1927.07 35.7938 Q1924.56 32.5936 1919.54 32.5936 Q1913.5 32.5936 1910.02 36.4419 Q1906.53 40.2903 1906.53 46.9338 L1906.53 72.576 L1899.04 72.576 L1899.04 9.54393 L1906.53 9.54393 L1906.53 34.2544 Q1909.21 30.163 1912.81 28.1376 Q1916.46 26.1121 1921.2 26.1121 Q1929.01 26.1121 1933.02 30.9732 Q1937.03 35.7938 1937.03 45.1919 Z" fill="#000000" fill-rule="nonzero" fill-opacity="1" /><path clip-path="url(#clip260)" d="M1990.71 48.0275 L1990.71 51.6733 L1956.44 51.6733 Q1956.92 59.3701 1961.06 63.421 Q1965.23 67.4314 1972.64 67.4314 Q1976.94 67.4314 1980.95 66.3781 Q1985 65.3249 1988.97 63.2184 L1988.97 70.267 Q1984.96 71.9684 1980.74 72.8596 Q1976.53 73.7508 1972.2 73.7508 Q1961.34 73.7508 1954.98 67.4314 Q1948.66 61.1119 1948.66 50.3365 Q1948.66 39.1965 1954.66 32.6746 Q1960.69 26.1121 1970.9 26.1121 Q1980.06 26.1121 1985.36 32.0264 Q1990.71 37.9003 1990.71 48.0275 M1983.26 45.84 Q1983.17 39.7232 1979.81 36.0774 Q1976.49 32.4315 1970.98 32.4315 Q1964.74 32.4315 1960.98 35.9558 Q1957.25 39.4801 1956.68 45.8805 L1983.26 45.84 Z" fill="#000000" fill-rule="nonzero" fill-opacity="1" /><path clip-path="url(#clip260)" d="M2058.24 28.5427 L2058.24 35.5912 Q2055.08 33.9709 2051.68 33.1607 Q2048.27 32.3505 2044.63 32.3505 Q2039.08 32.3505 2036.28 34.0519 Q2033.53 35.7533 2033.53 39.156 Q2033.53 41.7486 2035.51 43.2475 Q2037.5 44.7058 2043.49 46.0426 L2046.04 46.6097 Q2053.98 48.3111 2057.31 51.4303 Q2060.67 54.509 2060.67 60.0587 Q2060.67 66.3781 2055.65 70.0644 Q2050.66 73.7508 2041.91 73.7508 Q2038.27 73.7508 2034.3 73.0216 Q2030.37 72.3329 2025.99 70.9151 L2025.99 63.2184 Q2030.12 65.3654 2034.14 66.4591 Q2038.15 67.5124 2042.07 67.5124 Q2047.34 67.5124 2050.18 65.73 Q2053.01 63.9071 2053.01 60.6258 Q2053.01 57.5877 2050.95 55.9673 Q2048.92 54.3469 2041.99 52.8481 L2039.4 52.2405 Q2032.47 50.7821 2029.4 47.7845 Q2026.32 44.7463 2026.32 39.4801 Q2026.32 33.0797 2030.85 29.5959 Q2035.39 26.1121 2043.74 26.1121 Q2047.87 26.1121 2051.51 26.7198 Q2055.16 27.3274 2058.24 28.5427 Z" fill="#000000" fill-rule="nonzero" fill-opacity="1" /><path clip-path="url(#clip260)" d="M2111.35 48.0275 L2111.35 51.6733 L2077.07 51.6733 Q2077.56 59.3701 2081.69 63.421 Q2085.87 67.4314 2093.28 67.4314 Q2097.57 67.4314 2101.58 66.3781 Q2105.63 65.3249 2109.6 63.2184 L2109.6 70.267 Q2105.59 71.9684 2101.38 72.8596 Q2097.17 73.7508 2092.83 73.7508 Q2081.98 73.7508 2075.62 67.4314 Q2069.3 61.1119 2069.3 50.3365 Q2069.3 39.1965 2075.29 32.6746 Q2081.33 26.1121 2091.54 26.1121 Q2100.69 26.1121 2106 32.0264 Q2111.35 37.9003 2111.35 48.0275 M2103.89 45.84 Q2103.81 39.7232 2100.45 36.0774 Q2097.13 32.4315 2091.62 32.4315 Q2085.38 32.4315 2081.61 35.9558 Q2077.88 39.4801 2077.32 45.8805 L2103.89 45.84 Z" fill="#000000" fill-rule="nonzero" fill-opacity="1" /><path clip-path="url(#clip260)" d="M2130.79 65.7705 L2130.79 89.8329 L2123.3 89.8329 L2123.3 27.2059 L2130.79 27.2059 L2130.79 34.0924 Q2133.14 30.0415 2136.7 28.0971 Q2140.31 26.1121 2145.29 26.1121 Q2153.56 26.1121 2158.7 32.6746 Q2163.89 39.2371 2163.89 49.9314 Q2163.89 60.6258 2158.7 67.1883 Q2153.56 73.7508 2145.29 73.7508 Q2140.31 73.7508 2136.7 71.8063 Q2133.14 69.8214 2130.79 65.7705 M2156.15 49.9314 Q2156.15 41.7081 2152.75 37.0496 Q2149.38 32.3505 2143.47 32.3505 Q2137.55 32.3505 2134.15 37.0496 Q2130.79 41.7081 2130.79 49.9314 Q2130.79 58.1548 2134.15 62.8538 Q2137.55 67.5124 2143.47 67.5124 Q2149.38 67.5124 2152.75 62.8538 Q2156.15 58.1548 2156.15 49.9314 Z" fill="#000000" fill-rule="nonzero" fill-opacity="1" /><path clip-path="url(#clip260)" d="M2196.86 49.7694 Q2187.83 49.7694 2184.34 51.8354 Q2180.86 53.9013 2180.86 58.8839 Q2180.86 62.8538 2183.45 65.2034 Q2186.08 67.5124 2190.58 67.5124 Q2196.78 67.5124 2200.51 63.1374 Q2204.27 58.7219 2204.27 51.4303 L2204.27 49.7694 L2196.86 49.7694 M2211.73 46.6907 L2211.73 72.576 L2204.27 72.576 L2204.27 65.6895 Q2201.72 69.8214 2197.91 71.8063 Q2194.11 73.7508 2188.6 73.7508 Q2181.63 73.7508 2177.5 69.8619 Q2173.41 65.9325 2173.41 59.3701 Q2173.41 51.7138 2178.51 47.825 Q2183.65 43.9361 2193.82 43.9361 L2204.27 43.9361 L2204.27 43.2069 Q2204.27 38.0623 2200.87 35.2672 Q2197.51 32.4315 2191.39 32.4315 Q2187.5 32.4315 2183.82 33.3632 Q2180.13 34.295 2176.73 36.1584 L2176.73 29.2718 Q2180.82 27.692 2184.67 26.9223 Q2188.52 26.1121 2192.16 26.1121 Q2202 26.1121 2206.87 31.2163 Q2211.73 36.3204 2211.73 46.6907 Z" fill="#000000" fill-rule="nonzero" fill-opacity="1" /><path clip-path="url(#clip260)" d="M2253.37 34.1734 Q2252.11 33.4443 2250.62 33.1202 Q2249.16 32.7556 2247.37 32.7556 Q2241.06 32.7556 2237.65 36.8875 Q2234.29 40.9789 2234.29 48.6757 L2234.29 72.576 L2226.8 72.576 L2226.8 27.2059 L2234.29 27.2059 L2234.29 34.2544 Q2236.64 30.1225 2240.41 28.1376 Q2244.17 26.1121 2249.56 26.1121 Q2250.33 26.1121 2251.26 26.2337 Q2252.2 26.3147 2253.33 26.5172 L2253.37 34.1734 Z" fill="#000000" fill-rule="nonzero" fill-opacity="1" /><path clip-path="url(#clip260)" d="M2281.81 49.7694 Q2272.77 49.7694 2269.29 51.8354 Q2265.81 53.9013 2265.81 58.8839 Q2265.81 62.8538 2268.4 65.2034 Q2271.03 67.5124 2275.53 67.5124 Q2281.73 67.5124 2285.45 63.1374 Q2289.22 58.7219 2289.22 51.4303 L2289.22 49.7694 L2281.81 49.7694 M2296.67 46.6907 L2296.67 72.576 L2289.22 72.576 L2289.22 65.6895 Q2286.67 69.8214 2282.86 71.8063 Q2279.05 73.7508 2273.54 73.7508 Q2266.58 73.7508 2262.44 69.8619 Q2258.35 65.9325 2258.35 59.3701 Q2258.35 51.7138 2263.46 47.825 Q2268.6 43.9361 2278.77 43.9361 L2289.22 43.9361 L2289.22 43.2069 Q2289.22 38.0623 2285.82 35.2672 Q2282.46 32.4315 2276.34 32.4315 Q2272.45 32.4315 2268.76 33.3632 Q2265.08 34.295 2261.67 36.1584 L2261.67 29.2718 Q2265.77 27.692 2269.61 26.9223 Q2273.46 26.1121 2277.11 26.1121 Q2286.95 26.1121 2291.81 31.2163 Q2296.67 36.3204 2296.67 46.6907 Z" fill="#000000" fill-rule="nonzero" fill-opacity="1" /><path clip-path="url(#clip260)" d="M2319.4 14.324 L2319.4 27.2059 L2334.75 27.2059 L2334.75 32.9987 L2319.4 32.9987 L2319.4 57.6282 Q2319.4 63.1779 2320.9 64.7578 Q2322.44 66.3376 2327.1 66.3376 L2334.75 66.3376 L2334.75 72.576 L2327.1 72.576 Q2318.47 72.576 2315.19 69.3758 Q2311.91 66.1351 2311.91 57.6282 L2311.91 32.9987 L2306.44 32.9987 L2306.44 27.2059 L2311.91 27.2059 L2311.91 14.324 L2319.4 14.324 Z" fill="#000000" fill-rule="nonzero" fill-opacity="1" /><path clip-path="url(#clip260)" d="M2362.14 32.4315 Q2356.14 32.4315 2352.66 37.1306 Q2349.17 41.7891 2349.17 49.9314 Q2349.17 58.0738 2352.62 62.7728 Q2356.1 67.4314 2362.14 67.4314 Q2368.09 67.4314 2371.58 62.7323 Q2375.06 58.0333 2375.06 49.9314 Q2375.06 41.8701 2371.58 37.1711 Q2368.09 32.4315 2362.14 32.4315 M2362.14 26.1121 Q2371.86 26.1121 2377.41 32.4315 Q2382.96 38.7509 2382.96 49.9314 Q2382.96 61.0714 2377.41 67.4314 Q2371.86 73.7508 2362.14 73.7508 Q2352.37 73.7508 2346.82 67.4314 Q2341.32 61.0714 2341.32 49.9314 Q2341.32 38.7509 2346.82 32.4315 Q2352.37 26.1121 2362.14 26.1121 Z" fill="#000000" fill-rule="nonzero" fill-opacity="1" /><path clip-path="url(#clip260)" d="M2421.6 34.1734 Q2420.35 33.4443 2418.85 33.1202 Q2417.39 32.7556 2415.61 32.7556 Q2409.29 32.7556 2405.89 36.8875 Q2402.52 40.9789 2402.52 48.6757 L2402.52 72.576 L2395.03 72.576 L2395.03 27.2059 L2402.52 27.2059 L2402.52 34.2544 Q2404.87 30.1225 2408.64 28.1376 Q2412.41 26.1121 2417.8 26.1121 Q2418.57 26.1121 2419.5 26.2337 Q2420.43 26.3147 2421.56 26.5172 L2421.6 34.1734 Z" fill="#000000" fill-rule="nonzero" fill-opacity="1" /><path clip-path="url(#clip260)" d="M2463.17 14.324 L2463.17 27.2059 L2478.52 27.2059 L2478.52 32.9987 L2463.17 32.9987 L2463.17 57.6282 Q2463.17 63.1779 2464.67 64.7578 Q2466.2 66.3376 2470.86 66.3376 L2478.52 66.3376 L2478.52 72.576 L2470.86 72.576 Q2462.23 72.576 2458.95 69.3758 Q2455.67 66.1351 2455.67 57.6282 L2455.67 32.9987 L2450.2 32.9987 L2450.2 27.2059 L2455.67 27.2059 L2455.67 14.324 L2463.17 14.324 Z" fill="#000000" fill-rule="nonzero" fill-opacity="1" /><path clip-path="url(#clip260)" d="M2505.9 32.4315 Q2499.91 32.4315 2496.42 37.1306 Q2492.94 41.7891 2492.94 49.9314 Q2492.94 58.0738 2496.38 62.7728 Q2499.87 67.4314 2505.9 67.4314 Q2511.86 67.4314 2515.34 62.7323 Q2518.83 58.0333 2518.83 49.9314 Q2518.83 41.8701 2515.34 37.1711 Q2511.86 32.4315 2505.9 32.4315 M2505.9 26.1121 Q2515.63 26.1121 2521.18 32.4315 Q2526.73 38.7509 2526.73 49.9314 Q2526.73 61.0714 2521.18 67.4314 Q2515.63 73.7508 2505.9 73.7508 Q2496.14 73.7508 2490.59 67.4314 Q2485.08 61.0714 2485.08 49.9314 Q2485.08 38.7509 2490.59 32.4315 Q2496.14 26.1121 2505.9 26.1121 Z" fill="#000000" fill-rule="nonzero" fill-opacity="1" /><path clip-path="url(#clip260)" d="M2595.31 34.0924 L2595.31 9.54393 L2602.76 9.54393 L2602.76 72.576 L2595.31 72.576 L2595.31 65.7705 Q2592.96 69.8214 2589.35 71.8063 Q2585.79 73.7508 2580.76 73.7508 Q2572.54 73.7508 2567.36 67.1883 Q2562.21 60.6258 2562.21 49.9314 Q2562.21 39.2371 2567.36 32.6746 Q2572.54 26.1121 2580.76 26.1121 Q2585.79 26.1121 2589.35 28.0971 Q2592.96 30.0415 2595.31 34.0924 M2569.91 49.9314 Q2569.91 58.1548 2573.27 62.8538 Q2576.67 67.5124 2582.59 67.5124 Q2588.5 67.5124 2591.9 62.8538 Q2595.31 58.1548 2595.31 49.9314 Q2595.31 41.7081 2591.9 37.0496 Q2588.5 32.3505 2582.59 32.3505 Q2576.67 32.3505 2573.27 37.0496 Q2569.91 41.7081 2569.91 49.9314 Z" fill="#000000" fill-rule="nonzero" fill-opacity="1" /><path clip-path="url(#clip260)" d="M2638.73 49.7694 Q2629.7 49.7694 2626.22 51.8354 Q2622.73 53.9013 2622.73 58.8839 Q2622.73 62.8538 2625.32 65.2034 Q2627.96 67.5124 2632.45 67.5124 Q2638.65 67.5124 2642.38 63.1374 Q2646.15 58.7219 2646.15 51.4303 L2646.15 49.7694 L2638.73 49.7694 M2653.6 46.6907 L2653.6 72.576 L2646.15 72.576 L2646.15 65.6895 Q2643.59 69.8214 2639.79 71.8063 Q2635.98 73.7508 2630.47 73.7508 Q2623.5 73.7508 2619.37 69.8619 Q2615.28 65.9325 2615.28 59.3701 Q2615.28 51.7138 2620.38 47.825 Q2625.53 43.9361 2635.69 43.9361 L2646.15 43.9361 L2646.15 43.2069 Q2646.15 38.0623 2642.74 35.2672 Q2639.38 32.4315 2633.26 32.4315 Q2629.38 32.4315 2625.69 33.3632 Q2622 34.295 2618.6 36.1584 L2618.6 29.2718 Q2622.69 27.692 2626.54 26.9223 Q2630.39 26.1121 2634.03 26.1121 Q2643.88 26.1121 2648.74 31.2163 Q2653.6 36.3204 2653.6 46.6907 Z" fill="#000000" fill-rule="nonzero" fill-opacity="1" /><path clip-path="url(#clip260)" d="M2676.33 14.324 L2676.33 27.2059 L2691.68 27.2059 L2691.68 32.9987 L2676.33 32.9987 L2676.33 57.6282 Q2676.33 63.1779 2677.82 64.7578 Q2679.36 66.3376 2684.02 66.3376 L2691.68 66.3376 L2691.68 72.576 L2684.02 72.576 Q2675.39 72.576 2672.11 69.3758 Q2668.83 66.1351 2668.83 57.6282 L2668.83 32.9987 L2663.36 32.9987 L2663.36 27.2059 L2668.83 27.2059 L2668.83 14.324 L2676.33 14.324 Z" fill="#000000" fill-rule="nonzero" fill-opacity="1" /><path clip-path="url(#clip260)" d="M2722.1 49.7694 Q2713.07 49.7694 2709.58 51.8354 Q2706.1 53.9013 2706.1 58.8839 Q2706.1 62.8538 2708.69 65.2034 Q2711.32 67.5124 2715.82 67.5124 Q2722.02 67.5124 2725.75 63.1374 Q2729.51 58.7219 2729.51 51.4303 L2729.51 49.7694 L2722.1 49.7694 M2736.97 46.6907 L2736.97 72.576 L2729.51 72.576 L2729.51 65.6895 Q2726.96 69.8214 2723.15 71.8063 Q2719.35 73.7508 2713.84 73.7508 Q2706.87 73.7508 2702.74 69.8619 Q2698.65 65.9325 2698.65 59.3701 Q2698.65 51.7138 2703.75 47.825 Q2708.89 43.9361 2719.06 43.9361 L2729.51 43.9361 L2729.51 43.2069 Q2729.51 38.0623 2726.11 35.2672 Q2722.75 32.4315 2716.63 32.4315 Q2712.74 32.4315 2709.06 33.3632 Q2705.37 34.295 2701.97 36.1584 L2701.97 29.2718 Q2706.06 27.692 2709.91 26.9223 Q2713.76 26.1121 2717.4 26.1121 Q2727.24 26.1121 2732.11 31.2163 Q2736.97 36.3204 2736.97 46.6907 Z" fill="#000000" fill-rule="nonzero" fill-opacity="1" /><path clip-path="url(#clip260)" d="M2785.9 65.7705 L2785.9 89.8329 L2778.41 89.8329 L2778.41 27.2059 L2785.9 27.2059 L2785.9 34.0924 Q2788.25 30.0415 2791.82 28.0971 Q2795.42 26.1121 2800.4 26.1121 Q2808.67 26.1121 2813.81 32.6746 Q2819 39.2371 2819 49.9314 Q2819 60.6258 2813.81 67.1883 Q2808.67 73.7508 2800.4 73.7508 Q2795.42 73.7508 2791.82 71.8063 Q2788.25 69.8214 2785.9 65.7705 M2811.26 49.9314 Q2811.26 41.7081 2807.86 37.0496 Q2804.5 32.3505 2798.58 32.3505 Q2792.67 32.3505 2789.26 37.0496 Q2785.9 41.7081 2785.9 49.9314 Q2785.9 58.1548 2789.26 62.8538 Q2792.67 67.5124 2798.58 67.5124 Q2804.5 67.5124 2807.86 62.8538 Q2811.26 58.1548 2811.26 49.9314 Z" fill="#000000" fill-rule="nonzero" fill-opacity="1" /><path clip-path="url(#clip260)" d="M2848.93 32.4315 Q2842.94 32.4315 2839.45 37.1306 Q2835.97 41.7891 2835.97 49.9314 Q2835.97 58.0738 2839.41 62.7728 Q2842.9 67.4314 2848.93 67.4314 Q2854.89 67.4314 2858.37 62.7323 Q2861.86 58.0333 2861.86 49.9314 Q2861.86 41.8701 2858.37 37.1711 Q2854.89 32.4315 2848.93 32.4315 M2848.93 26.1121 Q2858.66 26.1121 2864.21 32.4315 Q2869.76 38.7509 2869.76 49.9314 Q2869.76 61.0714 2864.21 67.4314 Q2858.66 73.7508 2848.93 73.7508 Q2839.17 73.7508 2833.62 67.4314 Q2828.11 61.0714 2828.11 49.9314 Q2828.11 38.7509 2833.62 32.4315 Q2839.17 26.1121 2848.93 26.1121 Z" fill="#000000" fill-rule="nonzero" fill-opacity="1" /><path clip-path="url(#clip260)" d="M2882.11 27.2059 L2889.56 27.2059 L2889.56 72.576 L2882.11 72.576 L2882.11 27.2059 M2882.11 9.54393 L2889.56 9.54393 L2889.56 18.9825 L2882.11 18.9825 L2882.11 9.54393 Z" fill="#000000" fill-rule="nonzero" fill-opacity="1" /><path clip-path="url(#clip260)" d="M2942.87 45.1919 L2942.87 72.576 L2935.42 72.576 L2935.42 45.4349 Q2935.42 38.994 2932.91 35.7938 Q2930.4 32.5936 2925.37 32.5936 Q2919.34 32.5936 2915.85 36.4419 Q2912.37 40.2903 2912.37 46.9338 L2912.37 72.576 L2904.88 72.576 L2904.88 27.2059 L2912.37 27.2059 L2912.37 34.2544 Q2915.04 30.163 2918.65 28.1376 Q2922.3 26.1121 2927.04 26.1121 Q2934.85 26.1121 2938.86 30.9732 Q2942.87 35.7938 2942.87 45.1919 Z" fill="#000000" fill-rule="nonzero" fill-opacity="1" /><path clip-path="url(#clip260)" d="M2965.11 14.324 L2965.11 27.2059 L2980.47 27.2059 L2980.47 32.9987 L2965.11 32.9987 L2965.11 57.6282 Q2965.11 63.1779 2966.61 64.7578 Q2968.15 66.3376 2972.81 66.3376 L2980.47 66.3376 L2980.47 72.576 L2972.81 72.576 Q2964.18 72.576 2960.9 69.3758 Q2957.62 66.1351 2957.62 57.6282 L2957.62 32.9987 L2952.15 32.9987 L2952.15 27.2059 L2957.62 27.2059 L2957.62 14.324 L2965.11 14.324 Z" fill="#000000" fill-rule="nonzero" fill-opacity="1" /><path clip-path="url(#clip260)" d="M3011.29 27.2059 L3019.19 27.2059 L3033.37 65.2844 L3047.55 27.2059 L3055.45 27.2059 L3038.44 72.576 L3028.31 72.576 L3011.29 27.2059 Z" fill="#000000" fill-rule="nonzero" fill-opacity="1" /><path clip-path="url(#clip260)" d="M3086.36 49.7694 Q3077.32 49.7694 3073.84 51.8354 Q3070.36 53.9013 3070.36 58.8839 Q3070.36 62.8538 3072.95 65.2034 Q3075.58 67.5124 3080.08 67.5124 Q3086.28 67.5124 3090 63.1374 Q3093.77 58.7219 3093.77 51.4303 L3093.77 49.7694 L3086.36 49.7694 M3101.22 46.6907 L3101.22 72.576 L3093.77 72.576 L3093.77 65.6895 Q3091.22 69.8214 3087.41 71.8063 Q3083.6 73.7508 3078.09 73.7508 Q3071.13 73.7508 3066.99 69.8619 Q3062.9 65.9325 3062.9 59.3701 Q3062.9 51.7138 3068.01 47.825 Q3073.15 43.9361 3083.32 43.9361 L3093.77 43.9361 L3093.77 43.2069 Q3093.77 38.0623 3090.37 35.2672 Q3087.01 32.4315 3080.89 32.4315 Q3077 32.4315 3073.31 33.3632 Q3069.63 34.295 3066.22 36.1584 L3066.22 29.2718 Q3070.32 27.692 3074.16 26.9223 Q3078.01 26.1121 3081.66 26.1121 Q3091.5 26.1121 3096.36 31.2163 Q3101.22 36.3204 3101.22 46.6907 Z" fill="#000000" fill-rule="nonzero" fill-opacity="1" /><path clip-path="url(#clip260)" d="M3142.87 34.1734 Q3141.61 33.4443 3140.11 33.1202 Q3138.65 32.7556 3136.87 32.7556 Q3130.55 32.7556 3127.15 36.8875 Q3123.79 40.9789 3123.79 48.6757 L3123.79 72.576 L3116.29 72.576 L3116.29 27.2059 L3123.79 27.2059 L3123.79 34.2544 Q3126.14 30.1225 3129.9 28.1376 Q3133.67 26.1121 3139.06 26.1121 Q3139.83 26.1121 3140.76 26.2337 Q3141.69 26.3147 3142.83 26.5172 L3142.87 34.1734 Z" fill="#000000" fill-rule="nonzero" fill-opacity="1" /><path clip-path="url(#clip260)" d="M3150.69 27.2059 L3158.14 27.2059 L3158.14 72.576 L3150.69 72.576 L3150.69 27.2059 M3150.69 9.54393 L3158.14 9.54393 L3158.14 18.9825 L3150.69 18.9825 L3150.69 9.54393 Z" fill="#000000" fill-rule="nonzero" fill-opacity="1" /><path clip-path="url(#clip260)" d="M3194.35 49.7694 Q3185.32 49.7694 3181.84 51.8354 Q3178.35 53.9013 3178.35 58.8839 Q3178.35 62.8538 3180.95 65.2034 Q3183.58 67.5124 3188.08 67.5124 Q3194.27 67.5124 3198 63.1374 Q3201.77 58.7219 3201.77 51.4303 L3201.77 49.7694 L3194.35 49.7694 M3209.22 46.6907 L3209.22 72.576 L3201.77 72.576 L3201.77 65.6895 Q3199.22 69.8214 3195.41 71.8063 Q3191.6 73.7508 3186.09 73.7508 Q3179.12 73.7508 3174.99 69.8619 Q3170.9 65.9325 3170.9 59.3701 Q3170.9 51.7138 3176 47.825 Q3181.15 43.9361 3191.32 43.9361 L3201.77 43.9361 L3201.77 43.2069 Q3201.77 38.0623 3198.37 35.2672 Q3195 32.4315 3188.89 32.4315 Q3185 32.4315 3181.31 33.3632 Q3177.62 34.295 3174.22 36.1584 L3174.22 29.2718 Q3178.31 27.692 3182.16 26.9223 Q3186.01 26.1121 3189.66 26.1121 Q3199.5 26.1121 3204.36 31.2163 Q3209.22 36.3204 3209.22 46.6907 Z" fill="#000000" fill-rule="nonzero" fill-opacity="1" /><path clip-path="url(#clip260)" d="M3231.95 14.324 L3231.95 27.2059 L3247.3 27.2059 L3247.3 32.9987 L3231.95 32.9987 L3231.95 57.6282 Q3231.95 63.1779 3233.45 64.7578 Q3234.99 66.3376 3239.64 66.3376 L3247.3 66.3376 L3247.3 72.576 L3239.64 72.576 Q3231.02 72.576 3227.73 69.3758 Q3224.45 66.1351 3224.45 57.6282 L3224.45 32.9987 L3218.98 32.9987 L3218.98 27.2059 L3224.45 27.2059 L3224.45 14.324 L3231.95 14.324 Z" fill="#000000" fill-rule="nonzero" fill-opacity="1" /><path clip-path="url(#clip260)" d="M3257.1 27.2059 L3264.56 27.2059 L3264.56 72.576 L3257.1 72.576 L3257.1 27.2059 M3257.1 9.54393 L3264.56 9.54393 L3264.56 18.9825 L3257.1 18.9825 L3257.1 9.54393 Z" fill="#000000" fill-rule="nonzero" fill-opacity="1" /><path clip-path="url(#clip260)" d="M3297.73 32.4315 Q3291.74 32.4315 3288.25 37.1306 Q3284.77 41.7891 3284.77 49.9314 Q3284.77 58.0738 3288.21 62.7728 Q3291.7 67.4314 3297.73 67.4314 Q3303.69 67.4314 3307.17 62.7323 Q3310.66 58.0333 3310.66 49.9314 Q3310.66 41.8701 3307.17 37.1711 Q3303.69 32.4315 3297.73 32.4315 M3297.73 26.1121 Q3307.46 26.1121 3313.01 32.4315 Q3318.56 38.7509 3318.56 49.9314 Q3318.56 61.0714 3313.01 67.4314 Q3307.46 73.7508 3297.73 73.7508 Q3287.97 73.7508 3282.42 67.4314 Q3276.91 61.0714 3276.91 49.9314 Q3276.91 38.7509 3282.42 32.4315 Q3287.97 26.1121 3297.73 26.1121 Z" fill="#000000" fill-rule="nonzero" fill-opacity="1" /><path clip-path="url(#clip260)" d="M3368.62 45.1919 L3368.62 72.576 L3361.17 72.576 L3361.17 45.4349 Q3361.17 38.994 3358.66 35.7938 Q3356.15 32.5936 3351.12 32.5936 Q3345.09 32.5936 3341.61 36.4419 Q3338.12 40.2903 3338.12 46.9338 L3338.12 72.576 L3330.63 72.576 L3330.63 27.2059 L3338.12 27.2059 L3338.12 34.2544 Q3340.79 30.163 3344.4 28.1376 Q3348.05 26.1121 3352.79 26.1121 Q3360.6 26.1121 3364.61 30.9732 Q3368.62 35.7938 3368.62 45.1919 Z" fill="#000000" fill-rule="nonzero" fill-opacity="1" /><path clip-path="url(#clip260)" d="M3412.41 28.5427 L3412.41 35.5912 Q3409.26 33.9709 3405.85 33.1607 Q3402.45 32.3505 3398.8 32.3505 Q3393.25 32.3505 3390.46 34.0519 Q3387.7 35.7533 3387.7 39.156 Q3387.7 41.7486 3389.69 43.2475 Q3391.67 44.7058 3397.67 46.0426 L3400.22 46.6097 Q3408.16 48.3111 3411.48 51.4303 Q3414.85 54.509 3414.85 60.0587 Q3414.85 66.3781 3409.82 70.0644 Q3404.84 73.7508 3396.09 73.7508 Q3392.44 73.7508 3388.47 73.0216 Q3384.54 72.3329 3380.17 70.9151 L3380.17 63.2184 Q3384.3 65.3654 3388.31 66.4591 Q3392.32 67.5124 3396.25 67.5124 Q3401.52 67.5124 3404.35 65.73 Q3407.19 63.9071 3407.19 60.6258 Q3407.19 57.5877 3405.12 55.9673 Q3403.1 54.3469 3396.17 52.8481 L3393.58 52.2405 Q3386.65 50.7821 3383.57 47.7845 Q3380.49 44.7463 3380.49 39.4801 Q3380.49 33.0797 3385.03 29.5959 Q3389.57 26.1121 3397.91 26.1121 Q3402.04 26.1121 3405.69 26.7198 Q3409.34 27.3274 3412.41 28.5427 Z" fill="#000000" fill-rule="nonzero" fill-opacity="1" /><circle clip-path="url(#clip261)" cx="1097.72" cy="973.33" r="1.62611e-07" fill="#ff0000" fill-rule="evenodd" fill-opacity="1" stroke="#000000" stroke-opacity="1" stroke-width="2.8"/>
<circle clip-path="url(#clip261)" cx="2850.05" cy="945.542" r="1.62611e-07" fill="#ff0000" fill-rule="evenodd" fill-opacity="1" stroke="#000000" stroke-opacity="1" stroke-width="2.8"/>
<circle clip-path="url(#clip261)" cx="1129.95" cy="855.961" r="1.62611e-07" fill="#ff0000" fill-rule="evenodd" fill-opacity="1" stroke="#000000" stroke-opacity="1" stroke-width="2.8"/>
<circle clip-path="url(#clip261)" cx="1506.21" cy="903.174" r="1.62611e-07" fill="#ff0000" fill-rule="evenodd" fill-opacity="1" stroke="#000000" stroke-opacity="1" stroke-width="2.8"/>
<circle clip-path="url(#clip261)" cx="1950.98" cy="689.522" r="1.62611e-07" fill="#ff0000" fill-rule="evenodd" fill-opacity="1" stroke="#000000" stroke-opacity="1" stroke-width="2.8"/>
<circle clip-path="url(#clip261)" cx="1171.89" cy="982.429" r="1.62611e-07" fill="#ff0000" fill-rule="evenodd" fill-opacity="1" stroke="#000000" stroke-opacity="1" stroke-width="2.8"/>
<circle clip-path="url(#clip261)" cx="1200.97" cy="612.926" r="1.62611e-07" fill="#ff0000" fill-rule="evenodd" fill-opacity="1" stroke="#000000" stroke-opacity="1" stroke-width="2.8"/>
<circle clip-path="url(#clip261)" cx="2150.91" cy="871.637" r="1.62611e-07" fill="#ff0000" fill-rule="evenodd" fill-opacity="1" stroke="#000000" stroke-opacity="1" stroke-width="2.8"/>
<circle clip-path="url(#clip261)" cx="2107.1" cy="977.184" r="1.62611e-07" fill="#ff0000" fill-rule="evenodd" fill-opacity="1" stroke="#000000" stroke-opacity="1" stroke-width="2.8"/>
<circle clip-path="url(#clip261)" cx="2188.91" cy="1068.05" r="1.62611e-07" fill="#ff0000" fill-rule="evenodd" fill-opacity="1" stroke="#000000" stroke-opacity="1" stroke-width="2.8"/>
<circle clip-path="url(#clip261)" cx="1704.41" cy="927.945" r="1.62611e-07" fill="#ff0000" fill-rule="evenodd" fill-opacity="1" stroke="#000000" stroke-opacity="1" stroke-width="2.8"/>
<circle clip-path="url(#clip261)" cx="2311.07" cy="1267.27" r="1.62611e-07" fill="#ff0000" fill-rule="evenodd" fill-opacity="1" stroke="#000000" stroke-opacity="1" stroke-width="2.8"/>
<circle clip-path="url(#clip261)" cx="2096.6" cy="1085.51" r="1.62611e-07" fill="#ff0000" fill-rule="evenodd" fill-opacity="1" stroke="#000000" stroke-opacity="1" stroke-width="2.8"/>
<circle clip-path="url(#clip261)" cx="2520.13" cy="938.174" r="1.62611e-07" fill="#ff0000" fill-rule="evenodd" fill-opacity="1" stroke="#000000" stroke-opacity="1" stroke-width="2.8"/>
<circle clip-path="url(#clip261)" cx="1803.28" cy="954.964" r="1.62611e-07" fill="#ff0000" fill-rule="evenodd" fill-opacity="1" stroke="#000000" stroke-opacity="1" stroke-width="2.8"/>
<circle clip-path="url(#clip261)" cx="2807.97" cy="738.426" r="1.62611e-07" fill="#ff0000" fill-rule="evenodd" fill-opacity="1" stroke="#000000" stroke-opacity="1" stroke-width="2.8"/>
<circle clip-path="url(#clip261)" cx="2912.78" cy="1230.16" r="1.62611e-07" fill="#ff0000" fill-rule="evenodd" fill-opacity="1" stroke="#000000" stroke-opacity="1" stroke-width="2.8"/>
<circle clip-path="url(#clip261)" cx="2507.92" cy="811.293" r="1.62611e-07" fill="#ff0000" fill-rule="evenodd" fill-opacity="1" stroke="#000000" stroke-opacity="1" stroke-width="2.8"/>
<circle clip-path="url(#clip261)" cx="2099.1" cy="656.76" r="1.62611e-07" fill="#ff0000" fill-rule="evenodd" fill-opacity="1" stroke="#000000" stroke-opacity="1" stroke-width="2.8"/>
<circle clip-path="url(#clip261)" cx="1589.69" cy="792.387" r="1.62611e-07" fill="#ff0000" fill-rule="evenodd" fill-opacity="1" stroke="#000000" stroke-opacity="1" stroke-width="2.8"/>
<circle clip-path="url(#clip261)" cx="606.578" cy="691.784" r="1.62611e-07" fill="#ff0000" fill-rule="evenodd" fill-opacity="1" stroke="#000000" stroke-opacity="1" stroke-width="2.8"/>
<circle clip-path="url(#clip261)" cx="2551.8" cy="1018.66" r="1.62611e-07" fill="#ff0000" fill-rule="evenodd" fill-opacity="1" stroke="#000000" stroke-opacity="1" stroke-width="2.8"/>
<circle clip-path="url(#clip261)" cx="1399.75" cy="698.621" r="1.62611e-07" fill="#ff0000" fill-rule="evenodd" fill-opacity="1" stroke="#000000" stroke-opacity="1" stroke-width="2.8"/>
<circle clip-path="url(#clip261)" cx="1923.47" cy="1220.67" r="1.62611e-07" fill="#ff0000" fill-rule="evenodd" fill-opacity="1" stroke="#000000" stroke-opacity="1" stroke-width="2.8"/>
<circle clip-path="url(#clip261)" cx="1976.72" cy="1149.33" r="1.62611e-07" fill="#ff0000" fill-rule="evenodd" fill-opacity="1" stroke="#000000" stroke-opacity="1" stroke-width="2.8"/>
<circle clip-path="url(#clip261)" cx="2031.98" cy="770.006" r="1.62611e-07" fill="#ff0000" fill-rule="evenodd" fill-opacity="1" stroke="#000000" stroke-opacity="1" stroke-width="2.8"/>
<circle clip-path="url(#clip261)" cx="2830.19" cy="782.044" r="1.62611e-07" fill="#ff0000" fill-rule="evenodd" fill-opacity="1" stroke="#000000" stroke-opacity="1" stroke-width="2.8"/>
<circle clip-path="url(#clip261)" cx="1266.87" cy="917.351" r="1.62611e-07" fill="#ff0000" fill-rule="evenodd" fill-opacity="1" stroke="#000000" stroke-opacity="1" stroke-width="2.8"/>
<circle clip-path="url(#clip261)" cx="1181.25" cy="683.76" r="1.62611e-07" fill="#ff0000" fill-rule="evenodd" fill-opacity="1" stroke="#000000" stroke-opacity="1" stroke-width="2.8"/>
<circle clip-path="url(#clip261)" cx="2063.7" cy="1112.16" r="1.62611e-07" fill="#ff0000" fill-rule="evenodd" fill-opacity="1" stroke="#000000" stroke-opacity="1" stroke-width="2.8"/>
<circle clip-path="url(#clip261)" cx="594.211" cy="957.233" r="1.62611e-07" fill="#ff0000" fill-rule="evenodd" fill-opacity="1" stroke="#000000" stroke-opacity="1" stroke-width="2.8"/>
<circle clip-path="url(#clip261)" cx="1340.91" cy="861.676" r="1.62611e-07" fill="#ff0000" fill-rule="evenodd" fill-opacity="1" stroke="#000000" stroke-opacity="1" stroke-width="2.8"/>
<circle clip-path="url(#clip261)" cx="1790.72" cy="1258.53" r="1.62611e-07" fill="#ff0000" fill-rule="evenodd" fill-opacity="1" stroke="#000000" stroke-opacity="1" stroke-width="2.8"/>
<circle clip-path="url(#clip261)" cx="514.334" cy="1036.32" r="1.62611e-07" fill="#ff0000" fill-rule="evenodd" fill-opacity="1" stroke="#000000" stroke-opacity="1" stroke-width="2.8"/>
<circle clip-path="url(#clip261)" cx="1984.75" cy="950.335" r="1.62611e-07" fill="#ff0000" fill-rule="evenodd" fill-opacity="1" stroke="#000000" stroke-opacity="1" stroke-width="2.8"/>
<circle clip-path="url(#clip261)" cx="1432.65" cy="678.501" r="1.62611e-07" fill="#ff0000" fill-rule="evenodd" fill-opacity="1" stroke="#000000" stroke-opacity="1" stroke-width="2.8"/>
<circle clip-path="url(#clip261)" cx="1946.86" cy="960.347" r="1.62611e-07" fill="#ff0000" fill-rule="evenodd" fill-opacity="1" stroke="#000000" stroke-opacity="1" stroke-width="2.8"/>
<circle clip-path="url(#clip261)" cx="2345.34" cy="532.79" r="1.62611e-07" fill="#ff0000" fill-rule="evenodd" fill-opacity="1" stroke="#000000" stroke-opacity="1" stroke-width="2.8"/>
<circle clip-path="url(#clip261)" cx="649.826" cy="1084.47" r="1.62611e-07" fill="#ff0000" fill-rule="evenodd" fill-opacity="1" stroke="#000000" stroke-opacity="1" stroke-width="2.8"/>
<circle clip-path="url(#clip261)" cx="2022.99" cy="1140.01" r="1.62611e-07" fill="#ff0000" fill-rule="evenodd" fill-opacity="1" stroke="#000000" stroke-opacity="1" stroke-width="2.8"/>
<circle clip-path="url(#clip261)" cx="2044.13" cy="1008.78" r="1.62611e-07" fill="#ff0000" fill-rule="evenodd" fill-opacity="1" stroke="#000000" stroke-opacity="1" stroke-width="2.8"/>
<circle clip-path="url(#clip261)" cx="1945.98" cy="1009.33" r="1.62611e-07" fill="#ff0000" fill-rule="evenodd" fill-opacity="1" stroke="#000000" stroke-opacity="1" stroke-width="2.8"/>
<circle clip-path="url(#clip261)" cx="1602.85" cy="961.26" r="1.62611e-07" fill="#ff0000" fill-rule="evenodd" fill-opacity="1" stroke="#000000" stroke-opacity="1" stroke-width="2.8"/>
<circle clip-path="url(#clip261)" cx="1071.69" cy="848.756" r="1.62611e-07" fill="#ff0000" fill-rule="evenodd" fill-opacity="1" stroke="#000000" stroke-opacity="1" stroke-width="2.8"/>
<circle clip-path="url(#clip261)" cx="721.152" cy="1073.68" r="1.62611e-07" fill="#ff0000" fill-rule="evenodd" fill-opacity="1" stroke="#000000" stroke-opacity="1" stroke-width="2.8"/>
<circle clip-path="url(#clip261)" cx="965.008" cy="813.648" r="1.62611e-07" fill="#ff0000" fill-rule="evenodd" fill-opacity="1" stroke="#000000" stroke-opacity="1" stroke-width="2.8"/>
<circle clip-path="url(#clip261)" cx="765.119" cy="728.086" r="1.62611e-07" fill="#ff0000" fill-rule="evenodd" fill-opacity="1" stroke="#000000" stroke-opacity="1" stroke-width="2.8"/>
<circle clip-path="url(#clip261)" cx="2773.86" cy="373" r="1.62611e-07" fill="#0000ff" fill-rule="evenodd" fill-opacity="1" stroke="#000000" stroke-opacity="1" stroke-width="2.8"/>
<circle clip-path="url(#clip261)" cx="3164.94" cy="490.631" r="1.62611e-07" fill="#0000ff" fill-rule="evenodd" fill-opacity="1" stroke="#000000" stroke-opacity="1" stroke-width="2.8"/>
<circle clip-path="url(#clip261)" cx="2507.33" cy="675.566" r="1.62611e-07" fill="#0000ff" fill-rule="evenodd" fill-opacity="1" stroke="#000000" stroke-opacity="1" stroke-width="2.8"/>
<circle clip-path="url(#clip261)" cx="3519.08" cy="682.972" r="1.62611e-07" fill="#0000ff" fill-rule="evenodd" fill-opacity="1" stroke="#000000" stroke-opacity="1" stroke-width="2.8"/>
<circle clip-path="url(#clip261)" cx="3318.21" cy="498.738" r="1.62611e-07" fill="#0000ff" fill-rule="evenodd" fill-opacity="1" stroke="#000000" stroke-opacity="1" stroke-width="2.8"/>
<circle clip-path="url(#clip261)" cx="2717.85" cy="856.613" r="1.62611e-07" fill="#0000ff" fill-rule="evenodd" fill-opacity="1" stroke="#000000" stroke-opacity="1" stroke-width="2.8"/>
<circle clip-path="url(#clip261)" cx="3607.16" cy="429.071" r="1.62611e-07" fill="#0000ff" fill-rule="evenodd" fill-opacity="1" stroke="#000000" stroke-opacity="1" stroke-width="2.8"/>
<circle clip-path="url(#clip261)" cx="3583.28" cy="657.478" r="1.62611e-07" fill="#0000ff" fill-rule="evenodd" fill-opacity="1" stroke="#000000" stroke-opacity="1" stroke-width="2.8"/>
<circle clip-path="url(#clip261)" cx="3074.86" cy="509.718" r="1.62611e-07" fill="#0000ff" fill-rule="evenodd" fill-opacity="1" stroke="#000000" stroke-opacity="1" stroke-width="2.8"/>
<circle clip-path="url(#clip261)" cx="3796.32" cy="636.652" r="1.62611e-07" fill="#0000ff" fill-rule="evenodd" fill-opacity="1" stroke="#000000" stroke-opacity="1" stroke-width="2.8"/>
<circle clip-path="url(#clip261)" cx="2755.89" cy="432.39" r="1.62611e-07" fill="#0000ff" fill-rule="evenodd" fill-opacity="1" stroke="#000000" stroke-opacity="1" stroke-width="2.8"/>
<circle clip-path="url(#clip261)" cx="3610.31" cy="599.122" r="1.62611e-07" fill="#0000ff" fill-rule="evenodd" fill-opacity="1" stroke="#000000" stroke-opacity="1" stroke-width="2.8"/>
<circle clip-path="url(#clip261)" cx="2343.66" cy="772.878" r="1.62611e-07" fill="#0000ff" fill-rule="evenodd" fill-opacity="1" stroke="#000000" stroke-opacity="1" stroke-width="2.8"/>
<circle clip-path="url(#clip261)" cx="2449.55" cy="381.844" r="1.62611e-07" fill="#0000ff" fill-rule="evenodd" fill-opacity="1" stroke="#000000" stroke-opacity="1" stroke-width="2.8"/>
<circle clip-path="url(#clip261)" cx="3121.87" cy="557.728" r="1.62611e-07" fill="#0000ff" fill-rule="evenodd" fill-opacity="1" stroke="#000000" stroke-opacity="1" stroke-width="2.8"/>
<circle clip-path="url(#clip261)" cx="2823.76" cy="422.483" r="1.62611e-07" fill="#0000ff" fill-rule="evenodd" fill-opacity="1" stroke="#000000" stroke-opacity="1" stroke-width="2.8"/>
<circle clip-path="url(#clip261)" cx="3467.17" cy="385.87" r="1.62611e-07" fill="#0000ff" fill-rule="evenodd" fill-opacity="1" stroke="#000000" stroke-opacity="1" stroke-width="2.8"/>
<circle clip-path="url(#clip261)" cx="2970.06" cy="586.198" r="1.62611e-07" fill="#0000ff" fill-rule="evenodd" fill-opacity="1" stroke="#000000" stroke-opacity="1" stroke-width="2.8"/>
<circle clip-path="url(#clip261)" cx="3861.36" cy="350.613" r="1.62611e-07" fill="#0000ff" fill-rule="evenodd" fill-opacity="1" stroke="#000000" stroke-opacity="1" stroke-width="2.8"/>
<circle clip-path="url(#clip261)" cx="2679.01" cy="711.924" r="1.62611e-07" fill="#0000ff" fill-rule="evenodd" fill-opacity="1" stroke="#000000" stroke-opacity="1" stroke-width="2.8"/>
<circle clip-path="url(#clip261)" cx="4428.49" cy="941.999" r="1.62611e-07" fill="#0000ff" fill-rule="evenodd" fill-opacity="1" stroke="#000000" stroke-opacity="1" stroke-width="2.8"/>
<circle clip-path="url(#clip261)" cx="3155.97" cy="883.681" r="1.62611e-07" fill="#0000ff" fill-rule="evenodd" fill-opacity="1" stroke="#000000" stroke-opacity="1" stroke-width="2.8"/>
<circle clip-path="url(#clip261)" cx="3449.41" cy="645.955" r="1.62611e-07" fill="#0000ff" fill-rule="evenodd" fill-opacity="1" stroke="#000000" stroke-opacity="1" stroke-width="2.8"/>
<circle clip-path="url(#clip261)" cx="2934.92" cy="926.301" r="1.62611e-07" fill="#0000ff" fill-rule="evenodd" fill-opacity="1" stroke="#000000" stroke-opacity="1" stroke-width="2.8"/>
<circle clip-path="url(#clip261)" cx="2094.7" cy="838.199" r="1.62611e-07" fill="#0000ff" fill-rule="evenodd" fill-opacity="1" stroke="#000000" stroke-opacity="1" stroke-width="2.8"/>
<circle clip-path="url(#clip261)" cx="2613.06" cy="550.859" r="1.62611e-07" fill="#0000ff" fill-rule="evenodd" fill-opacity="1" stroke="#000000" stroke-opacity="1" stroke-width="2.8"/>
<circle clip-path="url(#clip261)" cx="2823.91" cy="378.367" r="1.62611e-07" fill="#0000ff" fill-rule="evenodd" fill-opacity="1" stroke="#000000" stroke-opacity="1" stroke-width="2.8"/>
<circle clip-path="url(#clip261)" cx="2936.23" cy="571.36" r="1.62611e-07" fill="#0000ff" fill-rule="evenodd" fill-opacity="1" stroke="#000000" stroke-opacity="1" stroke-width="2.8"/>
<circle clip-path="url(#clip261)" cx="3580.51" cy="510.057" r="1.62611e-07" fill="#0000ff" fill-rule="evenodd" fill-opacity="1" stroke="#000000" stroke-opacity="1" stroke-width="2.8"/>
<circle clip-path="url(#clip261)" cx="3233.51" cy="746.619" r="1.62611e-07" fill="#0000ff" fill-rule="evenodd" fill-opacity="1" stroke="#000000" stroke-opacity="1" stroke-width="2.8"/>
<circle clip-path="url(#clip261)" cx="3057.33" cy="332.086" r="1.62611e-07" fill="#0000ff" fill-rule="evenodd" fill-opacity="1" stroke="#000000" stroke-opacity="1" stroke-width="2.8"/>
<circle clip-path="url(#clip261)" cx="3650.1" cy="305.65" r="1.62611e-07" fill="#0000ff" fill-rule="evenodd" fill-opacity="1" stroke="#000000" stroke-opacity="1" stroke-width="2.8"/>
<circle clip-path="url(#clip261)" cx="2675.01" cy="511.914" r="1.62611e-07" fill="#0000ff" fill-rule="evenodd" fill-opacity="1" stroke="#000000" stroke-opacity="1" stroke-width="2.8"/>
<circle clip-path="url(#clip261)" cx="3093.02" cy="799.687" r="1.62611e-07" fill="#0000ff" fill-rule="evenodd" fill-opacity="1" stroke="#000000" stroke-opacity="1" stroke-width="2.8"/>
<circle clip-path="url(#clip261)" cx="1793.91" cy="522.077" r="1.62611e-07" fill="#0000ff" fill-rule="evenodd" fill-opacity="1" stroke="#000000" stroke-opacity="1" stroke-width="2.8"/>
<circle clip-path="url(#clip261)" cx="1386.78" cy="663.414" r="1.62611e-07" fill="#0000ff" fill-rule="evenodd" fill-opacity="1" stroke="#000000" stroke-opacity="1" stroke-width="2.8"/>
<circle clip-path="url(#clip261)" cx="3179.15" cy="527.492" r="1.62611e-07" fill="#0000ff" fill-rule="evenodd" fill-opacity="1" stroke="#000000" stroke-opacity="1" stroke-width="2.8"/>
<circle clip-path="url(#clip261)" cx="2181.29" cy="236.271" r="1.62611e-07" fill="#0000ff" fill-rule="evenodd" fill-opacity="1" stroke="#000000" stroke-opacity="1" stroke-width="2.8"/>
<circle clip-path="url(#clip261)" cx="1748.79" cy="713.022" r="1.62611e-07" fill="#0000ff" fill-rule="evenodd" fill-opacity="1" stroke="#000000" stroke-opacity="1" stroke-width="2.8"/>
<circle clip-path="url(#clip261)" cx="3359.38" cy="333.307" r="1.62611e-07" fill="#0000ff" fill-rule="evenodd" fill-opacity="1" stroke="#000000" stroke-opacity="1" stroke-width="2.8"/>
<circle clip-path="url(#clip261)" cx="3174.99" cy="545.024" r="1.62611e-07" fill="#0000ff" fill-rule="evenodd" fill-opacity="1" stroke="#000000" stroke-opacity="1" stroke-width="2.8"/>
<circle clip-path="url(#clip261)" cx="2240.64" cy="486.762" r="1.62611e-07" fill="#0000ff" fill-rule="evenodd" fill-opacity="1" stroke="#000000" stroke-opacity="1" stroke-width="2.8"/>
<circle clip-path="url(#clip261)" cx="3836.84" cy="557.383" r="1.62611e-07" fill="#0000ff" fill-rule="evenodd" fill-opacity="1" stroke="#000000" stroke-opacity="1" stroke-width="2.8"/>
<circle clip-path="url(#clip261)" cx="3811.1" cy="587.073" r="1.62611e-07" fill="#0000ff" fill-rule="evenodd" fill-opacity="1" stroke="#000000" stroke-opacity="1" stroke-width="2.8"/>
<circle clip-path="url(#clip261)" cx="3333.44" cy="589.062" r="1.62611e-07" fill="#0000ff" fill-rule="evenodd" fill-opacity="1" stroke="#000000" stroke-opacity="1" stroke-width="2.8"/>
<circle clip-path="url(#clip261)" cx="3283.94" cy="409.242" r="1.62611e-07" fill="#0000ff" fill-rule="evenodd" fill-opacity="1" stroke="#000000" stroke-opacity="1" stroke-width="2.8"/>
<circle clip-path="url(#clip261)" cx="3760.41" cy="631.956" r="1.62611e-07" fill="#0000ff" fill-rule="evenodd" fill-opacity="1" stroke="#000000" stroke-opacity="1" stroke-width="2.8"/>
<circle clip-path="url(#clip261)" cx="3537.65" cy="501.629" r="1.62611e-07" fill="#0000ff" fill-rule="evenodd" fill-opacity="1" stroke="#000000" stroke-opacity="1" stroke-width="2.8"/>
<circle clip-path="url(#clip261)" cx="3792.37" cy="954.612" r="1.62611e-07" fill="#0000ff" fill-rule="evenodd" fill-opacity="1" stroke="#000000" stroke-opacity="1" stroke-width="2.8"/>
<circle clip-path="url(#clip261)" cx="2133.69" cy="620.479" r="1.4635e-06" fill="#0000ff" fill-rule="evenodd" fill-opacity="1" stroke="#000000" stroke-opacity="1" stroke-width="2.8"/>
<polyline clip-path="url(#clip261)" style="stroke:#e26f46; stroke-linecap:round; stroke-linejoin:round; stroke-width:12; stroke-opacity:1; fill:none" points="286.186,219.367 4314.68,1302.6 "/>
</svg>
