<?xml version="1.0" encoding="utf-8"?>
<svg xmlns="http://www.w3.org/2000/svg" xmlns:xlink="http://www.w3.org/1999/xlink" width="600" height="400" viewBox="0 0 2400 1600">
<defs>
  <clipPath id="clip610">
    <rect x="0" y="0" width="2400" height="1600"/>
  </clipPath>
</defs>
<path clip-path="url(#clip610)" d="M0 1600 L2400 1600 L2400 0 L0 0  Z" fill="#ffffff" fill-rule="evenodd" fill-opacity="1"/>
<defs>
  <clipPath id="clip611">
    <rect x="480" y="0" width="1681" height="1600"/>
  </clipPath>
</defs>
<path clip-path="url(#clip610)" d="M184.191 1423.18 L2352.76 1423.18 L2352.76 123.472 L184.191 123.472  Z" fill="#ffffff" fill-rule="evenodd" fill-opacity="1"/>
<defs>
  <clipPath id="clip612">
    <rect x="184" y="123" width="2170" height="1301"/>
  </clipPath>
</defs>
<polyline clip-path="url(#clip612)" style="stroke:#000000; stroke-linecap:round; stroke-linejoin:round; stroke-width:2; stroke-opacity:0.1; fill:none" points="245.565,1423.18 245.565,123.472 "/>
<polyline clip-path="url(#clip612)" style="stroke:#000000; stroke-linecap:round; stroke-linejoin:round; stroke-width:2; stroke-opacity:0.1; fill:none" points="654.728,1423.18 654.728,123.472 "/>
<polyline clip-path="url(#clip612)" style="stroke:#000000; stroke-linecap:round; stroke-linejoin:round; stroke-width:2; stroke-opacity:0.1; fill:none" points="1063.89,1423.18 1063.89,123.472 "/>
<polyline clip-path="url(#clip612)" style="stroke:#000000; stroke-linecap:round; stroke-linejoin:round; stroke-width:2; stroke-opacity:0.1; fill:none" points="1473.05,1423.18 1473.05,123.472 "/>
<polyline clip-path="url(#clip612)" style="stroke:#000000; stroke-linecap:round; stroke-linejoin:round; stroke-width:2; stroke-opacity:0.1; fill:none" points="1882.22,1423.18 1882.22,123.472 "/>
<polyline clip-path="url(#clip612)" style="stroke:#000000; stroke-linecap:round; stroke-linejoin:round; stroke-width:2; stroke-opacity:0.1; fill:none" points="2291.38,1423.18 2291.38,123.472 "/>
<polyline clip-path="url(#clip612)" style="stroke:#000000; stroke-linecap:round; stroke-linejoin:round; stroke-width:2; stroke-opacity:0.1; fill:none" points="184.191,1290.61 2352.76,1290.61 "/>
<polyline clip-path="url(#clip612)" style="stroke:#000000; stroke-linecap:round; stroke-linejoin:round; stroke-width:2; stroke-opacity:0.1; fill:none" points="184.191,1070.68 2352.76,1070.68 "/>
<polyline clip-path="url(#clip612)" style="stroke:#000000; stroke-linecap:round; stroke-linejoin:round; stroke-width:2; stroke-opacity:0.1; fill:none" points="184.191,850.739 2352.76,850.739 "/>
<polyline clip-path="url(#clip612)" style="stroke:#000000; stroke-linecap:round; stroke-linejoin:round; stroke-width:2; stroke-opacity:0.1; fill:none" points="184.191,630.803 2352.76,630.803 "/>
<polyline clip-path="url(#clip612)" style="stroke:#000000; stroke-linecap:round; stroke-linejoin:round; stroke-width:2; stroke-opacity:0.1; fill:none" points="184.191,410.867 2352.76,410.867 "/>
<polyline clip-path="url(#clip612)" style="stroke:#000000; stroke-linecap:round; stroke-linejoin:round; stroke-width:2; stroke-opacity:0.1; fill:none" points="184.191,190.931 2352.76,190.931 "/>
<polyline clip-path="url(#clip610)" style="stroke:#000000; stroke-linecap:round; stroke-linejoin:round; stroke-width:4; stroke-opacity:1; fill:none" points="184.191,1423.18 2352.76,1423.18 "/>
<polyline clip-path="url(#clip610)" style="stroke:#000000; stroke-linecap:round; stroke-linejoin:round; stroke-width:4; stroke-opacity:1; fill:none" points="245.565,1423.18 245.565,1404.28 "/>
<polyline clip-path="url(#clip610)" style="stroke:#000000; stroke-linecap:round; stroke-linejoin:round; stroke-width:4; stroke-opacity:1; fill:none" points="654.728,1423.18 654.728,1404.28 "/>
<polyline clip-path="url(#clip610)" style="stroke:#000000; stroke-linecap:round; stroke-linejoin:round; stroke-width:4; stroke-opacity:1; fill:none" points="1063.89,1423.18 1063.89,1404.28 "/>
<polyline clip-path="url(#clip610)" style="stroke:#000000; stroke-linecap:round; stroke-linejoin:round; stroke-width:4; stroke-opacity:1; fill:none" points="1473.05,1423.18 1473.05,1404.28 "/>
<polyline clip-path="url(#clip610)" style="stroke:#000000; stroke-linecap:round; stroke-linejoin:round; stroke-width:4; stroke-opacity:1; fill:none" points="1882.22,1423.18 1882.22,1404.28 "/>
<polyline clip-path="url(#clip610)" style="stroke:#000000; stroke-linecap:round; stroke-linejoin:round; stroke-width:4; stroke-opacity:1; fill:none" points="2291.38,1423.18 2291.38,1404.28 "/>
<path clip-path="url(#clip610)" d="M222.95 1454.1 Q219.338 1454.1 217.51 1457.66 Q215.704 1461.2 215.704 1468.33 Q215.704 1475.44 217.51 1479.01 Q219.338 1482.55 222.95 1482.55 Q226.584 1482.55 228.389 1479.01 Q230.218 1475.44 230.218 1468.33 Q230.218 1461.2 228.389 1457.66 Q226.584 1454.1 222.95 1454.1 M222.95 1450.39 Q228.76 1450.39 231.815 1455 Q234.894 1459.58 234.894 1468.33 Q234.894 1477.06 231.815 1481.67 Q228.76 1486.25 222.95 1486.25 Q217.139 1486.25 214.061 1481.67 Q211.005 1477.06 211.005 1468.33 Q211.005 1459.58 214.061 1455 Q217.139 1450.39 222.95 1450.39 Z" fill="#000000" fill-rule="nonzero" fill-opacity="1" /><path clip-path="url(#clip610)" d="M243.111 1479.7 L247.996 1479.7 L247.996 1485.58 L243.111 1485.58 L243.111 1479.7 Z" fill="#000000" fill-rule="nonzero" fill-opacity="1" /><path clip-path="url(#clip610)" d="M268.181 1454.1 Q264.57 1454.1 262.741 1457.66 Q260.935 1461.2 260.935 1468.33 Q260.935 1475.44 262.741 1479.01 Q264.57 1482.55 268.181 1482.55 Q271.815 1482.55 273.621 1479.01 Q275.449 1475.44 275.449 1468.33 Q275.449 1461.2 273.621 1457.66 Q271.815 1454.1 268.181 1454.1 M268.181 1450.39 Q273.991 1450.39 277.046 1455 Q280.125 1459.58 280.125 1468.33 Q280.125 1477.06 277.046 1481.67 Q273.991 1486.25 268.181 1486.25 Q262.371 1486.25 259.292 1481.67 Q256.236 1477.06 256.236 1468.33 Q256.236 1459.58 259.292 1455 Q262.371 1450.39 268.181 1450.39 Z" fill="#000000" fill-rule="nonzero" fill-opacity="1" /><path clip-path="url(#clip610)" d="M632.726 1454.1 Q629.115 1454.1 627.286 1457.66 Q625.481 1461.2 625.481 1468.33 Q625.481 1475.44 627.286 1479.01 Q629.115 1482.55 632.726 1482.55 Q636.36 1482.55 638.166 1479.01 Q639.995 1475.44 639.995 1468.33 Q639.995 1461.2 638.166 1457.66 Q636.36 1454.1 632.726 1454.1 M632.726 1450.39 Q638.536 1450.39 641.592 1455 Q644.671 1459.58 644.671 1468.33 Q644.671 1477.06 641.592 1481.67 Q638.536 1486.25 632.726 1486.25 Q626.916 1486.25 623.837 1481.67 Q620.782 1477.06 620.782 1468.33 Q620.782 1459.58 623.837 1455 Q626.916 1450.39 632.726 1450.39 Z" fill="#000000" fill-rule="nonzero" fill-opacity="1" /><path clip-path="url(#clip610)" d="M652.888 1479.7 L657.772 1479.7 L657.772 1485.58 L652.888 1485.58 L652.888 1479.7 Z" fill="#000000" fill-rule="nonzero" fill-opacity="1" /><path clip-path="url(#clip610)" d="M668.768 1481.64 L676.407 1481.64 L676.407 1455.28 L668.096 1456.95 L668.096 1452.69 L676.36 1451.02 L681.036 1451.02 L681.036 1481.64 L688.675 1481.64 L688.675 1485.58 L668.768 1485.58 L668.768 1481.64 Z" fill="#000000" fill-rule="nonzero" fill-opacity="1" /><path clip-path="url(#clip610)" d="M1042.07 1454.1 Q1038.46 1454.1 1036.63 1457.66 Q1034.83 1461.2 1034.83 1468.33 Q1034.83 1475.44 1036.63 1479.01 Q1038.46 1482.55 1042.07 1482.55 Q1045.71 1482.55 1047.51 1479.01 Q1049.34 1475.44 1049.34 1468.33 Q1049.34 1461.2 1047.51 1457.66 Q1045.71 1454.1 1042.07 1454.1 M1042.07 1450.39 Q1047.88 1450.39 1050.94 1455 Q1054.02 1459.58 1054.02 1468.33 Q1054.02 1477.06 1050.94 1481.67 Q1047.88 1486.25 1042.07 1486.25 Q1036.26 1486.25 1033.19 1481.67 Q1030.13 1477.06 1030.13 1468.33 Q1030.13 1459.58 1033.19 1455 Q1036.26 1450.39 1042.07 1450.39 Z" fill="#000000" fill-rule="nonzero" fill-opacity="1" /><path clip-path="url(#clip610)" d="M1062.24 1479.7 L1067.12 1479.7 L1067.12 1485.58 L1062.24 1485.58 L1062.24 1479.7 Z" fill="#000000" fill-rule="nonzero" fill-opacity="1" /><path clip-path="url(#clip610)" d="M1081.33 1481.64 L1097.65 1481.64 L1097.65 1485.58 L1075.71 1485.58 L1075.71 1481.64 Q1078.37 1478.89 1082.95 1474.26 Q1087.56 1469.61 1088.74 1468.27 Q1090.99 1465.74 1091.87 1464.01 Q1092.77 1462.25 1092.77 1460.56 Q1092.77 1457.8 1090.82 1456.07 Q1088.9 1454.33 1085.8 1454.33 Q1083.6 1454.33 1081.15 1455.09 Q1078.72 1455.86 1075.94 1457.41 L1075.94 1452.69 Q1078.76 1451.55 1081.22 1450.97 Q1083.67 1450.39 1085.71 1450.39 Q1091.08 1450.39 1094.27 1453.08 Q1097.47 1455.77 1097.47 1460.26 Q1097.47 1462.39 1096.66 1464.31 Q1095.87 1466.2 1093.76 1468.8 Q1093.19 1469.47 1090.08 1472.69 Q1086.98 1475.88 1081.33 1481.64 Z" fill="#000000" fill-rule="nonzero" fill-opacity="1" /><path clip-path="url(#clip610)" d="M1450.76 1454.1 Q1447.15 1454.1 1445.32 1457.66 Q1443.52 1461.2 1443.52 1468.33 Q1443.52 1475.44 1445.32 1479.01 Q1447.15 1482.55 1450.76 1482.55 Q1454.4 1482.55 1456.2 1479.01 Q1458.03 1475.44 1458.03 1468.33 Q1458.03 1461.2 1456.2 1457.66 Q1454.4 1454.1 1450.76 1454.1 M1450.76 1450.39 Q1456.57 1450.39 1459.63 1455 Q1462.71 1459.58 1462.71 1468.33 Q1462.71 1477.06 1459.63 1481.67 Q1456.57 1486.25 1450.76 1486.25 Q1444.95 1486.25 1441.87 1481.67 Q1438.82 1477.06 1438.82 1468.33 Q1438.82 1459.58 1441.87 1455 Q1444.95 1450.39 1450.76 1450.39 Z" fill="#000000" fill-rule="nonzero" fill-opacity="1" /><path clip-path="url(#clip610)" d="M1470.93 1479.7 L1475.81 1479.7 L1475.81 1485.58 L1470.93 1485.58 L1470.93 1479.7 Z" fill="#000000" fill-rule="nonzero" fill-opacity="1" /><path clip-path="url(#clip610)" d="M1500.16 1466.95 Q1503.52 1467.66 1505.39 1469.93 Q1507.29 1472.2 1507.29 1475.53 Q1507.29 1480.65 1503.77 1483.45 Q1500.25 1486.25 1493.77 1486.25 Q1491.6 1486.25 1489.28 1485.81 Q1486.99 1485.39 1484.54 1484.54 L1484.54 1480.02 Q1486.48 1481.16 1488.8 1481.74 Q1491.11 1482.32 1493.63 1482.32 Q1498.03 1482.32 1500.32 1480.58 Q1502.64 1478.84 1502.64 1475.53 Q1502.64 1472.48 1500.49 1470.77 Q1498.36 1469.03 1494.54 1469.03 L1490.51 1469.03 L1490.51 1465.19 L1494.72 1465.19 Q1498.17 1465.19 1500 1463.82 Q1501.83 1462.43 1501.83 1459.84 Q1501.83 1457.18 1499.93 1455.77 Q1498.05 1454.33 1494.54 1454.33 Q1492.61 1454.33 1490.42 1454.75 Q1488.22 1455.16 1485.58 1456.04 L1485.58 1451.88 Q1488.24 1451.14 1490.55 1450.77 Q1492.89 1450.39 1494.95 1450.39 Q1500.28 1450.39 1503.38 1452.83 Q1506.48 1455.23 1506.48 1459.35 Q1506.48 1462.22 1504.84 1464.21 Q1503.19 1466.18 1500.16 1466.95 Z" fill="#000000" fill-rule="nonzero" fill-opacity="1" /><path clip-path="url(#clip610)" d="M1859.36 1454.1 Q1855.75 1454.1 1853.92 1457.66 Q1852.11 1461.2 1852.11 1468.33 Q1852.11 1475.44 1853.92 1479.01 Q1855.75 1482.55 1859.36 1482.55 Q1862.99 1482.55 1864.8 1479.01 Q1866.63 1475.44 1866.63 1468.33 Q1866.63 1461.2 1864.8 1457.66 Q1862.99 1454.1 1859.36 1454.1 M1859.36 1450.39 Q1865.17 1450.39 1868.23 1455 Q1871.3 1459.58 1871.3 1468.33 Q1871.3 1477.06 1868.23 1481.67 Q1865.17 1486.25 1859.36 1486.25 Q1853.55 1486.25 1850.47 1481.67 Q1847.42 1477.06 1847.42 1468.33 Q1847.42 1459.58 1850.47 1455 Q1853.55 1450.39 1859.36 1450.39 Z" fill="#000000" fill-rule="nonzero" fill-opacity="1" /><path clip-path="url(#clip610)" d="M1879.52 1479.7 L1884.41 1479.7 L1884.41 1485.58 L1879.52 1485.58 L1879.52 1479.7 Z" fill="#000000" fill-rule="nonzero" fill-opacity="1" /><path clip-path="url(#clip610)" d="M1907.44 1455.09 L1895.63 1473.54 L1907.44 1473.54 L1907.44 1455.09 M1906.21 1451.02 L1912.09 1451.02 L1912.09 1473.54 L1917.02 1473.54 L1917.02 1477.43 L1912.09 1477.43 L1912.09 1485.58 L1907.44 1485.58 L1907.44 1477.43 L1891.84 1477.43 L1891.84 1472.92 L1906.21 1451.02 Z" fill="#000000" fill-rule="nonzero" fill-opacity="1" /><path clip-path="url(#clip610)" d="M2269.26 1454.1 Q2265.65 1454.1 2263.82 1457.66 Q2262.02 1461.2 2262.02 1468.33 Q2262.02 1475.44 2263.82 1479.01 Q2265.65 1482.55 2269.26 1482.55 Q2272.9 1482.55 2274.7 1479.01 Q2276.53 1475.44 2276.53 1468.33 Q2276.53 1461.2 2274.7 1457.66 Q2272.9 1454.1 2269.26 1454.1 M2269.26 1450.39 Q2275.07 1450.39 2278.13 1455 Q2281.21 1459.58 2281.21 1468.33 Q2281.21 1477.06 2278.13 1481.67 Q2275.07 1486.25 2269.26 1486.25 Q2263.45 1486.25 2260.37 1481.67 Q2257.32 1477.06 2257.32 1468.33 Q2257.32 1459.58 2260.37 1455 Q2263.45 1450.39 2269.26 1450.39 Z" fill="#000000" fill-rule="nonzero" fill-opacity="1" /><path clip-path="url(#clip610)" d="M2289.43 1479.7 L2294.31 1479.7 L2294.31 1485.58 L2289.43 1485.58 L2289.43 1479.7 Z" fill="#000000" fill-rule="nonzero" fill-opacity="1" /><path clip-path="url(#clip610)" d="M2304.54 1451.02 L2322.9 1451.02 L2322.9 1454.96 L2308.82 1454.96 L2308.82 1463.43 Q2309.84 1463.08 2310.86 1462.92 Q2311.88 1462.73 2312.9 1462.73 Q2318.68 1462.73 2322.06 1465.9 Q2325.44 1469.08 2325.44 1474.49 Q2325.44 1480.07 2321.97 1483.17 Q2318.5 1486.25 2312.18 1486.25 Q2310 1486.25 2307.74 1485.88 Q2305.49 1485.51 2303.08 1484.77 L2303.08 1480.07 Q2305.17 1481.2 2307.39 1481.76 Q2309.61 1482.32 2312.09 1482.32 Q2316.09 1482.32 2318.43 1480.21 Q2320.77 1478.1 2320.77 1474.49 Q2320.77 1470.88 2318.43 1468.77 Q2316.09 1466.67 2312.09 1466.67 Q2310.21 1466.67 2308.34 1467.08 Q2306.49 1467.5 2304.54 1468.38 L2304.54 1451.02 Z" fill="#000000" fill-rule="nonzero" fill-opacity="1" /><path clip-path="url(#clip610)" d="M1273.68 1551.46 L1272.28 1544.11 Q1270.84 1536.57 1265.18 1536.57 Q1260.91 1536.57 1258.97 1540.07 Q1256.52 1544.46 1256.52 1550.25 Q1256.52 1557.25 1258.91 1560.6 Q1261.33 1564 1265.18 1564 Q1269.44 1564 1271.74 1557.22 L1273.68 1551.46 M1276.96 1541.72 L1280.11 1532.4 L1285.33 1532.4 L1278.8 1551.72 L1280.07 1558.69 Q1280.36 1560.25 1281.48 1561.55 Q1282.78 1563.08 1283.8 1563.08 L1286.6 1563.08 L1286.6 1568.04 L1283.1 1568.04 Q1280.11 1568.04 1277.43 1565.37 Q1276.13 1564.03 1275.59 1561.23 Q1274.12 1564.77 1271.13 1567.53 Q1269.73 1568.84 1265.18 1568.84 Q1257.7 1568.84 1254.07 1564 Q1250.35 1559 1250.35 1550.25 Q1250.35 1540.89 1254.39 1536.5 Q1258.88 1531.6 1265.18 1531.6 Q1275.08 1531.6 1276.96 1541.72 Z" fill="#000000" fill-rule="nonzero" fill-opacity="1" /><polyline clip-path="url(#clip610)" style="stroke:#000000; stroke-linecap:round; stroke-linejoin:round; stroke-width:4; stroke-opacity:1; fill:none" points="184.191,1423.18 184.191,123.472 "/>
<polyline clip-path="url(#clip610)" style="stroke:#000000; stroke-linecap:round; stroke-linejoin:round; stroke-width:4; stroke-opacity:1; fill:none" points="184.191,1290.61 203.088,1290.61 "/>
<polyline clip-path="url(#clip610)" style="stroke:#000000; stroke-linecap:round; stroke-linejoin:round; stroke-width:4; stroke-opacity:1; fill:none" points="184.191,1070.68 203.088,1070.68 "/>
<polyline clip-path="url(#clip610)" style="stroke:#000000; stroke-linecap:round; stroke-linejoin:round; stroke-width:4; stroke-opacity:1; fill:none" points="184.191,850.739 203.088,850.739 "/>
<polyline clip-path="url(#clip610)" style="stroke:#000000; stroke-linecap:round; stroke-linejoin:round; stroke-width:4; stroke-opacity:1; fill:none" points="184.191,630.803 203.088,630.803 "/>
<polyline clip-path="url(#clip610)" style="stroke:#000000; stroke-linecap:round; stroke-linejoin:round; stroke-width:4; stroke-opacity:1; fill:none" points="184.191,410.867 203.088,410.867 "/>
<polyline clip-path="url(#clip610)" style="stroke:#000000; stroke-linecap:round; stroke-linejoin:round; stroke-width:4; stroke-opacity:1; fill:none" points="184.191,190.931 203.088,190.931 "/>
<path clip-path="url(#clip610)" d="M52.6588 1303.96 L60.2976 1303.96 L60.2976 1277.59 L51.9875 1279.26 L51.9875 1275 L60.2513 1273.33 L64.9272 1273.33 L64.9272 1303.96 L72.5661 1303.96 L72.5661 1307.89 L52.6588 1307.89 L52.6588 1303.96 Z" fill="#000000" fill-rule="nonzero" fill-opacity="1" /><path clip-path="url(#clip610)" d="M82.0105 1302.01 L86.8947 1302.01 L86.8947 1307.89 L82.0105 1307.89 L82.0105 1302.01 Z" fill="#000000" fill-rule="nonzero" fill-opacity="1" /><path clip-path="url(#clip610)" d="M107.08 1276.41 Q103.469 1276.41 101.64 1279.98 Q99.8345 1283.52 99.8345 1290.65 Q99.8345 1297.75 101.64 1301.32 Q103.469 1304.86 107.08 1304.86 Q110.714 1304.86 112.52 1301.32 Q114.348 1297.75 114.348 1290.65 Q114.348 1283.52 112.52 1279.98 Q110.714 1276.41 107.08 1276.41 M107.08 1272.71 Q112.89 1272.71 115.945 1277.31 Q119.024 1281.9 119.024 1290.65 Q119.024 1299.37 115.945 1303.98 Q112.89 1308.56 107.08 1308.56 Q101.27 1308.56 98.1909 1303.98 Q95.1354 1299.37 95.1354 1290.65 Q95.1354 1281.9 98.1909 1277.31 Q101.27 1272.71 107.08 1272.71 Z" fill="#000000" fill-rule="nonzero" fill-opacity="1" /><path clip-path="url(#clip610)" d="M127.288 1273.33 L145.644 1273.33 L145.644 1277.27 L131.57 1277.27 L131.57 1285.74 Q132.589 1285.39 133.607 1285.23 Q134.626 1285.04 135.644 1285.04 Q141.431 1285.04 144.811 1288.22 Q148.191 1291.39 148.191 1296.8 Q148.191 1302.38 144.718 1305.48 Q141.246 1308.56 134.927 1308.56 Q132.751 1308.56 130.482 1308.19 Q128.237 1307.82 125.83 1307.08 L125.83 1302.38 Q127.913 1303.52 130.135 1304.07 Q132.357 1304.63 134.834 1304.63 Q138.839 1304.63 141.177 1302.52 Q143.515 1300.41 143.515 1296.8 Q143.515 1293.19 141.177 1291.09 Q138.839 1288.98 134.834 1288.98 Q132.959 1288.98 131.084 1289.4 Q129.232 1289.81 127.288 1290.69 L127.288 1273.33 Z" fill="#000000" fill-rule="nonzero" fill-opacity="1" /><path clip-path="url(#clip610)" d="M51.6634 1084.02 L59.3023 1084.02 L59.3023 1057.65 L50.9921 1059.32 L50.9921 1055.06 L59.256 1053.4 L63.9319 1053.4 L63.9319 1084.02 L71.5707 1084.02 L71.5707 1087.96 L51.6634 1087.96 L51.6634 1084.02 Z" fill="#000000" fill-rule="nonzero" fill-opacity="1" /><path clip-path="url(#clip610)" d="M81.0151 1082.08 L85.8993 1082.08 L85.8993 1087.96 L81.0151 1087.96 L81.0151 1082.08 Z" fill="#000000" fill-rule="nonzero" fill-opacity="1" /><path clip-path="url(#clip610)" d="M96.8947 1084.02 L104.534 1084.02 L104.534 1057.65 L96.2234 1059.32 L96.2234 1055.06 L104.487 1053.4 L109.163 1053.4 L109.163 1084.02 L116.802 1084.02 L116.802 1087.96 L96.8947 1087.96 L96.8947 1084.02 Z" fill="#000000" fill-rule="nonzero" fill-opacity="1" /><path clip-path="url(#clip610)" d="M136.246 1056.47 Q132.635 1056.47 130.807 1060.04 Q129.001 1063.58 129.001 1070.71 Q129.001 1077.82 130.807 1081.38 Q132.635 1084.92 136.246 1084.92 Q139.881 1084.92 141.686 1081.38 Q143.515 1077.82 143.515 1070.71 Q143.515 1063.58 141.686 1060.04 Q139.881 1056.47 136.246 1056.47 M136.246 1052.77 Q142.056 1052.77 145.112 1057.38 Q148.191 1061.96 148.191 1070.71 Q148.191 1079.44 145.112 1084.04 Q142.056 1088.63 136.246 1088.63 Q130.436 1088.63 127.357 1084.04 Q124.302 1079.44 124.302 1070.71 Q124.302 1061.96 127.357 1057.38 Q130.436 1052.77 136.246 1052.77 Z" fill="#000000" fill-rule="nonzero" fill-opacity="1" /><path clip-path="url(#clip610)" d="M52.6588 864.084 L60.2976 864.084 L60.2976 837.719 L51.9875 839.385 L51.9875 835.126 L60.2513 833.459 L64.9272 833.459 L64.9272 864.084 L72.5661 864.084 L72.5661 868.019 L52.6588 868.019 L52.6588 864.084 Z" fill="#000000" fill-rule="nonzero" fill-opacity="1" /><path clip-path="url(#clip610)" d="M82.0105 862.14 L86.8947 862.14 L86.8947 868.019 L82.0105 868.019 L82.0105 862.14 Z" fill="#000000" fill-rule="nonzero" fill-opacity="1" /><path clip-path="url(#clip610)" d="M97.89 864.084 L105.529 864.084 L105.529 837.719 L97.2187 839.385 L97.2187 835.126 L105.483 833.459 L110.158 833.459 L110.158 864.084 L117.797 864.084 L117.797 868.019 L97.89 868.019 L97.89 864.084 Z" fill="#000000" fill-rule="nonzero" fill-opacity="1" /><path clip-path="url(#clip610)" d="M127.288 833.459 L145.644 833.459 L145.644 837.395 L131.57 837.395 L131.57 845.867 Q132.589 845.52 133.607 845.358 Q134.626 845.172 135.644 845.172 Q141.431 845.172 144.811 848.344 Q148.191 851.515 148.191 856.932 Q148.191 862.51 144.718 865.612 Q141.246 868.691 134.927 868.691 Q132.751 868.691 130.482 868.32 Q128.237 867.95 125.83 867.209 L125.83 862.51 Q127.913 863.644 130.135 864.2 Q132.357 864.756 134.834 864.756 Q138.839 864.756 141.177 862.649 Q143.515 860.543 143.515 856.932 Q143.515 853.32 141.177 851.214 Q138.839 849.108 134.834 849.108 Q132.959 849.108 131.084 849.524 Q129.232 849.941 127.288 850.82 L127.288 833.459 Z" fill="#000000" fill-rule="nonzero" fill-opacity="1" /><path clip-path="url(#clip610)" d="M51.6634 644.148 L59.3023 644.148 L59.3023 617.783 L50.9921 619.449 L50.9921 615.19 L59.256 613.523 L63.9319 613.523 L63.9319 644.148 L71.5707 644.148 L71.5707 648.083 L51.6634 648.083 L51.6634 644.148 Z" fill="#000000" fill-rule="nonzero" fill-opacity="1" /><path clip-path="url(#clip610)" d="M81.0151 642.204 L85.8993 642.204 L85.8993 648.083 L81.0151 648.083 L81.0151 642.204 Z" fill="#000000" fill-rule="nonzero" fill-opacity="1" /><path clip-path="url(#clip610)" d="M100.112 644.148 L116.432 644.148 L116.432 648.083 L94.4873 648.083 L94.4873 644.148 Q97.1493 641.394 101.733 636.764 Q106.339 632.111 107.52 630.769 Q109.765 628.246 110.645 626.509 Q111.547 624.75 111.547 623.06 Q111.547 620.306 109.603 618.57 Q107.682 616.834 104.58 616.834 Q102.381 616.834 99.927 617.597 Q97.4965 618.361 94.7187 619.912 L94.7187 615.19 Q97.5428 614.056 99.9965 613.477 Q102.45 612.898 104.487 612.898 Q109.858 612.898 113.052 615.584 Q116.246 618.269 116.246 622.759 Q116.246 624.889 115.436 626.81 Q114.649 628.708 112.543 631.301 Q111.964 631.972 108.862 635.19 Q105.76 638.384 100.112 644.148 Z" fill="#000000" fill-rule="nonzero" fill-opacity="1" /><path clip-path="url(#clip610)" d="M136.246 616.602 Q132.635 616.602 130.807 620.167 Q129.001 623.709 129.001 630.838 Q129.001 637.945 130.807 641.509 Q132.635 645.051 136.246 645.051 Q139.881 645.051 141.686 641.509 Q143.515 637.945 143.515 630.838 Q143.515 623.709 141.686 620.167 Q139.881 616.602 136.246 616.602 M136.246 612.898 Q142.056 612.898 145.112 617.505 Q148.191 622.088 148.191 630.838 Q148.191 639.565 145.112 644.171 Q142.056 648.755 136.246 648.755 Q130.436 648.755 127.357 644.171 Q124.302 639.565 124.302 630.838 Q124.302 622.088 127.357 617.505 Q130.436 612.898 136.246 612.898 Z" fill="#000000" fill-rule="nonzero" fill-opacity="1" /><path clip-path="url(#clip610)" d="M52.6588 424.212 L60.2976 424.212 L60.2976 397.847 L51.9875 399.513 L51.9875 395.254 L60.2513 393.587 L64.9272 393.587 L64.9272 424.212 L72.5661 424.212 L72.5661 428.147 L52.6588 428.147 L52.6588 424.212 Z" fill="#000000" fill-rule="nonzero" fill-opacity="1" /><path clip-path="url(#clip610)" d="M82.0105 422.268 L86.8947 422.268 L86.8947 428.147 L82.0105 428.147 L82.0105 422.268 Z" fill="#000000" fill-rule="nonzero" fill-opacity="1" /><path clip-path="url(#clip610)" d="M101.108 424.212 L117.427 424.212 L117.427 428.147 L95.4826 428.147 L95.4826 424.212 Q98.1447 421.458 102.728 416.828 Q107.334 412.175 108.515 410.833 Q110.76 408.309 111.64 406.573 Q112.543 404.814 112.543 403.124 Q112.543 400.37 110.598 398.634 Q108.677 396.897 105.575 396.897 Q103.376 396.897 100.922 397.661 Q98.4919 398.425 95.7141 399.976 L95.7141 395.254 Q98.5382 394.12 100.992 393.541 Q103.446 392.962 105.483 392.962 Q110.853 392.962 114.047 395.648 Q117.242 398.333 117.242 402.823 Q117.242 404.953 116.432 406.874 Q115.645 408.772 113.538 411.365 Q112.959 412.036 109.858 415.254 Q106.756 418.448 101.108 424.212 Z" fill="#000000" fill-rule="nonzero" fill-opacity="1" /><path clip-path="url(#clip610)" d="M127.288 393.587 L145.644 393.587 L145.644 397.522 L131.57 397.522 L131.57 405.995 Q132.589 405.647 133.607 405.485 Q134.626 405.3 135.644 405.3 Q141.431 405.3 144.811 408.472 Q148.191 411.643 148.191 417.059 Q148.191 422.638 144.718 425.74 Q141.246 428.819 134.927 428.819 Q132.751 428.819 130.482 428.448 Q128.237 428.078 125.83 427.337 L125.83 422.638 Q127.913 423.772 130.135 424.328 Q132.357 424.883 134.834 424.883 Q138.839 424.883 141.177 422.777 Q143.515 420.671 143.515 417.059 Q143.515 413.448 141.177 411.342 Q138.839 409.235 134.834 409.235 Q132.959 409.235 131.084 409.652 Q129.232 410.069 127.288 410.948 L127.288 393.587 Z" fill="#000000" fill-rule="nonzero" fill-opacity="1" /><path clip-path="url(#clip610)" d="M51.6634 204.276 L59.3023 204.276 L59.3023 177.911 L50.9921 179.577 L50.9921 175.318 L59.256 173.651 L63.9319 173.651 L63.9319 204.276 L71.5707 204.276 L71.5707 208.211 L51.6634 208.211 L51.6634 204.276 Z" fill="#000000" fill-rule="nonzero" fill-opacity="1" /><path clip-path="url(#clip610)" d="M81.0151 202.332 L85.8993 202.332 L85.8993 208.211 L81.0151 208.211 L81.0151 202.332 Z" fill="#000000" fill-rule="nonzero" fill-opacity="1" /><path clip-path="url(#clip610)" d="M110.251 189.577 Q113.608 190.295 115.483 192.563 Q117.381 194.832 117.381 198.165 Q117.381 203.281 113.862 206.082 Q110.344 208.883 103.862 208.883 Q101.686 208.883 99.3715 208.443 Q97.0798 208.026 94.6262 207.17 L94.6262 202.656 Q96.5706 203.79 98.8854 204.369 Q101.2 204.947 103.723 204.947 Q108.121 204.947 110.413 203.211 Q112.728 201.475 112.728 198.165 Q112.728 195.109 110.575 193.397 Q108.446 191.66 104.626 191.66 L100.598 191.66 L100.598 187.818 L104.811 187.818 Q108.26 187.818 110.089 186.452 Q111.918 185.063 111.918 182.471 Q111.918 179.809 110.02 178.397 Q108.145 176.961 104.626 176.961 Q102.705 176.961 100.506 177.378 Q98.3067 177.795 95.6678 178.674 L95.6678 174.508 Q98.3298 173.767 100.645 173.397 Q102.983 173.026 105.043 173.026 Q110.367 173.026 113.469 175.457 Q116.57 177.864 116.57 181.985 Q116.57 184.855 114.927 186.846 Q113.283 188.813 110.251 189.577 Z" fill="#000000" fill-rule="nonzero" fill-opacity="1" /><path clip-path="url(#clip610)" d="M136.246 176.73 Q132.635 176.73 130.807 180.295 Q129.001 183.836 129.001 190.966 Q129.001 198.072 130.807 201.637 Q132.635 205.179 136.246 205.179 Q139.881 205.179 141.686 201.637 Q143.515 198.072 143.515 190.966 Q143.515 183.836 141.686 180.295 Q139.881 176.73 136.246 176.73 M136.246 173.026 Q142.056 173.026 145.112 177.633 Q148.191 182.216 148.191 190.966 Q148.191 199.693 145.112 204.299 Q142.056 208.883 136.246 208.883 Q130.436 208.883 127.357 204.299 Q124.302 199.693 124.302 190.966 Q124.302 182.216 127.357 177.633 Q130.436 173.026 136.246 173.026 Z" fill="#000000" fill-rule="nonzero" fill-opacity="1" /><path clip-path="url(#clip610)" d="M887.607 44.2197 Q890.24 45.1109 892.711 48.0275 Q895.223 50.9442 897.735 56.0483 L906.039 72.576 L897.248 72.576 L889.511 57.061 Q886.514 50.9847 883.678 48.9997 Q880.883 47.0148 876.022 47.0148 L867.11 47.0148 L867.11 72.576 L858.927 72.576 L858.927 12.096 L877.399 12.096 Q887.769 12.096 892.873 16.4305 Q897.978 20.7649 897.978 29.5149 Q897.978 35.2267 895.304 38.994 Q892.671 42.7613 887.607 44.2197 M867.11 18.8205 L867.11 40.2903 L877.399 40.2903 Q883.313 40.2903 886.311 37.5762 Q889.349 34.8216 889.349 29.5149 Q889.349 24.2082 886.311 21.5346 Q883.313 18.8205 877.399 18.8205 L867.11 18.8205 Z" fill="#000000" fill-rule="nonzero" fill-opacity="1" /><path clip-path="url(#clip610)" d="M951.328 48.0275 L951.328 51.6733 L917.057 51.6733 Q917.543 59.3701 921.675 63.421 Q925.848 67.4314 933.261 67.4314 Q937.555 67.4314 941.565 66.3781 Q945.616 65.3249 949.586 63.2184 L949.586 70.267 Q945.576 71.9684 941.363 72.8596 Q937.15 73.7508 932.815 73.7508 Q921.959 73.7508 915.599 67.4314 Q909.28 61.1119 909.28 50.3365 Q909.28 39.1965 915.275 32.6746 Q921.311 26.1121 931.519 26.1121 Q940.674 26.1121 945.981 32.0264 Q951.328 37.9003 951.328 48.0275 M943.874 45.84 Q943.793 39.7232 940.431 36.0774 Q937.109 32.4315 931.6 32.4315 Q925.362 32.4315 921.594 35.9558 Q917.868 39.4801 917.3 45.8805 L943.874 45.84 Z" fill="#000000" fill-rule="nonzero" fill-opacity="1" /><path clip-path="url(#clip610)" d="M993.417 49.3643 Q993.417 41.2625 990.055 36.8065 Q986.733 32.3505 980.697 32.3505 Q974.702 32.3505 971.339 36.8065 Q968.018 41.2625 968.018 49.3643 Q968.018 57.4256 971.339 61.8816 Q974.702 66.3376 980.697 66.3376 Q986.733 66.3376 990.055 61.8816 Q993.417 57.4256 993.417 49.3643 M1000.87 66.9452 Q1000.87 78.5308 995.726 84.1616 Q990.581 89.8329 979.968 89.8329 Q976.039 89.8329 972.555 89.2252 Q969.071 88.6581 965.79 87.4428 L965.79 80.1917 Q969.071 81.9741 972.271 82.8248 Q975.471 83.6755 978.793 83.6755 Q986.125 83.6755 989.771 79.8271 Q993.417 76.0193 993.417 68.282 L993.417 64.5957 Q991.108 68.6061 987.503 70.5911 Q983.897 72.576 978.874 72.576 Q970.529 72.576 965.425 66.2161 Q960.321 59.8562 960.321 49.3643 Q960.321 38.832 965.425 32.472 Q970.529 26.1121 978.874 26.1121 Q983.897 26.1121 987.503 28.0971 Q991.108 30.082 993.417 34.0924 L993.417 27.2059 L1000.87 27.2059 L1000.87 66.9452 Z" fill="#000000" fill-rule="nonzero" fill-opacity="1" /><path clip-path="url(#clip610)" d="M1015.45 54.671 L1015.45 27.2059 L1022.91 27.2059 L1022.91 54.3874 Q1022.91 60.8284 1025.42 64.0691 Q1027.93 67.2693 1032.95 67.2693 Q1038.99 67.2693 1042.47 63.421 Q1046 59.5726 1046 52.9291 L1046 27.2059 L1053.45 27.2059 L1053.45 72.576 L1046 72.576 L1046 65.6084 Q1043.28 69.7404 1039.68 71.7658 Q1036.11 73.7508 1031.37 73.7508 Q1023.56 73.7508 1019.5 68.8897 Q1015.45 64.0286 1015.45 54.671 M1034.21 26.1121 L1034.21 26.1121 Z" fill="#000000" fill-rule="nonzero" fill-opacity="1" /><path clip-path="url(#clip610)" d="M1068.8 9.54393 L1076.26 9.54393 L1076.26 72.576 L1068.8 72.576 L1068.8 9.54393 Z" fill="#000000" fill-rule="nonzero" fill-opacity="1" /><path clip-path="url(#clip610)" d="M1112.47 49.7694 Q1103.44 49.7694 1099.96 51.8354 Q1096.47 53.9013 1096.47 58.8839 Q1096.47 62.8538 1099.06 65.2034 Q1101.7 67.5124 1106.19 67.5124 Q1112.39 67.5124 1116.12 63.1374 Q1119.89 58.7219 1119.89 51.4303 L1119.89 49.7694 L1112.47 49.7694 M1127.34 46.6907 L1127.34 72.576 L1119.89 72.576 L1119.89 65.6895 Q1117.33 69.8214 1113.53 71.8063 Q1109.72 73.7508 1104.21 73.7508 Q1097.24 73.7508 1093.11 69.8619 Q1089.02 65.9325 1089.02 59.3701 Q1089.02 51.7138 1094.12 47.825 Q1099.27 43.9361 1109.43 43.9361 L1119.89 43.9361 L1119.89 43.2069 Q1119.89 38.0623 1116.48 35.2672 Q1113.12 32.4315 1107 32.4315 Q1103.12 32.4315 1099.43 33.3632 Q1095.74 34.295 1092.34 36.1584 L1092.34 29.2718 Q1096.43 27.692 1100.28 26.9223 Q1104.13 26.1121 1107.77 26.1121 Q1117.62 26.1121 1122.48 31.2163 Q1127.34 36.3204 1127.34 46.6907 Z" fill="#000000" fill-rule="nonzero" fill-opacity="1" /><path clip-path="url(#clip610)" d="M1168.98 34.1734 Q1167.73 33.4443 1166.23 33.1202 Q1164.77 32.7556 1162.99 32.7556 Q1156.67 32.7556 1153.27 36.8875 Q1149.9 40.9789 1149.9 48.6757 L1149.9 72.576 L1142.41 72.576 L1142.41 27.2059 L1149.9 27.2059 L1149.9 34.2544 Q1152.25 30.1225 1156.02 28.1376 Q1159.79 26.1121 1165.18 26.1121 Q1165.94 26.1121 1166.88 26.2337 Q1167.81 26.3147 1168.94 26.5172 L1168.98 34.1734 Z" fill="#000000" fill-rule="nonzero" fill-opacity="1" /><path clip-path="url(#clip610)" d="M1176.8 27.2059 L1184.25 27.2059 L1184.25 72.576 L1176.8 72.576 L1176.8 27.2059 M1176.8 9.54393 L1184.25 9.54393 L1184.25 18.9825 L1176.8 18.9825 L1176.8 9.54393 Z" fill="#000000" fill-rule="nonzero" fill-opacity="1" /><path clip-path="url(#clip610)" d="M1196.61 27.2059 L1232.02 27.2059 L1232.02 34.0114 L1203.98 66.6212 L1232.02 66.6212 L1232.02 72.576 L1195.6 72.576 L1195.6 65.7705 L1223.63 33.1607 L1196.61 33.1607 L1196.61 27.2059 Z" fill="#000000" fill-rule="nonzero" fill-opacity="1" /><path clip-path="url(#clip610)" d="M1282.21 48.0275 L1282.21 51.6733 L1247.94 51.6733 Q1248.42 59.3701 1252.55 63.421 Q1256.73 67.4314 1264.14 67.4314 Q1268.43 67.4314 1272.44 66.3781 Q1276.49 65.3249 1280.46 63.2184 L1280.46 70.267 Q1276.45 71.9684 1272.24 72.8596 Q1268.03 73.7508 1263.69 73.7508 Q1252.84 73.7508 1246.48 67.4314 Q1240.16 61.1119 1240.16 50.3365 Q1240.16 39.1965 1246.15 32.6746 Q1252.19 26.1121 1262.4 26.1121 Q1271.55 26.1121 1276.86 32.0264 Q1282.21 37.9003 1282.21 48.0275 M1274.75 45.84 Q1274.67 39.7232 1271.31 36.0774 Q1267.99 32.4315 1262.48 32.4315 Q1256.24 32.4315 1252.47 35.9558 Q1248.75 39.4801 1248.18 45.8805 L1274.75 45.84 Z" fill="#000000" fill-rule="nonzero" fill-opacity="1" /><path clip-path="url(#clip610)" d="M1320.73 34.1734 Q1319.47 33.4443 1317.98 33.1202 Q1316.52 32.7556 1314.73 32.7556 Q1308.42 32.7556 1305.01 36.8875 Q1301.65 40.9789 1301.65 48.6757 L1301.65 72.576 L1294.16 72.576 L1294.16 27.2059 L1301.65 27.2059 L1301.65 34.2544 Q1304 30.1225 1307.77 28.1376 Q1311.53 26.1121 1316.92 26.1121 Q1317.69 26.1121 1318.62 26.2337 Q1319.56 26.3147 1320.69 26.5172 L1320.73 34.1734 Z" fill="#000000" fill-rule="nonzero" fill-opacity="1" /><path clip-path="url(#clip610)" d="M1354.92 9.54393 L1362.37 9.54393 L1362.37 72.576 L1354.92 72.576 L1354.92 9.54393 Z" fill="#000000" fill-rule="nonzero" fill-opacity="1" /><path clip-path="url(#clip610)" d="M1416.78 48.0275 L1416.78 51.6733 L1382.51 51.6733 Q1382.99 59.3701 1387.12 63.421 Q1391.3 67.4314 1398.71 67.4314 Q1403 67.4314 1407.01 66.3781 Q1411.07 65.3249 1415.04 63.2184 L1415.04 70.267 Q1411.02 71.9684 1406.81 72.8596 Q1402.6 73.7508 1398.26 73.7508 Q1387.41 73.7508 1381.05 67.4314 Q1374.73 61.1119 1374.73 50.3365 Q1374.73 39.1965 1380.72 32.6746 Q1386.76 26.1121 1396.97 26.1121 Q1406.12 26.1121 1411.43 32.0264 Q1416.78 37.9003 1416.78 48.0275 M1409.32 45.84 Q1409.24 39.7232 1405.88 36.0774 Q1402.56 32.4315 1397.05 32.4315 Q1390.81 32.4315 1387.04 35.9558 Q1383.32 39.4801 1382.75 45.8805 L1409.32 45.84 Z" fill="#000000" fill-rule="nonzero" fill-opacity="1" /><path clip-path="url(#clip610)" d="M1449.63 49.7694 Q1440.6 49.7694 1437.11 51.8354 Q1433.63 53.9013 1433.63 58.8839 Q1433.63 62.8538 1436.22 65.2034 Q1438.85 67.5124 1443.35 67.5124 Q1449.55 67.5124 1453.28 63.1374 Q1457.04 58.7219 1457.04 51.4303 L1457.04 49.7694 L1449.63 49.7694 M1464.5 46.6907 L1464.5 72.576 L1457.04 72.576 L1457.04 65.6895 Q1454.49 69.8214 1450.68 71.8063 Q1446.88 73.7508 1441.37 73.7508 Q1434.4 73.7508 1430.27 69.8619 Q1426.17 65.9325 1426.17 59.3701 Q1426.17 51.7138 1431.28 47.825 Q1436.42 43.9361 1446.59 43.9361 L1457.04 43.9361 L1457.04 43.2069 Q1457.04 38.0623 1453.64 35.2672 Q1450.28 32.4315 1444.16 32.4315 Q1440.27 32.4315 1436.59 33.3632 Q1432.9 34.295 1429.5 36.1584 L1429.5 29.2718 Q1433.59 27.692 1437.44 26.9223 Q1441.28 26.1121 1444.93 26.1121 Q1454.77 26.1121 1459.64 31.2163 Q1464.5 36.3204 1464.5 46.6907 Z" fill="#000000" fill-rule="nonzero" fill-opacity="1" /><path clip-path="url(#clip610)" d="M1506.14 34.1734 Q1504.88 33.4443 1503.39 33.1202 Q1501.93 32.7556 1500.14 32.7556 Q1493.83 32.7556 1490.42 36.8875 Q1487.06 40.9789 1487.06 48.6757 L1487.06 72.576 L1479.57 72.576 L1479.57 27.2059 L1487.06 27.2059 L1487.06 34.2544 Q1489.41 30.1225 1493.18 28.1376 Q1496.94 26.1121 1502.33 26.1121 Q1503.1 26.1121 1504.03 26.2337 Q1504.97 26.3147 1506.1 26.5172 L1506.14 34.1734 Z" fill="#000000" fill-rule="nonzero" fill-opacity="1" /><path clip-path="url(#clip610)" d="M1550.21 45.1919 L1550.21 72.576 L1542.76 72.576 L1542.76 45.4349 Q1542.76 38.994 1540.25 35.7938 Q1537.74 32.5936 1532.71 32.5936 Q1526.68 32.5936 1523.19 36.4419 Q1519.71 40.2903 1519.71 46.9338 L1519.71 72.576 L1512.22 72.576 L1512.22 27.2059 L1519.71 27.2059 L1519.71 34.2544 Q1522.38 30.163 1525.99 28.1376 Q1529.64 26.1121 1534.37 26.1121 Q1542.19 26.1121 1546.2 30.9732 Q1550.21 35.7938 1550.21 45.1919 Z" fill="#000000" fill-rule="nonzero" fill-opacity="1" /><path clip-path="url(#clip610)" d="M1565.08 27.2059 L1572.53 27.2059 L1572.53 72.576 L1565.08 72.576 L1565.08 27.2059 M1565.08 9.54393 L1572.53 9.54393 L1572.53 18.9825 L1565.08 18.9825 L1565.08 9.54393 Z" fill="#000000" fill-rule="nonzero" fill-opacity="1" /><path clip-path="url(#clip610)" d="M1625.84 45.1919 L1625.84 72.576 L1618.39 72.576 L1618.39 45.4349 Q1618.39 38.994 1615.88 35.7938 Q1613.37 32.5936 1608.34 32.5936 Q1602.31 32.5936 1598.82 36.4419 Q1595.34 40.2903 1595.34 46.9338 L1595.34 72.576 L1587.85 72.576 L1587.85 27.2059 L1595.34 27.2059 L1595.34 34.2544 Q1598.01 30.163 1601.62 28.1376 Q1605.27 26.1121 1610.01 26.1121 Q1617.82 26.1121 1621.83 30.9732 Q1625.84 35.7938 1625.84 45.1919 Z" fill="#000000" fill-rule="nonzero" fill-opacity="1" /><path clip-path="url(#clip610)" d="M1670.57 49.3643 Q1670.57 41.2625 1667.2 36.8065 Q1663.88 32.3505 1657.85 32.3505 Q1651.85 32.3505 1648.49 36.8065 Q1645.17 41.2625 1645.17 49.3643 Q1645.17 57.4256 1648.49 61.8816 Q1651.85 66.3376 1657.85 66.3376 Q1663.88 66.3376 1667.2 61.8816 Q1670.57 57.4256 1670.57 49.3643 M1678.02 66.9452 Q1678.02 78.5308 1672.88 84.1616 Q1667.73 89.8329 1657.12 89.8329 Q1653.19 89.8329 1649.7 89.2252 Q1646.22 88.6581 1642.94 87.4428 L1642.94 80.1917 Q1646.22 81.9741 1649.42 82.8248 Q1652.62 83.6755 1655.94 83.6755 Q1663.27 83.6755 1666.92 79.8271 Q1670.57 76.0193 1670.57 68.282 L1670.57 64.5957 Q1668.26 68.6061 1664.65 70.5911 Q1661.05 72.576 1656.02 72.576 Q1647.68 72.576 1642.57 66.2161 Q1637.47 59.8562 1637.47 49.3643 Q1637.47 38.832 1642.57 32.472 Q1647.68 26.1121 1656.02 26.1121 Q1661.05 26.1121 1664.65 28.0971 Q1668.26 30.082 1670.57 34.0924 L1670.57 27.2059 L1678.02 27.2059 L1678.02 66.9452 Z" fill="#000000" fill-rule="nonzero" fill-opacity="1" /><polyline clip-path="url(#clip612)" style="stroke:#009af9; stroke-linecap:round; stroke-linejoin:round; stroke-width:8; stroke-opacity:1; fill:none" points="245.565,160.256 286.481,217.415 327.398,273.153 368.314,327.475 409.23,380.385 450.147,431.888 491.063,481.987 531.979,530.688 572.896,577.994 613.812,623.909 654.728,668.437 695.645,711.583 736.561,753.351 777.477,793.744 818.394,832.768 859.31,870.425 900.226,906.721 941.143,941.658 982.059,975.242 1022.98,1007.48 1063.89,1038.36 1104.81,1067.91 1145.72,1096.12 1186.64,1122.99 1227.56,1148.54 1268.47,1172.76 1309.39,1195.65 1350.31,1217.23 1391.22,1237.5 1432.14,1256.45 1473.05,1274.1 1513.97,1290.44 1554.89,1305.49 1595.8,1319.24 1636.72,1331.7 1677.64,1342.87 1718.55,1352.76 1759.47,1361.36 1800.39,1368.69 1841.3,1374.75 1882.22,1379.54 1923.13,1383.07 1964.05,1385.33 2004.97,1386.34 2045.88,1386.09 2086.8,1384.59 2127.72,1381.85 2168.63,1377.86 2209.55,1372.63 2250.47,1366.17 2291.38,1358.47 "/>
<polyline clip-path="url(#clip612)" style="stroke:#e26f46; stroke-linecap:round; stroke-linejoin:round; stroke-width:20; stroke-opacity:1; fill:none" stroke-dasharray="10, 20" points="654.728,668.437 695.505,711.437 735.001,751.783 773.262,789.646 810.329,825.184 846.243,858.547 881.042,889.872 914.764,919.289 947.445,946.919 979.119,972.874 1009.82,997.26 1039.58,1020.17 1068.43,1041.71 1096.4,1061.95 1123.51,1080.97 1149.81,1098.86 1175.3,1115.68 1200.02,1131.5 1224,1146.37 1247.25,1160.36 1269.8,1173.52 1291.67,1185.9 1312.89,1197.55 1333.47,1208.51 1353.43,1218.83 1372.8,1228.53 1391.59,1237.67 1409.82,1246.27 1427.5,1254.37 1444.66,1261.99 1461.31,1269.17 1477.47,1275.92 1493.15,1282.29 1508.36,1288.28 1523.12,1293.92 1537.45,1299.23 1551.36,1304.24 1564.85,1308.96 1577.95,1313.4 1590.67,1317.58 1603.01,1321.52 1614.98,1325.24 1626.61,1328.74 1637.9,1332.04 1648.85,1335.14 1659.49,1338.07 1669.81,1340.83 1679.83,1343.43 1689.56,1345.88 1699.01,1348.19 1708.18,1350.37 1717.08,1352.42 1725.73,1354.36 1734.12,1356.18 1742.27,1357.9 1750.18,1359.52 1757.86,1361.05 1765.32,1362.49 1772.57,1363.85 1779.6,1365.13 1786.43,1366.34 1793.06,1367.48 1799.5,1368.55 1805.75,1369.56 1811.82,1370.52 1817.72,1371.42 1823.45,1372.27 1829.01,1373.07 1834.41,1373.82 1839.65,1374.53 1844.74,1375.21 1849.69,1375.84 1854.49,1376.44 1859.16,1377 1863.69,1377.53 1868.09,1378.03 1872.36,1378.51 1876.51,1378.95 1880.54,1379.37 1884.46,1379.77 1888.26,1380.14 1891.96,1380.5 1895.54,1380.83 1899.03,1381.15 1902.41,1381.44 1905.7,1381.72 1908.89,1381.99 1911.99,1382.23 1915,1382.47 1917.93,1382.69 1920.77,1382.9 1923.53,1383.1 1926.21,1383.28 1928.81,1383.46 1931.34,1383.62 1933.8,1383.78 1936.18,1383.93 1938.5,1384.07 1940.75,1384.2 1942.94,1384.32 1945.06,1384.44 1947.13,1384.55 1949.13,1384.65 1951.08,1384.75 1952.97,1384.84 1954.81,1384.93 1956.59,1385.01 1958.33,1385.09 1960.01,1385.17 1961.64,1385.23 1963.23,1385.3 1964.78,1385.36 1966.28,1385.42 1967.73,1385.48 1969.15,1385.53 1970.52,1385.58 1971.86,1385.62 1973.16,1385.67 1974.42,1385.71 1975.64,1385.75 1976.83,1385.78 1977.98,1385.82 1979.11,1385.85 1980.2,1385.88 1981.25,1385.91 1982.28,1385.94 1983.28,1385.96 1984.25,1385.99 1985.2,1386.01 1986.11,1386.03 1987,1386.05 1987.87,1386.07 1988.71,1386.09 1989.52,1386.11 1990.31,1386.12 1991.08,1386.14 1991.83,1386.15 1992.56,1386.17 1993.27,1386.18 1993.95,1386.19 1994.62,1386.2 1995.26,1386.21 1995.89,1386.22 1996.5,1386.23 1997.1,1386.24 1997.67,1386.25 1998.23,1386.26 1998.78,1386.27 1999.31,1386.27 1999.82,1386.28 2000.32,1386.29 2000.8,1386.29 2001.27,1386.3 2001.73,1386.31 2002.18,1386.31 2002.61,1386.32 2003.03,1386.32 2003.43,1386.32 2003.83,1386.33 2004.21,1386.33 2004.59,1386.34 2004.95,1386.34 2005.3,1386.34 2005.65,1386.35 2005.98,1386.35 2006.3,1386.35 2006.62,1386.35 2006.92,1386.36 2007.22,1386.36 2007.5,1386.36 2007.78,1386.36 2008.06,1386.36 2008.32,1386.37 2008.58,1386.37 2008.83,1386.37 2009.07,1386.37 2009.3,1386.37 2009.53,1386.37 2009.75,1386.37 2009.97,1386.38 2010.18,1386.38 2010.38,1386.38 2010.58,1386.38 2010.77,1386.38 2010.96,1386.38 2011.14,1386.38 2011.32,1386.38 2011.49,1386.38 2011.65,1386.38 2011.81,1386.39 2011.97,1386.39 2012.12,1386.39 2012.27,1386.39 2012.41,1386.39 2012.55,1386.39 2012.69,1386.39 2012.82,1386.39 2012.95,1386.39 2013.07,1386.39 2013.2,1386.39 2013.31,1386.39 2013.43,1386.39 2013.54,1386.39 2013.65,1386.39 2013.75,1386.39 2013.85,1386.39 2013.95,1386.39 2014.05,1386.39 2014.14,1386.39 2014.23,1386.39 2014.32,1386.39 2014.4,1386.39 2014.49,1386.39 2014.57,1386.39 2014.65,1386.39 2014.72,1386.39 2014.8,1386.39 2014.87,1386.39 2014.94,1386.39 2015.01,1386.39 2015.07,1386.39 2015.14,1386.39 2015.2,1386.39 2015.26,1386.39 2015.32,1386.39 2015.37,1386.39 2015.43,1386.4 2015.48,1386.4 2015.54,1386.4 2015.59,1386.4 2015.64,1386.4 2015.68,1386.4 2015.73,1386.4 2015.78,1386.4 2015.82,1386.4 2015.86,1386.4 2015.9,1386.4 "/>
<path clip-path="url(#clip610)" d="M256.476 322.316 L692.267 322.316 L692.267 166.796 L256.476 166.796  Z" fill="#ffffff" fill-rule="evenodd" fill-opacity="1"/>
<polyline clip-path="url(#clip610)" style="stroke:#000000; stroke-linecap:round; stroke-linejoin:round; stroke-width:4; stroke-opacity:1; fill:none" points="256.476,322.316 692.267,322.316 692.267,166.796 256.476,166.796 256.476,322.316 "/>
<polyline clip-path="url(#clip610)" style="stroke:#009af9; stroke-linecap:round; stroke-linejoin:round; stroke-width:8; stroke-opacity:1; fill:none" points="280.571,218.636 425.142,218.636 "/>
<path clip-path="url(#clip610)" d="M449.238 201.356 L456.205 201.356 L465.024 224.874 L473.89 201.356 L480.858 201.356 L480.858 235.916 L476.298 235.916 L476.298 205.569 L467.386 229.272 L462.687 229.272 L453.775 205.569 L453.775 235.916 L449.238 235.916 L449.238 201.356 Z" fill="#000000" fill-rule="nonzero" fill-opacity="1" /><path clip-path="url(#clip610)" d="M510.858 202.49 L510.858 207.05 Q508.196 205.777 505.834 205.152 Q503.473 204.527 501.274 204.527 Q497.455 204.527 495.372 206.008 Q493.311 207.49 493.311 210.221 Q493.311 212.513 494.677 213.694 Q496.066 214.851 499.909 215.569 L502.733 216.147 Q507.964 217.143 510.441 219.666 Q512.941 222.166 512.941 226.379 Q512.941 231.402 509.561 233.994 Q506.205 236.587 499.7 236.587 Q497.247 236.587 494.469 236.031 Q491.714 235.476 488.751 234.388 L488.751 229.573 Q491.598 231.17 494.33 231.981 Q497.061 232.791 499.7 232.791 Q503.705 232.791 505.881 231.217 Q508.057 229.643 508.057 226.726 Q508.057 224.18 506.483 222.744 Q504.932 221.309 501.367 220.592 L498.52 220.036 Q493.288 218.995 490.95 216.772 Q488.612 214.55 488.612 210.592 Q488.612 206.008 491.83 203.37 Q495.071 200.731 500.742 200.731 Q503.172 200.731 505.696 201.171 Q508.219 201.61 510.858 202.49 Z" fill="#000000" fill-rule="nonzero" fill-opacity="1" /><path clip-path="url(#clip610)" d="M520.233 201.356 L542.084 201.356 L542.084 205.291 L524.908 205.291 L524.908 215.522 L541.367 215.522 L541.367 219.457 L524.908 219.457 L524.908 231.981 L542.501 231.981 L542.501 235.916 L520.233 235.916 L520.233 201.356 Z" fill="#000000" fill-rule="nonzero" fill-opacity="1" /><path clip-path="url(#clip610)" d="M569.283 202.629 L569.283 209.99 L578.056 209.99 L578.056 213.3 L569.283 213.3 L569.283 227.374 Q569.283 230.545 570.14 231.448 Q571.019 232.351 573.681 232.351 L578.056 232.351 L578.056 235.916 L573.681 235.916 Q568.751 235.916 566.876 234.087 Q565.001 232.235 565.001 227.374 L565.001 213.3 L561.876 213.3 L561.876 209.99 L565.001 209.99 L565.001 202.629 L569.283 202.629 Z" fill="#000000" fill-rule="nonzero" fill-opacity="1" /><path clip-path="url(#clip610)" d="M605.834 221.888 L605.834 223.971 L586.251 223.971 Q586.528 228.369 588.89 230.684 Q591.274 232.976 595.51 232.976 Q597.964 232.976 600.255 232.374 Q602.57 231.772 604.839 230.569 L604.839 234.596 Q602.547 235.568 600.14 236.078 Q597.732 236.587 595.255 236.587 Q589.052 236.587 585.417 232.976 Q581.806 229.365 581.806 223.207 Q581.806 216.842 585.232 213.115 Q588.681 209.365 594.515 209.365 Q599.746 209.365 602.778 212.745 Q605.834 216.101 605.834 221.888 M601.575 220.638 Q601.528 217.143 599.607 215.059 Q597.709 212.976 594.561 212.976 Q590.996 212.976 588.843 214.99 Q586.714 217.004 586.39 220.661 L601.575 220.638 Z" fill="#000000" fill-rule="nonzero" fill-opacity="1" /><path clip-path="url(#clip610)" d="M629.352 210.754 L629.352 214.782 Q627.547 213.856 625.602 213.393 Q623.658 212.93 621.575 212.93 Q618.403 212.93 616.806 213.902 Q615.232 214.874 615.232 216.819 Q615.232 218.3 616.366 219.157 Q617.501 219.99 620.926 220.754 L622.385 221.078 Q626.922 222.05 628.82 223.832 Q630.741 225.592 630.741 228.763 Q630.741 232.374 627.871 234.481 Q625.024 236.587 620.024 236.587 Q617.94 236.587 615.672 236.17 Q613.426 235.777 610.926 234.967 L610.926 230.569 Q613.288 231.795 615.579 232.42 Q617.871 233.022 620.116 233.022 Q623.125 233.022 624.746 232.004 Q626.366 230.962 626.366 229.087 Q626.366 227.351 625.186 226.425 Q624.028 225.499 620.07 224.643 L618.588 224.295 Q614.63 223.462 612.871 221.749 Q611.112 220.013 611.112 217.004 Q611.112 213.346 613.704 211.356 Q616.297 209.365 621.065 209.365 Q623.426 209.365 625.51 209.712 Q627.593 210.059 629.352 210.754 Z" fill="#000000" fill-rule="nonzero" fill-opacity="1" /><path clip-path="url(#clip610)" d="M641.737 202.629 L641.737 209.99 L650.51 209.99 L650.51 213.3 L641.737 213.3 L641.737 227.374 Q641.737 230.545 642.593 231.448 Q643.473 232.351 646.135 232.351 L650.51 232.351 L650.51 235.916 L646.135 235.916 Q641.204 235.916 639.329 234.087 Q637.454 232.235 637.454 227.374 L637.454 213.3 L634.329 213.3 L634.329 209.99 L637.454 209.99 L637.454 202.629 L641.737 202.629 Z" fill="#000000" fill-rule="nonzero" fill-opacity="1" /><polyline clip-path="url(#clip610)" style="stroke:#e26f46; stroke-linecap:round; stroke-linejoin:round; stroke-width:20; stroke-opacity:1; fill:none" stroke-dasharray="10, 20" points="280.571,270.476 425.142,270.476 "/>
<path clip-path="url(#clip610)" d="M449.238 251.737 L453.497 251.737 L453.497 287.756 L449.238 287.756 L449.238 251.737 Z" fill="#000000" fill-rule="nonzero" fill-opacity="1" /><path clip-path="url(#clip610)" d="M484.585 273.728 L484.585 275.811 L465.001 275.811 Q465.279 280.209 467.64 282.524 Q470.024 284.816 474.261 284.816 Q476.714 284.816 479.006 284.214 Q481.321 283.612 483.589 282.409 L483.589 286.436 Q481.298 287.408 478.89 287.918 Q476.483 288.427 474.006 288.427 Q467.802 288.427 464.168 284.816 Q460.557 281.205 460.557 275.047 Q460.557 268.682 463.983 264.955 Q467.432 261.205 473.265 261.205 Q478.497 261.205 481.529 264.585 Q484.585 267.941 484.585 273.728 M480.325 272.478 Q480.279 268.983 478.358 266.899 Q476.46 264.816 473.311 264.816 Q469.747 264.816 467.594 266.83 Q465.464 268.844 465.14 272.501 L480.325 272.478 Z" fill="#000000" fill-rule="nonzero" fill-opacity="1" /><path clip-path="url(#clip610)" d="M503.358 274.723 Q498.196 274.723 496.205 275.904 Q494.214 277.084 494.214 279.932 Q494.214 282.2 495.696 283.543 Q497.2 284.862 499.77 284.862 Q503.311 284.862 505.441 282.362 Q507.594 279.839 507.594 275.672 L507.594 274.723 L503.358 274.723 M511.853 272.964 L511.853 287.756 L507.594 287.756 L507.594 283.821 Q506.135 286.182 503.959 287.316 Q501.784 288.427 498.635 288.427 Q494.654 288.427 492.293 286.205 Q489.955 283.959 489.955 280.209 Q489.955 275.834 492.872 273.612 Q495.811 271.39 501.622 271.39 L507.594 271.39 L507.594 270.973 Q507.594 268.034 505.649 266.436 Q503.728 264.816 500.233 264.816 Q498.01 264.816 495.904 265.348 Q493.797 265.881 491.853 266.946 L491.853 263.01 Q494.191 262.108 496.39 261.668 Q498.589 261.205 500.672 261.205 Q506.297 261.205 509.075 264.122 Q511.853 267.038 511.853 272.964 Z" fill="#000000" fill-rule="nonzero" fill-opacity="1" /><path clip-path="url(#clip610)" d="M535.649 265.811 Q534.932 265.395 534.075 265.21 Q533.242 265.001 532.223 265.001 Q528.612 265.001 526.668 267.362 Q524.746 269.7 524.746 274.098 L524.746 287.756 L520.464 287.756 L520.464 261.83 L524.746 261.83 L524.746 265.858 Q526.089 263.497 528.242 262.362 Q530.395 261.205 533.473 261.205 Q533.913 261.205 534.445 261.274 Q534.978 261.321 535.626 261.436 L535.649 265.811 Z" fill="#000000" fill-rule="nonzero" fill-opacity="1" /><path clip-path="url(#clip610)" d="M560.834 272.108 L560.834 287.756 L556.575 287.756 L556.575 272.247 Q556.575 268.566 555.14 266.737 Q553.705 264.909 550.834 264.909 Q547.385 264.909 545.394 267.108 Q543.404 269.307 543.404 273.103 L543.404 287.756 L539.121 287.756 L539.121 261.83 L543.404 261.83 L543.404 265.858 Q544.931 263.52 546.992 262.362 Q549.075 261.205 551.783 261.205 Q556.251 261.205 558.543 263.983 Q560.834 266.737 560.834 272.108 Z" fill="#000000" fill-rule="nonzero" fill-opacity="1" /><path clip-path="url(#clip610)" d="M591.505 273.728 L591.505 275.811 L571.922 275.811 Q572.2 280.209 574.561 282.524 Q576.945 284.816 581.181 284.816 Q583.635 284.816 585.927 284.214 Q588.241 283.612 590.51 282.409 L590.51 286.436 Q588.218 287.408 585.811 287.918 Q583.403 288.427 580.927 288.427 Q574.723 288.427 571.089 284.816 Q567.478 281.205 567.478 275.047 Q567.478 268.682 570.904 264.955 Q574.353 261.205 580.186 261.205 Q585.417 261.205 588.45 264.585 Q591.505 267.941 591.505 273.728 M587.246 272.478 Q587.2 268.983 585.278 266.899 Q583.38 264.816 580.232 264.816 Q576.667 264.816 574.515 266.83 Q572.385 268.844 572.061 272.501 L587.246 272.478 Z" fill="#000000" fill-rule="nonzero" fill-opacity="1" /><path clip-path="url(#clip610)" d="M615.556 265.765 L615.556 251.737 L619.815 251.737 L619.815 287.756 L615.556 287.756 L615.556 283.867 Q614.214 286.182 612.153 287.316 Q610.116 288.427 607.246 288.427 Q602.547 288.427 599.584 284.677 Q596.644 280.927 596.644 274.816 Q596.644 268.705 599.584 264.955 Q602.547 261.205 607.246 261.205 Q610.116 261.205 612.153 262.339 Q614.214 263.45 615.556 265.765 M601.042 274.816 Q601.042 279.515 602.964 282.2 Q604.908 284.862 608.288 284.862 Q611.667 284.862 613.612 282.2 Q615.556 279.515 615.556 274.816 Q615.556 270.117 613.612 267.455 Q611.667 264.77 608.288 264.77 Q604.908 264.77 602.964 267.455 Q601.042 270.117 601.042 274.816 Z" fill="#000000" fill-rule="nonzero" fill-opacity="1" /><path clip-path="url(#clip610)" d="M658.773 275.696 L657.755 270.348 Q656.713 264.862 652.593 264.862 Q649.491 264.862 648.079 267.409 Q646.297 270.603 646.297 274.816 Q646.297 279.909 648.033 282.339 Q649.792 284.816 652.593 284.816 Q655.695 284.816 657.361 279.885 L658.773 275.696 M661.158 268.612 L663.449 261.83 L667.246 261.83 L662.5 275.881 L663.426 280.95 Q663.635 282.084 664.445 283.034 Q665.394 284.145 666.135 284.145 L668.172 284.145 L668.172 287.756 L665.625 287.756 Q663.449 287.756 661.505 285.811 Q660.556 284.839 660.162 282.802 Q659.098 285.371 656.922 287.385 Q655.903 288.334 652.593 288.334 Q647.153 288.334 644.514 284.816 Q641.806 281.182 641.806 274.816 Q641.806 268.01 644.746 264.816 Q648.01 261.251 652.593 261.251 Q659.792 261.251 661.158 268.612 Z" fill="#000000" fill-rule="nonzero" fill-opacity="1" /></svg>
