<?xml version="1.0" encoding="utf-8"?>
<svg xmlns="http://www.w3.org/2000/svg" xmlns:xlink="http://www.w3.org/1999/xlink" width="600" height="400" viewBox="0 0 2400 1600">
<defs>
  <clipPath id="clip020">
    <rect x="0" y="0" width="2400" height="1600"/>
  </clipPath>
</defs>
<path clip-path="url(#clip020)" d="M0 1600 L2400 1600 L2400 0 L0 0  Z" fill="#ffffff" fill-rule="evenodd" fill-opacity="1"/>
<defs>
  <clipPath id="clip021">
    <rect x="480" y="0" width="1681" height="1600"/>
  </clipPath>
</defs>
<path clip-path="url(#clip020)" d="M149.191 1486.45 L2352.76 1486.45 L2352.76 123.472 L149.191 123.472  Z" fill="#ffffff" fill-rule="evenodd" fill-opacity="1"/>
<defs>
  <clipPath id="clip022">
    <rect x="149" y="123" width="2205" height="1364"/>
  </clipPath>
</defs>
<polyline clip-path="url(#clip022)" style="stroke:#000000; stroke-linecap:round; stroke-linejoin:round; stroke-width:2; stroke-opacity:0.1; fill:none" points="363.004,1486.45 363.004,123.472 "/>
<polyline clip-path="url(#clip022)" style="stroke:#000000; stroke-linecap:round; stroke-linejoin:round; stroke-width:2; stroke-opacity:0.1; fill:none" points="792.819,1486.45 792.819,123.472 "/>
<polyline clip-path="url(#clip022)" style="stroke:#000000; stroke-linecap:round; stroke-linejoin:round; stroke-width:2; stroke-opacity:0.1; fill:none" points="1222.63,1486.45 1222.63,123.472 "/>
<polyline clip-path="url(#clip022)" style="stroke:#000000; stroke-linecap:round; stroke-linejoin:round; stroke-width:2; stroke-opacity:0.1; fill:none" points="1652.45,1486.45 1652.45,123.472 "/>
<polyline clip-path="url(#clip022)" style="stroke:#000000; stroke-linecap:round; stroke-linejoin:round; stroke-width:2; stroke-opacity:0.1; fill:none" points="2082.26,1486.45 2082.26,123.472 "/>
<polyline clip-path="url(#clip022)" style="stroke:#000000; stroke-linecap:round; stroke-linejoin:round; stroke-width:2; stroke-opacity:0.1; fill:none" points="149.191,1438.36 2352.76,1438.36 "/>
<polyline clip-path="url(#clip022)" style="stroke:#000000; stroke-linecap:round; stroke-linejoin:round; stroke-width:2; stroke-opacity:0.1; fill:none" points="149.191,1171.74 2352.76,1171.74 "/>
<polyline clip-path="url(#clip022)" style="stroke:#000000; stroke-linecap:round; stroke-linejoin:round; stroke-width:2; stroke-opacity:0.1; fill:none" points="149.191,905.115 2352.76,905.115 "/>
<polyline clip-path="url(#clip022)" style="stroke:#000000; stroke-linecap:round; stroke-linejoin:round; stroke-width:2; stroke-opacity:0.1; fill:none" points="149.191,638.492 2352.76,638.492 "/>
<polyline clip-path="url(#clip022)" style="stroke:#000000; stroke-linecap:round; stroke-linejoin:round; stroke-width:2; stroke-opacity:0.1; fill:none" points="149.191,371.87 2352.76,371.87 "/>
<polyline clip-path="url(#clip020)" style="stroke:#000000; stroke-linecap:round; stroke-linejoin:round; stroke-width:4; stroke-opacity:1; fill:none" points="149.191,1486.45 2352.76,1486.45 "/>
<polyline clip-path="url(#clip020)" style="stroke:#000000; stroke-linecap:round; stroke-linejoin:round; stroke-width:4; stroke-opacity:1; fill:none" points="363.004,1486.45 363.004,1467.55 "/>
<polyline clip-path="url(#clip020)" style="stroke:#000000; stroke-linecap:round; stroke-linejoin:round; stroke-width:4; stroke-opacity:1; fill:none" points="792.819,1486.45 792.819,1467.55 "/>
<polyline clip-path="url(#clip020)" style="stroke:#000000; stroke-linecap:round; stroke-linejoin:round; stroke-width:4; stroke-opacity:1; fill:none" points="1222.63,1486.45 1222.63,1467.55 "/>
<polyline clip-path="url(#clip020)" style="stroke:#000000; stroke-linecap:round; stroke-linejoin:round; stroke-width:4; stroke-opacity:1; fill:none" points="1652.45,1486.45 1652.45,1467.55 "/>
<polyline clip-path="url(#clip020)" style="stroke:#000000; stroke-linecap:round; stroke-linejoin:round; stroke-width:4; stroke-opacity:1; fill:none" points="2082.26,1486.45 2082.26,1467.55 "/>
<path clip-path="url(#clip020)" d="M332.946 1532.02 L362.622 1532.02 L362.622 1535.95 L332.946 1535.95 L332.946 1532.02 Z" fill="#000000" fill-rule="nonzero" fill-opacity="1" /><path clip-path="url(#clip020)" d="M376.742 1544.91 L393.062 1544.91 L393.062 1548.85 L371.117 1548.85 L371.117 1544.91 Q373.779 1542.16 378.363 1537.53 Q382.969 1532.88 384.15 1531.53 Q386.395 1529.01 387.275 1527.27 Q388.178 1525.51 388.178 1523.82 Q388.178 1521.07 386.233 1519.33 Q384.312 1517.6 381.21 1517.6 Q379.011 1517.6 376.557 1518.36 Q374.127 1519.13 371.349 1520.68 L371.349 1515.95 Q374.173 1514.82 376.627 1514.24 Q379.08 1513.66 381.117 1513.66 Q386.488 1513.66 389.682 1516.35 Q392.877 1519.03 392.877 1523.52 Q392.877 1525.65 392.066 1527.57 Q391.279 1529.47 389.173 1532.07 Q388.594 1532.74 385.492 1535.95 Q382.391 1539.15 376.742 1544.91 Z" fill="#000000" fill-rule="nonzero" fill-opacity="1" /><path clip-path="url(#clip020)" d="M762.576 1532.02 L792.252 1532.02 L792.252 1535.95 L762.576 1535.95 L762.576 1532.02 Z" fill="#000000" fill-rule="nonzero" fill-opacity="1" /><path clip-path="url(#clip020)" d="M803.154 1544.91 L810.793 1544.91 L810.793 1518.55 L802.483 1520.21 L802.483 1515.95 L810.747 1514.29 L815.423 1514.29 L815.423 1544.91 L823.062 1544.91 L823.062 1548.85 L803.154 1548.85 L803.154 1544.91 Z" fill="#000000" fill-rule="nonzero" fill-opacity="1" /><path clip-path="url(#clip020)" d="M1222.63 1517.37 Q1219.02 1517.37 1217.19 1520.93 Q1215.39 1524.47 1215.39 1531.6 Q1215.39 1538.71 1217.19 1542.27 Q1219.02 1545.82 1222.63 1545.82 Q1226.27 1545.82 1228.07 1542.27 Q1229.9 1538.71 1229.9 1531.6 Q1229.9 1524.47 1228.07 1520.93 Q1226.27 1517.37 1222.63 1517.37 M1222.63 1513.66 Q1228.44 1513.66 1231.5 1518.27 Q1234.58 1522.85 1234.58 1531.6 Q1234.58 1540.33 1231.5 1544.94 Q1228.44 1549.52 1222.63 1549.52 Q1216.82 1549.52 1213.74 1544.94 Q1210.69 1540.33 1210.69 1531.6 Q1210.69 1522.85 1213.74 1518.27 Q1216.82 1513.66 1222.63 1513.66 Z" fill="#000000" fill-rule="nonzero" fill-opacity="1" /><path clip-path="url(#clip020)" d="M1642.83 1544.91 L1650.47 1544.91 L1650.47 1518.55 L1642.16 1520.21 L1642.16 1515.95 L1650.42 1514.29 L1655.1 1514.29 L1655.1 1544.91 L1662.74 1544.91 L1662.74 1548.85 L1642.83 1548.85 L1642.83 1544.91 Z" fill="#000000" fill-rule="nonzero" fill-opacity="1" /><path clip-path="url(#clip020)" d="M2076.92 1544.91 L2093.24 1544.91 L2093.24 1548.85 L2071.29 1548.85 L2071.29 1544.91 Q2073.95 1542.16 2078.54 1537.53 Q2083.14 1532.88 2084.32 1531.53 Q2086.57 1529.01 2087.45 1527.27 Q2088.35 1525.51 2088.35 1523.82 Q2088.35 1521.07 2086.41 1519.33 Q2084.49 1517.6 2081.38 1517.6 Q2079.18 1517.6 2076.73 1518.36 Q2074.3 1519.13 2071.52 1520.68 L2071.52 1515.95 Q2074.35 1514.82 2076.8 1514.24 Q2079.25 1513.66 2081.29 1513.66 Q2086.66 1513.66 2089.86 1516.35 Q2093.05 1519.03 2093.05 1523.52 Q2093.05 1525.65 2092.24 1527.57 Q2091.45 1529.47 2089.35 1532.07 Q2088.77 1532.74 2085.67 1535.95 Q2082.56 1539.15 2076.92 1544.91 Z" fill="#000000" fill-rule="nonzero" fill-opacity="1" /><polyline clip-path="url(#clip020)" style="stroke:#000000; stroke-linecap:round; stroke-linejoin:round; stroke-width:4; stroke-opacity:1; fill:none" points="149.191,1486.45 149.191,123.472 "/>
<polyline clip-path="url(#clip020)" style="stroke:#000000; stroke-linecap:round; stroke-linejoin:round; stroke-width:4; stroke-opacity:1; fill:none" points="149.191,1438.36 168.089,1438.36 "/>
<polyline clip-path="url(#clip020)" style="stroke:#000000; stroke-linecap:round; stroke-linejoin:round; stroke-width:4; stroke-opacity:1; fill:none" points="149.191,1171.74 168.089,1171.74 "/>
<polyline clip-path="url(#clip020)" style="stroke:#000000; stroke-linecap:round; stroke-linejoin:round; stroke-width:4; stroke-opacity:1; fill:none" points="149.191,905.115 168.089,905.115 "/>
<polyline clip-path="url(#clip020)" style="stroke:#000000; stroke-linecap:round; stroke-linejoin:round; stroke-width:4; stroke-opacity:1; fill:none" points="149.191,638.492 168.089,638.492 "/>
<polyline clip-path="url(#clip020)" style="stroke:#000000; stroke-linecap:round; stroke-linejoin:round; stroke-width:4; stroke-opacity:1; fill:none" points="149.191,371.87 168.089,371.87 "/>
<path clip-path="url(#clip020)" d="M50.9921 1438.81 L80.6679 1438.81 L80.6679 1442.75 L50.9921 1442.75 L50.9921 1438.81 Z" fill="#000000" fill-rule="nonzero" fill-opacity="1" /><path clip-path="url(#clip020)" d="M103.608 1425.15 L91.8021 1443.6 L103.608 1443.6 L103.608 1425.15 M102.381 1421.08 L108.26 1421.08 L108.26 1443.6 L113.191 1443.6 L113.191 1447.49 L108.26 1447.49 L108.26 1455.64 L103.608 1455.64 L103.608 1447.49 L88.0058 1447.49 L88.0058 1442.98 L102.381 1421.08 Z" fill="#000000" fill-rule="nonzero" fill-opacity="1" /><path clip-path="url(#clip020)" d="M53.0754 1172.19 L82.7512 1172.19 L82.7512 1176.12 L53.0754 1176.12 L53.0754 1172.19 Z" fill="#000000" fill-rule="nonzero" fill-opacity="1" /><path clip-path="url(#clip020)" d="M96.8715 1185.08 L113.191 1185.08 L113.191 1189.02 L91.2465 1189.02 L91.2465 1185.08 Q93.9086 1182.33 98.4919 1177.7 Q103.098 1173.04 104.279 1171.7 Q106.524 1169.18 107.404 1167.44 Q108.307 1165.68 108.307 1163.99 Q108.307 1161.24 106.362 1159.5 Q104.441 1157.77 101.339 1157.77 Q99.14 1157.77 96.6863 1158.53 Q94.2558 1159.3 91.478 1160.85 L91.478 1156.12 Q94.3021 1154.99 96.7558 1154.41 Q99.2095 1153.83 101.246 1153.83 Q106.617 1153.83 109.811 1156.52 Q113.006 1159.2 113.006 1163.69 Q113.006 1165.82 112.196 1167.74 Q111.408 1169.64 109.302 1172.23 Q108.723 1172.91 105.621 1176.12 Q102.52 1179.32 96.8715 1185.08 Z" fill="#000000" fill-rule="nonzero" fill-opacity="1" /><path clip-path="url(#clip020)" d="M101.246 890.913 Q97.6354 890.913 95.8067 894.478 Q94.0012 898.02 94.0012 905.149 Q94.0012 912.256 95.8067 915.821 Q97.6354 919.362 101.246 919.362 Q104.881 919.362 106.686 915.821 Q108.515 912.256 108.515 905.149 Q108.515 898.02 106.686 894.478 Q104.881 890.913 101.246 890.913 M101.246 887.21 Q107.057 887.21 110.112 891.816 Q113.191 896.399 113.191 905.149 Q113.191 913.876 110.112 918.483 Q107.057 923.066 101.246 923.066 Q95.4363 923.066 92.3576 918.483 Q89.3021 913.876 89.3021 905.149 Q89.3021 896.399 92.3576 891.816 Q95.4363 887.21 101.246 887.21 Z" fill="#000000" fill-rule="nonzero" fill-opacity="1" /><path clip-path="url(#clip020)" d="M96.8715 651.837 L113.191 651.837 L113.191 655.772 L91.2465 655.772 L91.2465 651.837 Q93.9086 649.082 98.4919 644.453 Q103.098 639.8 104.279 638.458 Q106.524 635.934 107.404 634.198 Q108.307 632.439 108.307 630.749 Q108.307 627.995 106.362 626.259 Q104.441 624.522 101.339 624.522 Q99.14 624.522 96.6863 625.286 Q94.2558 626.05 91.478 627.601 L91.478 622.879 Q94.3021 621.745 96.7558 621.166 Q99.2095 620.587 101.246 620.587 Q106.617 620.587 109.811 623.272 Q113.006 625.958 113.006 630.448 Q113.006 632.578 112.196 634.499 Q111.408 636.397 109.302 638.99 Q108.723 639.661 105.621 642.879 Q102.52 646.073 96.8715 651.837 Z" fill="#000000" fill-rule="nonzero" fill-opacity="1" /><path clip-path="url(#clip020)" d="M103.608 358.664 L91.8021 377.113 L103.608 377.113 L103.608 358.664 M102.381 354.59 L108.26 354.59 L108.26 377.113 L113.191 377.113 L113.191 381.002 L108.26 381.002 L108.26 389.15 L103.608 389.15 L103.608 381.002 L88.0058 381.002 L88.0058 376.488 L102.381 354.59 Z" fill="#000000" fill-rule="nonzero" fill-opacity="1" /><path clip-path="url(#clip020)" d="M348.959 44.2197 Q351.592 45.1109 354.063 48.0275 Q356.574 50.9442 359.086 56.0483 L367.39 72.576 L358.6 72.576 L350.862 57.061 Q347.865 50.9847 345.029 48.9997 Q342.234 47.0148 337.373 47.0148 L328.461 47.0148 L328.461 72.576 L320.278 72.576 L320.278 12.096 L338.75 12.096 Q349.121 12.096 354.225 16.4305 Q359.329 20.7649 359.329 29.5149 Q359.329 35.2267 356.655 38.994 Q354.022 42.7613 348.959 44.2197 M328.461 18.8205 L328.461 40.2903 L338.75 40.2903 Q344.665 40.2903 347.662 37.5762 Q350.7 34.8216 350.7 29.5149 Q350.7 24.2082 347.662 21.5346 Q344.665 18.8205 338.75 18.8205 L328.461 18.8205 Z" fill="#000000" fill-rule="nonzero" fill-opacity="1" /><path clip-path="url(#clip020)" d="M412.679 48.0275 L412.679 51.6733 L378.409 51.6733 Q378.895 59.3701 383.027 63.421 Q387.199 67.4314 394.612 67.4314 Q398.906 67.4314 402.917 66.3781 Q406.967 65.3249 410.937 63.2184 L410.937 70.267 Q406.927 71.9684 402.714 72.8596 Q398.501 73.7508 394.167 73.7508 Q383.31 73.7508 376.95 67.4314 Q370.631 61.1119 370.631 50.3365 Q370.631 39.1965 376.626 32.6746 Q382.662 26.1121 392.87 26.1121 Q402.025 26.1121 407.332 32.0264 Q412.679 37.9003 412.679 48.0275 M405.226 45.84 Q405.145 39.7232 401.782 36.0774 Q398.461 32.4315 392.951 32.4315 Q386.713 32.4315 382.946 35.9558 Q379.219 39.4801 378.652 45.8805 L405.226 45.84 Z" fill="#000000" fill-rule="nonzero" fill-opacity="1" /><path clip-path="url(#clip020)" d="M454.768 49.3643 Q454.768 41.2625 451.406 36.8065 Q448.084 32.3505 442.048 32.3505 Q436.053 32.3505 432.691 36.8065 Q429.369 41.2625 429.369 49.3643 Q429.369 57.4256 432.691 61.8816 Q436.053 66.3376 442.048 66.3376 Q448.084 66.3376 451.406 61.8816 Q454.768 57.4256 454.768 49.3643 M462.222 66.9452 Q462.222 78.5308 457.077 84.1616 Q451.933 89.8329 441.319 89.8329 Q437.39 89.8329 433.906 89.2252 Q430.422 88.6581 427.141 87.4428 L427.141 80.1917 Q430.422 81.9741 433.622 82.8248 Q436.823 83.6755 440.144 83.6755 Q447.477 83.6755 451.122 79.8271 Q454.768 76.0193 454.768 68.282 L454.768 64.5957 Q452.459 68.6061 448.854 70.5911 Q445.249 72.576 440.225 72.576 Q431.881 72.576 426.776 66.2161 Q421.672 59.8562 421.672 49.3643 Q421.672 38.832 426.776 32.472 Q431.881 26.1121 440.225 26.1121 Q445.249 26.1121 448.854 28.0971 Q452.459 30.082 454.768 34.0924 L454.768 27.2059 L462.222 27.2059 L462.222 66.9452 Z" fill="#000000" fill-rule="nonzero" fill-opacity="1" /><path clip-path="url(#clip020)" d="M503.865 34.1734 Q502.609 33.4443 501.111 33.1202 Q499.652 32.7556 497.87 32.7556 Q491.55 32.7556 488.148 36.8875 Q484.785 40.9789 484.785 48.6757 L484.785 72.576 L477.291 72.576 L477.291 27.2059 L484.785 27.2059 L484.785 34.2544 Q487.135 30.1225 490.902 28.1376 Q494.67 26.1121 500.057 26.1121 Q500.827 26.1121 501.759 26.2337 Q502.69 26.3147 503.825 26.5172 L503.865 34.1734 Z" fill="#000000" fill-rule="nonzero" fill-opacity="1" /><path clip-path="url(#clip020)" d="M548.668 48.0275 L548.668 51.6733 L514.397 51.6733 Q514.884 59.3701 519.016 63.421 Q523.188 67.4314 530.601 67.4314 Q534.895 67.4314 538.905 66.3781 Q542.956 65.3249 546.926 63.2184 L546.926 70.267 Q542.916 71.9684 538.703 72.8596 Q534.49 73.7508 530.155 73.7508 Q519.299 73.7508 512.939 67.4314 Q506.62 61.1119 506.62 50.3365 Q506.62 39.1965 512.615 32.6746 Q518.651 26.1121 528.859 26.1121 Q538.014 26.1121 543.321 32.0264 Q548.668 37.9003 548.668 48.0275 M541.214 45.84 Q541.133 39.7232 537.771 36.0774 Q534.449 32.4315 528.94 32.4315 Q522.702 32.4315 518.934 35.9558 Q515.208 39.4801 514.641 45.8805 L541.214 45.84 Z" fill="#000000" fill-rule="nonzero" fill-opacity="1" /><path clip-path="url(#clip020)" d="M589.825 28.5427 L589.825 35.5912 Q586.666 33.9709 583.263 33.1607 Q579.86 32.3505 576.214 32.3505 Q570.665 32.3505 567.869 34.0519 Q565.115 35.7533 565.115 39.156 Q565.115 41.7486 567.1 43.2475 Q569.085 44.7058 575.08 46.0426 L577.632 46.6097 Q585.572 48.3111 588.894 51.4303 Q592.256 54.509 592.256 60.0587 Q592.256 66.3781 587.233 70.0644 Q582.25 73.7508 573.5 73.7508 Q569.854 73.7508 565.884 73.0216 Q561.955 72.3329 557.58 70.9151 L557.58 63.2184 Q561.712 65.3654 565.722 66.4591 Q569.733 67.5124 573.662 67.5124 Q578.928 67.5124 581.764 65.73 Q584.6 63.9071 584.6 60.6258 Q584.6 57.5877 582.534 55.9673 Q580.508 54.3469 573.581 52.8481 L570.989 52.2405 Q564.062 50.7821 560.983 47.7845 Q557.904 44.7463 557.904 39.4801 Q557.904 33.0797 562.441 29.5959 Q566.978 26.1121 575.323 26.1121 Q579.455 26.1121 583.101 26.7198 Q586.747 27.3274 589.825 28.5427 Z" fill="#000000" fill-rule="nonzero" fill-opacity="1" /><path clip-path="url(#clip020)" d="M633.048 28.5427 L633.048 35.5912 Q629.889 33.9709 626.486 33.1607 Q623.083 32.3505 619.437 32.3505 Q613.888 32.3505 611.093 34.0519 Q608.338 35.7533 608.338 39.156 Q608.338 41.7486 610.323 43.2475 Q612.308 44.7058 618.303 46.0426 L620.855 46.6097 Q628.795 48.3111 632.117 51.4303 Q635.479 54.509 635.479 60.0587 Q635.479 66.3781 630.456 70.0644 Q625.473 73.7508 616.723 73.7508 Q613.077 73.7508 609.108 73.0216 Q605.178 72.3329 600.803 70.9151 L600.803 63.2184 Q604.935 65.3654 608.946 66.4591 Q612.956 67.5124 616.885 67.5124 Q622.152 67.5124 624.987 65.73 Q627.823 63.9071 627.823 60.6258 Q627.823 57.5877 625.757 55.9673 Q623.731 54.3469 616.804 52.8481 L614.212 52.2405 Q607.285 50.7821 604.206 47.7845 Q601.127 44.7463 601.127 39.4801 Q601.127 33.0797 605.664 29.5959 Q610.201 26.1121 618.546 26.1121 Q622.678 26.1121 626.324 26.7198 Q629.97 27.3274 633.048 28.5427 Z" fill="#000000" fill-rule="nonzero" fill-opacity="1" /><path clip-path="url(#clip020)" d="M647.348 27.2059 L654.802 27.2059 L654.802 72.576 L647.348 72.576 L647.348 27.2059 M647.348 9.54393 L654.802 9.54393 L654.802 18.9825 L647.348 18.9825 L647.348 9.54393 Z" fill="#000000" fill-rule="nonzero" fill-opacity="1" /><path clip-path="url(#clip020)" d="M687.979 32.4315 Q681.983 32.4315 678.5 37.1306 Q675.016 41.7891 675.016 49.9314 Q675.016 58.0738 678.459 62.7728 Q681.943 67.4314 687.979 67.4314 Q693.934 67.4314 697.417 62.7323 Q700.901 58.0333 700.901 49.9314 Q700.901 41.8701 697.417 37.1711 Q693.934 32.4315 687.979 32.4315 M687.979 26.1121 Q697.701 26.1121 703.251 32.4315 Q708.8 38.7509 708.8 49.9314 Q708.8 61.0714 703.251 67.4314 Q697.701 73.7508 687.979 73.7508 Q678.216 73.7508 672.666 67.4314 Q667.157 61.0714 667.157 49.9314 Q667.157 38.7509 672.666 32.4315 Q678.216 26.1121 687.979 26.1121 Z" fill="#000000" fill-rule="nonzero" fill-opacity="1" /><path clip-path="url(#clip020)" d="M758.87 45.1919 L758.87 72.576 L751.416 72.576 L751.416 45.4349 Q751.416 38.994 748.904 35.7938 Q746.393 32.5936 741.37 32.5936 Q735.334 32.5936 731.85 36.4419 Q728.366 40.2903 728.366 46.9338 L728.366 72.576 L720.872 72.576 L720.872 27.2059 L728.366 27.2059 L728.366 34.2544 Q731.04 30.163 734.645 28.1376 Q738.291 26.1121 743.031 26.1121 Q750.849 26.1121 754.859 30.9732 Q758.87 35.7938 758.87 45.1919 Z" fill="#000000" fill-rule="nonzero" fill-opacity="1" /><path clip-path="url(#clip020)" d="M829.031 28.5427 L829.031 35.5912 Q825.871 33.9709 822.469 33.1607 Q819.066 32.3505 815.42 32.3505 Q809.87 32.3505 807.075 34.0519 Q804.321 35.7533 804.321 39.156 Q804.321 41.7486 806.306 43.2475 Q808.291 44.7058 814.286 46.0426 L816.838 46.6097 Q824.778 48.3111 828.099 51.4303 Q831.462 54.509 831.462 60.0587 Q831.462 66.3781 826.439 70.0644 Q821.456 73.7508 812.706 73.7508 Q809.06 73.7508 805.09 73.0216 Q801.161 72.3329 796.786 70.9151 L796.786 63.2184 Q800.918 65.3654 804.928 66.4591 Q808.939 67.5124 812.868 67.5124 Q818.134 67.5124 820.97 65.73 Q823.806 63.9071 823.806 60.6258 Q823.806 57.5877 821.74 55.9673 Q819.714 54.3469 812.787 52.8481 L810.194 52.2405 Q803.267 50.7821 800.189 47.7845 Q797.11 44.7463 797.11 39.4801 Q797.11 33.0797 801.647 29.5959 Q806.184 26.1121 814.529 26.1121 Q818.661 26.1121 822.307 26.7198 Q825.953 27.3274 829.031 28.5427 Z" fill="#000000" fill-rule="nonzero" fill-opacity="1" /><path clip-path="url(#clip020)" d="M843.331 9.54393 L850.785 9.54393 L850.785 72.576 L843.331 72.576 L843.331 9.54393 Z" fill="#000000" fill-rule="nonzero" fill-opacity="1" /><path clip-path="url(#clip020)" d="M883.961 32.4315 Q877.966 32.4315 874.482 37.1306 Q870.999 41.7891 870.999 49.9314 Q870.999 58.0738 874.442 62.7728 Q877.926 67.4314 883.961 67.4314 Q889.916 67.4314 893.4 62.7323 Q896.884 58.0333 896.884 49.9314 Q896.884 41.8701 893.4 37.1711 Q889.916 32.4315 883.961 32.4315 M883.961 26.1121 Q893.684 26.1121 899.233 32.4315 Q904.783 38.7509 904.783 49.9314 Q904.783 61.0714 899.233 67.4314 Q893.684 73.7508 883.961 73.7508 Q874.199 73.7508 868.649 67.4314 Q863.14 61.0714 863.14 49.9314 Q863.14 38.7509 868.649 32.4315 Q874.199 26.1121 883.961 26.1121 Z" fill="#000000" fill-rule="nonzero" fill-opacity="1" /><path clip-path="url(#clip020)" d="M924.349 65.7705 L924.349 89.8329 L916.855 89.8329 L916.855 27.2059 L924.349 27.2059 L924.349 34.0924 Q926.699 30.0415 930.263 28.0971 Q933.869 26.1121 938.851 26.1121 Q947.115 26.1121 952.26 32.6746 Q957.445 39.2371 957.445 49.9314 Q957.445 60.6258 952.26 67.1883 Q947.115 73.7508 938.851 73.7508 Q933.869 73.7508 930.263 71.8063 Q926.699 69.8214 924.349 65.7705 M949.708 49.9314 Q949.708 41.7081 946.305 37.0496 Q942.943 32.3505 937.028 32.3505 Q931.114 32.3505 927.711 37.0496 Q924.349 41.7081 924.349 49.9314 Q924.349 58.1548 927.711 62.8538 Q931.114 67.5124 937.028 67.5124 Q942.943 67.5124 946.305 62.8538 Q949.708 58.1548 949.708 49.9314 Z" fill="#000000" fill-rule="nonzero" fill-opacity="1" /><path clip-path="url(#clip020)" d="M1008.61 48.0275 L1008.61 51.6733 L974.337 51.6733 Q974.823 59.3701 978.955 63.421 Q983.128 67.4314 990.541 67.4314 Q994.835 67.4314 998.845 66.3781 Q1002.9 65.3249 1006.87 63.2184 L1006.87 70.267 Q1002.86 71.9684 998.643 72.8596 Q994.43 73.7508 990.095 73.7508 Q979.239 73.7508 972.879 67.4314 Q966.559 61.1119 966.559 50.3365 Q966.559 39.1965 972.555 32.6746 Q978.591 26.1121 988.799 26.1121 Q997.954 26.1121 1003.26 32.0264 Q1008.61 37.9003 1008.61 48.0275 M1001.15 45.84 Q1001.07 39.7232 997.711 36.0774 Q994.389 32.4315 988.88 32.4315 Q982.641 32.4315 978.874 35.9558 Q975.147 39.4801 974.58 45.8805 L1001.15 45.84 Z" fill="#000000" fill-rule="nonzero" fill-opacity="1" /><path clip-path="url(#clip020)" d="M1076.14 28.5427 L1076.14 35.5912 Q1072.98 33.9709 1069.57 33.1607 Q1066.17 32.3505 1062.53 32.3505 Q1056.98 32.3505 1054.18 34.0519 Q1051.43 35.7533 1051.43 39.156 Q1051.43 41.7486 1053.41 43.2475 Q1055.4 44.7058 1061.39 46.0426 L1063.94 46.6097 Q1071.88 48.3111 1075.2 51.4303 Q1078.57 54.509 1078.57 60.0587 Q1078.57 66.3781 1073.54 70.0644 Q1068.56 73.7508 1059.81 73.7508 Q1056.17 73.7508 1052.2 73.0216 Q1048.27 72.3329 1043.89 70.9151 L1043.89 63.2184 Q1048.02 65.3654 1052.03 66.4591 Q1056.04 67.5124 1059.97 67.5124 Q1065.24 67.5124 1068.08 65.73 Q1070.91 63.9071 1070.91 60.6258 Q1070.91 57.5877 1068.84 55.9673 Q1066.82 54.3469 1059.89 52.8481 L1057.3 52.2405 Q1050.37 50.7821 1047.29 47.7845 Q1044.22 44.7463 1044.22 39.4801 Q1044.22 33.0797 1048.75 29.5959 Q1053.29 26.1121 1061.63 26.1121 Q1065.77 26.1121 1069.41 26.7198 Q1073.06 27.3274 1076.14 28.5427 Z" fill="#000000" fill-rule="nonzero" fill-opacity="1" /><path clip-path="url(#clip020)" d="M1129.24 48.0275 L1129.24 51.6733 L1094.97 51.6733 Q1095.46 59.3701 1099.59 63.421 Q1103.76 67.4314 1111.18 67.4314 Q1115.47 67.4314 1119.48 66.3781 Q1123.53 65.3249 1127.5 63.2184 L1127.5 70.267 Q1123.49 71.9684 1119.28 72.8596 Q1115.07 73.7508 1110.73 73.7508 Q1099.87 73.7508 1093.51 67.4314 Q1087.2 61.1119 1087.2 50.3365 Q1087.2 39.1965 1093.19 32.6746 Q1099.23 26.1121 1109.43 26.1121 Q1118.59 26.1121 1123.9 32.0264 Q1129.24 37.9003 1129.24 48.0275 M1121.79 45.84 Q1121.71 39.7232 1118.35 36.0774 Q1115.03 32.4315 1109.52 32.4315 Q1103.28 32.4315 1099.51 35.9558 Q1095.78 39.4801 1095.22 45.8805 L1121.79 45.84 Z" fill="#000000" fill-rule="nonzero" fill-opacity="1" /><path clip-path="url(#clip020)" d="M1179.19 45.1919 L1179.19 72.576 L1171.74 72.576 L1171.74 45.4349 Q1171.74 38.994 1169.23 35.7938 Q1166.71 32.5936 1161.69 32.5936 Q1155.66 32.5936 1152.17 36.4419 Q1148.69 40.2903 1148.69 46.9338 L1148.69 72.576 L1141.19 72.576 L1141.19 27.2059 L1148.69 27.2059 L1148.69 34.2544 Q1151.36 30.163 1154.97 28.1376 Q1158.61 26.1121 1163.35 26.1121 Q1171.17 26.1121 1175.18 30.9732 Q1179.19 35.7938 1179.19 45.1919 Z" fill="#000000" fill-rule="nonzero" fill-opacity="1" /><path clip-path="url(#clip020)" d="M1222.98 28.5427 L1222.98 35.5912 Q1219.82 33.9709 1216.42 33.1607 Q1213.02 32.3505 1209.37 32.3505 Q1203.82 32.3505 1201.03 34.0519 Q1198.27 35.7533 1198.27 39.156 Q1198.27 41.7486 1200.26 43.2475 Q1202.24 44.7058 1208.24 46.0426 L1210.79 46.6097 Q1218.73 48.3111 1222.05 51.4303 Q1225.41 54.509 1225.41 60.0587 Q1225.41 66.3781 1220.39 70.0644 Q1215.41 73.7508 1206.66 73.7508 Q1203.01 73.7508 1199.04 73.0216 Q1195.11 72.3329 1190.74 70.9151 L1190.74 63.2184 Q1194.87 65.3654 1198.88 66.4591 Q1202.89 67.5124 1206.82 67.5124 Q1212.08 67.5124 1214.92 65.73 Q1217.76 63.9071 1217.76 60.6258 Q1217.76 57.5877 1215.69 55.9673 Q1213.66 54.3469 1206.74 52.8481 L1204.14 52.2405 Q1197.22 50.7821 1194.14 47.7845 Q1191.06 44.7463 1191.06 39.4801 Q1191.06 33.0797 1195.6 29.5959 Q1200.13 26.1121 1208.48 26.1121 Q1212.61 26.1121 1216.26 26.7198 Q1219.9 27.3274 1222.98 28.5427 Z" fill="#000000" fill-rule="nonzero" fill-opacity="1" /><path clip-path="url(#clip020)" d="M1237.28 27.2059 L1244.73 27.2059 L1244.73 72.576 L1237.28 72.576 L1237.28 27.2059 M1237.28 9.54393 L1244.73 9.54393 L1244.73 18.9825 L1237.28 18.9825 L1237.28 9.54393 Z" fill="#000000" fill-rule="nonzero" fill-opacity="1" /><path clip-path="url(#clip020)" d="M1267.7 14.324 L1267.7 27.2059 L1283.06 27.2059 L1283.06 32.9987 L1267.7 32.9987 L1267.7 57.6282 Q1267.7 63.1779 1269.2 64.7578 Q1270.74 66.3376 1275.4 66.3376 L1283.06 66.3376 L1283.06 72.576 L1275.4 72.576 Q1266.77 72.576 1263.49 69.3758 Q1260.21 66.1351 1260.21 57.6282 L1260.21 32.9987 L1254.74 32.9987 L1254.74 27.2059 L1260.21 27.2059 L1260.21 14.324 L1267.7 14.324 Z" fill="#000000" fill-rule="nonzero" fill-opacity="1" /><path clip-path="url(#clip020)" d="M1292.86 27.2059 L1300.31 27.2059 L1300.31 72.576 L1292.86 72.576 L1292.86 27.2059 M1292.86 9.54393 L1300.31 9.54393 L1300.31 18.9825 L1292.86 18.9825 L1292.86 9.54393 Z" fill="#000000" fill-rule="nonzero" fill-opacity="1" /><path clip-path="url(#clip020)" d="M1310.56 27.2059 L1318.46 27.2059 L1332.64 65.2844 L1346.82 27.2059 L1354.72 27.2059 L1337.7 72.576 L1327.58 72.576 L1310.56 27.2059 Z" fill="#000000" fill-rule="nonzero" fill-opacity="1" /><path clip-path="url(#clip020)" d="M1365.01 27.2059 L1372.46 27.2059 L1372.46 72.576 L1365.01 72.576 L1365.01 27.2059 M1365.01 9.54393 L1372.46 9.54393 L1372.46 18.9825 L1365.01 18.9825 L1365.01 9.54393 Z" fill="#000000" fill-rule="nonzero" fill-opacity="1" /><path clip-path="url(#clip020)" d="M1395.43 14.324 L1395.43 27.2059 L1410.78 27.2059 L1410.78 32.9987 L1395.43 32.9987 L1395.43 57.6282 Q1395.43 63.1779 1396.93 64.7578 Q1398.47 66.3376 1403.13 66.3376 L1410.78 66.3376 L1410.78 72.576 L1403.13 72.576 Q1394.5 72.576 1391.22 69.3758 Q1387.93 66.1351 1387.93 57.6282 L1387.93 32.9987 L1382.47 32.9987 L1382.47 27.2059 L1387.93 27.2059 L1387.93 14.324 L1395.43 14.324 Z" fill="#000000" fill-rule="nonzero" fill-opacity="1" /><path clip-path="url(#clip020)" d="M1439.46 76.7889 Q1436.3 84.8907 1433.3 87.3618 Q1430.31 89.8329 1425.28 89.8329 L1419.33 89.8329 L1419.33 83.5945 L1423.7 83.5945 Q1426.78 83.5945 1428.48 82.1361 Q1430.19 80.6778 1432.25 75.2496 L1433.59 71.8468 L1415.24 27.2059 L1423.14 27.2059 L1437.31 62.6918 L1451.49 27.2059 L1459.39 27.2059 L1439.46 76.7889 Z" fill="#000000" fill-rule="nonzero" fill-opacity="1" /><path clip-path="url(#clip020)" d="M1491.72 27.2059 L1499.17 27.2059 L1508.49 62.6108 L1517.77 27.2059 L1526.56 27.2059 L1535.87 62.6108 L1545.15 27.2059 L1552.6 27.2059 L1540.73 72.576 L1531.94 72.576 L1522.18 35.3887 L1512.38 72.576 L1503.59 72.576 L1491.72 27.2059 Z" fill="#000000" fill-rule="nonzero" fill-opacity="1" /><path clip-path="url(#clip020)" d="M1563.91 27.2059 L1571.36 27.2059 L1571.36 72.576 L1563.91 72.576 L1563.91 27.2059 M1563.91 9.54393 L1571.36 9.54393 L1571.36 18.9825 L1563.91 18.9825 L1563.91 9.54393 Z" fill="#000000" fill-rule="nonzero" fill-opacity="1" /><path clip-path="url(#clip020)" d="M1594.33 14.324 L1594.33 27.2059 L1609.68 27.2059 L1609.68 32.9987 L1594.33 32.9987 L1594.33 57.6282 Q1594.33 63.1779 1595.83 64.7578 Q1597.37 66.3376 1602.02 66.3376 L1609.68 66.3376 L1609.68 72.576 L1602.02 72.576 Q1593.4 72.576 1590.12 69.3758 Q1586.83 66.1351 1586.83 57.6282 L1586.83 32.9987 L1581.37 32.9987 L1581.37 27.2059 L1586.83 27.2059 L1586.83 14.324 L1594.33 14.324 Z" fill="#000000" fill-rule="nonzero" fill-opacity="1" /><path clip-path="url(#clip020)" d="M1657.2 45.1919 L1657.2 72.576 L1649.74 72.576 L1649.74 45.4349 Q1649.74 38.994 1647.23 35.7938 Q1644.72 32.5936 1639.7 32.5936 Q1633.66 32.5936 1630.18 36.4419 Q1626.69 40.2903 1626.69 46.9338 L1626.69 72.576 L1619.2 72.576 L1619.2 9.54393 L1626.69 9.54393 L1626.69 34.2544 Q1629.37 30.163 1632.97 28.1376 Q1636.62 26.1121 1641.36 26.1121 Q1649.18 26.1121 1653.19 30.9732 Q1657.2 35.7938 1657.2 45.1919 Z" fill="#000000" fill-rule="nonzero" fill-opacity="1" /><path clip-path="url(#clip020)" d="M1724.73 34.1734 Q1723.47 33.4443 1721.97 33.1202 Q1720.51 32.7556 1718.73 32.7556 Q1712.41 32.7556 1709.01 36.8875 Q1705.65 40.9789 1705.65 48.6757 L1705.65 72.576 L1698.15 72.576 L1698.15 27.2059 L1705.65 27.2059 L1705.65 34.2544 Q1708 30.1225 1711.76 28.1376 Q1715.53 26.1121 1720.92 26.1121 Q1721.69 26.1121 1722.62 26.2337 Q1723.55 26.3147 1724.69 26.5172 L1724.73 34.1734 Z" fill="#000000" fill-rule="nonzero" fill-opacity="1" /><path clip-path="url(#clip020)" d="M1769.53 48.0275 L1769.53 51.6733 L1735.26 51.6733 Q1735.75 59.3701 1739.88 63.421 Q1744.05 67.4314 1751.46 67.4314 Q1755.76 67.4314 1759.77 66.3781 Q1763.82 65.3249 1767.79 63.2184 L1767.79 70.267 Q1763.78 71.9684 1759.56 72.8596 Q1755.35 73.7508 1751.02 73.7508 Q1740.16 73.7508 1733.8 67.4314 Q1727.48 61.1119 1727.48 50.3365 Q1727.48 39.1965 1733.48 32.6746 Q1739.51 26.1121 1749.72 26.1121 Q1758.88 26.1121 1764.18 32.0264 Q1769.53 37.9003 1769.53 48.0275 M1762.08 45.84 Q1761.99 39.7232 1758.63 36.0774 Q1755.31 32.4315 1749.8 32.4315 Q1743.56 32.4315 1739.8 35.9558 Q1736.07 39.4801 1735.5 45.8805 L1762.08 45.84 Z" fill="#000000" fill-rule="nonzero" fill-opacity="1" /><path clip-path="url(#clip020)" d="M1810.69 28.5427 L1810.69 35.5912 Q1807.53 33.9709 1804.12 33.1607 Q1800.72 32.3505 1797.08 32.3505 Q1791.53 32.3505 1788.73 34.0519 Q1785.98 35.7533 1785.98 39.156 Q1785.98 41.7486 1787.96 43.2475 Q1789.95 44.7058 1795.94 46.0426 L1798.49 46.6097 Q1806.43 48.3111 1809.76 51.4303 Q1813.12 54.509 1813.12 60.0587 Q1813.12 66.3781 1808.09 70.0644 Q1803.11 73.7508 1794.36 73.7508 Q1790.72 73.7508 1786.75 73.0216 Q1782.82 72.3329 1778.44 70.9151 L1778.44 63.2184 Q1782.57 65.3654 1786.58 66.4591 Q1790.59 67.5124 1794.52 67.5124 Q1799.79 67.5124 1802.63 65.73 Q1805.46 63.9071 1805.46 60.6258 Q1805.46 57.5877 1803.4 55.9673 Q1801.37 54.3469 1794.44 52.8481 L1791.85 52.2405 Q1784.92 50.7821 1781.84 47.7845 Q1778.77 44.7463 1778.77 39.4801 Q1778.77 33.0797 1783.3 29.5959 Q1787.84 26.1121 1796.18 26.1121 Q1800.32 26.1121 1803.96 26.7198 Q1807.61 27.3274 1810.69 28.5427 Z" fill="#000000" fill-rule="nonzero" fill-opacity="1" /><path clip-path="url(#clip020)" d="M1832.2 65.7705 L1832.2 89.8329 L1824.7 89.8329 L1824.7 27.2059 L1832.2 27.2059 L1832.2 34.0924 Q1834.55 30.0415 1838.11 28.0971 Q1841.72 26.1121 1846.7 26.1121 Q1854.96 26.1121 1860.11 32.6746 Q1865.29 39.2371 1865.29 49.9314 Q1865.29 60.6258 1860.11 67.1883 Q1854.96 73.7508 1846.7 73.7508 Q1841.72 73.7508 1838.11 71.8063 Q1834.55 69.8214 1832.2 65.7705 M1857.56 49.9314 Q1857.56 41.7081 1854.15 37.0496 Q1850.79 32.3505 1844.88 32.3505 Q1838.96 32.3505 1835.56 37.0496 Q1832.2 41.7081 1832.2 49.9314 Q1832.2 58.1548 1835.56 62.8538 Q1838.96 67.5124 1844.88 67.5124 Q1850.79 67.5124 1854.15 62.8538 Q1857.56 58.1548 1857.56 49.9314 Z" fill="#000000" fill-rule="nonzero" fill-opacity="1" /><path clip-path="url(#clip020)" d="M1916.46 48.0275 L1916.46 51.6733 L1882.19 51.6733 Q1882.67 59.3701 1886.8 63.421 Q1890.98 67.4314 1898.39 67.4314 Q1902.68 67.4314 1906.69 66.3781 Q1910.74 65.3249 1914.71 63.2184 L1914.71 70.267 Q1910.7 71.9684 1906.49 72.8596 Q1902.28 73.7508 1897.94 73.7508 Q1887.09 73.7508 1880.73 67.4314 Q1874.41 61.1119 1874.41 50.3365 Q1874.41 39.1965 1880.4 32.6746 Q1886.44 26.1121 1896.65 26.1121 Q1905.8 26.1121 1911.11 32.0264 Q1916.46 37.9003 1916.46 48.0275 M1909 45.84 Q1908.92 39.7232 1905.56 36.0774 Q1902.24 32.4315 1896.73 32.4315 Q1890.49 32.4315 1886.72 35.9558 Q1883 39.4801 1882.43 45.8805 L1909 45.84 Z" fill="#000000" fill-rule="nonzero" fill-opacity="1" /><path clip-path="url(#clip020)" d="M1961.34 28.9478 L1961.34 35.9153 Q1958.18 34.1734 1954.98 33.3227 Q1951.82 32.4315 1948.58 32.4315 Q1941.33 32.4315 1937.32 37.0496 Q1933.31 41.6271 1933.31 49.9314 Q1933.31 58.2358 1937.32 62.8538 Q1941.33 67.4314 1948.58 67.4314 Q1951.82 67.4314 1954.98 66.5807 Q1958.18 65.6895 1961.34 63.9476 L1961.34 70.8341 Q1958.22 72.2924 1954.86 73.0216 Q1951.54 73.7508 1947.77 73.7508 Q1937.52 73.7508 1931.48 67.3098 Q1925.45 60.8689 1925.45 49.9314 Q1925.45 38.832 1931.53 32.472 Q1937.64 26.1121 1948.26 26.1121 Q1951.7 26.1121 1954.98 26.8413 Q1958.26 27.5299 1961.34 28.9478 Z" fill="#000000" fill-rule="nonzero" fill-opacity="1" /><path clip-path="url(#clip020)" d="M1981.68 14.324 L1981.68 27.2059 L1997.03 27.2059 L1997.03 32.9987 L1981.68 32.9987 L1981.68 57.6282 Q1981.68 63.1779 1983.17 64.7578 Q1984.71 66.3376 1989.37 66.3376 L1997.03 66.3376 L1997.03 72.576 L1989.37 72.576 Q1980.74 72.576 1977.46 69.3758 Q1974.18 66.1351 1974.18 57.6282 L1974.18 32.9987 L1968.71 32.9987 L1968.71 27.2059 L1974.18 27.2059 L1974.18 14.324 L1981.68 14.324 Z" fill="#000000" fill-rule="nonzero" fill-opacity="1" /><path clip-path="url(#clip020)" d="M2040.58 14.324 L2040.58 27.2059 L2055.93 27.2059 L2055.93 32.9987 L2040.58 32.9987 L2040.58 57.6282 Q2040.58 63.1779 2042.07 64.7578 Q2043.61 66.3376 2048.27 66.3376 L2055.93 66.3376 L2055.93 72.576 L2048.27 72.576 Q2039.64 72.576 2036.36 69.3758 Q2033.08 66.1351 2033.08 57.6282 L2033.08 32.9987 L2027.61 32.9987 L2027.61 27.2059 L2033.08 27.2059 L2033.08 14.324 L2040.58 14.324 Z" fill="#000000" fill-rule="nonzero" fill-opacity="1" /><path clip-path="url(#clip020)" d="M2083.31 32.4315 Q2077.32 32.4315 2073.83 37.1306 Q2070.35 41.7891 2070.35 49.9314 Q2070.35 58.0738 2073.79 62.7728 Q2077.28 67.4314 2083.31 67.4314 Q2089.27 67.4314 2092.75 62.7323 Q2096.24 58.0333 2096.24 49.9314 Q2096.24 41.8701 2092.75 37.1711 Q2089.27 32.4315 2083.31 32.4315 M2083.31 26.1121 Q2093.03 26.1121 2098.58 32.4315 Q2104.13 38.7509 2104.13 49.9314 Q2104.13 61.0714 2098.58 67.4314 Q2093.03 73.7508 2083.31 73.7508 Q2073.55 73.7508 2068 67.4314 Q2062.49 61.0714 2062.49 49.9314 Q2062.49 38.7509 2068 32.4315 Q2073.55 26.1121 2083.31 26.1121 Z" fill="#000000" fill-rule="nonzero" fill-opacity="1" /><path clip-path="url(#clip020)" d="M2161.74 76.7889 Q2158.58 84.8907 2155.58 87.3618 Q2152.58 89.8329 2147.56 89.8329 L2141.61 89.8329 L2141.61 83.5945 L2145.98 83.5945 Q2149.06 83.5945 2150.76 82.1361 Q2152.46 80.6778 2154.53 75.2496 L2155.86 71.8468 L2137.51 27.2059 L2145.41 27.2059 L2159.59 62.6918 L2173.77 27.2059 L2181.67 27.2059 L2161.74 76.7889 Z" fill="#000000" fill-rule="nonzero" fill-opacity="1" /><circle clip-path="url(#clip022)" cx="1087.25" cy="884.56" r="4.33798" fill="#0000ff" fill-rule="evenodd" fill-opacity="1" stroke="#000000" stroke-opacity="1" stroke-width="3.2"/>
<circle clip-path="url(#clip022)" cx="1088.85" cy="1001.66" r="4.33764" fill="#0000ff" fill-rule="evenodd" fill-opacity="1" stroke="#000000" stroke-opacity="1" stroke-width="3.2"/>
<circle clip-path="url(#clip022)" cx="1573.49" cy="651.225" r="4.40281" fill="#ff0000" fill-rule="evenodd" fill-opacity="1" stroke="#000000" stroke-opacity="1" stroke-width="3.2"/>
<circle clip-path="url(#clip022)" cx="1427.54" cy="698.11" r="4.37256" fill="#ff0000" fill-rule="evenodd" fill-opacity="1" stroke="#000000" stroke-opacity="1" stroke-width="3.2"/>
<circle clip-path="url(#clip022)" cx="853.184" cy="975.352" r="4.38649" fill="#0000ff" fill-rule="evenodd" fill-opacity="1" stroke="#000000" stroke-opacity="1" stroke-width="3.2"/>
<circle clip-path="url(#clip022)" cx="591.112" cy="981.127" r="4.44081" fill="#0000ff" fill-rule="evenodd" fill-opacity="1" stroke="#000000" stroke-opacity="1" stroke-width="3.2"/>
<circle clip-path="url(#clip022)" cx="522.401" cy="1157.61" r="4.45506" fill="#0000ff" fill-rule="evenodd" fill-opacity="1" stroke="#000000" stroke-opacity="1" stroke-width="3.2"/>
<circle clip-path="url(#clip022)" cx="1817.64" cy="415.638" r="4.45342" fill="#ff0000" fill-rule="evenodd" fill-opacity="1" stroke="#000000" stroke-opacity="1" stroke-width="3.2"/>
<circle clip-path="url(#clip022)" cx="867.893" cy="1047.88" r="4.38344" fill="#0000ff" fill-rule="evenodd" fill-opacity="1" stroke="#000000" stroke-opacity="1" stroke-width="3.2"/>
<circle clip-path="url(#clip022)" cx="1583.8" cy="612.26" r="4.40495" fill="#ff0000" fill-rule="evenodd" fill-opacity="1" stroke="#000000" stroke-opacity="1" stroke-width="3.2"/>
<circle clip-path="url(#clip022)" cx="1409.12" cy="726.674" r="4.36874" fill="#ff0000" fill-rule="evenodd" fill-opacity="1" stroke="#000000" stroke-opacity="1" stroke-width="3.2"/>
<circle clip-path="url(#clip022)" cx="1052.67" cy="940.995" r="4.34514" fill="#0000ff" fill-rule="evenodd" fill-opacity="1" stroke="#000000" stroke-opacity="1" stroke-width="3.2"/>
<circle clip-path="url(#clip022)" cx="1444.9" cy="812.898" r="4.37616" fill="#ff0000" fill-rule="evenodd" fill-opacity="1" stroke="#000000" stroke-opacity="1" stroke-width="3.2"/>
<circle clip-path="url(#clip022)" cx="1844.67" cy="563.731" r="4.45902" fill="#ff0000" fill-rule="evenodd" fill-opacity="1" stroke="#000000" stroke-opacity="1" stroke-width="3.2"/>
<circle clip-path="url(#clip022)" cx="506.645" cy="1245.28" r="4.45832" fill="#0000ff" fill-rule="evenodd" fill-opacity="1" stroke="#000000" stroke-opacity="1" stroke-width="3.2"/>
<circle clip-path="url(#clip022)" cx="1386.67" cy="595.987" r="4.36409" fill="#ff0000" fill-rule="evenodd" fill-opacity="1" stroke="#000000" stroke-opacity="1" stroke-width="3.2"/>
<circle clip-path="url(#clip022)" cx="694.353" cy="1319.87" r="4.41941" fill="#0000ff" fill-rule="evenodd" fill-opacity="1" stroke="#000000" stroke-opacity="1" stroke-width="3.2"/>
<circle clip-path="url(#clip022)" cx="1181.12" cy="857.685" r="4.32148" fill="#ff0000" fill-rule="evenodd" fill-opacity="1" stroke="#000000" stroke-opacity="1" stroke-width="3.2"/>
<circle clip-path="url(#clip022)" cx="628.281" cy="1297.73" r="4.43311" fill="#0000ff" fill-rule="evenodd" fill-opacity="1" stroke="#000000" stroke-opacity="1" stroke-width="3.2"/>
<circle clip-path="url(#clip022)" cx="594.052" cy="1007.59" r="4.4402" fill="#0000ff" fill-rule="evenodd" fill-opacity="1" stroke="#000000" stroke-opacity="1" stroke-width="3.2"/>
<circle clip-path="url(#clip022)" cx="1781.81" cy="623.191" r="4.44599" fill="#ff0000" fill-rule="evenodd" fill-opacity="1" stroke="#000000" stroke-opacity="1" stroke-width="3.2"/>
<circle clip-path="url(#clip022)" cx="2196.71" cy="608.736" r="4.53199" fill="#ff0000" fill-rule="evenodd" fill-opacity="1" stroke="#000000" stroke-opacity="1" stroke-width="3.2"/>
<circle clip-path="url(#clip022)" cx="1320.14" cy="763.334" r="4.3503" fill="#ff0000" fill-rule="evenodd" fill-opacity="1" stroke="#000000" stroke-opacity="1" stroke-width="3.2"/>
<circle clip-path="url(#clip022)" cx="1329.83" cy="868.012" r="4.35231" fill="#ff0000" fill-rule="evenodd" fill-opacity="1" stroke="#000000" stroke-opacity="1" stroke-width="3.2"/>
<circle clip-path="url(#clip022)" cx="1609.44" cy="451.119" r="4.41026" fill="#ff0000" fill-rule="evenodd" fill-opacity="1" stroke="#000000" stroke-opacity="1" stroke-width="3.2"/>
<circle clip-path="url(#clip022)" cx="1344.77" cy="751.215" r="4.3554" fill="#ff0000" fill-rule="evenodd" fill-opacity="1" stroke="#000000" stroke-opacity="1" stroke-width="3.2"/>
<circle clip-path="url(#clip022)" cx="1696.97" cy="548.726" r="4.42841" fill="#ff0000" fill-rule="evenodd" fill-opacity="1" stroke="#000000" stroke-opacity="1" stroke-width="3.2"/>
<circle clip-path="url(#clip022)" cx="1507.98" cy="570.546" r="4.38923" fill="#ff0000" fill-rule="evenodd" fill-opacity="1" stroke="#000000" stroke-opacity="1" stroke-width="3.2"/>
<circle clip-path="url(#clip022)" cx="1296.25" cy="931.78" r="4.34535" fill="#ff0000" fill-rule="evenodd" fill-opacity="1" stroke="#000000" stroke-opacity="1" stroke-width="3.2"/>
<circle clip-path="url(#clip022)" cx="1703.99" cy="707.356" r="4.42986" fill="#ff0000" fill-rule="evenodd" fill-opacity="1" stroke="#000000" stroke-opacity="1" stroke-width="3.2"/>
<circle clip-path="url(#clip022)" cx="1377.14" cy="706.817" r="4.36211" fill="#ff0000" fill-rule="evenodd" fill-opacity="1" stroke="#000000" stroke-opacity="1" stroke-width="3.2"/>
<circle clip-path="url(#clip022)" cx="1136.8" cy="931.083" r="4.3277" fill="#0000ff" fill-rule="evenodd" fill-opacity="1" stroke="#000000" stroke-opacity="1" stroke-width="3.2"/>
<circle clip-path="url(#clip022)" cx="1056.89" cy="875.122" r="4.34427" fill="#0000ff" fill-rule="evenodd" fill-opacity="1" stroke="#000000" stroke-opacity="1" stroke-width="3.2"/>
<circle clip-path="url(#clip022)" cx="1033.63" cy="981.391" r="4.34909" fill="#0000ff" fill-rule="evenodd" fill-opacity="1" stroke="#000000" stroke-opacity="1" stroke-width="3.2"/>
<circle clip-path="url(#clip022)" cx="1493.37" cy="837.907" r="4.3862" fill="#ff0000" fill-rule="evenodd" fill-opacity="1" stroke="#000000" stroke-opacity="1" stroke-width="3.2"/>
<circle clip-path="url(#clip022)" cx="1192.71" cy="728.672" r="4.32389" fill="#ff0000" fill-rule="evenodd" fill-opacity="1" stroke="#000000" stroke-opacity="1" stroke-width="3.2"/>
<circle clip-path="url(#clip022)" cx="887.846" cy="969.935" r="4.37931" fill="#0000ff" fill-rule="evenodd" fill-opacity="1" stroke="#000000" stroke-opacity="1" stroke-width="3.2"/>
<circle clip-path="url(#clip022)" cx="844.937" cy="937.692" r="4.3882" fill="#0000ff" fill-rule="evenodd" fill-opacity="1" stroke="#000000" stroke-opacity="1" stroke-width="3.2"/>
<circle clip-path="url(#clip022)" cx="1820.87" cy="617.686" r="4.45409" fill="#ff0000" fill-rule="evenodd" fill-opacity="1" stroke="#000000" stroke-opacity="1" stroke-width="3.2"/>
<circle clip-path="url(#clip022)" cx="1543.69" cy="802.526" r="4.39663" fill="#ff0000" fill-rule="evenodd" fill-opacity="1" stroke="#000000" stroke-opacity="1" stroke-width="3.2"/>
<circle clip-path="url(#clip022)" cx="1206.56" cy="742.089" r="4.32676" fill="#ff0000" fill-rule="evenodd" fill-opacity="1" stroke="#000000" stroke-opacity="1" stroke-width="3.2"/>
<circle clip-path="url(#clip022)" cx="1151.61" cy="1010.26" r="4.32463" fill="#0000ff" fill-rule="evenodd" fill-opacity="1" stroke="#000000" stroke-opacity="1" stroke-width="3.2"/>
<circle clip-path="url(#clip022)" cx="1149.15" cy="719.515" r="4.32514" fill="#0000ff" fill-rule="evenodd" fill-opacity="1" stroke="#000000" stroke-opacity="1" stroke-width="3.2"/>
<circle clip-path="url(#clip022)" cx="944.898" cy="1047.76" r="4.36748" fill="#0000ff" fill-rule="evenodd" fill-opacity="1" stroke="#000000" stroke-opacity="1" stroke-width="3.2"/>
<circle clip-path="url(#clip022)" cx="835.566" cy="1162.22" r="4.39014" fill="#0000ff" fill-rule="evenodd" fill-opacity="1" stroke="#000000" stroke-opacity="1" stroke-width="3.2"/>
<circle clip-path="url(#clip022)" cx="1139.68" cy="683.072" r="4.32711" fill="#0000ff" fill-rule="evenodd" fill-opacity="1" stroke="#000000" stroke-opacity="1" stroke-width="3.2"/>
<circle clip-path="url(#clip022)" cx="1424.01" cy="757.235" r="4.37183" fill="#ff0000" fill-rule="evenodd" fill-opacity="1" stroke="#000000" stroke-opacity="1" stroke-width="3.2"/>
<circle clip-path="url(#clip022)" cx="781.203" cy="1059.91" r="4.40141" fill="#0000ff" fill-rule="evenodd" fill-opacity="1" stroke="#000000" stroke-opacity="1" stroke-width="3.2"/>
<circle clip-path="url(#clip022)" cx="956.275" cy="918.137" r="4.36512" fill="#0000ff" fill-rule="evenodd" fill-opacity="1" stroke="#000000" stroke-opacity="1" stroke-width="3.2"/>
<circle clip-path="url(#clip022)" cx="1495.87" cy="607.877" r="4.38672" fill="#ff0000" fill-rule="evenodd" fill-opacity="1" stroke="#000000" stroke-opacity="1" stroke-width="3.2"/>
<circle clip-path="url(#clip022)" cx="1016.91" cy="875.518" r="4.35255" fill="#0000ff" fill-rule="evenodd" fill-opacity="1" stroke="#000000" stroke-opacity="1" stroke-width="3.2"/>
<circle clip-path="url(#clip022)" cx="1650.17" cy="633.998" r="4.41871" fill="#ff0000" fill-rule="evenodd" fill-opacity="1" stroke="#000000" stroke-opacity="1" stroke-width="3.2"/>
<circle clip-path="url(#clip022)" cx="1364.62" cy="728.908" r="4.35952" fill="#ff0000" fill-rule="evenodd" fill-opacity="1" stroke="#000000" stroke-opacity="1" stroke-width="3.2"/>
<circle clip-path="url(#clip022)" cx="1384.88" cy="853.021" r="4.36372" fill="#ff0000" fill-rule="evenodd" fill-opacity="1" stroke="#000000" stroke-opacity="1" stroke-width="3.2"/>
<circle clip-path="url(#clip022)" cx="776.766" cy="1109.67" r="4.40233" fill="#0000ff" fill-rule="evenodd" fill-opacity="1" stroke="#000000" stroke-opacity="1" stroke-width="3.2"/>
<circle clip-path="url(#clip022)" cx="2290.39" cy="162.047" r="4.55141" fill="#ff0000" fill-rule="evenodd" fill-opacity="1" stroke="#000000" stroke-opacity="1" stroke-width="3.2"/>
<circle clip-path="url(#clip022)" cx="810.429" cy="1012.55" r="4.39535" fill="#0000ff" fill-rule="evenodd" fill-opacity="1" stroke="#000000" stroke-opacity="1" stroke-width="3.2"/>
<circle clip-path="url(#clip022)" cx="1232.93" cy="1047.35" r="4.33222" fill="#ff0000" fill-rule="evenodd" fill-opacity="1" stroke="#000000" stroke-opacity="1" stroke-width="3.2"/>
<circle clip-path="url(#clip022)" cx="1749.28" cy="615.121" r="4.43925" fill="#ff0000" fill-rule="evenodd" fill-opacity="1" stroke="#000000" stroke-opacity="1" stroke-width="3.2"/>
<circle clip-path="url(#clip022)" cx="1783.27" cy="606.375" r="4.4463" fill="#ff0000" fill-rule="evenodd" fill-opacity="1" stroke="#000000" stroke-opacity="1" stroke-width="3.2"/>
<circle clip-path="url(#clip022)" cx="1033.51" cy="1012.71" r="4.34911" fill="#0000ff" fill-rule="evenodd" fill-opacity="1" stroke="#000000" stroke-opacity="1" stroke-width="3.2"/>
<circle clip-path="url(#clip022)" cx="457.588" cy="1269.97" r="4.46849" fill="#0000ff" fill-rule="evenodd" fill-opacity="1" stroke="#000000" stroke-opacity="1" stroke-width="3.2"/>
<circle clip-path="url(#clip022)" cx="1413.53" cy="768.887" r="4.36966" fill="#ff0000" fill-rule="evenodd" fill-opacity="1" stroke="#000000" stroke-opacity="1" stroke-width="3.2"/>
<circle clip-path="url(#clip022)" cx="988.62" cy="1029.77" r="4.35842" fill="#0000ff" fill-rule="evenodd" fill-opacity="1" stroke="#000000" stroke-opacity="1" stroke-width="3.2"/>
<circle clip-path="url(#clip022)" cx="1455.4" cy="857.551" r="4.37833" fill="#ff0000" fill-rule="evenodd" fill-opacity="1" stroke="#000000" stroke-opacity="1" stroke-width="3.2"/>
<circle clip-path="url(#clip022)" cx="309.223" cy="1447.87" r="4.49924" fill="#0000ff" fill-rule="evenodd" fill-opacity="1" stroke="#000000" stroke-opacity="1" stroke-width="3.2"/>
<circle clip-path="url(#clip022)" cx="1011.59" cy="1063.33" r="4.35366" fill="#0000ff" fill-rule="evenodd" fill-opacity="1" stroke="#000000" stroke-opacity="1" stroke-width="3.2"/>
<circle clip-path="url(#clip022)" cx="988.665" cy="873.916" r="4.35841" fill="#0000ff" fill-rule="evenodd" fill-opacity="1" stroke="#000000" stroke-opacity="1" stroke-width="3.2"/>
<circle clip-path="url(#clip022)" cx="770.883" cy="971.634" r="4.40355" fill="#0000ff" fill-rule="evenodd" fill-opacity="1" stroke="#000000" stroke-opacity="1" stroke-width="3.2"/>
<circle clip-path="url(#clip022)" cx="1385.35" cy="874.689" r="4.36381" fill="#ff0000" fill-rule="evenodd" fill-opacity="1" stroke="#000000" stroke-opacity="1" stroke-width="3.2"/>
<circle clip-path="url(#clip022)" cx="786.147" cy="1038.1" r="4.40039" fill="#0000ff" fill-rule="evenodd" fill-opacity="1" stroke="#000000" stroke-opacity="1" stroke-width="3.2"/>
<circle clip-path="url(#clip022)" cx="1618.21" cy="637.442" r="4.41208" fill="#ff0000" fill-rule="evenodd" fill-opacity="1" stroke="#000000" stroke-opacity="1" stroke-width="3.2"/>
<circle clip-path="url(#clip022)" cx="839.42" cy="1057.18" r="4.38935" fill="#0000ff" fill-rule="evenodd" fill-opacity="1" stroke="#000000" stroke-opacity="1" stroke-width="3.2"/>
<circle clip-path="url(#clip022)" cx="1615.82" cy="707.932" r="4.41159" fill="#ff0000" fill-rule="evenodd" fill-opacity="1" stroke="#000000" stroke-opacity="1" stroke-width="3.2"/>
<circle clip-path="url(#clip022)" cx="536.815" cy="1293.54" r="4.45207" fill="#0000ff" fill-rule="evenodd" fill-opacity="1" stroke="#000000" stroke-opacity="1" stroke-width="3.2"/>
<circle clip-path="url(#clip022)" cx="1027.48" cy="943.343" r="4.35036" fill="#0000ff" fill-rule="evenodd" fill-opacity="1" stroke="#000000" stroke-opacity="1" stroke-width="3.2"/>
<circle clip-path="url(#clip022)" cx="1241.95" cy="660.262" r="4.33409" fill="#ff0000" fill-rule="evenodd" fill-opacity="1" stroke="#000000" stroke-opacity="1" stroke-width="3.2"/>
<circle clip-path="url(#clip022)" cx="882.098" cy="1147.34" r="4.3805" fill="#0000ff" fill-rule="evenodd" fill-opacity="1" stroke="#000000" stroke-opacity="1" stroke-width="3.2"/>
<circle clip-path="url(#clip022)" cx="1003.16" cy="989.135" r="4.3554" fill="#0000ff" fill-rule="evenodd" fill-opacity="1" stroke="#000000" stroke-opacity="1" stroke-width="3.2"/>
<circle clip-path="url(#clip022)" cx="1707.16" cy="824.377" r="4.43052" fill="#ff0000" fill-rule="evenodd" fill-opacity="1" stroke="#000000" stroke-opacity="1" stroke-width="3.2"/>
<circle clip-path="url(#clip022)" cx="691.912" cy="1011.81" r="4.41992" fill="#0000ff" fill-rule="evenodd" fill-opacity="1" stroke="#000000" stroke-opacity="1" stroke-width="3.2"/>
<circle clip-path="url(#clip022)" cx="1168.77" cy="927.138" r="4.32108" fill="#0000ff" fill-rule="evenodd" fill-opacity="1" stroke="#000000" stroke-opacity="1" stroke-width="3.2"/>
<circle clip-path="url(#clip022)" cx="884.947" cy="1218.93" r="4.37991" fill="#0000ff" fill-rule="evenodd" fill-opacity="1" stroke="#000000" stroke-opacity="1" stroke-width="3.2"/>
<circle clip-path="url(#clip022)" cx="1047.23" cy="876.298" r="4.34627" fill="#0000ff" fill-rule="evenodd" fill-opacity="1" stroke="#000000" stroke-opacity="1" stroke-width="3.2"/>
<circle clip-path="url(#clip022)" cx="480.43" cy="1124.13" r="4.46376" fill="#0000ff" fill-rule="evenodd" fill-opacity="1" stroke="#000000" stroke-opacity="1" stroke-width="3.2"/>
<circle clip-path="url(#clip022)" cx="1462.07" cy="774.046" r="4.37972" fill="#ff0000" fill-rule="evenodd" fill-opacity="1" stroke="#000000" stroke-opacity="1" stroke-width="3.2"/>
<circle clip-path="url(#clip022)" cx="1464.82" cy="717.63" r="4.38029" fill="#ff0000" fill-rule="evenodd" fill-opacity="1" stroke="#000000" stroke-opacity="1" stroke-width="3.2"/>
<circle clip-path="url(#clip022)" cx="515.068" cy="1152.42" r="4.45658" fill="#0000ff" fill-rule="evenodd" fill-opacity="1" stroke="#000000" stroke-opacity="1" stroke-width="3.2"/>
<circle clip-path="url(#clip022)" cx="1661.84" cy="600.669" r="4.42112" fill="#ff0000" fill-rule="evenodd" fill-opacity="1" stroke="#000000" stroke-opacity="1" stroke-width="3.2"/>
<circle clip-path="url(#clip022)" cx="1222.23" cy="905.215" r="4.33" fill="#ff0000" fill-rule="evenodd" fill-opacity="1" stroke="#000000" stroke-opacity="1" stroke-width="3.2"/>
<circle clip-path="url(#clip022)" cx="577.578" cy="1410.33" r="4.44362" fill="#0000ff" fill-rule="evenodd" fill-opacity="1" stroke="#000000" stroke-opacity="1" stroke-width="3.2"/>
<circle clip-path="url(#clip022)" cx="1335.64" cy="783.571" r="4.35351" fill="#ff0000" fill-rule="evenodd" fill-opacity="1" stroke="#000000" stroke-opacity="1" stroke-width="3.2"/>
<circle clip-path="url(#clip022)" cx="766.55" cy="935.792" r="4.40445" fill="#0000ff" fill-rule="evenodd" fill-opacity="1" stroke="#000000" stroke-opacity="1" stroke-width="3.2"/>
<circle clip-path="url(#clip022)" cx="1668.1" cy="698.805" r="4.42242" fill="#ff0000" fill-rule="evenodd" fill-opacity="1" stroke="#000000" stroke-opacity="1" stroke-width="3.2"/>
<circle clip-path="url(#clip022)" cx="1540.48" cy="619.839" r="4.39597" fill="#ff0000" fill-rule="evenodd" fill-opacity="1" stroke="#000000" stroke-opacity="1" stroke-width="3.2"/>
<circle clip-path="url(#clip022)" cx="1424.64" cy="590.293" r="4.37196" fill="#ff0000" fill-rule="evenodd" fill-opacity="1" stroke="#000000" stroke-opacity="1" stroke-width="3.2"/>
<circle clip-path="url(#clip022)" cx="1380.89" cy="796.127" r="4.36289" fill="#ff0000" fill-rule="evenodd" fill-opacity="1" stroke="#000000" stroke-opacity="1" stroke-width="3.2"/>
<circle clip-path="url(#clip022)" cx="1202.62" cy="804.139" r="4.32594" fill="#ff0000" fill-rule="evenodd" fill-opacity="1" stroke="#000000" stroke-opacity="1" stroke-width="3.2"/>
<circle clip-path="url(#clip022)" cx="1956.84" cy="418.003" r="4.48227" fill="#ff0000" fill-rule="evenodd" fill-opacity="1" stroke="#000000" stroke-opacity="1" stroke-width="3.2"/>
<circle clip-path="url(#clip022)" cx="779.474" cy="1176.81" r="4.40177" fill="#0000ff" fill-rule="evenodd" fill-opacity="1" stroke="#000000" stroke-opacity="1" stroke-width="3.2"/>
<circle clip-path="url(#clip022)" cx="1160.56" cy="804.385" r="4.32278" fill="#0000ff" fill-rule="evenodd" fill-opacity="1" stroke="#000000" stroke-opacity="1" stroke-width="3.2"/>
<circle clip-path="url(#clip022)" cx="523.36" cy="1332.11" r="4.45486" fill="#0000ff" fill-rule="evenodd" fill-opacity="1" stroke="#000000" stroke-opacity="1" stroke-width="3.2"/>
<circle clip-path="url(#clip022)" cx="692.25" cy="1041" r="4.41985" fill="#0000ff" fill-rule="evenodd" fill-opacity="1" stroke="#000000" stroke-opacity="1" stroke-width="3.2"/>
<circle clip-path="url(#clip022)" cx="1446.28" cy="750.776" r="4.37644" fill="#ff0000" fill-rule="evenodd" fill-opacity="1" stroke="#000000" stroke-opacity="1" stroke-width="3.2"/>
<circle clip-path="url(#clip022)" cx="1880.01" cy="633.34" r="4.46635" fill="#ff0000" fill-rule="evenodd" fill-opacity="1" stroke="#000000" stroke-opacity="1" stroke-width="3.2"/>
<circle clip-path="url(#clip022)" cx="1340.56" cy="933.248" r="4.35453" fill="#ff0000" fill-rule="evenodd" fill-opacity="1" stroke="#000000" stroke-opacity="1" stroke-width="3.2"/>
<circle clip-path="url(#clip022)" cx="1965.82" cy="514.519" r="4.48413" fill="#ff0000" fill-rule="evenodd" fill-opacity="1" stroke="#000000" stroke-opacity="1" stroke-width="3.2"/>
<circle clip-path="url(#clip022)" cx="845.036" cy="1089.01" r="4.38818" fill="#0000ff" fill-rule="evenodd" fill-opacity="1" stroke="#000000" stroke-opacity="1" stroke-width="3.2"/>
<circle clip-path="url(#clip022)" cx="1038.65" cy="922.424" r="4.34805" fill="#0000ff" fill-rule="evenodd" fill-opacity="1" stroke="#000000" stroke-opacity="1" stroke-width="3.2"/>
<circle clip-path="url(#clip022)" cx="1105.42" cy="744.726" r="4.33421" fill="#0000ff" fill-rule="evenodd" fill-opacity="1" stroke="#000000" stroke-opacity="1" stroke-width="3.2"/>
<circle clip-path="url(#clip022)" cx="327.373" cy="1246.09" r="4.49548" fill="#0000ff" fill-rule="evenodd" fill-opacity="1" stroke="#000000" stroke-opacity="1" stroke-width="3.2"/>
<circle clip-path="url(#clip022)" cx="1174.97" cy="952.378" r="4.32021" fill="#ff0000" fill-rule="evenodd" fill-opacity="1" stroke="#000000" stroke-opacity="1" stroke-width="3.2"/>
<circle clip-path="url(#clip022)" cx="1757.27" cy="716.804" r="4.44091" fill="#ff0000" fill-rule="evenodd" fill-opacity="1" stroke="#000000" stroke-opacity="1" stroke-width="3.2"/>
<circle clip-path="url(#clip022)" cx="1484.46" cy="736.825" r="4.38436" fill="#ff0000" fill-rule="evenodd" fill-opacity="1" stroke="#000000" stroke-opacity="1" stroke-width="3.2"/>
<circle clip-path="url(#clip022)" cx="1076.16" cy="882.287" r="4.34027" fill="#0000ff" fill-rule="evenodd" fill-opacity="1" stroke="#000000" stroke-opacity="1" stroke-width="3.2"/>
<circle clip-path="url(#clip022)" cx="422.163" cy="1038.73" r="4.47583" fill="#0000ff" fill-rule="evenodd" fill-opacity="1" stroke="#000000" stroke-opacity="1" stroke-width="3.2"/>
<circle clip-path="url(#clip022)" cx="445.891" cy="1050.8" r="4.47092" fill="#0000ff" fill-rule="evenodd" fill-opacity="1" stroke="#000000" stroke-opacity="1" stroke-width="3.2"/>
<circle clip-path="url(#clip022)" cx="1092.76" cy="883.314" r="4.33683" fill="#0000ff" fill-rule="evenodd" fill-opacity="1" stroke="#000000" stroke-opacity="1" stroke-width="3.2"/>
<circle clip-path="url(#clip022)" cx="1225.8" cy="822.858" r="4.33074" fill="#ff0000" fill-rule="evenodd" fill-opacity="1" stroke="#000000" stroke-opacity="1" stroke-width="3.2"/>
<circle clip-path="url(#clip022)" cx="211.556" cy="1236.18" r="4.51949" fill="#0000ff" fill-rule="evenodd" fill-opacity="1" stroke="#000000" stroke-opacity="1" stroke-width="3.2"/>
<circle clip-path="url(#clip022)" cx="1120.75" cy="1000.02" r="4.33103" fill="#0000ff" fill-rule="evenodd" fill-opacity="1" stroke="#000000" stroke-opacity="1" stroke-width="3.2"/>
<circle clip-path="url(#clip022)" cx="794.497" cy="1103.73" r="4.39866" fill="#0000ff" fill-rule="evenodd" fill-opacity="1" stroke="#000000" stroke-opacity="1" stroke-width="3.2"/>
<circle clip-path="url(#clip022)" cx="1308.1" cy="848.407" r="4.3478" fill="#ff0000" fill-rule="evenodd" fill-opacity="1" stroke="#000000" stroke-opacity="1" stroke-width="3.2"/>
<circle clip-path="url(#clip022)" cx="1281.56" cy="783.276" r="4.3423" fill="#ff0000" fill-rule="evenodd" fill-opacity="1" stroke="#000000" stroke-opacity="1" stroke-width="3.2"/>
<circle clip-path="url(#clip022)" cx="1273.9" cy="725.04" r="4.34071" fill="#ff0000" fill-rule="evenodd" fill-opacity="1" stroke="#000000" stroke-opacity="1" stroke-width="3.2"/>
<circle clip-path="url(#clip022)" cx="1160.07" cy="974.475" r="4.32288" fill="#0000ff" fill-rule="evenodd" fill-opacity="1" stroke="#000000" stroke-opacity="1" stroke-width="3.2"/>
<circle clip-path="url(#clip022)" cx="821.622" cy="936.757" r="4.39303" fill="#0000ff" fill-rule="evenodd" fill-opacity="1" stroke="#000000" stroke-opacity="1" stroke-width="3.2"/>
<circle clip-path="url(#clip022)" cx="1103.09" cy="1051.02" r="4.33469" fill="#0000ff" fill-rule="evenodd" fill-opacity="1" stroke="#000000" stroke-opacity="1" stroke-width="3.2"/>
<circle clip-path="url(#clip022)" cx="1574.51" cy="559.647" r="4.40302" fill="#ff0000" fill-rule="evenodd" fill-opacity="1" stroke="#000000" stroke-opacity="1" stroke-width="3.2"/>
<circle clip-path="url(#clip022)" cx="1344.26" cy="627.857" r="4.3553" fill="#ff0000" fill-rule="evenodd" fill-opacity="1" stroke="#000000" stroke-opacity="1" stroke-width="3.2"/>
<circle clip-path="url(#clip022)" cx="927.775" cy="1003.57" r="4.37103" fill="#0000ff" fill-rule="evenodd" fill-opacity="1" stroke="#000000" stroke-opacity="1" stroke-width="3.2"/>
<circle clip-path="url(#clip022)" cx="562.563" cy="1126.6" r="4.44673" fill="#0000ff" fill-rule="evenodd" fill-opacity="1" stroke="#000000" stroke-opacity="1" stroke-width="3.2"/>
<circle clip-path="url(#clip022)" cx="857.98" cy="956.099" r="4.3855" fill="#0000ff" fill-rule="evenodd" fill-opacity="1" stroke="#000000" stroke-opacity="1" stroke-width="3.2"/>
<circle clip-path="url(#clip022)" cx="1460.38" cy="965.111" r="4.37937" fill="#ff0000" fill-rule="evenodd" fill-opacity="1" stroke="#000000" stroke-opacity="1" stroke-width="3.2"/>
<circle clip-path="url(#clip022)" cx="1800.37" cy="539.076" r="4.44984" fill="#ff0000" fill-rule="evenodd" fill-opacity="1" stroke="#000000" stroke-opacity="1" stroke-width="3.2"/>
<circle clip-path="url(#clip022)" cx="1265.81" cy="962.255" r="4.33904" fill="#ff0000" fill-rule="evenodd" fill-opacity="1" stroke="#000000" stroke-opacity="1" stroke-width="3.2"/>
<circle clip-path="url(#clip022)" cx="851.715" cy="908.716" r="4.3868" fill="#0000ff" fill-rule="evenodd" fill-opacity="1" stroke="#000000" stroke-opacity="1" stroke-width="3.2"/>
<circle clip-path="url(#clip022)" cx="1046.96" cy="971.107" r="4.34633" fill="#0000ff" fill-rule="evenodd" fill-opacity="1" stroke="#000000" stroke-opacity="1" stroke-width="3.2"/>
<circle clip-path="url(#clip022)" cx="1263.35" cy="973.635" r="4.33853" fill="#ff0000" fill-rule="evenodd" fill-opacity="1" stroke="#000000" stroke-opacity="1" stroke-width="3.2"/>
<circle clip-path="url(#clip022)" cx="1081.83" cy="996.043" r="4.3391" fill="#0000ff" fill-rule="evenodd" fill-opacity="1" stroke="#000000" stroke-opacity="1" stroke-width="3.2"/>
<circle clip-path="url(#clip022)" cx="1876.24" cy="593.731" r="4.46557" fill="#ff0000" fill-rule="evenodd" fill-opacity="1" stroke="#000000" stroke-opacity="1" stroke-width="3.2"/>
<circle clip-path="url(#clip022)" cx="1429.88" cy="733.927" r="4.37304" fill="#ff0000" fill-rule="evenodd" fill-opacity="1" stroke="#000000" stroke-opacity="1" stroke-width="3.2"/>
<circle clip-path="url(#clip022)" cx="272.061" cy="1357.5" r="4.50695" fill="#0000ff" fill-rule="evenodd" fill-opacity="1" stroke="#000000" stroke-opacity="1" stroke-width="3.2"/>
<circle clip-path="url(#clip022)" cx="518.266" cy="1282.16" r="4.45591" fill="#0000ff" fill-rule="evenodd" fill-opacity="1" stroke="#000000" stroke-opacity="1" stroke-width="3.2"/>
<circle clip-path="url(#clip022)" cx="1205.24" cy="773.826" r="4.32648" fill="#ff0000" fill-rule="evenodd" fill-opacity="1" stroke="#000000" stroke-opacity="1" stroke-width="3.2"/>
<circle clip-path="url(#clip022)" cx="1267.67" cy="960.153" r="4.33942" fill="#ff0000" fill-rule="evenodd" fill-opacity="1" stroke="#000000" stroke-opacity="1" stroke-width="3.2"/>
<circle clip-path="url(#clip022)" cx="807.652" cy="974.321" r="4.39593" fill="#0000ff" fill-rule="evenodd" fill-opacity="1" stroke="#000000" stroke-opacity="1" stroke-width="3.2"/>
<circle clip-path="url(#clip022)" cx="1637.69" cy="576.329" r="4.41612" fill="#ff0000" fill-rule="evenodd" fill-opacity="1" stroke="#000000" stroke-opacity="1" stroke-width="3.2"/>
<circle clip-path="url(#clip022)" cx="1786.13" cy="603.163" r="4.44689" fill="#ff0000" fill-rule="evenodd" fill-opacity="1" stroke="#000000" stroke-opacity="1" stroke-width="3.2"/>
<circle clip-path="url(#clip022)" cx="1396.35" cy="679.145" r="4.3661" fill="#ff0000" fill-rule="evenodd" fill-opacity="1" stroke="#000000" stroke-opacity="1" stroke-width="3.2"/>
<polyline clip-path="url(#clip022)" style="stroke:#0000ff; stroke-linecap:round; stroke-linejoin:round; stroke-width:4; stroke-opacity:1; fill:none" points="211.556,1197.8 2290.39,500.525 "/>
</svg>
