<?xml version="1.0" encoding="utf-8"?>
<svg xmlns="http://www.w3.org/2000/svg" xmlns:xlink="http://www.w3.org/1999/xlink" width="600" height="400" viewBox="0 0 2400 1600">
<defs>
  <clipPath id="clip690">
    <rect x="0" y="0" width="2400" height="1600"/>
  </clipPath>
</defs>
<path clip-path="url(#clip690)" d="M0 1600 L2400 1600 L2400 0 L0 0  Z" fill="#ffffff" fill-rule="evenodd" fill-opacity="1"/>
<defs>
  <clipPath id="clip691">
    <rect x="480" y="0" width="1681" height="1600"/>
  </clipPath>
</defs>
<path clip-path="url(#clip690)" d="M156.274 1423.18 L2352.76 1423.18 L2352.76 123.472 L156.274 123.472  Z" fill="#ffffff" fill-rule="evenodd" fill-opacity="1"/>
<defs>
  <clipPath id="clip692">
    <rect x="156" y="123" width="2197" height="1301"/>
  </clipPath>
</defs>
<polyline clip-path="url(#clip692)" style="stroke:#000000; stroke-linecap:round; stroke-linejoin:round; stroke-width:2; stroke-opacity:0.1; fill:none" points="218.439,1423.18 218.439,123.472 "/>
<polyline clip-path="url(#clip692)" style="stroke:#000000; stroke-linecap:round; stroke-linejoin:round; stroke-width:2; stroke-opacity:0.1; fill:none" points="632.869,1423.18 632.869,123.472 "/>
<polyline clip-path="url(#clip692)" style="stroke:#000000; stroke-linecap:round; stroke-linejoin:round; stroke-width:2; stroke-opacity:0.1; fill:none" points="1047.3,1423.18 1047.3,123.472 "/>
<polyline clip-path="url(#clip692)" style="stroke:#000000; stroke-linecap:round; stroke-linejoin:round; stroke-width:2; stroke-opacity:0.1; fill:none" points="1461.73,1423.18 1461.73,123.472 "/>
<polyline clip-path="url(#clip692)" style="stroke:#000000; stroke-linecap:round; stroke-linejoin:round; stroke-width:2; stroke-opacity:0.1; fill:none" points="1876.16,1423.18 1876.16,123.472 "/>
<polyline clip-path="url(#clip692)" style="stroke:#000000; stroke-linecap:round; stroke-linejoin:round; stroke-width:2; stroke-opacity:0.1; fill:none" points="2290.59,1423.18 2290.59,123.472 "/>
<polyline clip-path="url(#clip692)" style="stroke:#000000; stroke-linecap:round; stroke-linejoin:round; stroke-width:2; stroke-opacity:0.1; fill:none" points="156.274,1129.23 2352.76,1129.23 "/>
<polyline clip-path="url(#clip692)" style="stroke:#000000; stroke-linecap:round; stroke-linejoin:round; stroke-width:2; stroke-opacity:0.1; fill:none" points="156.274,801.568 2352.76,801.568 "/>
<polyline clip-path="url(#clip692)" style="stroke:#000000; stroke-linecap:round; stroke-linejoin:round; stroke-width:2; stroke-opacity:0.1; fill:none" points="156.274,473.904 2352.76,473.904 "/>
<polyline clip-path="url(#clip692)" style="stroke:#000000; stroke-linecap:round; stroke-linejoin:round; stroke-width:2; stroke-opacity:0.1; fill:none" points="156.274,146.24 2352.76,146.24 "/>
<polyline clip-path="url(#clip690)" style="stroke:#000000; stroke-linecap:round; stroke-linejoin:round; stroke-width:4; stroke-opacity:1; fill:none" points="156.274,1423.18 2352.76,1423.18 "/>
<polyline clip-path="url(#clip690)" style="stroke:#000000; stroke-linecap:round; stroke-linejoin:round; stroke-width:4; stroke-opacity:1; fill:none" points="218.439,1423.18 218.439,1404.28 "/>
<polyline clip-path="url(#clip690)" style="stroke:#000000; stroke-linecap:round; stroke-linejoin:round; stroke-width:4; stroke-opacity:1; fill:none" points="632.869,1423.18 632.869,1404.28 "/>
<polyline clip-path="url(#clip690)" style="stroke:#000000; stroke-linecap:round; stroke-linejoin:round; stroke-width:4; stroke-opacity:1; fill:none" points="1047.3,1423.18 1047.3,1404.28 "/>
<polyline clip-path="url(#clip690)" style="stroke:#000000; stroke-linecap:round; stroke-linejoin:round; stroke-width:4; stroke-opacity:1; fill:none" points="1461.73,1423.18 1461.73,1404.28 "/>
<polyline clip-path="url(#clip690)" style="stroke:#000000; stroke-linecap:round; stroke-linejoin:round; stroke-width:4; stroke-opacity:1; fill:none" points="1876.16,1423.18 1876.16,1404.28 "/>
<polyline clip-path="url(#clip690)" style="stroke:#000000; stroke-linecap:round; stroke-linejoin:round; stroke-width:4; stroke-opacity:1; fill:none" points="2290.59,1423.18 2290.59,1404.28 "/>
<path clip-path="url(#clip690)" d="M195.823 1454.1 Q192.212 1454.1 190.383 1457.66 Q188.578 1461.2 188.578 1468.33 Q188.578 1475.44 190.383 1479.01 Q192.212 1482.55 195.823 1482.55 Q199.457 1482.55 201.263 1479.01 Q203.092 1475.44 203.092 1468.33 Q203.092 1461.2 201.263 1457.66 Q199.457 1454.1 195.823 1454.1 M195.823 1450.39 Q201.633 1450.39 204.689 1455 Q207.768 1459.58 207.768 1468.33 Q207.768 1477.06 204.689 1481.67 Q201.633 1486.25 195.823 1486.25 Q190.013 1486.25 186.934 1481.67 Q183.879 1477.06 183.879 1468.33 Q183.879 1459.58 186.934 1455 Q190.013 1450.39 195.823 1450.39 Z" fill="#000000" fill-rule="nonzero" fill-opacity="1" /><path clip-path="url(#clip690)" d="M215.985 1479.7 L220.869 1479.7 L220.869 1485.58 L215.985 1485.58 L215.985 1479.7 Z" fill="#000000" fill-rule="nonzero" fill-opacity="1" /><path clip-path="url(#clip690)" d="M241.054 1454.1 Q237.443 1454.1 235.615 1457.66 Q233.809 1461.2 233.809 1468.33 Q233.809 1475.44 235.615 1479.01 Q237.443 1482.55 241.054 1482.55 Q244.689 1482.55 246.494 1479.01 Q248.323 1475.44 248.323 1468.33 Q248.323 1461.2 246.494 1457.66 Q244.689 1454.1 241.054 1454.1 M241.054 1450.39 Q246.865 1450.39 249.92 1455 Q252.999 1459.58 252.999 1468.33 Q252.999 1477.06 249.92 1481.67 Q246.865 1486.25 241.054 1486.25 Q235.244 1486.25 232.166 1481.67 Q229.11 1477.06 229.11 1468.33 Q229.11 1459.58 232.166 1455 Q235.244 1450.39 241.054 1450.39 Z" fill="#000000" fill-rule="nonzero" fill-opacity="1" /><path clip-path="url(#clip690)" d="M610.867 1454.1 Q607.256 1454.1 605.427 1457.66 Q603.622 1461.2 603.622 1468.33 Q603.622 1475.44 605.427 1479.01 Q607.256 1482.55 610.867 1482.55 Q614.501 1482.55 616.307 1479.01 Q618.136 1475.44 618.136 1468.33 Q618.136 1461.2 616.307 1457.66 Q614.501 1454.1 610.867 1454.1 M610.867 1450.39 Q616.677 1450.39 619.733 1455 Q622.811 1459.58 622.811 1468.33 Q622.811 1477.06 619.733 1481.67 Q616.677 1486.25 610.867 1486.25 Q605.057 1486.25 601.978 1481.67 Q598.923 1477.06 598.923 1468.33 Q598.923 1459.58 601.978 1455 Q605.057 1450.39 610.867 1450.39 Z" fill="#000000" fill-rule="nonzero" fill-opacity="1" /><path clip-path="url(#clip690)" d="M631.029 1479.7 L635.913 1479.7 L635.913 1485.58 L631.029 1485.58 L631.029 1479.7 Z" fill="#000000" fill-rule="nonzero" fill-opacity="1" /><path clip-path="url(#clip690)" d="M646.909 1481.64 L654.547 1481.64 L654.547 1455.28 L646.237 1456.95 L646.237 1452.69 L654.501 1451.02 L659.177 1451.02 L659.177 1481.64 L666.816 1481.64 L666.816 1485.58 L646.909 1485.58 L646.909 1481.64 Z" fill="#000000" fill-rule="nonzero" fill-opacity="1" /><path clip-path="url(#clip690)" d="M1025.48 1454.1 Q1021.87 1454.1 1020.04 1457.66 Q1018.24 1461.2 1018.24 1468.33 Q1018.24 1475.44 1020.04 1479.01 Q1021.87 1482.55 1025.48 1482.55 Q1029.12 1482.55 1030.92 1479.01 Q1032.75 1475.44 1032.75 1468.33 Q1032.75 1461.2 1030.92 1457.66 Q1029.12 1454.1 1025.48 1454.1 M1025.48 1450.39 Q1031.29 1450.39 1034.35 1455 Q1037.43 1459.58 1037.43 1468.33 Q1037.43 1477.06 1034.35 1481.67 Q1031.29 1486.25 1025.48 1486.25 Q1019.67 1486.25 1016.59 1481.67 Q1013.54 1477.06 1013.54 1468.33 Q1013.54 1459.58 1016.59 1455 Q1019.67 1450.39 1025.48 1450.39 Z" fill="#000000" fill-rule="nonzero" fill-opacity="1" /><path clip-path="url(#clip690)" d="M1045.64 1479.7 L1050.53 1479.7 L1050.53 1485.58 L1045.64 1485.58 L1045.64 1479.7 Z" fill="#000000" fill-rule="nonzero" fill-opacity="1" /><path clip-path="url(#clip690)" d="M1064.74 1481.64 L1081.06 1481.64 L1081.06 1485.58 L1059.12 1485.58 L1059.12 1481.64 Q1061.78 1478.89 1066.36 1474.26 Q1070.97 1469.61 1072.15 1468.27 Q1074.39 1465.74 1075.27 1464.01 Q1076.18 1462.25 1076.18 1460.56 Q1076.18 1457.8 1074.23 1456.07 Q1072.31 1454.33 1069.21 1454.33 Q1067.01 1454.33 1064.56 1455.09 Q1062.13 1455.86 1059.35 1457.41 L1059.35 1452.69 Q1062.17 1451.55 1064.63 1450.97 Q1067.08 1450.39 1069.12 1450.39 Q1074.49 1450.39 1077.68 1453.08 Q1080.88 1455.77 1080.88 1460.26 Q1080.88 1462.39 1080.07 1464.31 Q1079.28 1466.2 1077.17 1468.8 Q1076.59 1469.47 1073.49 1472.69 Q1070.39 1475.88 1064.74 1481.64 Z" fill="#000000" fill-rule="nonzero" fill-opacity="1" /><path clip-path="url(#clip690)" d="M1439.44 1454.1 Q1435.83 1454.1 1434 1457.66 Q1432.19 1461.2 1432.19 1468.33 Q1432.19 1475.44 1434 1479.01 Q1435.83 1482.55 1439.44 1482.55 Q1443.07 1482.55 1444.88 1479.01 Q1446.71 1475.44 1446.71 1468.33 Q1446.71 1461.2 1444.88 1457.66 Q1443.07 1454.1 1439.44 1454.1 M1439.44 1450.39 Q1445.25 1450.39 1448.3 1455 Q1451.38 1459.58 1451.38 1468.33 Q1451.38 1477.06 1448.3 1481.67 Q1445.25 1486.25 1439.44 1486.25 Q1433.63 1486.25 1430.55 1481.67 Q1427.49 1477.06 1427.49 1468.33 Q1427.49 1459.58 1430.55 1455 Q1433.63 1450.39 1439.44 1450.39 Z" fill="#000000" fill-rule="nonzero" fill-opacity="1" /><path clip-path="url(#clip690)" d="M1459.6 1479.7 L1464.48 1479.7 L1464.48 1485.58 L1459.6 1485.58 L1459.6 1479.7 Z" fill="#000000" fill-rule="nonzero" fill-opacity="1" /><path clip-path="url(#clip690)" d="M1488.84 1466.95 Q1492.19 1467.66 1494.07 1469.93 Q1495.97 1472.2 1495.97 1475.53 Q1495.97 1480.65 1492.45 1483.45 Q1488.93 1486.25 1482.45 1486.25 Q1480.27 1486.25 1477.96 1485.81 Q1475.67 1485.39 1473.21 1484.54 L1473.21 1480.02 Q1475.16 1481.16 1477.47 1481.74 Q1479.79 1482.32 1482.31 1482.32 Q1486.71 1482.32 1489 1480.58 Q1491.31 1478.84 1491.31 1475.53 Q1491.31 1472.48 1489.16 1470.77 Q1487.03 1469.03 1483.21 1469.03 L1479.18 1469.03 L1479.18 1465.19 L1483.4 1465.19 Q1486.85 1465.19 1488.67 1463.82 Q1490.5 1462.43 1490.5 1459.84 Q1490.5 1457.18 1488.61 1455.77 Q1486.73 1454.33 1483.21 1454.33 Q1481.29 1454.33 1479.09 1454.75 Q1476.89 1455.16 1474.25 1456.04 L1474.25 1451.88 Q1476.92 1451.14 1479.23 1450.77 Q1481.57 1450.39 1483.63 1450.39 Q1488.95 1450.39 1492.05 1452.83 Q1495.16 1455.23 1495.16 1459.35 Q1495.16 1462.22 1493.51 1464.21 Q1491.87 1466.18 1488.84 1466.95 Z" fill="#000000" fill-rule="nonzero" fill-opacity="1" /><path clip-path="url(#clip690)" d="M1853.3 1454.1 Q1849.69 1454.1 1847.86 1457.66 Q1846.06 1461.2 1846.06 1468.33 Q1846.06 1475.44 1847.86 1479.01 Q1849.69 1482.55 1853.3 1482.55 Q1856.94 1482.55 1858.74 1479.01 Q1860.57 1475.44 1860.57 1468.33 Q1860.57 1461.2 1858.74 1457.66 Q1856.94 1454.1 1853.3 1454.1 M1853.3 1450.39 Q1859.11 1450.39 1862.17 1455 Q1865.25 1459.58 1865.25 1468.33 Q1865.25 1477.06 1862.17 1481.67 Q1859.11 1486.25 1853.3 1486.25 Q1847.49 1486.25 1844.41 1481.67 Q1841.36 1477.06 1841.36 1468.33 Q1841.36 1459.58 1844.41 1455 Q1847.49 1450.39 1853.3 1450.39 Z" fill="#000000" fill-rule="nonzero" fill-opacity="1" /><path clip-path="url(#clip690)" d="M1873.46 1479.7 L1878.35 1479.7 L1878.35 1485.58 L1873.46 1485.58 L1873.46 1479.7 Z" fill="#000000" fill-rule="nonzero" fill-opacity="1" /><path clip-path="url(#clip690)" d="M1901.38 1455.09 L1889.58 1473.54 L1901.38 1473.54 L1901.38 1455.09 M1900.15 1451.02 L1906.03 1451.02 L1906.03 1473.54 L1910.96 1473.54 L1910.96 1477.43 L1906.03 1477.43 L1906.03 1485.58 L1901.38 1485.58 L1901.38 1477.43 L1885.78 1477.43 L1885.78 1472.92 L1900.15 1451.02 Z" fill="#000000" fill-rule="nonzero" fill-opacity="1" /><path clip-path="url(#clip690)" d="M2268.47 1454.1 Q2264.86 1454.1 2263.03 1457.66 Q2261.23 1461.2 2261.23 1468.33 Q2261.23 1475.44 2263.03 1479.01 Q2264.86 1482.55 2268.47 1482.55 Q2272.11 1482.55 2273.91 1479.01 Q2275.74 1475.44 2275.74 1468.33 Q2275.74 1461.2 2273.91 1457.66 Q2272.11 1454.1 2268.47 1454.1 M2268.47 1450.39 Q2274.28 1450.39 2277.34 1455 Q2280.42 1459.58 2280.42 1468.33 Q2280.42 1477.06 2277.34 1481.67 Q2274.28 1486.25 2268.47 1486.25 Q2262.66 1486.25 2259.58 1481.67 Q2256.53 1477.06 2256.53 1468.33 Q2256.53 1459.58 2259.58 1455 Q2262.66 1450.39 2268.47 1450.39 Z" fill="#000000" fill-rule="nonzero" fill-opacity="1" /><path clip-path="url(#clip690)" d="M2288.64 1479.7 L2293.52 1479.7 L2293.52 1485.58 L2288.64 1485.58 L2288.64 1479.7 Z" fill="#000000" fill-rule="nonzero" fill-opacity="1" /><path clip-path="url(#clip690)" d="M2303.75 1451.02 L2322.11 1451.02 L2322.11 1454.96 L2308.03 1454.96 L2308.03 1463.43 Q2309.05 1463.08 2310.07 1462.92 Q2311.09 1462.73 2312.11 1462.73 Q2317.89 1462.73 2321.27 1465.9 Q2324.65 1469.08 2324.65 1474.49 Q2324.65 1480.07 2321.18 1483.17 Q2317.71 1486.25 2311.39 1486.25 Q2309.21 1486.25 2306.95 1485.88 Q2304.7 1485.51 2302.29 1484.77 L2302.29 1480.07 Q2304.38 1481.2 2306.6 1481.76 Q2308.82 1482.32 2311.3 1482.32 Q2315.3 1482.32 2317.64 1480.21 Q2319.98 1478.1 2319.98 1474.49 Q2319.98 1470.88 2317.64 1468.77 Q2315.3 1466.67 2311.3 1466.67 Q2309.42 1466.67 2307.55 1467.08 Q2305.7 1467.5 2303.75 1468.38 L2303.75 1451.02 Z" fill="#000000" fill-rule="nonzero" fill-opacity="1" /><path clip-path="url(#clip690)" d="M1259.72 1551.46 L1258.32 1544.11 Q1256.89 1536.57 1251.22 1536.57 Q1246.96 1536.57 1245.01 1540.07 Q1242.56 1544.46 1242.56 1550.25 Q1242.56 1557.25 1244.95 1560.6 Q1247.37 1564 1251.22 1564 Q1255.49 1564 1257.78 1557.22 L1259.72 1551.46 M1263 1541.72 L1266.15 1532.4 L1271.37 1532.4 L1264.84 1551.72 L1266.12 1558.69 Q1266.4 1560.25 1267.52 1561.55 Q1268.82 1563.08 1269.84 1563.08 L1272.64 1563.08 L1272.64 1568.04 L1269.14 1568.04 Q1266.15 1568.04 1263.47 1565.37 Q1262.17 1564.03 1261.63 1561.23 Q1260.16 1564.77 1257.17 1567.53 Q1255.77 1568.84 1251.22 1568.84 Q1243.74 1568.84 1240.11 1564 Q1236.39 1559 1236.39 1550.25 Q1236.39 1540.89 1240.43 1536.5 Q1244.92 1531.6 1251.22 1531.6 Q1261.12 1531.6 1263 1541.72 Z" fill="#000000" fill-rule="nonzero" fill-opacity="1" /><polyline clip-path="url(#clip690)" style="stroke:#000000; stroke-linecap:round; stroke-linejoin:round; stroke-width:4; stroke-opacity:1; fill:none" points="156.274,1423.18 156.274,123.472 "/>
<polyline clip-path="url(#clip690)" style="stroke:#000000; stroke-linecap:round; stroke-linejoin:round; stroke-width:4; stroke-opacity:1; fill:none" points="156.274,1129.23 175.172,1129.23 "/>
<polyline clip-path="url(#clip690)" style="stroke:#000000; stroke-linecap:round; stroke-linejoin:round; stroke-width:4; stroke-opacity:1; fill:none" points="156.274,801.568 175.172,801.568 "/>
<polyline clip-path="url(#clip690)" style="stroke:#000000; stroke-linecap:round; stroke-linejoin:round; stroke-width:4; stroke-opacity:1; fill:none" points="156.274,473.904 175.172,473.904 "/>
<polyline clip-path="url(#clip690)" style="stroke:#000000; stroke-linecap:round; stroke-linejoin:round; stroke-width:4; stroke-opacity:1; fill:none" points="156.274,146.24 175.172,146.24 "/>
<path clip-path="url(#clip690)" d="M62.9365 1115.03 Q59.3254 1115.03 57.4967 1118.6 Q55.6912 1122.14 55.6912 1129.27 Q55.6912 1136.37 57.4967 1139.94 Q59.3254 1143.48 62.9365 1143.48 Q66.5707 1143.48 68.3763 1139.94 Q70.205 1136.37 70.205 1129.27 Q70.205 1122.14 68.3763 1118.6 Q66.5707 1115.03 62.9365 1115.03 M62.9365 1111.33 Q68.7467 1111.33 71.8022 1115.93 Q74.8809 1120.52 74.8809 1129.27 Q74.8809 1137.99 71.8022 1142.6 Q68.7467 1147.18 62.9365 1147.18 Q57.1264 1147.18 54.0477 1142.6 Q50.9921 1137.99 50.9921 1129.27 Q50.9921 1120.52 54.0477 1115.93 Q57.1264 1111.33 62.9365 1111.33 Z" fill="#000000" fill-rule="nonzero" fill-opacity="1" /><path clip-path="url(#clip690)" d="M83.0984 1140.63 L87.9827 1140.63 L87.9827 1146.51 L83.0984 1146.51 L83.0984 1140.63 Z" fill="#000000" fill-rule="nonzero" fill-opacity="1" /><path clip-path="url(#clip690)" d="M108.746 1127.37 Q105.598 1127.37 103.746 1129.52 Q101.918 1131.67 101.918 1135.42 Q101.918 1139.15 103.746 1141.33 Q105.598 1143.48 108.746 1143.48 Q111.895 1143.48 113.723 1141.33 Q115.575 1139.15 115.575 1135.42 Q115.575 1131.67 113.723 1129.52 Q111.895 1127.37 108.746 1127.37 M118.029 1112.72 L118.029 1116.98 Q116.27 1116.14 114.464 1115.7 Q112.682 1115.26 110.922 1115.26 Q106.293 1115.26 103.839 1118.39 Q101.409 1121.51 101.061 1127.83 Q102.427 1125.82 104.487 1124.75 Q106.547 1123.67 109.024 1123.67 Q114.233 1123.67 117.242 1126.84 Q120.274 1129.98 120.274 1135.42 Q120.274 1140.75 117.126 1143.97 Q113.978 1147.18 108.746 1147.18 Q102.751 1147.18 99.5798 1142.6 Q96.4085 1137.99 96.4085 1129.27 Q96.4085 1121.07 100.297 1116.21 Q104.186 1111.33 110.737 1111.33 Q112.496 1111.33 114.279 1111.67 Q116.084 1112.02 118.029 1112.72 Z" fill="#000000" fill-rule="nonzero" fill-opacity="1" /><path clip-path="url(#clip690)" d="M63.1911 787.367 Q59.58 787.367 57.7513 790.932 Q55.9458 794.473 55.9458 801.603 Q55.9458 808.709 57.7513 812.274 Q59.58 815.816 63.1911 815.816 Q66.8254 815.816 68.6309 812.274 Q70.4596 808.709 70.4596 801.603 Q70.4596 794.473 68.6309 790.932 Q66.8254 787.367 63.1911 787.367 M63.1911 783.663 Q69.0013 783.663 72.0568 788.269 Q75.1355 792.853 75.1355 801.603 Q75.1355 810.33 72.0568 814.936 Q69.0013 819.519 63.1911 819.519 Q57.381 819.519 54.3023 814.936 Q51.2468 810.33 51.2468 801.603 Q51.2468 792.853 54.3023 788.269 Q57.381 783.663 63.1911 783.663 Z" fill="#000000" fill-rule="nonzero" fill-opacity="1" /><path clip-path="url(#clip690)" d="M83.3531 812.968 L88.2373 812.968 L88.2373 818.848 L83.3531 818.848 L83.3531 812.968 Z" fill="#000000" fill-rule="nonzero" fill-opacity="1" /><path clip-path="url(#clip690)" d="M108.422 802.436 Q105.089 802.436 103.168 804.218 Q101.27 806.001 101.27 809.126 Q101.27 812.251 103.168 814.033 Q105.089 815.816 108.422 815.816 Q111.756 815.816 113.677 814.033 Q115.598 812.228 115.598 809.126 Q115.598 806.001 113.677 804.218 Q111.779 802.436 108.422 802.436 M103.746 800.445 Q100.737 799.705 99.0474 797.644 Q97.3808 795.584 97.3808 792.621 Q97.3808 788.478 100.321 786.07 Q103.284 783.663 108.422 783.663 Q113.584 783.663 116.524 786.07 Q119.464 788.478 119.464 792.621 Q119.464 795.584 117.774 797.644 Q116.108 799.705 113.121 800.445 Q116.501 801.232 118.376 803.524 Q120.274 805.816 120.274 809.126 Q120.274 814.149 117.195 816.834 Q114.14 819.519 108.422 819.519 Q102.705 819.519 99.6261 816.834 Q96.5706 814.149 96.5706 809.126 Q96.5706 805.816 98.4687 803.524 Q100.367 801.232 103.746 800.445 M102.034 793.061 Q102.034 795.746 103.7 797.251 Q105.39 798.756 108.422 798.756 Q111.432 798.756 113.121 797.251 Q114.834 795.746 114.834 793.061 Q114.834 790.376 113.121 788.871 Q111.432 787.367 108.422 787.367 Q105.39 787.367 103.7 788.871 Q102.034 790.376 102.034 793.061 Z" fill="#000000" fill-rule="nonzero" fill-opacity="1" /><path clip-path="url(#clip690)" d="M53.9088 487.249 L61.5476 487.249 L61.5476 460.883 L53.2375 462.55 L53.2375 458.29 L61.5013 456.624 L66.1772 456.624 L66.1772 487.249 L73.8161 487.249 L73.8161 491.184 L53.9088 491.184 L53.9088 487.249 Z" fill="#000000" fill-rule="nonzero" fill-opacity="1" /><path clip-path="url(#clip690)" d="M83.2605 485.304 L88.1447 485.304 L88.1447 491.184 L83.2605 491.184 L83.2605 485.304 Z" fill="#000000" fill-rule="nonzero" fill-opacity="1" /><path clip-path="url(#clip690)" d="M108.33 459.702 Q104.719 459.702 102.89 463.267 Q101.084 466.809 101.084 473.939 Q101.084 481.045 102.89 484.61 Q104.719 488.151 108.33 488.151 Q111.964 488.151 113.77 484.61 Q115.598 481.045 115.598 473.939 Q115.598 466.809 113.77 463.267 Q111.964 459.702 108.33 459.702 M108.33 455.999 Q114.14 455.999 117.195 460.605 Q120.274 465.189 120.274 473.939 Q120.274 482.665 117.195 487.272 Q114.14 491.855 108.33 491.855 Q102.52 491.855 99.4409 487.272 Q96.3854 482.665 96.3854 473.939 Q96.3854 465.189 99.4409 460.605 Q102.52 455.999 108.33 455.999 Z" fill="#000000" fill-rule="nonzero" fill-opacity="1" /><path clip-path="url(#clip690)" d="M55.506 159.584 L63.1448 159.584 L63.1448 133.219 L54.8347 134.885 L54.8347 130.626 L63.0985 128.96 L67.7744 128.96 L67.7744 159.584 L75.4133 159.584 L75.4133 163.52 L55.506 163.52 L55.506 159.584 Z" fill="#000000" fill-rule="nonzero" fill-opacity="1" /><path clip-path="url(#clip690)" d="M84.8577 157.64 L89.7419 157.64 L89.7419 163.52 L84.8577 163.52 L84.8577 157.64 Z" fill="#000000" fill-rule="nonzero" fill-opacity="1" /><path clip-path="url(#clip690)" d="M103.955 159.584 L120.274 159.584 L120.274 163.52 L98.3298 163.52 L98.3298 159.584 Q100.992 156.83 105.575 152.2 Q110.182 147.547 111.362 146.205 Q113.608 143.682 114.487 141.946 Q115.39 140.186 115.39 138.497 Q115.39 135.742 113.445 134.006 Q111.524 132.27 108.422 132.27 Q106.223 132.27 103.77 133.034 Q101.339 133.798 98.5613 135.348 L98.5613 130.626 Q101.385 129.492 103.839 128.913 Q106.293 128.335 108.33 128.335 Q113.7 128.335 116.895 131.02 Q120.089 133.705 120.089 138.196 Q120.089 140.325 119.279 142.247 Q118.492 144.145 116.385 146.737 Q115.807 147.409 112.705 150.626 Q109.603 153.821 103.955 159.584 Z" fill="#000000" fill-rule="nonzero" fill-opacity="1" /><path clip-path="url(#clip690)" d="M873.649 44.2197 Q876.282 45.1109 878.753 48.0275 Q881.265 50.9442 883.776 56.0483 L892.081 72.576 L883.29 72.576 L875.553 57.061 Q872.555 50.9847 869.72 48.9997 Q866.925 47.0148 862.063 47.0148 L853.151 47.0148 L853.151 72.576 L844.969 72.576 L844.969 12.096 L863.441 12.096 Q873.811 12.096 878.915 16.4305 Q884.019 20.7649 884.019 29.5149 Q884.019 35.2267 881.346 38.994 Q878.713 42.7613 873.649 44.2197 M853.151 18.8205 L853.151 40.2903 L863.441 40.2903 Q869.355 40.2903 872.353 37.5762 Q875.391 34.8216 875.391 29.5149 Q875.391 24.2082 872.353 21.5346 Q869.355 18.8205 863.441 18.8205 L853.151 18.8205 Z" fill="#000000" fill-rule="nonzero" fill-opacity="1" /><path clip-path="url(#clip690)" d="M937.37 48.0275 L937.37 51.6733 L903.099 51.6733 Q903.585 59.3701 907.717 63.421 Q911.89 67.4314 919.303 67.4314 Q923.597 67.4314 927.607 66.3781 Q931.658 65.3249 935.628 63.2184 L935.628 70.267 Q931.617 71.9684 927.405 72.8596 Q923.192 73.7508 918.857 73.7508 Q908.001 73.7508 901.641 67.4314 Q895.321 61.1119 895.321 50.3365 Q895.321 39.1965 901.317 32.6746 Q907.353 26.1121 917.561 26.1121 Q926.716 26.1121 932.023 32.0264 Q937.37 37.9003 937.37 48.0275 M929.916 45.84 Q929.835 39.7232 926.473 36.0774 Q923.151 32.4315 917.642 32.4315 Q911.403 32.4315 907.636 35.9558 Q903.909 39.4801 903.342 45.8805 L929.916 45.84 Z" fill="#000000" fill-rule="nonzero" fill-opacity="1" /><path clip-path="url(#clip690)" d="M979.459 49.3643 Q979.459 41.2625 976.096 36.8065 Q972.775 32.3505 966.739 32.3505 Q960.743 32.3505 957.381 36.8065 Q954.059 41.2625 954.059 49.3643 Q954.059 57.4256 957.381 61.8816 Q960.743 66.3376 966.739 66.3376 Q972.775 66.3376 976.096 61.8816 Q979.459 57.4256 979.459 49.3643 M986.912 66.9452 Q986.912 78.5308 981.768 84.1616 Q976.623 89.8329 966.01 89.8329 Q962.08 89.8329 958.596 89.2252 Q955.113 88.6581 951.831 87.4428 L951.831 80.1917 Q955.113 81.9741 958.313 82.8248 Q961.513 83.6755 964.835 83.6755 Q972.167 83.6755 975.813 79.8271 Q979.459 76.0193 979.459 68.282 L979.459 64.5957 Q977.15 68.6061 973.544 70.5911 Q969.939 72.576 964.916 72.576 Q956.571 72.576 951.467 66.2161 Q946.363 59.8562 946.363 49.3643 Q946.363 38.832 951.467 32.472 Q956.571 26.1121 964.916 26.1121 Q969.939 26.1121 973.544 28.0971 Q977.15 30.082 979.459 34.0924 L979.459 27.2059 L986.912 27.2059 L986.912 66.9452 Z" fill="#000000" fill-rule="nonzero" fill-opacity="1" /><path clip-path="url(#clip690)" d="M1001.5 54.671 L1001.5 27.2059 L1008.95 27.2059 L1008.95 54.3874 Q1008.95 60.8284 1011.46 64.0691 Q1013.97 67.2693 1019 67.2693 Q1025.03 67.2693 1028.52 63.421 Q1032.04 59.5726 1032.04 52.9291 L1032.04 27.2059 L1039.49 27.2059 L1039.49 72.576 L1032.04 72.576 L1032.04 65.6084 Q1029.33 69.7404 1025.72 71.7658 Q1022.16 73.7508 1017.42 73.7508 Q1009.6 73.7508 1005.55 68.8897 Q1001.5 64.0286 1001.5 54.671 M1020.25 26.1121 L1020.25 26.1121 Z" fill="#000000" fill-rule="nonzero" fill-opacity="1" /><path clip-path="url(#clip690)" d="M1054.85 9.54393 L1062.3 9.54393 L1062.3 72.576 L1054.85 72.576 L1054.85 9.54393 Z" fill="#000000" fill-rule="nonzero" fill-opacity="1" /><path clip-path="url(#clip690)" d="M1098.51 49.7694 Q1089.48 49.7694 1086 51.8354 Q1082.51 53.9013 1082.51 58.8839 Q1082.51 62.8538 1085.11 65.2034 Q1087.74 67.5124 1092.24 67.5124 Q1098.43 67.5124 1102.16 63.1374 Q1105.93 58.7219 1105.93 51.4303 L1105.93 49.7694 L1098.51 49.7694 M1113.38 46.6907 L1113.38 72.576 L1105.93 72.576 L1105.93 65.6895 Q1103.38 69.8214 1099.57 71.8063 Q1095.76 73.7508 1090.25 73.7508 Q1083.28 73.7508 1079.15 69.8619 Q1075.06 65.9325 1075.06 59.3701 Q1075.06 51.7138 1080.16 47.825 Q1085.31 43.9361 1095.48 43.9361 L1105.93 43.9361 L1105.93 43.2069 Q1105.93 38.0623 1102.53 35.2672 Q1099.16 32.4315 1093.05 32.4315 Q1089.16 32.4315 1085.47 33.3632 Q1081.78 34.295 1078.38 36.1584 L1078.38 29.2718 Q1082.47 27.692 1086.32 26.9223 Q1090.17 26.1121 1093.82 26.1121 Q1103.66 26.1121 1108.52 31.2163 Q1113.38 36.3204 1113.38 46.6907 Z" fill="#000000" fill-rule="nonzero" fill-opacity="1" /><path clip-path="url(#clip690)" d="M1155.02 34.1734 Q1153.77 33.4443 1152.27 33.1202 Q1150.81 32.7556 1149.03 32.7556 Q1142.71 32.7556 1139.31 36.8875 Q1135.95 40.9789 1135.95 48.6757 L1135.95 72.576 L1128.45 72.576 L1128.45 27.2059 L1135.95 27.2059 L1135.95 34.2544 Q1138.29 30.1225 1142.06 28.1376 Q1145.83 26.1121 1151.22 26.1121 Q1151.99 26.1121 1152.92 26.2337 Q1153.85 26.3147 1154.98 26.5172 L1155.02 34.1734 Z" fill="#000000" fill-rule="nonzero" fill-opacity="1" /><path clip-path="url(#clip690)" d="M1162.84 27.2059 L1170.3 27.2059 L1170.3 72.576 L1162.84 72.576 L1162.84 27.2059 M1162.84 9.54393 L1170.3 9.54393 L1170.3 18.9825 L1162.84 18.9825 L1162.84 9.54393 Z" fill="#000000" fill-rule="nonzero" fill-opacity="1" /><path clip-path="url(#clip690)" d="M1182.65 27.2059 L1218.06 27.2059 L1218.06 34.0114 L1190.02 66.6212 L1218.06 66.6212 L1218.06 72.576 L1181.64 72.576 L1181.64 65.7705 L1209.67 33.1607 L1182.65 33.1607 L1182.65 27.2059 Z" fill="#000000" fill-rule="nonzero" fill-opacity="1" /><path clip-path="url(#clip690)" d="M1268.25 48.0275 L1268.25 51.6733 L1233.98 51.6733 Q1234.46 59.3701 1238.59 63.421 Q1242.77 67.4314 1250.18 67.4314 Q1254.47 67.4314 1258.48 66.3781 Q1262.54 65.3249 1266.51 63.2184 L1266.51 70.267 Q1262.5 71.9684 1258.28 72.8596 Q1254.07 73.7508 1249.73 73.7508 Q1238.88 73.7508 1232.52 67.4314 Q1226.2 61.1119 1226.2 50.3365 Q1226.2 39.1965 1232.19 32.6746 Q1238.23 26.1121 1248.44 26.1121 Q1257.59 26.1121 1262.9 32.0264 Q1268.25 37.9003 1268.25 48.0275 M1260.79 45.84 Q1260.71 39.7232 1257.35 36.0774 Q1254.03 32.4315 1248.52 32.4315 Q1242.28 32.4315 1238.51 35.9558 Q1234.79 39.4801 1234.22 45.8805 L1260.79 45.84 Z" fill="#000000" fill-rule="nonzero" fill-opacity="1" /><path clip-path="url(#clip690)" d="M1306.77 34.1734 Q1305.52 33.4443 1304.02 33.1202 Q1302.56 32.7556 1300.78 32.7556 Q1294.46 32.7556 1291.05 36.8875 Q1287.69 40.9789 1287.69 48.6757 L1287.69 72.576 L1280.2 72.576 L1280.2 27.2059 L1287.69 27.2059 L1287.69 34.2544 Q1290.04 30.1225 1293.81 28.1376 Q1297.58 26.1121 1302.96 26.1121 Q1303.73 26.1121 1304.67 26.2337 Q1305.6 26.3147 1306.73 26.5172 L1306.77 34.1734 Z" fill="#000000" fill-rule="nonzero" fill-opacity="1" /><path clip-path="url(#clip690)" d="M1340.96 9.54393 L1348.41 9.54393 L1348.41 72.576 L1340.96 72.576 L1340.96 9.54393 Z" fill="#000000" fill-rule="nonzero" fill-opacity="1" /><path clip-path="url(#clip690)" d="M1402.82 48.0275 L1402.82 51.6733 L1368.55 51.6733 Q1369.03 59.3701 1373.17 63.421 Q1377.34 67.4314 1384.75 67.4314 Q1389.05 67.4314 1393.06 66.3781 Q1397.11 65.3249 1401.08 63.2184 L1401.08 70.267 Q1397.07 71.9684 1392.85 72.8596 Q1388.64 73.7508 1384.31 73.7508 Q1373.45 73.7508 1367.09 67.4314 Q1360.77 61.1119 1360.77 50.3365 Q1360.77 39.1965 1366.77 32.6746 Q1372.8 26.1121 1383.01 26.1121 Q1392.16 26.1121 1397.47 32.0264 Q1402.82 37.9003 1402.82 48.0275 M1395.36 45.84 Q1395.28 39.7232 1391.92 36.0774 Q1388.6 32.4315 1383.09 32.4315 Q1376.85 32.4315 1373.09 35.9558 Q1369.36 39.4801 1368.79 45.8805 L1395.36 45.84 Z" fill="#000000" fill-rule="nonzero" fill-opacity="1" /><path clip-path="url(#clip690)" d="M1435.67 49.7694 Q1426.64 49.7694 1423.15 51.8354 Q1419.67 53.9013 1419.67 58.8839 Q1419.67 62.8538 1422.26 65.2034 Q1424.9 67.5124 1429.39 67.5124 Q1435.59 67.5124 1439.32 63.1374 Q1443.08 58.7219 1443.08 51.4303 L1443.08 49.7694 L1435.67 49.7694 M1450.54 46.6907 L1450.54 72.576 L1443.08 72.576 L1443.08 65.6895 Q1440.53 69.8214 1436.72 71.8063 Q1432.92 73.7508 1427.41 73.7508 Q1420.44 73.7508 1416.31 69.8619 Q1412.22 65.9325 1412.22 59.3701 Q1412.22 51.7138 1417.32 47.825 Q1422.47 43.9361 1432.63 43.9361 L1443.08 43.9361 L1443.08 43.2069 Q1443.08 38.0623 1439.68 35.2672 Q1436.32 32.4315 1430.2 32.4315 Q1426.31 32.4315 1422.63 33.3632 Q1418.94 34.295 1415.54 36.1584 L1415.54 29.2718 Q1419.63 27.692 1423.48 26.9223 Q1427.33 26.1121 1430.97 26.1121 Q1440.82 26.1121 1445.68 31.2163 Q1450.54 36.3204 1450.54 46.6907 Z" fill="#000000" fill-rule="nonzero" fill-opacity="1" /><path clip-path="url(#clip690)" d="M1492.18 34.1734 Q1490.93 33.4443 1489.43 33.1202 Q1487.97 32.7556 1486.19 32.7556 Q1479.87 32.7556 1476.46 36.8875 Q1473.1 40.9789 1473.1 48.6757 L1473.1 72.576 L1465.61 72.576 L1465.61 27.2059 L1473.1 27.2059 L1473.1 34.2544 Q1475.45 30.1225 1479.22 28.1376 Q1482.99 26.1121 1488.37 26.1121 Q1489.14 26.1121 1490.08 26.2337 Q1491.01 26.3147 1492.14 26.5172 L1492.18 34.1734 Z" fill="#000000" fill-rule="nonzero" fill-opacity="1" /><path clip-path="url(#clip690)" d="M1536.26 45.1919 L1536.26 72.576 L1528.8 72.576 L1528.8 45.4349 Q1528.8 38.994 1526.29 35.7938 Q1523.78 32.5936 1518.76 32.5936 Q1512.72 32.5936 1509.24 36.4419 Q1505.75 40.2903 1505.75 46.9338 L1505.75 72.576 L1498.26 72.576 L1498.26 27.2059 L1505.75 27.2059 L1505.75 34.2544 Q1508.43 30.163 1512.03 28.1376 Q1515.68 26.1121 1520.42 26.1121 Q1528.23 26.1121 1532.25 30.9732 Q1536.26 35.7938 1536.26 45.1919 Z" fill="#000000" fill-rule="nonzero" fill-opacity="1" /><path clip-path="url(#clip690)" d="M1551.12 27.2059 L1558.58 27.2059 L1558.58 72.576 L1551.12 72.576 L1551.12 27.2059 M1551.12 9.54393 L1558.58 9.54393 L1558.58 18.9825 L1551.12 18.9825 L1551.12 9.54393 Z" fill="#000000" fill-rule="nonzero" fill-opacity="1" /><path clip-path="url(#clip690)" d="M1611.89 45.1919 L1611.89 72.576 L1604.43 72.576 L1604.43 45.4349 Q1604.43 38.994 1601.92 35.7938 Q1599.41 32.5936 1594.39 32.5936 Q1588.35 32.5936 1584.87 36.4419 Q1581.38 40.2903 1581.38 46.9338 L1581.38 72.576 L1573.89 72.576 L1573.89 27.2059 L1581.38 27.2059 L1581.38 34.2544 Q1584.06 30.163 1587.66 28.1376 Q1591.31 26.1121 1596.05 26.1121 Q1603.87 26.1121 1607.88 30.9732 Q1611.89 35.7938 1611.89 45.1919 Z" fill="#000000" fill-rule="nonzero" fill-opacity="1" /><path clip-path="url(#clip690)" d="M1656.61 49.3643 Q1656.61 41.2625 1653.25 36.8065 Q1649.92 32.3505 1643.89 32.3505 Q1637.89 32.3505 1634.53 36.8065 Q1631.21 41.2625 1631.21 49.3643 Q1631.21 57.4256 1634.53 61.8816 Q1637.89 66.3376 1643.89 66.3376 Q1649.92 66.3376 1653.25 61.8816 Q1656.61 57.4256 1656.61 49.3643 M1664.06 66.9452 Q1664.06 78.5308 1658.92 84.1616 Q1653.77 89.8329 1643.16 89.8329 Q1639.23 89.8329 1635.75 89.2252 Q1632.26 88.6581 1628.98 87.4428 L1628.98 80.1917 Q1632.26 81.9741 1635.46 82.8248 Q1638.66 83.6755 1641.98 83.6755 Q1649.32 83.6755 1652.96 79.8271 Q1656.61 76.0193 1656.61 68.282 L1656.61 64.5957 Q1654.3 68.6061 1650.69 70.5911 Q1647.09 72.576 1642.07 72.576 Q1633.72 72.576 1628.62 66.2161 Q1623.51 59.8562 1623.51 49.3643 Q1623.51 38.832 1628.62 32.472 Q1633.72 26.1121 1642.07 26.1121 Q1647.09 26.1121 1650.69 28.0971 Q1654.3 30.082 1656.61 34.0924 L1656.61 27.2059 L1664.06 27.2059 L1664.06 66.9452 Z" fill="#000000" fill-rule="nonzero" fill-opacity="1" /><polyline clip-path="url(#clip692)" style="stroke:#009af9; stroke-linecap:round; stroke-linejoin:round; stroke-width:8; stroke-opacity:1; fill:none" points="218.439,1368.45 259.882,1370.45 301.325,1372.33 342.768,1374.09 384.211,1375.73 425.654,1377.26 467.097,1378.66 508.54,1379.95 549.983,1381.12 591.426,1382.18 632.869,1383.12 674.312,1383.94 715.755,1384.64 757.198,1385.22 798.641,1385.69 840.085,1386.04 881.528,1386.28 922.971,1386.39 964.414,1386.4 1005.86,1386.28 1047.3,1386.05 1088.74,1385.7 1130.19,1385.24 1171.63,1384.65 1213.07,1383.96 1254.52,1383.14 1295.96,1382.22 1337.4,1381.17 1378.84,1380.01 1420.29,1378.73 1461.73,1377.34 1503.17,1375.84 1544.62,1374.21 1586.06,1372.48 1627.5,1370.62 1668.95,1368.66 1710.39,1366.57 1751.83,1364.38 1793.27,1362.06 1834.72,1359.64 1876.16,1357.09 1917.6,1354.44 1959.05,1351.67 2000.49,1348.78 2041.93,1345.78 2083.38,1342.67 2124.82,1339.44 2166.26,1336.1 2207.71,1332.64 2249.15,1329.08 2290.59,1325.39 "/>
<polyline clip-path="url(#clip692)" style="stroke:#e26f46; stroke-linecap:round; stroke-linejoin:round; stroke-width:20; stroke-opacity:1; fill:none" stroke-dasharray="10, 20" points="632.869,160.256 674.17,176.272 714.175,191.299 752.929,205.401 790.473,218.637 826.849,231.063 862.096,242.731 896.252,253.687 929.354,263.978 961.436,273.645 992.532,282.728 1022.68,291.262 1051.9,299.282 1080.22,306.821 1107.69,313.907 1134.32,320.569 1160.14,326.834 1185.18,332.724 1209.47,338.264 1233.02,343.475 1255.86,348.377 1278.01,352.988 1299.5,357.327 1320.35,361.41 1340.57,365.251 1360.18,368.867 1379.21,372.27 1397.68,375.473 1415.59,378.489 1432.97,381.327 1449.84,384 1466.2,386.517 1482.08,388.887 1497.49,391.118 1512.44,393.22 1526.96,395.199 1541.04,397.064 1554.71,398.82 1567.98,400.474 1580.86,402.033 1593.36,403.501 1605.49,404.885 1617.26,406.188 1628.69,407.416 1639.79,408.574 1650.56,409.664 1661.02,410.692 1671.17,411.661 1681.03,412.574 1690.59,413.434 1699.88,414.245 1708.9,415.01 1717.66,415.73 1726.16,416.409 1734.41,417.05 1742.42,417.654 1750.21,418.223 1757.76,418.759 1765.1,419.265 1772.22,419.742 1779.14,420.192 1785.85,420.616 1792.38,421.016 1798.71,421.393 1804.86,421.749 1810.83,422.084 1816.63,422.4 1822.26,422.699 1827.73,422.98 1833.05,423.245 1838.2,423.495 1843.21,423.731 1848.08,423.954 1852.8,424.164 1857.39,424.362 1861.85,424.548 1866.18,424.724 1870.38,424.891 1874.47,425.047 1878.43,425.195 1882.28,425.335 1886.02,425.466 1889.66,425.59 1893.18,425.707 1896.61,425.818 1899.94,425.922 1903.17,426.02 1906.31,426.113 1909.37,426.2 1912.33,426.283 1915.21,426.361 1918,426.434 1920.72,426.504 1923.35,426.569 1925.92,426.631 1928.4,426.689 1930.82,426.744 1933.17,426.796 1935.45,426.845 1937.66,426.891 1939.82,426.934 1941.91,426.975 1943.94,427.014 1945.91,427.051 1947.82,427.085 1949.68,427.118 1951.49,427.148 1953.25,427.177 1954.95,427.205 1956.61,427.231 1958.22,427.255 1959.78,427.278 1961.3,427.3 1962.78,427.32 1964.21,427.339 1965.6,427.358 1966.95,427.375 1968.27,427.391 1969.54,427.406 1970.78,427.421 1971.99,427.434 1973.16,427.447 1974.3,427.459 1975.4,427.471 1976.47,427.482 1977.51,427.492 1978.53,427.502 1979.51,427.511 1980.46,427.519 1981.39,427.527 1982.29,427.535 1983.17,427.542 1984.02,427.549 1984.85,427.555 1985.65,427.561 1986.43,427.567 1987.19,427.573 1987.92,427.578 1988.64,427.582 1989.33,427.587 1990.01,427.591 1990.66,427.595 1991.3,427.599 1991.92,427.603 1992.52,427.606 1993.1,427.609 1993.67,427.612 1994.22,427.615 1994.76,427.618 1995.28,427.62 1995.78,427.623 1996.27,427.625 1996.75,427.627 1997.21,427.629 1997.66,427.631 1998.1,427.633 1998.52,427.635 1998.94,427.636 1999.34,427.638 1999.73,427.639 2000.11,427.641 2000.47,427.642 2000.83,427.643 2001.18,427.644 2001.51,427.645 2001.84,427.646 2002.16,427.647 2002.47,427.648 2002.77,427.649 2003.06,427.65 2003.34,427.65 2003.62,427.651 2003.89,427.652 2004.15,427.653 2004.4,427.653 2004.64,427.654 2004.88,427.654 2005.11,427.655 2005.34,427.655 2005.56,427.656 2005.77,427.656 2005.97,427.656 2006.17,427.657 2006.37,427.657 2006.56,427.658 2006.74,427.658 2006.92,427.658 2007.09,427.658 2007.26,427.659 2007.42,427.659 2007.58,427.659 2007.74,427.659 2007.89,427.66 2008.03,427.66 2008.18,427.66 2008.31,427.66 2008.45,427.66 2008.58,427.661 2008.7,427.661 2008.82,427.661 2008.94,427.661 2009.06,427.661 2009.17,427.661 2009.28,427.661 2009.39,427.661 2009.49,427.661 2009.59,427.662 2009.69,427.662 2009.78,427.662 2009.87,427.662 2009.96,427.662 2010.05,427.662 2010.13,427.662 2010.21,427.662 2010.29,427.662 2010.37,427.662 2010.45,427.662 2010.52,427.662 2010.59,427.662 2010.66,427.662 2010.73,427.662 2010.79,427.663 2010.85,427.663 2010.91,427.663 2010.97,427.663 2011.03,427.663 2011.09,427.663 2011.14,427.663 2011.2,427.663 2011.25,427.663 2011.3,427.663 2011.35,427.663 2011.39,427.663 2011.44,427.663 2011.48,427.663 2011.53,427.663 2011.57,427.663 "/>
<path clip-path="url(#clip690)" d="M229.49 322.316 L668.072 322.316 L668.072 166.796 L229.49 166.796  Z" fill="#ffffff" fill-rule="evenodd" fill-opacity="1"/>
<polyline clip-path="url(#clip690)" style="stroke:#000000; stroke-linecap:round; stroke-linejoin:round; stroke-width:4; stroke-opacity:1; fill:none" points="229.49,322.316 668.072,322.316 668.072,166.796 229.49,166.796 229.49,322.316 "/>
<polyline clip-path="url(#clip690)" style="stroke:#009af9; stroke-linecap:round; stroke-linejoin:round; stroke-width:8; stroke-opacity:1; fill:none" points="253.896,218.636 400.328,218.636 "/>
<path clip-path="url(#clip690)" d="M424.733 201.356 L431.701 201.356 L440.52 224.874 L449.386 201.356 L456.353 201.356 L456.353 235.916 L451.793 235.916 L451.793 205.569 L442.881 229.272 L438.182 229.272 L429.27 205.569 L429.27 235.916 L424.733 235.916 L424.733 201.356 Z" fill="#000000" fill-rule="nonzero" fill-opacity="1" /><path clip-path="url(#clip690)" d="M486.353 202.49 L486.353 207.05 Q483.691 205.777 481.33 205.152 Q478.969 204.527 476.77 204.527 Q472.95 204.527 470.867 206.008 Q468.807 207.49 468.807 210.221 Q468.807 212.513 470.173 213.694 Q471.561 214.851 475.404 215.569 L478.228 216.147 Q483.46 217.143 485.936 219.666 Q488.436 222.166 488.436 226.379 Q488.436 231.402 485.057 233.994 Q481.7 236.587 475.196 236.587 Q472.742 236.587 469.964 236.031 Q467.21 235.476 464.247 234.388 L464.247 229.573 Q467.094 231.17 469.825 231.981 Q472.557 232.791 475.196 232.791 Q479.2 232.791 481.376 231.217 Q483.552 229.643 483.552 226.726 Q483.552 224.18 481.978 222.744 Q480.427 221.309 476.862 220.592 L474.015 220.036 Q468.784 218.995 466.446 216.772 Q464.108 214.55 464.108 210.592 Q464.108 206.008 467.325 203.37 Q470.566 200.731 476.237 200.731 Q478.668 200.731 481.191 201.171 Q483.714 201.61 486.353 202.49 Z" fill="#000000" fill-rule="nonzero" fill-opacity="1" /><path clip-path="url(#clip690)" d="M495.728 201.356 L517.58 201.356 L517.58 205.291 L500.404 205.291 L500.404 215.522 L516.862 215.522 L516.862 219.457 L500.404 219.457 L500.404 231.981 L517.996 231.981 L517.996 235.916 L495.728 235.916 L495.728 201.356 Z" fill="#000000" fill-rule="nonzero" fill-opacity="1" /><path clip-path="url(#clip690)" d="M544.779 202.629 L544.779 209.99 L553.552 209.99 L553.552 213.3 L544.779 213.3 L544.779 227.374 Q544.779 230.545 545.635 231.448 Q546.515 232.351 549.177 232.351 L553.552 232.351 L553.552 235.916 L549.177 235.916 Q544.246 235.916 542.371 234.087 Q540.496 232.235 540.496 227.374 L540.496 213.3 L537.371 213.3 L537.371 209.99 L540.496 209.99 L540.496 202.629 L544.779 202.629 Z" fill="#000000" fill-rule="nonzero" fill-opacity="1" /><path clip-path="url(#clip690)" d="M581.329 221.888 L581.329 223.971 L561.746 223.971 Q562.024 228.369 564.385 230.684 Q566.769 232.976 571.005 232.976 Q573.459 232.976 575.751 232.374 Q578.066 231.772 580.334 230.569 L580.334 234.596 Q578.042 235.568 575.635 236.078 Q573.228 236.587 570.751 236.587 Q564.547 236.587 560.913 232.976 Q557.302 229.365 557.302 223.207 Q557.302 216.842 560.728 213.115 Q564.177 209.365 570.01 209.365 Q575.241 209.365 578.274 212.745 Q581.329 216.101 581.329 221.888 M577.07 220.638 Q577.024 217.143 575.103 215.059 Q573.204 212.976 570.056 212.976 Q566.492 212.976 564.339 214.99 Q562.209 217.004 561.885 220.661 L577.07 220.638 Z" fill="#000000" fill-rule="nonzero" fill-opacity="1" /><path clip-path="url(#clip690)" d="M604.848 210.754 L604.848 214.782 Q603.042 213.856 601.098 213.393 Q599.153 212.93 597.07 212.93 Q593.899 212.93 592.302 213.902 Q590.728 214.874 590.728 216.819 Q590.728 218.3 591.862 219.157 Q592.996 219.99 596.422 220.754 L597.88 221.078 Q602.417 222.05 604.315 223.832 Q606.237 225.592 606.237 228.763 Q606.237 232.374 603.366 234.481 Q600.519 236.587 595.519 236.587 Q593.436 236.587 591.167 236.17 Q588.922 235.777 586.422 234.967 L586.422 230.569 Q588.783 231.795 591.075 232.42 Q593.366 233.022 595.612 233.022 Q598.621 233.022 600.241 232.004 Q601.862 230.962 601.862 229.087 Q601.862 227.351 600.681 226.425 Q599.524 225.499 595.565 224.643 L594.084 224.295 Q590.126 223.462 588.366 221.749 Q586.607 220.013 586.607 217.004 Q586.607 213.346 589.2 211.356 Q591.792 209.365 596.561 209.365 Q598.922 209.365 601.005 209.712 Q603.089 210.059 604.848 210.754 Z" fill="#000000" fill-rule="nonzero" fill-opacity="1" /><path clip-path="url(#clip690)" d="M617.232 202.629 L617.232 209.99 L626.005 209.99 L626.005 213.3 L617.232 213.3 L617.232 227.374 Q617.232 230.545 618.088 231.448 Q618.968 232.351 621.63 232.351 L626.005 232.351 L626.005 235.916 L621.63 235.916 Q616.7 235.916 614.825 234.087 Q612.95 232.235 612.95 227.374 L612.95 213.3 L609.825 213.3 L609.825 209.99 L612.95 209.99 L612.95 202.629 L617.232 202.629 Z" fill="#000000" fill-rule="nonzero" fill-opacity="1" /><polyline clip-path="url(#clip690)" style="stroke:#e26f46; stroke-linecap:round; stroke-linejoin:round; stroke-width:20; stroke-opacity:1; fill:none" stroke-dasharray="10, 20" points="253.896,270.476 400.328,270.476 "/>
<path clip-path="url(#clip690)" d="M424.733 251.737 L428.992 251.737 L428.992 287.756 L424.733 287.756 L424.733 251.737 Z" fill="#000000" fill-rule="nonzero" fill-opacity="1" /><path clip-path="url(#clip690)" d="M460.08 273.728 L460.08 275.811 L440.497 275.811 Q440.775 280.209 443.136 282.524 Q445.52 284.816 449.756 284.816 Q452.21 284.816 454.501 284.214 Q456.816 283.612 459.085 282.409 L459.085 286.436 Q456.793 287.408 454.386 287.918 Q451.978 288.427 449.501 288.427 Q443.298 288.427 439.664 284.816 Q436.052 281.205 436.052 275.047 Q436.052 268.682 439.478 264.955 Q442.927 261.205 448.761 261.205 Q453.992 261.205 457.025 264.585 Q460.08 267.941 460.08 273.728 M455.821 272.478 Q455.775 268.983 453.853 266.899 Q451.955 264.816 448.807 264.816 Q445.242 264.816 443.089 266.83 Q440.96 268.844 440.636 272.501 L455.821 272.478 Z" fill="#000000" fill-rule="nonzero" fill-opacity="1" /><path clip-path="url(#clip690)" d="M478.853 274.723 Q473.691 274.723 471.7 275.904 Q469.71 277.084 469.71 279.932 Q469.71 282.2 471.191 283.543 Q472.696 284.862 475.265 284.862 Q478.807 284.862 480.936 282.362 Q483.089 279.839 483.089 275.672 L483.089 274.723 L478.853 274.723 M487.348 272.964 L487.348 287.756 L483.089 287.756 L483.089 283.821 Q481.631 286.182 479.455 287.316 Q477.279 288.427 474.131 288.427 Q470.149 288.427 467.788 286.205 Q465.45 283.959 465.45 280.209 Q465.45 275.834 468.367 273.612 Q471.307 271.39 477.117 271.39 L483.089 271.39 L483.089 270.973 Q483.089 268.034 481.145 266.436 Q479.223 264.816 475.728 264.816 Q473.506 264.816 471.399 265.348 Q469.293 265.881 467.349 266.946 L467.349 263.01 Q469.687 262.108 471.886 261.668 Q474.085 261.205 476.168 261.205 Q481.793 261.205 484.571 264.122 Q487.348 267.038 487.348 272.964 Z" fill="#000000" fill-rule="nonzero" fill-opacity="1" /><path clip-path="url(#clip690)" d="M511.145 265.811 Q510.427 265.395 509.571 265.21 Q508.737 265.001 507.719 265.001 Q504.108 265.001 502.163 267.362 Q500.242 269.7 500.242 274.098 L500.242 287.756 L495.96 287.756 L495.96 261.83 L500.242 261.83 L500.242 265.858 Q501.584 263.497 503.737 262.362 Q505.89 261.205 508.969 261.205 Q509.409 261.205 509.941 261.274 Q510.473 261.321 511.121 261.436 L511.145 265.811 Z" fill="#000000" fill-rule="nonzero" fill-opacity="1" /><path clip-path="url(#clip690)" d="M536.33 272.108 L536.33 287.756 L532.07 287.756 L532.07 272.247 Q532.07 268.566 530.635 266.737 Q529.2 264.909 526.33 264.909 Q522.881 264.909 520.89 267.108 Q518.899 269.307 518.899 273.103 L518.899 287.756 L514.617 287.756 L514.617 261.83 L518.899 261.83 L518.899 265.858 Q520.427 263.52 522.487 262.362 Q524.57 261.205 527.279 261.205 Q531.746 261.205 534.038 263.983 Q536.33 266.737 536.33 272.108 Z" fill="#000000" fill-rule="nonzero" fill-opacity="1" /><path clip-path="url(#clip690)" d="M567.001 273.728 L567.001 275.811 L547.418 275.811 Q547.695 280.209 550.056 282.524 Q552.441 284.816 556.677 284.816 Q559.13 284.816 561.422 284.214 Q563.737 283.612 566.005 282.409 L566.005 286.436 Q563.714 287.408 561.306 287.918 Q558.899 288.427 556.422 288.427 Q550.218 288.427 546.584 284.816 Q542.973 281.205 542.973 275.047 Q542.973 268.682 546.399 264.955 Q549.848 261.205 555.681 261.205 Q560.913 261.205 563.945 264.585 Q567.001 267.941 567.001 273.728 M562.742 272.478 Q562.695 268.983 560.774 266.899 Q558.876 264.816 555.728 264.816 Q552.163 264.816 550.01 266.83 Q547.881 268.844 547.556 272.501 L562.742 272.478 Z" fill="#000000" fill-rule="nonzero" fill-opacity="1" /><path clip-path="url(#clip690)" d="M591.052 265.765 L591.052 251.737 L595.311 251.737 L595.311 287.756 L591.052 287.756 L591.052 283.867 Q589.709 286.182 587.649 287.316 Q585.612 288.427 582.741 288.427 Q578.042 288.427 575.079 284.677 Q572.14 280.927 572.14 274.816 Q572.14 268.705 575.079 264.955 Q578.042 261.205 582.741 261.205 Q585.612 261.205 587.649 262.339 Q589.709 263.45 591.052 265.765 M576.538 274.816 Q576.538 279.515 578.459 282.2 Q580.404 284.862 583.783 284.862 Q587.163 284.862 589.107 282.2 Q591.052 279.515 591.052 274.816 Q591.052 270.117 589.107 267.455 Q587.163 264.77 583.783 264.77 Q580.404 264.77 578.459 267.455 Q576.538 270.117 576.538 274.816 Z" fill="#000000" fill-rule="nonzero" fill-opacity="1" /><path clip-path="url(#clip690)" d="M634.269 275.696 L633.25 270.348 Q632.209 264.862 628.088 264.862 Q624.987 264.862 623.575 267.409 Q621.792 270.603 621.792 274.816 Q621.792 279.909 623.528 282.339 Q625.288 284.816 628.088 284.816 Q631.19 284.816 632.857 279.885 L634.269 275.696 M636.653 268.612 L638.945 261.83 L642.741 261.83 L637.996 275.881 L638.922 280.95 Q639.13 282.084 639.94 283.034 Q640.889 284.145 641.63 284.145 L643.667 284.145 L643.667 287.756 L641.121 287.756 Q638.945 287.756 637 285.811 Q636.051 284.839 635.658 282.802 Q634.593 285.371 632.417 287.385 Q631.399 288.334 628.088 288.334 Q622.649 288.334 620.01 284.816 Q617.301 281.182 617.301 274.816 Q617.301 268.01 620.241 264.816 Q623.505 261.251 628.088 261.251 Q635.287 261.251 636.653 268.612 Z" fill="#000000" fill-rule="nonzero" fill-opacity="1" /></svg>
