<?xml version="1.0" encoding="utf-8"?>
<svg xmlns="http://www.w3.org/2000/svg" xmlns:xlink="http://www.w3.org/1999/xlink" width="600" height="400" viewBox="0 0 2400 1600">
<defs>
  <clipPath id="clip660">
    <rect x="0" y="0" width="2400" height="1600"/>
  </clipPath>
</defs>
<path clip-path="url(#clip660)" d="M0 1600 L2400 1600 L2400 0 L0 0  Z" fill="#ffffff" fill-rule="evenodd" fill-opacity="1"/>
<defs>
  <clipPath id="clip661">
    <rect x="480" y="0" width="1681" height="1600"/>
  </clipPath>
</defs>
<path clip-path="url(#clip660)" d="M279.704 1423.18 L2352.76 1423.18 L2352.76 123.472 L279.704 123.472  Z" fill="#ffffff" fill-rule="evenodd" fill-opacity="1"/>
<defs>
  <clipPath id="clip662">
    <rect x="279" y="123" width="2074" height="1301"/>
  </clipPath>
</defs>
<polyline clip-path="url(#clip662)" style="stroke:#000000; stroke-linecap:round; stroke-linejoin:round; stroke-width:2; stroke-opacity:0.1; fill:none" points="338.375,1423.18 338.375,123.472 "/>
<polyline clip-path="url(#clip662)" style="stroke:#000000; stroke-linecap:round; stroke-linejoin:round; stroke-width:2; stroke-opacity:0.1; fill:none" points="729.517,1423.18 729.517,123.472 "/>
<polyline clip-path="url(#clip662)" style="stroke:#000000; stroke-linecap:round; stroke-linejoin:round; stroke-width:2; stroke-opacity:0.1; fill:none" points="1120.66,1423.18 1120.66,123.472 "/>
<polyline clip-path="url(#clip662)" style="stroke:#000000; stroke-linecap:round; stroke-linejoin:round; stroke-width:2; stroke-opacity:0.1; fill:none" points="1511.8,1423.18 1511.8,123.472 "/>
<polyline clip-path="url(#clip662)" style="stroke:#000000; stroke-linecap:round; stroke-linejoin:round; stroke-width:2; stroke-opacity:0.1; fill:none" points="1902.94,1423.18 1902.94,123.472 "/>
<polyline clip-path="url(#clip662)" style="stroke:#000000; stroke-linecap:round; stroke-linejoin:round; stroke-width:2; stroke-opacity:0.1; fill:none" points="2294.08,1423.18 2294.08,123.472 "/>
<polyline clip-path="url(#clip662)" style="stroke:#000000; stroke-linecap:round; stroke-linejoin:round; stroke-width:2; stroke-opacity:0.1; fill:none" points="279.704,1306.94 2352.76,1306.94 "/>
<polyline clip-path="url(#clip662)" style="stroke:#000000; stroke-linecap:round; stroke-linejoin:round; stroke-width:2; stroke-opacity:0.1; fill:none" points="279.704,1046.56 2352.76,1046.56 "/>
<polyline clip-path="url(#clip662)" style="stroke:#000000; stroke-linecap:round; stroke-linejoin:round; stroke-width:2; stroke-opacity:0.1; fill:none" points="279.704,786.18 2352.76,786.18 "/>
<polyline clip-path="url(#clip662)" style="stroke:#000000; stroke-linecap:round; stroke-linejoin:round; stroke-width:2; stroke-opacity:0.1; fill:none" points="279.704,525.799 2352.76,525.799 "/>
<polyline clip-path="url(#clip662)" style="stroke:#000000; stroke-linecap:round; stroke-linejoin:round; stroke-width:2; stroke-opacity:0.1; fill:none" points="279.704,265.418 2352.76,265.418 "/>
<polyline clip-path="url(#clip660)" style="stroke:#000000; stroke-linecap:round; stroke-linejoin:round; stroke-width:4; stroke-opacity:1; fill:none" points="279.704,1423.18 2352.76,1423.18 "/>
<polyline clip-path="url(#clip660)" style="stroke:#000000; stroke-linecap:round; stroke-linejoin:round; stroke-width:4; stroke-opacity:1; fill:none" points="338.375,1423.18 338.375,1404.28 "/>
<polyline clip-path="url(#clip660)" style="stroke:#000000; stroke-linecap:round; stroke-linejoin:round; stroke-width:4; stroke-opacity:1; fill:none" points="729.517,1423.18 729.517,1404.28 "/>
<polyline clip-path="url(#clip660)" style="stroke:#000000; stroke-linecap:round; stroke-linejoin:round; stroke-width:4; stroke-opacity:1; fill:none" points="1120.66,1423.18 1120.66,1404.28 "/>
<polyline clip-path="url(#clip660)" style="stroke:#000000; stroke-linecap:round; stroke-linejoin:round; stroke-width:4; stroke-opacity:1; fill:none" points="1511.8,1423.18 1511.8,1404.28 "/>
<polyline clip-path="url(#clip660)" style="stroke:#000000; stroke-linecap:round; stroke-linejoin:round; stroke-width:4; stroke-opacity:1; fill:none" points="1902.94,1423.18 1902.94,1404.28 "/>
<polyline clip-path="url(#clip660)" style="stroke:#000000; stroke-linecap:round; stroke-linejoin:round; stroke-width:4; stroke-opacity:1; fill:none" points="2294.08,1423.18 2294.08,1404.28 "/>
<path clip-path="url(#clip660)" d="M315.76 1454.1 Q312.148 1454.1 310.32 1457.66 Q308.514 1461.2 308.514 1468.33 Q308.514 1475.44 310.32 1479.01 Q312.148 1482.55 315.76 1482.55 Q319.394 1482.55 321.199 1479.01 Q323.028 1475.44 323.028 1468.33 Q323.028 1461.2 321.199 1457.66 Q319.394 1454.1 315.76 1454.1 M315.76 1450.39 Q321.57 1450.39 324.625 1455 Q327.704 1459.58 327.704 1468.33 Q327.704 1477.06 324.625 1481.67 Q321.57 1486.25 315.76 1486.25 Q309.949 1486.25 306.871 1481.67 Q303.815 1477.06 303.815 1468.33 Q303.815 1459.58 306.871 1455 Q309.949 1450.39 315.76 1450.39 Z" fill="#000000" fill-rule="nonzero" fill-opacity="1" /><path clip-path="url(#clip660)" d="M335.922 1479.7 L340.806 1479.7 L340.806 1485.58 L335.922 1485.58 L335.922 1479.7 Z" fill="#000000" fill-rule="nonzero" fill-opacity="1" /><path clip-path="url(#clip660)" d="M360.991 1454.1 Q357.38 1454.1 355.551 1457.66 Q353.745 1461.2 353.745 1468.33 Q353.745 1475.44 355.551 1479.01 Q357.38 1482.55 360.991 1482.55 Q364.625 1482.55 366.431 1479.01 Q368.259 1475.44 368.259 1468.33 Q368.259 1461.2 366.431 1457.66 Q364.625 1454.1 360.991 1454.1 M360.991 1450.39 Q366.801 1450.39 369.857 1455 Q372.935 1459.58 372.935 1468.33 Q372.935 1477.06 369.857 1481.67 Q366.801 1486.25 360.991 1486.25 Q355.181 1486.25 352.102 1481.67 Q349.046 1477.06 349.046 1468.33 Q349.046 1459.58 352.102 1455 Q355.181 1450.39 360.991 1450.39 Z" fill="#000000" fill-rule="nonzero" fill-opacity="1" /><path clip-path="url(#clip660)" d="M707.515 1454.1 Q703.904 1454.1 702.075 1457.66 Q700.27 1461.2 700.27 1468.33 Q700.27 1475.44 702.075 1479.01 Q703.904 1482.55 707.515 1482.55 Q711.149 1482.55 712.955 1479.01 Q714.783 1475.44 714.783 1468.33 Q714.783 1461.2 712.955 1457.66 Q711.149 1454.1 707.515 1454.1 M707.515 1450.39 Q713.325 1450.39 716.381 1455 Q719.459 1459.58 719.459 1468.33 Q719.459 1477.06 716.381 1481.67 Q713.325 1486.25 707.515 1486.25 Q701.705 1486.25 698.626 1481.67 Q695.571 1477.06 695.571 1468.33 Q695.571 1459.58 698.626 1455 Q701.705 1450.39 707.515 1450.39 Z" fill="#000000" fill-rule="nonzero" fill-opacity="1" /><path clip-path="url(#clip660)" d="M727.677 1479.7 L732.561 1479.7 L732.561 1485.58 L727.677 1485.58 L727.677 1479.7 Z" fill="#000000" fill-rule="nonzero" fill-opacity="1" /><path clip-path="url(#clip660)" d="M743.556 1481.64 L751.195 1481.64 L751.195 1455.28 L742.885 1456.95 L742.885 1452.69 L751.149 1451.02 L755.825 1451.02 L755.825 1481.64 L763.464 1481.64 L763.464 1485.58 L743.556 1485.58 L743.556 1481.64 Z" fill="#000000" fill-rule="nonzero" fill-opacity="1" /><path clip-path="url(#clip660)" d="M1098.84 1454.1 Q1095.23 1454.1 1093.4 1457.66 Q1091.6 1461.2 1091.6 1468.33 Q1091.6 1475.44 1093.4 1479.01 Q1095.23 1482.55 1098.84 1482.55 Q1102.48 1482.55 1104.28 1479.01 Q1106.11 1475.44 1106.11 1468.33 Q1106.11 1461.2 1104.28 1457.66 Q1102.48 1454.1 1098.84 1454.1 M1098.84 1450.39 Q1104.65 1450.39 1107.71 1455 Q1110.79 1459.58 1110.79 1468.33 Q1110.79 1477.06 1107.71 1481.67 Q1104.65 1486.25 1098.84 1486.25 Q1093.03 1486.25 1089.95 1481.67 Q1086.9 1477.06 1086.9 1468.33 Q1086.9 1459.58 1089.95 1455 Q1093.03 1450.39 1098.84 1450.39 Z" fill="#000000" fill-rule="nonzero" fill-opacity="1" /><path clip-path="url(#clip660)" d="M1119 1479.7 L1123.89 1479.7 L1123.89 1485.58 L1119 1485.58 L1119 1479.7 Z" fill="#000000" fill-rule="nonzero" fill-opacity="1" /><path clip-path="url(#clip660)" d="M1138.1 1481.64 L1154.42 1481.64 L1154.42 1485.58 L1132.48 1485.58 L1132.48 1481.64 Q1135.14 1478.89 1139.72 1474.26 Q1144.33 1469.61 1145.51 1468.27 Q1147.75 1465.74 1148.63 1464.01 Q1149.54 1462.25 1149.54 1460.56 Q1149.54 1457.8 1147.59 1456.07 Q1145.67 1454.33 1142.57 1454.33 Q1140.37 1454.33 1137.92 1455.09 Q1135.49 1455.86 1132.71 1457.41 L1132.71 1452.69 Q1135.53 1451.55 1137.99 1450.97 Q1140.44 1450.39 1142.48 1450.39 Q1147.85 1450.39 1151.04 1453.08 Q1154.24 1455.77 1154.24 1460.26 Q1154.24 1462.39 1153.42 1464.31 Q1152.64 1466.2 1150.53 1468.8 Q1149.95 1469.47 1146.85 1472.69 Q1143.75 1475.88 1138.1 1481.64 Z" fill="#000000" fill-rule="nonzero" fill-opacity="1" /><path clip-path="url(#clip660)" d="M1489.51 1454.1 Q1485.9 1454.1 1484.07 1457.66 Q1482.26 1461.2 1482.26 1468.33 Q1482.26 1475.44 1484.07 1479.01 Q1485.9 1482.55 1489.51 1482.55 Q1493.14 1482.55 1494.95 1479.01 Q1496.78 1475.44 1496.78 1468.33 Q1496.78 1461.2 1494.95 1457.66 Q1493.14 1454.1 1489.51 1454.1 M1489.51 1450.39 Q1495.32 1450.39 1498.37 1455 Q1501.45 1459.58 1501.45 1468.33 Q1501.45 1477.06 1498.37 1481.67 Q1495.32 1486.25 1489.51 1486.25 Q1483.7 1486.25 1480.62 1481.67 Q1477.56 1477.06 1477.56 1468.33 Q1477.56 1459.58 1480.62 1455 Q1483.7 1450.39 1489.51 1450.39 Z" fill="#000000" fill-rule="nonzero" fill-opacity="1" /><path clip-path="url(#clip660)" d="M1509.67 1479.7 L1514.56 1479.7 L1514.56 1485.58 L1509.67 1485.58 L1509.67 1479.7 Z" fill="#000000" fill-rule="nonzero" fill-opacity="1" /><path clip-path="url(#clip660)" d="M1538.91 1466.95 Q1542.26 1467.66 1544.14 1469.93 Q1546.04 1472.2 1546.04 1475.53 Q1546.04 1480.65 1542.52 1483.45 Q1539 1486.25 1532.52 1486.25 Q1530.34 1486.25 1528.03 1485.81 Q1525.74 1485.39 1523.28 1484.54 L1523.28 1480.02 Q1525.23 1481.16 1527.54 1481.74 Q1529.86 1482.32 1532.38 1482.32 Q1536.78 1482.32 1539.07 1480.58 Q1541.38 1478.84 1541.38 1475.53 Q1541.38 1472.48 1539.23 1470.77 Q1537.1 1469.03 1533.28 1469.03 L1529.25 1469.03 L1529.25 1465.19 L1533.47 1465.19 Q1536.92 1465.19 1538.75 1463.82 Q1540.57 1462.43 1540.57 1459.84 Q1540.57 1457.18 1538.68 1455.77 Q1536.8 1454.33 1533.28 1454.33 Q1531.36 1454.33 1529.16 1454.75 Q1526.96 1455.16 1524.32 1456.04 L1524.32 1451.88 Q1526.99 1451.14 1529.3 1450.77 Q1531.64 1450.39 1533.7 1450.39 Q1539.02 1450.39 1542.12 1452.83 Q1545.23 1455.23 1545.23 1459.35 Q1545.23 1462.22 1543.58 1464.21 Q1541.94 1466.18 1538.91 1466.95 Z" fill="#000000" fill-rule="nonzero" fill-opacity="1" /><path clip-path="url(#clip660)" d="M1880.08 1454.1 Q1876.47 1454.1 1874.64 1457.66 Q1872.84 1461.2 1872.84 1468.33 Q1872.84 1475.44 1874.64 1479.01 Q1876.47 1482.55 1880.08 1482.55 Q1883.72 1482.55 1885.52 1479.01 Q1887.35 1475.44 1887.35 1468.33 Q1887.35 1461.2 1885.52 1457.66 Q1883.72 1454.1 1880.08 1454.1 M1880.08 1450.39 Q1885.89 1450.39 1888.95 1455 Q1892.03 1459.58 1892.03 1468.33 Q1892.03 1477.06 1888.95 1481.67 Q1885.89 1486.25 1880.08 1486.25 Q1874.27 1486.25 1871.2 1481.67 Q1868.14 1477.06 1868.14 1468.33 Q1868.14 1459.58 1871.2 1455 Q1874.27 1450.39 1880.08 1450.39 Z" fill="#000000" fill-rule="nonzero" fill-opacity="1" /><path clip-path="url(#clip660)" d="M1900.25 1479.7 L1905.13 1479.7 L1905.13 1485.58 L1900.25 1485.58 L1900.25 1479.7 Z" fill="#000000" fill-rule="nonzero" fill-opacity="1" /><path clip-path="url(#clip660)" d="M1928.16 1455.09 L1916.36 1473.54 L1928.16 1473.54 L1928.16 1455.09 M1926.94 1451.02 L1932.82 1451.02 L1932.82 1473.54 L1937.75 1473.54 L1937.75 1477.43 L1932.82 1477.43 L1932.82 1485.58 L1928.16 1485.58 L1928.16 1477.43 L1912.56 1477.43 L1912.56 1472.92 L1926.94 1451.02 Z" fill="#000000" fill-rule="nonzero" fill-opacity="1" /><path clip-path="url(#clip660)" d="M2271.97 1454.1 Q2268.36 1454.1 2266.53 1457.66 Q2264.72 1461.2 2264.72 1468.33 Q2264.72 1475.44 2266.53 1479.01 Q2268.36 1482.55 2271.97 1482.55 Q2275.6 1482.55 2277.41 1479.01 Q2279.24 1475.44 2279.24 1468.33 Q2279.24 1461.2 2277.41 1457.66 Q2275.6 1454.1 2271.97 1454.1 M2271.97 1450.39 Q2277.78 1450.39 2280.83 1455 Q2283.91 1459.58 2283.91 1468.33 Q2283.91 1477.06 2280.83 1481.67 Q2277.78 1486.25 2271.97 1486.25 Q2266.16 1486.25 2263.08 1481.67 Q2260.02 1477.06 2260.02 1468.33 Q2260.02 1459.58 2263.08 1455 Q2266.16 1450.39 2271.97 1450.39 Z" fill="#000000" fill-rule="nonzero" fill-opacity="1" /><path clip-path="url(#clip660)" d="M2292.13 1479.7 L2297.01 1479.7 L2297.01 1485.58 L2292.13 1485.58 L2292.13 1479.7 Z" fill="#000000" fill-rule="nonzero" fill-opacity="1" /><path clip-path="url(#clip660)" d="M2307.24 1451.02 L2325.6 1451.02 L2325.6 1454.96 L2311.53 1454.96 L2311.53 1463.43 Q2312.55 1463.08 2313.56 1462.92 Q2314.58 1462.73 2315.6 1462.73 Q2321.39 1462.73 2324.77 1465.9 Q2328.15 1469.08 2328.15 1474.49 Q2328.15 1480.07 2324.67 1483.17 Q2321.2 1486.25 2314.88 1486.25 Q2312.71 1486.25 2310.44 1485.88 Q2308.19 1485.51 2305.79 1484.77 L2305.79 1480.07 Q2307.87 1481.2 2310.09 1481.76 Q2312.31 1482.32 2314.79 1482.32 Q2318.8 1482.32 2321.13 1480.21 Q2323.47 1478.1 2323.47 1474.49 Q2323.47 1470.88 2321.13 1468.77 Q2318.8 1466.67 2314.79 1466.67 Q2312.92 1466.67 2311.04 1467.08 Q2309.19 1467.5 2307.24 1468.38 L2307.24 1451.02 Z" fill="#000000" fill-rule="nonzero" fill-opacity="1" /><path clip-path="url(#clip660)" d="M1321.43 1551.46 L1320.03 1544.11 Q1318.6 1536.57 1312.94 1536.57 Q1308.67 1536.57 1306.73 1540.07 Q1304.28 1544.46 1304.28 1550.25 Q1304.28 1557.25 1306.67 1560.6 Q1309.08 1564 1312.94 1564 Q1317.2 1564 1319.49 1557.22 L1321.43 1551.46 M1324.71 1541.72 L1327.86 1532.4 L1333.08 1532.4 L1326.56 1551.72 L1327.83 1558.69 Q1328.12 1560.25 1329.23 1561.55 Q1330.54 1563.08 1331.56 1563.08 L1334.36 1563.08 L1334.36 1568.04 L1330.86 1568.04 Q1327.86 1568.04 1325.19 1565.37 Q1323.88 1564.03 1323.34 1561.23 Q1321.88 1564.77 1318.89 1567.53 Q1317.49 1568.84 1312.94 1568.84 Q1305.46 1568.84 1301.83 1564 Q1298.1 1559 1298.1 1550.25 Q1298.1 1540.89 1302.15 1536.5 Q1306.63 1531.6 1312.94 1531.6 Q1322.83 1531.6 1324.71 1541.72 Z" fill="#000000" fill-rule="nonzero" fill-opacity="1" /><polyline clip-path="url(#clip660)" style="stroke:#000000; stroke-linecap:round; stroke-linejoin:round; stroke-width:4; stroke-opacity:1; fill:none" points="279.704,1423.18 279.704,123.472 "/>
<polyline clip-path="url(#clip660)" style="stroke:#000000; stroke-linecap:round; stroke-linejoin:round; stroke-width:4; stroke-opacity:1; fill:none" points="279.704,1306.94 298.602,1306.94 "/>
<polyline clip-path="url(#clip660)" style="stroke:#000000; stroke-linecap:round; stroke-linejoin:round; stroke-width:4; stroke-opacity:1; fill:none" points="279.704,1046.56 298.602,1046.56 "/>
<polyline clip-path="url(#clip660)" style="stroke:#000000; stroke-linecap:round; stroke-linejoin:round; stroke-width:4; stroke-opacity:1; fill:none" points="279.704,786.18 298.602,786.18 "/>
<polyline clip-path="url(#clip660)" style="stroke:#000000; stroke-linecap:round; stroke-linejoin:round; stroke-width:4; stroke-opacity:1; fill:none" points="279.704,525.799 298.602,525.799 "/>
<polyline clip-path="url(#clip660)" style="stroke:#000000; stroke-linecap:round; stroke-linejoin:round; stroke-width:4; stroke-opacity:1; fill:none" points="279.704,265.418 298.602,265.418 "/>
<path clip-path="url(#clip660)" d="M126.297 1292.74 Q122.686 1292.74 120.857 1296.31 Q119.052 1299.85 119.052 1306.98 Q119.052 1314.08 120.857 1317.65 Q122.686 1321.19 126.297 1321.19 Q129.931 1321.19 131.737 1317.65 Q133.566 1314.08 133.566 1306.98 Q133.566 1299.85 131.737 1296.31 Q129.931 1292.74 126.297 1292.74 M126.297 1289.04 Q132.107 1289.04 135.163 1293.64 Q138.242 1298.23 138.242 1306.98 Q138.242 1315.7 135.163 1320.31 Q132.107 1324.89 126.297 1324.89 Q120.487 1324.89 117.408 1320.31 Q114.353 1315.7 114.353 1306.98 Q114.353 1298.23 117.408 1293.64 Q120.487 1289.04 126.297 1289.04 Z" fill="#000000" fill-rule="nonzero" fill-opacity="1" /><path clip-path="url(#clip660)" d="M146.459 1318.34 L151.343 1318.34 L151.343 1324.22 L146.459 1324.22 L146.459 1318.34 Z" fill="#000000" fill-rule="nonzero" fill-opacity="1" /><path clip-path="url(#clip660)" d="M171.528 1292.74 Q167.917 1292.74 166.089 1296.31 Q164.283 1299.85 164.283 1306.98 Q164.283 1314.08 166.089 1317.65 Q167.917 1321.19 171.528 1321.19 Q175.163 1321.19 176.968 1317.65 Q178.797 1314.08 178.797 1306.98 Q178.797 1299.85 176.968 1296.31 Q175.163 1292.74 171.528 1292.74 M171.528 1289.04 Q177.339 1289.04 180.394 1293.64 Q183.473 1298.23 183.473 1306.98 Q183.473 1315.7 180.394 1320.31 Q177.339 1324.89 171.528 1324.89 Q165.718 1324.89 162.64 1320.31 Q159.584 1315.7 159.584 1306.98 Q159.584 1298.23 162.64 1293.64 Q165.718 1289.04 171.528 1289.04 Z" fill="#000000" fill-rule="nonzero" fill-opacity="1" /><path clip-path="url(#clip660)" d="M192.5 1320.29 L200.139 1320.29 L200.139 1293.92 L191.829 1295.59 L191.829 1291.33 L200.093 1289.66 L204.769 1289.66 L204.769 1320.29 L212.408 1320.29 L212.408 1324.22 L192.5 1324.22 L192.5 1320.29 Z" fill="#000000" fill-rule="nonzero" fill-opacity="1" /><path clip-path="url(#clip660)" d="M231.852 1307.81 Q228.519 1307.81 226.598 1309.59 Q224.699 1311.38 224.699 1314.5 Q224.699 1317.63 226.598 1319.41 Q228.519 1321.19 231.852 1321.19 Q235.185 1321.19 237.107 1319.41 Q239.028 1317.6 239.028 1314.5 Q239.028 1311.38 237.107 1309.59 Q235.209 1307.81 231.852 1307.81 M227.176 1305.82 Q224.167 1305.08 222.477 1303.02 Q220.811 1300.96 220.811 1298 Q220.811 1293.85 223.75 1291.44 Q226.713 1289.04 231.852 1289.04 Q237.014 1289.04 239.954 1291.44 Q242.894 1293.85 242.894 1298 Q242.894 1300.96 241.204 1303.02 Q239.537 1305.08 236.551 1305.82 Q239.931 1306.61 241.806 1308.9 Q243.704 1311.19 243.704 1314.5 Q243.704 1319.52 240.625 1322.21 Q237.57 1324.89 231.852 1324.89 Q226.135 1324.89 223.056 1322.21 Q220 1319.52 220 1314.5 Q220 1311.19 221.898 1308.9 Q223.797 1306.61 227.176 1305.82 M225.463 1298.44 Q225.463 1301.12 227.13 1302.63 Q228.82 1304.13 231.852 1304.13 Q234.861 1304.13 236.551 1302.63 Q238.264 1301.12 238.264 1298.44 Q238.264 1295.75 236.551 1294.25 Q234.861 1292.74 231.852 1292.74 Q228.82 1292.74 227.13 1294.25 Q225.463 1295.75 225.463 1298.44 Z" fill="#000000" fill-rule="nonzero" fill-opacity="1" /><path clip-path="url(#clip660)" d="M126.39 1032.36 Q122.779 1032.36 120.95 1035.92 Q119.144 1039.47 119.144 1046.6 Q119.144 1053.7 120.95 1057.27 Q122.779 1060.81 126.39 1060.81 Q130.024 1060.81 131.83 1057.27 Q133.658 1053.7 133.658 1046.6 Q133.658 1039.47 131.83 1035.92 Q130.024 1032.36 126.39 1032.36 M126.39 1028.66 Q132.2 1028.66 135.255 1033.26 Q138.334 1037.85 138.334 1046.6 Q138.334 1055.32 135.255 1059.93 Q132.2 1064.51 126.39 1064.51 Q120.58 1064.51 117.501 1059.93 Q114.445 1055.32 114.445 1046.6 Q114.445 1037.85 117.501 1033.26 Q120.58 1028.66 126.39 1028.66 Z" fill="#000000" fill-rule="nonzero" fill-opacity="1" /><path clip-path="url(#clip660)" d="M146.552 1057.96 L151.436 1057.96 L151.436 1063.84 L146.552 1063.84 L146.552 1057.96 Z" fill="#000000" fill-rule="nonzero" fill-opacity="1" /><path clip-path="url(#clip660)" d="M171.621 1032.36 Q168.01 1032.36 166.181 1035.92 Q164.376 1039.47 164.376 1046.6 Q164.376 1053.7 166.181 1057.27 Q168.01 1060.81 171.621 1060.81 Q175.255 1060.81 177.061 1057.27 Q178.889 1053.7 178.889 1046.6 Q178.889 1039.47 177.061 1035.92 Q175.255 1032.36 171.621 1032.36 M171.621 1028.66 Q177.431 1028.66 180.487 1033.26 Q183.565 1037.85 183.565 1046.6 Q183.565 1055.32 180.487 1059.93 Q177.431 1064.51 171.621 1064.51 Q165.811 1064.51 162.732 1059.93 Q159.677 1055.32 159.677 1046.6 Q159.677 1037.85 162.732 1033.26 Q165.811 1028.66 171.621 1028.66 Z" fill="#000000" fill-rule="nonzero" fill-opacity="1" /><path clip-path="url(#clip660)" d="M192.593 1059.91 L200.232 1059.91 L200.232 1033.54 L191.922 1035.21 L191.922 1030.95 L200.186 1029.28 L204.862 1029.28 L204.862 1059.91 L212.5 1059.91 L212.5 1063.84 L192.593 1063.84 L192.593 1059.91 Z" fill="#000000" fill-rule="nonzero" fill-opacity="1" /><path clip-path="url(#clip660)" d="M222.084 1063.12 L222.084 1058.86 Q223.843 1059.7 225.648 1060.14 Q227.454 1060.58 229.19 1060.58 Q233.82 1060.58 236.25 1057.48 Q238.704 1054.35 239.051 1048.01 Q237.709 1050 235.648 1051.06 Q233.588 1052.13 231.088 1052.13 Q225.903 1052.13 222.871 1049 Q219.861 1045.86 219.861 1040.42 Q219.861 1035.09 223.01 1031.87 Q226.158 1028.66 231.389 1028.66 Q237.384 1028.66 240.533 1033.26 Q243.704 1037.85 243.704 1046.6 Q243.704 1054.77 239.815 1059.65 Q235.949 1064.51 229.398 1064.51 Q227.639 1064.51 225.834 1064.17 Q224.028 1063.82 222.084 1063.12 M231.389 1048.47 Q234.537 1048.47 236.366 1046.32 Q238.218 1044.17 238.218 1040.42 Q238.218 1036.69 236.366 1034.54 Q234.537 1032.36 231.389 1032.36 Q228.241 1032.36 226.389 1034.54 Q224.56 1036.69 224.56 1040.42 Q224.56 1044.17 226.389 1046.32 Q228.241 1048.47 231.389 1048.47 Z" fill="#000000" fill-rule="nonzero" fill-opacity="1" /><path clip-path="url(#clip660)" d="M126.205 771.979 Q122.593 771.979 120.765 775.543 Q118.959 779.085 118.959 786.215 Q118.959 793.321 120.765 796.886 Q122.593 800.427 126.205 800.427 Q129.839 800.427 131.644 796.886 Q133.473 793.321 133.473 786.215 Q133.473 779.085 131.644 775.543 Q129.839 771.979 126.205 771.979 M126.205 768.275 Q132.015 768.275 135.07 772.881 Q138.149 777.465 138.149 786.215 Q138.149 794.941 135.07 799.548 Q132.015 804.131 126.205 804.131 Q120.394 804.131 117.316 799.548 Q114.26 794.941 114.26 786.215 Q114.26 777.465 117.316 772.881 Q120.394 768.275 126.205 768.275 Z" fill="#000000" fill-rule="nonzero" fill-opacity="1" /><path clip-path="url(#clip660)" d="M146.366 797.58 L151.251 797.58 L151.251 803.46 L146.366 803.46 L146.366 797.58 Z" fill="#000000" fill-rule="nonzero" fill-opacity="1" /><path clip-path="url(#clip660)" d="M171.436 771.979 Q167.825 771.979 165.996 775.543 Q164.19 779.085 164.19 786.215 Q164.19 793.321 165.996 796.886 Q167.825 800.427 171.436 800.427 Q175.07 800.427 176.876 796.886 Q178.704 793.321 178.704 786.215 Q178.704 779.085 176.876 775.543 Q175.07 771.979 171.436 771.979 M171.436 768.275 Q177.246 768.275 180.301 772.881 Q183.38 777.465 183.38 786.215 Q183.38 794.941 180.301 799.548 Q177.246 804.131 171.436 804.131 Q165.626 804.131 162.547 799.548 Q159.491 794.941 159.491 786.215 Q159.491 777.465 162.547 772.881 Q165.626 768.275 171.436 768.275 Z" fill="#000000" fill-rule="nonzero" fill-opacity="1" /><path clip-path="url(#clip660)" d="M195.625 799.525 L211.945 799.525 L211.945 803.46 L190 803.46 L190 799.525 Q192.663 796.77 197.246 792.14 Q201.852 787.488 203.033 786.145 Q205.278 783.622 206.158 781.886 Q207.061 780.127 207.061 778.437 Q207.061 775.682 205.116 773.946 Q203.195 772.21 200.093 772.21 Q197.894 772.21 195.44 772.974 Q193.01 773.738 190.232 775.289 L190.232 770.567 Q193.056 769.432 195.51 768.854 Q197.963 768.275 200 768.275 Q205.371 768.275 208.565 770.96 Q211.76 773.645 211.76 778.136 Q211.76 780.266 210.949 782.187 Q210.162 784.085 208.056 786.678 Q207.477 787.349 204.375 790.566 Q201.274 793.761 195.625 799.525 Z" fill="#000000" fill-rule="nonzero" fill-opacity="1" /><path clip-path="url(#clip660)" d="M231.76 771.979 Q228.148 771.979 226.32 775.543 Q224.514 779.085 224.514 786.215 Q224.514 793.321 226.32 796.886 Q228.148 800.427 231.76 800.427 Q235.394 800.427 237.199 796.886 Q239.028 793.321 239.028 786.215 Q239.028 779.085 237.199 775.543 Q235.394 771.979 231.76 771.979 M231.76 768.275 Q237.57 768.275 240.625 772.881 Q243.704 777.465 243.704 786.215 Q243.704 794.941 240.625 799.548 Q237.57 804.131 231.76 804.131 Q225.949 804.131 222.871 799.548 Q219.815 794.941 219.815 786.215 Q219.815 777.465 222.871 772.881 Q225.949 768.275 231.76 768.275 Z" fill="#000000" fill-rule="nonzero" fill-opacity="1" /><path clip-path="url(#clip660)" d="M127.431 511.597 Q123.82 511.597 121.992 515.162 Q120.186 518.704 120.186 525.833 Q120.186 532.94 121.992 536.505 Q123.82 540.046 127.431 540.046 Q131.066 540.046 132.871 536.505 Q134.7 532.94 134.7 525.833 Q134.7 518.704 132.871 515.162 Q131.066 511.597 127.431 511.597 M127.431 507.894 Q133.242 507.894 136.297 512.5 Q139.376 517.083 139.376 525.833 Q139.376 534.56 136.297 539.167 Q133.242 543.75 127.431 543.75 Q121.621 543.75 118.543 539.167 Q115.487 534.56 115.487 525.833 Q115.487 517.083 118.543 512.5 Q121.621 507.894 127.431 507.894 Z" fill="#000000" fill-rule="nonzero" fill-opacity="1" /><path clip-path="url(#clip660)" d="M147.593 537.199 L152.478 537.199 L152.478 543.079 L147.593 543.079 L147.593 537.199 Z" fill="#000000" fill-rule="nonzero" fill-opacity="1" /><path clip-path="url(#clip660)" d="M172.663 511.597 Q169.052 511.597 167.223 515.162 Q165.417 518.704 165.417 525.833 Q165.417 532.94 167.223 536.505 Q169.052 540.046 172.663 540.046 Q176.297 540.046 178.102 536.505 Q179.931 532.94 179.931 525.833 Q179.931 518.704 178.102 515.162 Q176.297 511.597 172.663 511.597 M172.663 507.894 Q178.473 507.894 181.528 512.5 Q184.607 517.083 184.607 525.833 Q184.607 534.56 181.528 539.167 Q178.473 543.75 172.663 543.75 Q166.852 543.75 163.774 539.167 Q160.718 534.56 160.718 525.833 Q160.718 517.083 163.774 512.5 Q166.852 507.894 172.663 507.894 Z" fill="#000000" fill-rule="nonzero" fill-opacity="1" /><path clip-path="url(#clip660)" d="M196.852 539.144 L213.172 539.144 L213.172 543.079 L191.227 543.079 L191.227 539.144 Q193.889 536.389 198.473 531.759 Q203.079 527.107 204.26 525.764 Q206.505 523.241 207.385 521.505 Q208.287 519.745 208.287 518.056 Q208.287 515.301 206.343 513.565 Q204.422 511.829 201.32 511.829 Q199.121 511.829 196.667 512.593 Q194.237 513.357 191.459 514.908 L191.459 510.185 Q194.283 509.051 196.737 508.472 Q199.19 507.894 201.227 507.894 Q206.598 507.894 209.792 510.579 Q212.986 513.264 212.986 517.755 Q212.986 519.884 212.176 521.806 Q211.389 523.704 209.283 526.296 Q208.704 526.968 205.602 530.185 Q202.5 533.38 196.852 539.144 Z" fill="#000000" fill-rule="nonzero" fill-opacity="1" /><path clip-path="url(#clip660)" d="M223.797 539.144 L231.435 539.144 L231.435 512.778 L223.125 514.445 L223.125 510.185 L231.389 508.519 L236.065 508.519 L236.065 539.144 L243.704 539.144 L243.704 543.079 L223.797 543.079 L223.797 539.144 Z" fill="#000000" fill-rule="nonzero" fill-opacity="1" /><path clip-path="url(#clip660)" d="M127.802 251.216 Q124.191 251.216 122.362 254.781 Q120.556 258.323 120.556 265.452 Q120.556 272.559 122.362 276.123 Q124.191 279.665 127.802 279.665 Q131.436 279.665 133.242 276.123 Q135.07 272.559 135.07 265.452 Q135.07 258.323 133.242 254.781 Q131.436 251.216 127.802 251.216 M127.802 247.513 Q133.612 247.513 136.667 252.119 Q139.746 256.702 139.746 265.452 Q139.746 274.179 136.667 278.786 Q133.612 283.369 127.802 283.369 Q121.992 283.369 118.913 278.786 Q115.857 274.179 115.857 265.452 Q115.857 256.702 118.913 252.119 Q121.992 247.513 127.802 247.513 Z" fill="#000000" fill-rule="nonzero" fill-opacity="1" /><path clip-path="url(#clip660)" d="M147.964 276.818 L152.848 276.818 L152.848 282.698 L147.964 282.698 L147.964 276.818 Z" fill="#000000" fill-rule="nonzero" fill-opacity="1" /><path clip-path="url(#clip660)" d="M173.033 251.216 Q169.422 251.216 167.593 254.781 Q165.788 258.323 165.788 265.452 Q165.788 272.559 167.593 276.123 Q169.422 279.665 173.033 279.665 Q176.667 279.665 178.473 276.123 Q180.301 272.559 180.301 265.452 Q180.301 258.323 178.473 254.781 Q176.667 251.216 173.033 251.216 M173.033 247.513 Q178.843 247.513 181.899 252.119 Q184.977 256.702 184.977 265.452 Q184.977 274.179 181.899 278.786 Q178.843 283.369 173.033 283.369 Q167.223 283.369 164.144 278.786 Q161.089 274.179 161.089 265.452 Q161.089 256.702 164.144 252.119 Q167.223 247.513 173.033 247.513 Z" fill="#000000" fill-rule="nonzero" fill-opacity="1" /><path clip-path="url(#clip660)" d="M197.223 278.762 L213.542 278.762 L213.542 282.698 L191.598 282.698 L191.598 278.762 Q194.26 276.008 198.843 271.378 Q203.449 266.725 204.63 265.383 Q206.875 262.86 207.755 261.124 Q208.658 259.364 208.658 257.675 Q208.658 254.92 206.713 253.184 Q204.792 251.448 201.69 251.448 Q199.491 251.448 197.037 252.212 Q194.607 252.975 191.829 254.526 L191.829 249.804 Q194.653 248.67 197.107 248.091 Q199.561 247.513 201.598 247.513 Q206.968 247.513 210.162 250.198 Q213.357 252.883 213.357 257.374 Q213.357 259.503 212.547 261.424 Q211.76 263.323 209.653 265.915 Q209.074 266.586 205.973 269.804 Q202.871 272.999 197.223 278.762 Z" fill="#000000" fill-rule="nonzero" fill-opacity="1" /><path clip-path="url(#clip660)" d="M227.385 278.762 L243.704 278.762 L243.704 282.698 L221.76 282.698 L221.76 278.762 Q224.422 276.008 229.005 271.378 Q233.611 266.725 234.792 265.383 Q237.037 262.86 237.917 261.124 Q238.82 259.364 238.82 257.675 Q238.82 254.92 236.875 253.184 Q234.954 251.448 231.852 251.448 Q229.653 251.448 227.199 252.212 Q224.769 252.975 221.991 254.526 L221.991 249.804 Q224.815 248.67 227.269 248.091 Q229.723 247.513 231.76 247.513 Q237.13 247.513 240.324 250.198 Q243.519 252.883 243.519 257.374 Q243.519 259.503 242.709 261.424 Q241.922 263.323 239.815 265.915 Q239.236 266.586 236.135 269.804 Q233.033 272.999 227.385 278.762 Z" fill="#000000" fill-rule="nonzero" fill-opacity="1" /><path clip-path="url(#clip660)" d="M16.4842 837.445 L16.4842 827.864 L48.8219 815.738 L16.4842 803.547 L16.4842 793.967 L64.0042 793.967 L64.0042 800.237 L22.277 800.237 L54.8694 812.491 L54.8694 818.952 L22.277 831.206 L64.0042 831.206 L64.0042 837.445 L16.4842 837.445 Z" fill="#000000" fill-rule="nonzero" fill-opacity="1" /><path clip-path="url(#clip660)" d="M18.0438 752.717 L24.314 752.717 Q22.5634 756.377 21.704 759.624 Q20.8447 762.87 20.8447 765.894 Q20.8447 771.146 22.8817 774.01 Q24.9187 776.843 28.6745 776.843 Q31.8255 776.843 33.4488 774.965 Q35.0402 773.055 36.0269 767.772 L36.8226 763.889 Q38.1912 756.696 41.6605 753.29 Q45.098 749.852 50.8908 749.852 Q57.7976 749.852 61.3624 754.499 Q64.9272 759.115 64.9272 768.058 Q64.9272 771.432 64.1633 775.252 Q63.3994 779.039 61.9035 783.113 L55.2831 783.113 Q57.4793 779.198 58.5933 775.443 Q59.7073 771.687 59.7073 768.058 Q59.7073 762.552 57.543 759.56 Q55.3786 756.568 51.3682 756.568 Q47.8671 756.568 45.8937 758.733 Q43.9204 760.865 42.9337 765.767 L42.1698 769.682 Q40.7375 776.875 37.682 780.09 Q34.6264 783.304 29.1837 783.304 Q22.8817 783.304 19.2532 778.88 Q15.6248 774.424 15.6248 766.626 Q15.6248 763.284 16.2295 759.815 Q16.8343 756.345 18.0438 752.717 Z" fill="#000000" fill-rule="nonzero" fill-opacity="1" /><path clip-path="url(#clip660)" d="M16.4842 739.826 L16.4842 709.78 L21.895 709.78 L21.895 733.397 L35.9632 733.397 L35.9632 710.767 L41.3741 710.767 L41.3741 733.397 L58.5933 733.397 L58.5933 709.207 L64.0042 709.207 L64.0042 739.826 L16.4842 739.826 Z" fill="#000000" fill-rule="nonzero" fill-opacity="1" /><path clip-path="url(#clip660)" d="M400.422 12.096 L411.44 12.096 L438.257 62.6918 L438.257 12.096 L446.197 12.096 L446.197 72.576 L435.178 72.576 L408.362 21.9802 L408.362 72.576 L400.422 72.576 L400.422 12.096 Z" fill="#000000" fill-rule="nonzero" fill-opacity="1" /><path clip-path="url(#clip660)" d="M479.738 32.4315 Q473.743 32.4315 470.259 37.1306 Q466.776 41.7891 466.776 49.9314 Q466.776 58.0738 470.219 62.7728 Q473.703 67.4314 479.738 67.4314 Q485.693 67.4314 489.177 62.7323 Q492.661 58.0333 492.661 49.9314 Q492.661 41.8701 489.177 37.1711 Q485.693 32.4315 479.738 32.4315 M479.738 26.1121 Q489.461 26.1121 495.01 32.4315 Q500.56 38.7509 500.56 49.9314 Q500.56 61.0714 495.01 67.4314 Q489.461 73.7508 479.738 73.7508 Q469.976 73.7508 464.426 67.4314 Q458.917 61.0714 458.917 49.9314 Q458.917 38.7509 464.426 32.4315 Q469.976 26.1121 479.738 26.1121 Z" fill="#000000" fill-rule="nonzero" fill-opacity="1" /><path clip-path="url(#clip660)" d="M539.206 34.1734 Q537.95 33.4443 536.451 33.1202 Q534.993 32.7556 533.21 32.7556 Q526.891 32.7556 523.488 36.8875 Q520.126 40.9789 520.126 48.6757 L520.126 72.576 L512.632 72.576 L512.632 27.2059 L520.126 27.2059 L520.126 34.2544 Q522.475 30.1225 526.243 28.1376 Q530.01 26.1121 535.398 26.1121 Q536.168 26.1121 537.099 26.2337 Q538.031 26.3147 539.165 26.5172 L539.206 34.1734 Z" fill="#000000" fill-rule="nonzero" fill-opacity="1" /><path clip-path="url(#clip660)" d="M580.89 35.9153 Q583.685 30.8922 587.574 28.5022 Q591.462 26.1121 596.729 26.1121 Q603.818 26.1121 607.666 31.0947 Q611.514 36.0368 611.514 45.1919 L611.514 72.576 L604.02 72.576 L604.02 45.4349 Q604.02 38.913 601.711 35.7533 Q599.402 32.5936 594.663 32.5936 Q588.87 32.5936 585.508 36.4419 Q582.145 40.2903 582.145 46.9338 L582.145 72.576 L574.651 72.576 L574.651 45.4349 Q574.651 38.8725 572.342 35.7533 Q570.033 32.5936 565.213 32.5936 Q559.501 32.5936 556.138 36.4824 Q552.776 40.3308 552.776 46.9338 L552.776 72.576 L545.282 72.576 L545.282 27.2059 L552.776 27.2059 L552.776 34.2544 Q555.328 30.082 558.893 28.0971 Q562.458 26.1121 567.359 26.1121 Q572.302 26.1121 575.745 28.6237 Q579.229 31.1352 580.89 35.9153 Z" fill="#000000" fill-rule="nonzero" fill-opacity="1" /><path clip-path="url(#clip660)" d="M647 49.7694 Q637.967 49.7694 634.483 51.8354 Q630.999 53.9013 630.999 58.8839 Q630.999 62.8538 633.592 65.2034 Q636.225 67.5124 640.721 67.5124 Q646.919 67.5124 650.646 63.1374 Q654.413 58.7219 654.413 51.4303 L654.413 49.7694 L647 49.7694 M661.867 46.6907 L661.867 72.576 L654.413 72.576 L654.413 65.6895 Q651.861 69.8214 648.054 71.8063 Q644.246 73.7508 638.736 73.7508 Q631.769 73.7508 627.637 69.8619 Q623.546 65.9325 623.546 59.3701 Q623.546 51.7138 628.65 47.825 Q633.794 43.9361 643.962 43.9361 L654.413 43.9361 L654.413 43.2069 Q654.413 38.0623 651.011 35.2672 Q647.648 32.4315 641.532 32.4315 Q637.643 32.4315 633.956 33.3632 Q630.27 34.295 626.867 36.1584 L626.867 29.2718 Q630.959 27.692 634.807 26.9223 Q638.655 26.1121 642.301 26.1121 Q652.145 26.1121 657.006 31.2163 Q661.867 36.3204 661.867 46.6907 Z" fill="#000000" fill-rule="nonzero" fill-opacity="1" /><path clip-path="url(#clip660)" d="M677.22 9.54393 L684.674 9.54393 L684.674 72.576 L677.22 72.576 L677.22 9.54393 Z" fill="#000000" fill-rule="nonzero" fill-opacity="1" /><path clip-path="url(#clip660)" d="M700.27 27.2059 L707.723 27.2059 L707.723 72.576 L700.27 72.576 L700.27 27.2059 M700.27 9.54393 L707.723 9.54393 L707.723 18.9825 L700.27 18.9825 L700.27 9.54393 Z" fill="#000000" fill-rule="nonzero" fill-opacity="1" /><path clip-path="url(#clip660)" d="M720.079 27.2059 L755.483 27.2059 L755.483 34.0114 L727.451 66.6212 L755.483 66.6212 L755.483 72.576 L719.066 72.576 L719.066 65.7705 L747.098 33.1607 L720.079 33.1607 L720.079 27.2059 Z" fill="#000000" fill-rule="nonzero" fill-opacity="1" /><path clip-path="url(#clip660)" d="M805.674 48.0275 L805.674 51.6733 L771.404 51.6733 Q771.89 59.3701 776.022 63.421 Q780.194 67.4314 787.607 67.4314 Q791.901 67.4314 795.912 66.3781 Q799.962 65.3249 803.932 63.2184 L803.932 70.267 Q799.922 71.9684 795.709 72.8596 Q791.496 73.7508 787.162 73.7508 Q776.305 73.7508 769.945 67.4314 Q763.626 61.1119 763.626 50.3365 Q763.626 39.1965 769.621 32.6746 Q775.657 26.1121 785.865 26.1121 Q795.02 26.1121 800.327 32.0264 Q805.674 37.9003 805.674 48.0275 M798.221 45.84 Q798.14 39.7232 794.777 36.0774 Q791.456 32.4315 785.946 32.4315 Q779.708 32.4315 775.941 35.9558 Q772.214 39.4801 771.647 45.8805 L798.221 45.84 Z" fill="#000000" fill-rule="nonzero" fill-opacity="1" /><path clip-path="url(#clip660)" d="M847.763 34.0924 L847.763 9.54393 L855.217 9.54393 L855.217 72.576 L847.763 72.576 L847.763 65.7705 Q845.414 69.8214 841.808 71.8063 Q838.243 73.7508 833.22 73.7508 Q824.997 73.7508 819.812 67.1883 Q814.667 60.6258 814.667 49.9314 Q814.667 39.2371 819.812 32.6746 Q824.997 26.1121 833.22 26.1121 Q838.243 26.1121 841.808 28.0971 Q845.414 30.0415 847.763 34.0924 M822.364 49.9314 Q822.364 58.1548 825.726 62.8538 Q829.129 67.5124 835.043 67.5124 Q840.958 67.5124 844.36 62.8538 Q847.763 58.1548 847.763 49.9314 Q847.763 41.7081 844.36 37.0496 Q840.958 32.3505 835.043 32.3505 Q829.129 32.3505 825.726 37.0496 Q822.364 41.7081 822.364 49.9314 Z" fill="#000000" fill-rule="nonzero" fill-opacity="1" /><path clip-path="url(#clip660)" d="M897.265 12.096 L909.458 12.096 L924.892 53.2532 L940.407 12.096 L952.6 12.096 L952.6 72.576 L944.62 72.576 L944.62 19.4686 L929.024 60.9499 L920.801 60.9499 L905.205 19.4686 L905.205 72.576 L897.265 72.576 L897.265 12.096 Z" fill="#000000" fill-rule="nonzero" fill-opacity="1" /><path clip-path="url(#clip660)" d="M1005.1 14.0809 L1005.1 22.0612 Q1000.44 19.8332 996.31 18.7395 Q992.178 17.6457 988.329 17.6457 Q981.645 17.6457 978 20.2383 Q974.394 22.8309 974.394 27.611 Q974.394 31.6214 976.784 33.6873 Q979.215 35.7128 985.939 36.9686 L990.882 37.9813 Q1000.04 39.7232 1004.37 44.1387 Q1008.75 48.5136 1008.75 55.8863 Q1008.75 64.6767 1002.83 69.2137 Q996.958 73.7508 985.575 73.7508 Q981.281 73.7508 976.42 72.7785 Q971.599 71.8063 966.414 69.9024 L966.414 61.4765 Q971.397 64.2716 976.177 65.6895 Q980.957 67.1073 985.575 67.1073 Q992.583 67.1073 996.391 64.3527 Q1000.2 61.598 1000.2 56.4939 Q1000.2 52.0379 997.444 49.5264 Q994.73 47.0148 988.492 45.759 L983.509 44.7868 Q974.354 42.9639 970.262 39.075 Q966.171 35.1862 966.171 28.2591 Q966.171 20.2383 971.802 15.6203 Q977.473 11.0023 987.398 11.0023 Q991.651 11.0023 996.067 11.7719 Q1000.48 12.5416 1005.1 14.0809 Z" fill="#000000" fill-rule="nonzero" fill-opacity="1" /><path clip-path="url(#clip660)" d="M1021.51 12.096 L1059.75 12.096 L1059.75 18.9825 L1029.69 18.9825 L1029.69 36.8875 L1058.49 36.8875 L1058.49 43.7741 L1029.69 43.7741 L1029.69 65.6895 L1060.48 65.6895 L1060.48 72.576 L1021.51 72.576 L1021.51 12.096 Z" fill="#000000" fill-rule="nonzero" fill-opacity="1" /><path clip-path="url(#clip660)" d="M1117.55 32.4315 Q1111.56 32.4315 1108.07 37.1306 Q1104.59 41.7891 1104.59 49.9314 Q1104.59 58.0738 1108.03 62.7728 Q1111.52 67.4314 1117.55 67.4314 Q1123.51 67.4314 1126.99 62.7323 Q1130.48 58.0333 1130.48 49.9314 Q1130.48 41.8701 1126.99 37.1711 Q1123.51 32.4315 1117.55 32.4315 M1117.55 26.1121 Q1127.28 26.1121 1132.83 32.4315 Q1138.37 38.7509 1138.37 49.9314 Q1138.37 61.0714 1132.83 67.4314 Q1127.28 73.7508 1117.55 73.7508 Q1107.79 73.7508 1102.24 67.4314 Q1096.73 61.0714 1096.73 49.9314 Q1096.73 38.7509 1102.24 32.4315 Q1107.79 26.1121 1117.55 26.1121 Z" fill="#000000" fill-rule="nonzero" fill-opacity="1" /><path clip-path="url(#clip660)" d="M1188.44 45.1919 L1188.44 72.576 L1180.99 72.576 L1180.99 45.4349 Q1180.99 38.994 1178.48 35.7938 Q1175.97 32.5936 1170.94 32.5936 Q1164.91 32.5936 1161.42 36.4419 Q1157.94 40.2903 1157.94 46.9338 L1157.94 72.576 L1150.45 72.576 L1150.45 27.2059 L1157.94 27.2059 L1157.94 34.2544 Q1160.61 30.163 1164.22 28.1376 Q1167.87 26.1121 1172.61 26.1121 Q1180.42 26.1121 1184.43 30.9732 Q1188.44 35.7938 1188.44 45.1919 Z" fill="#000000" fill-rule="nonzero" fill-opacity="1" /><path clip-path="url(#clip660)" d="M1237.05 14.324 L1237.05 27.2059 L1252.41 27.2059 L1252.41 32.9987 L1237.05 32.9987 L1237.05 57.6282 Q1237.05 63.1779 1238.55 64.7578 Q1240.09 66.3376 1244.75 66.3376 L1252.41 66.3376 L1252.41 72.576 L1244.75 72.576 Q1236.12 72.576 1232.84 69.3758 Q1229.56 66.1351 1229.56 57.6282 L1229.56 32.9987 L1224.09 32.9987 L1224.09 27.2059 L1229.56 27.2059 L1229.56 14.324 L1237.05 14.324 Z" fill="#000000" fill-rule="nonzero" fill-opacity="1" /><path clip-path="url(#clip660)" d="M1288.5 34.1734 Q1287.25 33.4443 1285.75 33.1202 Q1284.29 32.7556 1282.51 32.7556 Q1276.19 32.7556 1272.78 36.8875 Q1269.42 40.9789 1269.42 48.6757 L1269.42 72.576 L1261.93 72.576 L1261.93 27.2059 L1269.42 27.2059 L1269.42 34.2544 Q1271.77 30.1225 1275.54 28.1376 Q1279.31 26.1121 1284.69 26.1121 Q1285.46 26.1121 1286.39 26.2337 Q1287.33 26.3147 1288.46 26.5172 L1288.5 34.1734 Z" fill="#000000" fill-rule="nonzero" fill-opacity="1" /><path clip-path="url(#clip660)" d="M1316.94 49.7694 Q1307.91 49.7694 1304.42 51.8354 Q1300.94 53.9013 1300.94 58.8839 Q1300.94 62.8538 1303.53 65.2034 Q1306.16 67.5124 1310.66 67.5124 Q1316.86 67.5124 1320.58 63.1374 Q1324.35 58.7219 1324.35 51.4303 L1324.35 49.7694 L1316.94 49.7694 M1331.81 46.6907 L1331.81 72.576 L1324.35 72.576 L1324.35 65.6895 Q1321.8 69.8214 1317.99 71.8063 Q1314.18 73.7508 1308.67 73.7508 Q1301.71 73.7508 1297.58 69.8619 Q1293.48 65.9325 1293.48 59.3701 Q1293.48 51.7138 1298.59 47.825 Q1303.73 43.9361 1313.9 43.9361 L1324.35 43.9361 L1324.35 43.2069 Q1324.35 38.0623 1320.95 35.2672 Q1317.59 32.4315 1311.47 32.4315 Q1307.58 32.4315 1303.89 33.3632 Q1300.21 34.295 1296.81 36.1584 L1296.81 29.2718 Q1300.9 27.692 1304.75 26.9223 Q1308.59 26.1121 1312.24 26.1121 Q1322.08 26.1121 1326.94 31.2163 Q1331.81 36.3204 1331.81 46.6907 Z" fill="#000000" fill-rule="nonzero" fill-opacity="1" /><path clip-path="url(#clip660)" d="M1347.16 27.2059 L1354.61 27.2059 L1354.61 72.576 L1347.16 72.576 L1347.16 27.2059 M1347.16 9.54393 L1354.61 9.54393 L1354.61 18.9825 L1347.16 18.9825 L1347.16 9.54393 Z" fill="#000000" fill-rule="nonzero" fill-opacity="1" /><path clip-path="url(#clip660)" d="M1407.92 45.1919 L1407.92 72.576 L1400.47 72.576 L1400.47 45.4349 Q1400.47 38.994 1397.96 35.7938 Q1395.45 32.5936 1390.42 32.5936 Q1384.39 32.5936 1380.9 36.4419 Q1377.42 40.2903 1377.42 46.9338 L1377.42 72.576 L1369.92 72.576 L1369.92 27.2059 L1377.42 27.2059 L1377.42 34.2544 Q1380.09 30.163 1383.7 28.1376 Q1387.34 26.1121 1392.08 26.1121 Q1399.9 26.1121 1403.91 30.9732 Q1407.92 35.7938 1407.92 45.1919 Z" fill="#000000" fill-rule="nonzero" fill-opacity="1" /><path clip-path="url(#clip660)" d="M1422.79 27.2059 L1430.24 27.2059 L1430.24 72.576 L1422.79 72.576 L1422.79 27.2059 M1422.79 9.54393 L1430.24 9.54393 L1430.24 18.9825 L1422.79 18.9825 L1422.79 9.54393 Z" fill="#000000" fill-rule="nonzero" fill-opacity="1" /><path clip-path="url(#clip660)" d="M1483.55 45.1919 L1483.55 72.576 L1476.1 72.576 L1476.1 45.4349 Q1476.1 38.994 1473.59 35.7938 Q1471.08 32.5936 1466.05 32.5936 Q1460.02 32.5936 1456.53 36.4419 Q1453.05 40.2903 1453.05 46.9338 L1453.05 72.576 L1445.56 72.576 L1445.56 27.2059 L1453.05 27.2059 L1453.05 34.2544 Q1455.72 30.163 1459.33 28.1376 Q1462.97 26.1121 1467.71 26.1121 Q1475.53 26.1121 1479.54 30.9732 Q1483.55 35.7938 1483.55 45.1919 Z" fill="#000000" fill-rule="nonzero" fill-opacity="1" /><path clip-path="url(#clip660)" d="M1528.27 49.3643 Q1528.27 41.2625 1524.91 36.8065 Q1521.59 32.3505 1515.55 32.3505 Q1509.56 32.3505 1506.2 36.8065 Q1502.88 41.2625 1502.88 49.3643 Q1502.88 57.4256 1506.2 61.8816 Q1509.56 66.3376 1515.55 66.3376 Q1521.59 66.3376 1524.91 61.8816 Q1528.27 57.4256 1528.27 49.3643 M1535.73 66.9452 Q1535.73 78.5308 1530.58 84.1616 Q1525.44 89.8329 1514.83 89.8329 Q1510.9 89.8329 1507.41 89.2252 Q1503.93 88.6581 1500.65 87.4428 L1500.65 80.1917 Q1503.93 81.9741 1507.13 82.8248 Q1510.33 83.6755 1513.65 83.6755 Q1520.98 83.6755 1524.63 79.8271 Q1528.27 76.0193 1528.27 68.282 L1528.27 64.5957 Q1525.97 68.6061 1522.36 70.5911 Q1518.75 72.576 1513.73 72.576 Q1505.39 72.576 1500.28 66.2161 Q1495.18 59.8562 1495.18 49.3643 Q1495.18 38.832 1500.28 32.472 Q1505.39 26.1121 1513.73 26.1121 Q1518.75 26.1121 1522.36 28.0971 Q1525.97 30.082 1528.27 34.0924 L1528.27 27.2059 L1535.73 27.2059 L1535.73 66.9452 Z" fill="#000000" fill-rule="nonzero" fill-opacity="1" /><path clip-path="url(#clip660)" d="M1598.07 49.7694 Q1589.04 49.7694 1585.55 51.8354 Q1582.07 53.9013 1582.07 58.8839 Q1582.07 62.8538 1584.66 65.2034 Q1587.3 67.5124 1591.79 67.5124 Q1597.99 67.5124 1601.72 63.1374 Q1605.48 58.7219 1605.48 51.4303 L1605.48 49.7694 L1598.07 49.7694 M1612.94 46.6907 L1612.94 72.576 L1605.48 72.576 L1605.48 65.6895 Q1602.93 69.8214 1599.12 71.8063 Q1595.32 73.7508 1589.81 73.7508 Q1582.84 73.7508 1578.71 69.8619 Q1574.62 65.9325 1574.62 59.3701 Q1574.62 51.7138 1579.72 47.825 Q1584.87 43.9361 1595.03 43.9361 L1605.48 43.9361 L1605.48 43.2069 Q1605.48 38.0623 1602.08 35.2672 Q1598.72 32.4315 1592.6 32.4315 Q1588.71 32.4315 1585.03 33.3632 Q1581.34 34.295 1577.94 36.1584 L1577.94 29.2718 Q1582.03 27.692 1585.88 26.9223 Q1589.73 26.1121 1593.37 26.1121 Q1603.22 26.1121 1608.08 31.2163 Q1612.94 36.3204 1612.94 46.6907 Z" fill="#000000" fill-rule="nonzero" fill-opacity="1" /><path clip-path="url(#clip660)" d="M1666.01 45.1919 L1666.01 72.576 L1658.55 72.576 L1658.55 45.4349 Q1658.55 38.994 1656.04 35.7938 Q1653.53 32.5936 1648.51 32.5936 Q1642.47 32.5936 1638.99 36.4419 Q1635.5 40.2903 1635.5 46.9338 L1635.5 72.576 L1628.01 72.576 L1628.01 27.2059 L1635.5 27.2059 L1635.5 34.2544 Q1638.18 30.163 1641.78 28.1376 Q1645.43 26.1121 1650.17 26.1121 Q1657.98 26.1121 1661.99 30.9732 Q1666.01 35.7938 1666.01 45.1919 Z" fill="#000000" fill-rule="nonzero" fill-opacity="1" /><path clip-path="url(#clip660)" d="M1710.73 34.0924 L1710.73 9.54393 L1718.18 9.54393 L1718.18 72.576 L1710.73 72.576 L1710.73 65.7705 Q1708.38 69.8214 1704.77 71.8063 Q1701.21 73.7508 1696.18 73.7508 Q1687.96 73.7508 1682.78 67.1883 Q1677.63 60.6258 1677.63 49.9314 Q1677.63 39.2371 1682.78 32.6746 Q1687.96 26.1121 1696.18 26.1121 Q1701.21 26.1121 1704.77 28.0971 Q1708.38 30.0415 1710.73 34.0924 M1685.33 49.9314 Q1685.33 58.1548 1688.69 62.8538 Q1692.09 67.5124 1698.01 67.5124 Q1703.92 67.5124 1707.32 62.8538 Q1710.73 58.1548 1710.73 49.9314 Q1710.73 41.7081 1707.32 37.0496 Q1703.92 32.3505 1698.01 32.3505 Q1692.09 32.3505 1688.69 37.0496 Q1685.33 41.7081 1685.33 49.9314 Z" fill="#000000" fill-rule="nonzero" fill-opacity="1" /><path clip-path="url(#clip660)" d="M1767.28 14.324 L1767.28 27.2059 L1782.63 27.2059 L1782.63 32.9987 L1767.28 32.9987 L1767.28 57.6282 Q1767.28 63.1779 1768.78 64.7578 Q1770.32 66.3376 1774.97 66.3376 L1782.63 66.3376 L1782.63 72.576 L1774.97 72.576 Q1766.35 72.576 1763.06 69.3758 Q1759.78 66.1351 1759.78 57.6282 L1759.78 32.9987 L1754.31 32.9987 L1754.31 27.2059 L1759.78 27.2059 L1759.78 14.324 L1767.28 14.324 Z" fill="#000000" fill-rule="nonzero" fill-opacity="1" /><path clip-path="url(#clip660)" d="M1831.24 48.0275 L1831.24 51.6733 L1796.97 51.6733 Q1797.46 59.3701 1801.59 63.421 Q1805.76 67.4314 1813.17 67.4314 Q1817.47 67.4314 1821.48 66.3781 Q1825.53 65.3249 1829.5 63.2184 L1829.5 70.267 Q1825.49 71.9684 1821.28 72.8596 Q1817.06 73.7508 1812.73 73.7508 Q1801.87 73.7508 1795.51 67.4314 Q1789.19 61.1119 1789.19 50.3365 Q1789.19 39.1965 1795.19 32.6746 Q1801.22 26.1121 1811.43 26.1121 Q1820.59 26.1121 1825.89 32.0264 Q1831.24 37.9003 1831.24 48.0275 M1823.79 45.84 Q1823.71 39.7232 1820.34 36.0774 Q1817.02 32.4315 1811.51 32.4315 Q1805.28 32.4315 1801.51 35.9558 Q1797.78 39.4801 1797.21 45.8805 L1823.79 45.84 Z" fill="#000000" fill-rule="nonzero" fill-opacity="1" /><path clip-path="url(#clip660)" d="M1872.4 28.5427 L1872.4 35.5912 Q1869.24 33.9709 1865.84 33.1607 Q1862.43 32.3505 1858.79 32.3505 Q1853.24 32.3505 1850.44 34.0519 Q1847.69 35.7533 1847.69 39.156 Q1847.69 41.7486 1849.67 43.2475 Q1851.66 44.7058 1857.65 46.0426 L1860.21 46.6097 Q1868.15 48.3111 1871.47 51.4303 Q1874.83 54.509 1874.83 60.0587 Q1874.83 66.3781 1869.81 70.0644 Q1864.82 73.7508 1856.07 73.7508 Q1852.43 73.7508 1848.46 73.0216 Q1844.53 72.3329 1840.15 70.9151 L1840.15 63.2184 Q1844.29 65.3654 1848.3 66.4591 Q1852.31 67.5124 1856.24 67.5124 Q1861.5 67.5124 1864.34 65.73 Q1867.17 63.9071 1867.17 60.6258 Q1867.17 57.5877 1865.11 55.9673 Q1863.08 54.3469 1856.15 52.8481 L1853.56 52.2405 Q1846.64 50.7821 1843.56 47.7845 Q1840.48 44.7463 1840.48 39.4801 Q1840.48 33.0797 1845.01 29.5959 Q1849.55 26.1121 1857.9 26.1121 Q1862.03 26.1121 1865.67 26.7198 Q1869.32 27.3274 1872.4 28.5427 Z" fill="#000000" fill-rule="nonzero" fill-opacity="1" /><path clip-path="url(#clip660)" d="M1894.07 14.324 L1894.07 27.2059 L1909.42 27.2059 L1909.42 32.9987 L1894.07 32.9987 L1894.07 57.6282 Q1894.07 63.1779 1895.57 64.7578 Q1897.11 66.3376 1901.77 66.3376 L1909.42 66.3376 L1909.42 72.576 L1901.77 72.576 Q1893.14 72.576 1889.86 69.3758 Q1886.58 66.1351 1886.58 57.6282 L1886.58 32.9987 L1881.11 32.9987 L1881.11 27.2059 L1886.58 27.2059 L1886.58 14.324 L1894.07 14.324 Z" fill="#000000" fill-rule="nonzero" fill-opacity="1" /><path clip-path="url(#clip660)" d="M1919.23 27.2059 L1926.68 27.2059 L1926.68 72.576 L1919.23 72.576 L1919.23 27.2059 M1919.23 9.54393 L1926.68 9.54393 L1926.68 18.9825 L1919.23 18.9825 L1919.23 9.54393 Z" fill="#000000" fill-rule="nonzero" fill-opacity="1" /><path clip-path="url(#clip660)" d="M1979.99 45.1919 L1979.99 72.576 L1972.54 72.576 L1972.54 45.4349 Q1972.54 38.994 1970.03 35.7938 Q1967.51 32.5936 1962.49 32.5936 Q1956.46 32.5936 1952.97 36.4419 Q1949.49 40.2903 1949.49 46.9338 L1949.49 72.576 L1941.99 72.576 L1941.99 27.2059 L1949.49 27.2059 L1949.49 34.2544 Q1952.16 30.163 1955.77 28.1376 Q1959.41 26.1121 1964.15 26.1121 Q1971.97 26.1121 1975.98 30.9732 Q1979.99 35.7938 1979.99 45.1919 Z" fill="#000000" fill-rule="nonzero" fill-opacity="1" /><path clip-path="url(#clip660)" d="M2024.71 49.3643 Q2024.71 41.2625 2021.35 36.8065 Q2018.03 32.3505 2011.99 32.3505 Q2006 32.3505 2002.64 36.8065 Q1999.31 41.2625 1999.31 49.3643 Q1999.31 57.4256 2002.64 61.8816 Q2006 66.3376 2011.99 66.3376 Q2018.03 66.3376 2021.35 61.8816 Q2024.71 57.4256 2024.71 49.3643 M2032.17 66.9452 Q2032.17 78.5308 2027.02 84.1616 Q2021.88 89.8329 2011.26 89.8329 Q2007.33 89.8329 2003.85 89.2252 Q2000.37 88.6581 1997.09 87.4428 L1997.09 80.1917 Q2000.37 81.9741 2003.57 82.8248 Q2006.77 83.6755 2010.09 83.6755 Q2017.42 83.6755 2021.07 79.8271 Q2024.71 76.0193 2024.71 68.282 L2024.71 64.5957 Q2022.4 68.6061 2018.8 70.5911 Q2015.19 72.576 2010.17 72.576 Q2001.83 72.576 1996.72 66.2161 Q1991.62 59.8562 1991.62 49.3643 Q1991.62 38.832 1996.72 32.472 Q2001.83 26.1121 2010.17 26.1121 Q2015.19 26.1121 2018.8 28.0971 Q2022.4 30.082 2024.71 34.0924 L2024.71 27.2059 L2032.17 27.2059 L2032.17 66.9452 Z" fill="#000000" fill-rule="nonzero" fill-opacity="1" /><path clip-path="url(#clip660)" d="M2102.81 28.5427 L2102.81 35.5912 Q2099.65 33.9709 2096.25 33.1607 Q2092.85 32.3505 2089.2 32.3505 Q2083.65 32.3505 2080.86 34.0519 Q2078.1 35.7533 2078.1 39.156 Q2078.1 41.7486 2080.09 43.2475 Q2082.07 44.7058 2088.07 46.0426 L2090.62 46.6097 Q2098.56 48.3111 2101.88 51.4303 Q2105.24 54.509 2105.24 60.0587 Q2105.24 66.3781 2100.22 70.0644 Q2095.24 73.7508 2086.49 73.7508 Q2082.84 73.7508 2078.87 73.0216 Q2074.94 72.3329 2070.57 70.9151 L2070.57 63.2184 Q2074.7 65.3654 2078.71 66.4591 Q2082.72 67.5124 2086.65 67.5124 Q2091.92 67.5124 2094.75 65.73 Q2097.59 63.9071 2097.59 60.6258 Q2097.59 57.5877 2095.52 55.9673 Q2093.5 54.3469 2086.57 52.8481 L2083.98 52.2405 Q2077.05 50.7821 2073.97 47.7845 Q2070.89 44.7463 2070.89 39.4801 Q2070.89 33.0797 2075.43 29.5959 Q2079.97 26.1121 2088.31 26.1121 Q2092.44 26.1121 2096.09 26.7198 Q2099.74 27.3274 2102.81 28.5427 Z" fill="#000000" fill-rule="nonzero" fill-opacity="1" /><path clip-path="url(#clip660)" d="M2155.92 48.0275 L2155.92 51.6733 L2121.65 51.6733 Q2122.14 59.3701 2126.27 63.421 Q2130.44 67.4314 2137.85 67.4314 Q2142.15 67.4314 2146.16 66.3781 Q2150.21 65.3249 2154.18 63.2184 L2154.18 70.267 Q2150.17 71.9684 2145.96 72.8596 Q2141.74 73.7508 2137.41 73.7508 Q2126.55 73.7508 2120.19 67.4314 Q2113.87 61.1119 2113.87 50.3365 Q2113.87 39.1965 2119.87 32.6746 Q2125.9 26.1121 2136.11 26.1121 Q2145.27 26.1121 2150.57 32.0264 Q2155.92 37.9003 2155.92 48.0275 M2148.47 45.84 Q2148.39 39.7232 2145.02 36.0774 Q2141.7 32.4315 2136.19 32.4315 Q2129.96 32.4315 2126.19 35.9558 Q2122.46 39.4801 2121.89 45.8805 L2148.47 45.84 Z" fill="#000000" fill-rule="nonzero" fill-opacity="1" /><path clip-path="url(#clip660)" d="M2175.53 14.324 L2175.53 27.2059 L2190.88 27.2059 L2190.88 32.9987 L2175.53 32.9987 L2175.53 57.6282 Q2175.53 63.1779 2177.03 64.7578 Q2178.57 66.3376 2183.22 66.3376 L2190.88 66.3376 L2190.88 72.576 L2183.22 72.576 Q2174.6 72.576 2171.32 69.3758 Q2168.03 66.1351 2168.03 57.6282 L2168.03 32.9987 L2162.57 32.9987 L2162.57 27.2059 L2168.03 27.2059 L2168.03 14.324 L2175.53 14.324 Z" fill="#000000" fill-rule="nonzero" fill-opacity="1" /><path clip-path="url(#clip660)" d="M2229.61 28.5427 L2229.61 35.5912 Q2226.45 33.9709 2223.05 33.1607 Q2219.64 32.3505 2216 32.3505 Q2210.45 32.3505 2207.65 34.0519 Q2204.9 35.7533 2204.9 39.156 Q2204.9 41.7486 2206.88 43.2475 Q2208.87 44.7058 2214.86 46.0426 L2217.41 46.6097 Q2225.35 48.3111 2228.68 51.4303 Q2232.04 54.509 2232.04 60.0587 Q2232.04 66.3781 2227.01 70.0644 Q2222.03 73.7508 2213.28 73.7508 Q2209.64 73.7508 2205.67 73.0216 Q2201.74 72.3329 2197.36 70.9151 L2197.36 63.2184 Q2201.49 65.3654 2205.5 66.4591 Q2209.52 67.5124 2213.44 67.5124 Q2218.71 67.5124 2221.55 65.73 Q2224.38 63.9071 2224.38 60.6258 Q2224.38 57.5877 2222.32 55.9673 Q2220.29 54.3469 2213.36 52.8481 L2210.77 52.2405 Q2203.84 50.7821 2200.77 47.7845 Q2197.69 44.7463 2197.69 39.4801 Q2197.69 33.0797 2202.22 29.5959 Q2206.76 26.1121 2215.11 26.1121 Q2219.24 26.1121 2222.88 26.7198 Q2226.53 27.3274 2229.61 28.5427 Z" fill="#000000" fill-rule="nonzero" fill-opacity="1" /><polyline clip-path="url(#clip662)" style="stroke:#009af9; stroke-linecap:round; stroke-linejoin:round; stroke-width:12; stroke-opacity:1; fill:none" points="338.375,873.577 377.489,887.326 416.604,900.261 455.718,912.384 494.832,923.694 533.946,934.192 573.06,943.88 612.175,952.757 651.289,960.825 690.403,968.084 729.517,974.534 768.631,980.177 807.745,985.012 846.86,989.042 885.974,992.265 925.088,994.684 964.202,996.298 1003.32,997.109 1042.43,997.116 1081.54,996.321 1120.66,994.724 1159.77,992.326 1198.89,989.128 1238,985.129 1277.12,980.331 1316.23,974.735 1355.34,968.341 1394.46,961.15 1433.57,953.161 1472.69,944.377 1511.8,934.798 1550.92,924.424 1590.03,913.255 1629.14,901.294 1668.26,888.539 1707.37,874.992 1746.49,860.654 1785.6,845.525 1824.71,829.606 1863.83,812.897 1902.94,795.399 1942.06,777.112 1981.17,758.038 2020.29,738.177 2059.4,717.53 2098.51,696.096 2137.63,673.878 2176.74,650.875 2215.86,627.088 2254.97,602.517 2294.08,577.164 "/>
<polyline clip-path="url(#clip662)" style="stroke:#e26f46; stroke-linecap:round; stroke-linejoin:round; stroke-width:12; stroke-opacity:1; fill:none" stroke-dasharray="48, 30" points="338.375,1386.4 377.489,1375.75 416.604,1364.54 455.718,1352.75 494.832,1340.39 533.946,1327.46 573.06,1313.95 612.175,1299.87 651.289,1285.23 690.403,1270.01 729.517,1254.22 768.631,1237.86 807.745,1220.94 846.86,1203.44 885.974,1185.38 925.088,1166.74 964.202,1147.54 1003.32,1127.78 1042.43,1107.45 1081.54,1086.55 1120.66,1065.08 1159.77,1043.05 1198.89,1020.46 1238,997.299 1277.12,973.577 1316.23,949.29 1355.34,924.441 1394.46,899.029 1433.57,873.055 1472.69,846.519 1511.8,819.421 1550.92,791.763 1590.03,763.544 1629.14,734.766 1668.26,705.427 1707.37,675.53 1746.49,645.073 1785.6,614.059 1824.71,582.486 1863.83,550.356 1902.94,517.669 1942.06,484.426 1981.17,450.626 2020.29,416.27 2059.4,381.359 2098.51,345.894 2137.63,309.873 2176.74,273.299 2215.86,236.171 2254.97,198.49 2294.08,160.256 "/>
<path clip-path="url(#clip660)" d="M1753.87 1266.92 L2178.86 1266.92 L2178.86 1111.4 L1753.87 1111.4  Z" fill="#ffffff" fill-rule="evenodd" fill-opacity="1"/>
<polyline clip-path="url(#clip660)" style="stroke:#000000; stroke-linecap:round; stroke-linejoin:round; stroke-width:4; stroke-opacity:1; fill:none" points="1753.87,1266.92 2178.86,1266.92 2178.86,1111.4 1753.87,1111.4 1753.87,1266.92 "/>
<polyline clip-path="url(#clip660)" style="stroke:#009af9; stroke-linecap:round; stroke-linejoin:round; stroke-width:12; stroke-opacity:1; fill:none" points="1776.91,1163.24 1915.11,1163.24 "/>
<path clip-path="url(#clip660)" d="M1938.15 1145.96 L1945.11 1145.96 L1953.93 1169.48 L1962.8 1145.96 L1969.77 1145.96 L1969.77 1180.52 L1965.21 1180.52 L1965.21 1150.17 L1956.29 1173.87 L1951.59 1173.87 L1942.68 1150.17 L1942.68 1180.52 L1938.15 1180.52 L1938.15 1145.96 Z" fill="#000000" fill-rule="nonzero" fill-opacity="1" /><path clip-path="url(#clip660)" d="M1999.77 1147.09 L1999.77 1151.65 Q1997.1 1150.38 1994.74 1149.75 Q1992.38 1149.13 1990.18 1149.13 Q1986.36 1149.13 1984.28 1150.61 Q1982.22 1152.09 1982.22 1154.82 Q1982.22 1157.12 1983.59 1158.3 Q1984.97 1159.45 1988.82 1160.17 L1991.64 1160.75 Q1996.87 1161.75 1999.35 1164.27 Q2001.85 1166.77 2001.85 1170.98 Q2001.85 1176 1998.47 1178.6 Q1995.11 1181.19 1988.61 1181.19 Q1986.15 1181.19 1983.38 1180.63 Q1980.62 1180.08 1977.66 1178.99 L1977.66 1174.18 Q1980.51 1175.77 1983.24 1176.58 Q1985.97 1177.39 1988.61 1177.39 Q1992.61 1177.39 1994.79 1175.82 Q1996.96 1174.25 1996.96 1171.33 Q1996.96 1168.78 1995.39 1167.35 Q1993.84 1165.91 1990.27 1165.19 L1987.43 1164.64 Q1982.2 1163.6 1979.86 1161.37 Q1977.52 1159.15 1977.52 1155.19 Q1977.52 1150.61 1980.74 1147.97 Q1983.98 1145.33 1989.65 1145.33 Q1992.08 1145.33 1994.6 1145.77 Q1997.13 1146.21 1999.77 1147.09 Z" fill="#000000" fill-rule="nonzero" fill-opacity="1" /><path clip-path="url(#clip660)" d="M2009.14 1145.96 L2030.99 1145.96 L2030.99 1149.89 L2013.82 1149.89 L2013.82 1160.12 L2030.27 1160.12 L2030.27 1164.06 L2013.82 1164.06 L2013.82 1176.58 L2031.41 1176.58 L2031.41 1180.52 L2009.14 1180.52 L2009.14 1145.96 Z" fill="#000000" fill-rule="nonzero" fill-opacity="1" /><path clip-path="url(#clip660)" d="M2058.19 1147.23 L2058.19 1154.59 L2066.96 1154.59 L2066.96 1157.9 L2058.19 1157.9 L2058.19 1171.98 Q2058.19 1175.15 2059.05 1176.05 Q2059.93 1176.95 2062.59 1176.95 L2066.96 1176.95 L2066.96 1180.52 L2062.59 1180.52 Q2057.66 1180.52 2055.78 1178.69 Q2053.91 1176.84 2053.91 1171.98 L2053.91 1157.9 L2050.78 1157.9 L2050.78 1154.59 L2053.91 1154.59 L2053.91 1147.23 L2058.19 1147.23 Z" fill="#000000" fill-rule="nonzero" fill-opacity="1" /><path clip-path="url(#clip660)" d="M2094.74 1166.49 L2094.74 1168.57 L2075.16 1168.57 Q2075.44 1172.97 2077.8 1175.29 Q2080.18 1177.58 2084.42 1177.58 Q2086.87 1177.58 2089.16 1176.98 Q2091.48 1176.37 2093.75 1175.17 L2093.75 1179.2 Q2091.45 1180.17 2089.05 1180.68 Q2086.64 1181.19 2084.16 1181.19 Q2077.96 1181.19 2074.33 1177.58 Q2070.71 1173.97 2070.71 1167.81 Q2070.71 1161.44 2074.14 1157.72 Q2077.59 1153.97 2083.42 1153.97 Q2088.65 1153.97 2091.69 1157.35 Q2094.74 1160.7 2094.74 1166.49 M2090.48 1165.24 Q2090.44 1161.75 2088.52 1159.66 Q2086.62 1157.58 2083.47 1157.58 Q2079.9 1157.58 2077.75 1159.59 Q2075.62 1161.61 2075.3 1165.26 L2090.48 1165.24 Z" fill="#000000" fill-rule="nonzero" fill-opacity="1" /><path clip-path="url(#clip660)" d="M2118.26 1155.36 L2118.26 1159.38 Q2116.45 1158.46 2114.51 1158 Q2112.57 1157.53 2110.48 1157.53 Q2107.31 1157.53 2105.71 1158.5 Q2104.14 1159.48 2104.14 1161.42 Q2104.14 1162.9 2105.27 1163.76 Q2106.41 1164.59 2109.83 1165.36 L2111.29 1165.68 Q2115.83 1166.65 2117.73 1168.44 Q2119.65 1170.19 2119.65 1173.37 Q2119.65 1176.98 2116.78 1179.08 Q2113.93 1181.19 2108.93 1181.19 Q2106.85 1181.19 2104.58 1180.77 Q2102.33 1180.38 2099.83 1179.57 L2099.83 1175.17 Q2102.2 1176.4 2104.49 1177.02 Q2106.78 1177.62 2109.02 1177.62 Q2112.03 1177.62 2113.65 1176.61 Q2115.27 1175.56 2115.27 1173.69 Q2115.27 1171.95 2114.09 1171.03 Q2112.94 1170.1 2108.98 1169.25 L2107.5 1168.9 Q2103.54 1168.06 2101.78 1166.35 Q2100.02 1164.62 2100.02 1161.61 Q2100.02 1157.95 2102.61 1155.96 Q2105.2 1153.97 2109.97 1153.97 Q2112.33 1153.97 2114.42 1154.31 Q2116.5 1154.66 2118.26 1155.36 Z" fill="#000000" fill-rule="nonzero" fill-opacity="1" /><path clip-path="url(#clip660)" d="M2130.64 1147.23 L2130.64 1154.59 L2139.42 1154.59 L2139.42 1157.9 L2130.64 1157.9 L2130.64 1171.98 Q2130.64 1175.15 2131.5 1176.05 Q2132.38 1176.95 2135.04 1176.95 L2139.42 1176.95 L2139.42 1180.52 L2135.04 1180.52 Q2130.11 1180.52 2128.24 1178.69 Q2126.36 1176.84 2126.36 1171.98 L2126.36 1157.9 L2123.24 1157.9 L2123.24 1154.59 L2126.36 1154.59 L2126.36 1147.23 L2130.64 1147.23 Z" fill="#000000" fill-rule="nonzero" fill-opacity="1" /><polyline clip-path="url(#clip660)" style="stroke:#e26f46; stroke-linecap:round; stroke-linejoin:round; stroke-width:12; stroke-opacity:1; fill:none" stroke-dasharray="48, 30" points="1776.91,1215.08 1915.11,1215.08 "/>
<path clip-path="url(#clip660)" d="M1938.15 1197.8 L1945.11 1197.8 L1953.93 1221.32 L1962.8 1197.8 L1969.77 1197.8 L1969.77 1232.36 L1965.21 1232.36 L1965.21 1202.01 L1956.29 1225.71 L1951.59 1225.71 L1942.68 1202.01 L1942.68 1232.36 L1938.15 1232.36 L1938.15 1197.8 Z" fill="#000000" fill-rule="nonzero" fill-opacity="1" /><path clip-path="url(#clip660)" d="M1999.77 1198.93 L1999.77 1203.49 Q1997.1 1202.22 1994.74 1201.59 Q1992.38 1200.97 1990.18 1200.97 Q1986.36 1200.97 1984.28 1202.45 Q1982.22 1203.93 1982.22 1206.66 Q1982.22 1208.96 1983.59 1210.14 Q1984.97 1211.29 1988.82 1212.01 L1991.64 1212.59 Q1996.87 1213.59 1999.35 1216.11 Q2001.85 1218.61 2001.85 1222.82 Q2001.85 1227.84 1998.47 1230.44 Q1995.11 1233.03 1988.61 1233.03 Q1986.15 1233.03 1983.38 1232.47 Q1980.62 1231.92 1977.66 1230.83 L1977.66 1226.02 Q1980.51 1227.61 1983.24 1228.42 Q1985.97 1229.23 1988.61 1229.23 Q1992.61 1229.23 1994.79 1227.66 Q1996.96 1226.09 1996.96 1223.17 Q1996.96 1220.62 1995.39 1219.19 Q1993.84 1217.75 1990.27 1217.03 L1987.43 1216.48 Q1982.2 1215.44 1979.86 1213.21 Q1977.52 1210.99 1977.52 1207.03 Q1977.52 1202.45 1980.74 1199.81 Q1983.98 1197.17 1989.65 1197.17 Q1992.08 1197.17 1994.6 1197.61 Q1997.13 1198.05 1999.77 1198.93 Z" fill="#000000" fill-rule="nonzero" fill-opacity="1" /><path clip-path="url(#clip660)" d="M2009.14 1197.8 L2030.99 1197.8 L2030.99 1201.73 L2013.82 1201.73 L2013.82 1211.96 L2030.27 1211.96 L2030.27 1215.9 L2013.82 1215.9 L2013.82 1228.42 L2031.41 1228.42 L2031.41 1232.36 L2009.14 1232.36 L2009.14 1197.8 Z" fill="#000000" fill-rule="nonzero" fill-opacity="1" /><path clip-path="url(#clip660)" d="M2058.19 1199.07 L2058.19 1206.43 L2066.96 1206.43 L2066.96 1209.74 L2058.19 1209.74 L2058.19 1223.82 Q2058.19 1226.99 2059.05 1227.89 Q2059.93 1228.79 2062.59 1228.79 L2066.96 1228.79 L2066.96 1232.36 L2062.59 1232.36 Q2057.66 1232.36 2055.78 1230.53 Q2053.91 1228.68 2053.91 1223.82 L2053.91 1209.74 L2050.78 1209.74 L2050.78 1206.43 L2053.91 1206.43 L2053.91 1199.07 L2058.19 1199.07 Z" fill="#000000" fill-rule="nonzero" fill-opacity="1" /><path clip-path="url(#clip660)" d="M2087.59 1210.41 Q2086.87 1210 2086.02 1209.81 Q2085.18 1209.6 2084.16 1209.6 Q2080.55 1209.6 2078.61 1211.96 Q2076.69 1214.3 2076.69 1218.7 L2076.69 1232.36 L2072.4 1232.36 L2072.4 1206.43 L2076.69 1206.43 L2076.69 1210.46 Q2078.03 1208.1 2080.18 1206.96 Q2082.33 1205.81 2085.41 1205.81 Q2085.85 1205.81 2086.39 1205.88 Q2086.92 1205.92 2087.57 1206.04 L2087.59 1210.41 Z" fill="#000000" fill-rule="nonzero" fill-opacity="1" /><path clip-path="url(#clip660)" d="M2103.84 1219.33 Q2098.68 1219.33 2096.69 1220.51 Q2094.7 1221.69 2094.7 1224.53 Q2094.7 1226.8 2096.18 1228.15 Q2097.68 1229.46 2100.25 1229.46 Q2103.79 1229.46 2105.92 1226.96 Q2108.08 1224.44 2108.08 1220.28 L2108.08 1219.33 L2103.84 1219.33 M2112.33 1217.57 L2112.33 1232.36 L2108.08 1232.36 L2108.08 1228.42 Q2106.62 1230.78 2104.44 1231.92 Q2102.26 1233.03 2099.12 1233.03 Q2095.14 1233.03 2092.77 1230.81 Q2090.44 1228.56 2090.44 1224.81 Q2090.44 1220.44 2093.35 1218.21 Q2096.29 1215.99 2102.1 1215.99 L2108.08 1215.99 L2108.08 1215.58 Q2108.08 1212.64 2106.13 1211.04 Q2104.21 1209.42 2100.71 1209.42 Q2098.49 1209.42 2096.39 1209.95 Q2094.28 1210.48 2092.33 1211.55 L2092.33 1207.61 Q2094.67 1206.71 2096.87 1206.27 Q2099.07 1205.81 2101.15 1205.81 Q2106.78 1205.81 2109.56 1208.72 Q2112.33 1211.64 2112.33 1217.57 Z" fill="#000000" fill-rule="nonzero" fill-opacity="1" /><path clip-path="url(#clip660)" d="M2121.11 1206.43 L2125.37 1206.43 L2125.37 1232.36 L2121.11 1232.36 L2121.11 1206.43 M2121.11 1196.34 L2125.37 1196.34 L2125.37 1201.73 L2121.11 1201.73 L2121.11 1196.34 Z" fill="#000000" fill-rule="nonzero" fill-opacity="1" /><path clip-path="url(#clip660)" d="M2155.83 1216.71 L2155.83 1232.36 L2151.57 1232.36 L2151.57 1216.85 Q2151.57 1213.17 2150.14 1211.34 Q2148.7 1209.51 2145.83 1209.51 Q2142.38 1209.51 2140.39 1211.71 Q2138.4 1213.91 2138.4 1217.71 L2138.4 1232.36 L2134.12 1232.36 L2134.12 1206.43 L2138.4 1206.43 L2138.4 1210.46 Q2139.93 1208.12 2141.99 1206.96 Q2144.07 1205.81 2146.78 1205.81 Q2151.25 1205.81 2153.54 1208.59 Q2155.83 1211.34 2155.83 1216.71 Z" fill="#000000" fill-rule="nonzero" fill-opacity="1" /></svg>
