<?xml version="1.0" encoding="utf-8"?>
<svg xmlns="http://www.w3.org/2000/svg" xmlns:xlink="http://www.w3.org/1999/xlink" width="1150" height="350" viewBox="0 0 4600 1400">
<defs>
  <clipPath id="clip940">
    <rect x="0" y="0" width="4600" height="1400"/>
  </clipPath>
</defs>
<path clip-path="url(#clip940)" d="M0 1400 L4600 1400 L4600 0 L0 0  Z" fill="#ffffff" fill-rule="evenodd" fill-opacity="1"/>
<defs>
  <clipPath id="clip941">
    <rect x="920" y="0" width="3221" height="1400"/>
  </clipPath>
</defs>
<path clip-path="url(#clip940)" d="M163.416 1309.2 L4552.76 1309.2 L4552.76 90.6026 L163.416 90.6026  Z" fill="#ffffff" fill-rule="evenodd" fill-opacity="1"/>
<defs>
  <clipPath id="clip942">
    <rect x="163" y="90" width="4390" height="1220"/>
  </clipPath>
</defs>
<polyline clip-path="url(#clip942)" style="stroke:#000000; stroke-linecap:round; stroke-linejoin:round; stroke-width:2; stroke-opacity:0.1; fill:none" points="589.316,1309.2 589.316,90.6026 "/>
<polyline clip-path="url(#clip942)" style="stroke:#000000; stroke-linecap:round; stroke-linejoin:round; stroke-width:2; stroke-opacity:0.1; fill:none" points="1445.48,1309.2 1445.48,90.6026 "/>
<polyline clip-path="url(#clip942)" style="stroke:#000000; stroke-linecap:round; stroke-linejoin:round; stroke-width:2; stroke-opacity:0.1; fill:none" points="2301.64,1309.2 2301.64,90.6026 "/>
<polyline clip-path="url(#clip942)" style="stroke:#000000; stroke-linecap:round; stroke-linejoin:round; stroke-width:2; stroke-opacity:0.1; fill:none" points="3157.79,1309.2 3157.79,90.6026 "/>
<polyline clip-path="url(#clip942)" style="stroke:#000000; stroke-linecap:round; stroke-linejoin:round; stroke-width:2; stroke-opacity:0.1; fill:none" points="4013.95,1309.2 4013.95,90.6026 "/>
<polyline clip-path="url(#clip942)" style="stroke:#000000; stroke-linecap:round; stroke-linejoin:round; stroke-width:2; stroke-opacity:0.1; fill:none" points="163.416,1266.21 4552.76,1266.21 "/>
<polyline clip-path="url(#clip942)" style="stroke:#000000; stroke-linecap:round; stroke-linejoin:round; stroke-width:2; stroke-opacity:0.1; fill:none" points="163.416,1027.83 4552.76,1027.83 "/>
<polyline clip-path="url(#clip942)" style="stroke:#000000; stroke-linecap:round; stroke-linejoin:round; stroke-width:2; stroke-opacity:0.1; fill:none" points="163.416,789.448 4552.76,789.448 "/>
<polyline clip-path="url(#clip942)" style="stroke:#000000; stroke-linecap:round; stroke-linejoin:round; stroke-width:2; stroke-opacity:0.1; fill:none" points="163.416,551.068 4552.76,551.068 "/>
<polyline clip-path="url(#clip942)" style="stroke:#000000; stroke-linecap:round; stroke-linejoin:round; stroke-width:2; stroke-opacity:0.1; fill:none" points="163.416,312.688 4552.76,312.688 "/>
<polyline clip-path="url(#clip940)" style="stroke:#000000; stroke-linecap:round; stroke-linejoin:round; stroke-width:4; stroke-opacity:1; fill:none" points="163.416,1309.2 4552.76,1309.2 "/>
<polyline clip-path="url(#clip940)" style="stroke:#000000; stroke-linecap:round; stroke-linejoin:round; stroke-width:4; stroke-opacity:1; fill:none" points="589.316,1309.2 589.316,1290.31 "/>
<polyline clip-path="url(#clip940)" style="stroke:#000000; stroke-linecap:round; stroke-linejoin:round; stroke-width:4; stroke-opacity:1; fill:none" points="1445.48,1309.2 1445.48,1290.31 "/>
<polyline clip-path="url(#clip940)" style="stroke:#000000; stroke-linecap:round; stroke-linejoin:round; stroke-width:4; stroke-opacity:1; fill:none" points="2301.64,1309.2 2301.64,1290.31 "/>
<polyline clip-path="url(#clip940)" style="stroke:#000000; stroke-linecap:round; stroke-linejoin:round; stroke-width:4; stroke-opacity:1; fill:none" points="3157.79,1309.2 3157.79,1290.31 "/>
<polyline clip-path="url(#clip940)" style="stroke:#000000; stroke-linecap:round; stroke-linejoin:round; stroke-width:4; stroke-opacity:1; fill:none" points="4013.95,1309.2 4013.95,1290.31 "/>
<path clip-path="url(#clip940)" d="M563.016 1369.08 L588.982 1369.08 L588.982 1372.52 L563.016 1372.52 L563.016 1369.08 Z" fill="#000000" fill-rule="nonzero" fill-opacity="1" /><path clip-path="url(#clip940)" d="M601.337 1380.36 L615.617 1380.36 L615.617 1383.8 L596.415 1383.8 L596.415 1380.36 Q598.745 1377.95 602.755 1373.9 Q606.786 1369.83 607.819 1368.65 Q609.783 1366.44 610.553 1364.93 Q611.343 1363.39 611.343 1361.91 Q611.343 1359.5 609.642 1357.98 Q607.961 1356.46 605.246 1356.46 Q603.322 1356.46 601.175 1357.13 Q599.049 1357.8 596.618 1359.15 L596.618 1355.02 Q599.089 1354.03 601.236 1353.52 Q603.383 1353.02 605.165 1353.02 Q609.864 1353.02 612.66 1355.37 Q615.455 1357.71 615.455 1361.64 Q615.455 1363.51 614.746 1365.19 Q614.057 1366.85 612.214 1369.12 Q611.708 1369.71 608.993 1372.52 Q606.279 1375.32 601.337 1380.36 Z" fill="#000000" fill-rule="nonzero" fill-opacity="1" /><path clip-path="url(#clip940)" d="M1419.01 1369.08 L1444.98 1369.08 L1444.98 1372.52 L1419.01 1372.52 L1419.01 1369.08 Z" fill="#000000" fill-rule="nonzero" fill-opacity="1" /><path clip-path="url(#clip940)" d="M1454.52 1380.36 L1461.2 1380.36 L1461.2 1357.29 L1453.93 1358.75 L1453.93 1355.02 L1461.16 1353.56 L1465.25 1353.56 L1465.25 1380.36 L1471.94 1380.36 L1471.94 1383.8 L1454.52 1383.8 L1454.52 1380.36 Z" fill="#000000" fill-rule="nonzero" fill-opacity="1" /><path clip-path="url(#clip940)" d="M2301.64 1356.26 Q2298.48 1356.26 2296.88 1359.38 Q2295.3 1362.47 2295.3 1368.71 Q2295.3 1374.93 2296.88 1378.05 Q2298.48 1381.15 2301.64 1381.15 Q2304.82 1381.15 2306.4 1378.05 Q2308 1374.93 2308 1368.71 Q2308 1362.47 2306.4 1359.38 Q2304.82 1356.26 2301.64 1356.26 M2301.64 1353.02 Q2306.72 1353.02 2309.39 1357.05 Q2312.09 1361.06 2312.09 1368.71 Q2312.09 1376.35 2309.39 1380.38 Q2306.72 1384.39 2301.64 1384.39 Q2296.55 1384.39 2293.86 1380.38 Q2291.18 1376.35 2291.18 1368.71 Q2291.18 1361.06 2293.86 1357.05 Q2296.55 1353.02 2301.64 1353.02 Z" fill="#000000" fill-rule="nonzero" fill-opacity="1" /><path clip-path="url(#clip940)" d="M3149.38 1380.36 L3156.06 1380.36 L3156.06 1357.29 L3148.79 1358.75 L3148.79 1355.02 L3156.02 1353.56 L3160.11 1353.56 L3160.11 1380.36 L3166.8 1380.36 L3166.8 1383.8 L3149.38 1383.8 L3149.38 1380.36 Z" fill="#000000" fill-rule="nonzero" fill-opacity="1" /><path clip-path="url(#clip940)" d="M4009.28 1380.36 L4023.55 1380.36 L4023.55 1383.8 L4004.35 1383.8 L4004.35 1380.36 Q4006.68 1377.95 4010.69 1373.9 Q4014.72 1369.83 4015.76 1368.65 Q4017.72 1366.44 4018.49 1364.93 Q4019.28 1363.39 4019.28 1361.91 Q4019.28 1359.5 4017.58 1357.98 Q4015.9 1356.46 4013.18 1356.46 Q4011.26 1356.46 4009.11 1357.13 Q4006.99 1357.8 4004.56 1359.15 L4004.56 1355.02 Q4007.03 1354.03 4009.17 1353.52 Q4011.32 1353.02 4013.1 1353.02 Q4017.8 1353.02 4020.6 1355.37 Q4023.39 1357.71 4023.39 1361.64 Q4023.39 1363.51 4022.68 1365.19 Q4022 1366.85 4020.15 1369.12 Q4019.65 1369.71 4016.93 1372.52 Q4014.22 1375.32 4009.28 1380.36 Z" fill="#000000" fill-rule="nonzero" fill-opacity="1" /><polyline clip-path="url(#clip940)" style="stroke:#000000; stroke-linecap:round; stroke-linejoin:round; stroke-width:4; stroke-opacity:1; fill:none" points="163.416,1309.2 163.416,90.6026 "/>
<polyline clip-path="url(#clip940)" style="stroke:#000000; stroke-linecap:round; stroke-linejoin:round; stroke-width:4; stroke-opacity:1; fill:none" points="163.416,1266.21 182.314,1266.21 "/>
<polyline clip-path="url(#clip940)" style="stroke:#000000; stroke-linecap:round; stroke-linejoin:round; stroke-width:4; stroke-opacity:1; fill:none" points="163.416,1027.83 182.314,1027.83 "/>
<polyline clip-path="url(#clip940)" style="stroke:#000000; stroke-linecap:round; stroke-linejoin:round; stroke-width:4; stroke-opacity:1; fill:none" points="163.416,789.448 182.314,789.448 "/>
<polyline clip-path="url(#clip940)" style="stroke:#000000; stroke-linecap:round; stroke-linejoin:round; stroke-width:4; stroke-opacity:1; fill:none" points="163.416,551.068 182.314,551.068 "/>
<polyline clip-path="url(#clip940)" style="stroke:#000000; stroke-linecap:round; stroke-linejoin:round; stroke-width:4; stroke-opacity:1; fill:none" points="163.416,312.688 182.314,312.688 "/>
<path clip-path="url(#clip940)" d="M39.9921 1266.6 L65.9584 1266.6 L65.9584 1270.05 L39.9921 1270.05 L39.9921 1266.6 Z" fill="#000000" fill-rule="nonzero" fill-opacity="1" /><path clip-path="url(#clip940)" d="M86.0307 1254.65 L75.7008 1270.8 L86.0307 1270.8 L86.0307 1254.65 M84.9572 1251.09 L90.1018 1251.09 L90.1018 1270.8 L94.416 1270.8 L94.416 1274.2 L90.1018 1274.2 L90.1018 1281.33 L86.0307 1281.33 L86.0307 1274.2 L72.3791 1274.2 L72.3791 1270.25 L84.9572 1251.09 Z" fill="#000000" fill-rule="nonzero" fill-opacity="1" /><path clip-path="url(#clip940)" d="M41.815 1028.22 L67.7813 1028.22 L67.7813 1031.67 L41.815 1031.67 L41.815 1028.22 Z" fill="#000000" fill-rule="nonzero" fill-opacity="1" /><path clip-path="url(#clip940)" d="M80.1366 1039.5 L94.416 1039.5 L94.416 1042.95 L75.2147 1042.95 L75.2147 1039.5 Q77.544 1037.09 81.5544 1033.04 Q85.5851 1028.97 86.618 1027.8 Q88.5827 1025.59 89.3524 1024.07 Q90.1423 1022.53 90.1423 1021.05 Q90.1423 1018.64 88.4409 1017.12 Q86.7598 1015.6 84.0457 1015.6 Q82.1215 1015.6 79.9746 1016.27 Q77.8478 1016.94 75.4173 1018.3 L75.4173 1014.17 Q77.8883 1013.17 80.0353 1012.67 Q82.1823 1012.16 83.9647 1012.16 Q88.6637 1012.16 91.4589 1014.51 Q94.254 1016.86 94.254 1020.79 Q94.254 1022.65 93.5451 1024.33 Q92.8564 1026 91.0133 1028.26 Q90.5069 1028.85 87.7928 1031.67 Q85.0787 1034.46 80.1366 1039.5 Z" fill="#000000" fill-rule="nonzero" fill-opacity="1" /><path clip-path="url(#clip940)" d="M83.9647 777.022 Q80.805 777.022 79.2049 780.141 Q77.625 783.24 77.625 789.479 Q77.625 795.697 79.2049 798.816 Q80.805 801.915 83.9647 801.915 Q87.1447 801.915 88.7245 798.816 Q90.3246 795.697 90.3246 789.479 Q90.3246 783.24 88.7245 780.141 Q87.1447 777.022 83.9647 777.022 M83.9647 773.781 Q89.0486 773.781 91.7222 777.812 Q94.416 781.822 94.416 789.479 Q94.416 797.115 91.7222 801.145 Q89.0486 805.156 83.9647 805.156 Q78.8808 805.156 76.187 801.145 Q73.5134 797.115 73.5134 789.479 Q73.5134 781.822 76.187 777.812 Q78.8808 773.781 83.9647 773.781 Z" fill="#000000" fill-rule="nonzero" fill-opacity="1" /><path clip-path="url(#clip940)" d="M80.1366 562.745 L94.416 562.745 L94.416 566.188 L75.2147 566.188 L75.2147 562.745 Q77.544 560.335 81.5544 556.284 Q85.5851 552.213 86.618 551.038 Q88.5827 548.83 89.3524 547.311 Q90.1423 545.772 90.1423 544.293 Q90.1423 541.883 88.4409 540.364 Q86.7598 538.845 84.0457 538.845 Q82.1215 538.845 79.9746 539.513 Q77.8478 540.181 75.4173 541.539 L75.4173 537.407 Q77.8883 536.414 80.0353 535.908 Q82.1823 535.401 83.9647 535.401 Q88.6637 535.401 91.4589 537.751 Q94.254 540.1 94.254 544.03 Q94.254 545.893 93.5451 547.574 Q92.8564 549.235 91.0133 551.504 Q90.5069 552.091 87.7928 554.906 Q85.0787 557.702 80.1366 562.745 Z" fill="#000000" fill-rule="nonzero" fill-opacity="1" /><path clip-path="url(#clip940)" d="M86.0307 301.133 L75.7008 317.276 L86.0307 317.276 L86.0307 301.133 M84.9572 297.568 L90.1018 297.568 L90.1018 317.276 L94.416 317.276 L94.416 320.679 L90.1018 320.679 L90.1018 327.808 L86.0307 327.808 L86.0307 320.679 L72.3791 320.679 L72.3791 316.729 L84.9572 297.568 Z" fill="#000000" fill-rule="nonzero" fill-opacity="1" /><path clip-path="url(#clip940)" d="M1905.96 12.096 L1940.72 12.096 L1940.72 18.9825 L1914.15 18.9825 L1914.15 36.8065 L1938.13 36.8065 L1938.13 43.6931 L1914.15 43.6931 L1914.15 72.576 L1905.96 72.576 L1905.96 12.096 Z" fill="#000000" fill-rule="nonzero" fill-opacity="1" /><path clip-path="url(#clip940)" d="M1947.32 27.2059 L1954.78 27.2059 L1954.78 72.576 L1947.32 72.576 L1947.32 27.2059 M1947.32 9.54393 L1954.78 9.54393 L1954.78 18.9825 L1947.32 18.9825 L1947.32 9.54393 Z" fill="#000000" fill-rule="nonzero" fill-opacity="1" /><path clip-path="url(#clip940)" d="M1977.75 14.324 L1977.75 27.2059 L1993.1 27.2059 L1993.1 32.9987 L1977.75 32.9987 L1977.75 57.6282 Q1977.75 63.1779 1979.25 64.7578 Q1980.78 66.3376 1985.44 66.3376 L1993.1 66.3376 L1993.1 72.576 L1985.44 72.576 Q1976.81 72.576 1973.53 69.3758 Q1970.25 66.1351 1970.25 57.6282 L1970.25 32.9987 L1964.78 32.9987 L1964.78 27.2059 L1970.25 27.2059 L1970.25 14.324 L1977.75 14.324 Z" fill="#000000" fill-rule="nonzero" fill-opacity="1" /><path clip-path="url(#clip940)" d="M2010.28 14.324 L2010.28 27.2059 L2025.63 27.2059 L2025.63 32.9987 L2010.28 32.9987 L2010.28 57.6282 Q2010.28 63.1779 2011.77 64.7578 Q2013.31 66.3376 2017.97 66.3376 L2025.63 66.3376 L2025.63 72.576 L2017.97 72.576 Q2009.34 72.576 2006.06 69.3758 Q2002.78 66.1351 2002.78 57.6282 L2002.78 32.9987 L1997.31 32.9987 L1997.31 27.2059 L2002.78 27.2059 L2002.78 14.324 L2010.28 14.324 Z" fill="#000000" fill-rule="nonzero" fill-opacity="1" /><path clip-path="url(#clip940)" d="M2074.24 48.0275 L2074.24 51.6733 L2039.97 51.6733 Q2040.45 59.3701 2044.59 63.421 Q2048.76 67.4314 2056.17 67.4314 Q2060.47 67.4314 2064.48 66.3781 Q2068.53 65.3249 2072.5 63.2184 L2072.5 70.267 Q2068.49 71.9684 2064.27 72.8596 Q2060.06 73.7508 2055.73 73.7508 Q2044.87 73.7508 2038.51 67.4314 Q2032.19 61.1119 2032.19 50.3365 Q2032.19 39.1965 2038.19 32.6746 Q2044.22 26.1121 2054.43 26.1121 Q2063.59 26.1121 2068.89 32.0264 Q2074.24 37.9003 2074.24 48.0275 M2066.79 45.84 Q2066.7 39.7232 2063.34 36.0774 Q2060.02 32.4315 2054.51 32.4315 Q2048.27 32.4315 2044.51 35.9558 Q2040.78 39.4801 2040.21 45.8805 L2066.79 45.84 Z" fill="#000000" fill-rule="nonzero" fill-opacity="1" /><path clip-path="url(#clip940)" d="M2116.33 34.0924 L2116.33 9.54393 L2123.78 9.54393 L2123.78 72.576 L2116.33 72.576 L2116.33 65.7705 Q2113.98 69.8214 2110.37 71.8063 Q2106.81 73.7508 2101.79 73.7508 Q2093.56 73.7508 2088.38 67.1883 Q2083.23 60.6258 2083.23 49.9314 Q2083.23 39.2371 2088.38 32.6746 Q2093.56 26.1121 2101.79 26.1121 Q2106.81 26.1121 2110.37 28.0971 Q2113.98 30.0415 2116.33 34.0924 M2090.93 49.9314 Q2090.93 58.1548 2094.29 62.8538 Q2097.69 67.5124 2103.61 67.5124 Q2109.52 67.5124 2112.93 62.8538 Q2116.33 58.1548 2116.33 49.9314 Q2116.33 41.7081 2112.93 37.0496 Q2109.52 32.3505 2103.61 32.3505 Q2097.69 32.3505 2094.29 37.0496 Q2090.93 41.7081 2090.93 49.9314 Z" fill="#000000" fill-rule="nonzero" fill-opacity="1" /><path clip-path="url(#clip940)" d="M2165.51 9.54393 L2172.96 9.54393 L2172.96 72.576 L2165.51 72.576 L2165.51 9.54393 Z" fill="#000000" fill-rule="nonzero" fill-opacity="1" /><path clip-path="url(#clip940)" d="M2188.56 27.2059 L2196.01 27.2059 L2196.01 72.576 L2188.56 72.576 L2188.56 27.2059 M2188.56 9.54393 L2196.01 9.54393 L2196.01 18.9825 L2188.56 18.9825 L2188.56 9.54393 Z" fill="#000000" fill-rule="nonzero" fill-opacity="1" /><path clip-path="url(#clip940)" d="M2249.32 45.1919 L2249.32 72.576 L2241.87 72.576 L2241.87 45.4349 Q2241.87 38.994 2239.35 35.7938 Q2236.84 32.5936 2231.82 32.5936 Q2225.78 32.5936 2222.3 36.4419 Q2218.82 40.2903 2218.82 46.9338 L2218.82 72.576 L2211.32 72.576 L2211.32 27.2059 L2218.82 27.2059 L2218.82 34.2544 Q2221.49 30.163 2225.09 28.1376 Q2228.74 26.1121 2233.48 26.1121 Q2241.3 26.1121 2245.31 30.9732 Q2249.32 35.7938 2249.32 45.1919 Z" fill="#000000" fill-rule="nonzero" fill-opacity="1" /><path clip-path="url(#clip940)" d="M2302.99 48.0275 L2302.99 51.6733 L2268.72 51.6733 Q2269.21 59.3701 2273.34 63.421 Q2277.51 67.4314 2284.93 67.4314 Q2289.22 67.4314 2293.23 66.3781 Q2297.28 65.3249 2301.25 63.2184 L2301.25 70.267 Q2297.24 71.9684 2293.03 72.8596 Q2288.82 73.7508 2284.48 73.7508 Q2273.62 73.7508 2267.26 67.4314 Q2260.95 61.1119 2260.95 50.3365 Q2260.95 39.1965 2266.94 32.6746 Q2272.98 26.1121 2283.18 26.1121 Q2292.34 26.1121 2297.65 32.0264 Q2302.99 37.9003 2302.99 48.0275 M2295.54 45.84 Q2295.46 39.7232 2292.1 36.0774 Q2288.77 32.4315 2283.27 32.4315 Q2277.03 32.4315 2273.26 35.9558 Q2269.53 39.4801 2268.97 45.8805 L2295.54 45.84 Z" fill="#000000" fill-rule="nonzero" fill-opacity="1" /><path clip-path="url(#clip940)" d="M2344.15 28.5427 L2344.15 35.5912 Q2340.99 33.9709 2337.59 33.1607 Q2334.19 32.3505 2330.54 32.3505 Q2324.99 32.3505 2322.19 34.0519 Q2319.44 35.7533 2319.44 39.156 Q2319.44 41.7486 2321.43 43.2475 Q2323.41 44.7058 2329.41 46.0426 L2331.96 46.6097 Q2339.9 48.3111 2343.22 51.4303 Q2346.58 54.509 2346.58 60.0587 Q2346.58 66.3781 2341.56 70.0644 Q2336.58 73.7508 2327.83 73.7508 Q2324.18 73.7508 2320.21 73.0216 Q2316.28 72.3329 2311.91 70.9151 L2311.91 63.2184 Q2316.04 65.3654 2320.05 66.4591 Q2324.06 67.5124 2327.99 67.5124 Q2333.25 67.5124 2336.09 65.73 Q2338.93 63.9071 2338.93 60.6258 Q2338.93 57.5877 2336.86 55.9673 Q2334.83 54.3469 2327.91 52.8481 L2325.31 52.2405 Q2318.39 50.7821 2315.31 47.7845 Q2312.23 44.7463 2312.23 39.4801 Q2312.23 33.0797 2316.77 29.5959 Q2321.3 26.1121 2329.65 26.1121 Q2333.78 26.1121 2337.43 26.7198 Q2341.07 27.3274 2344.15 28.5427 Z" fill="#000000" fill-rule="nonzero" fill-opacity="1" /><path clip-path="url(#clip940)" d="M2405.44 49.7694 Q2396.41 49.7694 2392.92 51.8354 Q2389.44 53.9013 2389.44 58.8839 Q2389.44 62.8538 2392.03 65.2034 Q2394.67 67.5124 2399.16 67.5124 Q2405.36 67.5124 2409.09 63.1374 Q2412.85 58.7219 2412.85 51.4303 L2412.85 49.7694 L2405.44 49.7694 M2420.31 46.6907 L2420.31 72.576 L2412.85 72.576 L2412.85 65.6895 Q2410.3 69.8214 2406.49 71.8063 Q2402.69 73.7508 2397.18 73.7508 Q2390.21 73.7508 2386.08 69.8619 Q2381.99 65.9325 2381.99 59.3701 Q2381.99 51.7138 2387.09 47.825 Q2392.24 43.9361 2402.4 43.9361 L2412.85 43.9361 L2412.85 43.2069 Q2412.85 38.0623 2409.45 35.2672 Q2406.09 32.4315 2399.97 32.4315 Q2396.08 32.4315 2392.4 33.3632 Q2388.71 34.295 2385.31 36.1584 L2385.31 29.2718 Q2389.4 27.692 2393.25 26.9223 Q2397.1 26.1121 2400.74 26.1121 Q2410.59 26.1121 2415.45 31.2163 Q2420.31 36.3204 2420.31 46.6907 Z" fill="#000000" fill-rule="nonzero" fill-opacity="1" /><path clip-path="url(#clip940)" d="M2473.37 45.1919 L2473.37 72.576 L2465.92 72.576 L2465.92 45.4349 Q2465.92 38.994 2463.41 35.7938 Q2460.9 32.5936 2455.87 32.5936 Q2449.84 32.5936 2446.36 36.4419 Q2442.87 40.2903 2442.87 46.9338 L2442.87 72.576 L2435.38 72.576 L2435.38 27.2059 L2442.87 27.2059 L2442.87 34.2544 Q2445.54 30.163 2449.15 28.1376 Q2452.8 26.1121 2457.54 26.1121 Q2465.35 26.1121 2469.36 30.9732 Q2473.37 35.7938 2473.37 45.1919 Z" fill="#000000" fill-rule="nonzero" fill-opacity="1" /><path clip-path="url(#clip940)" d="M2518.1 34.0924 L2518.1 9.54393 L2525.55 9.54393 L2525.55 72.576 L2518.1 72.576 L2518.1 65.7705 Q2515.75 69.8214 2512.14 71.8063 Q2508.58 73.7508 2503.55 73.7508 Q2495.33 73.7508 2490.15 67.1883 Q2485 60.6258 2485 49.9314 Q2485 39.2371 2490.15 32.6746 Q2495.33 26.1121 2503.55 26.1121 Q2508.58 26.1121 2512.14 28.0971 Q2515.75 30.0415 2518.1 34.0924 M2492.7 49.9314 Q2492.7 58.1548 2496.06 62.8538 Q2499.46 67.5124 2505.38 67.5124 Q2511.29 67.5124 2514.69 62.8538 Q2518.1 58.1548 2518.1 49.9314 Q2518.1 41.7081 2514.69 37.0496 Q2511.29 32.3505 2505.38 32.3505 Q2499.46 32.3505 2496.06 37.0496 Q2492.7 41.7081 2492.7 49.9314 Z" fill="#000000" fill-rule="nonzero" fill-opacity="1" /><path clip-path="url(#clip940)" d="M2574.49 65.7705 L2574.49 89.8329 L2566.99 89.8329 L2566.99 27.2059 L2574.49 27.2059 L2574.49 34.0924 Q2576.83 30.0415 2580.4 28.0971 Q2584 26.1121 2588.99 26.1121 Q2597.25 26.1121 2602.4 32.6746 Q2607.58 39.2371 2607.58 49.9314 Q2607.58 60.6258 2602.4 67.1883 Q2597.25 73.7508 2588.99 73.7508 Q2584 73.7508 2580.4 71.8063 Q2576.83 69.8214 2574.49 65.7705 M2599.84 49.9314 Q2599.84 41.7081 2596.44 37.0496 Q2593.08 32.3505 2587.16 32.3505 Q2581.25 32.3505 2577.85 37.0496 Q2574.49 41.7081 2574.49 49.9314 Q2574.49 58.1548 2577.85 62.8538 Q2581.25 67.5124 2587.16 67.5124 Q2593.08 67.5124 2596.44 62.8538 Q2599.84 58.1548 2599.84 49.9314 Z" fill="#000000" fill-rule="nonzero" fill-opacity="1" /><path clip-path="url(#clip940)" d="M2637.52 32.4315 Q2631.52 32.4315 2628.04 37.1306 Q2624.55 41.7891 2624.55 49.9314 Q2624.55 58.0738 2628 62.7728 Q2631.48 67.4314 2637.52 67.4314 Q2643.47 67.4314 2646.96 62.7323 Q2650.44 58.0333 2650.44 49.9314 Q2650.44 41.8701 2646.96 37.1711 Q2643.47 32.4315 2637.52 32.4315 M2637.52 26.1121 Q2647.24 26.1121 2652.79 32.4315 Q2658.34 38.7509 2658.34 49.9314 Q2658.34 61.0714 2652.79 67.4314 Q2647.24 73.7508 2637.52 73.7508 Q2627.75 73.7508 2622.2 67.4314 Q2616.7 61.0714 2616.7 49.9314 Q2616.7 38.7509 2622.2 32.4315 Q2627.75 26.1121 2637.52 26.1121 Z" fill="#000000" fill-rule="nonzero" fill-opacity="1" /><path clip-path="url(#clip940)" d="M2670.69 27.2059 L2678.15 27.2059 L2678.15 72.576 L2670.69 72.576 L2670.69 27.2059 M2670.69 9.54393 L2678.15 9.54393 L2678.15 18.9825 L2670.69 18.9825 L2670.69 9.54393 Z" fill="#000000" fill-rule="nonzero" fill-opacity="1" /><path clip-path="url(#clip940)" d="M2731.46 45.1919 L2731.46 72.576 L2724 72.576 L2724 45.4349 Q2724 38.994 2721.49 35.7938 Q2718.98 32.5936 2713.96 32.5936 Q2707.92 32.5936 2704.44 36.4419 Q2700.95 40.2903 2700.95 46.9338 L2700.95 72.576 L2693.46 72.576 L2693.46 27.2059 L2700.95 27.2059 L2700.95 34.2544 Q2703.63 30.163 2707.23 28.1376 Q2710.88 26.1121 2715.62 26.1121 Q2723.44 26.1121 2727.45 30.9732 Q2731.46 35.7938 2731.46 45.1919 Z" fill="#000000" fill-rule="nonzero" fill-opacity="1" /><path clip-path="url(#clip940)" d="M2753.7 14.324 L2753.7 27.2059 L2769.05 27.2059 L2769.05 32.9987 L2753.7 32.9987 L2753.7 57.6282 Q2753.7 63.1779 2755.2 64.7578 Q2756.74 66.3376 2761.39 66.3376 L2769.05 66.3376 L2769.05 72.576 L2761.39 72.576 Q2752.77 72.576 2749.48 69.3758 Q2746.2 66.1351 2746.2 57.6282 L2746.2 32.9987 L2740.73 32.9987 L2740.73 27.2059 L2746.2 27.2059 L2746.2 14.324 L2753.7 14.324 Z" fill="#000000" fill-rule="nonzero" fill-opacity="1" /><path clip-path="url(#clip940)" d="M2807.78 28.5427 L2807.78 35.5912 Q2804.62 33.9709 2801.21 33.1607 Q2797.81 32.3505 2794.17 32.3505 Q2788.62 32.3505 2785.82 34.0519 Q2783.07 35.7533 2783.07 39.156 Q2783.07 41.7486 2785.05 43.2475 Q2787.04 44.7058 2793.03 46.0426 L2795.58 46.6097 Q2803.52 48.3111 2806.85 51.4303 Q2810.21 54.509 2810.21 60.0587 Q2810.21 66.3781 2805.18 70.0644 Q2800.2 73.7508 2791.45 73.7508 Q2787.81 73.7508 2783.84 73.0216 Q2779.91 72.3329 2775.53 70.9151 L2775.53 63.2184 Q2779.66 65.3654 2783.67 66.4591 Q2787.68 67.5124 2791.61 67.5124 Q2796.88 67.5124 2799.72 65.73 Q2802.55 63.9071 2802.55 60.6258 Q2802.55 57.5877 2800.49 55.9673 Q2798.46 54.3469 2791.53 52.8481 L2788.94 52.2405 Q2782.01 50.7821 2778.93 47.7845 Q2775.86 44.7463 2775.86 39.4801 Q2775.86 33.0797 2780.39 29.5959 Q2784.93 26.1121 2793.27 26.1121 Q2797.41 26.1121 2801.05 26.7198 Q2804.7 27.3274 2807.78 28.5427 Z" fill="#000000" fill-rule="nonzero" fill-opacity="1" /><circle clip-path="url(#clip942)" cx="2031.96" cy="771.071" r="14.4" fill="#009af9" fill-rule="evenodd" fill-opacity="1" stroke="#000000" stroke-opacity="1" stroke-width="2.8"/>
<circle clip-path="url(#clip942)" cx="2035.15" cy="875.769" r="14.4" fill="#009af9" fill-rule="evenodd" fill-opacity="1" stroke="#000000" stroke-opacity="1" stroke-width="2.8"/>
<circle clip-path="url(#clip942)" cx="3000.52" cy="562.453" r="14.4" fill="#009af9" fill-rule="evenodd" fill-opacity="1" stroke="#000000" stroke-opacity="1" stroke-width="2.8"/>
<circle clip-path="url(#clip942)" cx="2709.8" cy="604.371" r="14.4" fill="#009af9" fill-rule="evenodd" fill-opacity="1" stroke="#000000" stroke-opacity="1" stroke-width="2.8"/>
<circle clip-path="url(#clip942)" cx="1565.72" cy="852.245" r="14.4" fill="#009af9" fill-rule="evenodd" fill-opacity="1" stroke="#000000" stroke-opacity="1" stroke-width="2.8"/>
<circle clip-path="url(#clip942)" cx="1043.69" cy="857.409" r="14.4" fill="#009af9" fill-rule="evenodd" fill-opacity="1" stroke="#000000" stroke-opacity="1" stroke-width="2.8"/>
<circle clip-path="url(#clip942)" cx="906.824" cy="1015.19" r="14.4" fill="#009af9" fill-rule="evenodd" fill-opacity="1" stroke="#000000" stroke-opacity="1" stroke-width="2.8"/>
<circle clip-path="url(#clip942)" cx="3486.84" cy="351.82" r="14.4" fill="#009af9" fill-rule="evenodd" fill-opacity="1" stroke="#000000" stroke-opacity="1" stroke-width="2.8"/>
<circle clip-path="url(#clip942)" cx="1595.02" cy="917.089" r="14.4" fill="#009af9" fill-rule="evenodd" fill-opacity="1" stroke="#000000" stroke-opacity="1" stroke-width="2.8"/>
<circle clip-path="url(#clip942)" cx="3021.06" cy="527.614" r="14.4" fill="#009af9" fill-rule="evenodd" fill-opacity="1" stroke="#000000" stroke-opacity="1" stroke-width="2.8"/>
<circle clip-path="url(#clip942)" cx="2673.11" cy="629.909" r="14.4" fill="#009af9" fill-rule="evenodd" fill-opacity="1" stroke="#000000" stroke-opacity="1" stroke-width="2.8"/>
<circle clip-path="url(#clip942)" cx="1963.08" cy="821.528" r="14.4" fill="#009af9" fill-rule="evenodd" fill-opacity="1" stroke="#000000" stroke-opacity="1" stroke-width="2.8"/>
<circle clip-path="url(#clip942)" cx="2744.38" cy="706.999" r="14.4" fill="#009af9" fill-rule="evenodd" fill-opacity="1" stroke="#000000" stroke-opacity="1" stroke-width="2.8"/>
<circle clip-path="url(#clip942)" cx="3540.69" cy="484.226" r="14.4" fill="#009af9" fill-rule="evenodd" fill-opacity="1" stroke="#000000" stroke-opacity="1" stroke-width="2.8"/>
<circle clip-path="url(#clip942)" cx="875.438" cy="1093.58" r="14.4" fill="#009af9" fill-rule="evenodd" fill-opacity="1" stroke="#000000" stroke-opacity="1" stroke-width="2.8"/>
<circle clip-path="url(#clip942)" cx="2628.38" cy="513.065" r="14.4" fill="#009af9" fill-rule="evenodd" fill-opacity="1" stroke="#000000" stroke-opacity="1" stroke-width="2.8"/>
<circle clip-path="url(#clip942)" cx="1249.34" cy="1160.27" r="14.4" fill="#009af9" fill-rule="evenodd" fill-opacity="1" stroke="#000000" stroke-opacity="1" stroke-width="2.8"/>
<circle clip-path="url(#clip942)" cx="2218.95" cy="747.043" r="14.4" fill="#009af9" fill-rule="evenodd" fill-opacity="1" stroke="#000000" stroke-opacity="1" stroke-width="2.8"/>
<circle clip-path="url(#clip942)" cx="1117.73" cy="1140.47" r="14.4" fill="#009af9" fill-rule="evenodd" fill-opacity="1" stroke="#000000" stroke-opacity="1" stroke-width="2.8"/>
<circle clip-path="url(#clip942)" cx="1049.55" cy="881.068" r="14.4" fill="#009af9" fill-rule="evenodd" fill-opacity="1" stroke="#000000" stroke-opacity="1" stroke-width="2.8"/>
<circle clip-path="url(#clip942)" cx="3415.47" cy="537.388" r="14.4" fill="#009af9" fill-rule="evenodd" fill-opacity="1" stroke="#000000" stroke-opacity="1" stroke-width="2.8"/>
<circle clip-path="url(#clip942)" cx="4241.93" cy="524.464" r="14.4" fill="#009af9" fill-rule="evenodd" fill-opacity="1" stroke="#000000" stroke-opacity="1" stroke-width="2.8"/>
<circle clip-path="url(#clip942)" cx="2495.86" cy="662.686" r="14.4" fill="#009af9" fill-rule="evenodd" fill-opacity="1" stroke="#000000" stroke-opacity="1" stroke-width="2.8"/>
<circle clip-path="url(#clip942)" cx="2515.16" cy="756.276" r="14.4" fill="#009af9" fill-rule="evenodd" fill-opacity="1" stroke="#000000" stroke-opacity="1" stroke-width="2.8"/>
<circle clip-path="url(#clip942)" cx="3072.13" cy="383.543" r="14.4" fill="#009af9" fill-rule="evenodd" fill-opacity="1" stroke="#000000" stroke-opacity="1" stroke-width="2.8"/>
<circle clip-path="url(#clip942)" cx="2544.92" cy="651.851" r="14.4" fill="#009af9" fill-rule="evenodd" fill-opacity="1" stroke="#000000" stroke-opacity="1" stroke-width="2.8"/>
<circle clip-path="url(#clip942)" cx="3246.48" cy="470.811" r="14.4" fill="#009af9" fill-rule="evenodd" fill-opacity="1" stroke="#000000" stroke-opacity="1" stroke-width="2.8"/>
<circle clip-path="url(#clip942)" cx="2870.02" cy="490.319" r="14.4" fill="#009af9" fill-rule="evenodd" fill-opacity="1" stroke="#000000" stroke-opacity="1" stroke-width="2.8"/>
<circle clip-path="url(#clip942)" cx="2448.27" cy="813.289" r="14.4" fill="#009af9" fill-rule="evenodd" fill-opacity="1" stroke="#000000" stroke-opacity="1" stroke-width="2.8"/>
<circle clip-path="url(#clip942)" cx="3260.46" cy="612.637" r="14.4" fill="#009af9" fill-rule="evenodd" fill-opacity="1" stroke="#000000" stroke-opacity="1" stroke-width="2.8"/>
<circle clip-path="url(#clip942)" cx="2609.4" cy="612.156" r="14.4" fill="#009af9" fill-rule="evenodd" fill-opacity="1" stroke="#000000" stroke-opacity="1" stroke-width="2.8"/>
<circle clip-path="url(#clip942)" cx="2130.66" cy="812.666" r="14.4" fill="#009af9" fill-rule="evenodd" fill-opacity="1" stroke="#000000" stroke-opacity="1" stroke-width="2.8"/>
<circle clip-path="url(#clip942)" cx="1971.49" cy="762.632" r="14.4" fill="#009af9" fill-rule="evenodd" fill-opacity="1" stroke="#000000" stroke-opacity="1" stroke-width="2.8"/>
<circle clip-path="url(#clip942)" cx="1925.16" cy="857.645" r="14.4" fill="#009af9" fill-rule="evenodd" fill-opacity="1" stroke="#000000" stroke-opacity="1" stroke-width="2.8"/>
<circle clip-path="url(#clip942)" cx="2840.92" cy="729.36" r="14.4" fill="#009af9" fill-rule="evenodd" fill-opacity="1" stroke="#000000" stroke-opacity="1" stroke-width="2.8"/>
<circle clip-path="url(#clip942)" cx="2242.04" cy="631.696" r="14.4" fill="#009af9" fill-rule="evenodd" fill-opacity="1" stroke="#000000" stroke-opacity="1" stroke-width="2.8"/>
<circle clip-path="url(#clip942)" cx="1634.76" cy="847.402" r="14.4" fill="#009af9" fill-rule="evenodd" fill-opacity="1" stroke="#000000" stroke-opacity="1" stroke-width="2.8"/>
<circle clip-path="url(#clip942)" cx="1549.29" cy="818.574" r="14.4" fill="#009af9" fill-rule="evenodd" fill-opacity="1" stroke="#000000" stroke-opacity="1" stroke-width="2.8"/>
<circle clip-path="url(#clip942)" cx="3493.29" cy="532.466" r="14.4" fill="#009af9" fill-rule="evenodd" fill-opacity="1" stroke="#000000" stroke-opacity="1" stroke-width="2.8"/>
<circle clip-path="url(#clip942)" cx="2941.15" cy="697.727" r="14.4" fill="#009af9" fill-rule="evenodd" fill-opacity="1" stroke="#000000" stroke-opacity="1" stroke-width="2.8"/>
<circle clip-path="url(#clip942)" cx="2269.61" cy="643.691" r="14.4" fill="#009af9" fill-rule="evenodd" fill-opacity="1" stroke="#000000" stroke-opacity="1" stroke-width="2.8"/>
<circle clip-path="url(#clip942)" cx="2160.17" cy="883.452" r="14.4" fill="#009af9" fill-rule="evenodd" fill-opacity="1" stroke="#000000" stroke-opacity="1" stroke-width="2.8"/>
<circle clip-path="url(#clip942)" cx="2155.27" cy="623.509" r="14.4" fill="#009af9" fill-rule="evenodd" fill-opacity="1" stroke="#000000" stroke-opacity="1" stroke-width="2.8"/>
<circle clip-path="url(#clip942)" cx="1748.41" cy="916.979" r="14.4" fill="#009af9" fill-rule="evenodd" fill-opacity="1" stroke="#000000" stroke-opacity="1" stroke-width="2.8"/>
<circle clip-path="url(#clip942)" cx="1530.62" cy="1019.32" r="14.4" fill="#009af9" fill-rule="evenodd" fill-opacity="1" stroke="#000000" stroke-opacity="1" stroke-width="2.8"/>
<circle clip-path="url(#clip942)" cx="2136.39" cy="590.925" r="14.4" fill="#009af9" fill-rule="evenodd" fill-opacity="1" stroke="#000000" stroke-opacity="1" stroke-width="2.8"/>
<circle clip-path="url(#clip942)" cx="2702.76" cy="657.233" r="14.4" fill="#009af9" fill-rule="evenodd" fill-opacity="1" stroke="#000000" stroke-opacity="1" stroke-width="2.8"/>
<circle clip-path="url(#clip942)" cx="1422.34" cy="927.848" r="14.4" fill="#009af9" fill-rule="evenodd" fill-opacity="1" stroke="#000000" stroke-opacity="1" stroke-width="2.8"/>
<circle clip-path="url(#clip942)" cx="1771.07" cy="801.091" r="14.4" fill="#009af9" fill-rule="evenodd" fill-opacity="1" stroke="#000000" stroke-opacity="1" stroke-width="2.8"/>
<circle clip-path="url(#clip942)" cx="2845.9" cy="523.696" r="14.4" fill="#009af9" fill-rule="evenodd" fill-opacity="1" stroke="#000000" stroke-opacity="1" stroke-width="2.8"/>
<circle clip-path="url(#clip942)" cx="1891.86" cy="762.987" r="14.4" fill="#009af9" fill-rule="evenodd" fill-opacity="1" stroke="#000000" stroke-opacity="1" stroke-width="2.8"/>
<circle clip-path="url(#clip942)" cx="3153.25" cy="547.05" r="14.4" fill="#009af9" fill-rule="evenodd" fill-opacity="1" stroke="#000000" stroke-opacity="1" stroke-width="2.8"/>
<circle clip-path="url(#clip942)" cx="2584.45" cy="631.906" r="14.4" fill="#009af9" fill-rule="evenodd" fill-opacity="1" stroke="#000000" stroke-opacity="1" stroke-width="2.8"/>
<circle clip-path="url(#clip942)" cx="2624.83" cy="742.873" r="14.4" fill="#009af9" fill-rule="evenodd" fill-opacity="1" stroke="#000000" stroke-opacity="1" stroke-width="2.8"/>
<circle clip-path="url(#clip942)" cx="1413.5" cy="972.334" r="14.4" fill="#009af9" fill-rule="evenodd" fill-opacity="1" stroke="#000000" stroke-opacity="1" stroke-width="2.8"/>
<circle clip-path="url(#clip942)" cx="4428.53" cy="125.091" r="14.4" fill="#009af9" fill-rule="evenodd" fill-opacity="1" stroke="#000000" stroke-opacity="1" stroke-width="2.8"/>
<circle clip-path="url(#clip942)" cx="1480.55" cy="885.501" r="14.4" fill="#009af9" fill-rule="evenodd" fill-opacity="1" stroke="#000000" stroke-opacity="1" stroke-width="2.8"/>
<circle clip-path="url(#clip942)" cx="2322.14" cy="916.621" r="14.4" fill="#009af9" fill-rule="evenodd" fill-opacity="1" stroke="#000000" stroke-opacity="1" stroke-width="2.8"/>
<circle clip-path="url(#clip942)" cx="3350.68" cy="530.173" r="14.4" fill="#009af9" fill-rule="evenodd" fill-opacity="1" stroke="#000000" stroke-opacity="1" stroke-width="2.8"/>
<circle clip-path="url(#clip942)" cx="3418.39" cy="522.353" r="14.4" fill="#009af9" fill-rule="evenodd" fill-opacity="1" stroke="#000000" stroke-opacity="1" stroke-width="2.8"/>
<circle clip-path="url(#clip942)" cx="1924.91" cy="885.649" r="14.4" fill="#009af9" fill-rule="evenodd" fill-opacity="1" stroke="#000000" stroke-opacity="1" stroke-width="2.8"/>
<circle clip-path="url(#clip942)" cx="777.72" cy="1115.65" r="14.4" fill="#009af9" fill-rule="evenodd" fill-opacity="1" stroke="#000000" stroke-opacity="1" stroke-width="2.8"/>
<circle clip-path="url(#clip942)" cx="2681.88" cy="667.651" r="14.4" fill="#009af9" fill-rule="evenodd" fill-opacity="1" stroke="#000000" stroke-opacity="1" stroke-width="2.8"/>
<circle clip-path="url(#clip942)" cx="1835.5" cy="900.895" r="14.4" fill="#009af9" fill-rule="evenodd" fill-opacity="1" stroke="#000000" stroke-opacity="1" stroke-width="2.8"/>
<circle clip-path="url(#clip942)" cx="2765.28" cy="746.923" r="14.4" fill="#009af9" fill-rule="evenodd" fill-opacity="1" stroke="#000000" stroke-opacity="1" stroke-width="2.8"/>
<circle clip-path="url(#clip942)" cx="482.189" cy="1274.71" r="14.4" fill="#009af9" fill-rule="evenodd" fill-opacity="1" stroke="#000000" stroke-opacity="1" stroke-width="2.8"/>
<circle clip-path="url(#clip942)" cx="1881.25" cy="930.9" r="14.4" fill="#009af9" fill-rule="evenodd" fill-opacity="1" stroke="#000000" stroke-opacity="1" stroke-width="2.8"/>
<circle clip-path="url(#clip942)" cx="1835.59" cy="761.555" r="14.4" fill="#009af9" fill-rule="evenodd" fill-opacity="1" stroke="#000000" stroke-opacity="1" stroke-width="2.8"/>
<circle clip-path="url(#clip942)" cx="1401.78" cy="848.921" r="14.4" fill="#009af9" fill-rule="evenodd" fill-opacity="1" stroke="#000000" stroke-opacity="1" stroke-width="2.8"/>
<circle clip-path="url(#clip942)" cx="2625.75" cy="762.246" r="14.4" fill="#009af9" fill-rule="evenodd" fill-opacity="1" stroke="#000000" stroke-opacity="1" stroke-width="2.8"/>
<circle clip-path="url(#clip942)" cx="1432.19" cy="908.343" r="14.4" fill="#009af9" fill-rule="evenodd" fill-opacity="1" stroke="#000000" stroke-opacity="1" stroke-width="2.8"/>
<circle clip-path="url(#clip942)" cx="3089.6" cy="550.129" r="14.4" fill="#009af9" fill-rule="evenodd" fill-opacity="1" stroke="#000000" stroke-opacity="1" stroke-width="2.8"/>
<circle clip-path="url(#clip942)" cx="1538.3" cy="925.403" r="14.4" fill="#009af9" fill-rule="evenodd" fill-opacity="1" stroke="#000000" stroke-opacity="1" stroke-width="2.8"/>
<circle clip-path="url(#clip942)" cx="3084.83" cy="613.152" r="14.4" fill="#009af9" fill-rule="evenodd" fill-opacity="1" stroke="#000000" stroke-opacity="1" stroke-width="2.8"/>
<circle clip-path="url(#clip942)" cx="935.535" cy="1136.73" r="14.4" fill="#009af9" fill-rule="evenodd" fill-opacity="1" stroke="#000000" stroke-opacity="1" stroke-width="2.8"/>
<circle clip-path="url(#clip942)" cx="1912.9" cy="823.627" r="14.4" fill="#009af9" fill-rule="evenodd" fill-opacity="1" stroke="#000000" stroke-opacity="1" stroke-width="2.8"/>
<circle clip-path="url(#clip942)" cx="2340.12" cy="570.532" r="14.4" fill="#009af9" fill-rule="evenodd" fill-opacity="1" stroke="#000000" stroke-opacity="1" stroke-width="2.8"/>
<circle clip-path="url(#clip942)" cx="1623.31" cy="1006.02" r="14.4" fill="#009af9" fill-rule="evenodd" fill-opacity="1" stroke="#000000" stroke-opacity="1" stroke-width="2.8"/>
<circle clip-path="url(#clip942)" cx="1864.47" cy="864.568" r="14.4" fill="#009af9" fill-rule="evenodd" fill-opacity="1" stroke="#000000" stroke-opacity="1" stroke-width="2.8"/>
<circle clip-path="url(#clip942)" cx="3266.78" cy="717.263" r="14.4" fill="#009af9" fill-rule="evenodd" fill-opacity="1" stroke="#000000" stroke-opacity="1" stroke-width="2.8"/>
<circle clip-path="url(#clip942)" cx="1244.48" cy="884.842" r="14.4" fill="#009af9" fill-rule="evenodd" fill-opacity="1" stroke="#000000" stroke-opacity="1" stroke-width="2.8"/>
<circle clip-path="url(#clip942)" cx="2194.35" cy="809.139" r="14.4" fill="#009af9" fill-rule="evenodd" fill-opacity="1" stroke="#000000" stroke-opacity="1" stroke-width="2.8"/>
<circle clip-path="url(#clip942)" cx="1628.99" cy="1070.02" r="14.4" fill="#009af9" fill-rule="evenodd" fill-opacity="1" stroke="#000000" stroke-opacity="1" stroke-width="2.8"/>
<circle clip-path="url(#clip942)" cx="1952.24" cy="763.684" r="14.4" fill="#009af9" fill-rule="evenodd" fill-opacity="1" stroke="#000000" stroke-opacity="1" stroke-width="2.8"/>
<circle clip-path="url(#clip942)" cx="823.219" cy="985.262" r="14.4" fill="#009af9" fill-rule="evenodd" fill-opacity="1" stroke="#000000" stroke-opacity="1" stroke-width="2.8"/>
<circle clip-path="url(#clip942)" cx="2778.58" cy="672.264" r="14.4" fill="#009af9" fill-rule="evenodd" fill-opacity="1" stroke="#000000" stroke-opacity="1" stroke-width="2.8"/>
<circle clip-path="url(#clip942)" cx="2784.05" cy="621.823" r="14.4" fill="#009af9" fill-rule="evenodd" fill-opacity="1" stroke="#000000" stroke-opacity="1" stroke-width="2.8"/>
<circle clip-path="url(#clip942)" cx="892.217" cy="1010.56" r="14.4" fill="#009af9" fill-rule="evenodd" fill-opacity="1" stroke="#000000" stroke-opacity="1" stroke-width="2.8"/>
<circle clip-path="url(#clip942)" cx="3176.49" cy="517.252" r="14.4" fill="#009af9" fill-rule="evenodd" fill-opacity="1" stroke="#000000" stroke-opacity="1" stroke-width="2.8"/>
<circle clip-path="url(#clip942)" cx="2300.83" cy="789.538" r="14.4" fill="#009af9" fill-rule="evenodd" fill-opacity="1" stroke="#000000" stroke-opacity="1" stroke-width="2.8"/>
<circle clip-path="url(#clip942)" cx="1016.73" cy="1241.15" r="14.4" fill="#009af9" fill-rule="evenodd" fill-opacity="1" stroke="#000000" stroke-opacity="1" stroke-width="2.8"/>
<circle clip-path="url(#clip942)" cx="2526.74" cy="680.78" r="14.4" fill="#009af9" fill-rule="evenodd" fill-opacity="1" stroke="#000000" stroke-opacity="1" stroke-width="2.8"/>
<circle clip-path="url(#clip942)" cx="1393.15" cy="816.876" r="14.4" fill="#009af9" fill-rule="evenodd" fill-opacity="1" stroke="#000000" stroke-opacity="1" stroke-width="2.8"/>
<circle clip-path="url(#clip942)" cx="3188.98" cy="604.992" r="14.4" fill="#009af9" fill-rule="evenodd" fill-opacity="1" stroke="#000000" stroke-opacity="1" stroke-width="2.8"/>
<circle clip-path="url(#clip942)" cx="2934.76" cy="534.391" r="14.4" fill="#009af9" fill-rule="evenodd" fill-opacity="1" stroke="#000000" stroke-opacity="1" stroke-width="2.8"/>
<circle clip-path="url(#clip942)" cx="2704.02" cy="507.974" r="14.4" fill="#009af9" fill-rule="evenodd" fill-opacity="1" stroke="#000000" stroke-opacity="1" stroke-width="2.8"/>
<circle clip-path="url(#clip942)" cx="2616.88" cy="692.005" r="14.4" fill="#009af9" fill-rule="evenodd" fill-opacity="1" stroke="#000000" stroke-opacity="1" stroke-width="2.8"/>
<circle clip-path="url(#clip942)" cx="2261.77" cy="699.168" r="14.4" fill="#009af9" fill-rule="evenodd" fill-opacity="1" stroke="#000000" stroke-opacity="1" stroke-width="2.8"/>
<circle clip-path="url(#clip942)" cx="3764.11" cy="353.935" r="14.4" fill="#009af9" fill-rule="evenodd" fill-opacity="1" stroke="#000000" stroke-opacity="1" stroke-width="2.8"/>
<circle clip-path="url(#clip942)" cx="1418.89" cy="1032.36" r="14.4" fill="#009af9" fill-rule="evenodd" fill-opacity="1" stroke="#000000" stroke-opacity="1" stroke-width="2.8"/>
<circle clip-path="url(#clip942)" cx="2177.99" cy="699.389" r="14.4" fill="#009af9" fill-rule="evenodd" fill-opacity="1" stroke="#000000" stroke-opacity="1" stroke-width="2.8"/>
<circle clip-path="url(#clip942)" cx="908.734" cy="1171.21" r="14.4" fill="#009af9" fill-rule="evenodd" fill-opacity="1" stroke="#000000" stroke-opacity="1" stroke-width="2.8"/>
<circle clip-path="url(#clip942)" cx="1245.15" cy="910.936" r="14.4" fill="#009af9" fill-rule="evenodd" fill-opacity="1" stroke="#000000" stroke-opacity="1" stroke-width="2.8"/>
<circle clip-path="url(#clip942)" cx="2747.12" cy="651.458" r="14.4" fill="#009af9" fill-rule="evenodd" fill-opacity="1" stroke="#000000" stroke-opacity="1" stroke-width="2.8"/>
<circle clip-path="url(#clip942)" cx="3611.08" cy="546.462" r="14.4" fill="#009af9" fill-rule="evenodd" fill-opacity="1" stroke="#000000" stroke-opacity="1" stroke-width="2.8"/>
<circle clip-path="url(#clip942)" cx="2536.54" cy="814.602" r="14.4" fill="#009af9" fill-rule="evenodd" fill-opacity="1" stroke="#000000" stroke-opacity="1" stroke-width="2.8"/>
<circle clip-path="url(#clip942)" cx="3782" cy="440.227" r="14.4" fill="#009af9" fill-rule="evenodd" fill-opacity="1" stroke="#000000" stroke-opacity="1" stroke-width="2.8"/>
<circle clip-path="url(#clip942)" cx="1549.49" cy="953.866" r="14.4" fill="#009af9" fill-rule="evenodd" fill-opacity="1" stroke="#000000" stroke-opacity="1" stroke-width="2.8"/>
<circle clip-path="url(#clip942)" cx="1935.15" cy="804.924" r="14.4" fill="#009af9" fill-rule="evenodd" fill-opacity="1" stroke="#000000" stroke-opacity="1" stroke-width="2.8"/>
<circle clip-path="url(#clip942)" cx="2068.14" cy="646.049" r="14.4" fill="#009af9" fill-rule="evenodd" fill-opacity="1" stroke="#000000" stroke-opacity="1" stroke-width="2.8"/>
<circle clip-path="url(#clip942)" cx="518.341" cy="1094.3" r="14.4" fill="#009af9" fill-rule="evenodd" fill-opacity="1" stroke="#000000" stroke-opacity="1" stroke-width="2.8"/>
<circle clip-path="url(#clip942)" cx="2206.7" cy="831.705" r="14.4" fill="#009af9" fill-rule="evenodd" fill-opacity="1" stroke="#000000" stroke-opacity="1" stroke-width="2.8"/>
<circle clip-path="url(#clip942)" cx="3366.59" cy="621.084" r="14.4" fill="#009af9" fill-rule="evenodd" fill-opacity="1" stroke="#000000" stroke-opacity="1" stroke-width="2.8"/>
<circle clip-path="url(#clip942)" cx="2823.18" cy="638.985" r="14.4" fill="#009af9" fill-rule="evenodd" fill-opacity="1" stroke="#000000" stroke-opacity="1" stroke-width="2.8"/>
<circle clip-path="url(#clip942)" cx="2009.87" cy="769.038" r="14.4" fill="#009af9" fill-rule="evenodd" fill-opacity="1" stroke="#000000" stroke-opacity="1" stroke-width="2.8"/>
<circle clip-path="url(#clip942)" cx="707.157" cy="908.914" r="14.4" fill="#009af9" fill-rule="evenodd" fill-opacity="1" stroke="#000000" stroke-opacity="1" stroke-width="2.8"/>
<circle clip-path="url(#clip942)" cx="754.421" cy="919.701" r="14.4" fill="#009af9" fill-rule="evenodd" fill-opacity="1" stroke="#000000" stroke-opacity="1" stroke-width="2.8"/>
<circle clip-path="url(#clip942)" cx="2042.94" cy="769.957" r="14.4" fill="#009af9" fill-rule="evenodd" fill-opacity="1" stroke="#000000" stroke-opacity="1" stroke-width="2.8"/>
<circle clip-path="url(#clip942)" cx="2307.95" cy="715.905" r="14.4" fill="#009af9" fill-rule="evenodd" fill-opacity="1" stroke="#000000" stroke-opacity="1" stroke-width="2.8"/>
<circle clip-path="url(#clip942)" cx="287.643" cy="1085.44" r="14.4" fill="#009af9" fill-rule="evenodd" fill-opacity="1" stroke="#000000" stroke-opacity="1" stroke-width="2.8"/>
<circle clip-path="url(#clip942)" cx="2098.68" cy="874.301" r="14.4" fill="#009af9" fill-rule="evenodd" fill-opacity="1" stroke="#000000" stroke-opacity="1" stroke-width="2.8"/>
<circle clip-path="url(#clip942)" cx="1448.82" cy="967.028" r="14.4" fill="#009af9" fill-rule="evenodd" fill-opacity="1" stroke="#000000" stroke-opacity="1" stroke-width="2.8"/>
<circle clip-path="url(#clip942)" cx="2471.87" cy="738.748" r="14.4" fill="#009af9" fill-rule="evenodd" fill-opacity="1" stroke="#000000" stroke-opacity="1" stroke-width="2.8"/>
<circle clip-path="url(#clip942)" cx="2419.02" cy="680.515" r="14.4" fill="#009af9" fill-rule="evenodd" fill-opacity="1" stroke="#000000" stroke-opacity="1" stroke-width="2.8"/>
<circle clip-path="url(#clip942)" cx="2403.76" cy="628.449" r="14.4" fill="#009af9" fill-rule="evenodd" fill-opacity="1" stroke="#000000" stroke-opacity="1" stroke-width="2.8"/>
<circle clip-path="url(#clip942)" cx="2177.02" cy="851.462" r="14.4" fill="#009af9" fill-rule="evenodd" fill-opacity="1" stroke="#000000" stroke-opacity="1" stroke-width="2.8"/>
<circle clip-path="url(#clip942)" cx="1502.85" cy="817.738" r="14.4" fill="#009af9" fill-rule="evenodd" fill-opacity="1" stroke="#000000" stroke-opacity="1" stroke-width="2.8"/>
<circle clip-path="url(#clip942)" cx="2063.5" cy="919.896" r="14.4" fill="#009af9" fill-rule="evenodd" fill-opacity="1" stroke="#000000" stroke-opacity="1" stroke-width="2.8"/>
<circle clip-path="url(#clip942)" cx="3002.54" cy="480.575" r="14.4" fill="#009af9" fill-rule="evenodd" fill-opacity="1" stroke="#000000" stroke-opacity="1" stroke-width="2.8"/>
<circle clip-path="url(#clip942)" cx="2543.9" cy="541.559" r="14.4" fill="#009af9" fill-rule="evenodd" fill-opacity="1" stroke="#000000" stroke-opacity="1" stroke-width="2.8"/>
<circle clip-path="url(#clip942)" cx="1714.3" cy="877.477" r="14.4" fill="#009af9" fill-rule="evenodd" fill-opacity="1" stroke="#000000" stroke-opacity="1" stroke-width="2.8"/>
<circle clip-path="url(#clip942)" cx="986.823" cy="987.475" r="14.4" fill="#009af9" fill-rule="evenodd" fill-opacity="1" stroke="#000000" stroke-opacity="1" stroke-width="2.8"/>
<circle clip-path="url(#clip942)" cx="1575.27" cy="835.032" r="14.4" fill="#009af9" fill-rule="evenodd" fill-opacity="1" stroke="#000000" stroke-opacity="1" stroke-width="2.8"/>
<circle clip-path="url(#clip942)" cx="2775.21" cy="843.089" r="14.4" fill="#009af9" fill-rule="evenodd" fill-opacity="1" stroke="#000000" stroke-opacity="1" stroke-width="2.8"/>
<circle clip-path="url(#clip942)" cx="3452.45" cy="462.183" r="14.4" fill="#009af9" fill-rule="evenodd" fill-opacity="1" stroke="#000000" stroke-opacity="1" stroke-width="2.8"/>
<circle clip-path="url(#clip942)" cx="2387.64" cy="840.536" r="14.4" fill="#009af9" fill-rule="evenodd" fill-opacity="1" stroke="#000000" stroke-opacity="1" stroke-width="2.8"/>
<circle clip-path="url(#clip942)" cx="1562.79" cy="792.668" r="14.4" fill="#009af9" fill-rule="evenodd" fill-opacity="1" stroke="#000000" stroke-opacity="1" stroke-width="2.8"/>
<circle clip-path="url(#clip942)" cx="1951.71" cy="848.45" r="14.4" fill="#009af9" fill-rule="evenodd" fill-opacity="1" stroke="#000000" stroke-opacity="1" stroke-width="2.8"/>
<circle clip-path="url(#clip942)" cx="2382.73" cy="850.71" r="14.4" fill="#009af9" fill-rule="evenodd" fill-opacity="1" stroke="#000000" stroke-opacity="1" stroke-width="2.8"/>
<circle clip-path="url(#clip942)" cx="2021.16" cy="870.745" r="14.4" fill="#009af9" fill-rule="evenodd" fill-opacity="1" stroke="#000000" stroke-opacity="1" stroke-width="2.8"/>
<circle clip-path="url(#clip942)" cx="3603.58" cy="511.048" r="14.4" fill="#009af9" fill-rule="evenodd" fill-opacity="1" stroke="#000000" stroke-opacity="1" stroke-width="2.8"/>
<circle clip-path="url(#clip942)" cx="2714.45" cy="636.394" r="14.4" fill="#009af9" fill-rule="evenodd" fill-opacity="1" stroke="#000000" stroke-opacity="1" stroke-width="2.8"/>
<circle clip-path="url(#clip942)" cx="408.164" cy="1193.91" r="14.4" fill="#009af9" fill-rule="evenodd" fill-opacity="1" stroke="#000000" stroke-opacity="1" stroke-width="2.8"/>
<circle clip-path="url(#clip942)" cx="898.588" cy="1126.55" r="14.4" fill="#009af9" fill-rule="evenodd" fill-opacity="1" stroke="#000000" stroke-opacity="1" stroke-width="2.8"/>
<circle clip-path="url(#clip942)" cx="2266.98" cy="672.067" r="14.4" fill="#009af9" fill-rule="evenodd" fill-opacity="1" stroke="#000000" stroke-opacity="1" stroke-width="2.8"/>
<circle clip-path="url(#clip942)" cx="2391.34" cy="838.657" r="14.4" fill="#009af9" fill-rule="evenodd" fill-opacity="1" stroke="#000000" stroke-opacity="1" stroke-width="2.8"/>
<circle clip-path="url(#clip942)" cx="1475.02" cy="851.324" r="14.4" fill="#009af9" fill-rule="evenodd" fill-opacity="1" stroke="#000000" stroke-opacity="1" stroke-width="2.8"/>
<circle clip-path="url(#clip942)" cx="3128.39" cy="495.49" r="14.4" fill="#009af9" fill-rule="evenodd" fill-opacity="1" stroke="#000000" stroke-opacity="1" stroke-width="2.8"/>
<circle clip-path="url(#clip942)" cx="3424.08" cy="519.482" r="14.4" fill="#009af9" fill-rule="evenodd" fill-opacity="1" stroke="#000000" stroke-opacity="1" stroke-width="2.8"/>
<circle clip-path="url(#clip942)" cx="2647.67" cy="587.415" r="14.4" fill="#009af9" fill-rule="evenodd" fill-opacity="1" stroke="#000000" stroke-opacity="1" stroke-width="2.8"/>
<polyline clip-path="url(#clip942)" style="stroke:#e26f46; stroke-linecap:round; stroke-linejoin:round; stroke-width:8; stroke-opacity:1; fill:none" points="287.643,1031.19 4428.53,450.854 "/>
<polyline clip-path="url(#clip942)" style="stroke:#3da44d; stroke-linecap:round; stroke-linejoin:round; stroke-width:8; stroke-opacity:1; fill:none" points="287.643,962.187 4428.53,530.894 "/>
<polyline clip-path="url(#clip942)" style="stroke:#c271d2; stroke-linecap:round; stroke-linejoin:round; stroke-width:8; stroke-opacity:1; fill:none" points="287.643,921.387 4428.53,578.223 "/>
<path clip-path="url(#clip940)" d="M309.727 338.583 L989.192 338.583 L989.192 131.223 L309.727 131.223  Z" fill="#ffffff" fill-rule="evenodd" fill-opacity="1"/>
<polyline clip-path="url(#clip940)" style="stroke:#000000; stroke-linecap:round; stroke-linejoin:round; stroke-width:4; stroke-opacity:1; fill:none" points="309.727,338.583 989.192,338.583 989.192,131.223 309.727,131.223 309.727,338.583 "/>
<polyline clip-path="url(#clip940)" style="stroke:#e26f46; stroke-linecap:round; stroke-linejoin:round; stroke-width:8; stroke-opacity:1; fill:none" points="358.498,183.063 651.12,183.063 "/>
<path clip-path="url(#clip940)" d="M713.294 187.31 Q708.132 187.31 706.141 188.491 Q704.15 189.671 704.15 192.519 Q704.15 194.787 705.632 196.13 Q707.136 197.449 709.706 197.449 Q713.247 197.449 715.377 194.949 Q717.53 192.426 717.53 188.259 L717.53 187.31 L713.294 187.31 M721.789 185.551 L721.789 200.343 L717.53 200.343 L717.53 196.407 Q716.071 198.768 713.895 199.903 Q711.72 201.014 708.571 201.014 Q704.59 201.014 702.229 198.792 Q699.891 196.546 699.891 192.796 Q699.891 188.421 702.808 186.199 Q705.747 183.977 711.558 183.977 L717.53 183.977 L717.53 183.56 Q717.53 180.62 715.585 179.023 Q713.664 177.403 710.169 177.403 Q707.946 177.403 705.84 177.935 Q703.733 178.468 701.789 179.532 L701.789 175.597 Q704.127 174.695 706.326 174.255 Q708.525 173.792 710.608 173.792 Q716.233 173.792 719.011 176.708 Q721.789 179.625 721.789 185.551 Z" fill="#000000" fill-rule="nonzero" fill-opacity="1" /><path clip-path="url(#clip940)" d="M730.562 164.324 L734.821 164.324 L734.821 200.343 L730.562 200.343 L730.562 164.324 Z" fill="#000000" fill-rule="nonzero" fill-opacity="1" /><path clip-path="url(#clip940)" d="M747.854 196.454 L747.854 210.204 L743.571 210.204 L743.571 174.417 L747.854 174.417 L747.854 178.352 Q749.196 176.037 751.233 174.926 Q753.293 173.792 756.141 173.792 Q760.863 173.792 763.803 177.542 Q766.766 181.292 766.766 187.403 Q766.766 193.514 763.803 197.264 Q760.863 201.014 756.141 201.014 Q753.293 201.014 751.233 199.903 Q749.196 198.768 747.854 196.454 M762.344 187.403 Q762.344 182.704 760.4 180.042 Q758.479 177.357 755.099 177.357 Q751.719 177.357 749.775 180.042 Q747.854 182.704 747.854 187.403 Q747.854 192.102 749.775 194.787 Q751.719 197.449 755.099 197.449 Q758.479 197.449 760.4 194.787 Q762.344 192.102 762.344 187.403 Z" fill="#000000" fill-rule="nonzero" fill-opacity="1" /><path clip-path="url(#clip940)" d="M795.376 184.694 L795.376 200.343 L791.117 200.343 L791.117 184.833 Q791.117 181.153 789.682 179.324 Q788.247 177.495 785.377 177.495 Q781.927 177.495 779.937 179.695 Q777.946 181.894 777.946 185.69 L777.946 200.343 L773.664 200.343 L773.664 164.324 L777.946 164.324 L777.946 178.445 Q779.474 176.107 781.534 174.949 Q783.617 173.792 786.326 173.792 Q790.793 173.792 793.085 176.57 Q795.376 179.324 795.376 184.694 Z" fill="#000000" fill-rule="nonzero" fill-opacity="1" /><path clip-path="url(#clip940)" d="M815.654 187.31 Q810.492 187.31 808.501 188.491 Q806.511 189.671 806.511 192.519 Q806.511 194.787 807.992 196.13 Q809.497 197.449 812.066 197.449 Q815.608 197.449 817.737 194.949 Q819.89 192.426 819.89 188.259 L819.89 187.31 L815.654 187.31 M824.149 185.551 L824.149 200.343 L819.89 200.343 L819.89 196.407 Q818.432 198.768 816.256 199.903 Q814.08 201.014 810.932 201.014 Q806.951 201.014 804.589 198.792 Q802.251 196.546 802.251 192.796 Q802.251 188.421 805.168 186.199 Q808.108 183.977 813.918 183.977 L819.89 183.977 L819.89 183.56 Q819.89 180.62 817.946 179.023 Q816.025 177.403 812.529 177.403 Q810.307 177.403 808.201 177.935 Q806.094 178.468 804.15 179.532 L804.15 175.597 Q806.488 174.695 808.687 174.255 Q810.886 173.792 812.969 173.792 Q818.594 173.792 821.372 176.708 Q824.149 179.625 824.149 185.551 Z" fill="#000000" fill-rule="nonzero" fill-opacity="1" /><path clip-path="url(#clip940)" d="M833.478 178.815 L863.154 178.815 L863.154 182.704 L833.478 182.704 L833.478 178.815 M833.478 188.259 L863.154 188.259 L863.154 192.194 L833.478 192.194 L833.478 188.259 Z" fill="#000000" fill-rule="nonzero" fill-opacity="1" /><path clip-path="url(#clip940)" d="M883.246 168.861 Q879.635 168.861 877.807 172.426 Q876.001 175.968 876.001 183.097 Q876.001 190.204 877.807 193.769 Q879.635 197.31 883.246 197.31 Q886.881 197.31 888.686 193.769 Q890.515 190.204 890.515 183.097 Q890.515 175.968 888.686 172.426 Q886.881 168.861 883.246 168.861 M883.246 165.158 Q889.057 165.158 892.112 169.764 Q895.191 174.347 895.191 183.097 Q895.191 191.824 892.112 196.431 Q889.057 201.014 883.246 201.014 Q877.436 201.014 874.358 196.431 Q871.302 191.824 871.302 183.097 Q871.302 174.347 874.358 169.764 Q877.436 165.158 883.246 165.158 Z" fill="#000000" fill-rule="nonzero" fill-opacity="1" /><path clip-path="url(#clip940)" d="M903.408 194.463 L908.293 194.463 L908.293 200.343 L903.408 200.343 L903.408 194.463 Z" fill="#000000" fill-rule="nonzero" fill-opacity="1" /><path clip-path="url(#clip940)" d="M918.524 165.783 L936.88 165.783 L936.88 169.718 L922.806 169.718 L922.806 178.19 Q923.825 177.843 924.843 177.681 Q925.862 177.495 926.88 177.495 Q932.667 177.495 936.047 180.667 Q939.427 183.838 939.427 189.255 Q939.427 194.833 935.954 197.935 Q932.482 201.014 926.163 201.014 Q923.987 201.014 921.718 200.643 Q919.473 200.273 917.066 199.532 L917.066 194.833 Q919.149 195.968 921.371 196.523 Q923.593 197.079 926.07 197.079 Q930.075 197.079 932.413 194.972 Q934.751 192.866 934.751 189.255 Q934.751 185.644 932.413 183.537 Q930.075 181.431 926.07 181.431 Q924.195 181.431 922.32 181.847 Q920.468 182.264 918.524 183.144 L918.524 165.783 Z" fill="#000000" fill-rule="nonzero" fill-opacity="1" /><polyline clip-path="url(#clip940)" style="stroke:#3da44d; stroke-linecap:round; stroke-linejoin:round; stroke-width:8; stroke-opacity:1; fill:none" points="358.498,234.903 651.12,234.903 "/>
<path clip-path="url(#clip940)" d="M713.294 239.15 Q708.132 239.15 706.141 240.331 Q704.15 241.511 704.15 244.359 Q704.15 246.627 705.632 247.97 Q707.136 249.289 709.706 249.289 Q713.247 249.289 715.377 246.789 Q717.53 244.266 717.53 240.099 L717.53 239.15 L713.294 239.15 M721.789 237.391 L721.789 252.183 L717.53 252.183 L717.53 248.247 Q716.071 250.608 713.895 251.743 Q711.72 252.854 708.571 252.854 Q704.59 252.854 702.229 250.632 Q699.891 248.386 699.891 244.636 Q699.891 240.261 702.808 238.039 Q705.747 235.817 711.558 235.817 L717.53 235.817 L717.53 235.4 Q717.53 232.46 715.585 230.863 Q713.664 229.243 710.169 229.243 Q707.946 229.243 705.84 229.775 Q703.733 230.308 701.789 231.372 L701.789 227.437 Q704.127 226.535 706.326 226.095 Q708.525 225.632 710.608 225.632 Q716.233 225.632 719.011 228.548 Q721.789 231.465 721.789 237.391 Z" fill="#000000" fill-rule="nonzero" fill-opacity="1" /><path clip-path="url(#clip940)" d="M730.562 216.164 L734.821 216.164 L734.821 252.183 L730.562 252.183 L730.562 216.164 Z" fill="#000000" fill-rule="nonzero" fill-opacity="1" /><path clip-path="url(#clip940)" d="M747.854 248.294 L747.854 262.044 L743.571 262.044 L743.571 226.257 L747.854 226.257 L747.854 230.192 Q749.196 227.877 751.233 226.766 Q753.293 225.632 756.141 225.632 Q760.863 225.632 763.803 229.382 Q766.766 233.132 766.766 239.243 Q766.766 245.354 763.803 249.104 Q760.863 252.854 756.141 252.854 Q753.293 252.854 751.233 251.743 Q749.196 250.608 747.854 248.294 M762.344 239.243 Q762.344 234.544 760.4 231.882 Q758.479 229.197 755.099 229.197 Q751.719 229.197 749.775 231.882 Q747.854 234.544 747.854 239.243 Q747.854 243.942 749.775 246.627 Q751.719 249.289 755.099 249.289 Q758.479 249.289 760.4 246.627 Q762.344 243.942 762.344 239.243 Z" fill="#000000" fill-rule="nonzero" fill-opacity="1" /><path clip-path="url(#clip940)" d="M795.376 236.534 L795.376 252.183 L791.117 252.183 L791.117 236.673 Q791.117 232.993 789.682 231.164 Q788.247 229.335 785.377 229.335 Q781.927 229.335 779.937 231.535 Q777.946 233.734 777.946 237.53 L777.946 252.183 L773.664 252.183 L773.664 216.164 L777.946 216.164 L777.946 230.285 Q779.474 227.947 781.534 226.789 Q783.617 225.632 786.326 225.632 Q790.793 225.632 793.085 228.41 Q795.376 231.164 795.376 236.534 Z" fill="#000000" fill-rule="nonzero" fill-opacity="1" /><path clip-path="url(#clip940)" d="M815.654 239.15 Q810.492 239.15 808.501 240.331 Q806.511 241.511 806.511 244.359 Q806.511 246.627 807.992 247.97 Q809.497 249.289 812.066 249.289 Q815.608 249.289 817.737 246.789 Q819.89 244.266 819.89 240.099 L819.89 239.15 L815.654 239.15 M824.149 237.391 L824.149 252.183 L819.89 252.183 L819.89 248.247 Q818.432 250.608 816.256 251.743 Q814.08 252.854 810.932 252.854 Q806.951 252.854 804.589 250.632 Q802.251 248.386 802.251 244.636 Q802.251 240.261 805.168 238.039 Q808.108 235.817 813.918 235.817 L819.89 235.817 L819.89 235.4 Q819.89 232.46 817.946 230.863 Q816.025 229.243 812.529 229.243 Q810.307 229.243 808.201 229.775 Q806.094 230.308 804.15 231.372 L804.15 227.437 Q806.488 226.535 808.687 226.095 Q810.886 225.632 812.969 225.632 Q818.594 225.632 821.372 228.548 Q824.149 231.465 824.149 237.391 Z" fill="#000000" fill-rule="nonzero" fill-opacity="1" /><path clip-path="url(#clip940)" d="M833.478 230.655 L863.154 230.655 L863.154 234.544 L833.478 234.544 L833.478 230.655 M833.478 240.099 L863.154 240.099 L863.154 244.034 L833.478 244.034 L833.478 240.099 Z" fill="#000000" fill-rule="nonzero" fill-opacity="1" /><path clip-path="url(#clip940)" d="M874.057 248.247 L881.695 248.247 L881.695 221.882 L873.385 223.548 L873.385 219.289 L881.649 217.623 L886.325 217.623 L886.325 248.247 L893.964 248.247 L893.964 252.183 L874.057 252.183 L874.057 248.247 Z" fill="#000000" fill-rule="nonzero" fill-opacity="1" /><path clip-path="url(#clip940)" d="M903.408 246.303 L908.293 246.303 L908.293 252.183 L903.408 252.183 L903.408 246.303 Z" fill="#000000" fill-rule="nonzero" fill-opacity="1" /><path clip-path="url(#clip940)" d="M928.478 220.701 Q924.867 220.701 923.038 224.266 Q921.232 227.808 921.232 234.937 Q921.232 242.044 923.038 245.609 Q924.867 249.15 928.478 249.15 Q932.112 249.15 933.917 245.609 Q935.746 242.044 935.746 234.937 Q935.746 227.808 933.917 224.266 Q932.112 220.701 928.478 220.701 M928.478 216.998 Q934.288 216.998 937.343 221.604 Q940.422 226.187 940.422 234.937 Q940.422 243.664 937.343 248.271 Q934.288 252.854 928.478 252.854 Q922.667 252.854 919.589 248.271 Q916.533 243.664 916.533 234.937 Q916.533 226.187 919.589 221.604 Q922.667 216.998 928.478 216.998 Z" fill="#000000" fill-rule="nonzero" fill-opacity="1" /><polyline clip-path="url(#clip940)" style="stroke:#c271d2; stroke-linecap:round; stroke-linejoin:round; stroke-width:8; stroke-opacity:1; fill:none" points="358.498,286.743 651.12,286.743 "/>
<path clip-path="url(#clip940)" d="M713.294 290.99 Q708.132 290.99 706.141 292.171 Q704.15 293.351 704.15 296.199 Q704.15 298.467 705.632 299.81 Q707.136 301.129 709.706 301.129 Q713.247 301.129 715.377 298.629 Q717.53 296.106 717.53 291.939 L717.53 290.99 L713.294 290.99 M721.789 289.231 L721.789 304.023 L717.53 304.023 L717.53 300.087 Q716.071 302.448 713.895 303.583 Q711.72 304.694 708.571 304.694 Q704.59 304.694 702.229 302.472 Q699.891 300.226 699.891 296.476 Q699.891 292.101 702.808 289.879 Q705.747 287.657 711.558 287.657 L717.53 287.657 L717.53 287.24 Q717.53 284.3 715.585 282.703 Q713.664 281.083 710.169 281.083 Q707.946 281.083 705.84 281.615 Q703.733 282.148 701.789 283.212 L701.789 279.277 Q704.127 278.375 706.326 277.935 Q708.525 277.472 710.608 277.472 Q716.233 277.472 719.011 280.388 Q721.789 283.305 721.789 289.231 Z" fill="#000000" fill-rule="nonzero" fill-opacity="1" /><path clip-path="url(#clip940)" d="M730.562 268.004 L734.821 268.004 L734.821 304.023 L730.562 304.023 L730.562 268.004 Z" fill="#000000" fill-rule="nonzero" fill-opacity="1" /><path clip-path="url(#clip940)" d="M747.854 300.134 L747.854 313.884 L743.571 313.884 L743.571 278.097 L747.854 278.097 L747.854 282.032 Q749.196 279.717 751.233 278.606 Q753.293 277.472 756.141 277.472 Q760.863 277.472 763.803 281.222 Q766.766 284.972 766.766 291.083 Q766.766 297.194 763.803 300.944 Q760.863 304.694 756.141 304.694 Q753.293 304.694 751.233 303.583 Q749.196 302.448 747.854 300.134 M762.344 291.083 Q762.344 286.384 760.4 283.722 Q758.479 281.037 755.099 281.037 Q751.719 281.037 749.775 283.722 Q747.854 286.384 747.854 291.083 Q747.854 295.782 749.775 298.467 Q751.719 301.129 755.099 301.129 Q758.479 301.129 760.4 298.467 Q762.344 295.782 762.344 291.083 Z" fill="#000000" fill-rule="nonzero" fill-opacity="1" /><path clip-path="url(#clip940)" d="M795.376 288.374 L795.376 304.023 L791.117 304.023 L791.117 288.513 Q791.117 284.833 789.682 283.004 Q788.247 281.175 785.377 281.175 Q781.927 281.175 779.937 283.375 Q777.946 285.574 777.946 289.37 L777.946 304.023 L773.664 304.023 L773.664 268.004 L777.946 268.004 L777.946 282.125 Q779.474 279.787 781.534 278.629 Q783.617 277.472 786.326 277.472 Q790.793 277.472 793.085 280.25 Q795.376 283.004 795.376 288.374 Z" fill="#000000" fill-rule="nonzero" fill-opacity="1" /><path clip-path="url(#clip940)" d="M815.654 290.99 Q810.492 290.99 808.501 292.171 Q806.511 293.351 806.511 296.199 Q806.511 298.467 807.992 299.81 Q809.497 301.129 812.066 301.129 Q815.608 301.129 817.737 298.629 Q819.89 296.106 819.89 291.939 L819.89 290.99 L815.654 290.99 M824.149 289.231 L824.149 304.023 L819.89 304.023 L819.89 300.087 Q818.432 302.448 816.256 303.583 Q814.08 304.694 810.932 304.694 Q806.951 304.694 804.589 302.472 Q802.251 300.226 802.251 296.476 Q802.251 292.101 805.168 289.879 Q808.108 287.657 813.918 287.657 L819.89 287.657 L819.89 287.24 Q819.89 284.3 817.946 282.703 Q816.025 281.083 812.529 281.083 Q810.307 281.083 808.201 281.615 Q806.094 282.148 804.15 283.212 L804.15 279.277 Q806.488 278.375 808.687 277.935 Q810.886 277.472 812.969 277.472 Q818.594 277.472 821.372 280.388 Q824.149 283.305 824.149 289.231 Z" fill="#000000" fill-rule="nonzero" fill-opacity="1" /><path clip-path="url(#clip940)" d="M833.478 282.495 L863.154 282.495 L863.154 286.384 L833.478 286.384 L833.478 282.495 M833.478 291.939 L863.154 291.939 L863.154 295.874 L833.478 295.874 L833.478 291.939 Z" fill="#000000" fill-rule="nonzero" fill-opacity="1" /><path clip-path="url(#clip940)" d="M874.057 300.087 L881.695 300.087 L881.695 273.722 L873.385 275.388 L873.385 271.129 L881.649 269.463 L886.325 269.463 L886.325 300.087 L893.964 300.087 L893.964 304.023 L874.057 304.023 L874.057 300.087 Z" fill="#000000" fill-rule="nonzero" fill-opacity="1" /><path clip-path="url(#clip940)" d="M903.408 298.143 L908.293 298.143 L908.293 304.023 L903.408 304.023 L903.408 298.143 Z" fill="#000000" fill-rule="nonzero" fill-opacity="1" /><path clip-path="url(#clip940)" d="M918.524 269.463 L936.88 269.463 L936.88 273.398 L922.806 273.398 L922.806 281.87 Q923.825 281.523 924.843 281.361 Q925.862 281.175 926.88 281.175 Q932.667 281.175 936.047 284.347 Q939.427 287.518 939.427 292.935 Q939.427 298.513 935.954 301.615 Q932.482 304.694 926.163 304.694 Q923.987 304.694 921.718 304.323 Q919.473 303.953 917.066 303.212 L917.066 298.513 Q919.149 299.648 921.371 300.203 Q923.593 300.759 926.07 300.759 Q930.075 300.759 932.413 298.652 Q934.751 296.546 934.751 292.935 Q934.751 289.324 932.413 287.217 Q930.075 285.111 926.07 285.111 Q924.195 285.111 922.32 285.527 Q920.468 285.944 918.524 286.824 L918.524 269.463 Z" fill="#000000" fill-rule="nonzero" fill-opacity="1" /></svg>
