<?xml version="1.0" encoding="utf-8"?>
<svg xmlns="http://www.w3.org/2000/svg" xmlns:xlink="http://www.w3.org/1999/xlink" width="600" height="400" viewBox="0 0 2400 1600">
<defs>
  <clipPath id="clip830">
    <rect x="0" y="0" width="2400" height="1600"/>
  </clipPath>
</defs>
<path clip-path="url(#clip830)" d="M0 1600 L2400 1600 L2400 0 L0 0  Z" fill="#ffffff" fill-rule="evenodd" fill-opacity="1"/>
<defs>
  <clipPath id="clip831">
    <rect x="480" y="0" width="1681" height="1600"/>
  </clipPath>
</defs>
<path clip-path="url(#clip830)" d="M184.677 1423.18 L2352.76 1423.18 L2352.76 123.472 L184.677 123.472  Z" fill="#ffffff" fill-rule="evenodd" fill-opacity="1"/>
<defs>
  <clipPath id="clip832">
    <rect x="184" y="123" width="2169" height="1301"/>
  </clipPath>
</defs>
<polyline clip-path="url(#clip832)" style="stroke:#000000; stroke-linecap:round; stroke-linejoin:round; stroke-width:2; stroke-opacity:0.1; fill:none" points="237.371,1423.18 237.371,123.472 "/>
<polyline clip-path="url(#clip832)" style="stroke:#000000; stroke-linecap:round; stroke-linejoin:round; stroke-width:2; stroke-opacity:0.1; fill:none" points="670.709,1423.18 670.709,123.472 "/>
<polyline clip-path="url(#clip832)" style="stroke:#000000; stroke-linecap:round; stroke-linejoin:round; stroke-width:2; stroke-opacity:0.1; fill:none" points="1104.05,1423.18 1104.05,123.472 "/>
<polyline clip-path="url(#clip832)" style="stroke:#000000; stroke-linecap:round; stroke-linejoin:round; stroke-width:2; stroke-opacity:0.1; fill:none" points="1537.39,1423.18 1537.39,123.472 "/>
<polyline clip-path="url(#clip832)" style="stroke:#000000; stroke-linecap:round; stroke-linejoin:round; stroke-width:2; stroke-opacity:0.1; fill:none" points="1970.72,1423.18 1970.72,123.472 "/>
<polyline clip-path="url(#clip832)" style="stroke:#000000; stroke-linecap:round; stroke-linejoin:round; stroke-width:2; stroke-opacity:0.1; fill:none" points="184.677,1222.81 2352.76,1222.81 "/>
<polyline clip-path="url(#clip832)" style="stroke:#000000; stroke-linecap:round; stroke-linejoin:round; stroke-width:2; stroke-opacity:0.1; fill:none" points="184.677,997.449 2352.76,997.449 "/>
<polyline clip-path="url(#clip832)" style="stroke:#000000; stroke-linecap:round; stroke-linejoin:round; stroke-width:2; stroke-opacity:0.1; fill:none" points="184.677,772.083 2352.76,772.083 "/>
<polyline clip-path="url(#clip832)" style="stroke:#000000; stroke-linecap:round; stroke-linejoin:round; stroke-width:2; stroke-opacity:0.1; fill:none" points="184.677,546.717 2352.76,546.717 "/>
<polyline clip-path="url(#clip832)" style="stroke:#000000; stroke-linecap:round; stroke-linejoin:round; stroke-width:2; stroke-opacity:0.1; fill:none" points="184.677,321.351 2352.76,321.351 "/>
<polyline clip-path="url(#clip830)" style="stroke:#000000; stroke-linecap:round; stroke-linejoin:round; stroke-width:4; stroke-opacity:1; fill:none" points="184.677,1423.18 2352.76,1423.18 "/>
<polyline clip-path="url(#clip830)" style="stroke:#000000; stroke-linecap:round; stroke-linejoin:round; stroke-width:4; stroke-opacity:1; fill:none" points="237.371,1423.18 237.371,1404.28 "/>
<polyline clip-path="url(#clip830)" style="stroke:#000000; stroke-linecap:round; stroke-linejoin:round; stroke-width:4; stroke-opacity:1; fill:none" points="670.709,1423.18 670.709,1404.28 "/>
<polyline clip-path="url(#clip830)" style="stroke:#000000; stroke-linecap:round; stroke-linejoin:round; stroke-width:4; stroke-opacity:1; fill:none" points="1104.05,1423.18 1104.05,1404.28 "/>
<polyline clip-path="url(#clip830)" style="stroke:#000000; stroke-linecap:round; stroke-linejoin:round; stroke-width:4; stroke-opacity:1; fill:none" points="1537.39,1423.18 1537.39,1404.28 "/>
<polyline clip-path="url(#clip830)" style="stroke:#000000; stroke-linecap:round; stroke-linejoin:round; stroke-width:4; stroke-opacity:1; fill:none" points="1970.72,1423.18 1970.72,1404.28 "/>
<path clip-path="url(#clip830)" d="M237.371 1454.1 Q233.76 1454.1 231.931 1457.66 Q230.125 1461.2 230.125 1468.33 Q230.125 1475.44 231.931 1479.01 Q233.76 1482.55 237.371 1482.55 Q241.005 1482.55 242.811 1479.01 Q244.639 1475.44 244.639 1468.33 Q244.639 1461.2 242.811 1457.66 Q241.005 1454.1 237.371 1454.1 M237.371 1450.39 Q243.181 1450.39 246.236 1455 Q249.315 1459.58 249.315 1468.33 Q249.315 1477.06 246.236 1481.67 Q243.181 1486.25 237.371 1486.25 Q231.561 1486.25 228.482 1481.67 Q225.426 1477.06 225.426 1468.33 Q225.426 1459.58 228.482 1455 Q231.561 1450.39 237.371 1450.39 Z" fill="#000000" fill-rule="nonzero" fill-opacity="1" /><path clip-path="url(#clip830)" d="M645.408 1451.02 L663.765 1451.02 L663.765 1454.96 L649.691 1454.96 L649.691 1463.43 Q650.709 1463.08 651.728 1462.92 Q652.746 1462.73 653.765 1462.73 Q659.552 1462.73 662.931 1465.9 Q666.311 1469.08 666.311 1474.49 Q666.311 1480.07 662.839 1483.17 Q659.367 1486.25 653.047 1486.25 Q650.871 1486.25 648.603 1485.88 Q646.358 1485.51 643.95 1484.77 L643.95 1480.07 Q646.033 1481.2 648.256 1481.76 Q650.478 1482.32 652.955 1482.32 Q656.959 1482.32 659.297 1480.21 Q661.635 1478.1 661.635 1474.49 Q661.635 1470.88 659.297 1468.77 Q656.959 1466.67 652.955 1466.67 Q651.08 1466.67 649.205 1467.08 Q647.353 1467.5 645.408 1468.38 L645.408 1451.02 Z" fill="#000000" fill-rule="nonzero" fill-opacity="1" /><path clip-path="url(#clip830)" d="M685.524 1454.1 Q681.913 1454.1 680.084 1457.66 Q678.279 1461.2 678.279 1468.33 Q678.279 1475.44 680.084 1479.01 Q681.913 1482.55 685.524 1482.55 Q689.158 1482.55 690.964 1479.01 Q692.792 1475.44 692.792 1468.33 Q692.792 1461.2 690.964 1457.66 Q689.158 1454.1 685.524 1454.1 M685.524 1450.39 Q691.334 1450.39 694.39 1455 Q697.468 1459.58 697.468 1468.33 Q697.468 1477.06 694.39 1481.67 Q691.334 1486.25 685.524 1486.25 Q679.714 1486.25 676.635 1481.67 Q673.58 1477.06 673.58 1468.33 Q673.58 1459.58 676.635 1455 Q679.714 1450.39 685.524 1450.39 Z" fill="#000000" fill-rule="nonzero" fill-opacity="1" /><path clip-path="url(#clip830)" d="M1063.65 1481.64 L1071.29 1481.64 L1071.29 1455.28 L1062.98 1456.95 L1062.98 1452.69 L1071.25 1451.02 L1075.92 1451.02 L1075.92 1481.64 L1083.56 1481.64 L1083.56 1485.58 L1063.65 1485.58 L1063.65 1481.64 Z" fill="#000000" fill-rule="nonzero" fill-opacity="1" /><path clip-path="url(#clip830)" d="M1103.01 1454.1 Q1099.39 1454.1 1097.57 1457.66 Q1095.76 1461.2 1095.76 1468.33 Q1095.76 1475.44 1097.57 1479.01 Q1099.39 1482.55 1103.01 1482.55 Q1106.64 1482.55 1108.45 1479.01 Q1110.27 1475.44 1110.27 1468.33 Q1110.27 1461.2 1108.45 1457.66 Q1106.64 1454.1 1103.01 1454.1 M1103.01 1450.39 Q1108.82 1450.39 1111.87 1455 Q1114.95 1459.58 1114.95 1468.33 Q1114.95 1477.06 1111.87 1481.67 Q1108.82 1486.25 1103.01 1486.25 Q1097.2 1486.25 1094.12 1481.67 Q1091.06 1477.06 1091.06 1468.33 Q1091.06 1459.58 1094.12 1455 Q1097.2 1450.39 1103.01 1450.39 Z" fill="#000000" fill-rule="nonzero" fill-opacity="1" /><path clip-path="url(#clip830)" d="M1133.17 1454.1 Q1129.56 1454.1 1127.73 1457.66 Q1125.92 1461.2 1125.92 1468.33 Q1125.92 1475.44 1127.73 1479.01 Q1129.56 1482.55 1133.17 1482.55 Q1136.8 1482.55 1138.61 1479.01 Q1140.44 1475.44 1140.44 1468.33 Q1140.44 1461.2 1138.61 1457.66 Q1136.8 1454.1 1133.17 1454.1 M1133.17 1450.39 Q1138.98 1450.39 1142.03 1455 Q1145.11 1459.58 1145.11 1468.33 Q1145.11 1477.06 1142.03 1481.67 Q1138.98 1486.25 1133.17 1486.25 Q1127.36 1486.25 1124.28 1481.67 Q1121.22 1477.06 1121.22 1468.33 Q1121.22 1459.58 1124.28 1455 Q1127.36 1450.39 1133.17 1450.39 Z" fill="#000000" fill-rule="nonzero" fill-opacity="1" /><path clip-path="url(#clip830)" d="M1496.99 1481.64 L1504.63 1481.64 L1504.63 1455.28 L1496.32 1456.95 L1496.32 1452.69 L1504.59 1451.02 L1509.26 1451.02 L1509.26 1481.64 L1516.9 1481.64 L1516.9 1485.58 L1496.99 1485.58 L1496.99 1481.64 Z" fill="#000000" fill-rule="nonzero" fill-opacity="1" /><path clip-path="url(#clip830)" d="M1526.39 1451.02 L1544.75 1451.02 L1544.75 1454.96 L1530.67 1454.96 L1530.67 1463.43 Q1531.69 1463.08 1532.71 1462.92 Q1533.73 1462.73 1534.75 1462.73 Q1540.53 1462.73 1543.91 1465.9 Q1547.29 1469.08 1547.29 1474.49 Q1547.29 1480.07 1543.82 1483.17 Q1540.35 1486.25 1534.03 1486.25 Q1531.85 1486.25 1529.59 1485.88 Q1527.34 1485.51 1524.93 1484.77 L1524.93 1480.07 Q1527.02 1481.2 1529.24 1481.76 Q1531.46 1482.32 1533.94 1482.32 Q1537.94 1482.32 1540.28 1480.21 Q1542.62 1478.1 1542.62 1474.49 Q1542.62 1470.88 1540.28 1468.77 Q1537.94 1466.67 1533.94 1466.67 Q1532.06 1466.67 1530.19 1467.08 Q1528.34 1467.5 1526.39 1468.38 L1526.39 1451.02 Z" fill="#000000" fill-rule="nonzero" fill-opacity="1" /><path clip-path="url(#clip830)" d="M1566.51 1454.1 Q1562.9 1454.1 1561.07 1457.66 Q1559.26 1461.2 1559.26 1468.33 Q1559.26 1475.44 1561.07 1479.01 Q1562.9 1482.55 1566.51 1482.55 Q1570.14 1482.55 1571.95 1479.01 Q1573.77 1475.44 1573.77 1468.33 Q1573.77 1461.2 1571.95 1457.66 Q1570.14 1454.1 1566.51 1454.1 M1566.51 1450.39 Q1572.32 1450.39 1575.37 1455 Q1578.45 1459.58 1578.45 1468.33 Q1578.45 1477.06 1575.37 1481.67 Q1572.32 1486.25 1566.51 1486.25 Q1560.7 1486.25 1557.62 1481.67 Q1554.56 1477.06 1554.56 1468.33 Q1554.56 1459.58 1557.62 1455 Q1560.7 1450.39 1566.51 1450.39 Z" fill="#000000" fill-rule="nonzero" fill-opacity="1" /><path clip-path="url(#clip830)" d="M1934.42 1481.64 L1950.74 1481.64 L1950.74 1485.58 L1928.79 1485.58 L1928.79 1481.64 Q1931.45 1478.89 1936.04 1474.26 Q1940.64 1469.61 1941.82 1468.27 Q1944.07 1465.74 1944.95 1464.01 Q1945.85 1462.25 1945.85 1460.56 Q1945.85 1457.8 1943.91 1456.07 Q1941.99 1454.33 1938.88 1454.33 Q1936.69 1454.33 1934.23 1455.09 Q1931.8 1455.86 1929.02 1457.41 L1929.02 1452.69 Q1931.85 1451.55 1934.3 1450.97 Q1936.75 1450.39 1938.79 1450.39 Q1944.16 1450.39 1947.36 1453.08 Q1950.55 1455.77 1950.55 1460.26 Q1950.55 1462.39 1949.74 1464.31 Q1948.95 1466.2 1946.85 1468.8 Q1946.27 1469.47 1943.17 1472.69 Q1940.07 1475.88 1934.42 1481.64 Z" fill="#000000" fill-rule="nonzero" fill-opacity="1" /><path clip-path="url(#clip830)" d="M1970.55 1454.1 Q1966.94 1454.1 1965.11 1457.66 Q1963.31 1461.2 1963.31 1468.33 Q1963.31 1475.44 1965.11 1479.01 Q1966.94 1482.55 1970.55 1482.55 Q1974.19 1482.55 1975.99 1479.01 Q1977.82 1475.44 1977.82 1468.33 Q1977.82 1461.2 1975.99 1457.66 Q1974.19 1454.1 1970.55 1454.1 M1970.55 1450.39 Q1976.36 1450.39 1979.42 1455 Q1982.5 1459.58 1982.5 1468.33 Q1982.5 1477.06 1979.42 1481.67 Q1976.36 1486.25 1970.55 1486.25 Q1964.74 1486.25 1961.66 1481.67 Q1958.61 1477.06 1958.61 1468.33 Q1958.61 1459.58 1961.66 1455 Q1964.74 1450.39 1970.55 1450.39 Z" fill="#000000" fill-rule="nonzero" fill-opacity="1" /><path clip-path="url(#clip830)" d="M2000.71 1454.1 Q1997.1 1454.1 1995.27 1457.66 Q1993.47 1461.2 1993.47 1468.33 Q1993.47 1475.44 1995.27 1479.01 Q1997.1 1482.55 2000.71 1482.55 Q2004.35 1482.55 2006.15 1479.01 Q2007.98 1475.44 2007.98 1468.33 Q2007.98 1461.2 2006.15 1457.66 Q2004.35 1454.1 2000.71 1454.1 M2000.71 1450.39 Q2006.52 1450.39 2009.58 1455 Q2012.66 1459.58 2012.66 1468.33 Q2012.66 1477.06 2009.58 1481.67 Q2006.52 1486.25 2000.71 1486.25 Q1994.9 1486.25 1991.82 1481.67 Q1988.77 1477.06 1988.77 1468.33 Q1988.77 1459.58 1991.82 1455 Q1994.9 1450.39 2000.71 1450.39 Z" fill="#000000" fill-rule="nonzero" fill-opacity="1" /><path clip-path="url(#clip830)" d="M1118.28 1520.52 L1124.71 1520.52 L1124.71 1568.04 L1118.28 1568.04 L1118.28 1520.52 Z" fill="#000000" fill-rule="nonzero" fill-opacity="1" /><path clip-path="url(#clip830)" d="M1143.04 1522.27 L1143.04 1532.4 L1155.1 1532.4 L1155.1 1536.95 L1143.04 1536.95 L1143.04 1556.3 Q1143.04 1560.66 1144.22 1561.9 Q1145.43 1563.14 1149.09 1563.14 L1155.1 1563.14 L1155.1 1568.04 L1149.09 1568.04 Q1142.31 1568.04 1139.73 1565.53 Q1137.15 1562.98 1137.15 1556.3 L1137.15 1536.95 L1132.86 1536.95 L1132.86 1532.4 L1137.15 1532.4 L1137.15 1522.27 L1143.04 1522.27 Z" fill="#000000" fill-rule="nonzero" fill-opacity="1" /><path clip-path="url(#clip830)" d="M1193.3 1548.76 L1193.3 1551.62 L1166.37 1551.62 Q1166.75 1557.67 1170 1560.85 Q1173.28 1564 1179.1 1564 Q1182.48 1564 1185.63 1563.17 Q1188.81 1562.35 1191.93 1560.69 L1191.93 1566.23 Q1188.78 1567.57 1185.47 1568.27 Q1182.16 1568.97 1178.75 1568.97 Q1170.22 1568.97 1165.23 1564 Q1160.26 1559.04 1160.26 1550.57 Q1160.26 1541.82 1164.97 1536.69 Q1169.71 1531.54 1177.73 1531.54 Q1184.93 1531.54 1189.1 1536.18 Q1193.3 1540.8 1193.3 1548.76 M1187.44 1547.04 Q1187.38 1542.23 1184.74 1539.37 Q1182.13 1536.5 1177.8 1536.5 Q1172.9 1536.5 1169.94 1539.27 Q1167.01 1542.04 1166.56 1547.07 L1187.44 1547.04 Z" fill="#000000" fill-rule="nonzero" fill-opacity="1" /><path clip-path="url(#clip830)" d="M1223.57 1537.87 Q1222.58 1537.3 1221.4 1537.04 Q1220.26 1536.76 1218.86 1536.76 Q1213.89 1536.76 1211.22 1540 Q1208.58 1543.22 1208.58 1549.27 L1208.58 1568.04 L1202.69 1568.04 L1202.69 1532.4 L1208.58 1532.4 L1208.58 1537.93 Q1210.42 1534.69 1213.38 1533.13 Q1216.34 1531.54 1220.58 1531.54 Q1221.18 1531.54 1221.91 1531.63 Q1222.64 1531.7 1223.54 1531.85 L1223.57 1537.87 Z" fill="#000000" fill-rule="nonzero" fill-opacity="1" /><path clip-path="url(#clip830)" d="M1245.91 1550.12 Q1238.81 1550.12 1236.08 1551.75 Q1233.34 1553.37 1233.34 1557.29 Q1233.34 1560.4 1235.38 1562.25 Q1237.44 1564.07 1240.98 1564.07 Q1245.85 1564.07 1248.78 1560.63 Q1251.74 1557.16 1251.74 1551.43 L1251.74 1550.12 L1245.91 1550.12 M1257.59 1547.71 L1257.59 1568.04 L1251.74 1568.04 L1251.74 1562.63 Q1249.73 1565.88 1246.74 1567.44 Q1243.75 1568.97 1239.42 1568.97 Q1233.94 1568.97 1230.7 1565.91 Q1227.48 1562.82 1227.48 1557.67 Q1227.48 1551.65 1231.49 1548.6 Q1235.54 1545.54 1243.52 1545.54 L1251.74 1545.54 L1251.74 1544.97 Q1251.74 1540.93 1249.06 1538.73 Q1246.42 1536.5 1241.61 1536.5 Q1238.56 1536.5 1235.66 1537.23 Q1232.77 1537.97 1230.09 1539.43 L1230.09 1534.02 Q1233.31 1532.78 1236.33 1532.17 Q1239.35 1531.54 1242.22 1531.54 Q1249.95 1531.54 1253.77 1535.55 Q1257.59 1539.56 1257.59 1547.71 Z" fill="#000000" fill-rule="nonzero" fill-opacity="1" /><path clip-path="url(#clip830)" d="M1275.45 1522.27 L1275.45 1532.4 L1287.51 1532.4 L1287.51 1536.95 L1275.45 1536.95 L1275.45 1556.3 Q1275.45 1560.66 1276.63 1561.9 Q1277.84 1563.14 1281.5 1563.14 L1287.51 1563.14 L1287.51 1568.04 L1281.5 1568.04 Q1274.72 1568.04 1272.14 1565.53 Q1269.56 1562.98 1269.56 1556.3 L1269.56 1536.95 L1265.26 1536.95 L1265.26 1532.4 L1269.56 1532.4 L1269.56 1522.27 L1275.45 1522.27 Z" fill="#000000" fill-rule="nonzero" fill-opacity="1" /><path clip-path="url(#clip830)" d="M1295.21 1532.4 L1301.07 1532.4 L1301.07 1568.04 L1295.21 1568.04 L1295.21 1532.4 M1295.21 1518.52 L1301.07 1518.52 L1301.07 1525.93 L1295.21 1525.93 L1295.21 1518.52 Z" fill="#000000" fill-rule="nonzero" fill-opacity="1" /><path clip-path="url(#clip830)" d="M1327.14 1536.5 Q1322.43 1536.5 1319.69 1540.19 Q1316.95 1543.85 1316.95 1550.25 Q1316.95 1556.65 1319.66 1560.34 Q1322.4 1564 1327.14 1564 Q1331.82 1564 1334.55 1560.31 Q1337.29 1556.62 1337.29 1550.25 Q1337.29 1543.92 1334.55 1540.23 Q1331.82 1536.5 1327.14 1536.5 M1327.14 1531.54 Q1334.78 1531.54 1339.14 1536.5 Q1343.5 1541.47 1343.5 1550.25 Q1343.5 1559 1339.14 1564 Q1334.78 1568.97 1327.14 1568.97 Q1319.47 1568.97 1315.11 1564 Q1310.78 1559 1310.78 1550.25 Q1310.78 1541.47 1315.11 1536.5 Q1319.47 1531.54 1327.14 1531.54 Z" fill="#000000" fill-rule="nonzero" fill-opacity="1" /><path clip-path="url(#clip830)" d="M1382.84 1546.53 L1382.84 1568.04 L1376.98 1568.04 L1376.98 1546.72 Q1376.98 1541.66 1375.01 1539.14 Q1373.03 1536.63 1369.09 1536.63 Q1364.35 1536.63 1361.61 1539.65 Q1358.87 1542.68 1358.87 1547.9 L1358.87 1568.04 L1352.98 1568.04 L1352.98 1532.4 L1358.87 1532.4 L1358.87 1537.93 Q1360.97 1534.72 1363.8 1533.13 Q1366.67 1531.54 1370.39 1531.54 Q1376.54 1531.54 1379.69 1535.36 Q1382.84 1539.14 1382.84 1546.53 Z" fill="#000000" fill-rule="nonzero" fill-opacity="1" /><path clip-path="url(#clip830)" d="M1417.24 1533.45 L1417.24 1538.98 Q1414.76 1537.71 1412.09 1537.07 Q1409.41 1536.44 1406.55 1536.44 Q1402.19 1536.44 1399.99 1537.77 Q1397.83 1539.11 1397.83 1541.79 Q1397.83 1543.82 1399.39 1545 Q1400.95 1546.15 1405.66 1547.2 L1407.66 1547.64 Q1413.9 1548.98 1416.51 1551.43 Q1419.15 1553.85 1419.15 1558.21 Q1419.15 1563.17 1415.21 1566.07 Q1411.29 1568.97 1404.42 1568.97 Q1401.55 1568.97 1398.43 1568.39 Q1395.35 1567.85 1391.91 1566.74 L1391.91 1560.69 Q1395.16 1562.38 1398.31 1563.24 Q1401.46 1564.07 1404.54 1564.07 Q1408.68 1564.07 1410.91 1562.66 Q1413.14 1561.23 1413.14 1558.65 Q1413.14 1556.27 1411.52 1554.99 Q1409.92 1553.72 1404.48 1552.54 L1402.44 1552.07 Q1397 1550.92 1394.58 1548.56 Q1392.16 1546.18 1392.16 1542.04 Q1392.16 1537.01 1395.73 1534.27 Q1399.29 1531.54 1405.85 1531.54 Q1409.1 1531.54 1411.96 1532.01 Q1414.83 1532.49 1417.24 1533.45 Z" fill="#000000" fill-rule="nonzero" fill-opacity="1" /><polyline clip-path="url(#clip830)" style="stroke:#000000; stroke-linecap:round; stroke-linejoin:round; stroke-width:4; stroke-opacity:1; fill:none" points="184.677,1423.18 184.677,123.472 "/>
<polyline clip-path="url(#clip830)" style="stroke:#000000; stroke-linecap:round; stroke-linejoin:round; stroke-width:4; stroke-opacity:1; fill:none" points="184.677,1222.81 203.574,1222.81 "/>
<polyline clip-path="url(#clip830)" style="stroke:#000000; stroke-linecap:round; stroke-linejoin:round; stroke-width:4; stroke-opacity:1; fill:none" points="184.677,997.449 203.574,997.449 "/>
<polyline clip-path="url(#clip830)" style="stroke:#000000; stroke-linecap:round; stroke-linejoin:round; stroke-width:4; stroke-opacity:1; fill:none" points="184.677,772.083 203.574,772.083 "/>
<polyline clip-path="url(#clip830)" style="stroke:#000000; stroke-linecap:round; stroke-linejoin:round; stroke-width:4; stroke-opacity:1; fill:none" points="184.677,546.717 203.574,546.717 "/>
<polyline clip-path="url(#clip830)" style="stroke:#000000; stroke-linecap:round; stroke-linejoin:round; stroke-width:4; stroke-opacity:1; fill:none" points="184.677,321.351 203.574,321.351 "/>
<path clip-path="url(#clip830)" d="M53.1449 1236.16 L60.7837 1236.16 L60.7837 1209.79 L52.4736 1211.46 L52.4736 1207.2 L60.7374 1205.53 L65.4133 1205.53 L65.4133 1236.16 L73.0522 1236.16 L73.0522 1240.09 L53.1449 1240.09 L53.1449 1236.16 Z" fill="#000000" fill-rule="nonzero" fill-opacity="1" /><path clip-path="url(#clip830)" d="M82.4966 1234.21 L87.3808 1234.21 L87.3808 1240.09 L82.4966 1240.09 L82.4966 1234.21 Z" fill="#000000" fill-rule="nonzero" fill-opacity="1" /><path clip-path="url(#clip830)" d="M107.566 1208.61 Q103.955 1208.61 102.126 1212.18 Q100.321 1215.72 100.321 1222.85 Q100.321 1229.96 102.126 1233.52 Q103.955 1237.06 107.566 1237.06 Q111.2 1237.06 113.006 1233.52 Q114.834 1229.96 114.834 1222.85 Q114.834 1215.72 113.006 1212.18 Q111.2 1208.61 107.566 1208.61 M107.566 1204.91 Q113.376 1204.91 116.432 1209.52 Q119.51 1214.1 119.51 1222.85 Q119.51 1231.58 116.432 1236.18 Q113.376 1240.77 107.566 1240.77 Q101.756 1240.77 98.6771 1236.18 Q95.6215 1231.58 95.6215 1222.85 Q95.6215 1214.1 98.6771 1209.52 Q101.756 1204.91 107.566 1204.91 Z" fill="#000000" fill-rule="nonzero" fill-opacity="1" /><path clip-path="url(#clip830)" d="M127.774 1205.53 L146.131 1205.53 L146.131 1209.47 L132.057 1209.47 L132.057 1217.94 Q133.075 1217.59 134.094 1217.43 Q135.112 1217.25 136.131 1217.25 Q141.918 1217.25 145.297 1220.42 Q148.677 1223.59 148.677 1229.01 Q148.677 1234.59 145.205 1237.69 Q141.732 1240.77 135.413 1240.77 Q133.237 1240.77 130.969 1240.4 Q128.723 1240.02 126.316 1239.28 L126.316 1234.59 Q128.399 1235.72 130.621 1236.27 Q132.844 1236.83 135.32 1236.83 Q139.325 1236.83 141.663 1234.72 Q144.001 1232.62 144.001 1229.01 Q144.001 1225.4 141.663 1223.29 Q139.325 1221.18 135.32 1221.18 Q133.445 1221.18 131.57 1221.6 Q129.719 1222.02 127.774 1222.9 L127.774 1205.53 Z" fill="#000000" fill-rule="nonzero" fill-opacity="1" /><path clip-path="url(#clip830)" d="M52.2421 1010.79 L59.881 1010.79 L59.881 984.428 L51.5708 986.094 L51.5708 981.835 L59.8347 980.169 L64.5106 980.169 L64.5106 1010.79 L72.1494 1010.79 L72.1494 1014.73 L52.2421 1014.73 L52.2421 1010.79 Z" fill="#000000" fill-rule="nonzero" fill-opacity="1" /><path clip-path="url(#clip830)" d="M81.5938 1008.85 L86.478 1008.85 L86.478 1014.73 L81.5938 1014.73 L81.5938 1008.85 Z" fill="#000000" fill-rule="nonzero" fill-opacity="1" /><path clip-path="url(#clip830)" d="M106.663 983.247 Q103.052 983.247 101.223 986.812 Q99.4178 990.354 99.4178 997.483 Q99.4178 1004.59 101.223 1008.15 Q103.052 1011.7 106.663 1011.7 Q110.297 1011.7 112.103 1008.15 Q113.932 1004.59 113.932 997.483 Q113.932 990.354 112.103 986.812 Q110.297 983.247 106.663 983.247 M106.663 979.544 Q112.473 979.544 115.529 984.15 Q118.608 988.733 118.608 997.483 Q118.608 1006.21 115.529 1010.82 Q112.473 1015.4 106.663 1015.4 Q100.853 1015.4 97.7743 1010.82 Q94.7187 1006.21 94.7187 997.483 Q94.7187 988.733 97.7743 984.15 Q100.853 979.544 106.663 979.544 Z" fill="#000000" fill-rule="nonzero" fill-opacity="1" /><path clip-path="url(#clip830)" d="M136.825 998.317 Q133.492 998.317 131.57 1000.1 Q129.672 1001.88 129.672 1005.01 Q129.672 1008.13 131.57 1009.91 Q133.492 1011.7 136.825 1011.7 Q140.158 1011.7 142.08 1009.91 Q144.001 1008.11 144.001 1005.01 Q144.001 1001.88 142.08 1000.1 Q140.181 998.317 136.825 998.317 M132.149 996.326 Q129.14 995.585 127.45 993.525 Q125.783 991.465 125.783 988.502 Q125.783 984.358 128.723 981.951 Q131.686 979.544 136.825 979.544 Q141.987 979.544 144.927 981.951 Q147.867 984.358 147.867 988.502 Q147.867 991.465 146.177 993.525 Q144.51 995.585 141.524 996.326 Q144.904 997.113 146.779 999.405 Q148.677 1001.7 148.677 1005.01 Q148.677 1010.03 145.598 1012.71 Q142.543 1015.4 136.825 1015.4 Q131.107 1015.4 128.029 1012.71 Q124.973 1010.03 124.973 1005.01 Q124.973 1001.7 126.871 999.405 Q128.769 997.113 132.149 996.326 M130.436 988.942 Q130.436 991.627 132.103 993.131 Q133.793 994.636 136.825 994.636 Q139.834 994.636 141.524 993.131 Q143.237 991.627 143.237 988.942 Q143.237 986.256 141.524 984.752 Q139.834 983.247 136.825 983.247 Q133.793 983.247 132.103 984.752 Q130.436 986.256 130.436 988.942 Z" fill="#000000" fill-rule="nonzero" fill-opacity="1" /><path clip-path="url(#clip830)" d="M53.3764 785.428 L61.0152 785.428 L61.0152 759.062 L52.7051 760.729 L52.7051 756.469 L60.9689 754.803 L65.6448 754.803 L65.6448 785.428 L73.2837 785.428 L73.2837 789.363 L53.3764 789.363 L53.3764 785.428 Z" fill="#000000" fill-rule="nonzero" fill-opacity="1" /><path clip-path="url(#clip830)" d="M82.7281 783.483 L87.6123 783.483 L87.6123 789.363 L82.7281 789.363 L82.7281 783.483 Z" fill="#000000" fill-rule="nonzero" fill-opacity="1" /><path clip-path="url(#clip830)" d="M98.6076 785.428 L106.246 785.428 L106.246 759.062 L97.9363 760.729 L97.9363 756.469 L106.2 754.803 L110.876 754.803 L110.876 785.428 L118.515 785.428 L118.515 789.363 L98.6076 789.363 L98.6076 785.428 Z" fill="#000000" fill-rule="nonzero" fill-opacity="1" /><path clip-path="url(#clip830)" d="M128.769 785.428 L136.408 785.428 L136.408 759.062 L128.098 760.729 L128.098 756.469 L136.362 754.803 L141.038 754.803 L141.038 785.428 L148.677 785.428 L148.677 789.363 L128.769 789.363 L128.769 785.428 Z" fill="#000000" fill-rule="nonzero" fill-opacity="1" /><path clip-path="url(#clip830)" d="M51.6634 560.062 L59.3023 560.062 L59.3023 533.696 L50.9921 535.363 L50.9921 531.104 L59.256 529.437 L63.9319 529.437 L63.9319 560.062 L71.5707 560.062 L71.5707 563.997 L51.6634 563.997 L51.6634 560.062 Z" fill="#000000" fill-rule="nonzero" fill-opacity="1" /><path clip-path="url(#clip830)" d="M81.0151 558.117 L85.8993 558.117 L85.8993 563.997 L81.0151 563.997 L81.0151 558.117 Z" fill="#000000" fill-rule="nonzero" fill-opacity="1" /><path clip-path="url(#clip830)" d="M96.8947 560.062 L104.534 560.062 L104.534 533.696 L96.2234 535.363 L96.2234 531.104 L104.487 529.437 L109.163 529.437 L109.163 560.062 L116.802 560.062 L116.802 563.997 L96.8947 563.997 L96.8947 560.062 Z" fill="#000000" fill-rule="nonzero" fill-opacity="1" /><path clip-path="url(#clip830)" d="M139.094 533.511 L127.288 551.96 L139.094 551.96 L139.094 533.511 M137.867 529.437 L143.746 529.437 L143.746 551.96 L148.677 551.96 L148.677 555.849 L143.746 555.849 L143.746 563.997 L139.094 563.997 L139.094 555.849 L123.492 555.849 L123.492 551.335 L137.867 529.437 Z" fill="#000000" fill-rule="nonzero" fill-opacity="1" /><path clip-path="url(#clip830)" d="M53.0523 334.696 L60.6911 334.696 L60.6911 308.33 L52.381 309.997 L52.381 305.738 L60.6449 304.071 L65.3208 304.071 L65.3208 334.696 L72.9596 334.696 L72.9596 338.631 L53.0523 338.631 L53.0523 334.696 Z" fill="#000000" fill-rule="nonzero" fill-opacity="1" /><path clip-path="url(#clip830)" d="M82.404 332.752 L87.2882 332.752 L87.2882 338.631 L82.404 338.631 L82.404 332.752 Z" fill="#000000" fill-rule="nonzero" fill-opacity="1" /><path clip-path="url(#clip830)" d="M98.2835 334.696 L105.922 334.696 L105.922 308.33 L97.6122 309.997 L97.6122 305.738 L105.876 304.071 L110.552 304.071 L110.552 334.696 L118.191 334.696 L118.191 338.631 L98.2835 338.631 L98.2835 334.696 Z" fill="#000000" fill-rule="nonzero" fill-opacity="1" /><path clip-path="url(#clip830)" d="M126.455 304.071 L148.677 304.071 L148.677 306.062 L136.131 338.631 L131.246 338.631 L143.052 308.006 L126.455 308.006 L126.455 304.071 Z" fill="#000000" fill-rule="nonzero" fill-opacity="1" /><path clip-path="url(#clip830)" d="M894.291 16.7545 L894.291 25.383 Q890.159 21.5346 885.46 19.6307 Q880.802 17.7268 875.536 17.7268 Q865.165 17.7268 859.656 24.0867 Q854.147 30.4061 854.147 42.3968 Q854.147 54.3469 859.656 60.7069 Q865.165 67.0263 875.536 67.0263 Q880.802 67.0263 885.46 65.1223 Q890.159 63.2184 894.291 59.3701 L894.291 67.9175 Q889.997 70.8341 885.177 72.2924 Q880.397 73.7508 875.049 73.7508 Q861.317 73.7508 853.418 65.3654 Q845.518 56.9395 845.518 42.3968 Q845.518 27.8135 853.418 19.4281 Q861.317 11.0023 875.049 11.0023 Q880.478 11.0023 885.258 12.4606 Q890.078 13.8784 894.291 16.7545 Z" fill="#000000" fill-rule="nonzero" fill-opacity="1" /><path clip-path="url(#clip830)" d="M924.187 32.4315 Q918.192 32.4315 914.708 37.1306 Q911.224 41.7891 911.224 49.9314 Q911.224 58.0738 914.667 62.7728 Q918.151 67.4314 924.187 67.4314 Q930.142 67.4314 933.626 62.7323 Q937.109 58.0333 937.109 49.9314 Q937.109 41.8701 933.626 37.1711 Q930.142 32.4315 924.187 32.4315 M924.187 26.1121 Q933.909 26.1121 939.459 32.4315 Q945.009 38.7509 945.009 49.9314 Q945.009 61.0714 939.459 67.4314 Q933.909 73.7508 924.187 73.7508 Q914.424 73.7508 908.875 67.4314 Q903.365 61.0714 903.365 49.9314 Q903.365 38.7509 908.875 32.4315 Q914.424 26.1121 924.187 26.1121 Z" fill="#000000" fill-rule="nonzero" fill-opacity="1" /><path clip-path="url(#clip830)" d="M995.078 45.1919 L995.078 72.576 L987.624 72.576 L987.624 45.4349 Q987.624 38.994 985.113 35.7938 Q982.601 32.5936 977.578 32.5936 Q971.542 32.5936 968.058 36.4419 Q964.574 40.2903 964.574 46.9338 L964.574 72.576 L957.08 72.576 L957.08 27.2059 L964.574 27.2059 L964.574 34.2544 Q967.248 30.163 970.853 28.1376 Q974.499 26.1121 979.239 26.1121 Q987.057 26.1121 991.067 30.9732 Q995.078 35.7938 995.078 45.1919 Z" fill="#000000" fill-rule="nonzero" fill-opacity="1" /><path clip-path="url(#clip830)" d="M1004.6 27.2059 L1012.5 27.2059 L1026.67 65.2844 L1040.85 27.2059 L1048.75 27.2059 L1031.74 72.576 L1021.61 72.576 L1004.6 27.2059 Z" fill="#000000" fill-rule="nonzero" fill-opacity="1" /><path clip-path="url(#clip830)" d="M1097.85 48.0275 L1097.85 51.6733 L1063.58 51.6733 Q1064.06 59.3701 1068.2 63.421 Q1072.37 67.4314 1079.78 67.4314 Q1084.08 67.4314 1088.09 66.3781 Q1092.14 65.3249 1096.11 63.2184 L1096.11 70.267 Q1092.1 71.9684 1087.88 72.8596 Q1083.67 73.7508 1079.34 73.7508 Q1068.48 73.7508 1062.12 67.4314 Q1055.8 61.1119 1055.8 50.3365 Q1055.8 39.1965 1061.8 32.6746 Q1067.83 26.1121 1078.04 26.1121 Q1087.2 26.1121 1092.5 32.0264 Q1097.85 37.9003 1097.85 48.0275 M1090.4 45.84 Q1090.31 39.7232 1086.95 36.0774 Q1083.63 32.4315 1078.12 32.4315 Q1071.88 32.4315 1068.12 35.9558 Q1064.39 39.4801 1063.82 45.8805 L1090.4 45.84 Z" fill="#000000" fill-rule="nonzero" fill-opacity="1" /><path clip-path="url(#clip830)" d="M1136.37 34.1734 Q1135.12 33.4443 1133.62 33.1202 Q1132.16 32.7556 1130.38 32.7556 Q1124.06 32.7556 1120.66 36.8875 Q1117.29 40.9789 1117.29 48.6757 L1117.29 72.576 L1109.8 72.576 L1109.8 27.2059 L1117.29 27.2059 L1117.29 34.2544 Q1119.64 30.1225 1123.41 28.1376 Q1127.18 26.1121 1132.57 26.1121 Q1133.34 26.1121 1134.27 26.2337 Q1135.2 26.3147 1136.33 26.5172 L1136.37 34.1734 Z" fill="#000000" fill-rule="nonzero" fill-opacity="1" /><path clip-path="url(#clip830)" d="M1172.59 49.3643 Q1172.59 41.2625 1169.23 36.8065 Q1165.9 32.3505 1159.87 32.3505 Q1153.87 32.3505 1150.51 36.8065 Q1147.19 41.2625 1147.19 49.3643 Q1147.19 57.4256 1150.51 61.8816 Q1153.87 66.3376 1159.87 66.3376 Q1165.9 66.3376 1169.23 61.8816 Q1172.59 57.4256 1172.59 49.3643 M1180.04 66.9452 Q1180.04 78.5308 1174.9 84.1616 Q1169.75 89.8329 1159.14 89.8329 Q1155.21 89.8329 1151.73 89.2252 Q1148.24 88.6581 1144.96 87.4428 L1144.96 80.1917 Q1148.24 81.9741 1151.44 82.8248 Q1154.64 83.6755 1157.96 83.6755 Q1165.3 83.6755 1168.94 79.8271 Q1172.59 76.0193 1172.59 68.282 L1172.59 64.5957 Q1170.28 68.6061 1166.67 70.5911 Q1163.07 72.576 1158.05 72.576 Q1149.7 72.576 1144.6 66.2161 Q1139.49 59.8562 1139.49 49.3643 Q1139.49 38.832 1144.6 32.472 Q1149.7 26.1121 1158.05 26.1121 Q1163.07 26.1121 1166.67 28.0971 Q1170.28 30.082 1172.59 34.0924 L1172.59 27.2059 L1180.04 27.2059 L1180.04 66.9452 Z" fill="#000000" fill-rule="nonzero" fill-opacity="1" /><path clip-path="url(#clip830)" d="M1234.2 48.0275 L1234.2 51.6733 L1199.93 51.6733 Q1200.42 59.3701 1204.55 63.421 Q1208.72 67.4314 1216.14 67.4314 Q1220.43 67.4314 1224.44 66.3781 Q1228.49 65.3249 1232.46 63.2184 L1232.46 70.267 Q1228.45 71.9684 1224.24 72.8596 Q1220.02 73.7508 1215.69 73.7508 Q1204.83 73.7508 1198.47 67.4314 Q1192.15 61.1119 1192.15 50.3365 Q1192.15 39.1965 1198.15 32.6746 Q1204.19 26.1121 1214.39 26.1121 Q1223.55 26.1121 1228.86 32.0264 Q1234.2 37.9003 1234.2 48.0275 M1226.75 45.84 Q1226.67 39.7232 1223.31 36.0774 Q1219.98 32.4315 1214.47 32.4315 Q1208.24 32.4315 1204.47 35.9558 Q1200.74 39.4801 1200.18 45.8805 L1226.75 45.84 Z" fill="#000000" fill-rule="nonzero" fill-opacity="1" /><path clip-path="url(#clip830)" d="M1284.15 45.1919 L1284.15 72.576 L1276.7 72.576 L1276.7 45.4349 Q1276.7 38.994 1274.19 35.7938 Q1271.67 32.5936 1266.65 32.5936 Q1260.61 32.5936 1257.13 36.4419 Q1253.65 40.2903 1253.65 46.9338 L1253.65 72.576 L1246.15 72.576 L1246.15 27.2059 L1253.65 27.2059 L1253.65 34.2544 Q1256.32 30.163 1259.93 28.1376 Q1263.57 26.1121 1268.31 26.1121 Q1276.13 26.1121 1280.14 30.9732 Q1284.15 35.7938 1284.15 45.1919 Z" fill="#000000" fill-rule="nonzero" fill-opacity="1" /><path clip-path="url(#clip830)" d="M1331.67 28.9478 L1331.67 35.9153 Q1328.51 34.1734 1325.31 33.3227 Q1322.15 32.4315 1318.91 32.4315 Q1311.66 32.4315 1307.65 37.0496 Q1303.64 41.6271 1303.64 49.9314 Q1303.64 58.2358 1307.65 62.8538 Q1311.66 67.4314 1318.91 67.4314 Q1322.15 67.4314 1325.31 66.5807 Q1328.51 65.6895 1331.67 63.9476 L1331.67 70.8341 Q1328.55 72.2924 1325.19 73.0216 Q1321.86 73.7508 1318.1 73.7508 Q1307.85 73.7508 1301.81 67.3098 Q1295.78 60.8689 1295.78 49.9314 Q1295.78 38.832 1301.85 32.472 Q1307.97 26.1121 1318.58 26.1121 Q1322.03 26.1121 1325.31 26.8413 Q1328.59 27.5299 1331.67 28.9478 Z" fill="#000000" fill-rule="nonzero" fill-opacity="1" /><path clip-path="url(#clip830)" d="M1383.44 48.0275 L1383.44 51.6733 L1349.17 51.6733 Q1349.65 59.3701 1353.79 63.421 Q1357.96 67.4314 1365.37 67.4314 Q1369.66 67.4314 1373.68 66.3781 Q1377.73 65.3249 1381.7 63.2184 L1381.7 70.267 Q1377.69 71.9684 1373.47 72.8596 Q1369.26 73.7508 1364.93 73.7508 Q1354.07 73.7508 1347.71 67.4314 Q1341.39 61.1119 1341.39 50.3365 Q1341.39 39.1965 1347.38 32.6746 Q1353.42 26.1121 1363.63 26.1121 Q1372.78 26.1121 1378.09 32.0264 Q1383.44 37.9003 1383.44 48.0275 M1375.98 45.84 Q1375.9 39.7232 1372.54 36.0774 Q1369.22 32.4315 1363.71 32.4315 Q1357.47 32.4315 1353.7 35.9558 Q1349.98 39.4801 1349.41 45.8805 L1375.98 45.84 Z" fill="#000000" fill-rule="nonzero" fill-opacity="1" /><path clip-path="url(#clip830)" d="M1439.62 32.4315 Q1433.63 32.4315 1430.14 37.1306 Q1426.66 41.7891 1426.66 49.9314 Q1426.66 58.0738 1430.1 62.7728 Q1433.59 67.4314 1439.62 67.4314 Q1445.58 67.4314 1449.06 62.7323 Q1452.55 58.0333 1452.55 49.9314 Q1452.55 41.8701 1449.06 37.1711 Q1445.58 32.4315 1439.62 32.4315 M1439.62 26.1121 Q1449.35 26.1121 1454.9 32.4315 Q1460.45 38.7509 1460.45 49.9314 Q1460.45 61.0714 1454.9 67.4314 Q1449.35 73.7508 1439.62 73.7508 Q1429.86 73.7508 1424.31 67.4314 Q1418.8 61.0714 1418.8 49.9314 Q1418.8 38.7509 1424.31 32.4315 Q1429.86 26.1121 1439.62 26.1121 Z" fill="#000000" fill-rule="nonzero" fill-opacity="1" /><path clip-path="url(#clip830)" d="M1495.77 9.54393 L1495.77 15.7418 L1488.64 15.7418 Q1484.63 15.7418 1483.05 17.3622 Q1481.51 18.9825 1481.51 23.1955 L1481.51 27.2059 L1493.78 27.2059 L1493.78 32.9987 L1481.51 32.9987 L1481.51 72.576 L1474.02 72.576 L1474.02 32.9987 L1466.89 32.9987 L1466.89 27.2059 L1474.02 27.2059 L1474.02 24.0462 Q1474.02 16.471 1477.54 13.0277 Q1481.06 9.54393 1488.72 9.54393 L1495.77 9.54393 Z" fill="#000000" fill-rule="nonzero" fill-opacity="1" /><path clip-path="url(#clip830)" d="M1528.7 12.096 L1540.9 12.096 L1556.33 53.2532 L1571.85 12.096 L1584.04 12.096 L1584.04 72.576 L1576.06 72.576 L1576.06 19.4686 L1560.46 60.9499 L1552.24 60.9499 L1536.64 19.4686 L1536.64 72.576 L1528.7 72.576 L1528.7 12.096 Z" fill="#000000" fill-rule="nonzero" fill-opacity="1" /><path clip-path="url(#clip830)" d="M1636.54 14.0809 L1636.54 22.0612 Q1631.88 19.8332 1627.75 18.7395 Q1623.62 17.6457 1619.77 17.6457 Q1613.08 17.6457 1609.44 20.2383 Q1605.83 22.8309 1605.83 27.611 Q1605.83 31.6214 1608.22 33.6873 Q1610.65 35.7128 1617.38 36.9686 L1622.32 37.9813 Q1631.47 39.7232 1635.81 44.1387 Q1640.18 48.5136 1640.18 55.8863 Q1640.18 64.6767 1634.27 69.2137 Q1628.4 73.7508 1617.01 73.7508 Q1612.72 73.7508 1607.86 72.7785 Q1603.04 71.8063 1597.85 69.9024 L1597.85 61.4765 Q1602.83 64.2716 1607.61 65.6895 Q1612.4 67.1073 1617.01 67.1073 Q1624.02 67.1073 1627.83 64.3527 Q1631.64 61.598 1631.64 56.4939 Q1631.64 52.0379 1628.88 49.5264 Q1626.17 47.0148 1619.93 45.759 L1614.95 44.7868 Q1605.79 42.9639 1601.7 39.075 Q1597.61 35.1862 1597.61 28.2591 Q1597.61 20.2383 1603.24 15.6203 Q1608.91 11.0023 1618.84 11.0023 Q1623.09 11.0023 1627.5 11.7719 Q1631.92 12.5416 1636.54 14.0809 Z" fill="#000000" fill-rule="nonzero" fill-opacity="1" /><path clip-path="url(#clip830)" d="M1652.94 12.096 L1691.19 12.096 L1691.19 18.9825 L1661.13 18.9825 L1661.13 36.8875 L1689.93 36.8875 L1689.93 43.7741 L1661.13 43.7741 L1661.13 65.6895 L1691.91 65.6895 L1691.91 72.576 L1652.94 72.576 L1652.94 12.096 Z" fill="#000000" fill-rule="nonzero" fill-opacity="1" /><polyline clip-path="url(#clip832)" style="stroke:#ff0000; stroke-linecap:round; stroke-linejoin:round; stroke-width:4; stroke-opacity:1; fill:none" points="246.038,160.256 254.704,233.693 263.371,302.597 272.038,367.259 280.705,427.951 289.371,484.928 298.038,538.426 306.705,588.665 315.372,635.852 324.038,680.179 332.705,721.824 341.372,760.957 350.039,797.733 358.706,832.299 367.372,864.792 376.039,895.34 384.706,924.064 393.373,951.074 402.039,976.477 410.706,1000.37 419.373,1022.85 428.04,1043.99 436.706,1063.88 445.373,1082.6 454.04,1100.22 462.707,1116.8 471.374,1132.4 480.04,1147.09 488.707,1160.92 497.374,1173.93 506.041,1186.19 514.707,1197.73 523.374,1208.59 532.041,1218.83 540.708,1228.46 549.374,1237.54 558.041,1246.09 566.708,1254.14 575.375,1261.73 584.042,1268.87 592.708,1275.61 601.375,1281.95 610.042,1287.93 618.709,1293.56 627.375,1298.87 636.042,1303.87 644.709,1308.58 653.376,1313.02 662.042,1317.21 670.709,1321.15 679.376,1324.87 688.043,1328.38 696.71,1331.68 705.376,1334.8 714.043,1337.73 722.71,1340.5 731.377,1343.11 740.043,1345.57 748.71,1347.89 757.377,1350.08 766.044,1352.14 774.71,1354.08 783.377,1355.92 792.044,1357.65 800.711,1359.28 809.378,1360.82 818.044,1362.27 826.711,1363.63 835.378,1364.92 844.045,1366.14 852.711,1367.29 861.378,1368.37 870.045,1369.39 878.712,1370.35 887.378,1371.26 896.045,1372.11 904.712,1372.92 913.379,1373.68 922.046,1374.4 930.712,1375.08 939.379,1375.72 948.046,1376.32 956.713,1376.89 965.379,1377.43 974.046,1377.94 982.713,1378.41 991.38,1378.86 1000.05,1379.29 1008.71,1379.69 1017.38,1380.07 1026.05,1380.43 1034.71,1380.76 1043.38,1381.08 1052.05,1381.38 1060.71,1381.66 1069.38,1381.93 1078.05,1382.18 1086.71,1382.42 1095.38,1382.64 1104.05,1382.86 1112.71,1383.05 1121.38,1383.24 1130.05,1383.42 1138.71,1383.59 1147.38,1383.75 1156.05,1383.9 1164.72,1384.04 1173.38,1384.17 1182.05,1384.3 1190.72,1384.41 1199.38,1384.53 1208.05,1384.63 1216.72,1384.73 1225.38,1384.82 1234.05,1384.91 1242.72,1385 1251.38,1385.07 1260.05,1385.15 1268.72,1385.22 1277.38,1385.29 1286.05,1385.35 1294.72,1385.41 1303.38,1385.46 1312.05,1385.52 1320.72,1385.56 1329.38,1385.61 1338.05,1385.66 1346.72,1385.7 1355.38,1385.74 1364.05,1385.77 1372.72,1385.81 1381.38,1385.84 1390.05,1385.87 1398.72,1385.9 1407.38,1385.93 1416.05,1385.96 1424.72,1385.98 1433.38,1386 1442.05,1386.03 1450.72,1386.05 1459.39,1386.07 1468.05,1386.09 1476.72,1386.1 1485.39,1386.12 1494.05,1386.14 1502.72,1386.15 1511.39,1386.16 1520.05,1386.18 1528.72,1386.19 1537.39,1386.2 1546.05,1386.21 1554.72,1386.22 1563.39,1386.23 1572.05,1386.24 1580.72,1386.25 1589.39,1386.26 1598.05,1386.27 1606.72,1386.27 1615.39,1386.28 1624.05,1386.29 1632.72,1386.29 1641.39,1386.3 1650.05,1386.3 1658.72,1386.31 1667.39,1386.31 1676.05,1386.32 1684.72,1386.32 1693.39,1386.33 1702.05,1386.33 1710.72,1386.34 1719.39,1386.34 1728.06,1386.34 1736.72,1386.35 1745.39,1386.35 1754.06,1386.35 1762.72,1386.35 1771.39,1386.36 1780.06,1386.36 1788.72,1386.36 1797.39,1386.36 1806.06,1386.36 1814.72,1386.37 1823.39,1386.37 1832.06,1386.37 1840.72,1386.37 1849.39,1386.37 1858.06,1386.37 1866.72,1386.38 1875.39,1386.38 1884.06,1386.38 1892.72,1386.38 1901.39,1386.38 1910.06,1386.38 1918.72,1386.38 1927.39,1386.38 1936.06,1386.38 1944.72,1386.38 1953.39,1386.38 1962.06,1386.39 1970.72,1386.39 1979.39,1386.39 1988.06,1386.39 1996.73,1386.39 2005.39,1386.39 2014.06,1386.39 2022.73,1386.39 2031.39,1386.39 2040.06,1386.39 2048.73,1386.39 2057.39,1386.39 2066.06,1386.39 2074.73,1386.39 2083.39,1386.39 2092.06,1386.39 2100.73,1386.39 2109.39,1386.39 2118.06,1386.39 2126.73,1386.39 2135.39,1386.39 2144.06,1386.39 2152.73,1386.39 2161.39,1386.39 2170.06,1386.39 2178.73,1386.39 2187.39,1386.39 2196.06,1386.39 2204.73,1386.39 2213.39,1386.39 2222.06,1386.39 2230.73,1386.4 2239.39,1386.4 2248.06,1386.4 2256.73,1386.4 2265.39,1386.4 2274.06,1386.4 2282.73,1386.4 2291.4,1386.4 "/>
</svg>
