<?xml version="1.0" encoding="utf-8"?>
<svg xmlns="http://www.w3.org/2000/svg" xmlns:xlink="http://www.w3.org/1999/xlink" width="1150" height="350" viewBox="0 0 4600 1400">
<defs>
  <clipPath id="clip510">
    <rect x="0" y="0" width="4600" height="1400"/>
  </clipPath>
</defs>
<path clip-path="url(#clip510)" d="M0 1400 L4600 1400 L4600 0 L0 0  Z" fill="#ffffff" fill-rule="evenodd" fill-opacity="1"/>
<defs>
  <clipPath id="clip511">
    <rect x="920" y="0" width="3221" height="1400"/>
  </clipPath>
</defs>
<path clip-path="url(#clip510)" d="M255.753 1275.71 L4552.76 1275.71 L4552.76 90.6026 L255.753 90.6026  Z" fill="#ffffff" fill-rule="evenodd" fill-opacity="1"/>
<defs>
  <clipPath id="clip512">
    <rect x="255" y="90" width="4298" height="1186"/>
  </clipPath>
</defs>
<polyline clip-path="url(#clip512)" style="stroke:#000000; stroke-linecap:round; stroke-linejoin:round; stroke-width:2; stroke-opacity:0.1; fill:none" points="377.366,1275.71 377.366,90.6026 "/>
<polyline clip-path="url(#clip512)" style="stroke:#000000; stroke-linecap:round; stroke-linejoin:round; stroke-width:2; stroke-opacity:0.1; fill:none" points="1188.12,1275.71 1188.12,90.6026 "/>
<polyline clip-path="url(#clip512)" style="stroke:#000000; stroke-linecap:round; stroke-linejoin:round; stroke-width:2; stroke-opacity:0.1; fill:none" points="1998.88,1275.71 1998.88,90.6026 "/>
<polyline clip-path="url(#clip512)" style="stroke:#000000; stroke-linecap:round; stroke-linejoin:round; stroke-width:2; stroke-opacity:0.1; fill:none" points="2809.63,1275.71 2809.63,90.6026 "/>
<polyline clip-path="url(#clip512)" style="stroke:#000000; stroke-linecap:round; stroke-linejoin:round; stroke-width:2; stroke-opacity:0.1; fill:none" points="3620.39,1275.71 3620.39,90.6026 "/>
<polyline clip-path="url(#clip512)" style="stroke:#000000; stroke-linecap:round; stroke-linejoin:round; stroke-width:2; stroke-opacity:0.1; fill:none" points="4431.14,1275.71 4431.14,90.6026 "/>
<polyline clip-path="url(#clip512)" style="stroke:#000000; stroke-linecap:round; stroke-linejoin:round; stroke-width:2; stroke-opacity:0.1; fill:none" points="255.753,1203.54 4552.76,1203.54 "/>
<polyline clip-path="url(#clip512)" style="stroke:#000000; stroke-linecap:round; stroke-linejoin:round; stroke-width:2; stroke-opacity:0.1; fill:none" points="255.753,991.927 4552.76,991.927 "/>
<polyline clip-path="url(#clip512)" style="stroke:#000000; stroke-linecap:round; stroke-linejoin:round; stroke-width:2; stroke-opacity:0.1; fill:none" points="255.753,780.314 4552.76,780.314 "/>
<polyline clip-path="url(#clip512)" style="stroke:#000000; stroke-linecap:round; stroke-linejoin:round; stroke-width:2; stroke-opacity:0.1; fill:none" points="255.753,568.701 4552.76,568.701 "/>
<polyline clip-path="url(#clip512)" style="stroke:#000000; stroke-linecap:round; stroke-linejoin:round; stroke-width:2; stroke-opacity:0.1; fill:none" points="255.753,357.088 4552.76,357.088 "/>
<polyline clip-path="url(#clip512)" style="stroke:#000000; stroke-linecap:round; stroke-linejoin:round; stroke-width:2; stroke-opacity:0.1; fill:none" points="255.753,145.475 4552.76,145.475 "/>
<polyline clip-path="url(#clip510)" style="stroke:#000000; stroke-linecap:round; stroke-linejoin:round; stroke-width:4; stroke-opacity:1; fill:none" points="255.753,1275.71 4552.76,1275.71 "/>
<polyline clip-path="url(#clip510)" style="stroke:#000000; stroke-linecap:round; stroke-linejoin:round; stroke-width:4; stroke-opacity:1; fill:none" points="377.366,1275.71 377.366,1256.81 "/>
<polyline clip-path="url(#clip510)" style="stroke:#000000; stroke-linecap:round; stroke-linejoin:round; stroke-width:4; stroke-opacity:1; fill:none" points="1188.12,1275.71 1188.12,1256.81 "/>
<polyline clip-path="url(#clip510)" style="stroke:#000000; stroke-linecap:round; stroke-linejoin:round; stroke-width:4; stroke-opacity:1; fill:none" points="1998.88,1275.71 1998.88,1256.81 "/>
<polyline clip-path="url(#clip510)" style="stroke:#000000; stroke-linecap:round; stroke-linejoin:round; stroke-width:4; stroke-opacity:1; fill:none" points="2809.63,1275.71 2809.63,1256.81 "/>
<polyline clip-path="url(#clip510)" style="stroke:#000000; stroke-linecap:round; stroke-linejoin:round; stroke-width:4; stroke-opacity:1; fill:none" points="3620.39,1275.71 3620.39,1256.81 "/>
<polyline clip-path="url(#clip510)" style="stroke:#000000; stroke-linecap:round; stroke-linejoin:round; stroke-width:4; stroke-opacity:1; fill:none" points="4431.14,1275.71 4431.14,1256.81 "/>
<path clip-path="url(#clip510)" d="M357.578 1322.76 Q354.418 1322.76 352.818 1325.88 Q351.238 1328.98 351.238 1335.22 Q351.238 1341.43 352.818 1344.55 Q354.418 1347.65 357.578 1347.65 Q360.758 1347.65 362.337 1344.55 Q363.938 1341.43 363.938 1335.22 Q363.938 1328.98 362.337 1325.88 Q360.758 1322.76 357.578 1322.76 M357.578 1319.52 Q362.662 1319.52 365.335 1323.55 Q368.029 1327.56 368.029 1335.22 Q368.029 1342.85 365.335 1346.88 Q362.662 1350.89 357.578 1350.89 Q352.494 1350.89 349.8 1346.88 Q347.126 1342.85 347.126 1335.22 Q347.126 1327.56 349.8 1323.55 Q352.494 1319.52 357.578 1319.52 Z" fill="#000000" fill-rule="nonzero" fill-opacity="1" /><path clip-path="url(#clip510)" d="M375.219 1345.16 L379.493 1345.16 L379.493 1350.31 L375.219 1350.31 L375.219 1345.16 Z" fill="#000000" fill-rule="nonzero" fill-opacity="1" /><path clip-path="url(#clip510)" d="M397.155 1322.76 Q393.995 1322.76 392.395 1325.88 Q390.815 1328.98 390.815 1335.22 Q390.815 1341.43 392.395 1344.55 Q393.995 1347.65 397.155 1347.65 Q400.335 1347.65 401.915 1344.55 Q403.515 1341.43 403.515 1335.22 Q403.515 1328.98 401.915 1325.88 Q400.335 1322.76 397.155 1322.76 M397.155 1319.52 Q402.239 1319.52 404.912 1323.55 Q407.606 1327.56 407.606 1335.22 Q407.606 1342.85 404.912 1346.88 Q402.239 1350.89 397.155 1350.89 Q392.071 1350.89 389.377 1346.88 Q386.704 1342.85 386.704 1335.22 Q386.704 1327.56 389.377 1323.55 Q392.071 1319.52 397.155 1319.52 Z" fill="#000000" fill-rule="nonzero" fill-opacity="1" /><path clip-path="url(#clip510)" d="M1168.87 1322.76 Q1165.71 1322.76 1164.11 1325.88 Q1162.53 1328.98 1162.53 1335.22 Q1162.53 1341.43 1164.11 1344.55 Q1165.71 1347.65 1168.87 1347.65 Q1172.05 1347.65 1173.63 1344.55 Q1175.23 1341.43 1175.23 1335.22 Q1175.23 1328.98 1173.63 1325.88 Q1172.05 1322.76 1168.87 1322.76 M1168.87 1319.52 Q1173.95 1319.52 1176.63 1323.55 Q1179.32 1327.56 1179.32 1335.22 Q1179.32 1342.85 1176.63 1346.88 Q1173.95 1350.89 1168.87 1350.89 Q1163.79 1350.89 1161.09 1346.88 Q1158.42 1342.85 1158.42 1335.22 Q1158.42 1327.56 1161.09 1323.55 Q1163.79 1319.52 1168.87 1319.52 Z" fill="#000000" fill-rule="nonzero" fill-opacity="1" /><path clip-path="url(#clip510)" d="M1186.51 1345.16 L1190.79 1345.16 L1190.79 1350.31 L1186.51 1350.31 L1186.51 1345.16 Z" fill="#000000" fill-rule="nonzero" fill-opacity="1" /><path clip-path="url(#clip510)" d="M1200.41 1346.86 L1207.09 1346.86 L1207.09 1323.79 L1199.82 1325.25 L1199.82 1321.52 L1207.05 1320.07 L1211.14 1320.07 L1211.14 1346.86 L1217.82 1346.86 L1217.82 1350.31 L1200.41 1350.31 L1200.41 1346.86 Z" fill="#000000" fill-rule="nonzero" fill-opacity="1" /><path clip-path="url(#clip510)" d="M1979.79 1322.76 Q1976.63 1322.76 1975.03 1325.88 Q1973.45 1328.98 1973.45 1335.22 Q1973.45 1341.43 1975.03 1344.55 Q1976.63 1347.65 1979.79 1347.65 Q1982.97 1347.65 1984.55 1344.55 Q1986.15 1341.43 1986.15 1335.22 Q1986.15 1328.98 1984.55 1325.88 Q1982.97 1322.76 1979.79 1322.76 M1979.79 1319.52 Q1984.87 1319.52 1987.54 1323.55 Q1990.24 1327.56 1990.24 1335.22 Q1990.24 1342.85 1987.54 1346.88 Q1984.87 1350.89 1979.79 1350.89 Q1974.7 1350.89 1972.01 1346.88 Q1969.34 1342.85 1969.34 1335.22 Q1969.34 1327.56 1972.01 1323.55 Q1974.7 1319.52 1979.79 1319.52 Z" fill="#000000" fill-rule="nonzero" fill-opacity="1" /><path clip-path="url(#clip510)" d="M1997.43 1345.16 L2001.7 1345.16 L2001.7 1350.31 L1997.43 1350.31 L1997.43 1345.16 Z" fill="#000000" fill-rule="nonzero" fill-opacity="1" /><path clip-path="url(#clip510)" d="M2014.14 1346.86 L2028.42 1346.86 L2028.42 1350.31 L2009.22 1350.31 L2009.22 1346.86 Q2011.55 1344.45 2015.56 1340.4 Q2019.59 1336.33 2020.62 1335.15 Q2022.58 1332.95 2023.35 1331.43 Q2024.14 1329.89 2024.14 1328.41 Q2024.14 1326 2022.44 1324.48 Q2020.76 1322.96 2018.05 1322.96 Q2016.12 1322.96 2013.98 1323.63 Q2011.85 1324.3 2009.42 1325.66 L2009.42 1321.52 Q2011.89 1320.53 2014.04 1320.02 Q2016.18 1319.52 2017.97 1319.52 Q2022.67 1319.52 2025.46 1321.87 Q2028.26 1324.22 2028.26 1328.15 Q2028.26 1330.01 2027.55 1331.69 Q2026.86 1333.35 2025.02 1335.62 Q2024.51 1336.21 2021.79 1339.02 Q2019.08 1341.82 2014.14 1346.86 Z" fill="#000000" fill-rule="nonzero" fill-opacity="1" /><path clip-path="url(#clip510)" d="M2790.13 1322.76 Q2786.97 1322.76 2785.37 1325.88 Q2783.79 1328.98 2783.79 1335.22 Q2783.79 1341.43 2785.37 1344.55 Q2786.97 1347.65 2790.13 1347.65 Q2793.31 1347.65 2794.89 1344.55 Q2796.49 1341.43 2796.49 1335.22 Q2796.49 1328.98 2794.89 1325.88 Q2793.31 1322.76 2790.13 1322.76 M2790.13 1319.52 Q2795.21 1319.52 2797.88 1323.55 Q2800.58 1327.56 2800.58 1335.22 Q2800.58 1342.85 2797.88 1346.88 Q2795.21 1350.89 2790.13 1350.89 Q2785.04 1350.89 2782.35 1346.88 Q2779.68 1342.85 2779.68 1335.22 Q2779.68 1327.56 2782.35 1323.55 Q2785.04 1319.52 2790.13 1319.52 Z" fill="#000000" fill-rule="nonzero" fill-opacity="1" /><path clip-path="url(#clip510)" d="M2807.77 1345.16 L2812.04 1345.16 L2812.04 1350.31 L2807.77 1350.31 L2807.77 1345.16 Z" fill="#000000" fill-rule="nonzero" fill-opacity="1" /><path clip-path="url(#clip510)" d="M2833.35 1334 Q2836.29 1334.63 2837.93 1336.61 Q2839.59 1338.6 2839.59 1341.51 Q2839.59 1345.99 2836.51 1348.44 Q2833.43 1350.89 2827.76 1350.89 Q2825.86 1350.89 2823.83 1350.51 Q2821.83 1350.14 2819.68 1349.39 L2819.68 1345.44 Q2821.38 1346.44 2823.41 1346.94 Q2825.43 1347.45 2827.64 1347.45 Q2831.49 1347.45 2833.49 1345.93 Q2835.52 1344.41 2835.52 1341.51 Q2835.52 1338.84 2833.63 1337.34 Q2831.77 1335.82 2828.43 1335.82 L2824.9 1335.82 L2824.9 1332.46 L2828.59 1332.46 Q2831.61 1332.46 2833.21 1331.27 Q2834.81 1330.05 2834.81 1327.78 Q2834.81 1325.45 2833.15 1324.22 Q2831.51 1322.96 2828.43 1322.96 Q2826.75 1322.96 2824.82 1323.33 Q2822.9 1323.69 2820.59 1324.46 L2820.59 1320.81 Q2822.92 1320.17 2824.94 1319.84 Q2826.99 1319.52 2828.79 1319.52 Q2833.45 1319.52 2836.17 1321.64 Q2838.88 1323.75 2838.88 1327.36 Q2838.88 1329.87 2837.44 1331.61 Q2836 1333.33 2833.35 1334 Z" fill="#000000" fill-rule="nonzero" fill-opacity="1" /><path clip-path="url(#clip510)" d="M3600.39 1322.76 Q3597.23 1322.76 3595.63 1325.88 Q3594.05 1328.98 3594.05 1335.22 Q3594.05 1341.43 3595.63 1344.55 Q3597.23 1347.65 3600.39 1347.65 Q3603.57 1347.65 3605.15 1344.55 Q3606.75 1341.43 3606.75 1335.22 Q3606.75 1328.98 3605.15 1325.88 Q3603.57 1322.76 3600.39 1322.76 M3600.39 1319.52 Q3605.47 1319.52 3608.14 1323.55 Q3610.84 1327.56 3610.84 1335.22 Q3610.84 1342.85 3608.14 1346.88 Q3605.47 1350.89 3600.39 1350.89 Q3595.3 1350.89 3592.61 1346.88 Q3589.93 1342.85 3589.93 1335.22 Q3589.93 1327.56 3592.61 1323.55 Q3595.3 1319.52 3600.39 1319.52 Z" fill="#000000" fill-rule="nonzero" fill-opacity="1" /><path clip-path="url(#clip510)" d="M3618.03 1345.16 L3622.3 1345.16 L3622.3 1350.31 L3618.03 1350.31 L3618.03 1345.16 Z" fill="#000000" fill-rule="nonzero" fill-opacity="1" /><path clip-path="url(#clip510)" d="M3642.45 1323.63 L3632.12 1339.77 L3642.45 1339.77 L3642.45 1323.63 M3641.38 1320.07 L3646.53 1320.07 L3646.53 1339.77 L3650.84 1339.77 L3650.84 1343.18 L3646.53 1343.18 L3646.53 1350.31 L3642.45 1350.31 L3642.45 1343.18 L3628.8 1343.18 L3628.8 1339.23 L3641.38 1320.07 Z" fill="#000000" fill-rule="nonzero" fill-opacity="1" /><path clip-path="url(#clip510)" d="M4411.79 1322.76 Q4408.63 1322.76 4407.03 1325.88 Q4405.45 1328.98 4405.45 1335.22 Q4405.45 1341.43 4407.03 1344.55 Q4408.63 1347.65 4411.79 1347.65 Q4414.97 1347.65 4416.55 1344.55 Q4418.15 1341.43 4418.15 1335.22 Q4418.15 1328.98 4416.55 1325.88 Q4414.97 1322.76 4411.79 1322.76 M4411.79 1319.52 Q4416.87 1319.52 4419.55 1323.55 Q4422.24 1327.56 4422.24 1335.22 Q4422.24 1342.85 4419.55 1346.88 Q4416.87 1350.89 4411.79 1350.89 Q4406.71 1350.89 4404.01 1346.88 Q4401.34 1342.85 4401.34 1335.22 Q4401.34 1327.56 4404.01 1323.55 Q4406.71 1319.52 4411.79 1319.52 Z" fill="#000000" fill-rule="nonzero" fill-opacity="1" /><path clip-path="url(#clip510)" d="M4429.43 1345.16 L4433.7 1345.16 L4433.7 1350.31 L4429.43 1350.31 L4429.43 1345.16 Z" fill="#000000" fill-rule="nonzero" fill-opacity="1" /><path clip-path="url(#clip510)" d="M4442.66 1320.07 L4458.72 1320.07 L4458.72 1323.51 L4446.4 1323.51 L4446.4 1330.92 Q4447.3 1330.62 4448.19 1330.48 Q4449.08 1330.31 4449.97 1330.31 Q4455.03 1330.31 4457.99 1333.09 Q4460.95 1335.86 4460.95 1340.6 Q4460.95 1345.48 4457.91 1348.2 Q4454.87 1350.89 4449.34 1350.89 Q4447.44 1350.89 4445.45 1350.57 Q4443.49 1350.24 4441.38 1349.6 L4441.38 1345.48 Q4443.2 1346.48 4445.15 1346.96 Q4447.09 1347.45 4449.26 1347.45 Q4452.76 1347.45 4454.81 1345.61 Q4456.86 1343.76 4456.86 1340.6 Q4456.86 1337.44 4454.81 1335.6 Q4452.76 1333.76 4449.26 1333.76 Q4447.62 1333.76 4445.98 1334.12 Q4444.36 1334.49 4442.66 1335.26 L4442.66 1320.07 Z" fill="#000000" fill-rule="nonzero" fill-opacity="1" /><path clip-path="url(#clip510)" d="M2408.51 1423.15 L2407.37 1417.14 Q2406.19 1410.97 2401.56 1410.97 Q2398.07 1410.97 2396.48 1413.83 Q2394.48 1417.42 2394.48 1422.16 Q2394.48 1427.89 2396.43 1430.63 Q2398.41 1433.41 2401.56 1433.41 Q2405.05 1433.41 2406.92 1427.87 L2408.51 1423.15 M2411.19 1415.18 L2413.77 1407.55 L2418.04 1407.55 L2412.7 1423.36 L2413.75 1429.06 Q2413.98 1430.34 2414.89 1431.41 Q2415.96 1432.66 2416.79 1432.66 L2419.09 1432.66 L2419.09 1436.72 L2416.22 1436.72 Q2413.77 1436.72 2411.59 1434.53 Q2410.52 1433.44 2410.07 1431.15 Q2408.88 1434.04 2406.43 1436.3 Q2405.28 1437.37 2401.56 1437.37 Q2395.44 1437.37 2392.47 1433.41 Q2389.42 1429.33 2389.42 1422.16 Q2389.42 1414.51 2392.73 1410.91 Q2396.4 1406.9 2401.56 1406.9 Q2409.66 1406.9 2411.19 1415.18 Z" fill="#000000" fill-rule="nonzero" fill-opacity="1" /><polyline clip-path="url(#clip510)" style="stroke:#000000; stroke-linecap:round; stroke-linejoin:round; stroke-width:4; stroke-opacity:1; fill:none" points="255.753,1275.71 255.753,90.6026 "/>
<polyline clip-path="url(#clip510)" style="stroke:#000000; stroke-linecap:round; stroke-linejoin:round; stroke-width:4; stroke-opacity:1; fill:none" points="255.753,1203.54 274.651,1203.54 "/>
<polyline clip-path="url(#clip510)" style="stroke:#000000; stroke-linecap:round; stroke-linejoin:round; stroke-width:4; stroke-opacity:1; fill:none" points="255.753,991.927 274.651,991.927 "/>
<polyline clip-path="url(#clip510)" style="stroke:#000000; stroke-linecap:round; stroke-linejoin:round; stroke-width:4; stroke-opacity:1; fill:none" points="255.753,780.314 274.651,780.314 "/>
<polyline clip-path="url(#clip510)" style="stroke:#000000; stroke-linecap:round; stroke-linejoin:round; stroke-width:4; stroke-opacity:1; fill:none" points="255.753,568.701 274.651,568.701 "/>
<polyline clip-path="url(#clip510)" style="stroke:#000000; stroke-linecap:round; stroke-linejoin:round; stroke-width:4; stroke-opacity:1; fill:none" points="255.753,357.088 274.651,357.088 "/>
<polyline clip-path="url(#clip510)" style="stroke:#000000; stroke-linecap:round; stroke-linejoin:round; stroke-width:4; stroke-opacity:1; fill:none" points="255.753,145.475 274.651,145.475 "/>
<path clip-path="url(#clip510)" d="M84.0221 1191.11 Q80.8624 1191.11 79.2623 1194.23 Q77.6824 1197.33 77.6824 1203.57 Q77.6824 1209.79 79.2623 1212.91 Q80.8624 1216.01 84.0221 1216.01 Q87.202 1216.01 88.7819 1212.91 Q90.382 1209.79 90.382 1203.57 Q90.382 1197.33 88.7819 1194.23 Q87.202 1191.11 84.0221 1191.11 M84.0221 1187.87 Q89.106 1187.87 91.7796 1191.9 Q94.4734 1195.91 94.4734 1203.57 Q94.4734 1211.21 91.7796 1215.24 Q89.106 1219.25 84.0221 1219.25 Q78.9382 1219.25 76.2443 1215.24 Q73.5707 1211.21 73.5707 1203.57 Q73.5707 1195.91 76.2443 1191.9 Q78.9382 1187.87 84.0221 1187.87 Z" fill="#000000" fill-rule="nonzero" fill-opacity="1" /><path clip-path="url(#clip510)" d="M101.664 1213.52 L105.937 1213.52 L105.937 1218.66 L101.664 1218.66 L101.664 1213.52 Z" fill="#000000" fill-rule="nonzero" fill-opacity="1" /><path clip-path="url(#clip510)" d="M123.599 1191.11 Q120.44 1191.11 118.84 1194.23 Q117.26 1197.33 117.26 1203.57 Q117.26 1209.79 118.84 1212.91 Q120.44 1216.01 123.599 1216.01 Q126.779 1216.01 128.359 1212.91 Q129.959 1209.79 129.959 1203.57 Q129.959 1197.33 128.359 1194.23 Q126.779 1191.11 123.599 1191.11 M123.599 1187.87 Q128.683 1187.87 131.357 1191.9 Q134.051 1195.91 134.051 1203.57 Q134.051 1211.21 131.357 1215.24 Q128.683 1219.25 123.599 1219.25 Q118.516 1219.25 115.822 1215.24 Q113.148 1211.21 113.148 1203.57 Q113.148 1195.91 115.822 1191.9 Q118.516 1187.87 123.599 1187.87 Z" fill="#000000" fill-rule="nonzero" fill-opacity="1" /><path clip-path="url(#clip510)" d="M141.95 1215.22 L148.634 1215.22 L148.634 1192.15 L141.363 1193.61 L141.363 1189.88 L148.593 1188.42 L152.685 1188.42 L152.685 1215.22 L159.369 1215.22 L159.369 1218.66 L141.95 1218.66 L141.95 1215.22 Z" fill="#000000" fill-rule="nonzero" fill-opacity="1" /><path clip-path="url(#clip510)" d="M176.383 1204.3 Q173.466 1204.3 171.785 1205.86 Q170.124 1207.42 170.124 1210.15 Q170.124 1212.89 171.785 1214.45 Q173.466 1216.01 176.383 1216.01 Q179.299 1216.01 180.98 1214.45 Q182.662 1212.87 182.662 1210.15 Q182.662 1207.42 180.98 1205.86 Q179.32 1204.3 176.383 1204.3 M172.291 1202.56 Q169.658 1201.91 168.18 1200.11 Q166.721 1198.3 166.721 1195.71 Q166.721 1192.09 169.294 1189.98 Q171.886 1187.87 176.383 1187.87 Q180.899 1187.87 183.472 1189.98 Q186.044 1192.09 186.044 1195.71 Q186.044 1198.3 184.566 1200.11 Q183.107 1201.91 180.494 1202.56 Q183.452 1203.25 185.092 1205.25 Q186.753 1207.26 186.753 1210.15 Q186.753 1214.55 184.059 1216.9 Q181.386 1219.25 176.383 1219.25 Q171.38 1219.25 168.686 1216.9 Q166.012 1214.55 166.012 1210.15 Q166.012 1207.26 167.673 1205.25 Q169.334 1203.25 172.291 1202.56 M170.792 1196.1 Q170.792 1198.45 172.251 1199.76 Q173.729 1201.08 176.383 1201.08 Q179.016 1201.08 180.494 1199.76 Q181.993 1198.45 181.993 1196.1 Q181.993 1193.75 180.494 1192.43 Q179.016 1191.11 176.383 1191.11 Q173.729 1191.11 172.251 1192.43 Q170.792 1193.75 170.792 1196.1 Z" fill="#000000" fill-rule="nonzero" fill-opacity="1" /><path clip-path="url(#clip510)" d="M84.1031 979.501 Q80.9434 979.501 79.3433 982.62 Q77.7634 985.719 77.7634 991.957 Q77.7634 998.175 79.3433 1001.29 Q80.9434 1004.39 84.1031 1004.39 Q87.2831 1004.39 88.8629 1001.29 Q90.463 998.175 90.463 991.957 Q90.463 985.719 88.8629 982.62 Q87.2831 979.501 84.1031 979.501 M84.1031 976.26 Q89.187 976.26 91.8606 980.291 Q94.5544 984.301 94.5544 991.957 Q94.5544 999.593 91.8606 1003.62 Q89.187 1007.63 84.1031 1007.63 Q79.0192 1007.63 76.3254 1003.62 Q73.6518 999.593 73.6518 991.957 Q73.6518 984.301 76.3254 980.291 Q79.0192 976.26 84.1031 976.26 Z" fill="#000000" fill-rule="nonzero" fill-opacity="1" /><path clip-path="url(#clip510)" d="M101.745 1001.9 L106.018 1001.9 L106.018 1007.05 L101.745 1007.05 L101.745 1001.9 Z" fill="#000000" fill-rule="nonzero" fill-opacity="1" /><path clip-path="url(#clip510)" d="M123.68 979.501 Q120.521 979.501 118.921 982.62 Q117.341 985.719 117.341 991.957 Q117.341 998.175 118.921 1001.29 Q120.521 1004.39 123.68 1004.39 Q126.86 1004.39 128.44 1001.29 Q130.04 998.175 130.04 991.957 Q130.04 985.719 128.44 982.62 Q126.86 979.501 123.68 979.501 M123.68 976.26 Q128.764 976.26 131.438 980.291 Q134.132 984.301 134.132 991.957 Q134.132 999.593 131.438 1003.62 Q128.764 1007.63 123.68 1007.63 Q118.597 1007.63 115.903 1003.62 Q113.229 999.593 113.229 991.957 Q113.229 984.301 115.903 980.291 Q118.597 976.26 123.68 976.26 Z" fill="#000000" fill-rule="nonzero" fill-opacity="1" /><path clip-path="url(#clip510)" d="M142.031 1003.6 L148.715 1003.6 L148.715 980.534 L141.444 981.992 L141.444 978.265 L148.675 976.807 L152.766 976.807 L152.766 1003.6 L159.45 1003.6 L159.45 1007.05 L142.031 1007.05 L142.031 1003.6 Z" fill="#000000" fill-rule="nonzero" fill-opacity="1" /><path clip-path="url(#clip510)" d="M167.835 1006.42 L167.835 1002.69 Q169.375 1003.42 170.954 1003.81 Q172.534 1004.19 174.053 1004.19 Q178.104 1004.19 180.231 1001.48 Q182.378 998.743 182.682 993.193 Q181.507 994.935 179.704 995.866 Q177.902 996.798 175.714 996.798 Q171.177 996.798 168.524 994.064 Q165.891 991.309 165.891 986.549 Q165.891 981.891 168.645 979.075 Q171.4 976.26 175.978 976.26 Q181.224 976.26 183.978 980.291 Q186.753 984.301 186.753 991.957 Q186.753 999.107 183.35 1003.38 Q179.968 1007.63 174.236 1007.63 Q172.696 1007.63 171.117 1007.33 Q169.537 1007.03 167.835 1006.42 M175.978 993.598 Q178.732 993.598 180.332 991.714 Q181.953 989.831 181.953 986.549 Q181.953 983.288 180.332 981.405 Q178.732 979.501 175.978 979.501 Q173.223 979.501 171.603 981.405 Q170.003 983.288 170.003 986.549 Q170.003 989.831 171.603 991.714 Q173.223 993.598 175.978 993.598 Z" fill="#000000" fill-rule="nonzero" fill-opacity="1" /><path clip-path="url(#clip510)" d="M83.9411 767.888 Q80.7814 767.888 79.1812 771.007 Q77.6014 774.106 77.6014 780.344 Q77.6014 786.562 79.1812 789.682 Q80.7814 792.781 83.9411 792.781 Q87.121 792.781 88.7009 789.682 Q90.301 786.562 90.301 780.344 Q90.301 774.106 88.7009 771.007 Q87.121 767.888 83.9411 767.888 M83.9411 764.647 Q89.0249 764.647 91.6985 768.678 Q94.3924 772.688 94.3924 780.344 Q94.3924 787.98 91.6985 792.011 Q89.0249 796.021 83.9411 796.021 Q78.8572 796.021 76.1633 792.011 Q73.4897 787.98 73.4897 780.344 Q73.4897 772.688 76.1633 768.678 Q78.8572 764.647 83.9411 764.647 Z" fill="#000000" fill-rule="nonzero" fill-opacity="1" /><path clip-path="url(#clip510)" d="M101.583 790.289 L105.856 790.289 L105.856 795.434 L101.583 795.434 L101.583 790.289 Z" fill="#000000" fill-rule="nonzero" fill-opacity="1" /><path clip-path="url(#clip510)" d="M123.518 767.888 Q120.359 767.888 118.759 771.007 Q117.179 774.106 117.179 780.344 Q117.179 786.562 118.759 789.682 Q120.359 792.781 123.518 792.781 Q126.698 792.781 128.278 789.682 Q129.878 786.562 129.878 780.344 Q129.878 774.106 128.278 771.007 Q126.698 767.888 123.518 767.888 M123.518 764.647 Q128.602 764.647 131.276 768.678 Q133.97 772.688 133.97 780.344 Q133.97 787.98 131.276 792.011 Q128.602 796.021 123.518 796.021 Q118.435 796.021 115.741 792.011 Q113.067 787.98 113.067 780.344 Q113.067 772.688 115.741 768.678 Q118.435 764.647 123.518 764.647 Z" fill="#000000" fill-rule="nonzero" fill-opacity="1" /><path clip-path="url(#clip510)" d="M144.684 791.991 L158.964 791.991 L158.964 795.434 L139.763 795.434 L139.763 791.991 Q142.092 789.58 146.102 785.529 Q150.133 781.458 151.166 780.283 Q153.13 778.076 153.9 776.557 Q154.69 775.017 154.69 773.539 Q154.69 771.128 152.989 769.609 Q151.308 768.09 148.593 768.09 Q146.669 768.09 144.522 768.759 Q142.396 769.427 139.965 770.784 L139.965 766.652 Q142.436 765.66 144.583 765.153 Q146.73 764.647 148.512 764.647 Q153.212 764.647 156.007 766.997 Q158.802 769.346 158.802 773.275 Q158.802 775.139 158.093 776.82 Q157.404 778.481 155.561 780.749 Q155.055 781.337 152.341 784.152 Q149.626 786.947 144.684 791.991 Z" fill="#000000" fill-rule="nonzero" fill-opacity="1" /><path clip-path="url(#clip510)" d="M176.302 767.888 Q173.142 767.888 171.542 771.007 Q169.962 774.106 169.962 780.344 Q169.962 786.562 171.542 789.682 Q173.142 792.781 176.302 792.781 Q179.482 792.781 181.061 789.682 Q182.662 786.562 182.662 780.344 Q182.662 774.106 181.061 771.007 Q179.482 767.888 176.302 767.888 M176.302 764.647 Q181.386 764.647 184.059 768.678 Q186.753 772.688 186.753 780.344 Q186.753 787.98 184.059 792.011 Q181.386 796.021 176.302 796.021 Q171.218 796.021 168.524 792.011 Q165.85 787.98 165.85 780.344 Q165.85 772.688 168.524 768.678 Q171.218 764.647 176.302 764.647 Z" fill="#000000" fill-rule="nonzero" fill-opacity="1" /><path clip-path="url(#clip510)" d="M85.0145 556.275 Q81.8548 556.275 80.2547 559.394 Q78.6749 562.493 78.6749 568.731 Q78.6749 574.949 80.2547 578.069 Q81.8548 581.168 85.0145 581.168 Q88.1945 581.168 89.7744 578.069 Q91.3745 574.949 91.3745 568.731 Q91.3745 562.493 89.7744 559.394 Q88.1945 556.275 85.0145 556.275 M85.0145 553.034 Q90.0984 553.034 92.772 557.065 Q95.4659 561.075 95.4659 568.731 Q95.4659 576.367 92.772 580.398 Q90.0984 584.408 85.0145 584.408 Q79.9307 584.408 77.2368 580.398 Q74.5632 576.367 74.5632 568.731 Q74.5632 561.075 77.2368 557.065 Q79.9307 553.034 85.0145 553.034 Z" fill="#000000" fill-rule="nonzero" fill-opacity="1" /><path clip-path="url(#clip510)" d="M102.656 578.676 L106.93 578.676 L106.93 583.821 L102.656 583.821 L102.656 578.676 Z" fill="#000000" fill-rule="nonzero" fill-opacity="1" /><path clip-path="url(#clip510)" d="M124.592 556.275 Q121.432 556.275 119.832 559.394 Q118.252 562.493 118.252 568.731 Q118.252 574.949 119.832 578.069 Q121.432 581.168 124.592 581.168 Q127.772 581.168 129.352 578.069 Q130.952 574.949 130.952 568.731 Q130.952 562.493 129.352 559.394 Q127.772 556.275 124.592 556.275 M124.592 553.034 Q129.676 553.034 132.349 557.065 Q135.043 561.075 135.043 568.731 Q135.043 576.367 132.349 580.398 Q129.676 584.408 124.592 584.408 Q119.508 584.408 116.814 580.398 Q114.141 576.367 114.141 568.731 Q114.141 561.075 116.814 557.065 Q119.508 553.034 124.592 553.034 Z" fill="#000000" fill-rule="nonzero" fill-opacity="1" /><path clip-path="url(#clip510)" d="M145.758 580.378 L160.037 580.378 L160.037 583.821 L140.836 583.821 L140.836 580.378 Q143.165 577.967 147.176 573.916 Q151.206 569.845 152.239 568.67 Q154.204 566.463 154.974 564.944 Q155.764 563.404 155.764 561.926 Q155.764 559.515 154.062 557.996 Q152.381 556.477 149.667 556.477 Q147.743 556.477 145.596 557.146 Q143.469 557.814 141.039 559.171 L141.039 555.039 Q143.51 554.047 145.657 553.54 Q147.804 553.034 149.586 553.034 Q154.285 553.034 157.08 555.384 Q159.875 557.733 159.875 561.662 Q159.875 563.526 159.166 565.207 Q158.478 566.868 156.635 569.136 Q156.128 569.724 153.414 572.539 Q150.7 575.334 145.758 580.378 Z" fill="#000000" fill-rule="nonzero" fill-opacity="1" /><path clip-path="url(#clip510)" d="M169.334 580.378 L176.018 580.378 L176.018 557.308 L168.747 558.766 L168.747 555.039 L175.978 553.581 L180.069 553.581 L180.069 580.378 L186.753 580.378 L186.753 583.821 L169.334 583.821 L169.334 580.378 Z" fill="#000000" fill-rule="nonzero" fill-opacity="1" /><path clip-path="url(#clip510)" d="M85.3386 344.662 Q82.1789 344.662 80.5788 347.781 Q78.999 350.88 78.999 357.118 Q78.999 363.336 80.5788 366.456 Q82.1789 369.555 85.3386 369.555 Q88.5186 369.555 90.0984 366.456 Q91.6985 363.336 91.6985 357.118 Q91.6985 350.88 90.0984 347.781 Q88.5186 344.662 85.3386 344.662 M85.3386 341.421 Q90.4225 341.421 93.0961 345.452 Q95.79 349.462 95.79 357.118 Q95.79 364.754 93.0961 368.785 Q90.4225 372.795 85.3386 372.795 Q80.2547 372.795 77.5609 368.785 Q74.8873 364.754 74.8873 357.118 Q74.8873 349.462 77.5609 345.452 Q80.2547 341.421 85.3386 341.421 Z" fill="#000000" fill-rule="nonzero" fill-opacity="1" /><path clip-path="url(#clip510)" d="M102.98 367.063 L107.254 367.063 L107.254 372.208 L102.98 372.208 L102.98 367.063 Z" fill="#000000" fill-rule="nonzero" fill-opacity="1" /><path clip-path="url(#clip510)" d="M124.916 344.662 Q121.756 344.662 120.156 347.781 Q118.576 350.88 118.576 357.118 Q118.576 363.336 120.156 366.456 Q121.756 369.555 124.916 369.555 Q128.096 369.555 129.676 366.456 Q131.276 363.336 131.276 357.118 Q131.276 350.88 129.676 347.781 Q128.096 344.662 124.916 344.662 M124.916 341.421 Q130 341.421 132.673 345.452 Q135.367 349.462 135.367 357.118 Q135.367 364.754 132.673 368.785 Q130 372.795 124.916 372.795 Q119.832 372.795 117.138 368.785 Q114.465 364.754 114.465 357.118 Q114.465 349.462 117.138 345.452 Q119.832 341.421 124.916 341.421 Z" fill="#000000" fill-rule="nonzero" fill-opacity="1" /><path clip-path="url(#clip510)" d="M146.082 368.765 L160.361 368.765 L160.361 372.208 L141.16 372.208 L141.16 368.765 Q143.489 366.354 147.5 362.303 Q151.53 358.232 152.563 357.057 Q154.528 354.85 155.298 353.331 Q156.088 351.791 156.088 350.313 Q156.088 347.902 154.386 346.383 Q152.705 344.864 149.991 344.864 Q148.067 344.864 145.92 345.533 Q143.793 346.201 141.363 347.558 L141.363 343.426 Q143.834 342.434 145.981 341.927 Q148.128 341.421 149.91 341.421 Q154.609 341.421 157.404 343.771 Q160.199 346.12 160.199 350.049 Q160.199 351.913 159.49 353.594 Q158.802 355.255 156.959 357.523 Q156.452 358.111 153.738 360.926 Q151.024 363.721 146.082 368.765 Z" fill="#000000" fill-rule="nonzero" fill-opacity="1" /><path clip-path="url(#clip510)" d="M172.474 368.765 L186.753 368.765 L186.753 372.208 L167.552 372.208 L167.552 368.765 Q169.881 366.354 173.891 362.303 Q177.922 358.232 178.955 357.057 Q180.92 354.85 181.689 353.331 Q182.479 351.791 182.479 350.313 Q182.479 347.902 180.778 346.383 Q179.097 344.864 176.383 344.864 Q174.459 344.864 172.312 345.533 Q170.185 346.201 167.754 347.558 L167.754 343.426 Q170.225 342.434 172.372 341.927 Q174.519 341.421 176.302 341.421 Q181.001 341.421 183.796 343.771 Q186.591 346.12 186.591 350.049 Q186.591 351.913 185.882 353.594 Q185.193 355.255 183.35 357.523 Q182.844 358.111 180.13 360.926 Q177.416 363.721 172.474 368.765 Z" fill="#000000" fill-rule="nonzero" fill-opacity="1" /><path clip-path="url(#clip510)" d="M84.5082 133.049 Q81.3485 133.049 79.7484 136.168 Q78.1685 139.267 78.1685 145.505 Q78.1685 151.723 79.7484 154.843 Q81.3485 157.942 84.5082 157.942 Q87.6881 157.942 89.268 154.843 Q90.8681 151.723 90.8681 145.505 Q90.8681 139.267 89.268 136.168 Q87.6881 133.049 84.5082 133.049 M84.5082 129.808 Q89.5921 129.808 92.2657 133.839 Q94.9595 137.849 94.9595 145.505 Q94.9595 153.141 92.2657 157.172 Q89.5921 161.182 84.5082 161.182 Q79.4243 161.182 76.7304 157.172 Q74.0568 153.141 74.0568 145.505 Q74.0568 137.849 76.7304 133.839 Q79.4243 129.808 84.5082 129.808 Z" fill="#000000" fill-rule="nonzero" fill-opacity="1" /><path clip-path="url(#clip510)" d="M102.15 155.45 L106.424 155.45 L106.424 160.595 L102.15 160.595 L102.15 155.45 Z" fill="#000000" fill-rule="nonzero" fill-opacity="1" /><path clip-path="url(#clip510)" d="M124.086 133.049 Q120.926 133.049 119.326 136.168 Q117.746 139.267 117.746 145.505 Q117.746 151.723 119.326 154.843 Q120.926 157.942 124.086 157.942 Q127.265 157.942 128.845 154.843 Q130.445 151.723 130.445 145.505 Q130.445 139.267 128.845 136.168 Q127.265 133.049 124.086 133.049 M124.086 129.808 Q129.169 129.808 131.843 133.839 Q134.537 137.849 134.537 145.505 Q134.537 153.141 131.843 157.172 Q129.169 161.182 124.086 161.182 Q119.002 161.182 116.308 157.172 Q113.634 153.141 113.634 145.505 Q113.634 137.849 116.308 133.839 Q119.002 129.808 124.086 129.808 Z" fill="#000000" fill-rule="nonzero" fill-opacity="1" /><path clip-path="url(#clip510)" d="M145.251 157.152 L159.531 157.152 L159.531 160.595 L140.33 160.595 L140.33 157.152 Q142.659 154.741 146.669 150.69 Q150.7 146.619 151.733 145.444 Q153.698 143.237 154.467 141.718 Q155.257 140.178 155.257 138.7 Q155.257 136.289 153.556 134.77 Q151.875 133.251 149.161 133.251 Q147.236 133.251 145.089 133.92 Q142.963 134.588 140.532 135.945 L140.532 131.813 Q143.003 130.821 145.15 130.314 Q147.297 129.808 149.08 129.808 Q153.779 129.808 156.574 132.158 Q159.369 134.507 159.369 138.436 Q159.369 140.3 158.66 141.981 Q157.971 143.642 156.128 145.91 Q155.622 146.498 152.908 149.313 Q150.194 152.108 145.251 157.152 Z" fill="#000000" fill-rule="nonzero" fill-opacity="1" /><path clip-path="url(#clip510)" d="M180.515 144.29 Q183.452 144.918 185.092 146.903 Q186.753 148.888 186.753 151.804 Q186.753 156.281 183.674 158.731 Q180.596 161.182 174.924 161.182 Q173.02 161.182 170.995 160.797 Q168.99 160.433 166.843 159.683 L166.843 155.734 Q168.544 156.726 170.57 157.233 Q172.595 157.739 174.803 157.739 Q178.651 157.739 180.656 156.22 Q182.682 154.701 182.682 151.804 Q182.682 149.131 180.798 147.632 Q178.935 146.113 175.593 146.113 L172.068 146.113 L172.068 142.751 L175.755 142.751 Q178.773 142.751 180.373 141.556 Q181.973 140.34 181.973 138.072 Q181.973 135.743 180.312 134.507 Q178.671 133.251 175.593 133.251 Q173.912 133.251 171.987 133.616 Q170.063 133.98 167.754 134.75 L167.754 131.104 Q170.084 130.456 172.109 130.132 Q174.155 129.808 175.957 129.808 Q180.616 129.808 183.33 131.935 Q186.044 134.041 186.044 137.646 Q186.044 140.158 184.606 141.9 Q183.168 143.622 180.515 144.29 Z" fill="#000000" fill-rule="nonzero" fill-opacity="1" /><path clip-path="url(#clip510)" d="M-46.0543 735.614 L-46.0543 727.776 L-19.5961 717.854 L-46.0543 707.88 L-46.0543 700.042 L-7.17428 700.042 L-7.17428 705.172 L-41.3147 705.172 L-14.6482 715.198 L-14.6482 720.484 L-41.3147 730.51 L-7.17428 730.51 L-7.17428 735.614 L-46.0543 735.614 Z" fill="#000000" fill-rule="nonzero" fill-opacity="1" /><path clip-path="url(#clip510)" d="M-44.7782 666.292 L-39.6481 666.292 Q-41.0803 669.287 -41.7835 671.943 Q-42.4866 674.599 -42.4866 677.073 Q-42.4866 681.37 -40.8199 683.714 Q-39.1533 686.031 -36.0804 686.031 Q-33.5023 686.031 -32.1741 684.495 Q-30.8721 682.932 -30.0648 678.61 L-29.4137 675.432 Q-28.294 669.547 -25.4554 666.761 Q-22.6429 663.948 -17.9034 663.948 Q-12.2524 663.948 -9.33572 667.75 Q-6.41907 671.526 -6.41907 678.844 Q-6.41907 681.604 -7.04407 684.729 Q-7.66907 687.828 -8.89302 691.162 L-14.3097 691.162 Q-12.5128 687.958 -11.6013 684.886 Q-10.6899 681.813 -10.6899 678.844 Q-10.6899 674.339 -12.4607 671.891 Q-14.2315 669.443 -17.5128 669.443 Q-20.3773 669.443 -21.9919 671.214 Q-23.6065 672.959 -24.4138 676.969 L-25.0388 680.172 Q-26.2106 686.057 -28.7106 688.688 Q-31.2106 691.318 -35.6637 691.318 Q-40.8199 691.318 -43.7887 687.698 Q-46.7574 684.052 -46.7574 677.672 Q-46.7574 674.938 -46.2626 672.099 Q-45.7678 669.261 -44.7782 666.292 Z" fill="#000000" fill-rule="nonzero" fill-opacity="1" /><path clip-path="url(#clip510)" d="M-46.0543 655.745 L-46.0543 631.162 L-41.6272 631.162 L-41.6272 650.485 L-30.1169 650.485 L-30.1169 631.969 L-25.6898 631.969 L-25.6898 650.485 L-11.6013 650.485 L-11.6013 630.693 L-7.17428 630.693 L-7.17428 655.745 L-46.0543 655.745 Z" fill="#000000" fill-rule="nonzero" fill-opacity="1" /><path clip-path="url(#clip510)" d="M1488.45 12.096 L1499.46 12.096 L1526.28 62.6918 L1526.28 12.096 L1534.22 12.096 L1534.22 72.576 L1523.2 72.576 L1496.39 21.9802 L1496.39 72.576 L1488.45 72.576 L1488.45 12.096 Z" fill="#000000" fill-rule="nonzero" fill-opacity="1" /><path clip-path="url(#clip510)" d="M1567.76 32.4315 Q1561.77 32.4315 1558.28 37.1306 Q1554.8 41.7891 1554.8 49.9314 Q1554.8 58.0738 1558.24 62.7728 Q1561.73 67.4314 1567.76 67.4314 Q1573.72 67.4314 1577.2 62.7323 Q1580.69 58.0333 1580.69 49.9314 Q1580.69 41.8701 1577.2 37.1711 Q1573.72 32.4315 1567.76 32.4315 M1567.76 26.1121 Q1577.49 26.1121 1583.03 32.4315 Q1588.58 38.7509 1588.58 49.9314 Q1588.58 61.0714 1583.03 67.4314 Q1577.49 73.7508 1567.76 73.7508 Q1558 73.7508 1552.45 67.4314 Q1546.94 61.0714 1546.94 49.9314 Q1546.94 38.7509 1552.45 32.4315 Q1558 26.1121 1567.76 26.1121 Z" fill="#000000" fill-rule="nonzero" fill-opacity="1" /><path clip-path="url(#clip510)" d="M1627.23 34.1734 Q1625.97 33.4443 1624.48 33.1202 Q1623.02 32.7556 1621.23 32.7556 Q1614.92 32.7556 1611.51 36.8875 Q1608.15 40.9789 1608.15 48.6757 L1608.15 72.576 L1600.66 72.576 L1600.66 27.2059 L1608.15 27.2059 L1608.15 34.2544 Q1610.5 30.1225 1614.27 28.1376 Q1618.03 26.1121 1623.42 26.1121 Q1624.19 26.1121 1625.12 26.2337 Q1626.06 26.3147 1627.19 26.5172 L1627.23 34.1734 Z" fill="#000000" fill-rule="nonzero" fill-opacity="1" /><path clip-path="url(#clip510)" d="M1668.91 35.9153 Q1671.71 30.8922 1675.6 28.5022 Q1679.49 26.1121 1684.75 26.1121 Q1691.84 26.1121 1695.69 31.0947 Q1699.54 36.0368 1699.54 45.1919 L1699.54 72.576 L1692.04 72.576 L1692.04 45.4349 Q1692.04 38.913 1689.74 35.7533 Q1687.43 32.5936 1682.69 32.5936 Q1676.89 32.5936 1673.53 36.4419 Q1670.17 40.2903 1670.17 46.9338 L1670.17 72.576 L1662.68 72.576 L1662.68 45.4349 Q1662.68 38.8725 1660.37 35.7533 Q1658.06 32.5936 1653.24 32.5936 Q1647.53 32.5936 1644.16 36.4824 Q1640.8 40.3308 1640.8 46.9338 L1640.8 72.576 L1633.31 72.576 L1633.31 27.2059 L1640.8 27.2059 L1640.8 34.2544 Q1643.35 30.082 1646.92 28.0971 Q1650.48 26.1121 1655.38 26.1121 Q1660.33 26.1121 1663.77 28.6237 Q1667.25 31.1352 1668.91 35.9153 Z" fill="#000000" fill-rule="nonzero" fill-opacity="1" /><path clip-path="url(#clip510)" d="M1735.02 49.7694 Q1725.99 49.7694 1722.51 51.8354 Q1719.02 53.9013 1719.02 58.8839 Q1719.02 62.8538 1721.62 65.2034 Q1724.25 67.5124 1728.75 67.5124 Q1734.94 67.5124 1738.67 63.1374 Q1742.44 58.7219 1742.44 51.4303 L1742.44 49.7694 L1735.02 49.7694 M1749.89 46.6907 L1749.89 72.576 L1742.44 72.576 L1742.44 65.6895 Q1739.89 69.8214 1736.08 71.8063 Q1732.27 73.7508 1726.76 73.7508 Q1719.79 73.7508 1715.66 69.8619 Q1711.57 65.9325 1711.57 59.3701 Q1711.57 51.7138 1716.67 47.825 Q1721.82 43.9361 1731.99 43.9361 L1742.44 43.9361 L1742.44 43.2069 Q1742.44 38.0623 1739.04 35.2672 Q1735.67 32.4315 1729.56 32.4315 Q1725.67 32.4315 1721.98 33.3632 Q1718.29 34.295 1714.89 36.1584 L1714.89 29.2718 Q1718.98 27.692 1722.83 26.9223 Q1726.68 26.1121 1730.33 26.1121 Q1740.17 26.1121 1745.03 31.2163 Q1749.89 36.3204 1749.89 46.6907 Z" fill="#000000" fill-rule="nonzero" fill-opacity="1" /><path clip-path="url(#clip510)" d="M1765.24 9.54393 L1772.7 9.54393 L1772.7 72.576 L1765.24 72.576 L1765.24 9.54393 Z" fill="#000000" fill-rule="nonzero" fill-opacity="1" /><path clip-path="url(#clip510)" d="M1788.29 27.2059 L1795.75 27.2059 L1795.75 72.576 L1788.29 72.576 L1788.29 27.2059 M1788.29 9.54393 L1795.75 9.54393 L1795.75 18.9825 L1788.29 18.9825 L1788.29 9.54393 Z" fill="#000000" fill-rule="nonzero" fill-opacity="1" /><path clip-path="url(#clip510)" d="M1808.1 27.2059 L1843.51 27.2059 L1843.51 34.0114 L1815.48 66.6212 L1843.51 66.6212 L1843.51 72.576 L1807.09 72.576 L1807.09 65.7705 L1835.12 33.1607 L1808.1 33.1607 L1808.1 27.2059 Z" fill="#000000" fill-rule="nonzero" fill-opacity="1" /><path clip-path="url(#clip510)" d="M1893.7 48.0275 L1893.7 51.6733 L1859.43 51.6733 Q1859.91 59.3701 1864.05 63.421 Q1868.22 67.4314 1875.63 67.4314 Q1879.93 67.4314 1883.94 66.3781 Q1887.99 65.3249 1891.96 63.2184 L1891.96 70.267 Q1887.95 71.9684 1883.73 72.8596 Q1879.52 73.7508 1875.19 73.7508 Q1864.33 73.7508 1857.97 67.4314 Q1851.65 61.1119 1851.65 50.3365 Q1851.65 39.1965 1857.65 32.6746 Q1863.68 26.1121 1873.89 26.1121 Q1883.04 26.1121 1888.35 32.0264 Q1893.7 37.9003 1893.7 48.0275 M1886.25 45.84 Q1886.16 39.7232 1882.8 36.0774 Q1879.48 32.4315 1873.97 32.4315 Q1867.73 32.4315 1863.97 35.9558 Q1860.24 39.4801 1859.67 45.8805 L1886.25 45.84 Z" fill="#000000" fill-rule="nonzero" fill-opacity="1" /><path clip-path="url(#clip510)" d="M1935.79 34.0924 L1935.79 9.54393 L1943.24 9.54393 L1943.24 72.576 L1935.79 72.576 L1935.79 65.7705 Q1933.44 69.8214 1929.83 71.8063 Q1926.27 73.7508 1921.24 73.7508 Q1913.02 73.7508 1907.84 67.1883 Q1902.69 60.6258 1902.69 49.9314 Q1902.69 39.2371 1907.84 32.6746 Q1913.02 26.1121 1921.24 26.1121 Q1926.27 26.1121 1929.83 28.0971 Q1933.44 30.0415 1935.79 34.0924 M1910.39 49.9314 Q1910.39 58.1548 1913.75 62.8538 Q1917.15 67.5124 1923.07 67.5124 Q1928.98 67.5124 1932.38 62.8538 Q1935.79 58.1548 1935.79 49.9314 Q1935.79 41.7081 1932.38 37.0496 Q1928.98 32.3505 1923.07 32.3505 Q1917.15 32.3505 1913.75 37.0496 Q1910.39 41.7081 1910.39 49.9314 Z" fill="#000000" fill-rule="nonzero" fill-opacity="1" /><path clip-path="url(#clip510)" d="M1985.29 12.096 L1997.48 12.096 L2012.92 53.2532 L2028.43 12.096 L2040.63 12.096 L2040.63 72.576 L2032.64 72.576 L2032.64 19.4686 L2017.05 60.9499 L2008.83 60.9499 L1993.23 19.4686 L1993.23 72.576 L1985.29 72.576 L1985.29 12.096 Z" fill="#000000" fill-rule="nonzero" fill-opacity="1" /><path clip-path="url(#clip510)" d="M2093.12 14.0809 L2093.12 22.0612 Q2088.47 19.8332 2084.33 18.7395 Q2080.2 17.6457 2076.35 17.6457 Q2069.67 17.6457 2066.02 20.2383 Q2062.42 22.8309 2062.42 27.611 Q2062.42 31.6214 2064.81 33.6873 Q2067.24 35.7128 2073.96 36.9686 L2078.91 37.9813 Q2088.06 39.7232 2092.4 44.1387 Q2096.77 48.5136 2096.77 55.8863 Q2096.77 64.6767 2090.86 69.2137 Q2084.98 73.7508 2073.6 73.7508 Q2069.31 73.7508 2064.44 72.7785 Q2059.62 71.8063 2054.44 69.9024 L2054.44 61.4765 Q2059.42 64.2716 2064.2 65.6895 Q2068.98 67.1073 2073.6 67.1073 Q2080.61 67.1073 2084.42 64.3527 Q2088.22 61.598 2088.22 56.4939 Q2088.22 52.0379 2085.47 49.5264 Q2082.75 47.0148 2076.52 45.759 L2071.53 44.7868 Q2062.38 42.9639 2058.29 39.075 Q2054.2 35.1862 2054.2 28.2591 Q2054.2 20.2383 2059.83 15.6203 Q2065.5 11.0023 2075.42 11.0023 Q2079.68 11.0023 2084.09 11.7719 Q2088.51 12.5416 2093.12 14.0809 Z" fill="#000000" fill-rule="nonzero" fill-opacity="1" /><path clip-path="url(#clip510)" d="M2109.53 12.096 L2147.77 12.096 L2147.77 18.9825 L2117.71 18.9825 L2117.71 36.8875 L2146.52 36.8875 L2146.52 43.7741 L2117.71 43.7741 L2117.71 65.6895 L2148.5 65.6895 L2148.5 72.576 L2109.53 72.576 L2109.53 12.096 Z" fill="#000000" fill-rule="nonzero" fill-opacity="1" /><path clip-path="url(#clip510)" d="M2205.58 32.4315 Q2199.58 32.4315 2196.1 37.1306 Q2192.61 41.7891 2192.61 49.9314 Q2192.61 58.0738 2196.06 62.7728 Q2199.54 67.4314 2205.58 67.4314 Q2211.53 67.4314 2215.02 62.7323 Q2218.5 58.0333 2218.5 49.9314 Q2218.5 41.8701 2215.02 37.1711 Q2211.53 32.4315 2205.58 32.4315 M2205.58 26.1121 Q2215.3 26.1121 2220.85 32.4315 Q2226.4 38.7509 2226.4 49.9314 Q2226.4 61.0714 2220.85 67.4314 Q2215.3 73.7508 2205.58 73.7508 Q2195.82 73.7508 2190.27 67.4314 Q2184.76 61.0714 2184.76 49.9314 Q2184.76 38.7509 2190.27 32.4315 Q2195.82 26.1121 2205.58 26.1121 Z" fill="#000000" fill-rule="nonzero" fill-opacity="1" /><path clip-path="url(#clip510)" d="M2276.47 45.1919 L2276.47 72.576 L2269.02 72.576 L2269.02 45.4349 Q2269.02 38.994 2266.5 35.7938 Q2263.99 32.5936 2258.97 32.5936 Q2252.93 32.5936 2249.45 36.4419 Q2245.97 40.2903 2245.97 46.9338 L2245.97 72.576 L2238.47 72.576 L2238.47 27.2059 L2245.97 27.2059 L2245.97 34.2544 Q2248.64 30.163 2252.24 28.1376 Q2255.89 26.1121 2260.63 26.1121 Q2268.45 26.1121 2272.46 30.9732 Q2276.47 35.7938 2276.47 45.1919 Z" fill="#000000" fill-rule="nonzero" fill-opacity="1" /><path clip-path="url(#clip510)" d="M2325.08 14.324 L2325.08 27.2059 L2340.43 27.2059 L2340.43 32.9987 L2325.08 32.9987 L2325.08 57.6282 Q2325.08 63.1779 2326.58 64.7578 Q2328.12 66.3376 2332.78 66.3376 L2340.43 66.3376 L2340.43 72.576 L2332.78 72.576 Q2324.15 72.576 2320.87 69.3758 Q2317.59 66.1351 2317.59 57.6282 L2317.59 32.9987 L2312.12 32.9987 L2312.12 27.2059 L2317.59 27.2059 L2317.59 14.324 L2325.08 14.324 Z" fill="#000000" fill-rule="nonzero" fill-opacity="1" /><path clip-path="url(#clip510)" d="M2376.53 34.1734 Q2375.27 33.4443 2373.77 33.1202 Q2372.31 32.7556 2370.53 32.7556 Q2364.21 32.7556 2360.81 36.8875 Q2357.45 40.9789 2357.45 48.6757 L2357.45 72.576 L2349.95 72.576 L2349.95 27.2059 L2357.45 27.2059 L2357.45 34.2544 Q2359.8 30.1225 2363.56 28.1376 Q2367.33 26.1121 2372.72 26.1121 Q2373.49 26.1121 2374.42 26.2337 Q2375.35 26.3147 2376.49 26.5172 L2376.53 34.1734 Z" fill="#000000" fill-rule="nonzero" fill-opacity="1" /><path clip-path="url(#clip510)" d="M2404.96 49.7694 Q2395.93 49.7694 2392.45 51.8354 Q2388.96 53.9013 2388.96 58.8839 Q2388.96 62.8538 2391.55 65.2034 Q2394.19 67.5124 2398.68 67.5124 Q2404.88 67.5124 2408.61 63.1374 Q2412.38 58.7219 2412.38 51.4303 L2412.38 49.7694 L2404.96 49.7694 M2419.83 46.6907 L2419.83 72.576 L2412.38 72.576 L2412.38 65.6895 Q2409.82 69.8214 2406.02 71.8063 Q2402.21 73.7508 2396.7 73.7508 Q2389.73 73.7508 2385.6 69.8619 Q2381.51 65.9325 2381.51 59.3701 Q2381.51 51.7138 2386.61 47.825 Q2391.76 43.9361 2401.93 43.9361 L2412.38 43.9361 L2412.38 43.2069 Q2412.38 38.0623 2408.97 35.2672 Q2405.61 32.4315 2399.49 32.4315 Q2395.61 32.4315 2391.92 33.3632 Q2388.23 34.295 2384.83 36.1584 L2384.83 29.2718 Q2388.92 27.692 2392.77 26.9223 Q2396.62 26.1121 2400.26 26.1121 Q2410.11 26.1121 2414.97 31.2163 Q2419.83 36.3204 2419.83 46.6907 Z" fill="#000000" fill-rule="nonzero" fill-opacity="1" /><path clip-path="url(#clip510)" d="M2435.18 27.2059 L2442.64 27.2059 L2442.64 72.576 L2435.18 72.576 L2435.18 27.2059 M2435.18 9.54393 L2442.64 9.54393 L2442.64 18.9825 L2435.18 18.9825 L2435.18 9.54393 Z" fill="#000000" fill-rule="nonzero" fill-opacity="1" /><path clip-path="url(#clip510)" d="M2495.95 45.1919 L2495.95 72.576 L2488.49 72.576 L2488.49 45.4349 Q2488.49 38.994 2485.98 35.7938 Q2483.47 32.5936 2478.45 32.5936 Q2472.41 32.5936 2468.93 36.4419 Q2465.44 40.2903 2465.44 46.9338 L2465.44 72.576 L2457.95 72.576 L2457.95 27.2059 L2465.44 27.2059 L2465.44 34.2544 Q2468.12 30.163 2471.72 28.1376 Q2475.37 26.1121 2480.11 26.1121 Q2487.93 26.1121 2491.94 30.9732 Q2495.95 35.7938 2495.95 45.1919 Z" fill="#000000" fill-rule="nonzero" fill-opacity="1" /><path clip-path="url(#clip510)" d="M2510.81 27.2059 L2518.27 27.2059 L2518.27 72.576 L2510.81 72.576 L2510.81 27.2059 M2510.81 9.54393 L2518.27 9.54393 L2518.27 18.9825 L2510.81 18.9825 L2510.81 9.54393 Z" fill="#000000" fill-rule="nonzero" fill-opacity="1" /><path clip-path="url(#clip510)" d="M2571.58 45.1919 L2571.58 72.576 L2564.12 72.576 L2564.12 45.4349 Q2564.12 38.994 2561.61 35.7938 Q2559.1 32.5936 2554.08 32.5936 Q2548.04 32.5936 2544.56 36.4419 Q2541.07 40.2903 2541.07 46.9338 L2541.07 72.576 L2533.58 72.576 L2533.58 27.2059 L2541.07 27.2059 L2541.07 34.2544 Q2543.75 30.163 2547.35 28.1376 Q2551 26.1121 2555.74 26.1121 Q2563.56 26.1121 2567.57 30.9732 Q2571.58 35.7938 2571.58 45.1919 Z" fill="#000000" fill-rule="nonzero" fill-opacity="1" /><path clip-path="url(#clip510)" d="M2616.3 49.3643 Q2616.3 41.2625 2612.94 36.8065 Q2609.62 32.3505 2603.58 32.3505 Q2597.58 32.3505 2594.22 36.8065 Q2590.9 41.2625 2590.9 49.3643 Q2590.9 57.4256 2594.22 61.8816 Q2597.58 66.3376 2603.58 66.3376 Q2609.62 66.3376 2612.94 61.8816 Q2616.3 57.4256 2616.3 49.3643 M2623.75 66.9452 Q2623.75 78.5308 2618.61 84.1616 Q2613.46 89.8329 2602.85 89.8329 Q2598.92 89.8329 2595.44 89.2252 Q2591.95 88.6581 2588.67 87.4428 L2588.67 80.1917 Q2591.95 81.9741 2595.15 82.8248 Q2598.35 83.6755 2601.68 83.6755 Q2609.01 83.6755 2612.65 79.8271 Q2616.3 76.0193 2616.3 68.282 L2616.3 64.5957 Q2613.99 68.6061 2610.38 70.5911 Q2606.78 72.576 2601.76 72.576 Q2593.41 72.576 2588.31 66.2161 Q2583.2 59.8562 2583.2 49.3643 Q2583.2 38.832 2588.31 32.472 Q2593.41 26.1121 2601.76 26.1121 Q2606.78 26.1121 2610.38 28.0971 Q2613.99 30.082 2616.3 34.0924 L2616.3 27.2059 L2623.75 27.2059 L2623.75 66.9452 Z" fill="#000000" fill-rule="nonzero" fill-opacity="1" /><path clip-path="url(#clip510)" d="M2686.1 49.7694 Q2677.06 49.7694 2673.58 51.8354 Q2670.1 53.9013 2670.1 58.8839 Q2670.1 62.8538 2672.69 65.2034 Q2675.32 67.5124 2679.82 67.5124 Q2686.02 67.5124 2689.74 63.1374 Q2693.51 58.7219 2693.51 51.4303 L2693.51 49.7694 L2686.1 49.7694 M2700.96 46.6907 L2700.96 72.576 L2693.51 72.576 L2693.51 65.6895 Q2690.96 69.8214 2687.15 71.8063 Q2683.34 73.7508 2677.83 73.7508 Q2670.86 73.7508 2666.73 69.8619 Q2662.64 65.9325 2662.64 59.3701 Q2662.64 51.7138 2667.75 47.825 Q2672.89 43.9361 2683.06 43.9361 L2693.51 43.9361 L2693.51 43.2069 Q2693.51 38.0623 2690.11 35.2672 Q2686.74 32.4315 2680.63 32.4315 Q2676.74 32.4315 2673.05 33.3632 Q2669.37 34.295 2665.96 36.1584 L2665.96 29.2718 Q2670.05 27.692 2673.9 26.9223 Q2677.75 26.1121 2681.4 26.1121 Q2691.24 26.1121 2696.1 31.2163 Q2700.96 36.3204 2700.96 46.6907 Z" fill="#000000" fill-rule="nonzero" fill-opacity="1" /><path clip-path="url(#clip510)" d="M2754.03 45.1919 L2754.03 72.576 L2746.58 72.576 L2746.58 45.4349 Q2746.58 38.994 2744.06 35.7938 Q2741.55 32.5936 2736.53 32.5936 Q2730.49 32.5936 2727.01 36.4419 Q2723.53 40.2903 2723.53 46.9338 L2723.53 72.576 L2716.03 72.576 L2716.03 27.2059 L2723.53 27.2059 L2723.53 34.2544 Q2726.2 30.163 2729.81 28.1376 Q2733.45 26.1121 2738.19 26.1121 Q2746.01 26.1121 2750.02 30.9732 Q2754.03 35.7938 2754.03 45.1919 Z" fill="#000000" fill-rule="nonzero" fill-opacity="1" /><path clip-path="url(#clip510)" d="M2798.75 34.0924 L2798.75 9.54393 L2806.21 9.54393 L2806.21 72.576 L2798.75 72.576 L2798.75 65.7705 Q2796.4 69.8214 2792.8 71.8063 Q2789.23 73.7508 2784.21 73.7508 Q2775.99 73.7508 2770.8 67.1883 Q2765.66 60.6258 2765.66 49.9314 Q2765.66 39.2371 2770.8 32.6746 Q2775.99 26.1121 2784.21 26.1121 Q2789.23 26.1121 2792.8 28.0971 Q2796.4 30.0415 2798.75 34.0924 M2773.35 49.9314 Q2773.35 58.1548 2776.71 62.8538 Q2780.12 67.5124 2786.03 67.5124 Q2791.95 67.5124 2795.35 62.8538 Q2798.75 58.1548 2798.75 49.9314 Q2798.75 41.7081 2795.35 37.0496 Q2791.95 32.3505 2786.03 32.3505 Q2780.12 32.3505 2776.71 37.0496 Q2773.35 41.7081 2773.35 49.9314 Z" fill="#000000" fill-rule="nonzero" fill-opacity="1" /><path clip-path="url(#clip510)" d="M2855.3 14.324 L2855.3 27.2059 L2870.66 27.2059 L2870.66 32.9987 L2855.3 32.9987 L2855.3 57.6282 Q2855.3 63.1779 2856.8 64.7578 Q2858.34 66.3376 2863 66.3376 L2870.66 66.3376 L2870.66 72.576 L2863 72.576 Q2854.37 72.576 2851.09 69.3758 Q2847.81 66.1351 2847.81 57.6282 L2847.81 32.9987 L2842.34 32.9987 L2842.34 27.2059 L2847.81 27.2059 L2847.81 14.324 L2855.3 14.324 Z" fill="#000000" fill-rule="nonzero" fill-opacity="1" /><path clip-path="url(#clip510)" d="M2919.27 48.0275 L2919.27 51.6733 L2885 51.6733 Q2885.48 59.3701 2889.61 63.421 Q2893.79 67.4314 2901.2 67.4314 Q2905.49 67.4314 2909.5 66.3781 Q2913.55 65.3249 2917.52 63.2184 L2917.52 70.267 Q2913.51 71.9684 2909.3 72.8596 Q2905.09 73.7508 2900.75 73.7508 Q2889.9 73.7508 2883.54 67.4314 Q2877.22 61.1119 2877.22 50.3365 Q2877.22 39.1965 2883.21 32.6746 Q2889.25 26.1121 2899.46 26.1121 Q2908.61 26.1121 2913.92 32.0264 Q2919.27 37.9003 2919.27 48.0275 M2911.81 45.84 Q2911.73 39.7232 2908.37 36.0774 Q2905.05 32.4315 2899.54 32.4315 Q2893.3 32.4315 2889.53 35.9558 Q2885.81 39.4801 2885.24 45.8805 L2911.81 45.84 Z" fill="#000000" fill-rule="nonzero" fill-opacity="1" /><path clip-path="url(#clip510)" d="M2960.42 28.5427 L2960.42 35.5912 Q2957.26 33.9709 2953.86 33.1607 Q2950.46 32.3505 2946.81 32.3505 Q2941.26 32.3505 2938.47 34.0519 Q2935.71 35.7533 2935.71 39.156 Q2935.71 41.7486 2937.7 43.2475 Q2939.68 44.7058 2945.68 46.0426 L2948.23 46.6097 Q2956.17 48.3111 2959.49 51.4303 Q2962.85 54.509 2962.85 60.0587 Q2962.85 66.3781 2957.83 70.0644 Q2952.85 73.7508 2944.1 73.7508 Q2940.45 73.7508 2936.48 73.0216 Q2932.55 72.3329 2928.18 70.9151 L2928.18 63.2184 Q2932.31 65.3654 2936.32 66.4591 Q2940.33 67.5124 2944.26 67.5124 Q2949.53 67.5124 2952.36 65.73 Q2955.2 63.9071 2955.2 60.6258 Q2955.2 57.5877 2953.13 55.9673 Q2951.11 54.3469 2944.18 52.8481 L2941.59 52.2405 Q2934.66 50.7821 2931.58 47.7845 Q2928.5 44.7463 2928.5 39.4801 Q2928.5 33.0797 2933.04 29.5959 Q2937.58 26.1121 2945.92 26.1121 Q2950.05 26.1121 2953.7 26.7198 Q2957.34 27.3274 2960.42 28.5427 Z" fill="#000000" fill-rule="nonzero" fill-opacity="1" /><path clip-path="url(#clip510)" d="M2982.1 14.324 L2982.1 27.2059 L2997.45 27.2059 L2997.45 32.9987 L2982.1 32.9987 L2982.1 57.6282 Q2982.1 63.1779 2983.59 64.7578 Q2985.13 66.3376 2989.79 66.3376 L2997.45 66.3376 L2997.45 72.576 L2989.79 72.576 Q2981.16 72.576 2977.88 69.3758 Q2974.6 66.1351 2974.6 57.6282 L2974.6 32.9987 L2969.13 32.9987 L2969.13 27.2059 L2974.6 27.2059 L2974.6 14.324 L2982.1 14.324 Z" fill="#000000" fill-rule="nonzero" fill-opacity="1" /><path clip-path="url(#clip510)" d="M3007.25 27.2059 L3014.71 27.2059 L3014.71 72.576 L3007.25 72.576 L3007.25 27.2059 M3007.25 9.54393 L3014.71 9.54393 L3014.71 18.9825 L3007.25 18.9825 L3007.25 9.54393 Z" fill="#000000" fill-rule="nonzero" fill-opacity="1" /><path clip-path="url(#clip510)" d="M3068.02 45.1919 L3068.02 72.576 L3060.56 72.576 L3060.56 45.4349 Q3060.56 38.994 3058.05 35.7938 Q3055.54 32.5936 3050.52 32.5936 Q3044.48 32.5936 3041 36.4419 Q3037.51 40.2903 3037.51 46.9338 L3037.51 72.576 L3030.02 72.576 L3030.02 27.2059 L3037.51 27.2059 L3037.51 34.2544 Q3040.19 30.163 3043.79 28.1376 Q3047.44 26.1121 3052.18 26.1121 Q3059.99 26.1121 3064 30.9732 Q3068.02 35.7938 3068.02 45.1919 Z" fill="#000000" fill-rule="nonzero" fill-opacity="1" /><path clip-path="url(#clip510)" d="M3112.74 49.3643 Q3112.74 41.2625 3109.38 36.8065 Q3106.05 32.3505 3100.02 32.3505 Q3094.02 32.3505 3090.66 36.8065 Q3087.34 41.2625 3087.34 49.3643 Q3087.34 57.4256 3090.66 61.8816 Q3094.02 66.3376 3100.02 66.3376 Q3106.05 66.3376 3109.38 61.8816 Q3112.74 57.4256 3112.74 49.3643 M3120.19 66.9452 Q3120.19 78.5308 3115.05 84.1616 Q3109.9 89.8329 3099.29 89.8329 Q3095.36 89.8329 3091.88 89.2252 Q3088.39 88.6581 3085.11 87.4428 L3085.11 80.1917 Q3088.39 81.9741 3091.59 82.8248 Q3094.79 83.6755 3098.11 83.6755 Q3105.45 83.6755 3109.09 79.8271 Q3112.74 76.0193 3112.74 68.282 L3112.74 64.5957 Q3110.43 68.6061 3106.82 70.5911 Q3103.22 72.576 3098.19 72.576 Q3089.85 72.576 3084.75 66.2161 Q3079.64 59.8562 3079.64 49.3643 Q3079.64 38.832 3084.75 32.472 Q3089.85 26.1121 3098.19 26.1121 Q3103.22 26.1121 3106.82 28.0971 Q3110.43 30.082 3112.74 34.0924 L3112.74 27.2059 L3120.19 27.2059 L3120.19 66.9452 Z" fill="#000000" fill-rule="nonzero" fill-opacity="1" /><path clip-path="url(#clip510)" d="M3190.84 28.5427 L3190.84 35.5912 Q3187.68 33.9709 3184.28 33.1607 Q3180.87 32.3505 3177.23 32.3505 Q3171.68 32.3505 3168.88 34.0519 Q3166.13 35.7533 3166.13 39.156 Q3166.13 41.7486 3168.11 43.2475 Q3170.1 44.7058 3176.09 46.0426 L3178.65 46.6097 Q3186.59 48.3111 3189.91 51.4303 Q3193.27 54.509 3193.27 60.0587 Q3193.27 66.3781 3188.25 70.0644 Q3183.26 73.7508 3174.51 73.7508 Q3170.87 73.7508 3166.9 73.0216 Q3162.97 72.3329 3158.59 70.9151 L3158.59 63.2184 Q3162.73 65.3654 3166.74 66.4591 Q3170.75 67.5124 3174.68 67.5124 Q3179.94 67.5124 3182.78 65.73 Q3185.61 63.9071 3185.61 60.6258 Q3185.61 57.5877 3183.55 55.9673 Q3181.52 54.3469 3174.59 52.8481 L3172 52.2405 Q3165.08 50.7821 3162 47.7845 Q3158.92 44.7463 3158.92 39.4801 Q3158.92 33.0797 3163.45 29.5959 Q3167.99 26.1121 3176.34 26.1121 Q3180.47 26.1121 3184.11 26.7198 Q3187.76 27.3274 3190.84 28.5427 Z" fill="#000000" fill-rule="nonzero" fill-opacity="1" /><path clip-path="url(#clip510)" d="M3243.95 48.0275 L3243.95 51.6733 L3209.68 51.6733 Q3210.16 59.3701 3214.29 63.421 Q3218.47 67.4314 3225.88 67.4314 Q3230.17 67.4314 3234.18 66.3781 Q3238.23 65.3249 3242.2 63.2184 L3242.2 70.267 Q3238.19 71.9684 3233.98 72.8596 Q3229.77 73.7508 3225.43 73.7508 Q3214.58 73.7508 3208.22 67.4314 Q3201.9 61.1119 3201.9 50.3365 Q3201.9 39.1965 3207.89 32.6746 Q3213.93 26.1121 3224.14 26.1121 Q3233.29 26.1121 3238.6 32.0264 Q3243.95 37.9003 3243.95 48.0275 M3236.49 45.84 Q3236.41 39.7232 3233.05 36.0774 Q3229.73 32.4315 3224.22 32.4315 Q3217.98 32.4315 3214.21 35.9558 Q3210.49 39.4801 3209.92 45.8805 L3236.49 45.84 Z" fill="#000000" fill-rule="nonzero" fill-opacity="1" /><path clip-path="url(#clip510)" d="M3263.55 14.324 L3263.55 27.2059 L3278.91 27.2059 L3278.91 32.9987 L3263.55 32.9987 L3263.55 57.6282 Q3263.55 63.1779 3265.05 64.7578 Q3266.59 66.3376 3271.25 66.3376 L3278.91 66.3376 L3278.91 72.576 L3271.25 72.576 Q3262.62 72.576 3259.34 69.3758 Q3256.06 66.1351 3256.06 57.6282 L3256.06 32.9987 L3250.59 32.9987 L3250.59 27.2059 L3256.06 27.2059 L3256.06 14.324 L3263.55 14.324 Z" fill="#000000" fill-rule="nonzero" fill-opacity="1" /><path clip-path="url(#clip510)" d="M3317.63 28.5427 L3317.63 35.5912 Q3314.47 33.9709 3311.07 33.1607 Q3307.67 32.3505 3304.02 32.3505 Q3298.47 32.3505 3295.68 34.0519 Q3292.92 35.7533 3292.92 39.156 Q3292.92 41.7486 3294.91 43.2475 Q3296.89 44.7058 3302.89 46.0426 L3305.44 46.6097 Q3313.38 48.3111 3316.7 51.4303 Q3320.06 54.509 3320.06 60.0587 Q3320.06 66.3781 3315.04 70.0644 Q3310.06 73.7508 3301.31 73.7508 Q3297.66 73.7508 3293.69 73.0216 Q3289.76 72.3329 3285.39 70.9151 L3285.39 63.2184 Q3289.52 65.3654 3293.53 66.4591 Q3297.54 67.5124 3301.47 67.5124 Q3306.74 67.5124 3309.57 65.73 Q3312.41 63.9071 3312.41 60.6258 Q3312.41 57.5877 3310.34 55.9673 Q3308.32 54.3469 3301.39 52.8481 L3298.8 52.2405 Q3291.87 50.7821 3288.79 47.7845 Q3285.71 44.7463 3285.71 39.4801 Q3285.71 33.0797 3290.25 29.5959 Q3294.78 26.1121 3303.13 26.1121 Q3307.26 26.1121 3310.91 26.7198 Q3314.55 27.3274 3317.63 28.5427 Z" fill="#000000" fill-rule="nonzero" fill-opacity="1" /><polyline clip-path="url(#clip512)" style="stroke:#009af9; stroke-linecap:round; stroke-linejoin:round; stroke-width:12; stroke-opacity:1; fill:none" points="377.366,124.201 458.442,172.803 539.517,220.197 620.593,266.387 701.668,311.376 782.744,355.169 863.819,397.769 944.895,439.179 1025.97,479.403 1107.05,518.444 1188.12,556.306 1269.2,592.993 1350.27,628.508 1431.35,662.855 1512.42,696.036 1593.5,728.056 1674.57,758.918 1755.65,788.626 1836.73,817.182 1917.8,844.591 1998.88,870.855 2079.95,895.978 2161.03,919.964 2242.1,942.815 2323.18,964.536 2404.25,985.129 2485.33,1004.6 2566.41,1022.95 2647.48,1040.18 2728.56,1056.29 2809.63,1071.3 2890.71,1085.2 2971.78,1097.99 3052.86,1109.68 3133.93,1120.27 3215.01,1129.77 3296.09,1138.18 3377.16,1145.5 3458.24,1151.73 3539.31,1156.89 3620.39,1160.96 3701.46,1163.96 3782.54,1165.88 3863.61,1166.74 3944.69,1166.53 4025.76,1165.25 4106.84,1162.92 4187.92,1159.53 4268.99,1155.08 4350.07,1149.59 4431.14,1143.04 "/>
<polyline clip-path="url(#clip512)" style="stroke:#e26f46; stroke-linecap:round; stroke-linejoin:round; stroke-width:12; stroke-opacity:1; fill:none" stroke-dasharray="48, 30" points="377.366,1242.16 458.442,1241.71 539.517,1240.33 620.593,1238.04 701.668,1234.83 782.744,1230.71 863.819,1225.68 944.895,1219.73 1025.97,1212.88 1107.05,1205.13 1188.12,1196.46 1269.2,1186.9 1350.27,1176.43 1431.35,1165.06 1512.42,1152.79 1593.5,1139.62 1674.57,1125.56 1755.65,1110.6 1836.73,1094.75 1917.8,1078 1998.88,1060.36 2079.95,1041.84 2161.03,1022.43 2242.1,1002.13 2323.18,980.942 2404.25,958.874 2485.33,935.924 2566.41,912.093 2647.48,887.383 2728.56,861.796 2809.63,835.331 2890.71,807.992 2971.78,779.779 3052.86,750.694 3133.93,720.738 3215.01,689.913 3296.09,658.22 3377.16,625.66 3458.24,592.235 3539.31,557.946 3620.39,522.794 3701.46,486.782 3782.54,449.909 3863.61,412.179 3944.69,373.591 4025.76,334.147 4106.84,293.85 4187.92,252.699 4268.99,210.697 4350.07,167.845 4431.14,124.143 "/>
<path clip-path="url(#clip510)" d="M3311.4 1142.36 L3958.78 1142.36 L3958.78 986.845 L3311.4 986.845  Z" fill="#ffffff" fill-rule="evenodd" fill-opacity="1"/>
<polyline clip-path="url(#clip510)" style="stroke:#000000; stroke-linecap:round; stroke-linejoin:round; stroke-width:4; stroke-opacity:1; fill:none" points="3311.4,1142.36 3958.78,1142.36 3958.78,986.845 3311.4,986.845 3311.4,1142.36 "/>
<polyline clip-path="url(#clip510)" style="stroke:#009af9; stroke-linecap:round; stroke-linejoin:round; stroke-width:12; stroke-opacity:1; fill:none" points="3359.14,1038.68 3645.61,1038.68 "/>
<path clip-path="url(#clip510)" d="M3693.36 1021.4 L3700.32 1021.4 L3709.14 1044.92 L3718.01 1021.4 L3724.98 1021.4 L3724.98 1055.96 L3720.42 1055.96 L3720.42 1025.62 L3711.5 1049.32 L3706.8 1049.32 L3697.89 1025.62 L3697.89 1055.96 L3693.36 1055.96 L3693.36 1021.4 Z" fill="#000000" fill-rule="nonzero" fill-opacity="1" /><path clip-path="url(#clip510)" d="M3754.98 1022.54 L3754.98 1027.1 Q3752.31 1025.83 3749.95 1025.2 Q3747.59 1024.58 3745.39 1024.58 Q3741.57 1024.58 3739.49 1026.06 Q3737.43 1027.54 3737.43 1030.27 Q3737.43 1032.56 3738.79 1033.74 Q3740.18 1034.9 3744.03 1035.62 L3746.85 1036.2 Q3752.08 1037.19 3754.56 1039.71 Q3757.06 1042.21 3757.06 1046.43 Q3757.06 1051.45 3753.68 1054.04 Q3750.32 1056.64 3743.82 1056.64 Q3741.36 1056.64 3738.59 1056.08 Q3735.83 1055.52 3732.87 1054.44 L3732.87 1049.62 Q3735.72 1051.22 3738.45 1052.03 Q3741.18 1052.84 3743.82 1052.84 Q3747.82 1052.84 3750 1051.27 Q3752.17 1049.69 3752.17 1046.77 Q3752.17 1044.23 3750.6 1042.79 Q3749.05 1041.36 3745.48 1040.64 L3742.64 1040.09 Q3737.41 1039.04 3735.07 1036.82 Q3732.73 1034.6 3732.73 1030.64 Q3732.73 1026.06 3735.95 1023.42 Q3739.19 1020.78 3744.86 1020.78 Q3747.29 1020.78 3749.81 1021.22 Q3752.34 1021.66 3754.98 1022.54 Z" fill="#000000" fill-rule="nonzero" fill-opacity="1" /><path clip-path="url(#clip510)" d="M3764.35 1021.4 L3786.2 1021.4 L3786.2 1025.34 L3769.03 1025.34 L3769.03 1035.57 L3785.48 1035.57 L3785.48 1039.51 L3769.03 1039.51 L3769.03 1052.03 L3786.62 1052.03 L3786.62 1055.96 L3764.35 1055.96 L3764.35 1021.4 Z" fill="#000000" fill-rule="nonzero" fill-opacity="1" /><path clip-path="url(#clip510)" d="M3813.4 1022.68 L3813.4 1030.04 L3822.17 1030.04 L3822.17 1033.35 L3813.4 1033.35 L3813.4 1047.42 Q3813.4 1050.59 3814.26 1051.5 Q3815.14 1052.4 3817.8 1052.4 L3822.17 1052.4 L3822.17 1055.96 L3817.8 1055.96 Q3812.87 1055.96 3810.99 1054.14 Q3809.12 1052.28 3809.12 1047.42 L3809.12 1033.35 L3805.99 1033.35 L3805.99 1030.04 L3809.12 1030.04 L3809.12 1022.68 L3813.4 1022.68 Z" fill="#000000" fill-rule="nonzero" fill-opacity="1" /><path clip-path="url(#clip510)" d="M3849.95 1041.94 L3849.95 1044.02 L3830.37 1044.02 Q3830.65 1048.42 3833.01 1050.73 Q3835.39 1053.02 3839.63 1053.02 Q3842.08 1053.02 3844.37 1052.42 Q3846.69 1051.82 3848.96 1050.62 L3848.96 1054.65 Q3846.66 1055.62 3844.26 1056.13 Q3841.85 1056.64 3839.37 1056.64 Q3833.17 1056.64 3829.54 1053.02 Q3825.92 1049.41 3825.92 1043.26 Q3825.92 1036.89 3829.35 1033.16 Q3832.8 1029.41 3838.63 1029.41 Q3843.86 1029.41 3846.9 1032.79 Q3849.95 1036.15 3849.95 1041.94 M3845.69 1040.69 Q3845.65 1037.19 3843.72 1035.11 Q3841.83 1033.02 3838.68 1033.02 Q3835.11 1033.02 3832.96 1035.04 Q3830.83 1037.05 3830.51 1040.71 L3845.69 1040.69 Z" fill="#000000" fill-rule="nonzero" fill-opacity="1" /><path clip-path="url(#clip510)" d="M3873.47 1030.8 L3873.47 1034.83 Q3871.66 1033.9 3869.72 1033.44 Q3867.78 1032.98 3865.69 1032.98 Q3862.52 1032.98 3860.92 1033.95 Q3859.35 1034.92 3859.35 1036.87 Q3859.35 1038.35 3860.48 1039.21 Q3861.62 1040.04 3865.04 1040.8 L3866.5 1041.13 Q3871.04 1042.1 3872.94 1043.88 Q3874.86 1045.64 3874.86 1048.81 Q3874.86 1052.42 3871.99 1054.53 Q3869.14 1056.64 3864.14 1056.64 Q3862.06 1056.64 3859.79 1056.22 Q3857.54 1055.83 3855.04 1055.02 L3855.04 1050.62 Q3857.41 1051.84 3859.7 1052.47 Q3861.99 1053.07 3864.23 1053.07 Q3867.24 1053.07 3868.86 1052.05 Q3870.48 1051.01 3870.48 1049.14 Q3870.48 1047.4 3869.3 1046.47 Q3868.15 1045.55 3864.19 1044.69 L3862.71 1044.34 Q3858.75 1043.51 3856.99 1041.8 Q3855.23 1040.06 3855.23 1037.05 Q3855.23 1033.4 3857.82 1031.4 Q3860.41 1029.41 3865.18 1029.41 Q3867.54 1029.41 3869.63 1029.76 Q3871.71 1030.11 3873.47 1030.8 Z" fill="#000000" fill-rule="nonzero" fill-opacity="1" /><path clip-path="url(#clip510)" d="M3885.85 1022.68 L3885.85 1030.04 L3894.63 1030.04 L3894.63 1033.35 L3885.85 1033.35 L3885.85 1047.42 Q3885.85 1050.59 3886.71 1051.5 Q3887.59 1052.4 3890.25 1052.4 L3894.63 1052.4 L3894.63 1055.96 L3890.25 1055.96 Q3885.32 1055.96 3883.45 1054.14 Q3881.57 1052.28 3881.57 1047.42 L3881.57 1033.35 L3878.45 1033.35 L3878.45 1030.04 L3881.57 1030.04 L3881.57 1022.68 L3885.85 1022.68 Z" fill="#000000" fill-rule="nonzero" fill-opacity="1" /><polyline clip-path="url(#clip510)" style="stroke:#e26f46; stroke-linecap:round; stroke-linejoin:round; stroke-width:12; stroke-opacity:1; fill:none" stroke-dasharray="48, 30" points="3359.14,1090.52 3645.61,1090.52 "/>
<path clip-path="url(#clip510)" d="M3693.36 1073.24 L3700.32 1073.24 L3709.14 1096.76 L3718.01 1073.24 L3724.98 1073.24 L3724.98 1107.8 L3720.42 1107.8 L3720.42 1077.46 L3711.5 1101.16 L3706.8 1101.16 L3697.89 1077.46 L3697.89 1107.8 L3693.36 1107.8 L3693.36 1073.24 Z" fill="#000000" fill-rule="nonzero" fill-opacity="1" /><path clip-path="url(#clip510)" d="M3754.98 1074.38 L3754.98 1078.94 Q3752.31 1077.67 3749.95 1077.04 Q3747.59 1076.42 3745.39 1076.42 Q3741.57 1076.42 3739.49 1077.9 Q3737.43 1079.38 3737.43 1082.11 Q3737.43 1084.4 3738.79 1085.58 Q3740.18 1086.74 3744.03 1087.46 L3746.85 1088.04 Q3752.08 1089.03 3754.56 1091.55 Q3757.06 1094.05 3757.06 1098.27 Q3757.06 1103.29 3753.68 1105.88 Q3750.32 1108.48 3743.82 1108.48 Q3741.36 1108.48 3738.59 1107.92 Q3735.83 1107.36 3732.87 1106.28 L3732.87 1101.46 Q3735.72 1103.06 3738.45 1103.87 Q3741.18 1104.68 3743.82 1104.68 Q3747.82 1104.68 3750 1103.11 Q3752.17 1101.53 3752.17 1098.61 Q3752.17 1096.07 3750.6 1094.63 Q3749.05 1093.2 3745.48 1092.48 L3742.64 1091.93 Q3737.41 1090.88 3735.07 1088.66 Q3732.73 1086.44 3732.73 1082.48 Q3732.73 1077.9 3735.95 1075.26 Q3739.19 1072.62 3744.86 1072.62 Q3747.29 1072.62 3749.81 1073.06 Q3752.34 1073.5 3754.98 1074.38 Z" fill="#000000" fill-rule="nonzero" fill-opacity="1" /><path clip-path="url(#clip510)" d="M3764.35 1073.24 L3786.2 1073.24 L3786.2 1077.18 L3769.03 1077.18 L3769.03 1087.41 L3785.48 1087.41 L3785.48 1091.35 L3769.03 1091.35 L3769.03 1103.87 L3786.62 1103.87 L3786.62 1107.8 L3764.35 1107.8 L3764.35 1073.24 Z" fill="#000000" fill-rule="nonzero" fill-opacity="1" /><path clip-path="url(#clip510)" d="M3813.4 1074.52 L3813.4 1081.88 L3822.17 1081.88 L3822.17 1085.19 L3813.4 1085.19 L3813.4 1099.26 Q3813.4 1102.43 3814.26 1103.34 Q3815.14 1104.24 3817.8 1104.24 L3822.17 1104.24 L3822.17 1107.8 L3817.8 1107.8 Q3812.87 1107.8 3810.99 1105.98 Q3809.12 1104.12 3809.12 1099.26 L3809.12 1085.19 L3805.99 1085.19 L3805.99 1081.88 L3809.12 1081.88 L3809.12 1074.52 L3813.4 1074.52 Z" fill="#000000" fill-rule="nonzero" fill-opacity="1" /><path clip-path="url(#clip510)" d="M3842.8 1085.86 Q3842.08 1085.44 3841.22 1085.26 Q3840.39 1085.05 3839.37 1085.05 Q3835.76 1085.05 3833.82 1087.41 Q3831.9 1089.75 3831.9 1094.15 L3831.9 1107.8 L3827.61 1107.8 L3827.61 1081.88 L3831.9 1081.88 L3831.9 1085.91 Q3833.24 1083.55 3835.39 1082.41 Q3837.54 1081.25 3840.62 1081.25 Q3841.06 1081.25 3841.6 1081.32 Q3842.13 1081.37 3842.78 1081.49 L3842.8 1085.86 Z" fill="#000000" fill-rule="nonzero" fill-opacity="1" /><path clip-path="url(#clip510)" d="M3859.05 1094.77 Q3853.89 1094.77 3851.9 1095.95 Q3849.91 1097.13 3849.91 1099.98 Q3849.91 1102.25 3851.39 1103.59 Q3852.89 1104.91 3855.46 1104.91 Q3859 1104.91 3861.13 1102.41 Q3863.28 1099.89 3863.28 1095.72 L3863.28 1094.77 L3859.05 1094.77 M3867.54 1093.01 L3867.54 1107.8 L3863.28 1107.8 L3863.28 1103.87 Q3861.83 1106.23 3859.65 1107.36 Q3857.47 1108.48 3854.33 1108.48 Q3850.35 1108.48 3847.98 1106.25 Q3845.65 1104.01 3845.65 1100.26 Q3845.65 1095.88 3848.56 1093.66 Q3851.5 1091.44 3857.31 1091.44 L3863.28 1091.44 L3863.28 1091.02 Q3863.28 1088.08 3861.34 1086.49 Q3859.42 1084.86 3855.92 1084.86 Q3853.7 1084.86 3851.6 1085.4 Q3849.49 1085.93 3847.54 1086.99 L3847.54 1083.06 Q3849.88 1082.16 3852.08 1081.72 Q3854.28 1081.25 3856.36 1081.25 Q3861.99 1081.25 3864.77 1084.17 Q3867.54 1087.09 3867.54 1093.01 Z" fill="#000000" fill-rule="nonzero" fill-opacity="1" /><path clip-path="url(#clip510)" d="M3876.32 1081.88 L3880.58 1081.88 L3880.58 1107.8 L3876.32 1107.8 L3876.32 1081.88 M3876.32 1071.79 L3880.58 1071.79 L3880.58 1077.18 L3876.32 1077.18 L3876.32 1071.79 Z" fill="#000000" fill-rule="nonzero" fill-opacity="1" /><path clip-path="url(#clip510)" d="M3911.04 1092.16 L3911.04 1107.8 L3906.78 1107.8 L3906.78 1092.3 Q3906.78 1088.61 3905.34 1086.79 Q3903.91 1084.96 3901.04 1084.96 Q3897.59 1084.96 3895.6 1087.16 Q3893.61 1089.36 3893.61 1093.15 L3893.61 1107.8 L3889.33 1107.8 L3889.33 1081.88 L3893.61 1081.88 L3893.61 1085.91 Q3895.14 1083.57 3897.2 1082.41 Q3899.28 1081.25 3901.99 1081.25 Q3906.46 1081.25 3908.75 1084.03 Q3911.04 1086.79 3911.04 1092.16 Z" fill="#000000" fill-rule="nonzero" fill-opacity="1" /></svg>
